<svg width="190" height="190" viewBox="-2 -2 194 194" fill="none"
    xmlns="http://www.w3.org/2000/svg">
    <path
        d="M94.8285 71.0004L94.8114 70.9999L94.7943 71C91.1208 71.0213 87.4797 71.6617 84.0234 72.8921L70.926 40.8064C70.926 40.8063 70.9259 40.8062 70.9259 40.8061C69.137 36.4187 68.4543 31.6587 68.9382 26.9454C69.422 22.2319 71.0575 17.7097 73.7006 13.7772C76.3436 9.84465 79.9132 6.6224 84.0949 4.39426C88.2765 2.16614 92.9419 1.0005 97.6801 1C97.6801 1 97.6801 1 97.6802 1H118.616C119.139 0.999978 119.652 1.13643 120.106 1.39586C120.559 1.65529 120.937 2.02869 121.202 2.47909C121.467 2.92952 121.61 3.4413 121.616 3.96376C121.622 4.48625 121.492 5.00133 121.238 5.458L121.237 5.45993C109.91 25.9356 102.214 48.2156 98.4891 71.312C97.276 71.1393 96.0539 71.0352 94.8285 71.0004Z"
        stroke="#00FFF0" stroke-width="5" />
    <path
        d="M109.8 95C109.8 103.284 103.084 110 94.7998 110C86.5155 110 79.7998 103.284 79.7998 95C79.7998 86.7157 86.5155 80 94.7998 80C103.084 80 109.8 86.7157 109.8 95Z"
        stroke="#00FFF0" stroke-width="5" />
    <path
        d="M176.14 73.6396L176.142 73.6405C180.102 76.2758 183.348 79.8498 185.591 84.044C187.835 88.2382 189.006 92.9223 189 97.6788V97.68V118.599C188.999 119.121 188.863 119.633 188.604 120.086C188.344 120.539 187.972 120.916 187.522 121.181C187.073 121.445 186.562 121.588 186.04 121.595C185.519 121.603 185.004 121.473 184.548 121.221C164.018 109.864 141.676 102.157 118.515 98.4409C119.211 93.6037 118.653 88.6683 116.894 84.1088L149.193 70.9339L149.195 70.9334C153.564 69.1442 158.307 68.4552 163.005 68.9271C167.703 69.3989 172.214 71.0171 176.14 73.6396Z"
        stroke="#00FFF0" stroke-width="5" />
    <path
        d="M70.8005 94.9684L70.7999 94.9862L70.8 95.0041C70.8159 98.7692 71.4819 102.501 72.7662 106.035L40.8221 119.074L40.8219 119.074C36.4336 120.866 31.6718 121.552 26.9562 121.069C22.2407 120.587 17.7161 118.952 13.7815 116.309C9.84687 113.665 6.62297 110.094 4.39401 105.911C2.16504 101.728 0.999453 97.0601 1 92.32V92.3198L1 71.3918L1 71.3907C0.999397 70.8673 1.13574 70.3528 1.39548 69.8984C1.65521 69.444 2.02931 69.0655 2.48062 68.8004C2.93192 68.5353 3.44472 68.3929 3.96809 68.3874C4.49146 68.3818 5.00716 68.5133 5.464 68.7687L5.46399 68.7687L5.46806 68.7709C25.8788 80.0584 48.0815 87.7392 71.0987 91.478C70.9369 92.635 70.8373 93.8002 70.8005 94.9684Z"
        stroke="#00FFF0" stroke-width="5" />
    <path
        d="M94.7651 118.999L94.7847 119L94.8043 119C98.6069 118.984 102.375 118.305 105.94 116.997L119.074 149.193C120.863 153.581 121.546 158.341 121.062 163.055C120.578 167.768 118.943 172.29 116.3 176.223C113.656 180.155 110.087 183.378 105.905 185.606C101.724 187.834 97.0582 188.999 92.3201 189H71.4001C70.8775 189 70.364 188.863 69.9104 188.604C69.4569 188.345 69.0789 187.971 68.814 187.521C68.5491 187.07 68.4064 186.559 68.4001 186.036C68.3938 185.514 68.5241 184.999 68.778 184.542L68.7791 184.54C80.0985 164.074 87.7913 141.806 91.5197 118.722C92.5959 118.869 93.6791 118.961 94.7651 118.999Z"
        stroke="#00FFF0" stroke-width="5" />
</svg>
