<svg width="360" height="800" viewBox="0 0 360 800" fill="none" xmlns="http://www.w3.org/2000/svg">
<g clip-path="url(#clip0_1162_1590)">
<rect width="360" height="800" fill="white"/>
<rect width="367" height="20" fill="url(#paint0_linear_1162_1590)"/>
<rect y="10" width="367" height="21" fill="url(#paint1_linear_1162_1590)"/>
<g filter="url(#filter0_d_1162_1590)">
<path d="M360 -19L358 -17.023L355.5 -16.5288L353 -17.023L351 -19V410L352.5 406.548L355 406.055L358 407.041L360 410V-19Z" fill="url(#paint2_linear_1162_1590)"/>
</g>
<g filter="url(#filter1_d_1162_1590)">
<path d="M351 -27L349 -25.023L346.5 -24.5288L344 -25.023L342 -27V402L343.5 398.548L346 398.055L349 399.041L351 402V-27Z" fill="url(#paint3_linear_1162_1590)"/>
</g>
<g filter="url(#filter2_d_1162_1590)">
<path d="M342 -44L340 -42.0276L337.5 -41.5346L335 -42.0276L333 -44V384L334.5 380.556L337 380.064L340 381.048L342 384V-44Z" fill="url(#paint4_linear_1162_1590)"/>
</g>
<g filter="url(#filter3_d_1162_1590)">
<path d="M333 -57L331 -55.0276L328.5 -54.5346L326 -55.0276L324 -57V371L325.5 367.556L328 367.064L331 368.048L333 371V-57Z" fill="url(#paint5_linear_1162_1590)"/>
</g>
<g filter="url(#filter4_d_1162_1590)">
<path d="M324 -67L322 -65.023L319.5 -64.5288L317 -65.023L315 -67V362L316.5 358.548L319 358.055L322 359.041L324 362V-67Z" fill="url(#paint6_linear_1162_1590)"/>
</g>
<g filter="url(#filter5_d_1162_1590)">
<path d="M315 -79L313 -77.023L310.5 -76.5288L308 -77.023L306 -79V350L307.5 346.548L310 346.055L313 347.041L315 350V-79Z" fill="url(#paint7_linear_1162_1590)"/>
</g>
<g filter="url(#filter6_d_1162_1590)">
<path d="M0 -7L2 -5.02304L4.5 -4.5288L7 -5.02304L9 -7V422L7.5 418.548L5 418.055L2 419.041L0 422V-7Z" fill="url(#paint8_linear_1162_1590)"/>
</g>
<g filter="url(#filter7_d_1162_1590)">
<path d="M9 -15L11 -13.023L13.5 -12.5288L16 -13.023L18 -15V414L16.5 410.548L14 410.055L11 411.041L9 414V-15Z" fill="url(#paint9_linear_1162_1590)"/>
</g>
<g filter="url(#filter8_d_1162_1590)">
<path d="M18 -32L20 -30.0276L22.5 -29.5346L25 -30.0276L27 -32V396L25.5 392.556L23 392.064L20 393.048L18 396V-32Z" fill="url(#paint10_linear_1162_1590)"/>
</g>
<g filter="url(#filter9_d_1162_1590)">
<path d="M27 -45L29 -43.0276L31.5 -42.5346L34 -43.0276L36 -45V383L34.5 379.556L32 379.064L29 380.048L27 383V-45Z" fill="url(#paint11_linear_1162_1590)"/>
</g>
<g filter="url(#filter10_d_1162_1590)">
<path d="M36 -55L38 -53.023L40.5 -52.5288L43 -53.023L45 -55V374L43.5 370.548L41 370.055L38 371.041L36 374V-55Z" fill="url(#paint12_linear_1162_1590)"/>
</g>
<g filter="url(#filter11_d_1162_1590)">
<path d="M45 -67L47 -65.023L49.5 -64.5288L52 -65.023L54 -67V362L52.5 358.548L50 358.055L47 359.041L45 362V-67Z" fill="url(#paint13_linear_1162_1590)"/>
</g>
<path d="M7.49854 793.472L16.0032 737.257H39.4457L48.2687 793.472" stroke="#461926" stroke-width="2" stroke-miterlimit="10" stroke-linecap="round" stroke-linejoin="round"/>
<path d="M27.8842 717.719C45.7431 717.719 60.2206 717.041 60.2206 716.205C60.2206 715.369 45.7431 714.691 27.8842 714.691C10.0253 714.691 -4.45215 715.369 -4.45215 716.205C-4.45215 717.041 10.0253 717.719 27.8842 717.719Z" fill="#461926"/>
<path d="M20.4776 657.885C20.8224 657.506 25.3048 646.419 19.6428 641.189C12.6956 634.637 10.2365 609.971 9.02543 615.226C7.11096 619.047 5.73716 632.159 7.22618 638.703C8.39372 644.711 14.627 649.301 16.6253 653.316C18.6211 657.382 20.5009 657.886 20.4776 657.885Z" fill="#137D3B"/>
<path d="M20.4776 657.885C20.5299 657.816 21.2656 646.506 20.6637 646.697C20.0884 646.827 19.9917 648.56 19.0909 648.378C18.1159 648.22 15.8324 638.639 15.1395 638.722C14.3547 638.806 15.7244 641.053 14.3845 640.877C12.922 640.643 12.1743 628.835 11.9398 629.11C11.6199 629.322 11.4572 631.937 11.0237 632.258C10.4758 632.441 9.94397 621.529 9.60233 622.183C9.13741 622.652 9.59749 625.747 8.92066 626.729C8.21563 627.661 8.0287 624.918 7.63308 625.807C7.06099 626.386 9.63375 632.784 9.3614 633.334C8.91502 633.62 8.45415 632.685 8.05853 633.126C7.58474 633.461 10.2308 636.736 10.1664 637.543C10.0125 638.239 8.87072 637.475 8.70715 637.584C8.35826 637.495 13.4264 643.345 12.9841 643.672C12.3846 643.849 10.6837 642.781 10.7602 643.723C10.7852 644.619 15.5907 646.636 16.2151 647.724C16.838 648.787 14.316 648.176 14.7084 648.869C15.1145 649.561 16.3924 649.422 17.7525 650.746C19.0941 652.091 20.4639 657.899 20.4776 657.885Z" fill="#13603B"/>
<path d="M23.2685 648.916C22.582 648.267 15.7484 635.682 22.1428 628.734C29.6557 620.641 29.7121 584.93 31.0722 589.383C33.0648 593.411 36.2225 613.911 35.7028 622.487C35.5546 630.807 29.2858 637.54 27.3424 642.787C25.5552 648.101 23.2403 648.919 23.2685 648.916Z" fill="#137D3B"/>
<path d="M23.2686 648.916C23.1083 648.744 20.6725 635.17 21.5064 635.4C22.2179 635.453 22.5507 637.509 23.632 637.144C24.7947 636.832 26.341 624.735 27.1532 624.564C28.0621 624.446 26.7519 627.578 28.274 627.008C29.8838 626.446 29.3593 611.18 29.6735 611.313C30.0297 611.433 30.4809 614.765 30.9797 615.017C31.5614 615.223 30.9321 600.116 31.3285 600.547C31.8209 600.918 31.7177 605.599 32.4913 606.58C33.289 607.554 33.1254 603.482 33.5992 604.532C34.2551 605.319 32.5332 615.371 32.8377 615.834C33.3317 616.072 33.6773 614.644 34.1237 615.113C34.666 615.473 32.3857 620.661 32.5259 621.647C32.7854 622.514 33.8788 621.218 34.0552 621.321C34.4952 621.21 29.7622 629.934 30.2319 630.162C30.9474 630.258 32.6758 628.547 32.7169 629.771C32.8845 630.928 27.6825 634.408 27.021 635.838C26.4328 637.256 29.3392 636.05 28.9677 636.98C28.5914 637.906 27.0621 637.965 25.5892 639.802C24.1388 641.654 23.2791 648.919 23.2686 648.916Z" fill="#13603B"/>
<path d="M26.5732 689.753C26.2638 688.893 19.6276 677.945 30.9855 670.726C36.9738 666.608 43.718 654.334 47.2979 646.006C51.1349 637.39 52.2799 632.374 54.1355 635.216C57.6945 639.402 58.0321 653.919 53.81 663.133C50.313 671.238 38.4363 679.363 34.1819 684.276C29.8937 689.431 26.5426 689.727 26.5732 689.753Z" fill="#13603B"/>
<path d="M26.5729 689.753C26.5624 689.691 27.1997 677.226 28.2214 677.306C29.2609 677.35 29.1456 679.317 30.7958 678.944C32.5814 678.757 38.3739 666.411 39.5882 666.099C40.9813 665.897 38.1394 669.212 40.5567 668.483C43.2632 667.68 46.5692 652.409 46.8842 652.669C47.441 652.801 47.3387 656.034 48.0679 656.268C49.0936 656.206 51.618 642.414 52.1353 643.252C52.958 643.69 51.672 647.575 52.7888 648.604C53.97 649.538 54.7556 646.186 55.3833 647.195C56.3486 647.604 50.4875 656.294 50.913 657.003C51.6776 657.206 52.6913 655.872 53.348 656.306C54.144 656.539 48.7125 661.619 48.6988 662.652C48.8438 663.48 51.0476 662.096 51.328 662.183C51.9282 661.93 41.7661 671.263 42.5058 671.471C43.5226 671.489 46.7464 669.534 46.4185 670.765C46.1687 671.949 37.3345 676.085 36.0243 677.492C34.7271 678.947 39.2643 677.525 38.4327 678.476C37.5827 679.428 35.3837 679.626 32.732 681.448C30.1069 683.377 26.5922 689.833 26.5729 689.753Z" fill="#13773B"/>
<path d="M25.67 721.839C25.4291 720.934 18.2345 709.673 29.5908 702.474C35.5751 698.297 42.6842 685.442 46.9378 676.37C51.4242 667.02 53.2025 661.288 54.955 663.919C58.4519 667.797 57.6148 683.338 53.0212 693.147C49.1205 701.949 37.1455 711.094 33.0378 716.125C28.8744 721.509 25.6482 721.813 25.67 721.839Z" fill="#13603B"/>
<path d="M25.6702 721.839C25.6452 721.752 25.8861 709.029 26.9336 709.14C27.9794 709.183 27.9109 711.184 29.5579 710.788C31.2822 710.595 37.0756 697.909 38.3905 697.493C39.8224 697.203 36.891 700.726 39.3736 699.841C42.0736 698.889 45.8542 683.071 46.245 683.262C46.8268 683.336 46.6116 686.649 47.3658 686.809C48.3746 686.694 51.6911 672.128 52.2551 672.846C53.0995 673.185 51.5154 677.431 52.6435 678.333C53.8303 679.141 54.8512 675.516 55.4499 676.468C56.3975 676.821 49.8419 686.622 50.2955 687.236C51.0779 687.354 52.1834 685.856 52.8417 686.216C53.6378 686.38 47.8485 692.224 47.8219 693.247C47.9468 694.077 50.2464 692.426 50.53 692.479C51.1061 692.236 40.5403 702.649 41.3412 702.729C42.3718 702.682 45.6697 700.424 45.316 701.695C45.0307 702.971 36.0772 707.77 34.7912 709.181C33.5012 710.715 38.0497 709.071 37.2198 710.065C36.3737 711.073 34.1628 711.385 31.5441 713.296C28.9367 715.312 25.6782 721.913 25.6702 721.839Z" fill="#13773B"/>
<path d="M33.1356 692.982C33.3298 692.574 28.7411 692.8 23.7003 690.025C18.6934 687.503 13.2618 682.077 12.6518 676.94C11.7647 670.922 5.21556 659.426 1.72585 652.798C-2.09905 645.663 -3.35602 642.846 -2.02814 641.646C-0.568118 639.558 2.14404 640.175 6.11961 644.47C9.93887 648.464 15.3406 656.398 18.3364 661.584C24.2619 671.514 25.9225 680.929 29.575 686.054C33.2508 691.009 33.1348 692.907 33.1356 692.982Z" fill="#137D3B"/>
<path d="M33.1356 692.982C33.3983 693.794 18.2623 684.66 18.8118 683.668C19.4645 683.228 21.7778 684.849 22.1686 683.789C22.4296 682.852 12.7703 670.706 13.6115 670.06C14.2609 669.385 15.7999 673.094 16.5444 671.642C16.8925 669.834 5.45247 656.482 6.2695 656.817C6.64257 656.525 9.15892 658.868 9.75195 658.678C9.84703 657.679 1.03615 646.809 2.07315 647.122C2.60091 646.474 4.7426 649.98 5.93592 649.74C7.0406 649.357 4.83605 646.121 5.73205 646.147C6.35086 645.783 10.9759 657.619 11.7293 657.608C12.2466 657.333 11.56 655.526 12.1813 655.443C12.7477 655.334 14.6928 662.889 15.5662 663.58C16.3905 664.25 16.2052 662.01 16.3994 661.925C16.5066 661.838 19.9286 673.759 20.5756 673.42C21.1404 673.099 20.9237 670.336 21.9172 671.489C22.9227 672.622 22.3918 678.893 23.2579 680.515C24.1491 682.106 24.9234 679.333 25.4818 680.368C26.0571 681.383 25.1531 682.329 25.9371 684.795C26.7468 687.477 33.1775 693.201 33.1356 692.982Z" fill="#13603B"/>
<path d="M24.0437 669.826C23.7867 669.355 28.0129 669.635 32.0972 666.991C36.1872 664.631 40.0008 659.455 38.9268 654.972C39.1588 642.328 46.4589 617.57 42.6695 616.98C40.8034 611.775 34.0391 631.798 29.8532 641.878C26.5537 650.717 27.3481 658.517 25.3934 663.323C23.3693 667.83 24.0317 669.777 24.0437 669.826Z" fill="#137D3B"/>
<path d="M24.0433 669.827C23.8322 670.534 35.7412 661.956 34.9709 661.109C34.2086 660.717 32.4352 662.208 31.7519 661.252C31.2169 660.422 37.1295 649.353 36.1698 648.733C35.3915 648.162 34.8976 651.54 33.8211 650.277C33.0854 648.931 40.3533 635.816 39.6072 635.917C39.2309 635.682 37.5485 638.188 36.9676 638.072C36.7709 637.518 41.8786 625.193 40.9705 625.245C40.4435 624.724 39.4444 628.923 38.3824 628.881C37.3817 628.794 38.5823 624.954 37.849 625.209C37.2866 625.384 35.6332 637.506 34.9661 637.38C34.4423 637.222 34.68 635.49 34.1128 635.54C33.5689 635.601 33.4182 642.485 32.793 643.153C32.1854 643.824 31.8607 641.893 31.6697 641.854C31.5037 641.813 31.125 652.292 30.4837 652.032C29.8713 651.773 29.4152 649.417 28.7787 650.462C28.0914 651.435 30.1444 656.827 29.7963 658.328C29.3733 659.752 27.9157 657.304 27.6724 658.227C27.4001 659.13 28.4854 659.954 28.4298 662.19C28.371 664.584 24.024 669.99 24.0433 669.827Z" fill="#13933B"/>
<path d="M26.2204 702.837C26.2269 702.417 27.0995 689.499 17.0574 681.988C11.7572 678.163 3.84795 666.063 -0.689228 659.265C-5.52937 651.96 -7.47848 649.317 -8.71531 651.608C-11.4774 654.231 -7.86605 666.643 -1.38379 676.981C4.16139 685.61 14.8126 692.789 19.212 697.619C23.7734 702.664 26.2293 702.787 26.2204 702.837Z" fill="#13AC3B"/>
<path d="M26.2209 702.838C26.1911 703.011 21.6459 689.3 20.994 689.283C20.2898 689.442 20.9973 691.657 19.7524 691.398C18.4148 691.303 10.761 678.381 9.89319 678.374C8.87714 678.398 11.7891 681.549 9.92543 681.163C7.73218 680.525 1.21285 665.022 1.13872 665.59C0.74068 665.805 1.627 669.038 1.14435 669.388C0.274946 669.173 -5.0148 656.442 -5.22752 657.571C-5.84472 658 -3.86579 661.339 -4.5531 662.42C-5.3242 663.348 -6.84949 660.313 -7.16857 661.247C-7.84862 661.539 -0.643595 669.643 -0.861148 670.447C-1.40584 670.718 -2.59191 669.438 -3.01573 669.903C-3.54834 670.198 2.1741 675.01 2.4263 676.072C2.56731 676.968 0.48928 675.721 0.287036 675.825C-0.106976 675.681 10.031 684.421 9.49354 684.735C8.81107 684.91 5.93051 683.211 6.54208 684.501C7.15606 685.788 14.4779 689.031 15.7703 690.424C17.1047 691.853 13.6117 690.901 14.4755 691.834C15.3554 692.764 16.8807 692.671 19.256 694.382C21.6298 696.244 26.2225 702.968 26.2209 702.838Z" fill="#13933B"/>
<path d="M28.664 668.957C28.9895 668.61 24.5345 666.936 20.6814 662.858C16.7864 658.989 13.6311 652.914 15.5343 648.678C17.1433 643.689 15.1781 631.966 14.482 623.504C13.6134 614.694 13.7157 608.922 14.7809 607.436C16.2474 602.588 23.4242 626.379 26.511 637.325C29.0878 647.241 27.2346 655.302 28.4222 661.235C29.7404 666.943 28.6833 668.938 28.664 668.957Z" fill="#13AC3B"/>
<path d="M28.6639 668.958C28.8911 669.367 17.692 656.248 18.6557 655.913C19.5235 655.715 21.1664 657.772 22.0664 656.978C22.8391 656.147 18.1738 643.247 19.2116 642.889C20.1052 642.458 20.1971 646.065 21.5008 645C22.5176 643.702 16.1941 628.672 16.9274 628.925C17.3189 628.74 18.8515 631.668 19.4679 631.664C19.7531 631.188 15.282 617.151 16.1514 617.256C16.6816 616.81 17.5075 621.548 18.5888 621.712C19.6258 621.853 18.5373 617.478 19.2729 617.926C19.9231 618.34 20.9891 631.39 21.616 631.371C22.1776 631.33 22.0527 629.483 22.6385 629.68C23.2267 629.88 22.8327 637 23.3911 637.847C23.964 638.683 24.4797 636.779 24.6771 636.791C24.918 636.761 24.1646 647.715 24.8076 647.641C25.4893 647.527 26.237 645.19 26.7575 646.458C27.386 647.65 24.5441 652.765 24.636 654.456C24.8704 656.087 26.7712 653.915 26.8752 654.975C27.025 656.023 25.7777 656.57 25.457 658.979C25.1444 661.456 28.6857 669.041 28.6639 668.958Z" fill="#13933B"/>
<path d="M33.2012 707.379C33.0812 706.543 28.9815 696.216 40.9066 689.332C47.2245 685.361 55.4416 673.572 60.2624 666.474C65.3708 658.98 67.5101 655.675 69.3569 658.374C73.0061 661.667 70.2795 673.049 64.1179 682.453C58.7894 690.392 46.1843 698.298 41.3506 702.707C36.3888 707.43 33.1811 707.331 33.2012 707.379Z" fill="#137D3B"/>
<path d="M33.2007 707.379C33.2329 707.436 36.2359 695.701 37.1489 695.709C38.1174 695.797 37.646 697.703 39.2527 697.411C40.9818 697.356 48.5535 685.405 49.7282 685.155C51.0755 685.012 47.8347 688.162 50.2302 687.535C52.9577 686.75 58.656 672.148 58.8953 672.542C59.4384 672.692 58.8373 675.726 59.5238 675.974C60.5672 675.766 65.3018 663.431 65.7675 664.429C66.5983 664.838 64.5984 668.122 65.6322 669.101C66.7417 669.944 68.1856 667.064 68.7198 667.958C69.6102 668.184 61.8733 675.959 62.2746 676.717C63.0175 676.909 64.2987 675.669 64.9118 676.064C65.6499 676.258 59.216 681.057 59.0701 682.054C59.0589 682.852 61.5011 681.523 61.7758 681.6C62.3012 681.369 50.7846 690.316 51.5235 690.52C52.467 690.568 55.9051 688.701 55.3637 689.894C54.848 691.084 45.8131 694.921 44.3668 696.212C42.8914 697.586 47.3537 696.363 46.4029 697.259C45.4312 698.157 43.3701 698.278 40.5693 699.918C37.7862 701.72 33.2136 707.508 33.2007 707.379Z" fill="#13933B"/>
<path d="M26.7221 715.789C27.5729 716.314 39.905 705.901 34.5435 696.75C29.8983 686.854 32.4131 652.805 29.2368 653.176C26.4505 654.027 21.973 678.146 21.1479 685.965C20.1681 694.15 24.3805 702.32 24.7335 708.077C24.8277 713.645 26.714 715.807 26.7221 715.789Z" fill="#13AC3B"/>
<path d="M26.722 715.789C26.9525 716.06 34.4419 703.738 33.3179 703.511C32.5194 703.303 31.4832 705.203 30.4083 704.419C29.377 703.616 31.0271 691.518 29.9966 691.109C28.9991 690.692 29.7097 694.121 28.1337 693.065C26.6672 692.033 30.2182 677.476 29.6316 677.444C29.1868 677.377 28.1144 680.445 27.4722 680.491C26.9404 680.527 29.4672 665.513 28.6969 665.492C28.037 665.465 27.8066 670.541 26.6979 671.059C25.6077 671.618 26.1217 667.198 25.4167 667.98C24.694 668.726 25.7334 680.42 25.1556 680.511C24.5546 680.543 24.3483 678.918 23.7762 679.19C23.167 679.395 24.9421 685.576 24.5578 686.411C24.1186 687.162 23.1751 685.471 22.9737 685.496C22.6296 685.329 25.8865 695.376 25.2346 695.358C24.4579 695.186 23.0776 692.943 22.794 694.058C22.3557 695.067 26.8098 700.25 27.1313 701.858C27.3215 703.419 24.6496 701.132 24.793 702.127C24.9075 703.13 26.4569 703.807 27.4416 706.154C28.4391 708.518 26.7406 715.815 26.722 715.789Z" fill="#13933B"/>
<path d="M35.6473 731.385C36.0171 732.207 18.1569 737.682 9.45153 722.5C5.29063 715.695 -6.88184 702.956 -14.5953 697.083C-22.5634 690.776 -27.3278 690.485 -25.6727 689.531C-23.9629 688.661 -19.4378 687.376 -13.4415 689.027C-7.56269 690.428 -0.209419 695.127 4.61058 700.782C13.8034 710.412 21.2687 722.878 27.6913 726.517C34.1333 730.244 35.6562 731.193 35.6473 731.385Z" fill="#13AC3B"/>
<path d="M35.6475 731.385C35.7426 732.786 18.1707 730.152 18.2304 728.251C18.3891 727.467 21.0988 728.379 20.6702 726.991C20.1215 726.099 5.58976 714.718 5.84518 713.491C5.92414 712.395 9.28331 716.46 8.93926 714.326C8.23503 711.748 -8.21679 700.017 -7.63826 700.325C-7.40379 699.916 -3.93021 701.68 -3.54828 701.247C-3.61354 699.803 -17.7786 691.858 -16.9253 692.267C-16.5273 691.612 -12.4558 693.98 -11.3874 693.425C-10.4165 692.64 -14.1173 690.682 -13.148 690.428C-12.5686 689.299 -3.064 699.105 -2.41618 699.262C-2.12852 698.716 -3.5515 697.014 -3.06804 696.646C-2.70465 696.107 2.54161 704.042 3.63018 704.637C4.59546 705.089 3.27161 702.399 3.37958 702.205C3.25389 701.874 12.4757 715.557 12.8705 714.905C13.0591 714.261 11.2469 710.777 12.6288 711.825C13.9639 712.912 17.5535 721.153 19.2698 722.674C20.9522 724.234 19.6718 720.573 20.7564 721.602C21.8482 722.591 21.8176 724.125 24.0656 726.591C26.3137 729.584 35.6483 731.888 35.6475 731.385Z" fill="#13933B"/>
<path d="M26.3997 727.669C25.7253 728.33 41.6244 735.839 44.3865 723.403C45.5581 717.8 52.4682 709.013 56.7354 703.84C61.1759 698.357 63.5424 697.378 61.9672 695.237C60.3903 692.8 57.0884 691.558 52.9887 693.328C48.9728 694.869 44.1271 699.502 41.3488 703.513C35.9696 710.67 33.5685 719.785 30.1078 722.836C26.6519 725.723 26.3965 727.569 26.3997 727.669Z" fill="#137D3B"/>
<path d="M26.4 727.669C26.1212 728.432 38.9141 728.443 38.6538 726.928C38.1857 726.059 36.1875 726.348 36.0166 724.977C35.9006 723.886 44.8912 716.705 44.3215 715.477C43.8517 714.369 42.2249 717.423 41.781 715.413C41.5352 713.274 52.4717 705.835 51.9254 705.715C51.5886 705.216 49.1221 706.22 48.6347 705.666C48.434 704.535 57.6865 698.43 56.8445 698.246C56.328 697.335 53.8978 699.611 52.8036 698.684C51.7779 697.629 54.1146 695.711 53.2516 695.205C52.6159 694.332 47.6227 703.73 47.0143 703.346C46.5977 702.735 47.3181 701.25 46.7976 700.775C46.3334 700.283 44.1176 707.136 43.3433 707.356C42.623 707.571 42.9751 705.279 42.8268 705.068C42.7769 704.899 38.9254 715.637 38.4411 714.878C38.0463 714.194 38.5112 711.363 37.6394 712.008C36.7652 712.629 36.4348 719.634 35.5767 720.828C34.7024 721.97 34.4639 718.572 33.9201 719.336C33.3593 720.06 33.9184 721.601 33.0112 723.714C32.0717 726.083 26.3645 727.915 26.4 727.669Z" fill="#13603B"/>
<path d="M24.0802 713.79C24.023 713.85 19.9185 701.151 11.7031 696.352C7.30288 693.902 -0.570904 685.005 -5.52869 680.665C-10.7854 675.823 -13.3163 675.166 -14.2042 676.941C-16.4942 678.065 -9.19326 687.953 -1.67964 697.07C4.84211 704.303 13.4226 707.898 17.7728 711.104C22.2794 714.41 24.0834 713.711 24.0802 713.79Z" fill="#137D3B"/>
<path d="M24.0803 713.79C24.0239 714.27 16.59 702.534 16.2806 702.495C15.885 702.871 17.0122 704.85 16.1509 704.963C15.1912 705.283 6.75664 694.829 6.25385 695.145C5.61006 695.498 8.31415 697.684 7.03059 697.905C5.41909 697.854 -2.89383 684.881 -2.79634 685.62C-3.04451 685.913 -1.64654 688.652 -1.90196 689.124C-2.54818 688.944 -9.5711 679.113 -9.59124 680.335C-10.0231 680.764 -7.60425 683.092 -7.92574 684.187C-8.32539 685.128 -10.372 682.811 -10.4381 683.642C-10.7829 683.958 -3.00341 689.83 -3.09124 690.634C-3.41676 691.024 -4.63747 690.092 -4.84133 690.617C-5.10481 691.041 0.319509 694.24 0.719161 695.171C1.06483 696.012 -0.710244 695.36 -0.830301 695.509C-1.02932 695.55 8.08533 701.158 7.76948 701.593C7.39642 701.986 5.05811 701.192 5.82518 702.283C6.62529 703.393 12.1535 704.266 13.3686 705.23C14.6328 706.213 12.1761 706.377 12.998 707.022C13.8319 707.65 14.74 707.078 16.7681 708.012C18.7946 709.164 24.0787 713.992 24.0803 713.79Z" fill="#13603B"/>
<path d="M32.4743 734.118C32.7056 733.705 28.5117 733.483 24.0825 730.006C19.6927 726.812 14.9525 720.493 15.1588 715.596C15.1475 709.886 9.77878 697.49 6.64682 689.516C3.23447 681.059 2.04357 676.829 3.39643 675.767C4.74364 673.905 7.60084 676.249 11.6425 682.08C15.5455 687.651 20.6838 696.754 23.0865 702.029C27.9783 712.35 27.9106 721.315 30.4785 726.812C33.0239 732.059 32.4679 734.057 32.4743 734.118Z" fill="#13603B"/>
<path d="M32.4743 734.118C32.8433 735.002 19.8127 724.051 20.3268 723.098C21.0568 722.79 23.0913 724.704 23.6569 723.734C24.1968 722.901 16.2344 709.747 17.078 709.214C17.8419 708.691 18.9111 712.508 19.8756 711.243C20.6257 709.766 10.2347 694.492 10.9559 694.788C11.366 694.594 13.7656 697.496 14.4021 697.432C14.6632 696.711 6.27046 683.279 7.28249 683.616C7.85296 683.116 9.87941 687.467 11.1396 687.521C12.3337 687.465 10.1985 683.444 11.1364 683.732C11.9002 683.766 15.8806 696.828 16.5865 696.836C17.1634 696.689 16.6163 694.772 17.2819 694.841C17.9256 694.902 19.1439 702.581 19.9384 703.381C20.7152 704.176 20.803 702.011 21.0157 701.97C21.2067 701.934 23.0929 713.811 23.7367 713.572C24.3612 713.345 24.5586 710.698 25.3933 711.932C26.2507 713.128 24.7157 719.036 25.2975 720.724C25.9155 722.372 27.1507 719.788 27.5262 720.848C27.9161 721.894 26.8703 722.702 27.1998 725.195C27.5866 727.889 32.5379 734.319 32.4743 734.118Z" fill="#13773B"/>
<path d="M-4.45215 716.205V718.624C-4.45215 720.19 -3.12993 721.451 -1.48861 721.451H0.505623L7.13856 750.308C7.74448 752.952 9.82657 755.093 12.5597 755.827C22.7838 758.593 33.008 758.581 43.2322 755.827C45.9645 755.093 48.0465 752.952 48.6533 750.308L55.2854 721.451H57.2579C58.8992 721.451 60.2214 720.19 60.2214 718.624V716.205C38.6628 717.476 17.1049 717.476 -4.45215 716.205Z" fill="#E47001"/>
<path d="M55.2843 721.451C55.2843 721.451 24.1364 726.301 7.63379 721.451C7.63379 721.451 31.0296 729.76 54.0249 726.93L55.2843 721.451Z" fill="#E44D01"/>
<path opacity="0.63" d="M-2.23918 717.692C-2.34231 717.692 -2.43978 717.686 -2.53809 717.682C-2.2319 718.976 -0.410102 720.033 2.0007 720.238C17.8474 721.586 50.7357 721.113 52.3835 720.21C53.1191 719.807 53.2626 718.779 53.1723 717.691C35.7286 718.409 17.3333 718.317 -2.23918 717.692Z" fill="#E49001"/>
<path opacity="0.63" d="M6.38085 723.582C4.89907 723.267 3.61469 724.743 3.94827 726.376C5.41957 733.575 8.85691 749.681 10.5933 751.868C12.8405 754.696 31.7136 757.025 35.6078 754.197C38.992 751.739 31.9707 734.165 30.0723 729.6C29.7895 728.92 29.2311 728.438 28.5688 728.297L6.38085 723.582Z" fill="#E49001"/>
<path d="M-13.4634 796.363L3.78694 737.258C19.7215 739.261 35.5714 739.283 51.3343 737.258L69.2308 796.363" stroke="#461926" stroke-width="2" stroke-miterlimit="10" stroke-linecap="round" stroke-linejoin="round"/>
<path d="M27.8839 799.992C50.7188 799.992 69.2302 798.44 69.2302 796.525C69.2302 794.611 50.7188 793.059 27.8839 793.059C5.04896 793.059 -13.4624 794.611 -13.4624 796.525C-13.4624 798.44 5.04896 799.992 27.8839 799.992Z" stroke="#461926" stroke-width="2" stroke-miterlimit="10" stroke-linecap="round" stroke-linejoin="round"/>
</g>
<defs>
<filter id="filter0_d_1162_1590" x="347" y="-19" width="17" height="437" filterUnits="userSpaceOnUse" color-interpolation-filters="sRGB">
<feFlood flood-opacity="0" result="BackgroundImageFix"/>
<feColorMatrix in="SourceAlpha" type="matrix" values="0 0 0 0 0 0 0 0 0 0 0 0 0 0 0 0 0 0 127 0" result="hardAlpha"/>
<feOffset dy="4"/>
<feGaussianBlur stdDeviation="2"/>
<feComposite in2="hardAlpha" operator="out"/>
<feColorMatrix type="matrix" values="0 0 0 0 0 0 0 0 0 0 0 0 0 0 0 0 0 0 0.25 0"/>
<feBlend mode="normal" in2="BackgroundImageFix" result="effect1_dropShadow_1162_1590"/>
<feBlend mode="normal" in="SourceGraphic" in2="effect1_dropShadow_1162_1590" result="shape"/>
</filter>
<filter id="filter1_d_1162_1590" x="338" y="-27" width="17" height="437" filterUnits="userSpaceOnUse" color-interpolation-filters="sRGB">
<feFlood flood-opacity="0" result="BackgroundImageFix"/>
<feColorMatrix in="SourceAlpha" type="matrix" values="0 0 0 0 0 0 0 0 0 0 0 0 0 0 0 0 0 0 127 0" result="hardAlpha"/>
<feOffset dy="4"/>
<feGaussianBlur stdDeviation="2"/>
<feComposite in2="hardAlpha" operator="out"/>
<feColorMatrix type="matrix" values="0 0 0 0 0 0 0 0 0 0 0 0 0 0 0 0 0 0 0.25 0"/>
<feBlend mode="normal" in2="BackgroundImageFix" result="effect1_dropShadow_1162_1590"/>
<feBlend mode="normal" in="SourceGraphic" in2="effect1_dropShadow_1162_1590" result="shape"/>
</filter>
<filter id="filter2_d_1162_1590" x="329" y="-44" width="17" height="436" filterUnits="userSpaceOnUse" color-interpolation-filters="sRGB">
<feFlood flood-opacity="0" result="BackgroundImageFix"/>
<feColorMatrix in="SourceAlpha" type="matrix" values="0 0 0 0 0 0 0 0 0 0 0 0 0 0 0 0 0 0 127 0" result="hardAlpha"/>
<feOffset dy="4"/>
<feGaussianBlur stdDeviation="2"/>
<feComposite in2="hardAlpha" operator="out"/>
<feColorMatrix type="matrix" values="0 0 0 0 0 0 0 0 0 0 0 0 0 0 0 0 0 0 0.25 0"/>
<feBlend mode="normal" in2="BackgroundImageFix" result="effect1_dropShadow_1162_1590"/>
<feBlend mode="normal" in="SourceGraphic" in2="effect1_dropShadow_1162_1590" result="shape"/>
</filter>
<filter id="filter3_d_1162_1590" x="320" y="-57" width="17" height="436" filterUnits="userSpaceOnUse" color-interpolation-filters="sRGB">
<feFlood flood-opacity="0" result="BackgroundImageFix"/>
<feColorMatrix in="SourceAlpha" type="matrix" values="0 0 0 0 0 0 0 0 0 0 0 0 0 0 0 0 0 0 127 0" result="hardAlpha"/>
<feOffset dy="4"/>
<feGaussianBlur stdDeviation="2"/>
<feComposite in2="hardAlpha" operator="out"/>
<feColorMatrix type="matrix" values="0 0 0 0 0 0 0 0 0 0 0 0 0 0 0 0 0 0 0.25 0"/>
<feBlend mode="normal" in2="BackgroundImageFix" result="effect1_dropShadow_1162_1590"/>
<feBlend mode="normal" in="SourceGraphic" in2="effect1_dropShadow_1162_1590" result="shape"/>
</filter>
<filter id="filter4_d_1162_1590" x="311" y="-67" width="17" height="437" filterUnits="userSpaceOnUse" color-interpolation-filters="sRGB">
<feFlood flood-opacity="0" result="BackgroundImageFix"/>
<feColorMatrix in="SourceAlpha" type="matrix" values="0 0 0 0 0 0 0 0 0 0 0 0 0 0 0 0 0 0 127 0" result="hardAlpha"/>
<feOffset dy="4"/>
<feGaussianBlur stdDeviation="2"/>
<feComposite in2="hardAlpha" operator="out"/>
<feColorMatrix type="matrix" values="0 0 0 0 0 0 0 0 0 0 0 0 0 0 0 0 0 0 0.25 0"/>
<feBlend mode="normal" in2="BackgroundImageFix" result="effect1_dropShadow_1162_1590"/>
<feBlend mode="normal" in="SourceGraphic" in2="effect1_dropShadow_1162_1590" result="shape"/>
</filter>
<filter id="filter5_d_1162_1590" x="302" y="-79" width="17" height="437" filterUnits="userSpaceOnUse" color-interpolation-filters="sRGB">
<feFlood flood-opacity="0" result="BackgroundImageFix"/>
<feColorMatrix in="SourceAlpha" type="matrix" values="0 0 0 0 0 0 0 0 0 0 0 0 0 0 0 0 0 0 127 0" result="hardAlpha"/>
<feOffset dy="4"/>
<feGaussianBlur stdDeviation="2"/>
<feComposite in2="hardAlpha" operator="out"/>
<feColorMatrix type="matrix" values="0 0 0 0 0 0 0 0 0 0 0 0 0 0 0 0 0 0 0.25 0"/>
<feBlend mode="normal" in2="BackgroundImageFix" result="effect1_dropShadow_1162_1590"/>
<feBlend mode="normal" in="SourceGraphic" in2="effect1_dropShadow_1162_1590" result="shape"/>
</filter>
<filter id="filter6_d_1162_1590" x="-4" y="-7" width="17" height="437" filterUnits="userSpaceOnUse" color-interpolation-filters="sRGB">
<feFlood flood-opacity="0" result="BackgroundImageFix"/>
<feColorMatrix in="SourceAlpha" type="matrix" values="0 0 0 0 0 0 0 0 0 0 0 0 0 0 0 0 0 0 127 0" result="hardAlpha"/>
<feOffset dy="4"/>
<feGaussianBlur stdDeviation="2"/>
<feComposite in2="hardAlpha" operator="out"/>
<feColorMatrix type="matrix" values="0 0 0 0 0 0 0 0 0 0 0 0 0 0 0 0 0 0 0.25 0"/>
<feBlend mode="normal" in2="BackgroundImageFix" result="effect1_dropShadow_1162_1590"/>
<feBlend mode="normal" in="SourceGraphic" in2="effect1_dropShadow_1162_1590" result="shape"/>
</filter>
<filter id="filter7_d_1162_1590" x="5" y="-15" width="17" height="437" filterUnits="userSpaceOnUse" color-interpolation-filters="sRGB">
<feFlood flood-opacity="0" result="BackgroundImageFix"/>
<feColorMatrix in="SourceAlpha" type="matrix" values="0 0 0 0 0 0 0 0 0 0 0 0 0 0 0 0 0 0 127 0" result="hardAlpha"/>
<feOffset dy="4"/>
<feGaussianBlur stdDeviation="2"/>
<feComposite in2="hardAlpha" operator="out"/>
<feColorMatrix type="matrix" values="0 0 0 0 0 0 0 0 0 0 0 0 0 0 0 0 0 0 0.25 0"/>
<feBlend mode="normal" in2="BackgroundImageFix" result="effect1_dropShadow_1162_1590"/>
<feBlend mode="normal" in="SourceGraphic" in2="effect1_dropShadow_1162_1590" result="shape"/>
</filter>
<filter id="filter8_d_1162_1590" x="14" y="-32" width="17" height="436" filterUnits="userSpaceOnUse" color-interpolation-filters="sRGB">
<feFlood flood-opacity="0" result="BackgroundImageFix"/>
<feColorMatrix in="SourceAlpha" type="matrix" values="0 0 0 0 0 0 0 0 0 0 0 0 0 0 0 0 0 0 127 0" result="hardAlpha"/>
<feOffset dy="4"/>
<feGaussianBlur stdDeviation="2"/>
<feComposite in2="hardAlpha" operator="out"/>
<feColorMatrix type="matrix" values="0 0 0 0 0 0 0 0 0 0 0 0 0 0 0 0 0 0 0.25 0"/>
<feBlend mode="normal" in2="BackgroundImageFix" result="effect1_dropShadow_1162_1590"/>
<feBlend mode="normal" in="SourceGraphic" in2="effect1_dropShadow_1162_1590" result="shape"/>
</filter>
<filter id="filter9_d_1162_1590" x="23" y="-45" width="17" height="436" filterUnits="userSpaceOnUse" color-interpolation-filters="sRGB">
<feFlood flood-opacity="0" result="BackgroundImageFix"/>
<feColorMatrix in="SourceAlpha" type="matrix" values="0 0 0 0 0 0 0 0 0 0 0 0 0 0 0 0 0 0 127 0" result="hardAlpha"/>
<feOffset dy="4"/>
<feGaussianBlur stdDeviation="2"/>
<feComposite in2="hardAlpha" operator="out"/>
<feColorMatrix type="matrix" values="0 0 0 0 0 0 0 0 0 0 0 0 0 0 0 0 0 0 0.25 0"/>
<feBlend mode="normal" in2="BackgroundImageFix" result="effect1_dropShadow_1162_1590"/>
<feBlend mode="normal" in="SourceGraphic" in2="effect1_dropShadow_1162_1590" result="shape"/>
</filter>
<filter id="filter10_d_1162_1590" x="32" y="-55" width="17" height="437" filterUnits="userSpaceOnUse" color-interpolation-filters="sRGB">
<feFlood flood-opacity="0" result="BackgroundImageFix"/>
<feColorMatrix in="SourceAlpha" type="matrix" values="0 0 0 0 0 0 0 0 0 0 0 0 0 0 0 0 0 0 127 0" result="hardAlpha"/>
<feOffset dy="4"/>
<feGaussianBlur stdDeviation="2"/>
<feComposite in2="hardAlpha" operator="out"/>
<feColorMatrix type="matrix" values="0 0 0 0 0 0 0 0 0 0 0 0 0 0 0 0 0 0 0.25 0"/>
<feBlend mode="normal" in2="BackgroundImageFix" result="effect1_dropShadow_1162_1590"/>
<feBlend mode="normal" in="SourceGraphic" in2="effect1_dropShadow_1162_1590" result="shape"/>
</filter>
<filter id="filter11_d_1162_1590" x="41" y="-67" width="17" height="437" filterUnits="userSpaceOnUse" color-interpolation-filters="sRGB">
<feFlood flood-opacity="0" result="BackgroundImageFix"/>
<feColorMatrix in="SourceAlpha" type="matrix" values="0 0 0 0 0 0 0 0 0 0 0 0 0 0 0 0 0 0 127 0" result="hardAlpha"/>
<feOffset dy="4"/>
<feGaussianBlur stdDeviation="2"/>
<feComposite in2="hardAlpha" operator="out"/>
<feColorMatrix type="matrix" values="0 0 0 0 0 0 0 0 0 0 0 0 0 0 0 0 0 0 0.25 0"/>
<feBlend mode="normal" in2="BackgroundImageFix" result="effect1_dropShadow_1162_1590"/>
<feBlend mode="normal" in="SourceGraphic" in2="effect1_dropShadow_1162_1590" result="shape"/>
</filter>
<linearGradient id="paint0_linear_1162_1590" x1="0" y1="10" x2="367" y2="10" gradientUnits="userSpaceOnUse">
<stop stop-color="#B8B3B3"/>
<stop offset="0.935" stop-color="#717171" stop-opacity="0.29"/>
</linearGradient>
<linearGradient id="paint1_linear_1162_1590" x1="0" y1="20.5" x2="367" y2="20.5" gradientUnits="userSpaceOnUse">
<stop stop-color="#786B6B"/>
<stop offset="0.935" stop-color="#717171" stop-opacity="0.29"/>
</linearGradient>
<linearGradient id="paint2_linear_1162_1590" x1="355.5" y1="-19" x2="355.5" y2="410" gradientUnits="userSpaceOnUse">
<stop stop-color="#F88686"/>
<stop offset="1" stop-color="#520202"/>
</linearGradient>
<linearGradient id="paint3_linear_1162_1590" x1="346.5" y1="-27" x2="346.5" y2="402" gradientUnits="userSpaceOnUse">
<stop stop-color="#F88686"/>
<stop offset="1" stop-color="#520202"/>
</linearGradient>
<linearGradient id="paint4_linear_1162_1590" x1="337.5" y1="-44" x2="337.5" y2="384" gradientUnits="userSpaceOnUse">
<stop stop-color="#F88686"/>
<stop offset="1" stop-color="#520202"/>
</linearGradient>
<linearGradient id="paint5_linear_1162_1590" x1="328.5" y1="-57" x2="328.5" y2="371" gradientUnits="userSpaceOnUse">
<stop stop-color="#F88686"/>
<stop offset="1" stop-color="#520202"/>
</linearGradient>
<linearGradient id="paint6_linear_1162_1590" x1="319.5" y1="-67" x2="319.5" y2="362" gradientUnits="userSpaceOnUse">
<stop stop-color="#F88686"/>
<stop offset="1" stop-color="#520202"/>
</linearGradient>
<linearGradient id="paint7_linear_1162_1590" x1="310.5" y1="-79" x2="310.5" y2="350" gradientUnits="userSpaceOnUse">
<stop stop-color="#F88686"/>
<stop offset="1" stop-color="#520202"/>
</linearGradient>
<linearGradient id="paint8_linear_1162_1590" x1="4.5" y1="-7" x2="4.5" y2="422" gradientUnits="userSpaceOnUse">
<stop stop-color="#F88686"/>
<stop offset="1" stop-color="#520202"/>
</linearGradient>
<linearGradient id="paint9_linear_1162_1590" x1="13.5" y1="-15" x2="13.5" y2="414" gradientUnits="userSpaceOnUse">
<stop stop-color="#F88686"/>
<stop offset="1" stop-color="#520202"/>
</linearGradient>
<linearGradient id="paint10_linear_1162_1590" x1="22.5" y1="-32" x2="22.5" y2="396" gradientUnits="userSpaceOnUse">
<stop stop-color="#F88686"/>
<stop offset="1" stop-color="#520202"/>
</linearGradient>
<linearGradient id="paint11_linear_1162_1590" x1="31.5" y1="-45" x2="31.5" y2="383" gradientUnits="userSpaceOnUse">
<stop stop-color="#F88686"/>
<stop offset="1" stop-color="#520202"/>
</linearGradient>
<linearGradient id="paint12_linear_1162_1590" x1="40.5" y1="-55" x2="40.5" y2="374" gradientUnits="userSpaceOnUse">
<stop stop-color="#F88686"/>
<stop offset="1" stop-color="#520202"/>
</linearGradient>
<linearGradient id="paint13_linear_1162_1590" x1="49.5" y1="-67" x2="49.5" y2="362" gradientUnits="userSpaceOnUse">
<stop stop-color="#F88686"/>
<stop offset="1" stop-color="#520202"/>
</linearGradient>
<clipPath id="clip0_1162_1590">
<rect width="360" height="800" fill="white"/>
</clipPath>
</defs>
</svg>
