<svg width="360" height="800" viewBox="0 0 360 800" fill="none" xmlns="http://www.w3.org/2000/svg">
<g clip-path="url(#clip0_1163_1972)">
<rect width="360" height="800" fill="url(#paint0_linear_1163_1972)"/>
<g filter="url(#filter0_d_1163_1972)">
<circle cx="92" cy="-31" r="23" fill="url(#paint1_linear_1163_1972)" shape-rendering="crispEdges"/>
</g>
<g filter="url(#filter1_f_1163_1972)">
<circle cx="300" cy="84" r="60" fill="#C7C9EE"/>
</g>
<g filter="url(#filter2_f_1163_1972)">
<path d="M34.7286 269.263C36.0572 260.328 48.9428 260.328 50.2714 269.263C50.9181 273.612 55.0086 276.584 59.3452 275.855C68.2534 274.358 72.2353 286.613 64.1482 290.637C60.2113 292.597 58.6489 297.405 60.6823 301.304C64.8592 309.314 54.4346 316.888 48.1079 310.44C45.0281 307.301 39.9719 307.301 36.8921 310.44C30.5654 316.888 20.1408 309.314 24.3177 301.304C26.3511 297.405 24.7887 292.597 20.8518 290.637C12.7647 286.613 16.7466 274.358 25.6548 275.855C29.9914 276.584 34.0819 273.612 34.7286 269.263Z" fill="#777DF5"/>
</g>
<g filter="url(#filter3_f_1163_1972)">
<path d="M165.729 111.263C167.057 102.328 179.943 102.328 181.271 111.263C181.918 115.612 186.009 118.584 190.345 117.855C199.253 116.358 203.235 128.613 195.148 132.637C191.211 134.597 189.649 139.405 191.682 143.304C195.859 151.314 185.435 158.888 179.108 152.44C176.028 149.301 170.972 149.301 167.892 152.44C161.565 158.888 151.141 151.314 155.318 143.304C157.351 139.405 155.789 134.597 151.852 132.637C143.765 128.613 147.747 116.358 156.655 117.855C160.991 118.584 165.082 115.612 165.729 111.263Z" fill="#777DF5"/>
</g>
<g filter="url(#filter4_f_1163_1972)">
<path d="M20.7286 166.263C22.0572 157.328 34.9428 157.328 36.2714 166.263C36.9181 170.612 41.0086 173.584 45.3452 172.855C54.2534 171.358 58.2353 183.613 50.1482 187.637C46.2113 189.597 44.6489 194.405 46.6823 198.304C50.8592 206.314 40.4346 213.888 34.1079 207.44C31.0281 204.301 25.9719 204.301 22.8921 207.44C16.5654 213.888 6.14076 206.314 10.3177 198.304C12.3511 194.405 10.7887 189.597 6.85184 187.637C-1.23526 183.613 2.74659 171.358 11.6548 172.855C15.9914 173.584 20.0819 170.612 20.7286 166.263Z" fill="#777DF5"/>
</g>
<g filter="url(#filter5_f_1163_1972)">
<path d="M147.729 197.263C149.057 188.328 161.943 188.328 163.271 197.263C163.918 201.612 168.009 204.584 172.345 203.855C181.253 202.358 185.235 214.613 177.148 218.637C173.211 220.597 171.649 225.405 173.682 229.304C177.859 237.314 167.435 244.888 161.108 238.44C158.028 235.301 152.972 235.301 149.892 238.44C143.565 244.888 133.141 237.314 137.318 229.304C139.351 225.405 137.789 220.597 133.852 218.637C125.765 214.613 129.747 202.358 138.655 203.855C142.991 204.584 147.082 201.612 147.729 197.263Z" fill="#777DF5"/>
</g>
<g filter="url(#filter6_f_1163_1972)">
<path d="M316.729 233.263C318.057 224.328 330.943 224.328 332.271 233.263C332.918 237.612 337.009 240.584 341.345 239.855C350.253 238.358 354.235 250.613 346.148 254.637C342.211 256.597 340.649 261.405 342.682 265.304C346.859 273.314 336.435 280.888 330.108 274.44C327.028 271.301 321.972 271.301 318.892 274.44C312.565 280.888 302.141 273.314 306.318 265.304C308.351 261.405 306.789 256.597 302.852 254.637C294.765 250.613 298.747 238.358 307.655 239.855C311.991 240.584 316.082 237.612 316.729 233.263Z" fill="#777DF5"/>
</g>
<g filter="url(#filter7_f_1163_1972)">
<path d="M92.7286 124.263C94.0572 115.328 106.943 115.328 108.271 124.263C108.918 128.612 113.009 131.584 117.345 130.855C126.253 129.358 130.235 141.613 122.148 145.637C118.211 147.597 116.649 152.405 118.682 156.304C122.859 164.314 112.435 171.888 106.108 165.44C103.028 162.301 97.9719 162.301 94.8921 165.44C88.5654 171.888 78.1408 164.314 82.3177 156.304C84.3511 152.405 82.7887 147.597 78.8518 145.637C70.7647 141.613 74.7466 129.358 83.6548 130.855C87.9914 131.584 92.0819 128.612 92.7286 124.263Z" fill="#777DF5"/>
</g>
<g filter="url(#filter8_f_1163_1972)">
<path d="M29.7286 52.2629C31.0572 43.3279 43.9428 43.3279 45.2714 52.2629C45.9181 56.6124 50.0086 59.5843 54.3452 58.8554C63.2534 57.3579 67.2353 69.6127 59.1482 73.6374C55.2113 75.5966 53.6489 80.4053 55.6823 84.3043C59.8592 92.3138 49.4346 99.8877 43.1079 93.4401C40.0281 90.3014 34.9719 90.3014 31.8921 93.4401C25.5654 99.8877 15.1408 92.3138 19.3177 84.3043C21.3511 80.4053 19.7887 75.5966 15.8518 73.6374C7.76474 69.6127 11.7466 57.3579 20.6548 58.8554C24.9914 59.5843 29.0819 56.6124 29.7286 52.2629Z" fill="#777DF5"/>
</g>
<g filter="url(#filter9_f_1163_1972)">
<path d="M133.729 21.2629C135.057 12.3279 147.943 12.3279 149.271 21.2629C149.918 25.6124 154.009 28.5843 158.345 27.8554C167.253 26.3579 171.235 38.6127 163.148 42.6374C159.211 44.5966 157.649 49.4053 159.682 53.3043C163.859 61.3138 153.435 68.8877 147.108 62.4401C144.028 59.3014 138.972 59.3014 135.892 62.4401C129.565 68.8877 119.141 61.3138 123.318 53.3043C125.351 49.4053 123.789 44.5966 119.852 42.6374C111.765 38.6127 115.747 26.3579 124.655 27.8554C128.991 28.5843 133.082 25.6124 133.729 21.2629Z" fill="#777DF5"/>
</g>
</g>
<defs>
<filter id="filter0_d_1163_1972" x="63" y="-60" width="66" height="66" filterUnits="userSpaceOnUse" color-interpolation-filters="sRGB">
<feFlood flood-opacity="0" result="BackgroundImageFix"/>
<feColorMatrix in="SourceAlpha" type="matrix" values="0 0 0 0 0 0 0 0 0 0 0 0 0 0 0 0 0 0 127 0" result="hardAlpha"/>
<feOffset dx="4" dy="4"/>
<feGaussianBlur stdDeviation="5"/>
<feComposite in2="hardAlpha" operator="out"/>
<feColorMatrix type="matrix" values="0 0 0 0 0 0 0 0 0 0 0 0 0 0 0 0 0 0 0.25 0"/>
<feBlend mode="normal" in2="BackgroundImageFix" result="effect1_dropShadow_1163_1972"/>
<feBlend mode="normal" in="SourceGraphic" in2="effect1_dropShadow_1163_1972" result="shape"/>
</filter>
<filter id="filter1_f_1163_1972" x="143.7" y="-72.3" width="312.6" height="312.6" filterUnits="userSpaceOnUse" color-interpolation-filters="sRGB">
<feFlood flood-opacity="0" result="BackgroundImageFix"/>
<feBlend mode="normal" in="SourceGraphic" in2="BackgroundImageFix" result="shape"/>
<feGaussianBlur stdDeviation="48.15" result="effect1_foregroundBlur_1163_1972"/>
</filter>
<filter id="filter2_f_1163_1972" x="-0.53125" y="245.562" width="86.0625" height="84.3037" filterUnits="userSpaceOnUse" color-interpolation-filters="sRGB">
<feFlood flood-opacity="0" result="BackgroundImageFix"/>
<feBlend mode="normal" in="SourceGraphic" in2="BackgroundImageFix" result="shape"/>
<feGaussianBlur stdDeviation="8.5" result="effect1_foregroundBlur_1163_1972"/>
</filter>
<filter id="filter3_f_1163_1972" x="130.469" y="87.5615" width="86.0625" height="84.3037" filterUnits="userSpaceOnUse" color-interpolation-filters="sRGB">
<feFlood flood-opacity="0" result="BackgroundImageFix"/>
<feBlend mode="normal" in="SourceGraphic" in2="BackgroundImageFix" result="shape"/>
<feGaussianBlur stdDeviation="8.5" result="effect1_foregroundBlur_1163_1972"/>
</filter>
<filter id="filter4_f_1163_1972" x="-14.5312" y="142.562" width="86.0625" height="84.3037" filterUnits="userSpaceOnUse" color-interpolation-filters="sRGB">
<feFlood flood-opacity="0" result="BackgroundImageFix"/>
<feBlend mode="normal" in="SourceGraphic" in2="BackgroundImageFix" result="shape"/>
<feGaussianBlur stdDeviation="8.5" result="effect1_foregroundBlur_1163_1972"/>
</filter>
<filter id="filter5_f_1163_1972" x="112.469" y="173.562" width="86.0625" height="84.3037" filterUnits="userSpaceOnUse" color-interpolation-filters="sRGB">
<feFlood flood-opacity="0" result="BackgroundImageFix"/>
<feBlend mode="normal" in="SourceGraphic" in2="BackgroundImageFix" result="shape"/>
<feGaussianBlur stdDeviation="8.5" result="effect1_foregroundBlur_1163_1972"/>
</filter>
<filter id="filter6_f_1163_1972" x="281.469" y="209.562" width="86.0625" height="84.3037" filterUnits="userSpaceOnUse" color-interpolation-filters="sRGB">
<feFlood flood-opacity="0" result="BackgroundImageFix"/>
<feBlend mode="normal" in="SourceGraphic" in2="BackgroundImageFix" result="shape"/>
<feGaussianBlur stdDeviation="8.5" result="effect1_foregroundBlur_1163_1972"/>
</filter>
<filter id="filter7_f_1163_1972" x="57.4688" y="100.562" width="86.0625" height="84.3037" filterUnits="userSpaceOnUse" color-interpolation-filters="sRGB">
<feFlood flood-opacity="0" result="BackgroundImageFix"/>
<feBlend mode="normal" in="SourceGraphic" in2="BackgroundImageFix" result="shape"/>
<feGaussianBlur stdDeviation="8.5" result="effect1_foregroundBlur_1163_1972"/>
</filter>
<filter id="filter8_f_1163_1972" x="-5.53125" y="28.5615" width="86.0625" height="84.3037" filterUnits="userSpaceOnUse" color-interpolation-filters="sRGB">
<feFlood flood-opacity="0" result="BackgroundImageFix"/>
<feBlend mode="normal" in="SourceGraphic" in2="BackgroundImageFix" result="shape"/>
<feGaussianBlur stdDeviation="8.5" result="effect1_foregroundBlur_1163_1972"/>
</filter>
<filter id="filter9_f_1163_1972" x="98.4688" y="-2.43848" width="86.0625" height="84.3037" filterUnits="userSpaceOnUse" color-interpolation-filters="sRGB">
<feFlood flood-opacity="0" result="BackgroundImageFix"/>
<feBlend mode="normal" in="SourceGraphic" in2="BackgroundImageFix" result="shape"/>
<feGaussianBlur stdDeviation="8.5" result="effect1_foregroundBlur_1163_1972"/>
</filter>
<linearGradient id="paint0_linear_1163_1972" x1="3.6602e-06" y1="-41" x2="380" y2="851" gradientUnits="userSpaceOnUse">
<stop stop-color="#262DDC"/>
<stop offset="1" stop-color="#44C9C1"/>
</linearGradient>
<linearGradient id="paint1_linear_1163_1972" x1="92" y1="-54" x2="92" y2="-8" gradientUnits="userSpaceOnUse">
<stop stop-color="#E66000" stop-opacity="0.6"/>
<stop offset="1" stop-color="#7F583C"/>
</linearGradient>
<clipPath id="clip0_1163_1972">
<rect width="360" height="800" fill="white"/>
</clipPath>
</defs>
</svg>
