<svg width="360" height="800" viewBox="0 0 360 800" fill="none" xmlns="http://www.w3.org/2000/svg">
<g clip-path="url(#clip0_1163_2201)">
<rect width="360" height="800" fill="white"/>
<g filter="url(#filter0_d_1163_2201)">
<circle cx="92" cy="-31" r="23" fill="url(#paint0_linear_1163_2201)" shape-rendering="crispEdges"/>
</g>
<g clip-path="url(#clip1_1163_2201)">
<path d="M359.906 690.391H0.0864258V749.001H359.906V690.391Z" fill="#3A2274" stroke="#2C091F" stroke-width="0.25" stroke-miterlimit="10" stroke-linecap="round" stroke-linejoin="round"/>
<path d="M359.906 690.391H0.0864258L42.1422 616.972H317.858L359.906 690.391Z" fill="#512E7C" stroke="#2C091F" stroke-width="0.25" stroke-miterlimit="10" stroke-linecap="round" stroke-linejoin="round"/>
<path d="M0.0864258 690.391L42.1422 616.972V0.192383H0.0864258V690.391Z" fill="#49277D" stroke="#2C091F" stroke-width="0.25" stroke-miterlimit="10" stroke-linecap="round" stroke-linejoin="round"/>
<path opacity="0.4" d="M0.0864258 690.391L42.1422 616.972V0.192383H0.0864258V690.391Z" fill="#292E35"/>
<path d="M359.906 690.391L317.858 616.972V0.192383H359.906V690.391Z" fill="#49277D" stroke="#2C091F" stroke-width="0.25" stroke-miterlimit="10" stroke-linecap="round" stroke-linejoin="round"/>
<path opacity="0.4" d="M359.906 690.391L317.858 616.972V0.192383H359.906V690.391Z" fill="#292E35"/>
<path d="M317.858 0.192383H42.1421V616.956H317.858V0.192383Z" fill="#3A2274" stroke="#2C091F" stroke-width="0.25" stroke-miterlimit="10" stroke-linecap="round" stroke-linejoin="round"/>
<path opacity="0.4" d="M317.858 0.192383H42.1421V616.956H317.858V0.192383Z" fill="#292E35"/>
<path d="M359.914 749.002H317.858V799.809H359.914V749.002Z" fill="#3A2274" stroke="#2C091F" stroke-width="0.25" stroke-miterlimit="10" stroke-linecap="round" stroke-linejoin="round"/>
<path d="M42.1422 749.002H0.0864258V799.809H42.1422V749.002Z" fill="#3A2274" stroke="#2C091F" stroke-width="0.25" stroke-miterlimit="10" stroke-linecap="round" stroke-linejoin="round"/>
<path d="M359.906 690.392H0.0864258V749.002H359.906V690.392Z" fill="#3A2274" stroke="#2C091F" stroke-width="0.25" stroke-miterlimit="10" stroke-linecap="round" stroke-linejoin="round"/>
<path d="M359.914 749.002H317.858V799.809H359.914V749.002Z" fill="#3A2274" stroke="#2C091F" stroke-width="0.25" stroke-miterlimit="10" stroke-linecap="round" stroke-linejoin="round"/>
<path d="M318 749.19H0V800.001H318V749.19Z" fill="#3A2274" stroke="#2C091F" stroke-width="0.25" stroke-miterlimit="10" stroke-linecap="round" stroke-linejoin="round"/>
<path d="M361.972 638.404C361.872 654.588 361.062 670.772 355.212 684.415C353.802 687.712 350.722 689.799 347.362 689.799H327.482C324.122 689.799 321.042 687.712 319.632 684.415C313.782 670.772 312.972 654.588 312.872 638.404C312.852 635.874 314.752 633.82 317.082 633.82H357.762C360.102 633.81 361.992 635.874 361.972 638.404Z" fill="#FF008A" stroke="#2C091F" stroke-width="0.25" stroke-miterlimit="10" stroke-linecap="round" stroke-linejoin="round"/>
<path d="M343.292 633.809H341.292C341.292 627.215 342.772 617.766 343.852 610.88C344.462 606.999 345.092 602.988 344.972 602.22C344.682 600.328 339.872 583.117 338.052 576.642L339.962 576.015C340.232 576.966 346.572 599.453 346.952 601.874C347.122 602.955 346.702 605.68 345.832 611.247C344.752 618.058 343.292 627.399 343.292 633.809ZM331.582 633.809H329.582C329.582 621.312 326.902 613.582 324.952 607.928C323.932 604.988 323.132 602.674 323.002 600.523C322.842 597.928 324.762 591.226 327.192 582.739C330.522 571.096 334.672 556.609 333.632 551.215L335.592 550.771C336.742 556.717 332.682 570.88 329.102 583.377C326.922 590.999 324.862 598.188 324.992 600.382C325.102 602.22 325.862 604.404 326.822 607.171C328.832 612.977 331.582 620.923 331.582 633.809Z" fill="#440226"/>
<path d="M333.302 559.626C342.682 556.837 347.022 553.701 348.262 549.961C348.862 548.112 348.662 546.123 347.632 544.35C346.602 542.609 344.702 541.042 341.732 540.62C341.732 540.62 341.292 538.891 340.292 537.161C339.282 535.442 337.692 533.68 334.972 534.123C331.592 534.674 328.992 539.539 328.652 545.074C328.462 547.831 328.802 550.707 329.622 553.258C330.442 555.82 331.732 558.037 333.302 559.626Z" fill="#FF008A"/>
<path d="M333.302 559.626C334.682 554.123 336.802 548.836 339.562 543.982" stroke="#2C091F" stroke-width="0.25" stroke-miterlimit="10" stroke-linecap="round" stroke-linejoin="round"/>
<path d="M324.372 596.393C322.962 586.382 320.722 581.55 317.572 579.831C316.012 578.998 314.242 578.966 312.552 579.831C310.882 580.685 309.282 582.469 308.552 585.485C308.552 585.485 306.972 585.734 305.322 586.555C303.682 587.398 301.932 588.825 302.002 591.69C302.092 595.258 306.102 598.534 310.962 599.528C313.382 600.047 315.972 600.025 318.322 599.474C320.692 598.912 322.792 597.831 324.372 596.393Z" fill="#FF008A"/>
<path d="M324.372 596.393C319.652 594.35 315.222 591.539 311.262 588.112" stroke="#2C091F" stroke-width="0.25" stroke-miterlimit="10" stroke-linecap="round" stroke-linejoin="round"/>
<path d="M345.822 607.582C350.122 609.074 353.052 610.404 355.462 610.923C357.862 611.474 359.822 611.215 361.432 610.274C364.632 608.415 365.962 603.744 362.092 599.409C362.092 599.409 362.702 597.885 362.832 596.015C362.962 594.145 362.602 591.917 360.592 590.523C359.332 589.669 357.742 589.604 355.972 590.22C354.212 590.836 352.262 592.134 350.512 593.95C348.762 595.766 347.232 598.101 346.382 600.555C345.512 603.009 345.342 605.517 345.822 607.582Z" fill="#FF008A"/>
<path d="M345.822 607.583C349.462 604.037 354.082 601.972 358.712 600.394" stroke="#2C091F" stroke-width="0.25" stroke-miterlimit="10" stroke-linecap="round" stroke-linejoin="round"/>
<path d="M322.822 572.123C327.712 563.571 326.382 555.907 323.262 552.382C321.712 550.598 319.732 549.809 317.882 550.209C316.022 550.598 314.292 552.144 313.042 554.923C313.042 554.923 311.462 554.815 309.762 555.398C308.062 555.961 306.252 557.204 305.672 559.69C304.942 562.782 307.222 565.701 310.652 568.025C314.092 570.307 318.722 572.101 322.822 572.123Z" fill="#FF008A"/>
<path d="M322.822 572.123C320.472 567.323 317.872 562.653 315.042 558.166L322.822 572.123Z" fill="#FF008A"/>
<path d="M322.822 572.123C320.472 567.323 317.872 562.653 315.042 558.166" stroke="#2C091F" stroke-width="0.25" stroke-miterlimit="10" stroke-linecap="round" stroke-linejoin="round"/>
<path d="M330.352 609.96C333.912 610.35 335.952 609.398 336.782 608.036C337.582 606.706 337.192 604.847 335.102 604.101C335.102 604.101 335.042 603.442 334.772 602.76C334.492 602.079 333.992 601.355 333.022 601.301C331.812 601.236 330.712 602.62 330.172 604.425C329.612 606.242 329.652 608.436 330.352 609.96Z" fill="#FF008A"/>
<path d="M330.352 609.96C331.502 608.274 332.752 606.663 334.092 605.149" stroke="#2C091F" stroke-width="0.25" stroke-miterlimit="10" stroke-linecap="round" stroke-linejoin="round"/>
<path d="M327.832 614.404C326.622 611.82 324.672 610.22 322.702 609.582C320.722 608.934 318.762 609.226 317.402 610.026C316.022 610.815 315.252 612.069 315.252 613.269C315.242 614.49 315.982 615.636 317.342 616.653C317.342 616.653 317.142 617.615 317.342 618.707C317.532 619.799 318.132 620.966 319.242 621.593C320.642 622.404 321.852 621.593 323.312 620.123C324.722 618.642 326.542 616.566 327.832 614.404Z" fill="#FF008A"/>
<path d="M327.832 614.404C324.932 614.198 321.992 614.696 319.272 615.809" stroke="#2C091F" stroke-width="0.25" stroke-miterlimit="10" stroke-linecap="round" stroke-linejoin="round"/>
<path d="M344.432 613.94C343.712 619.475 344.462 622.556 346.022 623.983C346.802 624.685 347.772 624.956 348.782 624.707C349.782 624.458 350.822 623.68 351.532 622.145C351.532 622.145 352.412 622.21 353.382 621.95C354.352 621.691 355.442 621.118 355.712 619.583C356.052 617.68 354.332 615.518 351.922 614.329C349.522 613.096 346.512 612.934 344.432 613.94Z" fill="#FF008A"/>
<path d="M344.432 613.939C346.622 615.831 348.622 617.994 350.362 620.372" stroke="#2C091F" stroke-width="0.25" stroke-miterlimit="10" stroke-linecap="round" stroke-linejoin="round"/>
<path d="M341.982 583.236C335.132 582.836 331.052 586.101 329.912 589.366C328.752 592.653 330.492 595.831 334.702 595.918C334.702 595.918 335.122 597.096 335.992 598.166C336.862 599.236 338.182 600.188 339.922 599.831C342.092 599.377 343.262 596.674 343.592 593.366C343.922 590.058 343.422 586.112 341.982 583.236Z" fill="#FF008A"/>
<path d="M341.982 583.236C339.932 586.588 337.972 589.993 336.092 593.463" stroke="#2C091F" stroke-width="0.25" stroke-miterlimit="10" stroke-linecap="round" stroke-linejoin="round"/>
<path d="M330.152 581.766C341.332 589.798 349.232 590.977 354.132 588.371C356.552 587.063 358.192 584.771 358.662 581.906C359.122 579.063 358.392 575.593 355.692 572.22C355.692 572.22 356.702 569.993 357.092 567.225C357.462 564.447 357.222 561.063 354.152 558.836C350.342 556.058 344.032 558.263 339.002 563.15C333.912 567.993 330.332 575.366 330.152 581.766Z" fill="#FF008A"/>
<path d="M330.152 581.766C336.712 578.328 343.562 575.549 350.582 573.463" stroke="#2C091F" stroke-width="0.25" stroke-miterlimit="10" stroke-linecap="round" stroke-linejoin="round"/>
<g opacity="0.4">
<path d="M327.622 686.962C325.032 686.962 322.512 683.837 321.442 681.329C315.542 667.556 314.952 650.821 314.862 636.216C314.862 635.578 315.082 634.973 315.502 634.508C315.922 634.054 316.482 633.805 317.072 633.805H357.752C358.342 633.805 358.902 634.054 359.322 634.508C359.742 634.962 359.972 635.567 359.962 636.216C359.872 650.821 359.282 667.567 353.382 681.329C352.312 683.837 350.082 686.962 347.492 686.962H327.622ZM348.052 620.465C347.782 620.465 347.522 620.356 347.302 620.151C346.892 619.773 346.572 619.059 346.372 618.075L344.472 618.14C344.672 616.648 344.892 615.167 345.102 613.729L345.952 613.492C346.452 613.351 347.002 613.286 347.582 613.286C348.782 613.286 350.012 613.578 351.072 614.119C353.012 615.07 353.842 616.497 353.752 617.005C353.712 617.232 353.662 617.481 352.902 617.686C352.442 617.805 351.972 617.816 351.782 617.816H351.642L350.332 617.74L349.732 619.005C349.372 619.783 348.862 620.292 348.312 620.432C348.242 620.454 348.142 620.465 348.052 620.465ZM320.342 617.6C320.312 617.6 320.252 617.578 320.182 617.535C319.522 617.156 319.342 616.378 319.302 616.151C319.182 615.524 319.282 614.962 319.292 614.951L319.552 613.556L318.482 612.713C317.712 612.129 317.252 611.535 317.252 611.113C317.252 610.756 317.592 610.194 318.342 609.762C318.942 609.405 319.712 609.221 320.502 609.221C321.042 609.221 321.592 609.308 322.122 609.481C323.132 609.805 324.082 610.465 324.872 611.373L326.472 610.335C326.492 610.389 326.502 610.443 326.522 610.497L325.642 611.827C324.702 613.243 323.422 614.821 321.912 616.41C320.822 617.513 320.442 617.6 320.342 617.6ZM357.832 606.875C357.232 606.875 356.572 606.789 355.882 606.637C354.462 606.335 352.782 605.697 350.662 604.897C349.552 604.475 348.342 604.021 346.982 603.546L346.672 603.437C346.682 603.362 346.692 603.286 346.702 603.221L348.402 598.789C349.152 596.843 350.392 594.919 351.902 593.351C353.382 591.816 355.092 590.637 356.592 590.119C357.172 589.913 357.712 589.816 358.192 589.816C358.722 589.816 359.162 589.946 359.532 590.194C360.152 590.627 360.992 591.47 360.842 593.697C360.742 595.146 360.262 596.378 360.262 596.4L359.742 597.719L360.662 598.756C362.032 600.292 362.642 601.881 362.432 603.373C362.262 604.562 361.552 605.6 360.492 606.216C359.702 606.659 358.832 606.875 357.832 606.875ZM339.172 595.578C338.602 595.578 338.042 595.243 337.492 594.573C336.882 593.827 336.562 592.973 336.552 592.962L336.062 591.632L334.732 591.589C333.362 591.556 332.352 591.124 331.872 590.356C331.482 589.74 331.452 588.886 331.772 587.967C332.272 586.562 333.532 585.254 335.252 584.4L338.792 582.627L335.392 580.551C334.342 579.913 333.282 579.221 332.222 578.486C332.282 577.827 332.392 577.146 332.532 576.454L333.352 573.524C334.762 569.459 337.302 565.481 340.312 562.605C343.532 559.47 347.212 557.61 350.142 557.61C351.282 557.61 352.242 557.892 353.012 558.454C354.842 559.783 355.492 561.729 355.092 564.746C354.762 567.113 353.882 569.081 353.872 569.102L353.292 570.389L354.152 571.47C356.182 574 357.072 576.81 356.662 579.373C356.312 581.513 355.082 583.254 353.202 584.27C351.952 584.929 350.462 585.275 348.772 585.275C347.322 585.275 345.722 585.027 344.022 584.529L341.102 583.686L341.552 587.081L341.602 587.297C341.782 587.967 341.962 588.605 342.132 589.221L341.292 592.713C341.102 593.481 340.562 595.308 339.522 595.524C339.412 595.567 339.292 595.578 339.172 595.578ZM314.542 595.567C313.462 595.567 312.392 595.459 311.352 595.232C307.352 594.41 304.062 591.816 304.002 589.448C303.972 588.421 304.222 587.329 306.182 586.324C307.502 585.665 308.832 585.437 308.852 585.437L310.152 585.221L310.492 583.848C311.122 581.265 312.432 580.108 313.422 579.6C313.972 579.319 314.532 579.178 315.092 579.178C315.642 579.178 316.182 579.319 316.692 579.589C319.092 580.897 320.852 585.081 322.072 592.4L323.302 592.454L322.252 593.21C321.002 594.119 319.502 594.8 317.912 595.167C316.832 595.437 315.702 595.567 314.542 595.567ZM333.922 555.016C332.902 553.751 332.082 552.162 331.512 550.389C330.782 548.119 330.472 545.524 330.642 543.07C330.922 538.486 332.992 534.464 335.262 534.097C335.452 534.064 335.632 534.054 335.802 534.054C336.522 534.054 337.502 534.292 338.602 536.162C339.412 537.567 339.802 539.027 339.802 539.037L340.162 540.4L341.462 540.594C344.042 540.962 345.322 542.292 345.942 543.351C346.632 544.529 346.782 545.816 346.372 547.081C345.402 550 341.562 552.519 334.632 554.789L333.922 555.016Z" fill="#440226"/>
<path d="M321.168 570.075C317.988 569.783 314.258 568.41 311.168 566.334C309.748 565.372 306.488 562.853 307.068 560.367C307.378 559.037 308.308 558.107 309.808 557.61C310.828 557.264 311.818 557.232 312.198 557.232H312.388L313.708 557.307L314.298 556.021C315.198 554.01 316.418 552.756 317.718 552.486C317.908 552.442 318.098 552.432 318.278 552.432C319.308 552.432 320.358 552.994 321.258 554.032C323.808 556.907 324.758 563.048 321.168 570.075Z" fill="#440226"/>
<path d="M333.842 607.885C333.722 607.009 333.792 605.993 334.062 605.117C334.322 604.252 334.682 603.755 334.892 603.55C334.902 603.571 334.912 603.604 334.932 603.636C335.042 603.907 335.092 604.231 335.102 604.328L335.242 605.701L336.462 606.155C336.942 606.328 337.122 606.544 337.152 606.631C337.172 606.707 337.112 606.815 337.092 606.847C336.792 607.334 335.782 607.874 333.852 607.874C333.862 607.885 333.852 607.885 333.842 607.885Z" fill="#1565D3"/>
</g>
</g>
<path d="M276.274 2.5791H76.8555V247.612H276.274V2.5791Z" fill="#A181ED" stroke="#2C091F" stroke-width="0.25" stroke-miterlimit="10" stroke-linecap="round" stroke-linejoin="round"/>
<path d="M232.145 164.145C262.732 133.559 262.732 83.9684 232.145 53.3818C201.559 22.7953 151.968 22.7953 121.382 53.3818C90.7953 83.9684 90.7953 133.559 121.382 164.145C151.968 194.732 201.559 194.732 232.145 164.145Z" fill="#FEB9B3"/>
<path d="M250.08 123.647C259.554 83.152 234.406 42.6444 193.912 33.1705C153.417 23.6966 112.909 48.844 103.435 89.3388C93.9613 129.834 119.109 170.341 159.604 179.815C200.098 189.289 240.606 164.142 250.08 123.647Z" fill="white"/>
<mask id="mask0_1163_2201" style="mask-type:luminance" maskUnits="userSpaceOnUse" x="80" y="1" width="201" height="247">
<path d="M280.161 1.98633H80.7422V247.019H280.161V1.98633Z" fill="white"/>
</mask>
<g mask="url(#mask0_1163_2201)">
<path d="M189.939 110.466C192.132 109.44 206.642 108.354 202.347 106.47C200.802 105.792 201.111 104.068 202.835 103.689C217.634 100.441 226.813 101.935 228.657 103.47C230.371 104.895 219.329 104.158 220.824 106.908C222.478 109.958 275.128 108.005 275.128 100.092C275.128 95.1586 246.386 94.6703 236.61 93.6836C231.637 93.1754 228.318 92.398 229.554 90.644C231.617 87.7041 254.349 90.2653 254.349 84.3456C254.349 80.8276 294.053 79.9406 294.053 83.9668C294.053 86.4882 269.906 85.103 269.906 88.7505C269.906 93.6637 341.402 89.189 341.402 94.0424C341.402 98.7065 375.266 96.1851 375.266 100.969C375.266 106.012 322.656 103.988 322.656 108.653C322.656 114.323 344.651 116.077 344.112 119.615C343.544 123.372 260.219 124.219 253.412 123.163C249.545 122.565 256.372 122.336 255.216 121C254.459 120.133 247.064 120.552 224.541 121.568C215.631 121.967 215.143 117.791 219.986 116.536C225.109 115.2 222.747 112.848 218.641 112.848C209.582 112.848 200.493 113.087 191.414 113.087C188.932 113.067 187.926 111.413 189.939 110.466ZM-1.33763 54.2683C7.74136 54.2683 16.8303 54.0291 25.8894 54.0291C29.9953 54.0291 32.3672 56.391 27.2348 57.7165C22.3913 58.9822 22.8796 63.1579 31.7892 62.7493C54.3123 61.7328 61.717 61.3142 62.4644 62.1813C63.6205 63.5167 56.7938 63.736 60.6606 64.3439C67.4673 65.4003 150.793 64.5532 151.361 60.796C151.899 57.2581 129.904 55.5041 129.904 49.8334C129.904 45.1694 182.514 47.1925 182.514 42.1497C182.514 37.366 148.65 39.8774 148.65 35.2233C148.65 30.3699 77.1543 34.8446 77.1543 29.9314C77.1543 26.2739 101.302 27.6592 101.302 25.1478C101.302 21.1215 61.5974 22.0085 61.5974 25.5265C61.5974 31.4462 38.865 28.885 36.8021 31.8249C35.5663 33.5889 38.885 34.3663 43.858 34.8646C53.6346 35.8612 82.3764 36.3395 82.3764 41.2727C82.3764 49.1856 29.7263 51.139 28.0719 48.0894C26.577 45.3388 37.6193 46.0862 35.9052 44.6511C34.0714 43.1263 24.8928 41.6315 10.0834 44.8704C8.35924 45.2491 8.0503 46.9732 9.59503 47.6509C13.8904 49.5345 -0.620085 50.6207 -2.8126 51.6472C-4.82572 52.6139 -3.81916 54.2683 -1.33763 54.2683Z" fill="#FF008A"/>
</g>
<mask id="mask1_1163_2201" style="mask-type:luminance" maskUnits="userSpaceOnUse" x="80" y="3" width="201" height="247">
<path d="M280.161 3.97949H80.7422V249.013H280.161V3.97949Z" fill="white"/>
</mask>
<g mask="url(#mask1_1163_2201)">
<path d="M151.759 211.451C142.68 211.451 133.591 211.211 124.532 211.211C120.426 211.211 118.054 213.573 123.187 214.899C128.03 216.165 127.542 220.34 118.632 219.932C96.1093 218.915 88.7046 218.497 87.9572 219.364C86.8011 220.699 93.6278 220.918 89.761 221.526C82.9543 222.583 -0.371124 221.736 -0.939184 217.978C-1.47735 214.44 20.5175 212.686 20.5175 207.016C20.5175 202.352 -32.0928 204.375 -32.0928 199.332C-32.0928 194.548 1.77156 197.06 1.77156 192.406C1.77156 187.552 73.2673 192.027 73.2673 187.114C73.2673 183.456 49.1198 184.842 49.1198 182.33C49.1198 178.304 88.8242 179.191 88.8242 182.709C88.8242 188.629 111.557 186.067 113.62 189.007C114.855 190.771 111.537 191.549 106.564 192.047C96.787 193.044 68.0452 193.522 68.0452 198.455C68.0452 206.368 120.695 208.321 122.35 205.272C123.845 202.521 112.802 203.269 114.516 201.833C116.35 200.309 125.529 198.814 140.338 202.053C142.062 202.431 142.371 204.156 140.827 204.833C136.531 206.717 151.042 207.803 153.234 208.83C155.257 209.796 154.241 211.451 151.759 211.451ZM390.683 248.494C381.604 248.494 372.515 248.255 363.456 248.255C359.35 248.255 356.978 250.617 362.111 251.942C366.954 253.208 366.466 257.384 357.556 256.975C335.033 255.959 327.629 255.54 326.881 256.407C325.725 257.743 332.552 257.962 328.685 258.57C321.878 259.626 238.553 258.779 237.985 255.022C237.447 251.484 259.441 249.73 259.441 244.059C259.441 239.395 206.831 241.418 206.831 236.376C206.831 231.592 240.695 234.103 240.695 229.449C240.695 224.596 312.191 229.07 312.191 224.157C312.191 220.5 288.044 221.885 288.044 219.374C288.044 215.347 327.748 216.234 327.748 219.752C327.748 225.672 350.48 223.111 352.543 226.051C353.779 227.815 350.461 228.592 345.488 229.09C335.711 230.087 306.969 230.565 306.969 235.499C306.969 243.411 359.619 245.365 361.274 242.315C362.768 239.565 351.726 240.312 353.44 238.877C355.274 237.352 364.453 235.857 379.262 239.096C380.986 239.475 381.295 241.199 379.75 241.877C375.455 243.76 389.966 244.847 392.158 245.873C394.171 246.85 393.165 248.494 390.683 248.494ZM345.996 150.06C343.803 149.034 329.293 147.948 333.588 146.064C335.133 145.386 334.824 143.662 333.1 143.283C318.3 140.035 309.122 141.529 307.278 143.064C305.564 144.489 316.606 143.752 315.111 146.502C313.457 149.552 260.807 147.599 260.807 139.686C260.807 134.753 289.549 134.264 299.325 133.278C304.298 132.769 307.617 131.992 306.381 130.238C304.318 127.298 281.586 129.859 281.586 123.94C281.586 120.422 241.881 119.535 241.881 123.561C241.881 126.082 266.029 124.697 266.029 128.344C266.029 133.258 194.533 128.783 194.533 133.636C194.533 138.3 160.669 135.779 160.669 140.563C160.669 145.606 213.279 143.582 213.279 148.247C213.279 153.917 191.284 155.671 191.822 159.209C192.39 162.966 275.716 163.813 282.523 162.757C286.389 162.159 279.563 161.93 280.719 160.594C281.476 159.727 288.871 160.146 311.394 161.162C320.304 161.561 320.792 157.385 315.948 156.13C310.826 154.794 313.188 152.432 317.294 152.432C326.353 152.432 335.442 152.671 344.521 152.671C346.992 152.651 348.009 150.997 345.996 150.06Z" fill="#FF008A"/>
</g>
<path opacity="0.8" d="M277.072 129.551H85.7251V245.156H277.072V129.551Z" fill="#3A2274"/>
<path d="M80.9894 243.062H85.1353L85.1353 -1.97151H80.9894L80.9894 243.062Z" fill="#2C091F" stroke="#2C091F" stroke-width="0.25" stroke-miterlimit="10" stroke-linecap="round" stroke-linejoin="round"/>
<path d="M276.262 243.062H280.408L280.408 -1.97151H276.262L276.262 243.062Z" fill="#2C091F" stroke="#2C091F" stroke-width="0.25" stroke-miterlimit="10" stroke-linecap="round" stroke-linejoin="round"/>
<path d="M184.427 112.949V-1.97852H176.584V112.949H83.063V128.137H278.336V112.949H184.427Z" fill="#FF008A" stroke="#2C091F" stroke-width="0.25" stroke-miterlimit="10" stroke-linecap="round" stroke-linejoin="round"/>
<path d="M80.9998 -1.97852H65.8018V243.055H80.9998V-1.97852Z" fill="#FF008A" stroke="#2C091F" stroke-width="0.25" stroke-miterlimit="10" stroke-linecap="round" stroke-linejoin="round"/>
<path d="M280.021 243.062H295.219L295.219 -1.97151H280.021L280.021 243.062Z" fill="#FF008A" stroke="#2C091F" stroke-width="0.25" stroke-miterlimit="10" stroke-linecap="round" stroke-linejoin="round"/>
<path d="M305.364 243.055H55.6367V253.001H305.364V243.055Z" fill="#FF008A" stroke="#2C091F" stroke-width="0.25" stroke-miterlimit="10" stroke-linecap="round" stroke-linejoin="round"/>
<g opacity="0.4">
<path opacity="0.8" d="M333.551 -2V164.292L315.956 163.82V-2H333.551Z" fill="#EF59AA"/>
<path opacity="0.8" d="M333.551 187.895V366.367L315.956 374V188.367L333.551 187.895Z" fill="#EF59AA"/>
<path opacity="0.8" d="M335.736 365.422L361.634 354.187V187.137L335.736 187.829V365.422Z" fill="#EF59AA"/>
<path opacity="0.8" d="M361.634 -2V165.05L335.923 164.358V-2H361.634Z" fill="#EF59AA"/>
</g>
<g opacity="0.4">
<path opacity="0.8" d="M25.0831 -2V164.292L42.6777 163.82V-2H25.0831Z" fill="#EF59AA"/>
<path opacity="0.8" d="M25.0831 187.895V366.367L42.6777 374V188.367L25.0831 187.895Z" fill="#EF59AA"/>
<path opacity="0.8" d="M22.8975 365.422L-3.00025 354.187V187.137L22.8975 187.829V365.422Z" fill="#EF59AA"/>
<path opacity="0.8" d="M-3.00006 -2V165.05L22.7109 164.358V-2H-3.00006Z" fill="#EF59AA"/>
</g>
<g clip-path="url(#clip2_1163_2201)">
<path d="M0.124512 -1.62012L52.0782 1.15341V213.559L0.124512 231.994V-1.62012Z" fill="#512E7C" stroke="#2C091F" stroke-width="0.25" stroke-miterlimit="10" stroke-linecap="round" stroke-linejoin="round"/>
<g opacity="0.2">
<path d="M0.124512 3.06641L47.9335 5.61805V215.028L0.124512 231.993V3.06641Z" fill="#982965"/>
</g>
<path d="M31.5933 -1.88867L54.4098 17.8681V13.3287L37.3544 -1.88867H31.5933Z" fill="#FF008A" stroke="#2C091F" stroke-width="0.25" stroke-miterlimit="10" stroke-linecap="round" stroke-linejoin="round"/>
<path opacity="0.4" d="M31.5933 -1.88867H34.3702L50.8142 12.7833V14.7617L31.5933 -1.88867Z" fill="#1565D3"/>
<path d="M41.1982 222.638L54.6478 204.425V210.832L43.3638 227.14L41.1982 222.638Z" fill="#FF008A" stroke="#2C091F" stroke-width="0.25" stroke-miterlimit="10" stroke-linecap="round" stroke-linejoin="round"/>
<g opacity="0.4">
<path d="M41.1982 222.73L52.4407 207.513V210.573L42.3484 225.134L41.1982 222.73Z" fill="#1565D3"/>
<path d="M41.1982 222.73L52.4407 207.513V210.573L42.3484 225.134L41.1982 222.73Z" fill="#1565D3"/>
</g>
</g>
</g>
<defs>
<filter id="filter0_d_1163_2201" x="63" y="-60" width="66" height="66" filterUnits="userSpaceOnUse" color-interpolation-filters="sRGB">
<feFlood flood-opacity="0" result="BackgroundImageFix"/>
<feColorMatrix in="SourceAlpha" type="matrix" values="0 0 0 0 0 0 0 0 0 0 0 0 0 0 0 0 0 0 127 0" result="hardAlpha"/>
<feOffset dx="4" dy="4"/>
<feGaussianBlur stdDeviation="5"/>
<feComposite in2="hardAlpha" operator="out"/>
<feColorMatrix type="matrix" values="0 0 0 0 0 0 0 0 0 0 0 0 0 0 0 0 0 0 0.25 0"/>
<feBlend mode="normal" in2="BackgroundImageFix" result="effect1_dropShadow_1163_2201"/>
<feBlend mode="normal" in="SourceGraphic" in2="effect1_dropShadow_1163_2201" result="shape"/>
</filter>
<linearGradient id="paint0_linear_1163_2201" x1="92" y1="-54" x2="92" y2="-8" gradientUnits="userSpaceOnUse">
<stop stop-color="#E66000" stop-opacity="0.6"/>
<stop offset="1" stop-color="#7F583C"/>
</linearGradient>
<clipPath id="clip0_1163_2201">
<rect width="360" height="800" fill="white"/>
</clipPath>
<clipPath id="clip1_1163_2201">
<rect width="360" height="800" fill="white"/>
</clipPath>
<clipPath id="clip2_1163_2201">
<rect width="55" height="234" fill="white" transform="translate(0 -2)"/>
</clipPath>
</defs>
</svg>
