<svg width="360" height="800" viewBox="0 0 360 800" fill="none" xmlns="http://www.w3.org/2000/svg">
<g clip-path="url(#clip0_1358_2337)">
<rect width="360" height="800" fill="white"/>
<path d="M18.6021 557.059L48.6796 572.912L-34.3818 730.495L-64.4594 714.641L18.6021 557.059Z" fill="#BFB7AF"/>
<path d="M51.3335 574.312L81.411 590.165L-1.6504 747.748L-31.7279 731.894L51.3335 574.312Z" fill="#BFB7AF"/>
<rect x="49.2375" y="571.854" width="3" height="179.329" transform="rotate(27.7936 49.2375 571.854)" fill="url(#paint0_linear_1358_2337)"/>
<rect x="81.969" y="589.106" width="3" height="179.329" transform="rotate(27.7936 81.969 589.106)" fill="url(#paint1_linear_1358_2337)"/>
<path d="M91.8125 575.045L121.89 590.899L5.96853 810.823L-24.109 794.969L91.8125 575.045Z" fill="#BFB7AF"/>
<rect x="126.933" y="581.329" width="3" height="250.959" transform="rotate(27.7936 126.933 581.329)" fill="url(#paint2_linear_1358_2337)"/>
<path d="M135.939 571.566L165.911 587.619L42.9182 817.267L12.9461 801.214L135.939 571.566Z" fill="#BFB7AF"/>
<path d="M181.416 565.022L211.388 581.075L75.535 834.735L45.5629 818.682L181.416 565.022Z" fill="#BFB7AF"/>
<rect x="166.768" y="586.019" width="3" height="262.322" transform="rotate(28.1723 166.768 586.019)" fill="url(#paint3_linear_1358_2337)"/>
<rect x="216.548" y="571.441" width="3" height="298.676" transform="rotate(28.1723 216.548 571.441)" fill="url(#paint4_linear_1358_2337)"/>
<path d="M220.516 570.961L250.488 587.013L127.107 817.385L97.1352 801.333L220.516 570.961Z" fill="#BFB7AF"/>
<path d="M261.944 571.979L291.916 588.031L159.724 834.855L129.752 818.802L261.944 571.979Z" fill="#BFB7AF"/>
<rect x="251.892" y="584.393" width="3" height="264.304" transform="rotate(28.1723 251.892 584.393)" fill="url(#paint5_linear_1358_2337)"/>
<rect x="282.523" y="605.568" width="3" height="260.099" transform="rotate(28.1723 282.523 605.568)" fill="url(#paint6_linear_1358_2337)"/>
<path d="M291.36 594.693L321.332 610.746L207.985 822.383L178.013 806.331L291.36 594.693Z" fill="#BFB7AF"/>
<path d="M333.255 594.838L363.227 610.89L240.601 839.852L210.629 823.8L333.255 594.838Z" fill="#BFB7AF"/>
<rect x="322.621" y="608.337" width="3" height="242.81" transform="rotate(28.1723 322.621 608.337)" fill="url(#paint7_linear_1358_2337)"/>
<rect x="363.425" y="610.521" width="3" height="260.15" transform="rotate(28.1723 363.425 610.521)" fill="url(#paint8_linear_1358_2337)"/>
<path d="M361.06 621.128L391.032 637.18L294.119 818.133L264.147 802.081L361.06 621.128Z" fill="#BFB7AF"/>
<path d="M400.61 623.785L430.582 639.837L325.736 835.603L295.764 819.551L400.61 623.785Z" fill="#BFB7AF"/>
<rect x="392.134" y="635.12" width="3" height="207.606" transform="rotate(28.1723 392.134 635.12)" fill="url(#paint9_linear_1358_2337)"/>
<rect x="430.75" y="639.521" width="3" height="222.431" transform="rotate(28.1723 430.75 639.521)" fill="url(#paint10_linear_1358_2337)"/>
<rect width="360" height="13" fill="url(#paint11_linear_1358_2337)"/>
<rect x="173" y="13" width="14" height="541" fill="url(#paint12_linear_1358_2337)"/>
<mask id="path-25-inside-1_1358_2337" fill="white">
<path d="M20 0H40V612H20V0Z"/>
</mask>
<path d="M20 0H40V612H20V0Z" fill="url(#paint13_linear_1358_2337)"/>
<path d="M37 0V612H43V0H37Z" fill="#370F2D" mask="url(#path-25-inside-1_1358_2337)"/>
<mask id="path-27-inside-2_1358_2337" fill="white">
<path d="M40 0H60V612H40V0Z"/>
</mask>
<path d="M40 0H60V612H40V0Z" fill="url(#paint14_linear_1358_2337)"/>
<path d="M57 0V612H63V0H57Z" fill="#370F2D" mask="url(#path-27-inside-2_1358_2337)"/>
<mask id="path-29-inside-3_1358_2337" fill="white">
<path d="M60 0H80V612H60V0Z"/>
</mask>
<path d="M60 0H80V612H60V0Z" fill="url(#paint15_linear_1358_2337)"/>
<path d="M77 0V612H83V0H77Z" fill="#370F2D" mask="url(#path-29-inside-3_1358_2337)"/>
<mask id="path-31-inside-4_1358_2337" fill="white">
<path d="M0 0H20V612H0V0Z"/>
</mask>
<path d="M0 0H20V612H0V0Z" fill="url(#paint16_linear_1358_2337)"/>
<path d="M17 0V612H23V0H17Z" fill="#370F2D" mask="url(#path-31-inside-4_1358_2337)"/>
<rect x="80" y="568" width="200" height="8" fill="url(#paint17_linear_1358_2337)"/>
<rect width="14" height="200" transform="matrix(0 -1 -1 0 280 568)" fill="url(#paint18_linear_1358_2337)"/>
<rect x="80" y="13" width="93" height="541" fill="#D9D9D9"/>
<rect x="187" y="13" width="93" height="541" fill="#D9D9D9"/>
<rect x="266" y="13" width="14" height="541" fill="url(#paint19_linear_1358_2337)"/>
<rect x="80" y="13" width="14" height="541" fill="url(#paint20_linear_1358_2337)"/>
<rect x="80" y="576" width="200" height="15" fill="url(#paint21_linear_1358_2337)"/>
<mask id="path-40-inside-5_1358_2337" fill="white">
<path d="M340 0H320V612H340V0Z"/>
</mask>
<path d="M340 0H320V612H340V0Z" fill="url(#paint22_linear_1358_2337)"/>
<path d="M323 0V612H317V0H323Z" fill="#370F2D" mask="url(#path-40-inside-5_1358_2337)"/>
<mask id="path-42-inside-6_1358_2337" fill="white">
<path d="M320 0H300V612H320V0Z"/>
</mask>
<path d="M320 0H300V612H320V0Z" fill="url(#paint23_linear_1358_2337)"/>
<path d="M303 0V612H297V0H303Z" fill="#370F2D" mask="url(#path-42-inside-6_1358_2337)"/>
<mask id="path-44-inside-7_1358_2337" fill="white">
<path d="M300 0H280V612H300V0Z"/>
</mask>
<path d="M300 0H280V612H300V0Z" fill="url(#paint24_linear_1358_2337)"/>
<path d="M283 0V612H277V0H283Z" fill="#370F2D" mask="url(#path-44-inside-7_1358_2337)"/>
<mask id="path-46-inside-8_1358_2337" fill="white">
<path d="M360 0H340V612H360V0Z"/>
</mask>
<path d="M360 0H340V612H360V0Z" fill="url(#paint25_linear_1358_2337)"/>
<path d="M343 0V612H337V0H343Z" fill="#370F2D" mask="url(#path-46-inside-8_1358_2337)"/>
<path d="M363.012 772.595L374.616 778.809L357.666 810.457L346.063 804.242L363.012 772.595Z" fill="#BFB7AF"/>
</g>
<defs>
<linearGradient id="paint0_linear_1358_2337" x1="37.8804" y1="655.54" x2="83.9657" y2="655.233" gradientUnits="userSpaceOnUse">
<stop stop-color="#888181"/>
<stop offset="1" stop-color="#463333"/>
</linearGradient>
<linearGradient id="paint1_linear_1358_2337" x1="70.6119" y1="672.793" x2="116.697" y2="672.486" gradientUnits="userSpaceOnUse">
<stop stop-color="#888181"/>
<stop offset="1" stop-color="#463333"/>
</linearGradient>
<linearGradient id="paint2_linear_1358_2337" x1="115.575" y1="698.444" x2="161.662" y2="698.224" gradientUnits="userSpaceOnUse">
<stop stop-color="#888181"/>
<stop offset="1" stop-color="#463333"/>
</linearGradient>
<linearGradient id="paint3_linear_1358_2337" x1="155.41" y1="708.436" x2="201.497" y2="708.225" gradientUnits="userSpaceOnUse">
<stop stop-color="#888181"/>
<stop offset="1" stop-color="#463333"/>
</linearGradient>
<linearGradient id="paint4_linear_1358_2337" x1="205.191" y1="710.823" x2="251.277" y2="710.639" gradientUnits="userSpaceOnUse">
<stop stop-color="#888181"/>
<stop offset="1" stop-color="#463333"/>
</linearGradient>
<linearGradient id="paint5_linear_1358_2337" x1="240.534" y1="707.734" x2="286.621" y2="707.526" gradientUnits="userSpaceOnUse">
<stop stop-color="#888181"/>
<stop offset="1" stop-color="#463333"/>
</linearGradient>
<linearGradient id="paint6_linear_1358_2337" x1="271.166" y1="726.948" x2="317.252" y2="726.736" gradientUnits="userSpaceOnUse">
<stop stop-color="#888181"/>
<stop offset="1" stop-color="#463333"/>
</linearGradient>
<linearGradient id="paint7_linear_1358_2337" x1="311.264" y1="721.648" x2="357.35" y2="721.421" gradientUnits="userSpaceOnUse">
<stop stop-color="#888181"/>
<stop offset="1" stop-color="#463333"/>
</linearGradient>
<linearGradient id="paint8_linear_1358_2337" x1="352.067" y1="731.924" x2="398.154" y2="731.712" gradientUnits="userSpaceOnUse">
<stop stop-color="#888181"/>
<stop offset="1" stop-color="#463333"/>
</linearGradient>
<linearGradient id="paint9_linear_1358_2337" x1="380.777" y1="732.003" x2="426.863" y2="731.737" gradientUnits="userSpaceOnUse">
<stop stop-color="#888181"/>
<stop offset="1" stop-color="#463333"/>
</linearGradient>
<linearGradient id="paint10_linear_1358_2337" x1="419.393" y1="743.322" x2="465.479" y2="743.074" gradientUnits="userSpaceOnUse">
<stop stop-color="#888181"/>
<stop offset="1" stop-color="#463333"/>
</linearGradient>
<linearGradient id="paint11_linear_1358_2337" x1="198.5" y1="-14" x2="198.5" y2="13" gradientUnits="userSpaceOnUse">
<stop stop-color="#FFB5EC"/>
<stop offset="0.96" stop-color="#211818"/>
</linearGradient>
<linearGradient id="paint12_linear_1358_2337" x1="173" y1="13" x2="180" y2="560.5" gradientUnits="userSpaceOnUse">
<stop stop-color="#928D91"/>
<stop offset="0.988722" stop-color="#737373"/>
</linearGradient>
<linearGradient id="paint13_linear_1358_2337" x1="8" y1="306" x2="48.8" y2="306" gradientUnits="userSpaceOnUse">
<stop stop-color="#A26E98"/>
<stop offset="1" stop-color="#37062B"/>
</linearGradient>
<linearGradient id="paint14_linear_1358_2337" x1="28" y1="306" x2="68.8" y2="306" gradientUnits="userSpaceOnUse">
<stop stop-color="#A26E98"/>
<stop offset="1" stop-color="#37062B"/>
</linearGradient>
<linearGradient id="paint15_linear_1358_2337" x1="48" y1="306" x2="88.8" y2="306" gradientUnits="userSpaceOnUse">
<stop stop-color="#A26E98"/>
<stop offset="1" stop-color="#37062B"/>
</linearGradient>
<linearGradient id="paint16_linear_1358_2337" x1="-12" y1="306" x2="28.8" y2="306" gradientUnits="userSpaceOnUse">
<stop stop-color="#A26E98"/>
<stop offset="1" stop-color="#37062B"/>
</linearGradient>
<linearGradient id="paint17_linear_1358_2337" x1="180" y1="557.6" x2="180" y2="579.467" gradientUnits="userSpaceOnUse">
<stop stop-color="#F3E1E1"/>
<stop offset="1" stop-color="#939393"/>
</linearGradient>
<linearGradient id="paint18_linear_1358_2337" x1="0" y1="0" x2="0.956808" y2="202.432" gradientUnits="userSpaceOnUse">
<stop stop-color="#928D91"/>
<stop offset="0.988722" stop-color="#737373"/>
</linearGradient>
<linearGradient id="paint19_linear_1358_2337" x1="266" y1="13" x2="273" y2="560.5" gradientUnits="userSpaceOnUse">
<stop stop-color="#928D91"/>
<stop offset="0.988722" stop-color="#737373"/>
</linearGradient>
<linearGradient id="paint20_linear_1358_2337" x1="80" y1="13" x2="87" y2="560.5" gradientUnits="userSpaceOnUse">
<stop stop-color="#928D91"/>
<stop offset="0.988722" stop-color="#737373"/>
</linearGradient>
<linearGradient id="paint21_linear_1358_2337" x1="180" y1="556.5" x2="180" y2="591" gradientUnits="userSpaceOnUse">
<stop stop-color="#A0A0A0"/>
<stop offset="1" stop-color="#686468"/>
</linearGradient>
<linearGradient id="paint22_linear_1358_2337" x1="352" y1="306" x2="311.2" y2="306" gradientUnits="userSpaceOnUse">
<stop stop-color="#A26E98"/>
<stop offset="1" stop-color="#37062B"/>
</linearGradient>
<linearGradient id="paint23_linear_1358_2337" x1="332" y1="306" x2="291.2" y2="306" gradientUnits="userSpaceOnUse">
<stop stop-color="#A26E98"/>
<stop offset="1" stop-color="#37062B"/>
</linearGradient>
<linearGradient id="paint24_linear_1358_2337" x1="312" y1="306" x2="271.2" y2="306" gradientUnits="userSpaceOnUse">
<stop stop-color="#A26E98"/>
<stop offset="1" stop-color="#37062B"/>
</linearGradient>
<linearGradient id="paint25_linear_1358_2337" x1="372" y1="306" x2="331.2" y2="306" gradientUnits="userSpaceOnUse">
<stop stop-color="#A26E98"/>
<stop offset="1" stop-color="#37062B"/>
</linearGradient>
<clipPath id="clip0_1358_2337">
<rect width="360" height="800" fill="white"/>
</clipPath>
</defs>
</svg>
