<svg width="360" height="800" viewBox="0 0 360 800" fill="none" xmlns="http://www.w3.org/2000/svg">
<g clip-path="url(#clip0_1177_1713)">
<rect width="360" height="800" fill="url(#paint0_linear_1177_1713)"/>
<g filter="url(#filter0_f_1177_1713)">
<path d="M291.286 138.86L330.5 100.31L369.714 138.86L383.492 192.095L330.5 206.78L277.508 192.095L291.286 138.86Z" stroke="#87D84B" stroke-width="9"/>
</g>
<g filter="url(#filter1_f_1177_1713)">
<path d="M381.5 419.035C381.5 427.126 376.607 434.726 367.671 441.757C358.771 448.76 346.368 454.773 332.624 459.674C305.129 469.478 273.239 474.5 255.851 474.5C251.51 474.5 248.509 474.184 246.492 473.66C244.457 473.131 243.881 472.511 243.72 472.27C243.588 472.07 243.357 471.557 243.619 470.145C243.887 468.705 244.573 466.845 245.669 464.405C246.338 462.917 247.133 461.276 248 459.491C252.654 449.896 259.35 436.091 259.35 419.035C259.35 410.039 261.804 405.067 265.279 402.166C268.907 399.139 274.356 397.752 281.628 397.532C288.857 397.313 297.237 398.251 306.294 399.291L306.825 399.352C315.618 400.363 324.968 401.437 333.941 401.437C343.141 401.437 351.01 400.311 357.517 399.27C358.274 399.149 359.006 399.031 359.714 398.916C365.281 398.015 369.394 397.349 372.652 397.528C374.391 397.624 375.617 397.959 376.533 398.474C377.406 398.965 378.217 399.742 378.943 401.115C380.51 404.079 381.5 409.449 381.5 419.035Z" stroke="#75D12D" stroke-width="7"/>
</g>
<g filter="url(#filter2_f_1177_1713)">
<path d="M332.158 613.06C350.149 630.134 350.893 658.56 333.819 676.552C316.746 694.543 288.32 695.287 270.328 678.214C268.018 676.021 266.838 674.442 266.296 673.382C266.001 672.805 265.953 672.505 265.951 672.395C265.98 672.327 266.172 671.94 267.043 671.261C268.043 670.481 269.531 669.628 271.613 668.63C273.342 667.801 275.273 666.966 277.445 666.028C277.871 665.844 278.306 665.656 278.75 665.463C281.413 664.309 284.333 663.02 287.302 661.529C293.229 658.552 299.566 654.667 304.87 649.079C310.173 643.49 313.721 636.958 316.384 630.884C317.718 627.841 318.852 624.857 319.865 622.138C320.034 621.684 320.199 621.24 320.361 620.805C321.184 618.587 321.917 616.615 322.654 614.845C323.542 612.713 324.316 611.183 325.043 610.144C325.676 609.238 326.052 609.026 326.118 608.994C326.228 608.99 326.53 609.022 327.122 609.287C328.208 609.772 329.847 610.868 332.158 613.06ZM265.956 672.345C265.958 672.345 265.958 672.362 265.951 672.39C265.951 672.358 265.954 672.344 265.956 672.345ZM326.068 609.001C326.067 608.999 326.081 608.995 326.113 608.994C326.085 609.003 326.069 609.003 326.068 609.001Z" stroke="#96F04E" stroke-width="10"/>
</g>
<rect x="366.536" y="390.935" width="137.666" height="30.4967" transform="rotate(89.4531 366.536 390.935)" fill="url(#paint1_linear_1177_1713)" stroke="url(#paint2_linear_1177_1713)" stroke-width="7"/>
<rect x="367.938" y="533.885" width="158.004" height="30.4967" transform="rotate(89.4531 367.938 533.885)" fill="url(#paint3_linear_1177_1713)" stroke="url(#paint4_linear_1177_1713)" stroke-width="7"/>
<rect x="363.997" y="125" width="87.6059" height="30.4967" transform="rotate(89.4531 363.997 125)" fill="url(#paint5_linear_1177_1713)" stroke="url(#paint6_linear_1177_1713)" stroke-width="7"/>
<rect x="363.997" y="125" width="87.6059" height="30.4967" transform="rotate(89.4531 363.997 125)" stroke="url(#paint7_linear_1177_1713)" stroke-width="5"/>
<rect x="364.834" y="212.603" width="178.341" height="30.4967" transform="rotate(89.4531 364.834 212.603)" fill="url(#paint8_linear_1177_1713)" stroke="url(#paint9_linear_1177_1713)" stroke-width="7"/>
<rect x="364.834" y="212.603" width="178.341" height="30.4967" transform="rotate(89.4531 364.834 212.603)" stroke="url(#paint10_linear_1177_1713)" stroke-width="5"/>
<g filter="url(#filter3_f_1177_1713)">
<circle cx="144" cy="621" r="114" stroke="#87D84B" stroke-width="10"/>
</g>
<rect x="64" y="684" width="114" height="64" fill="url(#paint11_linear_1177_1713)" stroke="url(#paint12_linear_1177_1713)" stroke-width="7"/>
<rect x="64" y="684" width="114" height="64" stroke="url(#paint13_linear_1177_1713)" stroke-width="5"/>
<rect x="-28" y="684" width="88" height="64" fill="url(#paint14_linear_1177_1713)" stroke="url(#paint15_linear_1177_1713)" stroke-width="7"/>
<rect x="178" y="684" width="88" height="64" fill="url(#paint16_linear_1177_1713)" stroke="url(#paint17_linear_1177_1713)" stroke-width="7"/>
<rect x="272" y="684" width="88" height="64" fill="url(#paint18_linear_1177_1713)" stroke="url(#paint19_linear_1177_1713)" stroke-width="7"/>
<rect x="-28" y="684" width="88" height="64" stroke="url(#paint20_linear_1177_1713)" stroke-width="5"/>
<g filter="url(#filter4_f_1177_1713)">
<path d="M147.5 80.3802C147.5 92.0771 142.201 102.593 133.302 111.929C124.378 121.291 111.987 129.29 98.2964 135.8C70.8604 148.844 39.0844 155.5 21.8507 155.5C17.5558 155.5 14.6604 155.082 12.7575 154.423C10.9415 153.793 10.2634 153.035 9.93777 152.381C9.55258 151.608 9.34084 150.336 9.6445 148.157C9.94565 145.996 10.6928 143.344 11.7934 140.078C12.4822 138.034 13.2932 135.801 14.1705 133.387C18.8274 120.57 25.3503 102.617 25.3503 80.3802C25.3503 67.9173 27.9383 60.7642 31.64 56.6452C35.2808 52.5938 40.5907 50.8278 47.6631 50.5419C54.7921 50.2536 63.0838 51.4878 72.1636 52.8786C72.3499 52.9071 72.5366 52.9357 72.7235 52.9644C81.495 54.3086 90.9008 55.75 99.9408 55.75C109.235 55.75 117.175 54.2323 123.694 52.842C124.486 52.6733 125.248 52.5081 125.986 52.3483C128.331 51.8405 130.424 51.3873 132.368 51.0494C134.919 50.606 136.941 50.4145 138.588 50.5353C140.182 50.6522 141.286 51.0509 142.148 51.6974C143.025 52.3548 143.95 53.493 144.784 55.5956C146.516 59.9661 147.5 67.5514 147.5 80.3802Z" stroke="#85E23B" stroke-width="7"/>
</g>
<g filter="url(#filter5_f_1177_1713)">
<path d="M113.5 212.035C113.5 220.126 108.607 227.726 99.6713 234.757C90.771 241.76 78.3676 247.773 64.6237 252.674C37.1285 262.478 5.23859 267.5 -12.1493 267.5C-16.4901 267.5 -19.4913 267.184 -21.5082 266.66C-23.543 266.131 -24.1195 265.511 -24.2795 265.27C-24.4122 265.07 -24.6434 264.557 -24.3809 263.145C-24.1134 261.705 -23.4269 259.845 -22.3308 257.405C-21.6623 255.917 -20.8668 254.276 -20.0004 252.491C-15.3463 242.896 -8.64972 229.091 -8.64972 212.035C-8.64972 203.039 -6.19608 198.067 -2.7207 195.166C0.907057 192.139 6.35581 190.752 13.6277 190.532C20.8573 190.313 29.237 191.251 38.2941 192.291L38.8253 192.352C47.6179 193.363 56.968 194.437 65.9408 194.437C75.1408 194.437 83.0101 193.311 89.5173 192.27C90.2738 192.149 91.0056 192.031 91.7138 191.916C97.2809 191.015 101.394 190.349 104.652 190.528C106.391 190.624 107.617 190.959 108.533 191.474C109.406 191.965 110.217 192.742 110.943 194.115C112.51 197.079 113.5 202.449 113.5 212.035Z" stroke="#B6F287" stroke-width="7"/>
</g>
<g filter="url(#filter6_f_1177_1713)">
<path d="M-44.887 340.115L19 277.31L82.887 340.115L105.334 426.845L19 450.77L-67.3338 426.845L-44.887 340.115Z" stroke="#87D84B" stroke-width="9"/>
</g>
<rect x="27.0117" y="327.594" width="136.455" height="30.4967" transform="rotate(89.4531 27.0117 327.594)" fill="url(#paint21_linear_1177_1713)" stroke="url(#paint22_linear_1177_1713)" stroke-width="7"/>
<rect x="28.4026" y="469.286" width="156.613" height="30.4967" transform="rotate(89.4531 28.4026 469.286)" fill="url(#paint23_linear_1177_1713)" stroke="url(#paint24_linear_1177_1713)" stroke-width="7"/>
<rect x="24.4954" y="64" width="86.8348" height="30.4967" transform="rotate(89.4531 24.4954 64)" fill="url(#paint25_linear_1177_1713)" stroke="url(#paint26_linear_1177_1713)" stroke-width="7"/>
<rect x="24.4954" y="64" width="86.8348" height="30.4967" transform="rotate(89.4531 24.4954 64)" stroke="url(#paint27_linear_1177_1713)" stroke-width="5"/>
<rect x="25.3245" y="150.831" width="176.771" height="30.4967" transform="rotate(89.4531 25.3245 150.831)" fill="url(#paint28_linear_1177_1713)" stroke="url(#paint29_linear_1177_1713)" stroke-width="7"/>
<rect x="25.3245" y="150.831" width="176.771" height="30.4967" transform="rotate(89.4531 25.3245 150.831)" stroke="url(#paint30_linear_1177_1713)" stroke-width="5"/>
<mask id="path-26-inside-1_1177_1713" fill="white">
<path d="M-17.8822 608.629C-7.55159 601.261 4.19942 596.099 16.6999 593.436C29.2005 590.774 42.2057 590.664 54.9731 593.113C67.7405 595.562 80.02 600.521 91.1105 607.708C102.201 614.896 111.885 624.17 119.611 635.001C127.336 645.832 132.951 658.009 136.135 670.835C139.318 683.661 140.009 696.887 138.167 709.756C136.325 722.624 131.986 734.885 125.398 745.837C118.81 756.789 110.102 766.219 99.7715 773.587L40.9447 691.108L-17.8822 608.629Z"/>
</mask>
<path d="M-17.8822 608.629C-7.55159 601.261 4.19942 596.099 16.6999 593.436C29.2005 590.774 42.2057 590.664 54.9731 593.113C67.7405 595.562 80.02 600.521 91.1105 607.708C102.201 614.896 111.885 624.17 119.611 635.001C127.336 645.832 132.951 658.009 136.135 670.835C139.318 683.661 140.009 696.887 138.167 709.756C136.325 722.624 131.986 734.885 125.398 745.837C118.81 756.789 110.102 766.219 99.7715 773.587L40.9447 691.108L-17.8822 608.629Z" fill="url(#paint31_linear_1177_1713)" stroke="url(#paint32_linear_1177_1713)" stroke-width="14" mask="url(#path-26-inside-1_1177_1713)"/>
<mask id="path-27-inside-2_1177_1713" fill="white">
<path d="M-23.0798 638.103C-14.6797 632.112 -5.12456 627.914 5.04004 625.749C15.2046 623.584 25.7796 623.495 36.1612 625.486C46.5428 627.477 56.5277 631.51 65.5458 637.354C74.5638 643.198 82.4385 650.739 88.7202 659.547C95.0018 668.354 99.5675 678.255 102.156 688.685C104.745 699.114 105.307 709.868 103.809 720.332C102.311 730.796 98.7826 740.766 93.4258 749.671C88.069 758.577 80.9884 766.244 72.5883 772.236L24.7542 705.169L-23.0798 638.103Z"/>
</mask>
<path d="M-23.0798 638.103C-14.6797 632.112 -5.12456 627.914 5.04004 625.749C15.2046 623.584 25.7796 623.495 36.1612 625.486C46.5428 627.477 56.5277 631.51 65.5458 637.354C74.5638 643.198 82.4385 650.739 88.7202 659.547C95.0018 668.354 99.5675 678.255 102.156 688.685C104.745 699.114 105.307 709.868 103.809 720.332C102.311 730.796 98.7826 740.766 93.4258 749.671C88.069 758.577 80.9884 766.244 72.5883 772.236L24.7542 705.169L-23.0798 638.103Z" fill="url(#paint33_linear_1177_1713)" stroke="url(#paint34_linear_1177_1713)" stroke-width="14" mask="url(#path-27-inside-2_1177_1713)"/>
<mask id="path-28-inside-3_1177_1713" fill="white">
<path d="M-19.5148 669.976C-13.3489 665.578 -6.3352 662.497 1.12588 660.908C8.58696 659.319 16.3493 659.253 23.9696 660.715C31.59 662.176 38.9192 665.136 45.5387 669.426C52.1582 673.716 57.9384 679.251 62.5493 685.716C67.1602 692.181 70.5115 699.448 72.4118 707.104C74.3121 714.76 74.7243 722.653 73.6247 730.334C72.5251 738.015 69.9354 745.333 66.0034 751.87C62.0713 758.407 56.874 764.035 50.708 768.433L15.5966 719.204L-19.5148 669.976Z"/>
</mask>
<path d="M-19.5148 669.976C-13.3489 665.578 -6.3352 662.497 1.12588 660.908C8.58696 659.319 16.3493 659.253 23.9696 660.715C31.59 662.176 38.9192 665.136 45.5387 669.426C52.1582 673.716 57.9384 679.251 62.5493 685.716C67.1602 692.181 70.5115 699.448 72.4118 707.104C74.3121 714.76 74.7243 722.653 73.6247 730.334C72.5251 738.015 69.9354 745.333 66.0034 751.87C62.0713 758.407 56.874 764.035 50.708 768.433L15.5966 719.204L-19.5148 669.976Z" fill="url(#paint35_linear_1177_1713)" stroke="url(#paint36_linear_1177_1713)" stroke-width="8" mask="url(#path-28-inside-3_1177_1713)"/>
<mask id="path-29-inside-4_1177_1713" fill="white">
<path d="M-6.23519 695.625C-2.34568 692.851 2.07863 690.907 6.78514 689.905C11.4917 688.903 16.3882 688.861 21.1952 689.783C26.0022 690.705 30.6255 692.573 34.8011 695.279C38.9767 697.985 42.623 701.476 45.5316 705.554C48.4401 709.632 50.5542 714.217 51.7529 719.046C52.9516 723.875 53.2116 728.855 52.518 733.7C51.8244 738.545 50.1908 743.161 47.7104 747.285C45.23 751.408 41.9515 754.959 38.062 757.733L15.9134 726.679L-6.23519 695.625Z"/>
</mask>
<path d="M-6.23519 695.625C-2.34568 692.851 2.07863 690.907 6.78514 689.905C11.4917 688.903 16.3882 688.861 21.1952 689.783C26.0022 690.705 30.6255 692.573 34.8011 695.279C38.9767 697.985 42.623 701.476 45.5316 705.554C48.4401 709.632 50.5542 714.217 51.7529 719.046C52.9516 723.875 53.2116 728.855 52.518 733.7C51.8244 738.545 50.1908 743.161 47.7104 747.285C45.23 751.408 41.9515 754.959 38.062 757.733L15.9134 726.679L-6.23519 695.625Z" fill="url(#paint37_linear_1177_1713)" stroke="url(#paint38_linear_1177_1713)" stroke-width="6" mask="url(#path-29-inside-4_1177_1713)"/>
<mask id="path-30-inside-5_1177_1713" fill="white">
<path d="M-10.9641 709.796C-7.73241 707.491 -4.05632 705.876 -0.145764 705.043C3.7648 704.21 7.83324 704.176 11.8273 704.942C15.8213 705.708 19.6628 707.26 23.1322 709.508C26.6017 711.756 29.6313 714.657 32.048 718.046C34.4647 721.434 36.2212 725.243 37.2172 729.256C38.2132 733.268 38.4292 737.406 37.8529 741.431C37.2766 745.457 35.9192 749.293 33.8583 752.719C31.7974 756.145 29.0734 759.095 25.8416 761.4L7.43875 735.598L-10.9641 709.796Z"/>
</mask>
<path d="M-10.9641 709.796C-7.73241 707.491 -4.05632 705.876 -0.145764 705.043C3.7648 704.21 7.83324 704.176 11.8273 704.942C15.8213 705.708 19.6628 707.26 23.1322 709.508C26.6017 711.756 29.6313 714.657 32.048 718.046C34.4647 721.434 36.2212 725.243 37.2172 729.256C38.2132 733.268 38.4292 737.406 37.8529 741.431C37.2766 745.457 35.9192 749.293 33.8583 752.719C31.7974 756.145 29.0734 759.095 25.8416 761.4L7.43875 735.598L-10.9641 709.796Z" fill="url(#paint39_linear_1177_1713)" stroke="url(#paint40_linear_1177_1713)" stroke-width="6" mask="url(#path-30-inside-5_1177_1713)"/>
<mask id="path-31-inside-6_1177_1713" fill="white">
<path d="M-5.26849 717.772C-3.06491 716.2 -0.558331 715.099 2.10812 714.531C4.77457 713.963 7.54868 713.94 10.2721 714.462C12.9954 714.985 15.6147 716.042 17.9804 717.576C20.3461 719.109 22.4119 721.087 24.0597 723.397C25.7076 725.708 26.9053 728.305 27.5844 731.041C28.2635 733.777 28.4108 736.598 28.0179 739.343C27.6249 742.088 26.6994 744.703 25.2941 747.039C23.8889 749.376 22.0315 751.387 19.8279 752.959L7.27969 735.365L-5.26849 717.772Z"/>
</mask>
<path d="M-5.26849 717.772C-3.06491 716.2 -0.558331 715.099 2.10812 714.531C4.77457 713.963 7.54868 713.94 10.2721 714.462C12.9954 714.985 15.6147 716.042 17.9804 717.576C20.3461 719.109 22.4119 721.087 24.0597 723.397C25.7076 725.708 26.9053 728.305 27.5844 731.041C28.2635 733.777 28.4108 736.598 28.0179 739.343C27.6249 742.088 26.6994 744.703 25.2941 747.039C23.8889 749.376 22.0315 751.387 19.8279 752.959L7.27969 735.365L-5.26849 717.772Z" fill="url(#paint41_linear_1177_1713)" stroke="url(#paint42_linear_1177_1713)" stroke-width="4" mask="url(#path-31-inside-6_1177_1713)"/>
<mask id="path-32-inside-7_1177_1713" fill="white">
<path d="M-9.13578 727.736C-6.9322 726.165 -4.51621 724.936 -2.02577 724.122C0.464682 723.307 2.98081 722.922 5.37898 722.988C7.77714 723.055 10.0104 723.571 11.9511 724.509C13.8919 725.446 15.5022 726.786 16.6902 728.451C17.8781 730.117 18.6204 732.076 18.8746 734.216C19.1288 736.356 18.89 738.636 18.1718 740.925C17.4537 743.214 16.2702 745.467 14.6889 747.557C13.1077 749.646 11.1596 751.531 8.95605 753.102L-0.0898657 740.419L-9.13578 727.736Z"/>
</mask>
<path d="M-9.13578 727.736C-6.9322 726.165 -4.51621 724.936 -2.02577 724.122C0.464682 723.307 2.98081 722.922 5.37898 722.988C7.77714 723.055 10.0104 723.571 11.9511 724.509C13.8919 725.446 15.5022 726.786 16.6902 728.451C17.8781 730.117 18.6204 732.076 18.8746 734.216C19.1288 736.356 18.89 738.636 18.1718 740.925C17.4537 743.214 16.2702 745.467 14.6889 747.557C13.1077 749.646 11.1596 751.531 8.95605 753.102L-0.0898657 740.419L-9.13578 727.736Z" fill="url(#paint43_linear_1177_1713)" stroke="url(#paint44_linear_1177_1713)" stroke-width="4" mask="url(#path-32-inside-7_1177_1713)"/>
<g filter="url(#filter7_f_1177_1713)">
<circle cx="189" cy="125" r="72" stroke="#87D84B" stroke-width="10"/>
</g>
<rect x="169" width="88" height="64" fill="url(#paint45_linear_1177_1713)" stroke="url(#paint46_linear_1177_1713)" stroke-width="7"/>
<rect x="263" width="101" height="64" fill="url(#paint47_linear_1177_1713)" stroke="url(#paint48_linear_1177_1713)" stroke-width="7"/>
<rect x="-1" width="56" height="64" fill="url(#paint49_linear_1177_1713)" stroke="url(#paint50_linear_1177_1713)" stroke-width="7"/>
<rect x="-1" width="56" height="64" stroke="url(#paint51_linear_1177_1713)" stroke-width="5"/>
<rect x="55" width="114" height="64" fill="url(#paint52_linear_1177_1713)" stroke="url(#paint53_linear_1177_1713)" stroke-width="7"/>
<rect x="55" width="114" height="64" stroke="url(#paint54_linear_1177_1713)" stroke-width="5"/>
<mask id="path-40-inside-8_1177_1713" fill="white">
<path d="M379.868 131.56C369.441 138.791 357.623 143.798 345.088 146.296C332.554 148.793 319.548 148.731 306.814 146.114C294.08 143.498 281.867 138.377 270.872 131.044C259.878 123.711 250.316 114.31 242.735 103.378C235.153 92.446 229.699 80.1966 226.684 67.3293C223.67 54.462 223.154 41.2288 225.165 28.3853C227.177 15.5418 231.677 3.33946 238.409 -7.52495C245.141 -18.3894 253.972 -27.7031 264.399 -34.9344L322.133 48.3126L379.868 131.56Z"/>
</mask>
<path d="M379.868 131.56C369.441 138.791 357.623 143.798 345.088 146.296C332.554 148.793 319.548 148.731 306.814 146.114C294.08 143.498 281.867 138.377 270.872 131.044C259.878 123.711 250.316 114.31 242.735 103.378C235.153 92.446 229.699 80.1966 226.684 67.3293C223.67 54.462 223.154 41.2288 225.165 28.3853C227.177 15.5418 231.677 3.33946 238.409 -7.52495C245.141 -18.3894 253.972 -27.7031 264.399 -34.9344L322.133 48.3126L379.868 131.56Z" fill="url(#paint55_linear_1177_1713)" stroke="url(#paint56_linear_1177_1713)" stroke-width="14" mask="url(#path-40-inside-8_1177_1713)"/>
<mask id="path-41-inside-9_1177_1713" fill="white">
<path d="M385.453 102.158C376.975 108.038 367.365 112.109 357.173 114.14C346.981 116.17 336.406 116.12 326.051 113.993C315.697 111.865 305.766 107.701 296.826 101.738C287.885 95.7757 280.111 88.1316 273.946 79.2423C267.781 70.353 263.346 60.3926 260.895 49.9297C258.444 39.4669 258.024 28.7065 259.66 18.263C261.296 7.81955 264.955 -2.10256 270.429 -10.9368C275.902 -19.771 283.083 -27.3443 291.562 -33.2244L338.508 34.4666L385.453 102.158Z"/>
</mask>
<path d="M385.453 102.158C376.975 108.038 367.365 112.109 357.173 114.14C346.981 116.17 336.406 116.12 326.051 113.993C315.697 111.865 305.766 107.701 296.826 101.738C287.885 95.7757 280.111 88.1316 273.946 79.2423C267.781 70.353 263.346 60.3926 260.895 49.9297C258.444 39.4669 258.024 28.7065 259.66 18.263C261.296 7.81955 264.955 -2.10256 270.429 -10.9368C275.902 -19.771 283.083 -27.3443 291.562 -33.2244L338.508 34.4666L385.453 102.158Z" fill="url(#paint57_linear_1177_1713)" stroke="url(#paint58_linear_1177_1713)" stroke-width="14" mask="url(#path-41-inside-9_1177_1713)"/>
<mask id="path-42-inside-10_1177_1713" fill="white">
<path d="M382.309 70.2404C376.086 74.5565 369.032 77.5451 361.55 79.0356C354.069 80.5262 346.307 80.4895 338.706 78.9275C331.106 77.3656 323.816 74.3091 317.254 69.9325C310.691 65.5559 304.985 59.9449 300.459 53.4199C295.934 46.8949 292.679 39.5837 290.88 31.9037C289.08 24.2238 288.772 16.3254 289.973 8.65958C291.174 0.993788 293.86 -6.2893 297.878 -12.7739C301.896 -19.2584 307.167 -24.8174 313.39 -29.1335L347.849 20.5534L382.309 70.2404Z"/>
</mask>
<path d="M382.309 70.2404C376.086 74.5565 369.032 77.5451 361.55 79.0356C354.069 80.5262 346.307 80.4895 338.706 78.9275C331.106 77.3656 323.816 74.3091 317.254 69.9325C310.691 65.5559 304.985 59.9449 300.459 53.4199C295.934 46.8949 292.679 39.5837 290.88 31.9037C289.08 24.2238 288.772 16.3254 289.973 8.65958C291.174 0.993788 293.86 -6.2893 297.878 -12.7739C301.896 -19.2584 307.167 -24.8174 313.39 -29.1335L347.849 20.5534L382.309 70.2404Z" fill="url(#paint59_linear_1177_1713)" stroke="url(#paint60_linear_1177_1713)" stroke-width="8" mask="url(#path-42-inside-10_1177_1713)"/>
<mask id="path-43-inside-11_1177_1713" fill="white">
<path d="M369.369 44.4184C365.443 47.141 360.993 49.0262 356.274 49.9665C351.555 50.9067 346.658 50.8836 341.864 49.8983C337.069 48.913 332.471 46.9849 328.331 44.2241C324.192 41.4633 320.592 37.9239 317.737 33.8079C314.883 29.6919 312.829 25.0799 311.694 20.2353C310.559 15.3907 310.365 10.4083 311.122 5.57267C311.88 0.737019 313.574 -3.85722 316.109 -7.94773C318.643 -12.0382 321.968 -15.5449 325.894 -18.2675L347.631 13.0754L369.369 44.4184Z"/>
</mask>
<path d="M369.369 44.4184C365.443 47.141 360.993 49.0262 356.274 49.9665C351.555 50.9067 346.658 50.8836 341.864 49.8983C337.069 48.913 332.471 46.9849 328.331 44.2241C324.192 41.4633 320.592 37.9239 317.737 33.8079C314.883 29.6919 312.829 25.0799 311.694 20.2353C310.559 15.3907 310.365 10.4083 311.122 5.57267C311.88 0.737019 313.574 -3.85722 316.109 -7.94773C318.643 -12.0382 321.968 -15.5449 325.894 -18.2675L347.631 13.0754L369.369 44.4184Z" fill="url(#paint61_linear_1177_1713)" stroke="url(#paint62_linear_1177_1713)" stroke-width="6" mask="url(#path-43-inside-11_1177_1713)"/>
<mask id="path-44-inside-12_1177_1713" fill="white">
<path d="M374.284 30.3109C371.022 32.5731 367.325 34.1395 363.404 34.9207C359.483 35.702 355.414 35.6827 351.43 34.8641C347.447 34.0454 343.626 32.4434 340.187 30.1495C336.747 27.8556 333.756 24.9148 331.384 21.4948C329.012 18.0749 327.306 14.2429 326.363 10.2176C325.42 6.19229 325.259 2.05253 325.888 -1.96533C326.517 -5.98319 327.925 -9.80046 330.031 -13.1992C332.137 -16.5979 334.9 -19.5116 338.162 -21.7737L356.223 4.26857L374.284 30.3109Z"/>
</mask>
<path d="M374.284 30.3109C371.022 32.5731 367.325 34.1395 363.404 34.9207C359.483 35.702 355.414 35.6827 351.43 34.8641C347.447 34.0454 343.626 32.4434 340.187 30.1495C336.747 27.8556 333.756 24.9148 331.384 21.4948C329.012 18.0749 327.306 14.2429 326.363 10.2176C325.42 6.19229 325.259 2.05253 325.888 -1.96533C326.517 -5.98319 327.925 -9.80046 330.031 -13.1992C332.137 -16.5979 334.9 -19.5116 338.162 -21.7737L356.223 4.26857L374.284 30.3109Z" fill="url(#paint63_linear_1177_1713)" stroke="url(#paint64_linear_1177_1713)" stroke-width="6" mask="url(#path-44-inside-12_1177_1713)"/>
<mask id="path-45-inside-13_1177_1713" fill="white">
<path d="M368.694 22.2603C366.47 23.8028 363.949 24.8709 361.275 25.4035C358.602 25.9362 355.827 25.9231 353.111 25.3649C350.395 24.8067 347.79 23.7144 345.445 22.1502C343.099 20.5861 341.06 18.5809 339.443 16.249C337.825 13.9171 336.662 11.3042 336.019 8.55948C335.376 5.81479 335.266 2.99205 335.695 0.252439C336.124 -2.48718 337.084 -5.09002 338.52 -7.40748C339.956 -9.72494 341.84 -11.7116 344.064 -13.2541L356.379 4.50308L368.694 22.2603Z"/>
</mask>
<path d="M368.694 22.2603C366.47 23.8028 363.949 24.8709 361.275 25.4035C358.602 25.9362 355.827 25.9231 353.111 25.3649C350.395 24.8067 347.79 23.7144 345.445 22.1502C343.099 20.5861 341.06 18.5809 339.443 16.249C337.825 13.9171 336.662 11.3042 336.019 8.55948C335.376 5.81479 335.266 2.99205 335.695 0.252439C336.124 -2.48718 337.084 -5.09002 338.52 -7.40748C339.956 -9.72494 341.84 -11.7116 344.064 -13.2541L356.379 4.50308L368.694 22.2603Z" fill="url(#paint65_linear_1177_1713)" stroke="url(#paint66_linear_1177_1713)" stroke-width="4" mask="url(#path-45-inside-13_1177_1713)"/>
<mask id="path-46-inside-14_1177_1713" fill="white">
<path d="M372.692 12.348C370.468 13.8905 368.036 15.0868 365.535 15.8685C363.034 16.6503 360.513 17.0022 358.116 16.9043C355.719 16.8063 353.493 16.2603 351.564 15.2975C349.636 14.3347 348.044 12.9739 346.878 11.2928C345.712 9.61177 344.996 7.64336 344.77 5.49997C344.544 3.35659 344.812 1.08022 345.561 -1.19918C346.309 -3.47857 347.522 -5.71635 349.131 -7.78474C350.739 -9.85313 352.712 -11.7116 354.936 -13.2541L363.814 -0.45305L372.692 12.348Z"/>
</mask>
<path d="M372.692 12.348C370.468 13.8905 368.036 15.0868 365.535 15.8685C363.034 16.6503 360.513 17.0022 358.116 16.9043C355.719 16.8063 353.493 16.2603 351.564 15.2975C349.636 14.3347 348.044 12.9739 346.878 11.2928C345.712 9.61177 344.996 7.64336 344.77 5.49997C344.544 3.35659 344.812 1.08022 345.561 -1.19918C346.309 -3.47857 347.522 -5.71635 349.131 -7.78474C350.739 -9.85313 352.712 -11.7116 354.936 -13.2541L363.814 -0.45305L372.692 12.348Z" fill="url(#paint67_linear_1177_1713)" stroke="url(#paint68_linear_1177_1713)" stroke-width="4" mask="url(#path-46-inside-14_1177_1713)"/>
</g>
<defs>
<filter id="filter0_f_1177_1713" x="250.743" y="72.7" width="159.514" height="160.05" filterUnits="userSpaceOnUse" color-interpolation-filters="sRGB">
<feFlood flood-opacity="0" result="BackgroundImageFix"/>
<feBlend mode="normal" in="SourceGraphic" in2="BackgroundImageFix" result="shape"/>
<feGaussianBlur stdDeviation="10.65" result="effect1_foregroundBlur_1177_1713"/>
</filter>
<filter id="filter1_f_1177_1713" x="213.3" y="367.3" width="198.4" height="137.4" filterUnits="userSpaceOnUse" color-interpolation-filters="sRGB">
<feFlood flood-opacity="0" result="BackgroundImageFix"/>
<feBlend mode="normal" in="SourceGraphic" in2="BackgroundImageFix" result="shape"/>
<feGaussianBlur stdDeviation="13.35" result="effect1_foregroundBlur_1177_1713"/>
</filter>
<filter id="filter2_f_1177_1713" x="232.451" y="575.493" width="147.203" height="148.555" filterUnits="userSpaceOnUse" color-interpolation-filters="sRGB">
<feFlood flood-opacity="0" result="BackgroundImageFix"/>
<feBlend mode="normal" in="SourceGraphic" in2="BackgroundImageFix" result="shape"/>
<feGaussianBlur stdDeviation="14.25" result="effect1_foregroundBlur_1177_1713"/>
</filter>
<filter id="filter3_f_1177_1713" x="0.1" y="477.1" width="287.8" height="287.8" filterUnits="userSpaceOnUse" color-interpolation-filters="sRGB">
<feFlood flood-opacity="0" result="BackgroundImageFix"/>
<feBlend mode="normal" in="SourceGraphic" in2="BackgroundImageFix" result="shape"/>
<feGaussianBlur stdDeviation="12.45" result="effect1_foregroundBlur_1177_1713"/>
</filter>
<filter id="filter4_f_1177_1713" x="-23.3" y="17.7" width="203.6" height="170.6" filterUnits="userSpaceOnUse" color-interpolation-filters="sRGB">
<feFlood flood-opacity="0" result="BackgroundImageFix"/>
<feBlend mode="normal" in="SourceGraphic" in2="BackgroundImageFix" result="shape"/>
<feGaussianBlur stdDeviation="14.65" result="effect1_foregroundBlur_1177_1713"/>
</filter>
<filter id="filter5_f_1177_1713" x="-54.7" y="160.3" width="198.4" height="137.4" filterUnits="userSpaceOnUse" color-interpolation-filters="sRGB">
<feFlood flood-opacity="0" result="BackgroundImageFix"/>
<feBlend mode="normal" in="SourceGraphic" in2="BackgroundImageFix" result="shape"/>
<feGaussianBlur stdDeviation="13.35" result="effect1_foregroundBlur_1177_1713"/>
</filter>
<filter id="filter6_f_1177_1713" x="-94.0986" y="249.7" width="226.197" height="227.04" filterUnits="userSpaceOnUse" color-interpolation-filters="sRGB">
<feFlood flood-opacity="0" result="BackgroundImageFix"/>
<feBlend mode="normal" in="SourceGraphic" in2="BackgroundImageFix" result="shape"/>
<feGaussianBlur stdDeviation="10.65" result="effect1_foregroundBlur_1177_1713"/>
</filter>
<filter id="filter7_f_1177_1713" x="87.1" y="23.1" width="203.8" height="203.8" filterUnits="userSpaceOnUse" color-interpolation-filters="sRGB">
<feFlood flood-opacity="0" result="BackgroundImageFix"/>
<feBlend mode="normal" in="SourceGraphic" in2="BackgroundImageFix" result="shape"/>
<feGaussianBlur stdDeviation="12.45" result="effect1_foregroundBlur_1177_1713"/>
</filter>
<linearGradient id="paint0_linear_1177_1713" x1="-9.77632e-06" y1="-27" x2="370" y2="757" gradientUnits="userSpaceOnUse">
<stop stop-color="#C4FF98"/>
<stop offset="1" stop-color="#3B7212" stop-opacity="0.74"/>
</linearGradient>
<linearGradient id="paint1_linear_1177_1713" x1="435.369" y1="390.935" x2="435.369" y2="421.431" gradientUnits="userSpaceOnUse">
<stop stop-color="#AFEA82"/>
<stop offset="1" stop-color="#112304"/>
</linearGradient>
<linearGradient id="paint2_linear_1177_1713" x1="435.369" y1="390.935" x2="435.369" y2="421.431" gradientUnits="userSpaceOnUse">
<stop stop-color="#597543"/>
<stop offset="1" stop-color="#224506"/>
</linearGradient>
<linearGradient id="paint3_linear_1177_1713" x1="446.94" y1="533.885" x2="446.94" y2="564.382" gradientUnits="userSpaceOnUse">
<stop stop-color="#AFEA82"/>
<stop offset="1" stop-color="#112304"/>
</linearGradient>
<linearGradient id="paint4_linear_1177_1713" x1="446.94" y1="533.885" x2="446.94" y2="564.382" gradientUnits="userSpaceOnUse">
<stop stop-color="#597543"/>
<stop offset="1" stop-color="#224506"/>
</linearGradient>
<linearGradient id="paint5_linear_1177_1713" x1="407.8" y1="125" x2="407.8" y2="155.497" gradientUnits="userSpaceOnUse">
<stop stop-color="#AFEA82"/>
<stop offset="1" stop-color="#112304"/>
</linearGradient>
<linearGradient id="paint6_linear_1177_1713" x1="407.8" y1="125" x2="407.8" y2="155.497" gradientUnits="userSpaceOnUse">
<stop stop-color="#597543"/>
<stop offset="1" stop-color="#224506"/>
</linearGradient>
<linearGradient id="paint7_linear_1177_1713" x1="407.8" y1="125" x2="407.8" y2="155.497" gradientUnits="userSpaceOnUse">
<stop stop-color="#72915B"/>
<stop offset="0.92" stop-color="#193205"/>
</linearGradient>
<linearGradient id="paint8_linear_1177_1713" x1="454.004" y1="212.603" x2="454.004" y2="243.099" gradientUnits="userSpaceOnUse">
<stop stop-color="#AFEA82"/>
<stop offset="1" stop-color="#112304"/>
</linearGradient>
<linearGradient id="paint9_linear_1177_1713" x1="454.004" y1="212.603" x2="454.004" y2="243.099" gradientUnits="userSpaceOnUse">
<stop stop-color="#597543"/>
<stop offset="1" stop-color="#224506"/>
</linearGradient>
<linearGradient id="paint10_linear_1177_1713" x1="454.004" y1="212.603" x2="454.004" y2="243.099" gradientUnits="userSpaceOnUse">
<stop stop-color="#72915B"/>
<stop offset="0.92" stop-color="#193205"/>
</linearGradient>
<linearGradient id="paint11_linear_1177_1713" x1="121" y1="684" x2="121" y2="748" gradientUnits="userSpaceOnUse">
<stop stop-color="#AFEA82"/>
<stop offset="1" stop-color="#112304"/>
</linearGradient>
<linearGradient id="paint12_linear_1177_1713" x1="121" y1="684" x2="121" y2="748" gradientUnits="userSpaceOnUse">
<stop stop-color="#597543"/>
<stop offset="1" stop-color="#224506"/>
</linearGradient>
<linearGradient id="paint13_linear_1177_1713" x1="121" y1="684" x2="121" y2="748" gradientUnits="userSpaceOnUse">
<stop stop-color="#72915B"/>
<stop offset="0.92" stop-color="#193205"/>
</linearGradient>
<linearGradient id="paint14_linear_1177_1713" x1="16" y1="684" x2="16" y2="748" gradientUnits="userSpaceOnUse">
<stop stop-color="#AFEA82"/>
<stop offset="1" stop-color="#112304"/>
</linearGradient>
<linearGradient id="paint15_linear_1177_1713" x1="16" y1="684" x2="16" y2="748" gradientUnits="userSpaceOnUse">
<stop stop-color="#597543"/>
<stop offset="1" stop-color="#224506"/>
</linearGradient>
<linearGradient id="paint16_linear_1177_1713" x1="222" y1="684" x2="222" y2="748" gradientUnits="userSpaceOnUse">
<stop stop-color="#AFEA82"/>
<stop offset="1" stop-color="#112304"/>
</linearGradient>
<linearGradient id="paint17_linear_1177_1713" x1="222" y1="684" x2="222" y2="748" gradientUnits="userSpaceOnUse">
<stop stop-color="#597543"/>
<stop offset="1" stop-color="#224506"/>
</linearGradient>
<linearGradient id="paint18_linear_1177_1713" x1="316" y1="684" x2="316" y2="748" gradientUnits="userSpaceOnUse">
<stop stop-color="#AFEA82"/>
<stop offset="1" stop-color="#112304"/>
</linearGradient>
<linearGradient id="paint19_linear_1177_1713" x1="316" y1="684" x2="316" y2="748" gradientUnits="userSpaceOnUse">
<stop stop-color="#597543"/>
<stop offset="1" stop-color="#224506"/>
</linearGradient>
<linearGradient id="paint20_linear_1177_1713" x1="16" y1="684" x2="16" y2="748" gradientUnits="userSpaceOnUse">
<stop stop-color="#72915B"/>
<stop offset="0.92" stop-color="#193205"/>
</linearGradient>
<linearGradient id="paint21_linear_1177_1713" x1="95.239" y1="327.594" x2="95.239" y2="358.09" gradientUnits="userSpaceOnUse">
<stop stop-color="#AFEA82"/>
<stop offset="1" stop-color="#112304"/>
</linearGradient>
<linearGradient id="paint22_linear_1177_1713" x1="95.239" y1="327.594" x2="95.239" y2="358.09" gradientUnits="userSpaceOnUse">
<stop stop-color="#597543"/>
<stop offset="1" stop-color="#224506"/>
</linearGradient>
<linearGradient id="paint23_linear_1177_1713" x1="106.709" y1="469.286" x2="106.709" y2="499.783" gradientUnits="userSpaceOnUse">
<stop stop-color="#AFEA82"/>
<stop offset="1" stop-color="#112304"/>
</linearGradient>
<linearGradient id="paint24_linear_1177_1713" x1="106.709" y1="469.286" x2="106.709" y2="499.783" gradientUnits="userSpaceOnUse">
<stop stop-color="#597543"/>
<stop offset="1" stop-color="#224506"/>
</linearGradient>
<linearGradient id="paint25_linear_1177_1713" x1="67.9127" y1="64" x2="67.9127" y2="94.4967" gradientUnits="userSpaceOnUse">
<stop stop-color="#AFEA82"/>
<stop offset="1" stop-color="#112304"/>
</linearGradient>
<linearGradient id="paint26_linear_1177_1713" x1="67.9127" y1="64" x2="67.9127" y2="94.4967" gradientUnits="userSpaceOnUse">
<stop stop-color="#597543"/>
<stop offset="1" stop-color="#224506"/>
</linearGradient>
<linearGradient id="paint27_linear_1177_1713" x1="67.9127" y1="64" x2="67.9127" y2="94.4967" gradientUnits="userSpaceOnUse">
<stop stop-color="#72915B"/>
<stop offset="0.92" stop-color="#193205"/>
</linearGradient>
<linearGradient id="paint28_linear_1177_1713" x1="113.71" y1="150.831" x2="113.71" y2="181.328" gradientUnits="userSpaceOnUse">
<stop stop-color="#AFEA82"/>
<stop offset="1" stop-color="#112304"/>
</linearGradient>
<linearGradient id="paint29_linear_1177_1713" x1="113.71" y1="150.831" x2="113.71" y2="181.328" gradientUnits="userSpaceOnUse">
<stop stop-color="#597543"/>
<stop offset="1" stop-color="#224506"/>
</linearGradient>
<linearGradient id="paint30_linear_1177_1713" x1="113.71" y1="150.831" x2="113.71" y2="181.328" gradientUnits="userSpaceOnUse">
<stop stop-color="#72915B"/>
<stop offset="0.92" stop-color="#193205"/>
</linearGradient>
<linearGradient id="paint31_linear_1177_1713" x1="-96.5481" y1="664.737" x2="162.097" y2="718.798" gradientUnits="userSpaceOnUse">
<stop stop-color="#C9FBA2"/>
<stop offset="1" stop-color="#24420D"/>
</linearGradient>
<linearGradient id="paint32_linear_1177_1713" x1="32.9552" y1="744.968" x2="139.046" y2="620.253" gradientUnits="userSpaceOnUse">
<stop stop-color="#84A36C"/>
<stop offset="1" stop-color="#314E1B"/>
</linearGradient>
<linearGradient id="paint33_linear_1177_1713" x1="-87.0458" y1="683.726" x2="123.267" y2="727.685" gradientUnits="userSpaceOnUse">
<stop stop-color="#C9FBA2"/>
<stop offset="1" stop-color="#24420D"/>
</linearGradient>
<linearGradient id="paint34_linear_1177_1713" x1="18.2578" y1="748.964" x2="104.524" y2="647.555" gradientUnits="userSpaceOnUse">
<stop stop-color="#84A36C"/>
<stop offset="1" stop-color="#314E1B"/>
</linearGradient>
<linearGradient id="paint35_linear_1177_1713" x1="-66.4675" y1="703.464" x2="87.9075" y2="735.731" gradientUnits="userSpaceOnUse">
<stop stop-color="#C9FBA2"/>
<stop offset="1" stop-color="#24420D"/>
</linearGradient>
<linearGradient id="paint36_linear_1177_1713" x1="10.828" y1="751.351" x2="74.1496" y2="676.914" gradientUnits="userSpaceOnUse">
<stop stop-color="#84A36C"/>
<stop offset="1" stop-color="#314E1B"/>
</linearGradient>
<linearGradient id="paint37_linear_1177_1713" x1="-35.8533" y1="716.75" x2="61.5277" y2="737.105" gradientUnits="userSpaceOnUse">
<stop stop-color="#C9FBA2"/>
<stop offset="1" stop-color="#24420D"/>
</linearGradient>
<linearGradient id="paint38_linear_1177_1713" x1="12.9053" y1="746.957" x2="52.8491" y2="700.002" gradientUnits="userSpaceOnUse">
<stop stop-color="#84A36C"/>
<stop offset="1" stop-color="#314E1B"/>
</linearGradient>
<linearGradient id="paint39_linear_1177_1713" x1="-35.5734" y1="727.348" x2="45.3389" y2="744.26" gradientUnits="userSpaceOnUse">
<stop stop-color="#C9FBA2"/>
<stop offset="1" stop-color="#24420D"/>
</linearGradient>
<linearGradient id="paint40_linear_1177_1713" x1="4.9394" y1="752.447" x2="38.128" y2="713.432" gradientUnits="userSpaceOnUse">
<stop stop-color="#84A36C"/>
<stop offset="1" stop-color="#314E1B"/>
</linearGradient>
<linearGradient id="paint41_linear_1177_1713" x1="-22.0485" y1="729.74" x2="33.1223" y2="741.272" gradientUnits="userSpaceOnUse">
<stop stop-color="#C9FBA2"/>
<stop offset="1" stop-color="#24420D"/>
</linearGradient>
<linearGradient id="paint42_linear_1177_1713" x1="5.57549" y1="746.854" x2="28.2055" y2="720.251" gradientUnits="userSpaceOnUse">
<stop stop-color="#84A36C"/>
<stop offset="1" stop-color="#314E1B"/>
</linearGradient>
<linearGradient id="paint43_linear_1177_1713" x1="-25.9158" y1="739.704" x2="17.0952" y2="756.105" gradientUnits="userSpaceOnUse">
<stop stop-color="#C9FBA2"/>
<stop offset="1" stop-color="#24420D"/>
</linearGradient>
<linearGradient id="paint44_linear_1177_1713" x1="-3.14957" y1="750.007" x2="16.4862" y2="722.246" gradientUnits="userSpaceOnUse">
<stop stop-color="#84A36C"/>
<stop offset="1" stop-color="#314E1B"/>
</linearGradient>
<linearGradient id="paint45_linear_1177_1713" x1="213" y1="0" x2="213" y2="64" gradientUnits="userSpaceOnUse">
<stop stop-color="#AFEA82"/>
<stop offset="1" stop-color="#112304"/>
</linearGradient>
<linearGradient id="paint46_linear_1177_1713" x1="213" y1="0" x2="213" y2="64" gradientUnits="userSpaceOnUse">
<stop stop-color="#597543"/>
<stop offset="1" stop-color="#224506"/>
</linearGradient>
<linearGradient id="paint47_linear_1177_1713" x1="313.5" y1="0" x2="313.5" y2="64" gradientUnits="userSpaceOnUse">
<stop stop-color="#AFEA82"/>
<stop offset="1" stop-color="#112304"/>
</linearGradient>
<linearGradient id="paint48_linear_1177_1713" x1="313.5" y1="0" x2="313.5" y2="64" gradientUnits="userSpaceOnUse">
<stop stop-color="#597543"/>
<stop offset="1" stop-color="#224506"/>
</linearGradient>
<linearGradient id="paint49_linear_1177_1713" x1="27" y1="0" x2="27" y2="64" gradientUnits="userSpaceOnUse">
<stop stop-color="#AFEA82"/>
<stop offset="1" stop-color="#112304"/>
</linearGradient>
<linearGradient id="paint50_linear_1177_1713" x1="27" y1="0" x2="27" y2="64" gradientUnits="userSpaceOnUse">
<stop stop-color="#597543"/>
<stop offset="1" stop-color="#224506"/>
</linearGradient>
<linearGradient id="paint51_linear_1177_1713" x1="27" y1="0" x2="27" y2="64" gradientUnits="userSpaceOnUse">
<stop stop-color="#72915B"/>
<stop offset="0.92" stop-color="#193205"/>
</linearGradient>
<linearGradient id="paint52_linear_1177_1713" x1="112" y1="0" x2="112" y2="64" gradientUnits="userSpaceOnUse">
<stop stop-color="#AFEA82"/>
<stop offset="1" stop-color="#112304"/>
</linearGradient>
<linearGradient id="paint53_linear_1177_1713" x1="112" y1="0" x2="112" y2="64" gradientUnits="userSpaceOnUse">
<stop stop-color="#597543"/>
<stop offset="1" stop-color="#224506"/>
</linearGradient>
<linearGradient id="paint54_linear_1177_1713" x1="112" y1="0" x2="112" y2="64" gradientUnits="userSpaceOnUse">
<stop stop-color="#72915B"/>
<stop offset="0.92" stop-color="#193205"/>
</linearGradient>
<linearGradient id="paint55_linear_1177_1713" x1="459.267" y1="76.4941" x2="201.357" y2="19.0277" gradientUnits="userSpaceOnUse">
<stop stop-color="#C9FBA2"/>
<stop offset="1" stop-color="#24420D"/>
</linearGradient>
<linearGradient id="paint56_linear_1177_1713" x1="330.832" y1="-5.43682" x2="223.106" y2="117.868" gradientUnits="userSpaceOnUse">
<stop stop-color="#84A36C"/>
<stop offset="1" stop-color="#314E1B"/>
</linearGradient>
<linearGradient id="paint57_linear_1177_1713" x1="450.015" y1="57.3819" x2="240.3" y2="10.6541" gradientUnits="userSpaceOnUse">
<stop stop-color="#C9FBA2"/>
<stop offset="1" stop-color="#24420D"/>
</linearGradient>
<linearGradient id="paint58_linear_1177_1713" x1="345.581" y1="-9.23885" x2="257.985" y2="91.0246" gradientUnits="userSpaceOnUse">
<stop stop-color="#84A36C"/>
<stop offset="1" stop-color="#314E1B"/>
</linearGradient>
<linearGradient id="paint59_linear_1177_1713" x1="429.699" y1="37.3739" x2="275.763" y2="3.07442" gradientUnits="userSpaceOnUse">
<stop stop-color="#C9FBA2"/>
<stop offset="1" stop-color="#24420D"/>
</linearGradient>
<linearGradient id="paint60_linear_1177_1713" x1="353.041" y1="-11.5275" x2="288.744" y2="62.0685" gradientUnits="userSpaceOnUse">
<stop stop-color="#84A36C"/>
<stop offset="1" stop-color="#314E1B"/>
</linearGradient>
<linearGradient id="paint61_linear_1177_1713" x1="399.263" y1="23.6859" x2="302.158" y2="2.0495" gradientUnits="userSpaceOnUse">
<stop stop-color="#C9FBA2"/>
<stop offset="1" stop-color="#24420D"/>
</linearGradient>
<linearGradient id="paint62_linear_1177_1713" x1="350.906" y1="-7.16153" x2="310.347" y2="39.2634" gradientUnits="userSpaceOnUse">
<stop stop-color="#84A36C"/>
<stop offset="1" stop-color="#314E1B"/>
</linearGradient>
<linearGradient id="paint63_linear_1177_1713" x1="399.122" y1="13.0846" x2="318.44" y2="-4.89267" gradientUnits="userSpaceOnUse">
<stop stop-color="#C9FBA2"/>
<stop offset="1" stop-color="#24420D"/>
</linearGradient>
<linearGradient id="paint64_linear_1177_1713" x1="358.944" y1="-12.546" x2="325.244" y2="26.0278" gradientUnits="userSpaceOnUse">
<stop stop-color="#84A36C"/>
<stop offset="1" stop-color="#314E1B"/>
</linearGradient>
<linearGradient id="paint65_linear_1177_1713" x1="385.63" y1="10.5144" x2="330.616" y2="-1.7436" gradientUnits="userSpaceOnUse">
<stop stop-color="#C9FBA2"/>
<stop offset="1" stop-color="#24420D"/>
</linearGradient>
<linearGradient id="paint66_linear_1177_1713" x1="358.234" y1="-6.96206" x2="335.256" y2="19.3398" gradientUnits="userSpaceOnUse">
<stop stop-color="#84A36C"/>
<stop offset="1" stop-color="#314E1B"/>
</linearGradient>
<linearGradient id="paint67_linear_1177_1713" x1="389.628" y1="0.602131" x2="346.837" y2="-16.3644" gradientUnits="userSpaceOnUse">
<stop stop-color="#C9FBA2"/>
<stop offset="1" stop-color="#24420D"/>
</linearGradient>
<linearGradient id="paint68_linear_1177_1713" x1="367" y1="-10" x2="347" y2="17.5" gradientUnits="userSpaceOnUse">
<stop stop-color="#84A36C"/>
<stop offset="1" stop-color="#314E1B"/>
</linearGradient>
<clipPath id="clip0_1177_1713">
<rect width="360" height="800" fill="white"/>
</clipPath>
</defs>
</svg>
