<svg width="360" height="800" viewBox="0 0 360 800" fill="none" xmlns="http://www.w3.org/2000/svg">
<g clip-path="url(#clip0_1186_1708)">
<rect width="360" height="800" fill="white"/>
<rect width="360" height="800" fill="url(#paint0_linear_1186_1708)"/>
<mask id="path-2-inside-1_1186_1708" fill="white">
<path d="M42 745H360V800H42V745Z"/>
</mask>
<path d="M42 745H360V800H42V745Z" fill="url(#paint1_linear_1186_1708)"/>
<path d="M360 781H42V819H360V781Z" fill="url(#paint2_linear_1186_1708)" mask="url(#path-2-inside-1_1186_1708)"/>
<mask id="path-4-inside-2_1186_1708" fill="white">
<path d="M84 705H360V760H84V705Z"/>
</mask>
<path d="M84 705H360V760H84V705Z" fill="url(#paint3_linear_1186_1708)"/>
<path d="M360 741H84V779H360V741Z" fill="url(#paint4_linear_1186_1708)" mask="url(#path-4-inside-2_1186_1708)"/>
<mask id="path-6-inside-3_1186_1708" fill="white">
<path d="M131 662H360V717H131V662Z"/>
</mask>
<path d="M131 662H360V717H131V662Z" fill="url(#paint5_linear_1186_1708)"/>
<path d="M360 698H131V736H360V698Z" fill="url(#paint6_linear_1186_1708)" mask="url(#path-6-inside-3_1186_1708)"/>
<rect width="35.3398" height="482" transform="matrix(-1 0 0 1 388 185)" fill="url(#paint7_linear_1186_1708)"/>
<rect width="35.3398" height="482" transform="matrix(-1 0 0 1 370.835 185)" fill="url(#paint8_linear_1186_1708)"/>
<rect x="-29" y="185" width="35.3398" height="540" fill="url(#paint9_linear_1186_1708)"/>
<rect x="-11.8347" y="185" width="35.3398" height="540" fill="url(#paint10_linear_1186_1708)"/>
<path d="M-6.83388 198.94C-6.80743 146.941 12.7459 97.0826 47.5245 60.3315C82.3032 23.5805 129.458 2.9478 178.616 2.97233C227.774 2.99685 274.908 23.6766 309.65 60.4623C344.391 97.248 363.894 147.126 363.867 199.125L333.921 199.11C333.944 155.512 317.592 113.692 288.464 82.85C259.335 52.0075 219.816 34.6688 178.6 34.6482C137.384 34.6277 97.8477 51.9269 68.6879 82.7404C39.5282 113.554 23.134 155.357 23.1118 198.955L-6.83388 198.94Z" fill="url(#paint11_linear_1186_1708)"/>
<path d="M-8.50597 218C-8.47952 166.017 11.2682 116.174 46.393 79.4342C81.5179 42.6946 129.142 22.0684 178.79 22.0932C228.438 22.1179 276.041 42.7916 311.129 79.5663C346.216 116.341 365.913 166.204 365.887 218.187L335.643 218.171C335.665 174.587 319.15 132.78 289.731 101.947C260.313 71.1138 220.4 53.7802 178.774 53.7594C137.148 53.7386 97.2173 71.0324 67.7673 101.836C38.3173 132.64 21.7601 174.431 21.7379 218.015L-8.50597 218Z" fill="url(#paint12_linear_1186_1708)"/>
<path opacity="0.46" d="M33.3425 800.274C57.8322 800.274 77.685 795.311 77.685 789.19C77.685 783.069 57.8322 778.106 33.3425 778.106C8.85279 778.106 -11 783.069 -11 789.19C-11 795.311 8.85279 800.274 33.3425 800.274Z" fill="#F5D5C7"/>
<path d="M72.6342 714.326L55.6116 787.357C55.3233 788.596 53.9748 789.602 52.1789 789.91C40.2724 791.967 28.3284 791.941 16.3379 789.897C14.5614 789.59 13.2032 788.608 12.8961 787.388L-5.77295 714.59C-5.52218 714.91 -5.09419 715.218 -4.48904 715.527C0.264389 717.947 15.3986 719.708 33.3424 719.708C51.2862 719.708 66.4204 717.947 71.1828 715.527C71.9456 715.138 72.4382 714.735 72.6342 714.326Z" fill="#E47001"/>
<path d="M71.1826 715.528C70.0354 716.111 68.2799 716.655 66.0342 717.146L50.3865 784.279C50.0981 785.518 48.749 786.524 46.9538 786.832C35.6127 788.791 24.237 788.856 12.8201 787.093L12.8959 787.389C13.203 788.609 14.5612 789.59 16.3376 789.898C28.3282 791.942 40.2715 791.967 52.1787 789.911C53.9739 789.603 55.3231 788.597 55.6114 787.358L72.634 714.327C72.438 714.736 71.9454 715.138 71.1826 715.528Z" fill="#E44D01"/>
<path d="M59.4436 709.56C52.4948 708.655 43.3603 708.102 33.3422 708.102C23.333 708.102 14.1986 708.655 7.24076 709.56C-0.526443 710.572 -5.55841 712.031 -6.01416 713.66L-5.77243 714.591C-5.52165 714.911 -5.09367 715.219 -4.48851 715.528C0.264912 717.949 15.3992 719.709 33.3429 719.709C51.2867 719.709 66.4209 717.949 71.1834 715.528C71.9462 715.138 72.4387 714.736 72.6347 714.327C72.6437 714.314 72.6535 714.301 72.6535 714.289L72.7376 713.911V713.905C72.7361 712.176 67.6012 710.624 59.4436 709.56Z" fill="#461926"/>
<path d="M-0.0223805 726.456L13.5562 781.695C13.9999 783.5 15.8574 785.016 18.4237 785.597C21.2288 786.232 25.0662 786.815 28.7437 786.441C32.4527 786.063 35.0738 783.776 34.8704 781.244L30.4713 726.363C30.2664 723.808 27.2428 721.774 23.4624 721.644C19.1685 721.497 13.4593 721.219 8.41455 720.702C3.42913 720.191 -0.84903 723.094 -0.0223805 726.456Z" fill="#E49001"/>
<path d="M33.3425 719.772C31.2282 710.527 29.8933 700.885 30.0547 691.394C30.2702 678.753 35.0288 666.965 36.8135 654.577C38.9999 639.405 38.3437 624.156 37.7663 608.901C37.2152 594.357 36.3382 579.15 30.0479 565.765" stroke="#13933B" stroke-width="1.2862" stroke-miterlimit="10"/>
<path d="M37.3816 650.068C37.3816 650.068 41.9053 594.163 60.3078 593.23" stroke="#13933B" stroke-width="1.2862" stroke-miterlimit="10"/>
<path d="M38.0575 616.904C38.0575 616.904 27.9319 586.715 17.3777 585.769" stroke="#13933B" stroke-width="1.2862" stroke-miterlimit="10"/>
<path d="M32.1821 675.786C32.1821 675.786 26.3775 638.62 9.12451 637.312" stroke="#13933B" stroke-width="1.2862" stroke-miterlimit="10"/>
<path d="M30.041 694.283C30.041 694.283 37.1896 666.178 48.8445 666.395" stroke="#13933B" stroke-width="1.2862" stroke-miterlimit="10"/>
<path d="M37.0776 678.201C37.0776 678.201 29.4898 665.604 38.8953 659.8C48.3 653.996 57.6072 647.546 57.6072 647.546C57.6072 647.546 60.2763 658.741 57.4105 667.856C54.5446 676.971 37.0776 678.201 37.0776 678.201Z" fill="#13AC3B"/>
<path d="M37.0779 678.201C37.0779 678.201 38.5142 671.058 45.3669 666.46C52.2196 661.862 55.5059 651.622 55.5059 651.622C55.5059 651.622 53.7468 660.538 52.7752 662.268L55.0292 661.197C55.0292 661.197 52.5274 667.35 49.172 668.6L52.2992 668.238C52.2992 668.238 47.9557 670.35 45.6147 671.396C45.243 671.562 44.9224 671.702 44.6769 671.801C42.8862 672.529 47.7237 672.187 47.7237 672.187C47.7237 672.187 38.0081 676.63 37.0779 678.201Z" fill="#13933B"/>
<path d="M37.0779 678.202C37.0779 678.202 37.1687 668.075 39.301 664.905L40.1442 668.561C40.1442 668.561 42.4432 663.456 45.5861 661.618L44.8368 664.539C44.8368 664.539 50.0985 660.23 50.4769 659.14L49.9769 661.09L54.5254 654.158C54.5254 654.158 51.1782 663.126 46.0051 666.625C40.8319 670.123 37.0779 678.202 37.0779 678.202Z" fill="#13C23B"/>
<path d="M31.1199 688.963C31.1199 688.963 24.5765 704.834 36.4507 709.88C48.3249 714.927 60.1991 720.736 60.1991 720.736C60.1991 720.736 61.3133 707.346 56.4037 697.329C51.4949 687.313 31.1199 688.963 31.1199 688.963Z" fill="#13AC3B"/>
<path d="M31.1196 688.962C31.1196 688.962 34.032 696.954 42.749 701.056C51.466 705.159 57.0573 716.399 57.0573 716.399C57.0573 716.399 53.4602 706.418 52.0351 704.592L54.8244 705.433C54.8244 705.433 50.8556 698.771 46.7637 697.918L50.4366 697.786C50.4366 697.786 45.0533 696.112 42.1671 695.316C41.7091 695.19 41.3142 695.086 41.0139 695.013C38.8192 694.488 44.4624 694.033 44.4624 694.033C44.4624 694.033 32.4696 690.612 31.1196 688.962Z" fill="#13933B"/>
<path d="M31.1196 688.962C31.1196 688.962 33.0034 700.633 36.0217 703.917L36.3521 699.549C36.3521 699.549 39.9027 705.038 43.8527 706.607L42.475 703.367C42.475 703.367 49.3044 707.416 49.9328 708.608L49.0131 706.445L55.4806 713.646C55.4806 713.646 50.0417 703.884 43.4563 700.755C36.8724 697.626 31.1196 688.962 31.1196 688.962Z" fill="#13C23B"/>
<path d="M25.8611 653.386C25.8611 653.386 11.2051 662.326 4.36741 651.385C-2.47029 640.444 -10.061 629.621 -10.061 629.621C-10.061 629.621 2.99117 626.431 13.6505 629.717C24.3106 633.003 25.8611 653.386 25.8611 653.386Z" fill="#13AC3B"/>
<path d="M25.8608 653.386C25.8608 653.386 17.5125 651.756 12.0998 643.786C6.6872 635.816 -5.28833 632.047 -5.28833 632.047C-5.28833 632.047 5.13228 634.043 7.15799 635.165L5.89286 632.541C5.89286 632.541 13.0924 635.421 14.5738 639.33L14.1308 635.682C14.1308 635.682 16.6243 640.738 17.8616 643.464C18.0576 643.896 18.2228 644.27 18.3406 644.556C19.2026 646.642 18.7709 640.997 18.7709 640.997C18.7709 640.997 24.0206 652.309 25.8608 653.386Z" fill="#13933B"/>
<path d="M25.8609 653.386C25.8609 653.386 14.0386 653.346 10.3235 650.878L14.5866 649.869C14.5866 649.869 8.61163 647.219 6.44552 643.562L9.861 644.418C9.861 644.418 4.79598 638.304 3.52034 637.869L5.79983 638.441L-2.32178 633.176C-2.32178 633.176 8.16865 637.024 12.2876 643.041C16.4051 649.056 25.8609 653.386 25.8609 653.386Z" fill="#13C23B"/>
<path d="M32.6769 605.216C32.6769 605.216 16.8647 611.902 11.7119 600.074C6.559 588.245 0.643311 576.424 0.643311 576.424C0.643311 576.424 14.0229 575.19 24.0831 580.008C34.1433 584.827 32.6769 605.216 32.6769 605.216Z" fill="#13AC3B"/>
<path d="M32.677 605.216C32.677 605.216 24.6597 602.375 20.4784 593.696C16.2971 585.016 5.00708 579.525 5.00708 579.525C5.00708 579.525 15.02 583.032 16.8588 584.441L15.9938 581.659C15.9938 581.659 22.6911 585.568 23.5808 589.652L23.6792 585.978C23.6792 585.978 25.4016 591.346 26.2237 594.224C26.3544 594.681 26.4625 595.075 26.5368 595.375C27.0819 597.565 27.4866 591.918 27.4866 591.918C27.4866 591.918 31.0147 603.881 32.677 605.216Z" fill="#13933B"/>
<path d="M32.677 605.216C32.677 605.216 20.989 603.436 17.6779 600.448L22.0432 600.078C22.0432 600.078 16.5232 596.577 14.9187 592.64L18.1705 593.99C18.1705 593.99 14.0605 587.197 12.8629 586.579L15.0335 587.479L7.77539 581.077C7.77539 581.077 17.5856 586.428 20.7735 592.985C23.9608 599.542 32.677 605.216 32.677 605.216Z" fill="#13C23B"/>
<path d="M36.3118 584.706C36.3118 584.706 21.7685 581.26 24.2394 570.303C26.7111 559.346 28.643 548 28.643 548C28.643 548 38.6724 554.021 43.2546 562.583C47.8369 571.145 36.3118 584.706 36.3118 584.706Z" fill="#13AC3B"/>
<path d="M36.3116 584.706C36.3116 584.706 32.1453 578.584 33.6778 570.338C35.2102 562.092 30.1099 552.425 30.1099 552.425C30.1099 552.425 35.3348 560.042 35.9002 561.977L36.7246 559.579C36.7246 559.579 39.4147 565.771 37.9371 569.097L39.8975 566.568C39.8975 566.568 38.3433 571.224 37.4386 573.668C37.2952 574.056 37.1683 574.388 37.0662 574.637C36.3221 576.455 39.5124 572.698 39.5124 572.698C39.5124 572.698 35.8318 582.913 36.3116 584.706Z" fill="#13933B"/>
<path d="M36.3117 584.706C36.3117 584.706 29.0212 577.44 28.2351 573.638L31.4907 575.625C31.4907 575.625 29.4177 570.325 30.3171 566.735L31.9059 569.356C31.9059 569.356 32.517 562.471 31.9945 561.421L33.0546 563.17L31.2541 554.938C31.2541 554.938 35.3874 563.746 34.2507 569.99C33.1132 576.235 36.3117 584.706 36.3117 584.706Z" fill="#13C23B"/>
<path d="M41.6035 623.441C41.6035 623.441 46.7504 608.859 58.7364 616.905" stroke="#13933B" stroke-width="1.2862" stroke-miterlimit="10"/>
<path d="M55.3277 615.207C55.3277 615.207 49.7559 628.722 59.8671 633.019C69.9784 637.316 80.0897 642.262 80.0897 642.262C80.0897 642.262 81.0379 630.86 76.8581 622.331C72.6776 613.803 55.3277 615.207 55.3277 615.207Z" fill="#13AC3B"/>
<path d="M55.3279 615.207C55.3279 615.207 57.8078 622.012 65.2304 625.505C72.653 628.999 77.4147 638.57 77.4147 638.57C77.4147 638.57 74.3521 630.071 73.138 628.516L75.5128 629.232C75.5128 629.232 72.1334 623.559 68.6488 622.832L71.7768 622.72C71.7768 622.72 67.1923 621.295 64.7356 620.617C64.3459 620.509 64.0088 620.42 63.7535 620.359C61.8848 619.912 66.69 619.524 66.69 619.524C66.69 619.524 56.4781 616.612 55.3279 615.207Z" fill="#13933B"/>
<path d="M55.3279 615.207C55.3279 615.207 56.9324 625.146 59.5024 627.942L59.784 624.223C59.784 624.223 62.8075 628.896 66.1712 630.232L64.9976 627.474C64.9976 627.474 70.8127 630.922 71.3481 631.937L70.5649 630.096L76.0722 636.227C76.0722 636.227 71.4411 627.915 65.8333 625.25C60.2262 622.585 55.3279 615.207 55.3279 615.207Z" fill="#13C23B"/>
<path d="M41.7655 624.308C41.7655 624.308 36.0375 633.064 42.5711 637.44C49.1055 641.816 55.5528 646.648 55.5528 646.648C55.5528 646.648 57.7467 638.758 55.95 632.201C54.1532 625.644 41.7655 624.308 41.7655 624.308Z" fill="#13AC3B"/>
<path d="M41.7656 624.308C41.7656 624.308 42.5983 629.424 47.3495 632.875C52.1006 636.326 54.1669 643.694 54.1669 643.694C54.1669 643.694 53.1518 637.307 52.5061 636.052L54.0806 636.873C54.0806 636.873 52.464 632.432 50.1117 631.455L52.3259 631.795C52.3259 631.795 49.2933 630.178 47.6565 629.373C47.3968 629.245 47.1723 629.137 47.0004 629.06C45.7465 628.494 49.177 628.866 49.177 628.866C49.177 628.866 42.3858 625.45 41.7656 624.308Z" fill="#13933B"/>
<path d="M41.7656 624.308C41.7656 624.308 41.5621 631.511 42.9954 633.821L43.6914 631.244C43.6914 631.244 45.1916 634.935 47.378 636.324L46.9222 634.227C46.9222 634.227 50.5494 637.43 50.7897 638.216L50.4856 636.816L53.5369 641.865C53.5369 641.865 51.3941 635.4 47.8082 632.776C44.2215 630.151 41.7656 624.308 41.7656 624.308Z" fill="#13C23B"/>
<path d="M32.4404 687.653C32.4404 687.653 54.302 667.186 75.1514 680.008" stroke="#13933B" stroke-width="1.2862" stroke-miterlimit="10"/>
<path d="M59.9582 675.866C59.9582 675.866 56.4368 690.055 67.0699 692.816C77.7037 695.578 88.4329 698.982 88.4329 698.982C88.4329 698.982 87.6926 687.564 82.3017 679.744C76.9124 671.922 59.9582 675.866 59.9582 675.866Z" fill="#13AC3B"/>
<path d="M59.9583 675.866C59.9583 675.866 63.4135 682.232 71.2693 684.594C79.1251 686.957 85.2443 695.723 85.2443 695.723C85.2443 695.723 80.9631 687.767 79.5343 686.408L81.9887 686.767C81.9887 686.767 77.8112 681.654 74.2576 681.448L77.3344 680.876C77.3344 680.876 72.59 680.141 70.0605 679.832C69.6588 679.783 69.3134 679.745 69.0506 679.722C67.1368 679.554 71.8324 678.463 71.8324 678.463C71.8324 678.463 61.3022 677.086 59.9583 675.866Z" fill="#13933B"/>
<path d="M59.9583 675.866C59.9583 675.866 63.0088 685.46 65.9625 687.848L65.693 684.127C65.693 684.127 69.3712 688.305 72.8956 689.131L71.3286 686.575C71.3286 686.575 77.5882 689.129 78.2669 690.054L77.221 688.349L83.5714 693.602C83.5714 693.602 77.7669 686.062 71.8279 684.253C65.8897 682.442 59.9583 675.866 59.9583 675.866Z" fill="#13C23B"/>
<path d="M47.6458 604.149C47.6458 604.149 60.3518 611.377 65.8868 601.887C71.4219 592.397 77.6011 582.988 77.6011 582.988C77.6011 582.988 66.4094 580.613 57.4221 583.686C48.4356 586.761 47.6458 604.149 47.6458 604.149Z" fill="#13AC3B"/>
<path d="M47.6458 604.149C47.6458 604.149 54.7087 602.545 59.1085 595.621C63.5082 588.697 73.603 585.178 73.603 585.178C73.603 585.178 64.7861 587.147 63.0908 588.155L64.0992 585.89C64.0992 585.89 58.0468 588.528 56.8868 591.894L57.1691 588.777C57.1691 588.777 55.1779 593.145 54.1966 595.498C54.0404 595.871 53.9106 596.194 53.8174 596.44C53.138 598.237 53.3587 593.422 53.3587 593.422C53.3587 593.422 49.1842 603.185 47.6458 604.149Z" fill="#13933B"/>
<path d="M47.6458 604.149C47.6458 604.149 57.7075 603.808 60.8046 601.609L57.1496 600.862C57.1496 600.862 62.1666 598.451 63.9152 595.282L61.0305 596.099C61.0305 596.099 65.1826 590.764 66.257 590.361L64.3319 590.906L71.1073 586.214C71.1073 586.214 62.2784 589.763 58.9298 594.99C55.5811 600.218 47.6458 604.149 47.6458 604.149Z" fill="#13C23B"/>
<path d="M30.709 668.714C30.709 668.714 23.1182 661.878 16.6003 671.658" stroke="#13933B" stroke-width="1.2862" stroke-miterlimit="10"/>
<path d="M23.5022 688.46C23.5022 688.46 24.3739 685.21 31.2671 680.667" stroke="#13933B" stroke-width="1.2862" stroke-miterlimit="10"/>
<path d="M22.5373 666.446C22.5373 666.446 24.1133 679.039 14.6628 680.326C5.21224 681.612 -4.38696 683.443 -4.38696 683.443C-4.38696 683.443 -2.57375 673.677 2.87719 667.489C8.32812 661.302 22.5373 666.446 22.5373 666.446Z" fill="#13AC3B"/>
<path d="M22.5372 666.446C22.5372 666.446 18.904 671.578 11.8884 672.806C4.87351 674.035 -1.30347 680.962 -1.30347 680.962C-1.30347 680.962 3.20517 674.545 4.57691 673.52L2.42432 673.576C2.42432 673.576 6.55159 669.598 9.63595 669.786L7.04186 668.977C7.04186 668.977 11.2074 668.832 13.4201 668.826C13.7714 668.825 14.0733 668.827 14.3015 668.835C15.9691 668.887 12.0333 667.464 12.0333 667.464C12.0333 667.464 21.2533 667.36 22.5372 666.446Z" fill="#13933B"/>
<path d="M22.5373 666.446C22.5373 666.446 18.9207 674.403 16.1291 676.157L16.744 672.978C16.744 672.978 13.1431 676.2 10.0204 676.55L11.634 674.508C11.634 674.508 5.97507 676.065 5.29483 676.793L6.37148 675.43L0.357422 679.306C0.357422 679.306 6.13724 673.403 11.4425 672.454C16.7478 671.505 22.5373 666.446 22.5373 666.446Z" fill="#13C23B"/>
<path d="M38.0251 614.71C38.0251 614.71 39.6011 627.303 30.1506 628.59C20.7 629.876 11.1008 631.706 11.1008 631.706C11.1008 631.706 12.914 621.94 18.365 615.753C23.8159 609.566 38.0251 614.71 38.0251 614.71Z" fill="#13AC3B"/>
<path d="M38.025 614.71C38.025 614.71 34.3918 619.842 27.3762 621.07C20.3613 622.298 14.1843 629.226 14.1843 629.226C14.1843 629.226 18.693 622.808 20.0648 621.783L17.9122 621.84C17.9122 621.84 22.0394 617.862 25.1237 618.05L22.5297 617.241C22.5297 617.241 26.6952 617.095 28.9078 617.089C29.2592 617.089 29.5611 617.091 29.7893 617.098C31.4569 617.151 27.5211 615.727 27.5211 615.727C27.5211 615.727 36.7411 615.624 38.025 614.71Z" fill="#13933B"/>
<path d="M38.0251 614.71C38.0251 614.71 34.4085 622.666 31.6169 624.421L32.2318 621.241C32.2318 621.241 28.6309 624.464 25.5083 624.814L27.1218 622.771C27.1218 622.771 21.4629 624.329 20.7826 625.056L21.8593 623.693L15.8445 627.569C15.8445 627.569 21.6243 621.667 26.9295 620.718C32.2356 619.769 38.0251 614.71 38.0251 614.71Z" fill="#13C23B"/>
<path d="M23.9452 686.779C23.9452 686.779 30.9414 695.973 24.0894 701.305C17.2374 706.638 10.5161 712.466 10.5161 712.466C10.5161 712.466 7.47983 703.949 8.94392 696.586C10.4073 689.224 23.9452 686.779 23.9452 686.779Z" fill="#13AC3B"/>
<path d="M23.9453 686.779C23.9453 686.779 23.4303 692.48 18.4689 696.653C13.5075 700.827 11.8106 709.103 11.8106 709.103C11.8106 709.103 12.427 701.99 13.039 700.557L11.3699 701.585C11.3699 701.585 12.8009 696.566 15.3154 695.305L12.9038 695.854C12.9038 695.854 16.1166 693.835 17.8562 692.82C18.1325 692.658 18.3713 692.522 18.5545 692.423C19.8909 691.702 16.1421 692.381 16.1421 692.381C16.1421 692.381 23.3514 688.086 23.9453 686.779Z" fill="#13933B"/>
<path d="M23.9454 686.779C23.9454 686.779 24.7345 694.696 23.3388 697.353L22.3694 694.569C22.3694 694.569 21.0075 698.752 18.7092 700.455L19.0463 698.109C19.0463 698.109 15.3035 701.922 15.1 702.805L15.3253 701.24L12.3618 707.04C12.3618 707.04 14.2141 699.752 17.9577 696.58C21.699 693.408 23.9454 686.779 23.9454 686.779Z" fill="#13C23B"/>
</g>
<defs>
<linearGradient id="paint0_linear_1186_1708" x1="-21" y1="20.5405" x2="422.448" y2="714.547" gradientUnits="userSpaceOnUse">
<stop stop-color="#CAD8A1"/>
<stop offset="1" stop-color="#85AA18"/>
</linearGradient>
<linearGradient id="paint1_linear_1186_1708" x1="42" y1="745" x2="42" y2="782" gradientUnits="userSpaceOnUse">
<stop stop-color="#48561E"/>
<stop offset="1" stop-color="#435118"/>
<stop offset="1" stop-color="#BDFF00"/>
</linearGradient>
<linearGradient id="paint2_linear_1186_1708" x1="42" y1="772.5" x2="42" y2="800" gradientUnits="userSpaceOnUse">
<stop stop-color="#8E9B68"/>
<stop offset="1" stop-color="#8AA04A"/>
</linearGradient>
<linearGradient id="paint3_linear_1186_1708" x1="84" y1="705" x2="84" y2="742" gradientUnits="userSpaceOnUse">
<stop stop-color="#526224"/>
<stop offset="1" stop-color="#0A0C04" stop-opacity="0.56"/>
<stop offset="1" stop-color="#BDFF00"/>
</linearGradient>
<linearGradient id="paint4_linear_1186_1708" x1="84" y1="732.5" x2="84" y2="760" gradientUnits="userSpaceOnUse">
<stop stop-color="#8E9B68"/>
<stop offset="1" stop-color="#8AA04A"/>
</linearGradient>
<linearGradient id="paint5_linear_1186_1708" x1="131" y1="662" x2="131" y2="699" gradientUnits="userSpaceOnUse">
<stop stop-color="#8AA04A"/>
<stop offset="1" stop-color="#0A0C04" stop-opacity="0.56"/>
<stop offset="1" stop-color="#7A8F3E"/>
</linearGradient>
<linearGradient id="paint6_linear_1186_1708" x1="131" y1="689.5" x2="131" y2="717" gradientUnits="userSpaceOnUse">
<stop stop-color="#8E9B68"/>
<stop offset="1" stop-color="#8AA04A"/>
</linearGradient>
<linearGradient id="paint7_linear_1186_1708" x1="-18.5113" y1="281.656" x2="51.687" y2="288.366" gradientUnits="userSpaceOnUse">
<stop stop-color="#C2E857"/>
<stop offset="1" stop-color="#A2BE52"/>
</linearGradient>
<linearGradient id="paint8_linear_1186_1708" x1="-18.5113" y1="281.656" x2="51.687" y2="288.366" gradientUnits="userSpaceOnUse">
<stop stop-color="#C4E075"/>
<stop offset="1" stop-color="#2E3D06"/>
</linearGradient>
<linearGradient id="paint9_linear_1186_1708" x1="-47.5113" y1="500.548" x2="22.8165" y2="506.549" gradientUnits="userSpaceOnUse">
<stop stop-color="#C2E857"/>
<stop offset="1" stop-color="#A2BE52"/>
</linearGradient>
<linearGradient id="paint10_linear_1186_1708" x1="-30.346" y1="500.548" x2="39.9818" y2="506.549" gradientUnits="userSpaceOnUse">
<stop stop-color="#C4E075"/>
<stop offset="1" stop-color="#2E3D06"/>
</linearGradient>
<linearGradient id="paint11_linear_1186_1708" x1="76.872" y1="38.8909" x2="78.9654" y2="87.0013" gradientUnits="userSpaceOnUse">
<stop stop-color="#D8FF64"/>
<stop offset="1" stop-color="#C6F544"/>
</linearGradient>
<linearGradient id="paint12_linear_1186_1708" x1="76.0327" y1="58.0002" x2="79.9549" y2="162.006" gradientUnits="userSpaceOnUse">
<stop stop-color="#ACC562"/>
<stop offset="1" stop-color="#72980A"/>
</linearGradient>
<clipPath id="clip0_1186_1708">
<rect width="360" height="800" fill="white"/>
</clipPath>
</defs>
</svg>
