<svg width="250" height="250" viewBox="0 0 250 250" fill="none" xmlns="http://www.w3.org/2000/svg">
    <path
        d="M85.046 142.992L85.049 142.991C86.9594 141.86 88.8918 140.766 90.8449 139.711C93.0795 144.891 96.4617 149.501 100.739 153.188C100.054 155.324 99.1372 158.372 98.1472 162.116C86.4312 181.318 79.6111 203.105 78.2881 225.562L78.2869 225.582L78.2863 225.601C78.0983 231.261 76.7707 234.158 75.3255 235.67C73.9122 237.149 72.1494 237.553 70.423 237.645C67.1083 237.673 63.8829 236.57 61.2794 234.517L61.2633 234.504L61.2467 234.492C44.7551 222.206 37.1462 209.607 37.8249 197.07L37.8249 197.069C38.4718 185.056 46.612 173.634 56.613 164.06C66.5667 154.532 78.1055 147.079 85.046 142.992ZM12.4216 114.35L12.4221 114.35C20.9563 106.679 33.6957 104.099 46.9754 104.138C60.1694 104.177 73.6082 106.801 83.3188 109.26C83.5103 109.332 83.7059 109.392 83.9047 109.44C86.0975 110.004 88.2789 110.611 90.4473 111.261C88.6956 115.625 87.7912 120.288 87.7886 125C87.788 125.928 87.8185 126.856 87.8799 127.781C85.8871 128.811 83.0817 130.323 79.7431 132.277C57.9066 137.597 37.698 148.168 20.8739 163.075L20.8575 163.089L20.8416 163.104C16.7053 166.99 13.7202 168.099 11.6329 168.142C9.5897 168.185 8.05818 167.215 6.77031 166.047C4.41181 163.738 2.91551 160.69 2.53124 157.412L2.52876 157.391L2.52568 157.369C-0.443896 137.041 3.08002 122.739 12.4216 114.35ZM229.122 86.9254L229.138 86.9115L229.153 86.8972C233.29 83.0137 236.275 81.9033 238.363 81.8586C240.406 81.8149 241.937 82.7842 243.224 83.9533C245.586 86.2665 247.083 89.3205 247.464 92.6052L247.467 92.6277L247.47 92.6502C250.453 112.976 246.908 127.261 237.574 135.647C228.962 143.384 216.07 145.938 202.662 145.85C189.305 145.762 175.733 143.052 166.062 140.569C163.876 139.993 161.7 139.379 159.535 138.728C161.64 133.49 162.513 127.836 162.082 122.202C164.062 121.172 166.843 119.667 170.161 117.725C192.04 112.446 212.288 101.869 229.122 86.9254ZM225.508 171.712L225.53 171.713L225.552 171.714C231.244 171.895 234.144 173.22 235.649 174.662C237.121 176.072 237.513 177.835 237.593 179.575C237.615 182.889 236.512 186.113 234.463 188.719L234.451 188.734L234.44 188.749C222.142 205.241 209.576 212.829 197.011 212.155C185.001 211.497 173.59 203.344 164.028 193.331C154.511 183.365 147.071 171.816 142.989 164.87L142.987 164.868C141.868 162.97 140.782 161.053 139.731 159.116C144.895 156.882 149.49 153.508 153.168 149.244C155.313 149.926 158.399 150.86 162.182 151.878C181.366 163.532 203.101 170.34 225.508 171.712ZM157.396 247.475L157.375 247.478L157.354 247.481C137.003 250.437 122.719 246.918 114.335 237.581C106.3 228.624 103.98 214.79 104.283 200.949C104.584 187.174 107.472 173.748 109.488 165.953C109.489 165.951 109.49 165.948 109.491 165.943L109.493 165.937C109.498 165.919 109.511 165.877 109.523 165.835C109.538 165.777 109.563 165.682 109.58 165.561C110.111 163.551 110.676 161.55 111.276 159.559C115.634 161.305 120.291 162.207 124.996 162.211H124.999C125.936 162.21 126.872 162.174 127.806 162.103C128.834 164.077 130.335 166.854 132.268 170.165C137.556 192.045 148.136 212.293 163.081 229.128L163.095 229.144L163.109 229.16C166.995 233.294 168.106 236.279 168.151 238.366C168.195 240.408 167.226 241.939 166.057 243.226C163.742 245.592 160.684 247.092 157.396 247.475ZM92.6087 2.52546L92.6299 2.52299L92.651 2.51991C113.005 -0.441134 127.29 3.09142 135.67 12.4289L135.67 12.4293C143.402 21.0387 145.952 33.9165 145.858 47.3081C145.764 60.6525 143.048 74.2115 140.556 83.8801L140.556 83.8811C139.989 86.0853 139.38 88.2783 138.73 90.4589C133.472 88.3409 127.792 87.4654 122.134 87.9049C121.118 85.957 119.641 83.2399 117.762 79.9981C112.423 58.0855 101.842 37.7964 86.9269 20.8764L86.9111 20.8585L86.8948 20.8411C83.0092 16.7066 81.8981 13.7221 81.853 11.6351C81.8089 9.59247 82.7781 8.06128 83.9473 6.77431C86.2628 4.4085 89.3201 2.90856 92.6087 2.52546ZM164.857 107.008L164.851 107.011C162.956 108.136 161.039 109.225 159.101 110.275C156.873 105.11 153.504 100.513 149.244 96.83C149.936 94.6517 150.874 91.533 151.876 87.7043C163.523 68.5428 170.316 46.8261 171.663 24.4406L171.664 24.4204L171.665 24.4002C171.853 18.7278 173.181 15.8322 174.625 14.3234C176.037 12.8477 177.799 12.4485 179.529 12.3559C182.84 12.3226 186.064 13.426 188.66 15.4825L188.678 15.4966L188.696 15.5102C205.204 27.7901 212.818 40.42 212.131 52.9662L213.628 53.0482L212.131 52.9663C211.473 64.9887 203.323 76.4056 193.313 85.9696C183.351 95.4885 171.805 102.928 164.857 107.008ZM24.4422 78.289L24.4205 78.2877L24.3987 78.287C18.0656 78.0842 15.2019 76.434 13.8625 74.8997C12.5206 73.3625 12.4146 71.6295 12.366 70.4309C12.3434 67.1154 13.4467 63.8901 15.4958 61.283L15.5077 61.2678L15.5193 61.2523C27.8026 44.7679 40.4814 37.2126 52.9848 37.8608C65.0375 38.5343 76.4569 46.7013 86.0114 56.724C95.5221 66.7009 102.942 78.2596 107.009 85.2134L107.009 85.2138C108.106 87.0888 109.173 88.9814 110.209 90.8908C105.06 93.1208 100.477 96.485 96.8046 100.735C94.6387 100.037 91.5566 99.1206 87.7742 98.1258C68.5892 86.4677 46.8518 79.6586 24.4422 78.289ZM150.279 125.001C150.279 138.964 138.961 150.283 124.999 150.284C111.043 150.267 99.7326 138.958 99.7155 125.001C99.7155 111.037 111.035 99.7179 124.997 99.7179C138.96 99.7179 150.279 111.037 150.279 125.001ZM129.215 107.392C128.096 106.274 126.579 105.645 124.997 105.645C114.309 105.645 105.643 114.311 105.643 125.001C105.643 126.583 106.271 128.099 107.389 129.218C108.508 130.336 110.025 130.965 111.606 130.965C113.188 130.965 114.705 130.336 115.823 129.218C116.942 128.099 117.57 126.583 117.57 125.001C117.57 120.899 120.896 117.573 124.997 117.573C126.579 117.573 128.096 116.945 129.215 115.826C130.333 114.708 130.961 113.191 130.961 111.609C130.961 110.027 130.333 108.51 129.215 107.392Z"
        stroke="#01FF85" stroke-width="3" />
</svg>
