<svg width="299" height="267" viewBox="0 0 299 267" fill="none" xmlns="http://www.w3.org/2000/svg">
    <path
        d="M168.39 148.49L168.383 148.478C162.297 138.635 146.838 138.637 140.749 148.478L140.741 148.492L140.731 148.506C140.155 149.372 139.26 149.974 138.241 150.179C137.222 150.385 136.164 150.176 135.299 149.599C134.434 149.022 133.833 148.126 133.626 147.106C133.418 146.087 133.619 145.027 134.188 144.156L134.189 144.154C136.412 140.763 139.437 137.98 142.994 136.054C146.551 134.128 150.527 133.12 154.568 133.12C158.608 133.12 162.584 134.128 166.141 136.054C169.697 137.98 172.722 140.763 174.946 144.153L168.39 148.49ZM168.39 148.49L168.399 148.503M168.39 148.49L168.399 148.503M168.399 148.503C168.973 149.373 169.869 149.98 170.891 150.188C171.912 150.395 172.973 150.186 173.84 149.607L168.399 148.503ZM154.542 166L154.567 166L154.593 166C165.531 165.723 165.53 149.576 154.593 149.296L154.568 149.295L154.542 149.296C143.604 149.573 143.605 165.719 154.542 166ZM179.041 138.218L179.049 138.227L179.056 138.237C179.423 138.706 179.892 139.085 180.427 139.345C180.957 139.603 181.539 139.737 182.128 139.738C183.765 139.782 185.04 138.756 185.646 137.506C186.25 136.257 186.265 134.623 185.215 133.353C170.331 113.579 138.784 113.585 123.907 133.371C123.16 134.352 122.924 135.433 123.108 136.441C123.288 137.428 123.855 138.273 124.59 138.856C125.326 139.439 126.278 139.797 127.277 139.744C128.299 139.689 129.293 139.207 130.067 138.249L130.079 138.234L130.091 138.218C141.819 122.477 167.317 122.474 179.041 138.218ZM114.635 139.983C114.645 117.8 132.525 99.8306 154.568 99.8306C176.61 99.8306 194.49 117.8 194.5 139.983C192.384 193.275 116.757 193.286 114.635 139.983Z"
        stroke="#EB00FF" stroke-width="2" />
    <path
        d="M220.532 22.6863L220.532 22.6865C225.875 36.0542 217.717 52.3507 197.613 66.2528L197.613 66.2529C192.165 70.0212 187.088 74.9227 183.132 80.0409C179.621 84.5829 176.949 89.3531 175.716 93.7033C160.027 81.0844 135.826 80.4128 118.457 97.9064C104.269 76.0474 98.1309 54.5635 102.216 37.5205C106.335 20.3354 120.951 7.30744 149.208 2.96773L149.208 2.96778L149.218 2.96609C167.443 -0.0277258 183.554 0.471399 195.977 3.95998C208.41 7.4511 217.018 13.8903 220.532 22.6863Z"
        stroke="#EB00FF" stroke-width="2" />
    <path
        d="M240.322 248.511L240.321 248.511C225.963 249.545 212.91 236.828 205.764 213.452L205.764 213.452C203.819 207.093 200.412 200.815 196.469 195.552C192.952 190.858 188.968 186.917 185.149 184.446C202.79 171.867 210.459 147.093 200.877 127.764C226.007 120.877 248.026 121.711 262.712 130.93C277.523 140.228 285.194 158.277 280.753 186.533L280.753 186.533L280.751 186.544C278.074 204.818 272.709 220.018 265.616 230.796C258.517 241.583 249.769 247.832 240.322 248.511Z"
        stroke="#EB00FF" stroke-width="2" />
    <path
        d="M18.8629 160.837L18.863 160.837C25.4564 147.98 43.1479 143.362 66.8832 149.32L66.8834 149.32C79.0022 152.361 92.7743 151.282 101.339 147.134C101.741 158.027 105.417 168.258 112.308 175.891C119.327 183.666 129.619 188.676 142.987 188.985C135.794 214.072 123.571 232.638 107.986 240.591C92.2549 248.62 72.7555 245.991 50.8794 227.573L50.8794 227.573L50.8714 227.567C36.6179 215.819 26.396 203.357 20.8602 191.698C15.3207 180.031 14.5238 169.294 18.8629 160.837Z"
        stroke="#EB00FF" stroke-width="2" />
</svg>
