<svg width="262" height="250" viewBox="0 0 262 250" fill="none" xmlns="http://www.w3.org/2000/svg">
    <path
        d="M80.8773 22.507L80.8772 22.5071C78.2223 23.695 75.138 22.5582 73.9632 20.1503C72.8228 17.8101 73.8305 14.942 76.4363 13.7762C90.4106 7.52425 105.196 3.80359 120.52 2.66618V12.3785C106.751 13.4936 93.4527 16.8807 80.8773 22.507ZM180.483 227.493L180.483 227.493C183.139 226.304 186.222 227.444 187.396 229.849C188.537 232.189 187.53 235.058 184.924 236.224C170.949 242.476 156.164 246.196 140.84 247.334V237.621C154.609 236.506 167.907 233.119 180.483 227.493ZM69.5492 61.8115H69.7799C90.8219 61.8792 110.186 71.3872 122.559 86.874C107.253 89.8456 94.9646 101.057 91.06 115.554H3.28285C8.28236 85.6241 35.6976 61.8115 69.5492 61.8115ZM246.937 73.5543C253.434 86.8765 257.305 100.962 258.502 115.555H248.143C246.968 102.358 243.424 89.6159 237.55 77.5721C236.41 75.2324 237.417 72.3634 240.023 71.1976C242.681 70.0086 245.764 71.1496 246.937 73.5543ZM21.3366 179.586L22.3333 181.814L21.3365 179.586C18.6813 180.774 15.5977 179.637 14.4227 177.229C7.92599 163.907 4.05514 149.822 2.85838 135.229H13.2172C14.3918 148.426 17.9355 161.168 23.8095 173.212C24.9501 175.551 23.9426 178.42 21.3366 179.586ZM197.348 66.7326C197.279 86.9936 187.24 105.709 170.791 117.627C167.688 102.799 155.89 91.0312 140.839 87.3206V3.18925C172.729 7.98847 197.459 34.433 197.348 66.7326ZM191.967 189.127C170.79 189.059 151.31 179.485 138.87 163.892C154.143 160.901 166.401 149.703 170.3 135.228H258.097C253.139 165.726 225.779 189.127 192.204 189.127L191.972 189.127C191.97 189.127 191.968 189.127 191.967 189.127ZM64.1904 183.727C64.2594 163.595 74.2264 144.997 90.5623 133.136C93.6585 147.976 105.461 159.751 120.52 163.462V246.948C88.5548 242.204 64.0796 215.717 64.1904 183.727ZM130.68 105.769C142.137 105.769 151.277 114.674 151.277 125.392C151.277 136.109 142.137 145.014 130.68 145.014C119.223 145.014 110.083 136.109 110.083 125.392C110.083 114.674 119.223 105.769 130.68 105.769Z"
        stroke="#BDFF00" stroke-width="5" />
</svg>
