<svg width="250" height="250" viewBox="0 0 250 250" fill="none" xmlns="http://www.w3.org/2000/svg">
<path d="M245.86 121H129.14C131.252 90.9226 156.961 66.5 187.5 66.5C218.039 66.5 243.748 90.9226 245.86 121ZM129 129.14C159.077 131.252 183.5 156.961 183.5 187.5C183.5 218.039 159.077 243.748 129 245.86V129.14ZM4.14015 129H120.86C118.748 159.077 93.0386 183.5 62.5 183.5C31.9614 183.5 6.25224 159.077 4.14015 129ZM121 4.14015V120.86C90.9226 118.748 66.5 93.0386 66.5 62.5C66.5 31.9614 90.9226 6.25224 121 4.14015Z" stroke="#FF0000" stroke-width="8"/>
</svg>
