<svg width="208" height="208" viewBox="0 0 208 208" fill="none" xmlns="http://www.w3.org/2000/svg">
    <path
        d="M69.801 103.937L69.7999 103.973L69.8 104.008C69.8151 107.567 70.3937 111.097 71.5106 114.468L40.4442 127.148L40.4438 127.148C36.2074 128.879 31.6104 129.54 27.058 129.075C22.5056 128.609 18.1376 127.031 14.3392 124.479C10.5407 121.927 7.42838 118.48 5.27655 114.441C3.12472 110.402 1.99947 105.896 2 101.32V101.32L2 80.392L2 80.3897C1.9996 80.0408 2.09049 79.6978 2.26365 79.3949C2.43681 79.0919 2.68621 78.8396 2.98708 78.6628C3.28794 78.4861 3.6298 78.3912 3.97873 78.3875C4.32765 78.3838 4.67145 78.4714 4.97599 78.6417L4.98411 78.6462C25.2142 89.8337 47.196 97.4956 69.9872 101.308C69.8908 102.182 69.8287 103.058 69.801 103.937ZM103.73 137.999L103.769 138L103.808 138C107.405 137.985 110.971 137.395 114.374 136.255L127.148 167.571C128.875 171.807 129.534 176.402 129.067 180.953C128.6 185.503 127.021 189.869 124.47 193.665C121.918 197.461 118.472 200.572 114.435 202.723C110.398 204.874 105.894 206 101.32 206H80.4C80.0516 206 79.7093 205.909 79.4069 205.736C79.1045 205.563 78.8525 205.314 78.6759 205.014C78.4993 204.714 78.4042 204.372 78.4 204.024C78.3958 203.676 78.4826 203.332 78.6519 203.028L78.6542 203.024C89.8742 182.737 97.5485 160.689 101.351 137.83C102.142 137.915 102.935 137.971 103.73 137.999ZM103.857 70.0008L103.823 69.9998L103.788 70C100.322 70.0201 96.8832 70.5752 93.5932 71.6422L80.852 40.4288C79.1248 36.1932 78.4658 31.5978 78.9329 27.0475C79.4 22.4971 80.9789 18.1315 83.5305 14.335C86.0821 10.5386 89.5281 7.42782 93.5651 5.2768C97.6019 3.1258 102.106 2.0005 106.68 2C106.68 2 106.68 2 106.68 2H127.616C127.964 1.99999 128.307 2.09095 128.609 2.26391C128.912 2.43686 129.163 2.68579 129.34 2.98606C129.517 3.28638 129.612 3.62757 129.616 3.97584C129.62 4.32416 129.533 4.66755 129.364 4.972L129.362 4.97586C118.135 25.2703 110.458 47.3285 106.658 70.1981C105.728 70.0933 104.793 70.0274 103.857 70.0008Z"
        stroke="#FF6B00" stroke-width="4" />
    <path
        d="M117.8 104C117.8 111.732 111.532 118 103.8 118C96.0678 118 89.7998 111.732 89.7998 104C89.7998 96.268 96.0678 90 103.8 90C111.532 90 117.8 96.268 117.8 104Z"
        stroke="#FF6B00" stroke-width="4" />
    <path
        d="M193.585 83.4712L193.588 83.473C197.41 86.0169 200.544 89.4669 202.709 93.5156C204.875 97.5644 206.006 102.086 206 106.678V106.68V127.598C205.999 127.946 205.908 128.287 205.736 128.589C205.563 128.891 205.314 129.143 205.015 129.319C204.715 129.496 204.375 129.591 204.027 129.596C203.679 129.6 203.336 129.514 203.032 129.346C182.683 118.089 160.562 110.401 137.629 106.609C138.11 102.241 137.609 97.8205 136.165 93.6704L167.571 80.8599L167.574 80.8589C171.792 79.1316 176.37 78.4666 180.905 78.9221C185.44 79.3776 189.795 80.9397 193.585 83.4712Z"
        stroke="#FF6B00" stroke-width="4" />
</svg>
