<svg width="268" height="268" viewBox="0 0 268 268" fill="none" xmlns="http://www.w3.org/2000/svg">
    <g filter="url(#filter0_d_30_8)">
        <path
            d="M177.81 110.357C184.56 107.988 191.63 109.109 199.202 110.772C204.199 111.873 209.37 113.015 215.17 113.015C222.932 113.015 230.199 110.889 237.387 106.52C248.465 99.7825 256.045 87.7305 257.662 74.2819C259.507 58.9148 253.75 43.6697 241.447 31.3671C229.234 19.1533 212.931 12.4307 195.54 12.4307C177.793 12.4307 161.057 19.393 148.415 32.0328C132.615 47.8352 122.335 73.03 122.158 96.137C118.398 93.4004 115.069 90.0479 113.359 85.1862C110.712 77.6674 112.132 71.237 113.772 63.7918C116.023 53.594 118.82 40.9017 109.521 25.6032C101.792 12.8966 87.3214 5 71.7522 5C58.3214 5 45.0482 10.8765 34.376 21.5453C8.91116 47.0204 9.21605 88.7571 35.0459 114.584C50.6389 130.182 76.2621 140.685 99.0752 140.942C96.3472 144.664 93.012 147.943 88.1912 149.642C81.4521 152.02 74.381 150.906 66.7967 149.228C61.8006 148.127 56.6301 146.984 50.8269 146.984C43.0681 146.984 35.8005 149.108 28.6134 153.478C17.5347 160.217 9.95543 172.268 8.33778 185.717C6.49231 201.084 12.2523 216.33 24.5524 228.631C36.7644 240.845 53.0696 247.567 70.4606 247.567C88.2073 247.567 104.944 240.604 117.586 227.966C133.386 212.163 143.665 186.969 143.844 163.862C147.601 166.598 150.931 169.951 152.643 174.811C155.289 182.33 153.87 188.76 152.228 196.206C149.977 206.403 147.18 219.097 156.48 234.395C164.209 247.103 178.68 255 194.25 255C207.681 255 220.954 249.123 231.627 238.455C257.086 212.985 256.787 171.248 230.956 145.416C215.363 129.816 189.739 119.314 166.928 119.059C169.654 115.335 172.991 112.056 177.81 110.357ZM143.668 140.669C137.971 146.367 128.029 146.367 122.332 140.669C116.452 134.784 116.452 125.216 122.332 119.331C123.73 117.926 125.392 116.812 127.224 116.054C129.055 115.296 131.018 114.908 133 114.914C137.032 114.914 140.819 116.483 143.669 119.331C149.548 125.216 149.548 134.784 143.668 140.669Z"
            stroke="#1400F8" stroke-width="10" shape-rendering="crispEdges" />
    </g>
    <defs>
        <filter id="filter0_d_30_8" x="-0.000732422" y="0" width="268.001" height="268"
            filterUnits="userSpaceOnUse" color-interpolation-filters="sRGB">
            <feFlood flood-opacity="0" result="BackgroundImageFix" />
            <feColorMatrix in="SourceAlpha" type="matrix"
                values="0 0 0 0 0 0 0 0 0 0 0 0 0 0 0 0 0 0 127 0" result="hardAlpha" />
            <feOffset dx="1" dy="4" />
            <feGaussianBlur stdDeviation="2" />
            <feComposite in2="hardAlpha" operator="out" />
            <feColorMatrix type="matrix" values="0 0 0 0 0 0 0 0 0 0 0 0 0 0 0 0 0 0 0.25 0" />
            <feBlend mode="normal" in2="BackgroundImageFix" result="effect1_dropShadow_30_8" />
            <feBlend mode="normal" in="SourceGraphic" in2="effect1_dropShadow_30_8"
                result="shape" />
        </filter>
    </defs>
</svg>
