<svg width="251" height="250" viewBox="0 0 251 250" fill="none" xmlns="http://www.w3.org/2000/svg">
    <path
        d="M181.446 56.4794L181.443 56.4803C171.78 58.8017 163.391 64.4216 157.861 72.2824L157.861 72.2832C153.676 78.241 149.555 85.7276 146.207 93.2212C139.577 88.8844 131.735 86.7328 123.789 87.0986C115.895 87.462 108.331 90.2905 102.149 95.1601C90.8085 69.7782 88.2827 45.2909 94.9997 25.1889C98.1945 15.6553 105.473 8.10247 114.439 4.93225L114.444 4.93025C130.518 -0.82516 148.158 1.07616 163.974 7.55552C179.792 14.0354 193.647 25.0406 202.112 37.2753C203.973 40.0492 204.376 43.4875 203.153 46.6123L203.15 46.619C201.917 49.8161 199.229 52.2251 195.917 53.0439C195.915 53.0444 195.913 53.0449 195.911 53.0454L181.446 56.4794ZM72.8732 92.7035L72.874 92.704C78.8296 96.8879 86.27 101.009 93.7594 104.358C89.4226 110.989 87.2711 118.831 87.6368 126.776C88.0002 134.671 90.8288 142.236 95.6985 148.418C79.7028 155.573 64.0365 159.239 49.5732 159.239C41.1798 159.239 33.1654 158.011 25.7805 155.567C16.2439 152.371 8.64217 145.09 5.47343 136.128L5.47215 136.124C-0.258121 120.048 1.64351 102.407 8.11635 86.5897C14.5898 70.7708 25.5819 56.9153 37.8159 48.4503C40.5786 46.5973 44.0715 46.2322 47.1628 47.4142L47.1653 47.4152C50.4014 48.6459 52.7637 51.3273 53.5839 54.6492C53.5842 54.6503 53.5845 54.6514 53.5848 54.6525L57.0717 69.1213C59.393 78.7845 65.0126 87.1738 72.8732 92.7035ZM125.551 162.969H125.553C134.082 162.958 142.338 160.076 149.005 154.819C160.343 180.248 162.82 204.735 156.104 224.787C152.907 234.325 145.626 241.928 136.715 245.097C130.119 247.431 123.26 248.5 116.386 248.5C89.6395 248.5 62.5384 232.276 49.0423 212.753C47.1803 209.978 46.7775 206.483 47.9539 203.406L47.9549 203.403C49.1824 200.175 51.91 197.807 55.1879 196.985C55.1908 196.984 55.1937 196.983 55.1967 196.982L69.6564 193.55L69.6679 193.547C79.3247 191.173 87.7119 185.556 93.2416 177.694L93.2422 177.694C97.4269 171.736 101.547 164.251 104.894 156.801C110.83 160.671 117.914 162.969 125.551 162.969ZM225.37 94.4606L225.372 94.4612C234.907 97.6562 242.461 104.936 245.63 113.852L245.631 113.854C251.387 129.955 249.485 147.609 243.006 163.426C236.525 179.248 225.517 193.093 213.28 201.531L213.269 201.539C211.608 202.706 209.622 203.297 207.622 203.297C206.347 203.297 205.124 203.07 203.943 202.616C200.754 201.385 198.339 198.649 197.519 195.379C197.518 195.377 197.518 195.374 197.517 195.372L194.084 180.911L194.083 180.908C191.762 171.244 186.142 162.855 178.282 157.325L178.281 157.325C172.321 153.138 164.831 149.015 157.334 145.666C161.203 139.7 163.504 132.659 163.504 125.014V125.014C163.502 116.498 160.619 108.254 155.356 101.608C180.786 90.218 205.271 87.6943 225.37 94.4606Z"
        stroke="#0F8F42" stroke-width="3" />
    <path
        d="M150.089 125.014C150.089 138.567 139.103 149.553 125.551 149.553C112 149.553 101.014 138.567 101.014 125.014C101.014 111.462 112 100.476 125.551 100.476C139.103 100.476 150.089 111.462 150.089 125.014Z"
        stroke="#0F8F42" stroke-width="3" />
</svg>
