<svg width="360" height="800" viewBox="0 0 360 800" fill="none" xmlns="http://www.w3.org/2000/svg">
<g clip-path="url(#clip0_1248_2000)">
<rect width="360" height="800" fill="url(#paint0_linear_1248_2000)"/>
<path d="M5.50342 670.169V698.793C5.50342 711.384 15.8057 721.688 28.3982 721.688H53.6425C66.235 721.688 76.5373 711.385 76.5373 698.793V670.169H5.50342Z" fill="#ECC742"/>
<mask id="mask0_1248_2000" style="mask-type:luminance" maskUnits="userSpaceOnUse" x="5" y="670" width="72" height="52">
<path d="M5.50342 670.169V698.793C5.50342 711.384 15.8057 721.688 28.3982 721.688H53.6425C66.235 721.688 76.5373 711.385 76.5373 698.793V670.169H5.50342Z" fill="white"/>
</mask>
<g mask="url(#mask0_1248_2000)">
<path d="M73.8348 688.107C71.4235 688.107 70.1715 687.334 69.0668 686.651C68.0927 686.048 67.3218 685.572 65.6315 685.572C63.9411 685.572 63.1726 686.047 62.1986 686.651C61.0939 687.334 59.8419 688.107 57.4329 688.107C55.0251 688.107 53.7743 687.334 52.6696 686.651C51.6967 686.048 50.9282 685.572 49.2414 685.572C47.5523 685.572 46.7837 686.047 45.8097 686.651C44.7062 687.334 43.4542 688.107 41.0452 688.107C38.6363 688.107 37.3854 687.334 36.2819 686.651C35.3091 686.048 34.5393 685.572 32.8514 685.572C31.1634 685.572 30.3949 686.047 29.422 686.651C28.3185 687.334 27.0665 688.107 24.6575 688.107C22.2485 688.107 20.9977 687.334 19.893 686.651C18.9202 686.048 18.1517 685.572 16.4637 685.572C14.7758 685.572 14.0084 686.047 13.0355 686.651C11.932 687.334 10.6812 688.107 8.27341 688.107C5.86681 688.107 4.61601 687.334 3.51367 686.651C2.54201 686.048 1.77346 685.572 0.0878906 685.572V683.037C2.49449 683.037 3.7453 683.812 4.84882 684.493C5.82049 685.096 6.58903 685.572 8.2746 685.572C9.96255 685.572 10.7299 685.097 11.7028 684.493C12.8063 683.81 14.0571 683.037 16.4649 683.037C18.8738 683.037 20.1247 683.81 21.2282 684.493C22.201 685.096 22.9708 685.572 24.6587 685.572C26.3467 685.572 27.1164 685.097 28.0893 684.493C29.1928 683.81 30.4436 683.037 32.8526 683.037C35.2615 683.037 36.5123 683.81 37.6159 684.493C38.5887 685.096 39.3584 685.572 41.0464 685.572C42.7355 685.572 43.5041 685.097 44.4781 684.493C45.5816 683.81 46.8337 683.037 49.2426 683.037C51.6504 683.037 52.9012 683.81 54.0048 684.493C54.9776 685.096 55.7461 685.572 57.4329 685.572C59.1232 685.572 59.8918 685.097 60.8658 684.493C61.9705 683.81 63.2225 683.037 65.6315 683.037C68.0428 683.037 69.2949 683.81 70.3996 684.493C71.3736 685.096 72.1445 685.572 73.8348 685.572C75.5251 685.572 76.2961 685.097 77.2701 684.493C78.3748 683.81 79.628 683.037 82.0382 683.037V685.572C80.3466 685.572 79.577 686.047 78.6029 686.651C77.4982 687.334 76.245 688.107 73.8348 688.107Z" fill="white"/>
<path d="M73.8348 700.78C71.4235 700.78 70.1715 700.007 69.0668 699.324C68.0927 698.722 67.3218 698.247 65.6315 698.247C63.9411 698.247 63.1726 698.722 62.1986 699.324C61.0939 700.007 59.8419 700.78 57.4329 700.78C55.0251 700.78 53.7743 700.007 52.6696 699.324C51.6967 698.722 50.9282 698.247 49.2414 698.247C47.5523 698.247 46.7837 698.722 45.8097 699.324C44.7062 700.007 43.4542 700.78 41.0452 700.78C38.6363 700.78 37.3854 700.007 36.2819 699.324C35.3091 698.722 34.5393 698.247 32.8514 698.247C31.1634 698.247 30.3949 698.722 29.422 699.324C28.3185 700.007 27.0665 700.78 24.6575 700.78C22.2485 700.78 20.9977 700.007 19.893 699.324C18.9202 698.722 18.1517 698.247 16.4637 698.247C14.7758 698.247 14.0084 698.722 13.0355 699.324C11.932 700.007 10.6812 700.78 8.27341 700.78C5.86681 700.78 4.61601 700.007 3.51367 699.324C2.54201 698.722 1.77346 698.247 0.0878906 698.247V695.712C2.49449 695.712 3.7453 696.486 4.84882 697.168C5.82049 697.77 6.58903 698.247 8.2746 698.247C9.96255 698.247 10.7299 697.772 11.7028 697.168C12.8063 696.485 14.0571 695.712 16.4649 695.712C18.8738 695.712 20.1247 696.485 21.2282 697.168C22.201 697.77 22.9708 698.247 24.6587 698.247C26.3467 698.247 27.1164 697.772 28.0893 697.168C29.1928 696.485 30.4436 695.712 32.8526 695.712C35.2615 695.712 36.5123 696.485 37.6159 697.168C38.5887 697.77 39.3584 698.247 41.0464 698.247C42.7355 698.247 43.5041 697.772 44.4781 697.168C45.5816 696.485 46.8337 695.712 49.2426 695.712C51.6504 695.712 52.9012 696.485 54.0048 697.168C54.9776 697.77 55.7461 698.247 57.4329 698.247C59.1232 698.247 59.8918 697.772 60.8658 697.168C61.9705 696.485 63.2225 695.712 65.6315 695.712C68.0428 695.712 69.2949 696.485 70.3996 697.168C71.3736 697.77 72.1445 698.247 73.8348 698.247C75.5251 698.247 76.2961 697.772 77.2701 697.168C78.3748 696.485 79.628 695.712 82.0382 695.712V698.247C80.3466 698.247 79.577 698.722 78.6029 699.324C77.4982 700.007 76.245 700.78 73.8348 700.78Z" fill="white"/>
</g>
<path opacity="0.1" d="M60.2992 670.169V698.793C60.2992 711.384 49.9969 721.688 37.4044 721.688H53.6401C66.2313 721.688 76.5348 711.385 76.5348 698.793V670.169H60.2992Z" fill="#482C80"/>
<path d="M82.0394 665.871H0V674.464H82.0394V665.871Z" fill="#D4A000"/>
<path d="M6.75882 684.265C6.75882 685.475 5.77885 686.455 4.56961 686.455C3.36037 686.455 2.38037 685.475 2.38037 684.265C2.38037 683.056 3.36037 682.076 4.56961 682.076C5.77885 682.076 6.75882 683.056 6.75882 684.265Z" fill="#6D3E1D"/>
<path d="M44.7526 684.265C44.7526 685.475 43.7726 686.455 42.5634 686.455C41.3541 686.455 40.3741 685.475 40.3741 684.265C40.3741 683.056 41.3541 682.076 42.5634 682.076C43.7726 682.076 44.7526 683.056 44.7526 684.265Z" fill="#6D3E1D"/>
<path d="M78.9629 684.265C78.9629 685.475 77.9829 686.455 76.7736 686.455C75.5644 686.455 74.5845 685.475 74.5845 684.265C74.5845 683.056 75.5644 682.076 76.7736 682.076C77.9829 682.076 78.9629 683.056 78.9629 684.265Z" fill="#6D3E1D"/>
<path d="M27.6496 721.336C27.6496 722.545 26.6696 723.525 25.4603 723.525C24.2511 723.525 23.2711 722.545 23.2711 721.336C23.2711 720.126 24.2511 719.146 25.4603 719.146C26.6696 719.146 27.6496 720.126 27.6496 721.336Z" fill="#6D3E1D"/>
<path d="M59.6684 721.336C59.6684 722.545 58.6884 723.525 57.4791 723.525C56.2699 723.525 55.2899 722.545 55.2899 721.336C55.2899 720.126 56.2699 719.146 57.4791 719.146C58.6884 719.146 59.6684 720.126 59.6684 721.336Z" fill="#6D3E1D"/>
<path d="M74.8517 752.234C82.5526 746.392 93.1495 747.396 95.1772 750.068C97.3545 752.938 95.315 763.215 87.6141 769.057C79.9132 774.899 70.813 775.868 67.2886 771.222C63.7643 766.579 67.1508 758.076 74.8517 752.234Z" fill="#8AC27C"/>
<path d="M92.0055 778.977C91.6028 772.944 95.7733 767.753 97.8675 767.614C100.116 767.464 104.783 772.065 105.186 778.099C105.589 784.132 102.963 789.22 99.3239 789.462C95.6843 789.704 92.4081 785.01 92.0055 778.977Z" fill="#8AC27C"/>
<path d="M107.802 756.146C105.36 749.243 108.528 741.827 110.923 740.98C113.496 740.07 120.443 743.91 122.883 750.814C125.324 757.718 123.926 764.508 119.761 765.98C115.596 767.452 110.243 763.05 107.802 756.146Z" fill="#8AC27C"/>
<path d="M122.379 734.587C117.413 729.206 117.397 721.142 119.264 719.419C121.27 717.568 129.168 718.357 134.134 723.738C139.1 729.119 140.494 735.91 137.249 738.906C134.002 741.901 127.344 739.968 122.379 734.587Z" fill="#8AC27C"/>
<path d="M95.4884 724.464C99.4393 720.818 105.36 720.806 106.625 722.177C107.984 723.649 107.404 729.448 103.454 733.094C99.5034 736.739 94.518 737.763 92.318 735.38C90.1181 732.997 91.5376 728.109 95.4884 724.464Z" fill="#8AC27C"/>
<path d="M108.971 622.212C103.055 622.903 97.7452 619.054 97.5053 617.002C97.2475 614.797 101.545 609.982 107.461 609.29C113.376 608.599 118.509 610.932 118.926 614.5C119.343 618.067 114.886 621.52 108.971 622.212Z" fill="#8AC27C"/>
<path d="M90.4162 640.629C90.9294 636.795 94.2019 634.07 95.5323 634.247C96.9613 634.439 99.3038 637.916 98.7906 641.749C98.2775 645.582 95.9873 648.439 93.6745 648.129C91.3618 647.821 89.9031 644.462 90.4162 640.629Z" fill="#8AC27C"/>
<path d="M120.546 651.562C115.284 649.442 112.598 643.801 113.333 641.975C114.123 640.014 119.915 637.946 125.178 640.066C130.44 642.187 133.668 646.48 132.39 649.653C131.112 652.829 125.808 653.683 120.546 651.562Z" fill="#8AC27C"/>
<path d="M116.416 668.26C113.793 665.417 113.785 661.159 114.771 660.249C115.83 659.271 120.001 659.688 122.625 662.53C125.248 665.372 125.984 668.958 124.27 670.541C122.556 672.124 119.039 671.102 116.416 668.26Z" fill="#8AC27C"/>
<path d="M89.5847 666.544C91.6397 663.268 95.7485 662.144 96.8853 662.857C98.1064 663.623 98.7965 667.758 96.7415 671.034C94.6865 674.31 91.4175 675.96 89.4409 674.72C87.4643 673.481 87.5285 669.82 89.5847 666.544Z" fill="#8AC27C"/>
<path d="M118.302 694.465C113.04 692.344 110.354 686.703 111.09 684.877C111.88 682.916 117.672 680.848 122.934 682.969C128.196 685.089 131.425 689.382 130.146 692.556C128.867 695.731 123.565 696.585 118.302 694.465Z" fill="#8AC27C"/>
<path d="M93.261 703.563C94.8575 698.048 100.262 694.767 102.176 695.322C104.231 695.917 106.905 701.536 105.308 707.052C103.712 712.567 99.7206 716.256 96.3934 715.293C93.0662 714.328 91.6645 709.077 93.261 703.563Z" fill="#8AC27C"/>
<path d="M75.569 714.577C77.605 707.543 84.4982 703.36 86.9392 704.065C89.5608 704.824 92.9711 711.992 90.9339 719.025C88.898 726.059 83.8068 730.765 79.5637 729.537C75.3219 728.308 73.533 721.611 75.569 714.577Z" fill="#8AC27C"/>
<path d="M85.9486 693.732C82.8601 689.736 83.3353 684.194 84.7216 683.123C86.2111 681.972 91.5897 682.989 94.6781 686.986C97.7666 690.982 98.3166 695.732 95.9052 697.595C93.495 699.457 89.037 697.728 85.9486 693.732Z" fill="#8AC27C"/>
<path d="M89.606 658.871C85.831 658.028 83.3995 654.533 83.6917 653.222C84.0053 651.816 87.6722 649.782 91.446 650.625C95.221 651.467 97.8687 653.996 97.3603 656.273C96.8519 658.55 93.3811 659.713 89.606 658.871Z" fill="#8AC27C"/>
<path d="M84.8154 638.106C81.5274 641.141 76.599 641.15 75.5466 640.009C74.4157 638.783 74.898 633.957 78.186 630.922C81.4739 627.887 85.6243 627.035 87.4548 629.019C89.2853 631.003 88.1034 635.071 84.8154 638.106Z" fill="#8AC27C"/>
<path d="M66.8834 655.8C62.6273 655.412 59.4664 651.924 59.6018 650.448C59.7468 648.862 63.4767 646.115 67.7328 646.503C71.9889 646.891 75.2483 649.287 75.0143 651.855C74.7791 654.422 71.1395 656.189 66.8834 655.8Z" fill="#8AC27C"/>
<path d="M63.1796 635.581C59.363 637.503 54.8361 636.218 54.1685 634.893C53.4522 633.471 55.1627 629.165 58.9793 627.244C62.7959 625.322 66.8299 625.629 67.9904 627.931C69.1509 630.233 66.9974 633.658 63.1796 635.581Z" fill="#8AC27C"/>
<path d="M24.4497 639.18C28.505 641.521 30.0481 646.443 29.2356 647.85C28.3625 649.361 23.3901 650.381 19.3348 648.04C15.2794 645.699 13.1366 641.817 14.5489 639.371C15.9613 636.924 20.3944 636.839 24.4497 639.18Z" fill="#8AC27C"/>
<path d="M82.8864 605.029C78.9664 609.512 72.4475 610.226 70.8926 608.866C69.2225 607.405 69.1726 600.95 73.0925 596.467C77.0124 591.984 82.3828 590.267 85.0864 592.631C87.7911 594.994 86.8063 600.546 82.8864 605.029Z" fill="#8AC27C"/>
<path d="M18.5377 615.89C22.9435 618.435 24.6195 623.78 23.7369 625.309C22.789 626.95 17.3866 628.059 12.9797 625.516C8.57393 622.971 6.24575 618.754 7.78046 616.097C9.31636 613.439 14.1319 613.346 18.5377 615.89Z" fill="#8AC27C"/>
<path d="M49.0538 619.401C44.9699 622.434 39.3977 621.85 38.344 620.433C37.2132 618.911 38.3405 613.512 42.4255 610.479C46.5094 607.445 51.3048 606.982 53.1341 609.445C54.9657 611.91 53.1376 616.367 49.0538 619.401Z" fill="#8AC27C"/>
<path d="M41.9027 604.177C38.2322 609.337 31.4116 610.784 29.6215 609.51C27.6983 608.143 26.9607 601.319 30.6312 596.16C34.3016 591.001 39.8002 588.612 42.9124 590.826C46.0258 593.041 45.5732 599.018 41.9027 604.177Z" fill="#8AC27C"/>
<path d="M44.6992 614.148C39.5629 617.009 35.694 622.611 33.9348 628.091C32.9477 631.167 32.5794 634.41 32.6769 637.633C32.7077 638.65 34.2924 638.654 34.2615 637.633C34.0132 629.444 37.3891 621.4 44.0613 616.472C44.5222 616.133 44.9961 615.795 45.4974 615.516C46.3895 615.02 45.5924 613.651 44.6992 614.148Z" fill="#72A265"/>
<path d="M16.0419 621.385C21.8256 624.187 26.8289 629.42 30.0159 634.898C31.7407 637.862 32.9677 641.057 33.7315 644.397C33.9584 645.39 35.486 644.97 35.2591 643.976C33.0936 634.508 26.9667 626.263 18.7669 621.118C18.1421 620.726 17.5054 620.338 16.8414 620.017C15.9279 619.575 15.1237 620.941 16.0419 621.385Z" fill="#72A265"/>
<path d="M21.4113 643.735C26.0249 644.842 29.9959 648.957 31.887 653.254C33.0677 655.936 33.5821 658.864 33.7044 661.779C33.7472 662.794 35.3318 662.8 35.289 661.779C35.0812 656.825 33.7175 651.942 30.5412 648.058C28.6715 645.771 26.2233 643.943 23.5007 642.798C22.9602 642.57 22.4043 642.345 21.8318 642.209C20.8411 641.97 20.4182 643.498 21.4113 643.735Z" fill="#72A265"/>
<path d="M82.0974 762.081C89.2388 757.104 96.1795 751.464 102.109 745.086C104.182 742.857 106.152 740.483 107.693 737.849C108.209 736.967 106.841 736.169 106.326 737.049C103.496 741.886 99.3048 745.921 95.1722 749.645C91.5195 752.937 87.6828 756.026 83.732 758.952C82.9278 759.547 82.12 760.14 81.2992 760.713C80.4665 761.292 81.2576 762.665 82.0974 762.081Z" fill="#72A265"/>
<path d="M117.253 757.717C115.531 754.334 114.215 750.693 113.158 747.053C111.275 740.572 110.098 733.272 112.5 726.771C112.854 725.813 111.322 725.4 110.972 726.349C108.524 732.978 109.642 740.473 111.523 747.1C112.629 750.997 114.045 754.898 115.886 758.516C116.348 759.426 117.715 758.624 117.253 757.717Z" fill="#72A265"/>
<path d="M98.8428 729.799C104.673 725.979 109.853 720.08 112.389 713.581C113.51 710.708 114.038 707.635 113.885 704.552C113.835 703.538 112.25 703.532 112.3 704.552C112.624 711.094 109.582 717.085 105.347 721.891C103.209 724.318 100.759 726.65 98.0422 728.43C97.194 728.988 97.9864 730.36 98.8428 729.799Z" fill="#72A265"/>
<path d="M130.779 732.747C128.474 731.298 126.491 729.16 124.749 727.105C119.937 721.432 116.717 714.563 114.727 707.434C114.453 706.454 112.923 706.87 113.199 707.854C115.818 717.239 120.667 726.713 128.385 732.933C128.898 733.346 129.42 733.764 129.979 734.116C130.846 734.658 131.642 733.289 130.779 732.747Z" fill="#72A265"/>
<path d="M99.1265 709.662C103.318 701.643 105.096 691.44 102.831 682.64C102.577 681.652 101.05 682.071 101.304 683.06C103.459 691.437 101.752 701.224 97.7581 708.863C97.2866 709.764 98.6538 710.567 99.1265 709.662Z" fill="#72A265"/>
<path d="M124.894 690.027C122.372 689.284 119.92 688.202 117.582 687.011C112.982 684.666 108.454 681.561 105.51 677.236C103.696 674.571 102.634 671.534 102.564 668.302C102.542 667.284 100.958 667.28 100.98 668.302C101.227 679.636 112.034 686.77 121.534 690.512C122.499 690.893 123.477 691.261 124.473 691.554C125.452 691.843 125.871 690.314 124.894 690.027Z" fill="#72A265"/>
<path d="M91.9246 670.289C93.9131 668.569 95.5761 666.379 97.0811 664.242C100.929 658.779 103.638 652.565 105.352 646.121C105.615 645.135 104.087 644.713 103.825 645.699C102.143 652.022 99.4877 658.081 95.7127 663.441C94.2837 665.47 92.692 667.534 90.8045 669.168C90.0324 669.836 91.1573 670.953 91.9246 670.289Z" fill="#72A265"/>
<path d="M121.1 666.58C118.515 664.481 116.302 661.788 114.34 659.122C109.384 652.391 105.95 644.673 104.04 636.546C103.807 635.554 102.278 635.973 102.512 636.966C104.451 645.211 107.943 653.09 112.971 659.922C115.014 662.697 117.288 665.514 119.978 667.7C120.765 668.337 121.892 667.222 121.1 666.58Z" fill="#72A265"/>
<path d="M95.6093 641.935C96.0049 638.837 95.8624 635.605 95.4739 632.518C94.7303 626.612 92.7145 620.811 88.6235 616.376C87.931 615.625 86.8132 616.748 87.5034 617.496C93.2942 623.773 95.0867 633.626 94.0247 641.934C93.8964 642.944 95.4822 642.934 95.6093 641.935Z" fill="#72A265"/>
<path d="M123.168 645.147C116.711 642.806 110.341 639.034 105.319 634.367C103.13 632.334 101.195 630.052 99.7123 627.45C99.2075 626.564 97.8379 627.363 98.3451 628.25C103.035 636.476 111.859 642.012 120.349 645.697C121.14 646.04 121.936 646.381 122.747 646.675C123.706 647.023 124.119 645.493 123.168 645.147Z" fill="#72A265"/>
<path d="M80.5936 614.308C84.6062 615.788 88.8065 616.891 93.0056 617.682C98.7572 618.766 106.205 619.837 111.392 616.379C112.237 615.816 111.445 614.444 110.593 615.012C105.517 618.396 97.9934 617.093 92.4128 615.956C88.5606 615.172 84.7084 614.143 81.0154 612.781C80.0568 612.427 79.6434 613.957 80.5936 614.308Z" fill="#72A265"/>
<path d="M76.8164 599.948C76.6561 601 76.2272 601.724 75.682 602.646C74.1093 605.306 71.7609 607.494 69.289 609.308C66.9109 611.053 64.3356 612.507 61.6831 613.79C60.7661 614.234 61.5679 615.6 62.4825 615.158C66.7267 613.106 70.8819 610.578 74.1722 607.157C75.7711 605.494 77.2072 603.584 78.034 601.412C78.1611 601.077 78.2894 600.725 78.344 600.368C78.4961 599.372 76.9696 598.942 76.8164 599.948Z" fill="#72A265"/>
<path d="M61.683 629.858C59.3596 630.886 57.1538 632.266 55.075 633.714C50.6728 636.778 46.6792 640.545 43.7915 645.092C41.8993 648.073 40.5499 651.376 39.8953 654.848C39.7077 655.845 41.2341 656.271 41.4229 655.27C43.3508 645.057 51.3926 637.25 60.1947 632.392C60.943 631.978 61.7009 631.572 62.4837 631.226C63.4126 630.814 62.6072 629.448 61.683 629.858Z" fill="#72A265"/>
<path d="M92.1016 691.612C89.9943 689.613 88.0819 687.353 86.3453 685.03C83.2058 680.83 80.2444 675.912 79.7479 670.581C79.6541 669.575 78.0695 669.564 78.1633 670.581C78.68 676.127 81.5594 681.21 84.8141 685.611C86.6731 688.124 88.7079 690.576 90.9814 692.732C91.7215 693.434 92.8428 692.315 92.1016 691.612Z" fill="#72A265"/>
<path d="M51.0446 657.316C51.9557 655.746 53.3633 654.347 54.8505 653.242C58.3856 650.616 62.7213 649.872 66.994 650.813C67.9871 651.032 68.4123 649.505 67.4145 649.286C63.6526 648.456 59.7801 648.733 56.314 650.478C54.1058 651.59 52.1505 653.236 50.6229 655.179C50.2868 655.606 49.9494 656.045 49.6762 656.516C49.1643 657.399 50.5327 658.197 51.0446 657.316Z" fill="#72A265"/>
<path d="M65.818 643.087C67.361 642.952 68.9029 642.683 70.415 642.354C73.159 641.755 75.9813 640.896 78.3534 639.354C79.6244 638.529 80.7802 637.478 81.487 636.12C81.9574 635.217 80.5914 634.415 80.1198 635.32C78.945 637.574 76.4149 638.817 74.1271 639.651C71.8927 640.465 69.549 640.99 67.1983 641.334C66.7742 641.396 66.3288 641.458 65.818 641.503C64.8107 641.591 64.8012 643.176 65.818 643.087Z" fill="#72A265"/>
<path d="M76.8959 647.125C77.5789 648.235 78.4116 649.273 79.2728 650.247C80.9453 652.139 82.9456 653.889 85.2738 654.917C86.7088 655.552 88.2352 655.915 89.8114 655.85C90.8271 655.808 90.833 654.224 89.8114 654.265C85.2726 654.451 81.4335 650.748 78.9675 647.354C78.7228 647.018 78.4817 646.677 78.2643 646.323C77.7297 645.458 76.359 646.253 76.8959 647.125Z" fill="#72A265"/>
<path d="M32.476 636.831C33.9477 642.919 34.31 649.308 34.1188 655.553C34.013 658.989 33.7802 662.485 33.1459 665.872H34.7436C36.2343 657.666 36.0882 648.918 34.8422 640.725C33.5878 632.475 29.0454 624.533 29.6061 616.058C30.0242 609.736 33.5438 604.213 37.5445 599.509C38.2014 598.737 37.086 597.611 36.4244 598.389C32.8775 602.559 29.6821 607.276 28.4943 612.704C27.6224 616.687 27.9787 620.728 28.9457 624.658C29.9577 628.762 31.4829 632.72 32.476 636.831Z" fill="#72A265"/>
<path d="M115.427 712.429C115.175 707.415 113.493 702.642 111.281 698.178C109.138 693.852 106.468 689.821 104.231 685.546C103.287 683.74 102.397 681.915 102.041 679.894C101.675 677.813 101.739 675.658 101.908 673.561C102.74 663.205 106.227 653.091 105.205 642.601C104.292 633.212 99.0187 624.45 91.7134 618.586C83.7832 612.219 73.4738 609.763 63.6977 613.03C55.5989 615.737 49.6335 621.415 45.912 629.02C40.6794 639.712 39.2065 653.794 39.7767 665.594C39.7814 665.687 39.7874 665.781 39.7921 665.875H41.3803C40.7365 656.095 41.9113 644.503 45.0448 635.286C47.4586 628.185 51.5175 621.286 58.0875 617.324C67.3647 611.732 78.6351 611.847 87.7447 617.668C95.7295 622.77 101.975 631.54 103.422 640.982C104.992 651.229 101.721 661.436 100.527 671.538C100.085 675.279 99.8288 679.344 101.246 682.919C102.86 686.995 105.352 690.713 107.512 694.509C109.943 698.783 112.184 703.228 113.246 708.063C114.328 712.987 113.882 717.907 112.319 722.67C109.449 731.415 104.937 739.563 101.634 748.147C98.0743 757.4 95.391 767.442 96.8568 777.417C97.2167 779.865 97.8463 782.253 98.7146 784.57C99.0698 785.516 100.601 785.106 100.242 784.148C92.6458 763.9 105.946 744.046 112.904 725.735C114.531 721.456 115.659 717.046 115.427 712.429Z" fill="#72A265"/>
<path d="M87.0129 701.659C85.8892 697.339 83.4505 693.607 81.3171 689.744C79.4593 686.38 79.3144 682.468 79.3049 678.699C79.2943 674.163 79.6791 669.629 80.1269 665.119C80.8194 658.154 82.3126 650.102 76.8187 644.542C70.4791 638.128 60.1198 641.883 54.9764 647.858C51.2549 652.182 47.5784 659.874 45.9427 665.87H47.6034C48.9742 661.253 51.6563 655.42 53.9157 651.921C55.9908 648.708 58.7384 645.741 62.2913 644.174C66.2896 642.411 71.4164 642.053 74.9597 644.982C80.7553 649.774 79.2741 657.883 78.6124 664.411C78.1895 668.58 77.8201 672.762 77.7357 676.953C77.6645 680.536 77.655 684.373 78.7288 687.83C79.963 691.803 82.878 695.163 84.4567 699.019C86.8514 704.867 86.3822 710.794 83.6014 716.432C83.1524 717.343 84.5172 718.147 84.9698 717.231C87.3895 712.331 88.4074 707.018 87.0129 701.659Z" fill="#72A265"/>
<line x1="235.299" y1="53.4404" x2="309.299" y2="-53.5597" stroke="url(#paint1_linear_1248_2000)" stroke-width="9"/>
<line x1="225.299" y1="43.4404" x2="299.299" y2="-63.5597" stroke="url(#paint2_linear_1248_2000)" stroke-width="9"/>
<line x1="213.299" y1="33.4404" x2="287.299" y2="-73.5597" stroke="url(#paint3_linear_1248_2000)" stroke-width="9"/>
<line x1="201.299" y1="23.4404" x2="275.299" y2="-83.5597" stroke="url(#paint4_linear_1248_2000)" stroke-width="9"/>
<line x1="189.299" y1="13.4404" x2="263.299" y2="-93.5597" stroke="url(#paint5_linear_1248_2000)" stroke-width="9"/>
<line x1="177.299" y1="3.44035" x2="251.299" y2="-103.56" stroke="url(#paint6_linear_1248_2000)" stroke-width="9"/>
<line x1="247.299" y1="63.4404" x2="321.299" y2="-43.5597" stroke="url(#paint7_linear_1248_2000)" stroke-width="9"/>
<line x1="259.299" y1="73.4404" x2="333.299" y2="-33.5597" stroke="url(#paint8_linear_1248_2000)" stroke-width="9"/>
<line x1="271.299" y1="83.4404" x2="345.299" y2="-23.5597" stroke="url(#paint9_linear_1248_2000)" stroke-width="9"/>
<line x1="283.299" y1="93.4404" x2="357.299" y2="-13.5597" stroke="url(#paint10_linear_1248_2000)" stroke-width="9"/>
<line x1="295.299" y1="103.44" x2="369.299" y2="-3.55966" stroke="url(#paint11_linear_1248_2000)" stroke-width="9"/>
<line x1="307.299" y1="113.44" x2="381.299" y2="6.44034" stroke="url(#paint12_linear_1248_2000)" stroke-width="9"/>
<line x1="319.299" y1="123.44" x2="393.299" y2="16.4403" stroke="url(#paint13_linear_1248_2000)" stroke-width="9"/>
<line x1="331.299" y1="133.44" x2="405.299" y2="26.4403" stroke="url(#paint14_linear_1248_2000)" stroke-width="9"/>
<line x1="343.299" y1="143.44" x2="417.299" y2="36.4403" stroke="url(#paint15_linear_1248_2000)" stroke-width="9"/>
<line x1="355.299" y1="153.44" x2="429.299" y2="46.4403" stroke="url(#paint16_linear_1248_2000)" stroke-width="9"/>
<line x1="325" y1="278.5" x2="358" y2="278.5" stroke="url(#paint17_linear_1248_2000)" stroke-width="9"/>
<line x1="325" y1="301.559" x2="358" y2="301.559" stroke="url(#paint18_linear_1248_2000)" stroke-width="9"/>
<line x1="325" y1="324.618" x2="358" y2="324.618" stroke="url(#paint19_linear_1248_2000)" stroke-width="9"/>
<line x1="325" y1="347.677" x2="358" y2="347.677" stroke="url(#paint20_linear_1248_2000)" stroke-width="9"/>
<line x1="325" y1="370.735" x2="358" y2="370.735" stroke="url(#paint21_linear_1248_2000)" stroke-width="9"/>
<line x1="325" y1="393.795" x2="358" y2="393.795" stroke="url(#paint22_linear_1248_2000)" stroke-width="9"/>
<line x1="325" y1="416.854" x2="358" y2="416.854" stroke="url(#paint23_linear_1248_2000)" stroke-width="9"/>
<line x1="325" y1="439.911" x2="358" y2="439.911" stroke="url(#paint24_linear_1248_2000)" stroke-width="9"/>
<line x1="325" y1="462.97" x2="358" y2="462.97" stroke="url(#paint25_linear_1248_2000)" stroke-width="9"/>
<line x1="325" y1="486.029" x2="358" y2="486.029" stroke="url(#paint26_linear_1248_2000)" stroke-width="9"/>
<line x1="325" y1="509.088" x2="358" y2="509.088" stroke="url(#paint27_linear_1248_2000)" stroke-width="9"/>
<line x1="325" y1="532.146" x2="358" y2="532.146" stroke="url(#paint28_linear_1248_2000)" stroke-width="9"/>
<line x1="325" y1="555.206" x2="358" y2="555.206" stroke="url(#paint29_linear_1248_2000)" stroke-width="9"/>
<line x1="325" y1="578.265" x2="358" y2="578.265" stroke="url(#paint30_linear_1248_2000)" stroke-width="9"/>
<line x1="325" y1="601.323" x2="358" y2="601.323" stroke="url(#paint31_linear_1248_2000)" stroke-width="9"/>
<line x1="325" y1="624.383" x2="358" y2="624.383" stroke="url(#paint32_linear_1248_2000)" stroke-width="9"/>
<line x1="325" y1="647.441" x2="358" y2="647.441" stroke="url(#paint33_linear_1248_2000)" stroke-width="9"/>
<line x1="325" y1="670.5" x2="358" y2="670.5" stroke="url(#paint34_linear_1248_2000)" stroke-width="9"/>
<line y1="181.5" x2="37" y2="181.5" stroke="url(#paint35_linear_1248_2000)" stroke-width="9"/>
<line y1="200.9" x2="37" y2="200.9" stroke="url(#paint36_linear_1248_2000)" stroke-width="9"/>
<line y1="220.301" x2="37" y2="220.301" stroke="url(#paint37_linear_1248_2000)" stroke-width="9"/>
<line y1="239.7" x2="37" y2="239.7" stroke="url(#paint38_linear_1248_2000)" stroke-width="9"/>
<line y1="259.101" x2="37" y2="259.101" stroke="url(#paint39_linear_1248_2000)" stroke-width="9"/>
<line y1="278.5" x2="37" y2="278.5" stroke="url(#paint40_linear_1248_2000)" stroke-width="9"/>
<line y1="297.899" x2="37" y2="297.899" stroke="url(#paint41_linear_1248_2000)" stroke-width="9"/>
<line y1="317.3" x2="37" y2="317.3" stroke="url(#paint42_linear_1248_2000)" stroke-width="9"/>
<line y1="336.7" x2="37" y2="336.7" stroke="url(#paint43_linear_1248_2000)" stroke-width="9"/>
<line y1="356.1" x2="37" y2="356.1" stroke="url(#paint44_linear_1248_2000)" stroke-width="9"/>
<line y1="375.5" x2="37" y2="375.5" stroke="url(#paint45_linear_1248_2000)" stroke-width="9"/>
<line y1="394.9" x2="37" y2="394.9" stroke="url(#paint46_linear_1248_2000)" stroke-width="9"/>
<line y1="414.301" x2="37" y2="414.301" stroke="url(#paint47_linear_1248_2000)" stroke-width="9"/>
<line y1="433.699" x2="37" y2="433.699" stroke="url(#paint48_linear_1248_2000)" stroke-width="9"/>
<line y1="453.1" x2="37" y2="453.1" stroke="url(#paint49_linear_1248_2000)" stroke-width="9"/>
<line y1="472.5" x2="37" y2="472.5" stroke="url(#paint50_linear_1248_2000)" stroke-width="9"/>
<line y1="491.9" x2="37" y2="491.9" stroke="url(#paint51_linear_1248_2000)" stroke-width="9"/>
<line y1="511.3" x2="37" y2="511.3" stroke="url(#paint52_linear_1248_2000)" stroke-width="9"/>
<line y1="530.7" x2="37" y2="530.7" stroke="url(#paint53_linear_1248_2000)" stroke-width="9"/>
<line y1="550.101" x2="37" y2="550.101" stroke="url(#paint54_linear_1248_2000)" stroke-width="9"/>
<line y1="569.5" x2="37" y2="569.5" stroke="url(#paint55_linear_1248_2000)" stroke-width="9"/>
<line y1="588.899" x2="37" y2="588.899" stroke="url(#paint56_linear_1248_2000)" stroke-width="9"/>
<line y1="608.3" x2="37" y2="608.3" stroke="url(#paint57_linear_1248_2000)" stroke-width="9"/>
<line y1="627.7" x2="37" y2="627.7" stroke="url(#paint58_linear_1248_2000)" stroke-width="9"/>
<line y1="647.1" x2="37" y2="647.1" stroke="url(#paint59_linear_1248_2000)" stroke-width="9"/>
<line y1="666.5" x2="37" y2="666.5" stroke="url(#paint60_linear_1248_2000)" stroke-width="9"/>
<line x1="1.59329" y1="174.711" x2="-105.276" y2="71.6732" stroke="url(#paint61_linear_1248_2000)" stroke-width="9"/>
<line x1="14.7544" y1="162.087" x2="-92.1145" y2="59.0492" stroke="url(#paint62_linear_1248_2000)" stroke-width="9"/>
<line x1="27.9154" y1="149.463" x2="-78.9535" y2="46.4252" stroke="url(#paint63_linear_1248_2000)" stroke-width="9"/>
<line x1="41.0764" y1="136.839" x2="-65.7924" y2="33.8012" stroke="url(#paint64_linear_1248_2000)" stroke-width="9"/>
<line x1="54.2377" y1="124.215" x2="-52.6312" y2="21.1771" stroke="url(#paint65_linear_1248_2000)" stroke-width="9"/>
<line x1="67.3986" y1="111.591" x2="-39.4703" y2="8.55311" stroke="url(#paint66_linear_1248_2000)" stroke-width="9"/>
<line x1="80.5597" y1="98.9671" x2="-26.3092" y2="-4.07091" stroke="url(#paint67_linear_1248_2000)" stroke-width="9"/>
<line x1="93.7206" y1="86.343" x2="-13.1483" y2="-16.6949" stroke="url(#paint68_linear_1248_2000)" stroke-width="9"/>
<line x1="106.882" y1="73.719" x2="0.0128499" y2="-29.319" stroke="url(#paint69_linear_1248_2000)" stroke-width="9"/>
<line x1="120.043" y1="61.095" x2="13.174" y2="-41.943" stroke="url(#paint70_linear_1248_2000)" stroke-width="9"/>
<line x1="133.204" y1="48.471" x2="26.335" y2="-54.567" stroke="url(#paint71_linear_1248_2000)" stroke-width="9"/>
<line x1="146.365" y1="35.8479" x2="39.4961" y2="-67.19" stroke="url(#paint72_linear_1248_2000)" stroke-width="9"/>
<line x1="159.526" y1="23.2239" x2="52.6573" y2="-79.8141" stroke="url(#paint73_linear_1248_2000)" stroke-width="9"/>
<line x1="172.687" y1="10.5999" x2="65.8181" y2="-92.4381" stroke="url(#paint74_linear_1248_2000)" stroke-width="9"/>
<line x1="7.88199" y1="798.214" x2="2.61066" y2="668.224" stroke="url(#paint75_linear_1248_2000)" stroke-width="9"/>
<line x1="22.882" y1="798.182" x2="17.6107" y2="668.193" stroke="url(#paint76_linear_1248_2000)" stroke-width="9"/>
<line x1="37.882" y1="798.15" x2="32.6107" y2="668.161" stroke="url(#paint77_linear_1248_2000)" stroke-width="9"/>
<line x1="52.8819" y1="798.119" x2="47.6105" y2="668.13" stroke="url(#paint78_linear_1248_2000)" stroke-width="9"/>
<line x1="67.8819" y1="798.088" x2="62.6105" y2="668.098" stroke="url(#paint79_linear_1248_2000)" stroke-width="9"/>
<line x1="82.8819" y1="798.056" x2="77.6105" y2="668.067" stroke="url(#paint80_linear_1248_2000)" stroke-width="9"/>
<line x1="97.8817" y1="798.025" x2="92.6104" y2="668.036" stroke="url(#paint81_linear_1248_2000)" stroke-width="9"/>
<line x1="112.882" y1="797.994" x2="107.61" y2="668.005" stroke="url(#paint82_linear_1248_2000)" stroke-width="9"/>
<line x1="127.882" y1="797.963" x2="122.61" y2="667.973" stroke="url(#paint83_linear_1248_2000)" stroke-width="9"/>
<line x1="142.882" y1="797.931" x2="137.61" y2="667.942" stroke="url(#paint84_linear_1248_2000)" stroke-width="9"/>
<line x1="157.882" y1="797.9" x2="152.61" y2="667.911" stroke="url(#paint85_linear_1248_2000)" stroke-width="9"/>
<line x1="172.882" y1="797.869" x2="167.61" y2="667.88" stroke="url(#paint86_linear_1248_2000)" stroke-width="9"/>
<line x1="187.882" y1="797.838" x2="182.61" y2="667.848" stroke="url(#paint87_linear_1248_2000)" stroke-width="9"/>
<line x1="202.882" y1="797.806" x2="197.61" y2="667.817" stroke="url(#paint88_linear_1248_2000)" stroke-width="9"/>
<line x1="217.882" y1="797.775" x2="212.61" y2="667.786" stroke="url(#paint89_linear_1248_2000)" stroke-width="9"/>
<line x1="232.882" y1="797.744" x2="227.61" y2="667.755" stroke="url(#paint90_linear_1248_2000)" stroke-width="9"/>
<line x1="247.882" y1="797.713" x2="242.61" y2="667.723" stroke="url(#paint91_linear_1248_2000)" stroke-width="9"/>
<line x1="262.881" y1="797.681" x2="257.61" y2="667.692" stroke="url(#paint92_linear_1248_2000)" stroke-width="9"/>
<line x1="277.881" y1="797.65" x2="272.61" y2="667.661" stroke="url(#paint93_linear_1248_2000)" stroke-width="9"/>
<line x1="292.881" y1="797.618" x2="287.61" y2="667.629" stroke="url(#paint94_linear_1248_2000)" stroke-width="9"/>
<line x1="307.881" y1="797.587" x2="302.61" y2="667.597" stroke="url(#paint95_linear_1248_2000)" stroke-width="9"/>
<line x1="322.881" y1="797.555" x2="317.61" y2="667.566" stroke="url(#paint96_linear_1248_2000)" stroke-width="9"/>
<line x1="337.881" y1="797.524" x2="332.61" y2="667.535" stroke="url(#paint97_linear_1248_2000)" stroke-width="9"/>
<line x1="352.881" y1="797.493" x2="347.61" y2="667.504" stroke="url(#paint98_linear_1248_2000)" stroke-width="9"/>
<line x1="367.881" y1="797.462" x2="362.61" y2="667.472" stroke="url(#paint99_linear_1248_2000)" stroke-width="9"/>
</g>
<defs>
<linearGradient id="paint0_linear_1248_2000" x1="180" y1="0" x2="180" y2="848.5" gradientUnits="userSpaceOnUse">
<stop stop-color="#2E3C32"/>
<stop offset="1" stop-color="#2C4532"/>
</linearGradient>
<linearGradient id="paint1_linear_1248_2000" x1="313.411" y1="-50.7156" x2="239.411" y2="56.2844" gradientUnits="userSpaceOnUse">
<stop stop-color="#6BB67D"/>
<stop offset="1" stop-color="#073F14"/>
</linearGradient>
<linearGradient id="paint2_linear_1248_2000" x1="303.411" y1="-60.7156" x2="229.411" y2="46.2844" gradientUnits="userSpaceOnUse">
<stop stop-color="#6BB67D"/>
<stop offset="1" stop-color="#073F14"/>
</linearGradient>
<linearGradient id="paint3_linear_1248_2000" x1="291.411" y1="-70.7156" x2="217.411" y2="36.2844" gradientUnits="userSpaceOnUse">
<stop stop-color="#6BB67D"/>
<stop offset="1" stop-color="#073F14"/>
</linearGradient>
<linearGradient id="paint4_linear_1248_2000" x1="279.411" y1="-80.7156" x2="205.411" y2="26.2844" gradientUnits="userSpaceOnUse">
<stop stop-color="#6BB67D"/>
<stop offset="1" stop-color="#073F14"/>
</linearGradient>
<linearGradient id="paint5_linear_1248_2000" x1="267.411" y1="-90.7156" x2="193.411" y2="16.2844" gradientUnits="userSpaceOnUse">
<stop stop-color="#6BB67D"/>
<stop offset="1" stop-color="#073F14"/>
</linearGradient>
<linearGradient id="paint6_linear_1248_2000" x1="255.411" y1="-100.716" x2="181.411" y2="6.28441" gradientUnits="userSpaceOnUse">
<stop stop-color="#6BB67D"/>
<stop offset="1" stop-color="#073F14"/>
</linearGradient>
<linearGradient id="paint7_linear_1248_2000" x1="325.411" y1="-40.7156" x2="251.411" y2="66.2844" gradientUnits="userSpaceOnUse">
<stop stop-color="#6BB67D"/>
<stop offset="1" stop-color="#073F14"/>
</linearGradient>
<linearGradient id="paint8_linear_1248_2000" x1="337.411" y1="-30.7156" x2="263.411" y2="76.2844" gradientUnits="userSpaceOnUse">
<stop stop-color="#6BB67D"/>
<stop offset="1" stop-color="#073F14"/>
</linearGradient>
<linearGradient id="paint9_linear_1248_2000" x1="349.411" y1="-20.7156" x2="275.411" y2="86.2844" gradientUnits="userSpaceOnUse">
<stop stop-color="#6BB67D"/>
<stop offset="1" stop-color="#073F14"/>
</linearGradient>
<linearGradient id="paint10_linear_1248_2000" x1="361.411" y1="-10.7156" x2="287.411" y2="96.2844" gradientUnits="userSpaceOnUse">
<stop stop-color="#6BB67D"/>
<stop offset="1" stop-color="#073F14"/>
</linearGradient>
<linearGradient id="paint11_linear_1248_2000" x1="373.411" y1="-0.715605" x2="299.411" y2="106.284" gradientUnits="userSpaceOnUse">
<stop stop-color="#6BB67D"/>
<stop offset="1" stop-color="#073F14"/>
</linearGradient>
<linearGradient id="paint12_linear_1248_2000" x1="385.411" y1="9.28439" x2="311.411" y2="116.284" gradientUnits="userSpaceOnUse">
<stop stop-color="#6BB67D"/>
<stop offset="1" stop-color="#073F14"/>
</linearGradient>
<linearGradient id="paint13_linear_1248_2000" x1="397.411" y1="19.2844" x2="323.411" y2="126.284" gradientUnits="userSpaceOnUse">
<stop stop-color="#6BB67D"/>
<stop offset="1" stop-color="#073F14"/>
</linearGradient>
<linearGradient id="paint14_linear_1248_2000" x1="409.411" y1="29.2844" x2="335.411" y2="136.284" gradientUnits="userSpaceOnUse">
<stop stop-color="#6BB67D"/>
<stop offset="1" stop-color="#073F14"/>
</linearGradient>
<linearGradient id="paint15_linear_1248_2000" x1="421.411" y1="39.2844" x2="347.411" y2="146.284" gradientUnits="userSpaceOnUse">
<stop stop-color="#6BB67D"/>
<stop offset="1" stop-color="#073F14"/>
</linearGradient>
<linearGradient id="paint16_linear_1248_2000" x1="433.411" y1="49.2844" x2="359.411" y2="156.284" gradientUnits="userSpaceOnUse">
<stop stop-color="#6BB67D"/>
<stop offset="1" stop-color="#073F14"/>
</linearGradient>
<linearGradient id="paint17_linear_1248_2000" x1="358" y1="283.5" x2="325" y2="283.5" gradientUnits="userSpaceOnUse">
<stop stop-color="#6BB67D"/>
<stop offset="1" stop-color="#073F14"/>
</linearGradient>
<linearGradient id="paint18_linear_1248_2000" x1="358" y1="306.559" x2="325" y2="306.559" gradientUnits="userSpaceOnUse">
<stop stop-color="#6BB67D"/>
<stop offset="1" stop-color="#073F14"/>
</linearGradient>
<linearGradient id="paint19_linear_1248_2000" x1="358" y1="329.618" x2="325" y2="329.618" gradientUnits="userSpaceOnUse">
<stop stop-color="#6BB67D"/>
<stop offset="1" stop-color="#073F14"/>
</linearGradient>
<linearGradient id="paint20_linear_1248_2000" x1="358" y1="352.677" x2="325" y2="352.677" gradientUnits="userSpaceOnUse">
<stop stop-color="#6BB67D"/>
<stop offset="1" stop-color="#073F14"/>
</linearGradient>
<linearGradient id="paint21_linear_1248_2000" x1="358" y1="375.735" x2="325" y2="375.735" gradientUnits="userSpaceOnUse">
<stop stop-color="#6BB67D"/>
<stop offset="1" stop-color="#073F14"/>
</linearGradient>
<linearGradient id="paint22_linear_1248_2000" x1="358" y1="398.795" x2="325" y2="398.795" gradientUnits="userSpaceOnUse">
<stop stop-color="#6BB67D"/>
<stop offset="1" stop-color="#073F14"/>
</linearGradient>
<linearGradient id="paint23_linear_1248_2000" x1="358" y1="421.854" x2="325" y2="421.854" gradientUnits="userSpaceOnUse">
<stop stop-color="#6BB67D"/>
<stop offset="1" stop-color="#073F14"/>
</linearGradient>
<linearGradient id="paint24_linear_1248_2000" x1="358" y1="444.911" x2="325" y2="444.911" gradientUnits="userSpaceOnUse">
<stop stop-color="#6BB67D"/>
<stop offset="1" stop-color="#073F14"/>
</linearGradient>
<linearGradient id="paint25_linear_1248_2000" x1="358" y1="467.97" x2="325" y2="467.97" gradientUnits="userSpaceOnUse">
<stop stop-color="#6BB67D"/>
<stop offset="1" stop-color="#073F14"/>
</linearGradient>
<linearGradient id="paint26_linear_1248_2000" x1="358" y1="491.029" x2="325" y2="491.029" gradientUnits="userSpaceOnUse">
<stop stop-color="#6BB67D"/>
<stop offset="1" stop-color="#073F14"/>
</linearGradient>
<linearGradient id="paint27_linear_1248_2000" x1="358" y1="514.088" x2="325" y2="514.088" gradientUnits="userSpaceOnUse">
<stop stop-color="#6BB67D"/>
<stop offset="1" stop-color="#073F14"/>
</linearGradient>
<linearGradient id="paint28_linear_1248_2000" x1="358" y1="537.146" x2="325" y2="537.146" gradientUnits="userSpaceOnUse">
<stop stop-color="#6BB67D"/>
<stop offset="1" stop-color="#073F14"/>
</linearGradient>
<linearGradient id="paint29_linear_1248_2000" x1="358" y1="560.206" x2="325" y2="560.206" gradientUnits="userSpaceOnUse">
<stop stop-color="#6BB67D"/>
<stop offset="1" stop-color="#073F14"/>
</linearGradient>
<linearGradient id="paint30_linear_1248_2000" x1="358" y1="583.265" x2="325" y2="583.265" gradientUnits="userSpaceOnUse">
<stop stop-color="#6BB67D"/>
<stop offset="1" stop-color="#073F14"/>
</linearGradient>
<linearGradient id="paint31_linear_1248_2000" x1="358" y1="606.323" x2="325" y2="606.323" gradientUnits="userSpaceOnUse">
<stop stop-color="#6BB67D"/>
<stop offset="1" stop-color="#073F14"/>
</linearGradient>
<linearGradient id="paint32_linear_1248_2000" x1="358" y1="629.383" x2="325" y2="629.383" gradientUnits="userSpaceOnUse">
<stop stop-color="#6BB67D"/>
<stop offset="1" stop-color="#073F14"/>
</linearGradient>
<linearGradient id="paint33_linear_1248_2000" x1="358" y1="652.441" x2="325" y2="652.441" gradientUnits="userSpaceOnUse">
<stop stop-color="#6BB67D"/>
<stop offset="1" stop-color="#073F14"/>
</linearGradient>
<linearGradient id="paint34_linear_1248_2000" x1="358" y1="675.5" x2="325" y2="675.5" gradientUnits="userSpaceOnUse">
<stop stop-color="#6BB67D"/>
<stop offset="1" stop-color="#073F14"/>
</linearGradient>
<linearGradient id="paint35_linear_1248_2000" x1="37" y1="186.5" x2="0" y2="186.5" gradientUnits="userSpaceOnUse">
<stop stop-color="#6BB67D"/>
<stop offset="1" stop-color="#073F14"/>
</linearGradient>
<linearGradient id="paint36_linear_1248_2000" x1="37" y1="205.9" x2="0" y2="205.9" gradientUnits="userSpaceOnUse">
<stop stop-color="#6BB67D"/>
<stop offset="1" stop-color="#073F14"/>
</linearGradient>
<linearGradient id="paint37_linear_1248_2000" x1="37" y1="225.301" x2="0" y2="225.301" gradientUnits="userSpaceOnUse">
<stop stop-color="#6BB67D"/>
<stop offset="1" stop-color="#073F14"/>
</linearGradient>
<linearGradient id="paint38_linear_1248_2000" x1="37" y1="244.7" x2="0" y2="244.7" gradientUnits="userSpaceOnUse">
<stop stop-color="#6BB67D"/>
<stop offset="1" stop-color="#073F14"/>
</linearGradient>
<linearGradient id="paint39_linear_1248_2000" x1="37" y1="264.101" x2="0" y2="264.101" gradientUnits="userSpaceOnUse">
<stop stop-color="#6BB67D"/>
<stop offset="1" stop-color="#073F14"/>
</linearGradient>
<linearGradient id="paint40_linear_1248_2000" x1="37" y1="283.5" x2="0" y2="283.5" gradientUnits="userSpaceOnUse">
<stop stop-color="#6BB67D"/>
<stop offset="1" stop-color="#073F14"/>
</linearGradient>
<linearGradient id="paint41_linear_1248_2000" x1="37" y1="302.899" x2="0" y2="302.899" gradientUnits="userSpaceOnUse">
<stop stop-color="#6BB67D"/>
<stop offset="1" stop-color="#073F14"/>
</linearGradient>
<linearGradient id="paint42_linear_1248_2000" x1="37" y1="322.3" x2="0" y2="322.3" gradientUnits="userSpaceOnUse">
<stop stop-color="#6BB67D"/>
<stop offset="1" stop-color="#073F14"/>
</linearGradient>
<linearGradient id="paint43_linear_1248_2000" x1="37" y1="341.7" x2="0" y2="341.7" gradientUnits="userSpaceOnUse">
<stop stop-color="#6BB67D"/>
<stop offset="1" stop-color="#073F14"/>
</linearGradient>
<linearGradient id="paint44_linear_1248_2000" x1="37" y1="361.1" x2="0" y2="361.1" gradientUnits="userSpaceOnUse">
<stop stop-color="#6BB67D"/>
<stop offset="1" stop-color="#073F14"/>
</linearGradient>
<linearGradient id="paint45_linear_1248_2000" x1="37" y1="380.5" x2="0" y2="380.5" gradientUnits="userSpaceOnUse">
<stop stop-color="#6BB67D"/>
<stop offset="1" stop-color="#073F14"/>
</linearGradient>
<linearGradient id="paint46_linear_1248_2000" x1="37" y1="399.9" x2="0" y2="399.9" gradientUnits="userSpaceOnUse">
<stop stop-color="#6BB67D"/>
<stop offset="1" stop-color="#073F14"/>
</linearGradient>
<linearGradient id="paint47_linear_1248_2000" x1="37" y1="419.301" x2="0" y2="419.301" gradientUnits="userSpaceOnUse">
<stop stop-color="#6BB67D"/>
<stop offset="1" stop-color="#073F14"/>
</linearGradient>
<linearGradient id="paint48_linear_1248_2000" x1="37" y1="438.699" x2="0" y2="438.699" gradientUnits="userSpaceOnUse">
<stop stop-color="#6BB67D"/>
<stop offset="1" stop-color="#073F14"/>
</linearGradient>
<linearGradient id="paint49_linear_1248_2000" x1="37" y1="458.1" x2="0" y2="458.1" gradientUnits="userSpaceOnUse">
<stop stop-color="#6BB67D"/>
<stop offset="1" stop-color="#073F14"/>
</linearGradient>
<linearGradient id="paint50_linear_1248_2000" x1="37" y1="477.5" x2="0" y2="477.5" gradientUnits="userSpaceOnUse">
<stop stop-color="#6BB67D"/>
<stop offset="1" stop-color="#073F14"/>
</linearGradient>
<linearGradient id="paint51_linear_1248_2000" x1="37" y1="496.9" x2="0" y2="496.9" gradientUnits="userSpaceOnUse">
<stop stop-color="#6BB67D"/>
<stop offset="1" stop-color="#073F14"/>
</linearGradient>
<linearGradient id="paint52_linear_1248_2000" x1="37" y1="516.3" x2="0" y2="516.3" gradientUnits="userSpaceOnUse">
<stop stop-color="#6BB67D"/>
<stop offset="1" stop-color="#073F14"/>
</linearGradient>
<linearGradient id="paint53_linear_1248_2000" x1="37" y1="535.7" x2="0" y2="535.7" gradientUnits="userSpaceOnUse">
<stop stop-color="#6BB67D"/>
<stop offset="1" stop-color="#073F14"/>
</linearGradient>
<linearGradient id="paint54_linear_1248_2000" x1="37" y1="555.101" x2="0" y2="555.101" gradientUnits="userSpaceOnUse">
<stop stop-color="#6BB67D"/>
<stop offset="1" stop-color="#073F14"/>
</linearGradient>
<linearGradient id="paint55_linear_1248_2000" x1="37" y1="574.5" x2="0" y2="574.5" gradientUnits="userSpaceOnUse">
<stop stop-color="#6BB67D"/>
<stop offset="1" stop-color="#073F14"/>
</linearGradient>
<linearGradient id="paint56_linear_1248_2000" x1="37" y1="593.899" x2="0" y2="593.899" gradientUnits="userSpaceOnUse">
<stop stop-color="#6BB67D"/>
<stop offset="1" stop-color="#073F14"/>
</linearGradient>
<linearGradient id="paint57_linear_1248_2000" x1="37" y1="613.3" x2="0" y2="613.3" gradientUnits="userSpaceOnUse">
<stop stop-color="#6BB67D"/>
<stop offset="1" stop-color="#073F14"/>
</linearGradient>
<linearGradient id="paint58_linear_1248_2000" x1="37" y1="632.7" x2="0" y2="632.7" gradientUnits="userSpaceOnUse">
<stop stop-color="#6BB67D"/>
<stop offset="1" stop-color="#073F14"/>
</linearGradient>
<linearGradient id="paint59_linear_1248_2000" x1="37" y1="652.1" x2="0" y2="652.1" gradientUnits="userSpaceOnUse">
<stop stop-color="#6BB67D"/>
<stop offset="1" stop-color="#073F14"/>
</linearGradient>
<linearGradient id="paint60_linear_1248_2000" x1="37" y1="671.5" x2="0" y2="671.5" gradientUnits="userSpaceOnUse">
<stop stop-color="#6BB67D"/>
<stop offset="1" stop-color="#073F14"/>
</linearGradient>
<linearGradient id="paint61_linear_1248_2000" x1="-101.805" y1="68.0738" x2="5.06372" y2="171.112" gradientUnits="userSpaceOnUse">
<stop stop-color="#6BB67D"/>
<stop offset="1" stop-color="#073F14"/>
</linearGradient>
<linearGradient id="paint62_linear_1248_2000" x1="-88.644" y1="55.4497" x2="18.2249" y2="158.488" gradientUnits="userSpaceOnUse">
<stop stop-color="#6BB67D"/>
<stop offset="1" stop-color="#073F14"/>
</linearGradient>
<linearGradient id="paint63_linear_1248_2000" x1="-75.483" y1="42.8257" x2="31.3859" y2="145.864" gradientUnits="userSpaceOnUse">
<stop stop-color="#6BB67D"/>
<stop offset="1" stop-color="#073F14"/>
</linearGradient>
<linearGradient id="paint64_linear_1248_2000" x1="-62.322" y1="30.2017" x2="44.5469" y2="133.24" gradientUnits="userSpaceOnUse">
<stop stop-color="#6BB67D"/>
<stop offset="1" stop-color="#073F14"/>
</linearGradient>
<linearGradient id="paint65_linear_1248_2000" x1="-49.1608" y1="17.5777" x2="57.7081" y2="120.616" gradientUnits="userSpaceOnUse">
<stop stop-color="#6BB67D"/>
<stop offset="1" stop-color="#073F14"/>
</linearGradient>
<linearGradient id="paint66_linear_1248_2000" x1="-35.9999" y1="4.95365" x2="70.869" y2="107.992" gradientUnits="userSpaceOnUse">
<stop stop-color="#6BB67D"/>
<stop offset="1" stop-color="#073F14"/>
</linearGradient>
<linearGradient id="paint67_linear_1248_2000" x1="-22.8387" y1="-7.67037" x2="84.0301" y2="95.3676" gradientUnits="userSpaceOnUse">
<stop stop-color="#6BB67D"/>
<stop offset="1" stop-color="#073F14"/>
</linearGradient>
<linearGradient id="paint68_linear_1248_2000" x1="-9.67785" y1="-20.2944" x2="97.191" y2="82.7436" gradientUnits="userSpaceOnUse">
<stop stop-color="#6BB67D"/>
<stop offset="1" stop-color="#073F14"/>
</linearGradient>
<linearGradient id="paint69_linear_1248_2000" x1="3.48328" y1="-32.9184" x2="110.352" y2="70.1195" gradientUnits="userSpaceOnUse">
<stop stop-color="#6BB67D"/>
<stop offset="1" stop-color="#073F14"/>
</linearGradient>
<linearGradient id="paint70_linear_1248_2000" x1="16.6444" y1="-45.5424" x2="123.513" y2="57.4955" gradientUnits="userSpaceOnUse">
<stop stop-color="#6BB67D"/>
<stop offset="1" stop-color="#073F14"/>
</linearGradient>
<linearGradient id="paint71_linear_1248_2000" x1="29.8054" y1="-58.1665" x2="136.674" y2="44.8715" gradientUnits="userSpaceOnUse">
<stop stop-color="#6BB67D"/>
<stop offset="1" stop-color="#073F14"/>
</linearGradient>
<linearGradient id="paint72_linear_1248_2000" x1="42.9666" y1="-70.7895" x2="149.835" y2="32.2485" gradientUnits="userSpaceOnUse">
<stop stop-color="#6BB67D"/>
<stop offset="1" stop-color="#073F14"/>
</linearGradient>
<linearGradient id="paint73_linear_1248_2000" x1="56.1277" y1="-83.4135" x2="162.997" y2="19.6244" gradientUnits="userSpaceOnUse">
<stop stop-color="#6BB67D"/>
<stop offset="1" stop-color="#073F14"/>
</linearGradient>
<linearGradient id="paint74_linear_1248_2000" x1="69.2886" y1="-96.0376" x2="176.157" y2="7.00041" gradientUnits="userSpaceOnUse">
<stop stop-color="#6BB67D"/>
<stop offset="1" stop-color="#073F14"/>
</linearGradient>
<linearGradient id="paint75_linear_1248_2000" x1="7.60656" y1="668.022" x2="12.8779" y2="798.011" gradientUnits="userSpaceOnUse">
<stop stop-color="#6BB67D"/>
<stop offset="1" stop-color="#073F14"/>
</linearGradient>
<linearGradient id="paint76_linear_1248_2000" x1="22.6066" y1="667.99" x2="27.8779" y2="797.98" gradientUnits="userSpaceOnUse">
<stop stop-color="#6BB67D"/>
<stop offset="1" stop-color="#073F14"/>
</linearGradient>
<linearGradient id="paint77_linear_1248_2000" x1="37.6066" y1="667.958" x2="42.8779" y2="797.948" gradientUnits="userSpaceOnUse">
<stop stop-color="#6BB67D"/>
<stop offset="1" stop-color="#073F14"/>
</linearGradient>
<linearGradient id="paint78_linear_1248_2000" x1="52.6064" y1="667.927" x2="57.8778" y2="797.916" gradientUnits="userSpaceOnUse">
<stop stop-color="#6BB67D"/>
<stop offset="1" stop-color="#073F14"/>
</linearGradient>
<linearGradient id="paint79_linear_1248_2000" x1="67.6064" y1="667.896" x2="72.8778" y2="797.885" gradientUnits="userSpaceOnUse">
<stop stop-color="#6BB67D"/>
<stop offset="1" stop-color="#073F14"/>
</linearGradient>
<linearGradient id="paint80_linear_1248_2000" x1="82.6064" y1="667.864" x2="87.8778" y2="797.854" gradientUnits="userSpaceOnUse">
<stop stop-color="#6BB67D"/>
<stop offset="1" stop-color="#073F14"/>
</linearGradient>
<linearGradient id="paint81_linear_1248_2000" x1="97.6063" y1="667.833" x2="102.878" y2="797.823" gradientUnits="userSpaceOnUse">
<stop stop-color="#6BB67D"/>
<stop offset="1" stop-color="#073F14"/>
</linearGradient>
<linearGradient id="paint82_linear_1248_2000" x1="112.606" y1="667.802" x2="117.878" y2="797.791" gradientUnits="userSpaceOnUse">
<stop stop-color="#6BB67D"/>
<stop offset="1" stop-color="#073F14"/>
</linearGradient>
<linearGradient id="paint83_linear_1248_2000" x1="127.606" y1="667.771" x2="132.878" y2="797.76" gradientUnits="userSpaceOnUse">
<stop stop-color="#6BB67D"/>
<stop offset="1" stop-color="#073F14"/>
</linearGradient>
<linearGradient id="paint84_linear_1248_2000" x1="142.606" y1="667.739" x2="147.878" y2="797.729" gradientUnits="userSpaceOnUse">
<stop stop-color="#6BB67D"/>
<stop offset="1" stop-color="#073F14"/>
</linearGradient>
<linearGradient id="paint85_linear_1248_2000" x1="157.606" y1="667.708" x2="162.878" y2="797.698" gradientUnits="userSpaceOnUse">
<stop stop-color="#6BB67D"/>
<stop offset="1" stop-color="#073F14"/>
</linearGradient>
<linearGradient id="paint86_linear_1248_2000" x1="172.606" y1="667.677" x2="177.878" y2="797.666" gradientUnits="userSpaceOnUse">
<stop stop-color="#6BB67D"/>
<stop offset="1" stop-color="#073F14"/>
</linearGradient>
<linearGradient id="paint87_linear_1248_2000" x1="187.606" y1="667.646" x2="192.878" y2="797.635" gradientUnits="userSpaceOnUse">
<stop stop-color="#6BB67D"/>
<stop offset="1" stop-color="#073F14"/>
</linearGradient>
<linearGradient id="paint88_linear_1248_2000" x1="202.606" y1="667.614" x2="207.878" y2="797.604" gradientUnits="userSpaceOnUse">
<stop stop-color="#6BB67D"/>
<stop offset="1" stop-color="#073F14"/>
</linearGradient>
<linearGradient id="paint89_linear_1248_2000" x1="217.606" y1="667.583" x2="222.877" y2="797.573" gradientUnits="userSpaceOnUse">
<stop stop-color="#6BB67D"/>
<stop offset="1" stop-color="#073F14"/>
</linearGradient>
<linearGradient id="paint90_linear_1248_2000" x1="232.606" y1="667.552" x2="237.877" y2="797.541" gradientUnits="userSpaceOnUse">
<stop stop-color="#6BB67D"/>
<stop offset="1" stop-color="#073F14"/>
</linearGradient>
<linearGradient id="paint91_linear_1248_2000" x1="247.606" y1="667.521" x2="252.877" y2="797.51" gradientUnits="userSpaceOnUse">
<stop stop-color="#6BB67D"/>
<stop offset="1" stop-color="#073F14"/>
</linearGradient>
<linearGradient id="paint92_linear_1248_2000" x1="262.606" y1="667.489" x2="267.877" y2="797.479" gradientUnits="userSpaceOnUse">
<stop stop-color="#6BB67D"/>
<stop offset="1" stop-color="#073F14"/>
</linearGradient>
<linearGradient id="paint93_linear_1248_2000" x1="277.606" y1="667.458" x2="282.877" y2="797.448" gradientUnits="userSpaceOnUse">
<stop stop-color="#6BB67D"/>
<stop offset="1" stop-color="#073F14"/>
</linearGradient>
<linearGradient id="paint94_linear_1248_2000" x1="292.606" y1="667.426" x2="297.877" y2="797.415" gradientUnits="userSpaceOnUse">
<stop stop-color="#6BB67D"/>
<stop offset="1" stop-color="#073F14"/>
</linearGradient>
<linearGradient id="paint95_linear_1248_2000" x1="307.606" y1="667.395" x2="312.877" y2="797.384" gradientUnits="userSpaceOnUse">
<stop stop-color="#6BB67D"/>
<stop offset="1" stop-color="#073F14"/>
</linearGradient>
<linearGradient id="paint96_linear_1248_2000" x1="322.606" y1="667.364" x2="327.877" y2="797.353" gradientUnits="userSpaceOnUse">
<stop stop-color="#6BB67D"/>
<stop offset="1" stop-color="#073F14"/>
</linearGradient>
<linearGradient id="paint97_linear_1248_2000" x1="337.606" y1="667.332" x2="342.877" y2="797.322" gradientUnits="userSpaceOnUse">
<stop stop-color="#6BB67D"/>
<stop offset="1" stop-color="#073F14"/>
</linearGradient>
<linearGradient id="paint98_linear_1248_2000" x1="352.606" y1="667.301" x2="357.877" y2="797.29" gradientUnits="userSpaceOnUse">
<stop stop-color="#6BB67D"/>
<stop offset="1" stop-color="#073F14"/>
</linearGradient>
<linearGradient id="paint99_linear_1248_2000" x1="367.606" y1="667.27" x2="372.877" y2="797.259" gradientUnits="userSpaceOnUse">
<stop stop-color="#6BB67D"/>
<stop offset="1" stop-color="#073F14"/>
</linearGradient>
<clipPath id="clip0_1248_2000">
<rect width="360" height="800" fill="white"/>
</clipPath>
</defs>
</svg>
