<svg width="360" height="800" viewBox="0 0 360 800" fill="none" xmlns="http://www.w3.org/2000/svg">
<g clip-path="url(#clip0_1260_1790)">
<rect width="360" height="800" fill="white"/>
<path d="M360 -9.38379H0.145386V799.997H360V-9.38379Z" fill="#5A593E"/>
<path d="M359.854 -9.39258H0V799.989H359.854V-9.39258Z" fill="#A19954"/>
<path d="M319.42 57.666H48.9835V691.727H319.42V57.666Z" fill="#C8C28D"/>
<path d="M319.42 691.734C319.42 691.734 319.384 690.659 319.366 688.631C319.353 686.537 319.335 683.552 319.311 679.642C319.287 671.676 319.25 660.011 319.202 644.863C319.145 614.474 319.063 570.189 318.96 514.25C318.851 402.445 318.7 244.118 318.518 57.6726L319.417 59.0621C236.794 59.0996 145.24 59.1419 49.0134 59.1888H48.98L49.9602 57.6726C49.8845 296.866 49.815 517.404 49.7606 691.729L48.98 690.518C131.34 690.786 198.847 691.002 245.823 691.152C269.322 691.288 287.672 691.391 300.208 691.462C306.436 691.518 311.21 691.565 314.483 691.598C317.717 691.645 319.42 691.734 319.42 691.734C319.42 691.734 317.829 691.818 314.646 691.865C311.407 691.898 306.684 691.94 300.516 692.001C288.023 692.072 269.73 692.175 246.307 692.311C199.216 692.466 131.543 692.682 48.98 692.95H48.1996V691.738C48.1451 517.413 48.0756 296.875 48 57.682V56.1611H48.98H49.0134C145.24 56.2081 236.794 56.2503 319.417 56.2879H320.315V57.682C320.134 244.498 319.983 403.14 319.874 515.17C319.771 570.973 319.689 615.149 319.632 645.469C319.583 660.495 319.547 672.065 319.523 679.97C319.502 683.81 319.483 686.749 319.471 688.805C319.456 690.771 319.42 691.734 319.42 691.734Z" fill="#5A593E"/>
<path d="M359.991 -9.38406C360.093 -9.16995 357.992 -5.16333 354.483 1.09312C350.975 7.34598 346.052 15.8293 340.512 24.9638C334.967 34.1014 329.858 42.163 326.11 47.8756C322.362 53.5883 319.983 56.9643 319.891 56.7369C319.795 56.5018 322.002 52.7099 325.621 46.7055C329.569 40.2004 334.426 32.1956 339.797 23.3438C345.165 14.4879 350.018 6.47897 353.965 -0.0300577C357.6 -5.99148 359.886 -9.60593 359.991 -9.38406Z" fill="#5A593E"/>
<path d="M319.894 693.327C331.311 731.42 344.791 766.793 359.992 798.546L319.894 693.327Z" fill="#09034E"/>
<path d="M359.991 798.541C359.84 798.86 357.111 793.89 353.002 785.198C348.89 776.511 343.443 763.999 337.876 749.404C332.314 734.793 327.695 720.889 324.561 710.567C321.421 700.24 319.713 693.56 319.896 693.323C320.104 693.053 322.161 699.253 325.535 709.18C328.907 719.114 333.646 732.7 339.177 747.224C344.711 761.733 349.985 774.418 353.861 783.504C357.734 792.601 360.164 798.18 359.991 798.541Z" fill="#5A593E"/>
<path d="M0.012085 798.911C16.1912 763.716 32.3702 728.522 48.5493 693.322L0.012085 798.911Z" fill="#09034E"/>
<path d="M48.5501 693.326C48.9831 693.947 38.467 718.086 25.0665 747.238C11.6597 776.402 0.445887 799.535 0.0129081 798.915C-0.42007 798.3 10.0929 774.161 23.4997 745.003C36.9002 715.85 48.1171 692.711 48.5501 693.326Z" fill="#5A593E"/>
<path d="M0.0143443 -9.38842C0.469024 -9.7899 11.469 4.85155 24.5768 23.3125C37.691 41.7771 47.9474 57.066 47.4927 57.4675C47.0381 57.8689 36.0412 43.2275 22.9302 24.7629C9.82244 6.30196 -0.437088 -8.99056 0.0143443 -9.38842Z" fill="#5A593E"/>
<path d="M5.50342 748.169V776.793C5.50342 789.384 15.8057 799.688 28.3982 799.688H53.6425C66.235 799.688 76.5373 789.385 76.5373 776.793V748.169H5.50342Z" fill="#ECC742"/>
<mask id="mask0_1260_1790" style="mask-type:luminance" maskUnits="userSpaceOnUse" x="5" y="748" width="72" height="52">
<path d="M5.50342 748.169V776.793C5.50342 789.384 15.8057 799.688 28.3982 799.688H53.6425C66.235 799.688 76.5373 789.385 76.5373 776.793V748.169H5.50342Z" fill="white"/>
</mask>
<g mask="url(#mask0_1260_1790)">
<path d="M73.8348 766.107C71.4235 766.107 70.1715 765.334 69.0668 764.651C68.0927 764.048 67.3218 763.572 65.6315 763.572C63.9411 763.572 63.1727 764.047 62.1986 764.651C61.0939 765.334 59.8419 766.107 57.4329 766.107C55.0251 766.107 53.7743 765.334 52.6696 764.651C51.6967 764.048 50.9282 763.572 49.2414 763.572C47.5523 763.572 46.7837 764.047 45.8097 764.651C44.7062 765.334 43.4542 766.107 41.0452 766.107C38.6363 766.107 37.3854 765.334 36.2819 764.651C35.3091 764.048 34.5393 763.572 32.8514 763.572C31.1634 763.572 30.3949 764.047 29.422 764.651C28.3185 765.334 27.0665 766.107 24.6575 766.107C22.2485 766.107 20.9977 765.334 19.893 764.651C18.9202 764.048 18.1517 763.572 16.4637 763.572C14.7758 763.572 14.0084 764.047 13.0355 764.651C11.932 765.334 10.6812 766.107 8.27341 766.107C5.86681 766.107 4.61601 765.334 3.51367 764.651C2.54201 764.048 1.77346 763.572 0.0878906 763.572V761.037C2.49449 761.037 3.7453 761.812 4.84882 762.493C5.82049 763.096 6.58903 763.572 8.2746 763.572C9.96255 763.572 10.7299 763.097 11.7028 762.493C12.8063 761.81 14.0571 761.037 16.4649 761.037C18.8738 761.037 20.1247 761.81 21.2282 762.493C22.201 763.096 22.9708 763.572 24.6587 763.572C26.3467 763.572 27.1164 763.097 28.0893 762.493C29.1928 761.81 30.4436 761.037 32.8526 761.037C35.2615 761.037 36.5123 761.81 37.6159 762.493C38.5887 763.096 39.3584 763.572 41.0464 763.572C42.7355 763.572 43.5041 763.097 44.4781 762.493C45.5816 761.81 46.8337 761.037 49.2426 761.037C51.6504 761.037 52.9012 761.81 54.0048 762.493C54.9776 763.096 55.7461 763.572 57.4329 763.572C59.1232 763.572 59.8918 763.097 60.8658 762.493C61.9705 761.81 63.2225 761.037 65.6315 761.037C68.0428 761.037 69.2949 761.81 70.3996 762.493C71.3736 763.096 72.1445 763.572 73.8348 763.572C75.5251 763.572 76.2961 763.097 77.2701 762.493C78.3748 761.81 79.628 761.037 82.0382 761.037V763.572C80.3467 763.572 79.577 764.047 78.6029 764.651C77.4982 765.334 76.245 766.107 73.8348 766.107Z" fill="white"/>
<path d="M73.8348 778.78C71.4235 778.78 70.1715 778.007 69.0668 777.324C68.0927 776.722 67.3218 776.247 65.6315 776.247C63.9411 776.247 63.1727 776.722 62.1986 777.324C61.0939 778.007 59.8419 778.78 57.4329 778.78C55.0251 778.78 53.7743 778.007 52.6696 777.324C51.6967 776.722 50.9282 776.247 49.2414 776.247C47.5523 776.247 46.7837 776.722 45.8097 777.324C44.7062 778.007 43.4542 778.78 41.0452 778.78C38.6363 778.78 37.3854 778.007 36.2819 777.324C35.3091 776.722 34.5393 776.247 32.8514 776.247C31.1634 776.247 30.3949 776.722 29.422 777.324C28.3185 778.007 27.0665 778.78 24.6575 778.78C22.2485 778.78 20.9977 778.007 19.893 777.324C18.9202 776.722 18.1517 776.247 16.4637 776.247C14.7758 776.247 14.0084 776.722 13.0355 777.324C11.932 778.007 10.6812 778.78 8.27341 778.78C5.86681 778.78 4.61601 778.007 3.51367 777.324C2.54201 776.722 1.77346 776.247 0.0878906 776.247V773.712C2.49449 773.712 3.7453 774.486 4.84882 775.168C5.82049 775.77 6.58903 776.247 8.2746 776.247C9.96255 776.247 10.7299 775.772 11.7028 775.168C12.8063 774.485 14.0571 773.712 16.4649 773.712C18.8738 773.712 20.1247 774.485 21.2282 775.168C22.201 775.77 22.9708 776.247 24.6587 776.247C26.3467 776.247 27.1164 775.772 28.0893 775.168C29.1928 774.485 30.4436 773.712 32.8526 773.712C35.2615 773.712 36.5123 774.485 37.6159 775.168C38.5887 775.77 39.3584 776.247 41.0464 776.247C42.7355 776.247 43.5041 775.772 44.4781 775.168C45.5816 774.485 46.8337 773.712 49.2426 773.712C51.6504 773.712 52.9012 774.485 54.0048 775.168C54.9776 775.77 55.7461 776.247 57.4329 776.247C59.1232 776.247 59.8918 775.772 60.8658 775.168C61.9705 774.485 63.2225 773.712 65.6315 773.712C68.0428 773.712 69.2949 774.485 70.3996 775.168C71.3736 775.77 72.1445 776.247 73.8348 776.247C75.5251 776.247 76.2961 775.772 77.2701 775.168C78.3748 774.485 79.628 773.712 82.0382 773.712V776.247C80.3467 776.247 79.577 776.722 78.6029 777.324C77.4982 778.007 76.245 778.78 73.8348 778.78Z" fill="white"/>
</g>
<path opacity="0.1" d="M60.2992 748.169V776.793C60.2992 789.384 49.9969 799.688 37.4044 799.688H53.6401C66.2313 799.688 76.5348 789.385 76.5348 776.793V748.169H60.2992Z" fill="#482C80"/>
<path d="M82.0394 743.871H0V752.464H82.0394V743.871Z" fill="#D4A000"/>
<path d="M6.75882 762.265C6.75882 763.475 5.77885 764.455 4.56961 764.455C3.36037 764.455 2.38037 763.475 2.38037 762.265C2.38037 761.056 3.36037 760.076 4.56961 760.076C5.77885 760.076 6.75882 761.056 6.75882 762.265Z" fill="#6D3E1D"/>
<path d="M44.7526 762.265C44.7526 763.475 43.7726 764.455 42.5634 764.455C41.3541 764.455 40.3741 763.475 40.3741 762.265C40.3741 761.056 41.3541 760.076 42.5634 760.076C43.7726 760.076 44.7526 761.056 44.7526 762.265Z" fill="#6D3E1D"/>
<path d="M78.9629 762.265C78.9629 763.475 77.9829 764.455 76.7736 764.455C75.5644 764.455 74.5845 763.475 74.5845 762.265C74.5845 761.056 75.5644 760.076 76.7736 760.076C77.9829 760.076 78.9629 761.056 78.9629 762.265Z" fill="#6D3E1D"/>
<path d="M27.6496 799.336C27.6496 800.545 26.6696 801.525 25.4603 801.525C24.2511 801.525 23.2711 800.545 23.2711 799.336C23.2711 798.126 24.2511 797.146 25.4603 797.146C26.6696 797.146 27.6496 798.126 27.6496 799.336Z" fill="#6D3E1D"/>
<path d="M59.6684 799.336C59.6684 800.545 58.6884 801.525 57.4791 801.525C56.2699 801.525 55.2899 800.545 55.2899 799.336C55.2899 798.126 56.2699 797.146 57.4791 797.146C58.6884 797.146 59.6684 798.126 59.6684 799.336Z" fill="#6D3E1D"/>
<path d="M122.379 812.587C117.413 807.206 117.397 799.142 119.264 797.419C121.27 795.568 129.168 796.357 134.134 801.738C139.1 807.119 140.494 813.91 137.249 816.906C134.002 819.901 127.344 817.968 122.379 812.587Z" fill="#8AC27C"/>
<path d="M95.4884 802.464C99.4393 798.818 105.36 798.806 106.625 800.177C107.984 801.649 107.404 807.448 103.454 811.094C99.5034 814.739 94.518 815.763 92.318 813.38C90.1181 810.997 91.5376 806.109 95.4884 802.464Z" fill="#8AC27C"/>
<path d="M108.971 700.212C103.055 700.903 97.7452 697.054 97.5053 695.002C97.2475 692.797 101.545 687.982 107.461 687.29C113.376 686.599 118.509 688.932 118.926 692.5C119.343 696.067 114.886 699.52 108.971 700.212Z" fill="#8AC27C"/>
<path d="M90.4162 718.629C90.9294 714.795 94.2019 712.07 95.5323 712.247C96.9613 712.439 99.3038 715.916 98.7906 719.749C98.2775 723.582 95.9873 726.439 93.6745 726.129C91.3618 725.821 89.9031 722.462 90.4162 718.629Z" fill="#8AC27C"/>
<path d="M120.546 729.562C115.284 727.442 112.598 721.801 113.333 719.975C114.123 718.014 119.915 715.946 125.178 718.066C130.44 720.187 133.668 724.48 132.39 727.653C131.112 730.829 125.808 731.683 120.546 729.562Z" fill="#8AC27C"/>
<path d="M116.416 746.26C113.793 743.417 113.785 739.159 114.771 738.249C115.83 737.271 120.001 737.688 122.625 740.53C125.248 743.372 125.984 746.958 124.27 748.541C122.556 750.124 119.039 749.102 116.416 746.26Z" fill="#8AC27C"/>
<path d="M89.5847 744.544C91.6397 741.268 95.7485 740.144 96.8853 740.857C98.1064 741.623 98.7965 745.758 96.7415 749.034C94.6865 752.31 91.4175 753.96 89.4409 752.72C87.4643 751.481 87.5285 747.82 89.5847 744.544Z" fill="#8AC27C"/>
<path d="M118.302 772.465C113.04 770.344 110.354 764.703 111.09 762.877C111.88 760.916 117.672 758.848 122.934 760.969C128.196 763.089 131.425 767.382 130.146 770.556C128.867 773.731 123.565 774.585 118.302 772.465Z" fill="#8AC27C"/>
<path d="M93.261 781.563C94.8575 776.048 100.262 772.767 102.176 773.322C104.231 773.917 106.905 779.536 105.308 785.052C103.712 790.567 99.7206 794.256 96.3934 793.293C93.0662 792.328 91.6645 787.077 93.261 781.563Z" fill="#8AC27C"/>
<path d="M75.569 792.577C77.605 785.543 84.4982 781.36 86.9392 782.065C89.5608 782.824 92.9711 789.992 90.9339 797.025C88.898 804.059 83.8068 808.765 79.5637 807.537C75.3219 806.308 73.533 799.611 75.569 792.577Z" fill="#8AC27C"/>
<path d="M85.9486 771.732C82.8601 767.736 83.3353 762.194 84.7216 761.123C86.2111 759.972 91.5897 760.989 94.6781 764.986C97.7666 768.982 98.3166 773.732 95.9052 775.595C93.495 777.457 89.037 775.728 85.9486 771.732Z" fill="#8AC27C"/>
<path d="M89.606 736.871C85.831 736.028 83.3995 732.533 83.6917 731.222C84.0053 729.816 87.6722 727.782 91.446 728.625C95.221 729.467 97.8687 731.996 97.3603 734.273C96.8519 736.55 93.3811 737.713 89.606 736.871Z" fill="#8AC27C"/>
<path d="M84.8154 716.106C81.5274 719.141 76.599 719.15 75.5466 718.009C74.4157 716.783 74.898 711.957 78.186 708.922C81.4739 705.887 85.6243 705.035 87.4548 707.019C89.2853 709.003 88.1034 713.071 84.8154 716.106Z" fill="#8AC27C"/>
<path d="M66.8834 733.8C62.6273 733.412 59.4664 729.924 59.6018 728.448C59.7468 726.862 63.4767 724.115 67.7328 724.503C71.9889 724.891 75.2483 727.287 75.0143 729.855C74.7791 732.422 71.1395 734.189 66.8834 733.8Z" fill="#8AC27C"/>
<path d="M63.1796 713.581C59.363 715.503 54.8361 714.218 54.1685 712.893C53.4522 711.471 55.1627 707.165 58.9793 705.244C62.7959 703.322 66.8299 703.629 67.9904 705.931C69.1509 708.233 66.9974 711.658 63.1796 713.581Z" fill="#8AC27C"/>
<path d="M24.4497 717.18C28.505 719.521 30.0481 724.443 29.2356 725.85C28.3625 727.361 23.3901 728.381 19.3348 726.04C15.2794 723.699 13.1366 719.817 14.5489 717.371C15.9613 714.924 20.3944 714.839 24.4497 717.18Z" fill="#8AC27C"/>
<path d="M82.8864 683.029C78.9664 687.512 72.4475 688.226 70.8926 686.866C69.2225 685.405 69.1726 678.95 73.0925 674.467C77.0124 669.984 82.3828 668.267 85.0864 670.631C87.7911 672.994 86.8063 678.546 82.8864 683.029Z" fill="#8AC27C"/>
<path d="M18.5377 693.89C22.9435 696.435 24.6195 701.78 23.7369 703.309C22.789 704.95 17.3866 706.059 12.9797 703.516C8.57393 700.971 6.24575 696.754 7.78046 694.097C9.31636 691.439 14.1319 691.346 18.5377 693.89Z" fill="#8AC27C"/>
<path d="M49.0538 697.401C44.9699 700.434 39.3977 699.85 38.344 698.433C37.2132 696.911 38.3405 691.512 42.4255 688.479C46.5094 685.445 51.3048 684.982 53.1341 687.445C54.9657 689.91 53.1376 694.367 49.0538 697.401Z" fill="#8AC27C"/>
<path d="M41.9027 682.177C38.2322 687.337 31.4116 688.784 29.6215 687.51C27.6983 686.143 26.9607 679.319 30.6312 674.16C34.3016 669.001 39.8002 666.612 42.9124 668.826C46.0258 671.041 45.5732 677.018 41.9027 682.177Z" fill="#8AC27C"/>
<path d="M44.6992 692.148C39.5629 695.009 35.694 700.611 33.9348 706.091C32.9477 709.167 32.5794 712.41 32.6769 715.633C32.7077 716.65 34.2924 716.654 34.2615 715.633C34.0132 707.444 37.3891 699.4 44.0613 694.472C44.5222 694.133 44.9961 693.795 45.4974 693.516C46.3895 693.02 45.5924 691.651 44.6992 692.148Z" fill="#72A265"/>
<path d="M16.0419 699.385C21.8256 702.187 26.8289 707.42 30.0159 712.898C31.7407 715.862 32.9677 719.057 33.7315 722.397C33.9584 723.39 35.486 722.97 35.2591 721.976C33.0936 712.508 26.9667 704.263 18.7669 699.118C18.1421 698.726 17.5054 698.338 16.8414 698.017C15.9279 697.575 15.1237 698.941 16.0419 699.385Z" fill="#72A265"/>
<path d="M21.4113 721.735C26.0249 722.842 29.9959 726.957 31.887 731.254C33.0677 733.936 33.5821 736.864 33.7044 739.779C33.7472 740.794 35.3318 740.8 35.289 739.779C35.0812 734.825 33.7175 729.942 30.5412 726.058C28.6715 723.771 26.2233 721.943 23.5007 720.798C22.9602 720.57 22.4043 720.345 21.8318 720.209C20.8411 719.97 20.4182 721.498 21.4113 721.735Z" fill="#72A265"/>
<path d="M98.8428 807.799C104.673 803.979 109.853 798.08 112.389 791.581C113.51 788.708 114.038 785.635 113.885 782.552C113.835 781.538 112.25 781.532 112.3 782.552C112.624 789.094 109.582 795.085 105.347 799.891C103.209 802.318 100.759 804.65 98.0422 806.43C97.194 806.988 97.9864 808.36 98.8428 807.799Z" fill="#72A265"/>
<path d="M130.779 810.747C128.474 809.298 126.491 807.16 124.749 805.105C119.937 799.432 116.717 792.563 114.727 785.434C114.453 784.454 112.923 784.87 113.199 785.854C115.818 795.239 120.667 804.713 128.385 810.933C128.898 811.346 129.42 811.764 129.979 812.116C130.846 812.658 131.642 811.289 130.779 810.747Z" fill="#72A265"/>
<path d="M99.1265 787.662C103.318 779.643 105.096 769.44 102.831 760.64C102.577 759.652 101.05 760.071 101.304 761.06C103.459 769.437 101.752 779.224 97.7581 786.863C97.2866 787.764 98.6538 788.567 99.1265 787.662Z" fill="#72A265"/>
<path d="M124.894 768.027C122.372 767.284 119.92 766.202 117.582 765.011C112.982 762.666 108.454 759.561 105.51 755.236C103.696 752.571 102.634 749.534 102.564 746.302C102.542 745.284 100.958 745.28 100.98 746.302C101.227 757.636 112.034 764.77 121.534 768.512C122.499 768.893 123.477 769.261 124.473 769.554C125.452 769.843 125.871 768.314 124.894 768.027Z" fill="#72A265"/>
<path d="M91.9246 748.289C93.9131 746.569 95.5761 744.379 97.0811 742.242C100.929 736.779 103.638 730.565 105.352 724.121C105.615 723.135 104.087 722.713 103.825 723.699C102.143 730.022 99.4877 736.081 95.7127 741.441C94.2837 743.47 92.692 745.534 90.8045 747.168C90.0324 747.836 91.1573 748.953 91.9246 748.289Z" fill="#72A265"/>
<path d="M121.1 744.58C118.515 742.481 116.302 739.788 114.34 737.122C109.384 730.391 105.95 722.673 104.04 714.546C103.807 713.554 102.278 713.973 102.512 714.966C104.451 723.211 107.943 731.09 112.971 737.922C115.014 740.697 117.288 743.514 119.978 745.7C120.765 746.337 121.892 745.222 121.1 744.58Z" fill="#72A265"/>
<path d="M95.6093 719.935C96.0049 716.837 95.8624 713.605 95.4739 710.518C94.7303 704.612 92.7145 698.811 88.6235 694.376C87.931 693.625 86.8132 694.748 87.5034 695.496C93.2942 701.773 95.0867 711.626 94.0247 719.934C93.8964 720.944 95.4822 720.934 95.6093 719.935Z" fill="#72A265"/>
<path d="M123.168 723.147C116.711 720.806 110.341 717.034 105.319 712.367C103.13 710.334 101.195 708.052 99.7123 705.45C99.2075 704.564 97.8379 705.363 98.3451 706.25C103.035 714.476 111.859 720.012 120.349 723.697C121.14 724.04 121.936 724.381 122.747 724.675C123.706 725.023 124.119 723.493 123.168 723.147Z" fill="#72A265"/>
<path d="M80.5936 692.308C84.6062 693.788 88.8065 694.891 93.0056 695.682C98.7572 696.766 106.205 697.837 111.392 694.379C112.237 693.816 111.445 692.444 110.593 693.012C105.517 696.396 97.9934 695.093 92.4128 693.956C88.5606 693.172 84.7084 692.143 81.0154 690.781C80.0568 690.427 79.6434 691.957 80.5936 692.308Z" fill="#72A265"/>
<path d="M76.8164 677.948C76.6561 679 76.2272 679.724 75.682 680.646C74.1093 683.306 71.7609 685.494 69.289 687.308C66.9109 689.053 64.3356 690.507 61.6831 691.79C60.7661 692.234 61.5679 693.6 62.4825 693.158C66.7267 691.106 70.8819 688.578 74.1722 685.157C75.7711 683.494 77.2072 681.584 78.034 679.412C78.1611 679.077 78.2894 678.725 78.344 678.368C78.4961 677.372 76.9696 676.942 76.8164 677.948Z" fill="#72A265"/>
<path d="M61.683 707.858C59.3596 708.886 57.1538 710.266 55.075 711.714C50.6728 714.778 46.6792 718.545 43.7915 723.092C41.8993 726.073 40.5499 729.376 39.8953 732.848C39.7077 733.845 41.2341 734.271 41.4229 733.27C43.3508 723.057 51.3926 715.25 60.1947 710.392C60.943 709.978 61.7009 709.572 62.4837 709.226C63.4126 708.814 62.6072 707.448 61.683 707.858Z" fill="#72A265"/>
<path d="M92.1016 769.612C89.9943 767.613 88.0819 765.353 86.3453 763.03C83.2058 758.83 80.2444 753.912 79.7479 748.581C79.6541 747.575 78.0695 747.564 78.1633 748.581C78.68 754.127 81.5594 759.21 84.8141 763.611C86.6731 766.124 88.7079 768.576 90.9814 770.732C91.7215 771.434 92.8428 770.315 92.1016 769.612Z" fill="#72A265"/>
<path d="M51.0446 735.316C51.9557 733.746 53.3633 732.347 54.8505 731.242C58.3856 728.616 62.7213 727.872 66.994 728.813C67.9871 729.032 68.4123 727.505 67.4145 727.286C63.6526 726.456 59.7801 726.733 56.314 728.478C54.1058 729.59 52.1505 731.236 50.6229 733.179C50.2868 733.606 49.9494 734.045 49.6762 734.516C49.1643 735.399 50.5327 736.197 51.0446 735.316Z" fill="#72A265"/>
<path d="M65.818 721.087C67.361 720.952 68.9029 720.683 70.415 720.354C73.159 719.755 75.9813 718.896 78.3534 717.354C79.6244 716.529 80.7802 715.478 81.487 714.12C81.9574 713.217 80.5914 712.415 80.1198 713.32C78.945 715.574 76.4149 716.817 74.1271 717.651C71.8927 718.465 69.549 718.99 67.1983 719.334C66.7742 719.396 66.3288 719.458 65.818 719.503C64.8107 719.591 64.8012 721.176 65.818 721.087Z" fill="#72A265"/>
<path d="M76.8959 725.125C77.5789 726.235 78.4116 727.273 79.2728 728.247C80.9453 730.139 82.9456 731.889 85.2738 732.917C86.7088 733.552 88.2352 733.915 89.8114 733.85C90.8271 733.808 90.833 732.224 89.8114 732.265C85.2726 732.451 81.4335 728.748 78.9675 725.354C78.7228 725.018 78.4817 724.677 78.2643 724.323C77.7297 723.458 76.359 724.253 76.8959 725.125Z" fill="#72A265"/>
<path d="M32.476 714.831C33.9477 720.919 34.31 727.308 34.1188 733.553C34.013 736.989 33.7802 740.485 33.1459 743.872H34.7436C36.2343 735.666 36.0882 726.918 34.8422 718.725C33.5878 710.475 29.0454 702.533 29.6061 694.058C30.0242 687.736 33.5438 682.213 37.5445 677.509C38.2014 676.737 37.086 675.611 36.4244 676.389C32.8775 680.559 29.6821 685.276 28.4943 690.704C27.6224 694.687 27.9787 698.728 28.9457 702.658C29.9577 706.762 31.4829 710.72 32.476 714.831Z" fill="#72A265"/>
<path d="M115.427 790.429C115.175 785.415 113.493 780.642 111.281 776.178C109.138 771.852 106.468 767.821 104.231 763.545C103.287 761.74 102.397 759.915 102.041 757.894C101.675 755.813 101.739 753.658 101.908 751.561C102.74 741.205 106.227 731.091 105.205 720.601C104.292 711.212 99.0187 702.45 91.7134 696.586C83.7832 690.219 73.4738 687.763 63.6977 691.03C55.5989 693.737 49.6335 699.415 45.912 707.02C40.6794 717.712 39.2065 731.794 39.7767 743.594C39.7814 743.687 39.7874 743.781 39.7921 743.875H41.3803C40.7365 734.095 41.9113 722.503 45.0448 713.286C47.4586 706.185 51.5175 699.286 58.0875 695.324C67.3647 689.732 78.6351 689.847 87.7447 695.668C95.7295 700.77 101.975 709.54 103.422 718.982C104.992 729.229 101.721 739.436 100.527 749.538C100.085 753.279 99.8288 757.344 101.246 760.919C102.86 764.995 105.352 768.713 107.512 772.509C109.943 776.783 112.184 781.228 113.246 786.063C114.328 790.987 113.882 795.907 112.319 800.67C109.449 809.415 104.937 817.563 101.634 826.147C98.0743 835.4 95.391 845.442 96.8568 855.417C97.2167 857.865 97.8463 860.253 98.7146 862.57C99.0698 863.516 100.601 863.106 100.242 862.148C92.6458 841.9 105.946 822.046 112.904 803.735C114.531 799.456 115.659 795.046 115.427 790.429Z" fill="#72A265"/>
<path d="M87.0129 779.659C85.8892 775.339 83.4505 771.607 81.3171 767.744C79.4593 764.38 79.3144 760.468 79.3049 756.699C79.2943 752.163 79.6791 747.629 80.1269 743.119C80.8194 736.154 82.3126 728.102 76.8187 722.542C70.4791 716.128 60.1198 719.883 54.9764 725.858C51.2549 730.182 47.5784 737.874 45.9427 743.87H47.6034C48.9742 739.253 51.6563 733.42 53.9157 729.921C55.9908 726.708 58.7384 723.741 62.2913 722.174C66.2896 720.411 71.4164 720.053 74.9597 722.982C80.7553 727.774 79.2741 735.883 78.6124 742.411C78.1895 746.58 77.8201 750.762 77.7357 754.953C77.6645 758.536 77.655 762.373 78.7288 765.83C79.963 769.803 82.878 773.163 84.4567 777.019C86.8514 782.867 86.3822 788.794 83.6014 794.432C83.1524 795.343 84.5172 796.147 84.9698 795.231C87.3895 790.331 88.4074 785.018 87.0129 779.659Z" fill="#72A265"/>
</g>
<defs>
<clipPath id="clip0_1260_1790">
<rect width="360" height="800" fill="white"/>
</clipPath>
</defs>
</svg>
