<svg width="360" height="800" viewBox="0 0 360 800" fill="none" xmlns="http://www.w3.org/2000/svg">
<g clip-path="url(#clip0_1260_3827)">
<rect width="360" height="800" fill="white"/>
<rect x="318.761" y="18" width="43.2389" height="625" fill="url(#paint0_linear_1260_3827)"/>
<rect y="18" width="41.2278" height="625" fill="url(#paint1_linear_1260_3827)"/>
<path d="M-31 0H395L325.183 90H41.1833L-31 0Z" fill="url(#paint2_linear_1260_3827)"/>
<path d="M322 90H37V644H322V90Z" fill="url(#paint3_linear_1260_3827)"/>
<path d="M272 642.812V337.842C272 285.462 229.538 243 177.158 243V243C127.365 243 87 283.365 87 333.158V642.812" stroke="#330A34" stroke-width="17"/>
<path d="M272 642.812V348.007C272 295.627 229.538 253.165 177.158 253.165V253.165C127.365 253.165 87 293.53 87 343.323V642.812" stroke="#330A34" stroke-width="17"/>
<path d="M94.7083 344C94.7083 298.713 131.421 262 176.708 262H182.292C227.579 262 264.292 298.713 264.292 344V643H94.7083V344Z" fill="#640D5C"/>
<path d="M352.972 692.524C352.872 707.494 352.062 722.464 346.212 735.084C344.802 738.134 341.722 740.064 338.362 740.064H318.482C315.122 740.064 312.042 738.134 310.632 735.084C304.782 722.464 303.972 707.494 303.872 692.524C303.852 690.184 305.752 688.284 308.082 688.284H348.762C351.102 688.274 352.992 690.184 352.972 692.524Z" fill="#3A2274" stroke="#2C091F" stroke-width="0.25" stroke-miterlimit="10" stroke-linecap="round" stroke-linejoin="round"/>
<path d="M334.292 688.274H332.292C332.292 682.174 333.772 673.434 334.852 667.064C335.462 663.474 336.092 659.764 335.972 659.054C335.682 657.304 330.872 641.384 329.052 635.394L330.962 634.814C331.232 635.694 337.572 656.494 337.952 658.734C338.122 659.734 337.702 662.254 336.832 667.404C335.752 673.704 334.292 682.344 334.292 688.274ZM322.582 688.274H320.582C320.582 676.714 317.902 669.564 315.952 664.334C314.932 661.614 314.132 659.474 314.002 657.484C313.842 655.084 315.762 648.884 318.192 641.034C321.522 630.264 325.672 616.864 324.632 611.874L326.592 611.464C327.742 616.964 323.682 630.064 320.102 641.624C317.922 648.674 315.862 655.324 315.992 657.354C316.102 659.054 316.862 661.074 317.822 663.634C319.832 669.004 322.582 676.354 322.582 688.274Z" fill="#2C091F"/>
<path d="M324.302 619.654C333.682 617.074 338.022 614.174 339.262 610.714C339.862 609.004 339.662 607.164 338.632 605.524C337.602 603.914 335.702 602.464 332.732 602.074C332.732 602.074 332.292 600.474 331.292 598.874C330.282 597.284 328.692 595.654 325.972 596.064C322.592 596.574 319.992 601.074 319.652 606.194C319.462 608.744 319.802 611.404 320.622 613.764C321.442 616.134 322.732 618.184 324.302 619.654Z" fill="#3E3F65"/>
<path d="M324.302 619.654C325.682 614.564 327.802 609.674 330.562 605.184" stroke="#2C091F" stroke-width="0.25" stroke-miterlimit="10" stroke-linecap="round" stroke-linejoin="round"/>
<path d="M315.372 653.664C313.962 644.404 311.722 639.934 308.572 638.344C307.012 637.574 305.242 637.544 303.552 638.344C301.882 639.134 300.282 640.784 299.552 643.574C299.552 643.574 297.972 643.804 296.322 644.564C294.682 645.344 292.932 646.664 293.002 649.314C293.092 652.614 297.102 655.644 301.962 656.564C304.382 657.044 306.972 657.024 309.322 656.514C311.692 655.994 313.792 654.994 315.372 653.664Z" fill="#3E3F65"/>
<path d="M315.372 653.664C310.652 651.774 306.222 649.174 302.262 646.004" stroke="#2C091F" stroke-width="0.25" stroke-miterlimit="10" stroke-linecap="round" stroke-linejoin="round"/>
<path d="M336.822 664.014C341.122 665.394 344.052 666.624 346.462 667.104C348.862 667.614 350.822 667.374 352.432 666.504C355.632 664.784 356.962 660.464 353.092 656.454C353.092 656.454 353.702 655.044 353.832 653.314C353.962 651.584 353.602 649.524 351.592 648.234C350.332 647.444 348.742 647.384 346.972 647.954C345.212 648.524 343.262 649.724 341.512 651.404C339.762 653.084 338.232 655.244 337.382 657.514C336.512 659.784 336.342 662.104 336.822 664.014Z" fill="#3E3F65"/>
<path d="M336.822 664.014C340.462 660.734 345.082 658.824 349.712 657.364" stroke="#2C091F" stroke-width="0.25" stroke-miterlimit="10" stroke-linecap="round" stroke-linejoin="round"/>
<path d="M313.822 631.214C318.712 623.304 317.382 616.214 314.262 612.954C312.712 611.304 310.732 610.574 308.882 610.944C307.022 611.304 305.292 612.734 304.042 615.304C304.042 615.304 302.462 615.204 300.762 615.744C299.062 616.264 297.252 617.414 296.672 619.714C295.942 622.574 298.222 625.274 301.652 627.424C305.092 629.534 309.722 631.194 313.822 631.214Z" fill="#4D3E6B"/>
<path d="M313.822 631.214C311.472 626.774 308.872 622.454 306.042 618.304" stroke="#2C091F" stroke-width="0.25" stroke-miterlimit="10" stroke-linecap="round" stroke-linejoin="round"/>
<path d="M321.352 666.214C324.912 666.574 326.952 665.694 327.782 664.434C328.582 663.204 328.192 661.484 326.102 660.794C326.102 660.794 326.042 660.184 325.772 659.554C325.492 658.924 324.992 658.254 324.022 658.204C322.812 658.144 321.712 659.424 321.172 661.094C320.612 662.774 320.652 664.804 321.352 666.214Z" fill="#3E3F65"/>
<path d="M321.352 666.214C322.502 664.654 323.752 663.164 325.092 661.764" stroke="#2C091F" stroke-width="0.25" stroke-miterlimit="10" stroke-linecap="round" stroke-linejoin="round"/>
<path d="M318.832 670.324C317.622 667.934 315.672 666.454 313.702 665.864C311.722 665.264 309.762 665.534 308.402 666.274C307.022 667.004 306.252 668.164 306.252 669.274C306.242 670.404 306.982 671.464 308.342 672.404C308.342 672.404 308.142 673.294 308.342 674.304C308.532 675.314 309.132 676.394 310.242 676.974C311.642 677.724 312.852 676.974 314.312 675.614C315.722 674.244 317.542 672.324 318.832 670.324Z" fill="#4D3E6B"/>
<path d="M318.832 670.324C315.932 670.134 312.992 670.594 310.272 671.624" stroke="#2C091F" stroke-width="0.25" stroke-miterlimit="10" stroke-linecap="round" stroke-linejoin="round"/>
<path d="M335.432 669.894C334.712 675.014 335.462 677.864 337.022 679.184C337.802 679.834 338.772 680.084 339.782 679.854C340.782 679.624 341.822 678.904 342.532 677.484C342.532 677.484 343.412 677.544 344.382 677.304C345.352 677.064 346.442 676.534 346.712 675.114C347.052 673.354 345.332 671.354 342.922 670.254C340.522 669.114 337.512 668.964 335.432 669.894Z" fill="#4D3E6B"/>
<path d="M335.432 669.895C337.622 671.645 339.622 673.645 341.362 675.845" stroke="#2C091F" stroke-width="0.25" stroke-miterlimit="10" stroke-linecap="round" stroke-linejoin="round"/>
<path d="M332.982 641.494C326.132 641.124 322.052 644.144 320.912 647.164C319.752 650.204 321.492 653.144 325.702 653.224C325.702 653.224 326.122 654.314 326.992 655.304C327.862 656.294 329.182 657.174 330.922 656.844C333.092 656.424 334.262 653.924 334.592 650.864C334.922 647.804 334.422 644.154 332.982 641.494Z" fill="#4D3E6B"/>
<path d="M332.982 641.494C330.932 644.594 328.972 647.744 327.092 650.954" stroke="#2C091F" stroke-width="0.25" stroke-miterlimit="10" stroke-linecap="round" stroke-linejoin="round"/>
<path d="M321.152 640.134C332.332 647.564 340.232 648.654 345.132 646.244C347.552 645.034 349.192 642.914 349.662 640.264C350.122 637.634 349.392 634.424 346.692 631.304C346.692 631.304 347.702 629.244 348.092 626.684C348.462 624.114 348.222 620.984 345.152 618.924C341.342 616.354 335.032 618.394 330.002 622.914C324.912 627.394 321.332 634.214 321.152 640.134Z" fill="#3E3F65"/>
<path d="M321.152 640.134C327.712 636.954 334.562 634.384 341.582 632.454" stroke="#2C091F" stroke-width="0.25" stroke-miterlimit="10" stroke-linecap="round" stroke-linejoin="round"/>
<g opacity="0.4">
<path d="M320.622 739.444C318.032 739.444 315.512 736.554 314.442 734.234C308.542 721.494 307.952 706.014 307.862 692.504C307.862 691.914 308.082 691.354 308.502 690.924C308.922 690.504 309.482 690.274 310.072 690.274H350.752C351.342 690.274 351.902 690.504 352.322 690.924C352.742 691.344 352.972 691.904 352.962 692.504C352.872 706.014 352.282 721.504 346.382 734.234C345.312 736.554 343.082 739.444 340.492 739.444H320.622ZM341.052 677.934C340.782 677.934 340.522 677.834 340.302 677.644C339.892 677.294 339.572 676.634 339.372 675.724L337.472 675.784C337.672 674.404 337.892 673.034 338.102 671.704L338.952 671.484C339.452 671.354 340.002 671.294 340.582 671.294C341.782 671.294 343.012 671.564 344.072 672.064C346.012 672.944 346.842 674.264 346.752 674.734C346.712 674.944 346.662 675.174 345.902 675.364C345.442 675.474 344.972 675.484 344.782 675.484H344.642L343.332 675.414L342.732 676.584C342.372 677.304 341.862 677.774 341.312 677.904C341.242 677.924 341.142 677.934 341.052 677.934ZM313.342 675.284C313.312 675.284 313.252 675.264 313.182 675.224C312.522 674.874 312.342 674.154 312.302 673.944C312.182 673.364 312.282 672.844 312.292 672.834L312.552 671.544L311.482 670.764C310.712 670.224 310.252 669.674 310.252 669.284C310.252 668.954 310.592 668.434 311.342 668.034C311.942 667.704 312.712 667.534 313.502 667.534C314.042 667.534 314.592 667.614 315.122 667.774C316.132 668.074 317.082 668.684 317.872 669.524L319.472 668.564C319.492 668.614 319.502 668.664 319.522 668.714L318.642 669.944C317.702 671.254 316.422 672.714 314.912 674.184C313.822 675.204 313.442 675.284 313.342 675.284ZM350.832 665.364C350.232 665.364 349.572 665.284 348.882 665.144C347.462 664.864 345.782 664.274 343.662 663.534C342.552 663.144 341.342 662.724 339.982 662.284L339.672 662.184C339.682 662.114 339.692 662.044 339.702 661.984L341.402 657.884C342.152 656.084 343.392 654.304 344.902 652.854C346.382 651.434 348.092 650.344 349.592 649.864C350.172 649.674 350.712 649.584 351.192 649.584C351.722 649.584 352.162 649.704 352.532 649.934C353.152 650.334 353.992 651.114 353.842 653.174C353.742 654.514 353.262 655.654 353.262 655.674L352.742 656.894L353.662 657.854C355.032 659.274 355.642 660.744 355.432 662.124C355.262 663.224 354.552 664.184 353.492 664.754C352.702 665.164 351.832 665.364 350.832 665.364ZM332.172 654.914C331.602 654.914 331.042 654.604 330.492 653.984C329.882 653.294 329.562 652.504 329.552 652.494L329.062 651.264L327.732 651.224C326.362 651.194 325.352 650.794 324.872 650.084C324.482 649.514 324.452 648.724 324.772 647.874C325.272 646.574 326.532 645.364 328.252 644.574L331.792 642.934L328.392 641.014C327.342 640.424 326.282 639.784 325.222 639.104C325.282 638.494 325.392 637.864 325.532 637.224L326.352 634.514C327.762 630.754 330.302 627.074 333.312 624.414C336.532 621.514 340.212 619.794 343.142 619.794C344.282 619.794 345.242 620.054 346.012 620.574C347.842 621.804 348.492 623.604 348.092 626.394C347.762 628.584 346.882 630.404 346.872 630.424L346.292 631.614L347.152 632.614C349.182 634.954 350.072 637.554 349.662 639.924C349.312 641.904 348.082 643.514 346.202 644.454C344.952 645.064 343.462 645.384 341.772 645.384C340.322 645.384 338.722 645.154 337.022 644.694L334.102 643.914L334.552 647.054L334.602 647.254C334.782 647.874 334.962 648.464 335.132 649.034L334.292 652.264C334.102 652.974 333.562 654.664 332.522 654.864C332.412 654.904 332.292 654.914 332.172 654.914ZM307.542 654.904C306.462 654.904 305.392 654.804 304.352 654.594C300.352 653.834 297.062 651.434 297.002 649.244C296.972 648.294 297.222 647.284 299.182 646.354C300.502 645.744 301.832 645.534 301.852 645.534L303.152 645.334L303.492 644.064C304.122 641.674 305.432 640.604 306.422 640.134C306.972 639.874 307.532 639.744 308.092 639.744C308.642 639.744 309.182 639.874 309.692 640.124C312.092 641.334 313.852 645.204 315.072 651.974L316.302 652.024L315.252 652.724C314.002 653.564 312.502 654.194 310.912 654.534C309.832 654.784 308.702 654.904 307.542 654.904ZM326.922 617.394C325.902 616.224 325.082 614.754 324.512 613.114C323.782 611.014 323.472 608.614 323.642 606.344C323.922 602.104 325.992 598.384 328.262 598.044C328.452 598.014 328.632 598.004 328.802 598.004C329.522 598.004 330.502 598.224 331.602 599.954C332.412 601.254 332.802 602.604 332.802 602.614L333.162 603.874L334.462 604.054C337.042 604.394 338.322 605.624 338.942 606.604C339.632 607.694 339.782 608.884 339.372 610.054C338.402 612.754 334.562 615.084 327.632 617.184L326.922 617.394Z" fill="#FF008A"/>
<path d="M314.712 629.164C311.532 628.894 307.802 627.624 304.712 625.704C303.292 624.814 300.032 622.484 300.612 620.184C300.922 618.954 301.852 618.094 303.352 617.634C304.372 617.314 305.362 617.284 305.742 617.284H305.932L307.252 617.354L307.842 616.164C308.742 614.304 309.962 613.144 311.262 612.894C311.452 612.854 311.642 612.844 311.822 612.844C312.852 612.844 313.902 613.364 314.802 614.324C317.352 616.984 318.302 622.664 314.712 629.164Z" fill="#89147D"/>
<path d="M324.842 664.294C324.722 663.484 324.792 662.544 325.062 661.734C325.322 660.934 325.682 660.474 325.892 660.284C325.902 660.304 325.912 660.334 325.932 660.364C326.042 660.614 326.092 660.914 326.102 661.004L326.242 662.274L327.462 662.694C327.942 662.854 328.122 663.054 328.152 663.134C328.172 663.204 328.112 663.304 328.092 663.334C327.792 663.784 326.782 664.284 324.852 664.284C324.862 664.294 324.852 664.294 324.842 664.294Z" fill="#1565D3"/>
</g>
<path d="M360 786.662C359.985 788.112 359.979 789.566 359.955 791.016C359.946 791.569 359.704 791.939 359.219 791.968C358.673 792.003 358.127 792 357.581 792C318.759 791.989 279.934 791.975 241.112 791.964C222.484 791.957 203.859 791.95 185.23 791.946C184.618 791.946 184.003 791.979 183.39 791.996C182.778 791.971 182.163 791.929 181.55 791.929C163.67 791.925 145.787 791.925 127.907 791.929C127.43 791.929 126.954 791.957 126.474 791.975C125.693 791.526 124.86 791.754 124.055 791.754C83.5801 791.74 43.1083 791.743 2.63344 791.733C1.82207 791.733 0.995621 791.904 0.196319 791.569C-0.183727 789.659 0.123929 787.716 0.0213771 785.792C-0.0268827 784.887 0.277757 784.434 1.08611 784.484C1.62903 784.52 2.17799 784.488 2.72392 784.488C31.3239 784.488 59.9268 784.392 88.5268 784.534C99.9855 784.591 111.432 783.939 122.888 784.032C133.779 784.121 144.674 783.911 155.566 784.071C161.342 784.156 167.112 783.9 172.885 784.046C173.82 784.071 174.818 783.829 175.618 784.695C176.435 784.716 177.252 784.762 178.073 784.762C214.584 784.773 251.096 784.78 287.607 784.787C299.334 785.464 311.068 785.022 322.798 785.101C334.537 785.183 346.273 785.136 358.012 785.144C358.287 785.144 358.558 785.133 358.83 785.151C359.726 785.204 359.726 785.208 360 786.662Z" fill="#330A34"/>
<path d="M31.9137 787.266C31.4981 787.284 31.0825 787.319 30.67 787.315C29.1053 787.301 28.9922 787.176 28.9556 785.413C28.9434 784.758 28.9525 784.1 28.9525 783.445C28.9525 741.795 28.9525 700.142 28.9525 658.493C28.9525 656.445 28.9495 654.393 28.9556 652.344C28.9556 651.853 28.9617 651.359 29.0106 650.874C29.0564 650.425 29.3162 650.108 29.689 650.084C30.3766 650.042 31.1131 649.899 31.7487 650.122C33.0475 650.575 34.3555 650.404 35.6603 650.509C36.079 652.362 35.8315 654.246 35.8437 656.117C35.8804 662.015 35.7429 667.919 35.8773 673.814C36.6933 709.68 36.021 745.554 36.244 781.424C36.2471 781.836 36.244 782.243 36.244 782.654C36.2379 786.859 36.2379 786.859 32.7052 787.03C32.421 787.04 32.1582 787.092 31.9137 787.266Z" fill="#330A34"/>
<path d="M31.1528 718.797C31.1528 740.427 31.1528 762.056 31.1497 783.686C31.1497 784.504 31.1344 785.323 31.0733 786.135C31.0397 786.605 30.7188 786.797 30.343 786.821C29.961 786.849 29.6645 786.661 29.5301 786.232C29.4598 786.009 29.4445 785.752 29.4384 785.508C29.4262 784.769 29.4262 784.034 29.4262 783.296C29.4262 740.2 29.4262 697.105 29.4262 654.014C29.4262 653.275 29.4109 652.536 29.4384 651.801C29.4751 650.83 29.744 650.474 30.3552 650.513C30.8777 650.547 31.1039 650.861 31.1314 651.697C31.1589 652.432 31.1467 653.17 31.1467 653.909C31.1528 675.538 31.1528 697.168 31.1528 718.797Z" fill="#FAFAFA"/>
<path d="M67.881 787.266C67.4654 787.284 67.0498 787.319 66.6373 787.315C65.0726 787.301 64.9595 787.176 64.9229 785.413C64.9106 784.758 64.9198 784.1 64.9198 783.445C64.9198 741.795 64.9198 700.142 64.9198 658.493C64.9198 656.445 64.9167 654.393 64.9229 652.344C64.9229 651.853 64.929 651.359 64.9779 650.874C65.0237 650.425 65.2835 650.108 65.6563 650.084C66.3439 650.042 67.0804 649.899 67.716 650.122C69.0148 650.575 70.3227 650.404 71.6276 650.509C72.0463 652.362 71.7988 654.246 71.811 656.117C71.8477 662.015 71.7101 667.919 71.8446 673.814C72.6605 709.68 71.9882 745.554 72.2113 781.424C72.2144 781.836 72.2113 782.243 72.2113 782.654C72.2052 786.859 72.2052 786.859 68.6725 787.03C68.3883 787.04 68.1255 787.092 67.881 787.266Z" fill="#330A34"/>
<path d="M67.1201 718.797C67.1201 740.427 67.1201 762.056 67.117 783.686C67.117 784.504 67.1017 785.323 67.0406 786.135C67.007 786.605 66.6861 786.797 66.3102 786.821C65.9282 786.849 65.6318 786.661 65.4974 786.232C65.4271 786.009 65.4118 785.752 65.4057 785.508C65.3935 784.769 65.3935 784.034 65.3935 783.296C65.3935 740.2 65.3935 697.105 65.3935 654.014C65.3935 653.275 65.3782 652.536 65.4057 651.801C65.4423 650.83 65.7113 650.474 66.3225 650.513C66.845 650.547 67.0712 650.861 67.0987 651.697C67.1262 652.432 67.114 653.17 67.114 653.909C67.1201 675.538 67.1201 697.168 67.1201 718.797Z" fill="#FAFAFA"/>
<path d="M103.848 787.266C103.433 787.284 103.017 787.319 102.605 787.315C101.04 787.301 100.927 787.176 100.89 785.413C100.878 784.758 100.887 784.1 100.887 783.445C100.887 741.795 100.887 700.142 100.887 658.493C100.887 656.445 100.884 654.393 100.89 652.344C100.89 651.853 100.896 651.359 100.945 650.874C100.991 650.425 101.251 650.108 101.624 650.084C102.311 650.042 103.048 649.899 103.683 650.122C104.982 650.575 106.29 650.404 107.595 650.509C108.014 652.362 107.766 654.246 107.778 656.117C107.815 662.015 107.677 667.919 107.812 673.814C108.628 709.68 107.956 745.554 108.179 781.424C108.182 781.836 108.179 782.243 108.179 782.654C108.172 786.859 108.172 786.859 104.64 787.03C104.356 787.04 104.093 787.092 103.848 787.266Z" fill="#330A34"/>
<path d="M103.087 718.797C103.087 740.427 103.087 762.056 103.084 783.686C103.084 784.504 103.069 785.323 103.008 786.135C102.974 786.605 102.653 786.797 102.278 786.821C101.896 786.849 101.599 786.661 101.465 786.232C101.394 786.009 101.379 785.752 101.373 785.508C101.361 784.769 101.361 784.034 101.361 783.296C101.361 740.2 101.361 697.105 101.361 654.014C101.361 653.275 101.345 652.536 101.373 651.801C101.41 650.83 101.679 650.474 102.29 650.513C102.812 650.547 103.038 650.861 103.066 651.697C103.093 652.432 103.081 653.17 103.081 653.909C103.087 675.538 103.087 697.168 103.087 718.797Z" fill="#FAFAFA"/>
<path d="M139.816 787.266C139.4 787.284 138.984 787.319 138.572 787.315C137.007 787.301 136.894 787.176 136.857 785.413C136.845 784.758 136.854 784.1 136.854 783.445C136.854 741.795 136.854 700.142 136.854 658.493C136.854 656.445 136.851 654.393 136.857 652.344C136.857 651.853 136.864 651.359 136.912 650.874C136.958 650.425 137.218 650.108 137.591 650.084C138.278 650.042 139.015 649.899 139.651 650.122C140.949 650.575 142.257 650.404 143.562 650.509C143.981 652.362 143.733 654.246 143.746 656.117C143.782 662.015 143.645 667.919 143.779 673.814C144.595 709.68 143.923 745.554 144.146 781.424C144.149 781.836 144.146 782.243 144.146 782.654C144.14 786.859 144.14 786.859 140.607 787.03C140.323 787.04 140.06 787.092 139.816 787.266Z" fill="#330A34"/>
<path d="M139.055 718.797C139.055 740.427 139.055 762.056 139.052 783.686C139.052 784.504 139.036 785.323 138.975 786.135C138.942 786.605 138.621 786.797 138.245 786.821C137.863 786.849 137.566 786.661 137.432 786.232C137.362 786.009 137.346 785.752 137.34 785.508C137.328 784.769 137.328 784.034 137.328 783.296C137.328 740.2 137.328 697.105 137.328 654.014C137.328 653.275 137.313 652.536 137.34 651.801C137.377 650.83 137.646 650.474 138.257 650.513C138.78 650.547 139.006 650.861 139.033 651.697C139.061 652.432 139.049 653.17 139.049 653.909C139.055 675.538 139.055 697.168 139.055 718.797Z" fill="#FAFAFA"/>
<path d="M175.783 787.266C175.367 787.284 174.951 787.319 174.539 787.315C172.974 787.301 172.861 787.176 172.824 785.413C172.812 784.758 172.821 784.1 172.821 783.445C172.821 741.795 172.821 700.142 172.821 658.493C172.821 656.445 172.818 654.393 172.824 652.344C172.824 651.853 172.831 651.359 172.879 650.874C172.925 650.425 173.185 650.108 173.558 650.084C174.245 650.042 174.982 649.899 175.618 650.122C176.916 650.575 178.224 650.404 179.529 650.509C179.948 652.362 179.7 654.246 179.713 656.117C179.749 662.015 179.612 667.919 179.746 673.814C180.562 709.68 179.89 745.554 180.113 781.424C180.116 781.836 180.113 782.243 180.113 782.654C180.107 786.859 180.107 786.859 176.574 787.03C176.29 787.04 176.027 787.092 175.783 787.266Z" fill="#330A34"/>
<path d="M175.022 718.797C175.022 740.427 175.022 762.056 175.019 783.686C175.019 784.504 175.003 785.323 174.942 786.135C174.909 786.605 174.588 786.797 174.212 786.821C173.83 786.849 173.533 786.661 173.399 786.232C173.329 786.009 173.313 785.752 173.307 785.508C173.295 784.769 173.295 784.034 173.295 783.296C173.295 740.2 173.295 697.105 173.295 654.014C173.295 653.275 173.28 652.536 173.307 651.801C173.344 650.83 173.613 650.474 174.224 650.513C174.747 650.547 174.973 650.861 175 651.697C175.028 652.432 175.016 653.17 175.016 653.909C175.022 675.538 175.022 697.168 175.022 718.797Z" fill="#FAFAFA"/>
<path d="M211.75 787.266C211.334 787.284 210.919 787.319 210.506 787.315C208.941 787.301 208.828 787.176 208.792 785.413C208.78 784.758 208.789 784.1 208.789 783.445C208.789 741.795 208.789 700.142 208.789 658.493C208.789 656.445 208.786 654.393 208.792 652.344C208.792 651.853 208.798 651.359 208.847 650.874C208.893 650.425 209.152 650.108 209.525 650.084C210.213 650.042 210.949 649.899 211.585 650.122C212.884 650.575 214.192 650.404 215.497 650.509C215.915 652.362 215.668 654.246 215.68 656.117C215.717 662.015 215.579 667.919 215.714 673.814C216.529 709.68 215.857 745.554 216.08 781.424C216.083 781.836 216.08 782.243 216.08 782.654C216.074 786.859 216.074 786.859 212.541 787.03C212.257 787.04 211.994 787.092 211.75 787.266Z" fill="#330A34"/>
<path d="M210.989 718.797C210.989 740.427 210.989 762.056 210.986 783.686C210.986 784.504 210.971 785.323 210.91 786.135C210.876 786.605 210.555 786.797 210.179 786.821C209.797 786.849 209.501 786.661 209.366 786.232C209.296 786.009 209.281 785.752 209.275 785.508C209.262 784.769 209.262 784.034 209.262 783.296C209.262 740.2 209.262 697.105 209.262 654.014C209.262 653.275 209.247 652.536 209.275 651.801C209.311 650.83 209.58 650.474 210.191 650.513C210.714 650.547 210.94 650.861 210.968 651.697C210.995 652.432 210.983 653.17 210.983 653.909C210.989 675.538 210.989 697.168 210.989 718.797Z" fill="#FAFAFA"/>
<path d="M247.717 787.266C247.302 787.284 246.886 787.319 246.473 787.315C244.909 787.301 244.796 787.176 244.759 785.413C244.747 784.758 244.756 784.1 244.756 783.445C244.756 741.795 244.756 700.142 244.756 658.493C244.756 656.445 244.753 654.393 244.759 652.344C244.759 651.853 244.765 651.359 244.814 650.874C244.86 650.425 245.12 650.108 245.492 650.084C246.18 650.042 246.917 649.899 247.552 650.122C248.851 650.575 250.159 650.404 251.464 650.509C251.882 652.362 251.635 654.246 251.647 656.117C251.684 662.015 251.546 667.919 251.681 673.814C252.497 709.68 251.824 745.554 252.048 781.424C252.051 781.836 252.048 782.243 252.048 782.654C252.041 786.859 252.041 786.859 248.509 787.03C248.224 787.04 247.962 787.092 247.717 787.266Z" fill="#330A34"/>
<path d="M246.956 718.797C246.956 740.427 246.956 762.056 246.953 783.686C246.953 784.504 246.938 785.323 246.877 786.135C246.843 786.605 246.522 786.797 246.146 786.821C245.764 786.849 245.468 786.661 245.334 786.232C245.263 786.009 245.248 785.752 245.242 785.508C245.23 784.769 245.23 784.034 245.23 783.296C245.23 740.2 245.23 697.105 245.23 654.014C245.23 653.275 245.214 652.536 245.242 651.801C245.279 650.83 245.547 650.474 246.159 650.513C246.681 650.547 246.907 650.861 246.935 651.697C246.962 652.432 246.95 653.17 246.95 653.909C246.956 675.538 246.956 697.168 246.956 718.797Z" fill="#FAFAFA"/>
<path d="M283.684 787.266C283.269 787.284 282.853 787.319 282.441 787.315C280.876 787.301 280.763 787.176 280.726 785.413C280.714 784.758 280.723 784.1 280.723 783.445C280.723 741.795 280.723 700.142 280.723 658.493C280.723 656.445 280.72 654.393 280.726 652.344C280.726 651.853 280.732 651.359 280.781 650.874C280.827 650.425 281.087 650.108 281.46 650.084C282.147 650.042 282.884 649.899 283.519 650.122C284.818 650.575 286.126 650.404 287.431 650.509C287.85 652.362 287.602 654.246 287.614 656.117C287.651 662.015 287.514 667.919 287.648 673.814C288.464 709.68 287.792 745.554 288.015 781.424C288.018 781.836 288.015 782.243 288.015 782.654C288.009 786.859 288.009 786.859 284.476 787.03C284.192 787.04 283.929 787.092 283.684 787.266Z" fill="#330A34"/>
<path d="M282.924 718.797C282.924 740.427 282.924 762.056 282.92 783.686C282.92 784.504 282.905 785.323 282.844 786.135C282.81 786.605 282.49 786.797 282.114 786.821C281.732 786.849 281.435 786.661 281.301 786.232C281.231 786.009 281.215 785.752 281.209 785.508C281.197 784.769 281.197 784.034 281.197 783.296C281.197 740.2 281.197 697.105 281.197 654.014C281.197 653.275 281.182 652.536 281.209 651.801C281.246 650.83 281.515 650.474 282.126 650.513C282.649 650.547 282.875 650.861 282.902 651.697C282.93 652.432 282.917 653.17 282.917 653.909C282.924 675.538 282.924 697.168 282.924 718.797Z" fill="#FAFAFA"/>
<path d="M319.652 787.266C319.236 787.284 318.821 787.319 318.408 787.315C316.844 787.301 316.731 787.176 316.694 785.413C316.682 784.758 316.691 784.1 316.691 783.445C316.691 741.795 316.691 700.142 316.691 658.493C316.691 656.445 316.688 654.393 316.694 652.344C316.694 651.853 316.7 651.359 316.749 650.874C316.795 650.425 317.054 650.108 317.427 650.084C318.115 650.042 318.851 649.899 319.487 650.122C320.786 650.575 322.094 650.404 323.399 650.509C323.817 652.362 323.57 654.246 323.582 656.117C323.619 662.015 323.481 667.919 323.616 673.814C324.432 709.68 323.759 745.554 323.982 781.424C323.985 781.836 323.982 782.243 323.982 782.654C323.976 786.859 323.976 786.859 320.444 787.03C320.159 787.04 319.897 787.092 319.652 787.266Z" fill="#330A34"/>
<path d="M318.891 718.797C318.891 740.427 318.891 762.056 318.888 783.686C318.888 784.504 318.873 785.323 318.812 786.135C318.778 786.605 318.457 786.797 318.081 786.821C317.699 786.849 317.403 786.661 317.268 786.232C317.198 786.009 317.183 785.752 317.177 785.508C317.164 784.769 317.164 784.034 317.164 783.296C317.164 740.2 317.164 697.105 317.164 654.014C317.164 653.275 317.149 652.536 317.177 651.801C317.213 650.83 317.482 650.474 318.093 650.513C318.616 650.547 318.842 650.861 318.87 651.697C318.897 652.432 318.885 653.17 318.885 653.909C318.891 675.538 318.891 697.168 318.891 718.797Z" fill="#FAFAFA"/>
<path d="M2.96452 786.95C2.54891 786.968 2.1333 787 1.72075 787C0.156098 786.989 0.0430279 786.86 0.00635639 785.104C-0.00586744 784.449 0.00330043 783.795 0.00330043 783.14C0.00330043 741.584 0.00330043 700.028 0.00330043 658.472C0.00330043 656.426 0.000244477 654.383 0.00635639 652.337C0.00635639 651.847 0.0124683 651.353 0.0613636 650.87C0.107203 650.419 0.366959 650.104 0.739786 650.083C1.42738 650.04 2.16386 649.9 2.7995 650.122C4.09828 650.573 5.40623 650.405 6.71113 650.509C7.12979 652.355 6.88226 654.24 6.89449 656.104C6.93116 661.989 6.79364 667.877 6.9281 673.762C7.74404 709.548 7.07173 745.34 7.29482 781.126C7.29787 781.534 7.29482 781.945 7.29482 782.353C7.2887 786.546 7.2887 786.549 3.75602 786.717C3.47181 786.728 3.209 786.778 2.96452 786.95Z" fill="#330A34"/>
<path d="M2.20357 718.795C2.20357 740.421 2.20357 762.047 2.20051 783.673C2.20051 784.489 2.18523 785.311 2.12411 786.123C2.0905 786.596 1.76962 786.785 1.39374 786.81C1.01174 786.835 0.715315 786.649 0.580852 786.22C0.510565 785.995 0.495286 785.741 0.489174 785.497C0.47695 784.76 0.47695 784.023 0.47695 783.286C0.47695 740.199 0.47695 697.112 0.47695 654.025C0.47695 653.288 0.46167 652.551 0.489174 651.814C0.525845 650.841 0.79477 650.487 1.40596 650.526C1.92853 650.562 2.15467 650.873 2.18217 651.711C2.20968 652.447 2.19745 653.184 2.19745 653.921C2.20357 675.544 2.20357 697.169 2.20357 718.795Z" fill="#FAFAFA"/>
<path d="M355.619 787.266C355.203 787.284 354.788 787.319 354.375 787.315C352.811 787.301 352.698 787.176 352.661 785.413C352.649 784.758 352.658 784.1 352.658 783.445C352.658 741.795 352.658 700.142 352.658 658.493C352.658 656.445 352.655 654.393 352.661 652.344C352.661 651.853 352.667 651.359 352.716 650.874C352.762 650.425 353.022 650.108 353.394 650.084C354.082 650.042 354.818 649.899 355.454 650.122C356.753 650.575 358.061 650.404 359.366 650.509C359.784 652.362 359.537 654.246 359.549 656.117C359.586 662.015 359.448 667.919 359.583 673.814C360.399 709.68 359.726 745.554 359.949 781.424C359.952 781.836 359.949 782.243 359.949 782.654C359.943 786.859 359.943 786.859 356.411 787.03C356.126 787.04 355.864 787.092 355.619 787.266Z" fill="#330A34"/>
<path d="M354.858 718.797C354.858 740.427 354.858 762.056 354.855 783.686C354.855 784.504 354.84 785.323 354.779 786.135C354.745 786.605 354.424 786.797 354.048 786.821C353.666 786.849 353.37 786.661 353.235 786.232C353.165 786.009 353.15 785.752 353.144 785.508C353.131 784.769 353.131 784.034 353.131 783.296C353.131 740.2 353.131 697.105 353.131 654.014C353.131 653.275 353.116 652.536 353.144 651.801C353.18 650.83 353.449 650.474 354.061 650.513C354.583 650.547 354.809 650.861 354.837 651.697C354.864 652.432 354.852 653.17 354.852 653.909C354.858 675.538 354.858 697.168 354.858 718.797Z" fill="#FAFAFA"/>
<path d="M0.0789367 650.515C0.0487549 648.9 -0.00557248 647.288 0.000463888 645.673C0.00348207 644.116 0.0910095 644.048 1.55785 644.007C2.03472 643.993 2.51461 644.004 2.99149 644.004C35.0356 644.01 67.0827 644.017 99.1267 644.031C133.634 644.044 168.138 644.061 202.645 644.072C243.776 644.085 284.911 644.095 326.043 644.109C336.498 644.112 346.95 644.122 357.405 644.129C359.977 644.133 359.98 644.136 359.995 647.068C360.001 648.065 360.007 649.066 359.983 650.064C359.97 650.603 359.684 650.908 359.204 650.929C358.591 650.956 357.975 650.956 357.36 650.956C349.023 650.956 340.687 650.956 332.351 650.959C331.6 650.959 330.848 650.986 330.096 651C329.55 650.98 329.007 650.946 328.461 650.946C310.505 650.942 292.55 650.942 274.592 650.942C274.251 650.942 273.91 650.963 273.569 650.973C273.291 650.718 272.965 650.63 272.615 650.627C272.069 650.623 271.523 650.623 270.976 650.623C254.787 650.623 238.6 650.627 222.411 650.623C183.953 650.61 145.498 650.593 107.04 650.576C72.1411 650.566 37.2358 650.552 2.3305 650.539C1.57898 650.539 0.830465 650.525 0.0789367 650.515Z" fill="#330A34"/>
</g>
<defs>
<linearGradient id="paint0_linear_1260_3827" x1="299.707" y1="373" x2="387.661" y2="371.926" gradientUnits="userSpaceOnUse">
<stop stop-color="#9D2191"/>
<stop offset="1" stop-color="#CB9EC6"/>
</linearGradient>
<linearGradient id="paint1_linear_1260_3827" x1="-18.1682" y1="373" x2="65.6969" y2="372.023" gradientUnits="userSpaceOnUse">
<stop stop-color="#9D2191"/>
<stop offset="1" stop-color="#CB9EC6"/>
</linearGradient>
<linearGradient id="paint2_linear_1260_3827" x1="-19.5" y1="45" x2="362.263" y2="115.467" gradientUnits="userSpaceOnUse">
<stop stop-color="#AB259F"/>
<stop offset="1" stop-color="#31092C"/>
</linearGradient>
<linearGradient id="paint3_linear_1260_3827" x1="179.5" y1="90" x2="179.5" y2="644" gradientUnits="userSpaceOnUse">
<stop stop-color="#C362B9"/>
<stop offset="1" stop-color="#250121"/>
</linearGradient>
<clipPath id="clip0_1260_3827">
<rect width="360" height="800" fill="white"/>
</clipPath>
</defs>
</svg>
