<svg width="360" height="800" viewBox="0 0 360 800" fill="none" xmlns="http://www.w3.org/2000/svg">
<g clip-path="url(#clip0_1260_4265)">
<rect width="360" height="800" fill="url(#paint0_linear_1260_4265)"/>
<path opacity="0.43" d="M308.5 724C389.962 724 456 657.962 456 576.5C456 495.038 389.962 429 308.5 429C227.038 429 161 495.038 161 576.5C161 657.962 227.038 724 308.5 724Z" fill="url(#paint1_radial_1260_4265)"/>
<path opacity="0.21" d="M52.58 383.16C158.387 383.16 244.16 297.387 244.16 191.58C244.16 85.7733 158.387 0 52.58 0C-53.2267 0 -139 85.7733 -139 191.58C-139 297.387 -53.2267 383.16 52.58 383.16Z" fill="url(#paint2_radial_1260_4265)"/>
<path opacity="0.43" d="M52.5 615C111.871 615 160 566.871 160 507.5C160 448.129 111.871 400 52.5 400C-6.87059 400 -55 448.129 -55 507.5C-55 566.871 -6.87059 615 52.5 615Z" fill="url(#paint3_radial_1260_4265)"/>
<g opacity="0.8267">
<path d="M80.8962 290.674C80.1503 289.928 93.3623 275.505 110.405 258.462C127.448 241.418 141.872 228.201 142.618 228.952C143.364 229.698 130.152 244.122 113.109 261.165C96.0655 278.208 81.6422 291.42 80.8962 290.674Z" fill="url(#paint4_radial_1260_4265)"/>
<path d="M53.0581 318.148C51.6199 316.71 77.0711 288.938 109.898 256.105C142.725 223.278 170.504 197.832 171.942 199.265C173.38 200.697 147.929 228.481 115.102 261.308C82.2688 294.135 54.4903 319.587 53.0581 318.148Z" fill="url(#paint5_radial_1260_4265)"/>
</g>
<g opacity="0.8267">
<path d="M74.098 163.884C73.5338 163.32 83.5261 152.411 96.4158 139.522C109.306 126.632 120.214 116.635 120.778 117.204C121.342 117.768 111.35 128.676 98.4603 141.566C85.5706 154.456 74.6621 164.448 74.098 163.884Z" fill="url(#paint6_radial_1260_4265)"/>
<path d="M53.0439 184.663C51.9562 183.575 71.2051 162.571 96.0322 137.739C120.859 112.912 141.868 93.6674 142.956 94.7506C144.044 95.8338 124.795 116.847 99.9678 141.674C75.1361 166.502 54.1271 185.75 53.0439 184.663Z" fill="url(#paint7_radial_1260_4265)"/>
</g>
<g opacity="0.8267">
<path d="M225.6 151.188C224.835 150.423 238.38 135.636 255.853 118.163C273.325 100.691 288.112 87.1394 288.877 87.9102C289.642 88.675 276.097 103.462 258.624 120.935C241.151 138.407 226.364 151.952 225.6 151.188Z" fill="url(#paint8_radial_1260_4265)"/>
<path d="M197.06 179.355C195.585 177.881 221.678 149.408 255.333 115.747C288.987 82.0926 317.466 56.0058 318.94 57.4741C320.415 58.9424 294.322 87.4274 260.667 121.082C227.007 154.737 198.528 180.829 197.06 179.355Z" fill="url(#paint9_radial_1260_4265)"/>
</g>
<path d="M253.036 296.252C252.446 295.662 262.883 284.269 276.345 270.807C289.808 257.344 301.201 246.903 301.79 247.497C302.38 248.086 291.943 259.479 278.481 272.942C265.018 286.404 253.625 296.841 253.036 296.252Z" fill="url(#paint10_radial_1260_4265)"/>
<path d="M231.046 317.954C229.91 316.818 250.014 294.88 275.945 268.944C301.875 243.014 323.818 222.914 324.954 224.046C326.09 225.177 305.986 247.124 280.055 273.055C254.12 298.985 232.177 319.09 231.046 317.954Z" fill="url(#paint11_radial_1260_4265)"/>
<path d="M205.552 620.988C204.869 620.304 216.97 607.093 232.581 591.482C248.192 575.871 261.404 563.764 262.087 564.453C262.77 565.136 250.668 578.347 235.057 593.958C219.447 609.569 206.235 621.671 205.552 620.988Z" fill="url(#paint12_radial_1260_4265)"/>
<path d="M180.053 646.153C178.736 644.836 202.048 619.397 232.117 589.323C262.185 559.255 287.63 535.948 288.947 537.26C290.264 538.572 266.952 564.021 236.883 594.09C206.809 624.158 181.365 647.471 180.053 646.153Z" fill="url(#paint13_radial_1260_4265)"/>
<path d="M45.552 690.781C44.8688 690.097 56.9705 676.886 72.5814 661.275C88.1923 645.664 101.404 633.557 102.087 634.246C102.77 634.929 90.6683 648.14 75.0575 663.751C59.4466 679.362 46.2353 691.464 45.552 690.781Z" fill="url(#paint14_radial_1260_4265)"/>
<path d="M20.0532 715.946C18.7359 714.629 42.0484 689.19 72.1168 659.116C102.185 629.048 127.63 605.741 128.947 607.053C130.264 608.365 106.952 633.814 76.8832 663.883C46.8093 693.951 21.365 717.264 20.0532 715.946Z" fill="url(#paint15_radial_1260_4265)"/>
<path d="M57.1655 553.629C56.3856 552.849 70.1987 537.77 88.0172 519.951C105.836 502.133 120.915 488.313 121.695 489.099C122.475 489.879 108.662 504.959 90.8434 522.777C73.0249 540.596 57.9453 554.409 57.1655 553.629Z" fill="url(#paint16_radial_1260_4265)"/>
<path d="M28.0607 582.353C26.5571 580.85 53.1664 551.813 87.487 517.486C121.808 483.166 150.85 456.563 152.354 458.06C153.857 459.558 127.248 488.606 92.9274 522.927C58.6005 557.247 29.5581 583.857 28.0607 582.353Z" fill="url(#paint17_radial_1260_4265)"/>
<path d="M193.242 478.975C193.19 477.619 210.436 458.288 231.761 435.801C253.086 413.314 270.421 396.174 270.469 397.539C270.522 398.894 253.275 418.226 231.95 440.713C210.625 463.199 193.294 480.33 193.242 478.975Z" fill="url(#paint18_radial_1260_4265)"/>
<path d="M158.625 515.135C158.524 512.521 191.741 475.3 232.818 431.979C273.892 388.666 307.271 355.674 307.376 358.278C307.48 360.882 274.256 398.121 233.182 441.434C192.104 484.745 158.721 517.746 158.625 515.135Z" fill="url(#paint19_radial_1260_4265)"/>
<g filter="url(#filter0_f_1260_4265)">
<path d="M223.716 -3.05886C239.337 -18.6798 264.663 -18.6798 280.284 -3.05888L319.059 35.7157C334.68 51.3367 334.68 76.6633 319.059 92.2843L280.284 131.059C264.663 146.68 239.337 146.68 223.716 131.059L184.941 92.2843C169.32 76.6633 169.32 51.3367 184.941 35.7157L223.716 -3.05886Z" stroke="#FEFFAC" stroke-width="8"/>
</g>
<g filter="url(#filter1_f_1260_4265)">
<path d="M24.2157 314.941C39.8367 299.32 65.1633 299.32 80.7843 314.941L138.059 372.216C153.68 387.837 153.68 413.163 138.059 428.784L80.7843 486.059C65.1633 501.68 39.8367 501.68 24.2157 486.059L-33.0589 428.784C-48.6798 413.163 -48.6798 387.837 -33.0589 372.216L24.2157 314.941Z" stroke="#989898" stroke-width="8"/>
</g>
<g filter="url(#filter2_f_1260_4265)">
<path d="M296.887 267.113C314.07 249.93 341.93 249.93 359.113 267.113L397.887 305.887C415.07 323.07 415.07 350.93 397.887 368.113L359.113 406.887C341.93 424.07 314.07 424.07 296.887 406.887L258.113 368.113C240.93 350.93 240.93 323.07 258.113 305.887L296.887 267.113Z" fill="#4CC460"/>
<path d="M299.716 269.941C315.337 254.32 340.663 254.32 356.284 269.941L395.059 308.716C410.68 324.337 410.68 349.663 395.059 365.284L356.284 404.059C340.663 419.68 315.337 419.68 299.716 404.059L260.941 365.284C245.32 349.663 245.32 324.337 260.941 308.716L299.716 269.941Z" stroke="#FEFFAC" stroke-width="8"/>
</g>
<g opacity="0.79">
<path d="M16.1065 226.232C16.0654 226.078 15.9833 225.923 15.8602 225.846C15.7372 225.769 15.5936 225.743 15.4705 225.794L11.3673 227.313L9.5414 226.129L12.6188 224.971C12.8855 224.868 13.0496 224.507 12.9676 224.172C12.9265 224.018 12.8444 223.863 12.7213 223.786C12.5982 223.709 12.4546 223.683 12.3315 223.735L8.22839 225.254L4.67918 222.962L8.16685 220.336L12.2905 221.546C12.5572 221.623 12.8445 221.418 12.906 221.057C12.947 220.877 12.906 220.722 12.8444 220.568C12.7624 220.413 12.6598 220.31 12.5162 220.285L9.43884 219.384L11.2032 218.045L15.3269 219.255C15.5936 219.332 15.8808 219.126 15.9423 218.766C15.9834 218.585 15.9423 218.431 15.8808 218.276C15.7987 218.122 15.6961 218.019 15.5525 217.993L12.4752 217.092L14.1164 215.856C14.2395 215.779 14.3216 215.625 14.3421 215.47C14.3831 215.316 14.3626 215.135 14.2806 214.981C14.219 214.826 14.0959 214.723 13.9728 214.698C13.8292 214.646 13.7061 214.672 13.583 214.775L11.9212 216.037L12.7624 212.149C12.8444 211.814 12.6803 211.454 12.3931 211.351C12.1264 211.248 11.8392 211.454 11.7571 211.814L10.6288 216.989L8.86441 218.328L9.70553 214.44C9.78759 214.106 9.62348 213.745 9.33626 213.642C9.06956 213.539 8.78234 213.745 8.70028 214.106L7.57191 219.281L4.0432 221.932V216.912L6.99747 213.076C7.20263 212.818 7.18209 212.406 6.97693 212.175C6.77177 211.917 6.44354 211.943 6.2589 212.2L4.0432 215.084V212.484L6.99747 208.647C7.20263 208.39 7.18209 207.978 6.97693 207.746C6.77177 207.489 6.44354 207.514 6.2589 207.772L4.0432 210.656V208.029C4.0432 207.669 3.81752 207.386 3.5303 207.386C3.24308 207.386 3.01741 207.669 3.01741 208.029V210.656L0.82221 207.772C0.617053 207.514 0.309336 207.514 0.104178 207.746C-0.100979 208.004 -0.100967 208.39 0.0836744 208.647L3.01741 212.484V215.058L0.82221 212.175C0.617053 211.917 0.309336 211.917 0.104178 212.149C0.00160027 212.278 -0.0599508 212.432 -0.0599508 212.612C-0.0599508 212.792 -0.0189047 212.947 0.0836744 213.076L3.01741 216.912V221.881L-0.572845 219.564L-1.92689 214.492C-1.96792 214.337 -2.07048 214.209 -2.19357 214.131C-2.31667 214.054 -2.46028 214.054 -2.58338 214.106C-2.85008 214.209 -2.9937 214.595 -2.91164 214.929L-1.88585 218.74L-3.71175 217.556L-5.06579 212.484C-5.10683 212.329 -5.20941 212.2 -5.33251 212.123C-5.4556 212.046 -5.59919 212.046 -5.72228 212.097C-5.84538 212.149 -5.94795 212.278 -6.0095 212.432C-6.07105 212.587 -6.07107 212.767 -6.03004 212.921L-5.00425 216.732L-6.85065 215.522C-6.97375 215.444 -7.11736 215.419 -7.24046 215.47C-7.36355 215.522 -7.48663 215.625 -7.54818 215.779C-7.60973 215.934 -7.63025 216.114 -7.58922 216.268C-7.54819 216.423 -7.46614 216.577 -7.34304 216.654L-5.49661 217.865L-8.55346 218.997C-8.82017 219.1 -8.98429 219.461 -8.90223 219.796C-8.82016 220.13 -8.53295 220.336 -8.26624 220.233L-4.1836 218.714L-2.3577 219.898L-5.41456 221.031C-5.68126 221.134 -5.84539 221.495 -5.76332 221.829C-5.68126 222.164 -5.39404 222.37 -5.12734 222.267L-1.0447 220.748L2.54556 223.065L-0.901103 225.666L-5.04526 224.456C-5.31196 224.378 -5.59919 224.584 -5.66074 224.945C-5.72228 225.279 -5.55815 225.64 -5.27093 225.717L-2.15256 226.618L-3.91692 227.957L-8.06107 226.747C-8.20468 226.696 -8.32778 226.747 -8.45088 226.824C-8.57397 226.927 -8.65604 227.056 -8.67655 227.236C-8.7381 227.571 -8.57397 227.931 -8.28675 228.009L-5.16838 228.91L-6.95324 230.249C-7.19943 230.429 -7.28148 230.841 -7.13787 231.124C-6.99426 231.407 -6.66602 231.51 -6.44035 231.356L-4.65549 230.017L-5.49661 233.879C-5.53764 234.033 -5.51715 234.213 -5.4556 234.368C-5.39405 234.522 -5.27094 234.625 -5.14784 234.677C-4.88114 234.78 -4.59392 234.548 -4.51186 234.213L-3.40403 229.064L-1.63967 227.725L-2.48079 231.587C-2.56285 231.922 -2.39874 232.283 -2.11152 232.385C-1.84482 232.488 -1.5576 232.257 -1.47554 231.922L-0.367674 226.773L3.01741 224.224V229.399L0.0836744 233.209C-0.0189047 233.338 -0.0599508 233.493 -0.0599508 233.673C-0.0599508 233.853 0.00160027 234.007 0.104178 234.136C0.309336 234.394 0.637569 234.368 0.82221 234.11L3.01741 231.253V233.853L0.0836744 237.663C-0.0189047 237.792 -0.0599508 237.947 -0.0599508 238.127C-0.0599508 238.307 0.00160027 238.462 0.104178 238.59C0.206758 238.719 0.329848 238.771 0.452943 238.771C0.596553 238.771 0.719632 238.693 0.82221 238.565L3.01741 235.707V238.101C3.01741 238.462 3.24308 238.745 3.5303 238.745C3.81752 238.745 4.0432 238.462 4.0432 238.101V235.655L6.2589 238.565C6.46406 238.822 6.77177 238.822 6.97693 238.59C7.18209 238.333 7.18211 237.947 6.99747 237.689L4.0432 233.827V231.253L6.2589 234.162C6.44354 234.419 6.79229 234.419 6.97693 234.188C7.18209 233.93 7.18211 233.544 6.99747 233.287L4.0432 229.399V224.095L7.77707 226.515L9.13109 231.536C9.19264 231.793 9.39781 231.974 9.62348 231.974C9.68503 231.974 9.72606 231.974 9.78761 231.948C9.9107 231.896 10.0133 231.768 10.0748 231.613C10.1364 231.459 10.1364 231.278 10.0953 231.124L9.09008 227.365L10.916 228.549L12.27 233.57C12.3521 233.905 12.6598 234.085 12.9265 233.982C13.0496 233.93 13.1522 233.802 13.2137 233.647C13.2753 233.493 13.2753 233.312 13.2342 233.158L12.229 229.399L13.9113 230.506C13.9933 230.557 14.0754 230.583 14.1369 230.583C14.3216 230.583 14.5062 230.454 14.5883 230.223C14.6498 230.068 14.6704 229.888 14.6293 229.734C14.5883 229.579 14.5062 229.425 14.3831 229.347L12.6598 228.24L15.7372 227.082C16.0244 226.953 16.1885 226.593 16.1065 226.232Z" fill="white"/>
<path d="M146.095 481.403C146.054 481.249 145.972 481.094 145.849 481.017C145.726 480.94 145.582 480.914 145.459 480.965L141.356 482.484L139.53 481.3L142.607 480.141C142.874 480.038 143.038 479.678 142.956 479.343C142.915 479.189 142.833 479.034 142.71 478.957C142.587 478.88 142.443 478.854 142.32 478.906L138.217 480.425L134.668 478.133L138.155 475.507L142.279 476.717C142.546 476.794 142.833 476.588 142.894 476.228C142.935 476.048 142.894 475.893 142.833 475.739C142.751 475.584 142.648 475.481 142.505 475.456L139.427 474.554L141.192 473.216L145.315 474.426C145.582 474.503 145.869 474.297 145.931 473.937C145.972 473.756 145.931 473.602 145.869 473.447C145.787 473.293 145.685 473.19 145.541 473.164L142.464 472.263L144.105 471.027C144.228 470.95 144.31 470.796 144.331 470.641C144.372 470.487 144.351 470.306 144.269 470.152C144.207 469.997 144.084 469.894 143.961 469.869C143.818 469.817 143.695 469.843 143.571 469.946L141.91 471.207L142.751 467.32C142.833 466.985 142.669 466.625 142.382 466.522C142.115 466.419 141.828 466.625 141.746 466.985L140.617 472.16L138.853 473.499L139.694 469.611C139.776 469.276 139.612 468.916 139.325 468.813C139.058 468.71 138.771 468.916 138.689 469.276L137.56 474.451L134.032 477.103V472.083L136.986 468.247C137.191 467.989 137.171 467.577 136.965 467.345C136.76 467.088 136.432 467.114 136.247 467.371L134.032 470.255V467.654L136.986 463.818C137.191 463.561 137.171 463.149 136.965 462.917C136.76 462.66 136.432 462.685 136.247 462.943L134.032 465.826V463.2C134.032 462.84 133.806 462.557 133.519 462.557C133.232 462.557 133.006 462.84 133.006 463.2V465.826L130.811 462.943C130.606 462.685 130.298 462.685 130.093 462.917C129.887 463.175 129.887 463.561 130.072 463.818L133.006 467.654V470.229L130.811 467.345C130.606 467.088 130.298 467.088 130.093 467.32C129.99 467.448 129.928 467.603 129.928 467.783C129.928 467.963 129.97 468.118 130.072 468.247L133.006 472.083V477.052L129.416 474.735L128.062 469.663C128.021 469.508 127.918 469.379 127.795 469.302C127.672 469.225 127.528 469.225 127.405 469.276C127.138 469.379 126.995 469.766 127.077 470.1L128.103 473.911L126.277 472.726L124.923 467.654C124.882 467.5 124.779 467.371 124.656 467.294C124.533 467.217 124.389 467.217 124.266 467.268C124.143 467.32 124.04 467.448 123.979 467.603C123.917 467.757 123.917 467.938 123.958 468.092L124.984 471.903L123.138 470.693C123.015 470.615 122.871 470.59 122.748 470.641C122.625 470.693 122.502 470.796 122.44 470.95C122.379 471.104 122.358 471.285 122.399 471.439C122.44 471.594 122.522 471.748 122.645 471.825L124.492 473.035L121.435 474.168C121.168 474.271 121.004 474.632 121.086 474.966C121.168 475.301 121.455 475.507 121.722 475.404L125.805 473.885L127.631 475.069L124.574 476.202C124.307 476.305 124.143 476.666 124.225 477C124.307 477.335 124.594 477.541 124.861 477.438L128.944 475.919L132.534 478.236L129.087 480.837L124.943 479.627C124.676 479.549 124.389 479.755 124.328 480.116C124.266 480.45 124.43 480.811 124.718 480.888L127.836 481.789L126.072 483.128L121.927 481.918C121.784 481.866 121.661 481.918 121.538 481.995C121.414 482.098 121.332 482.227 121.312 482.407C121.25 482.742 121.414 483.102 121.702 483.18L124.82 484.081L123.035 485.419C122.789 485.6 122.707 486.012 122.851 486.295C122.994 486.578 123.322 486.681 123.548 486.527L125.333 485.188L124.492 489.05C124.451 489.204 124.471 489.384 124.533 489.539C124.594 489.693 124.718 489.796 124.841 489.848C125.107 489.951 125.395 489.719 125.477 489.384L126.584 484.235L128.349 482.896L127.508 486.758C127.426 487.093 127.59 487.453 127.877 487.556C128.144 487.659 128.431 487.428 128.513 487.093L129.621 481.944L133.006 479.395V484.57L130.072 488.38C129.97 488.509 129.928 488.663 129.928 488.844C129.928 489.024 129.99 489.178 130.093 489.307C130.298 489.565 130.626 489.539 130.811 489.281L133.006 486.424V489.024L130.072 492.834C129.97 492.963 129.928 493.118 129.928 493.298C129.928 493.478 129.99 493.633 130.093 493.761C130.195 493.89 130.318 493.941 130.441 493.941C130.585 493.941 130.708 493.864 130.811 493.735L133.006 490.878V493.272C133.006 493.632 133.232 493.916 133.519 493.916C133.806 493.916 134.032 493.632 134.032 493.272V490.826L136.247 493.735C136.453 493.993 136.76 493.993 136.965 493.761C137.171 493.504 137.171 493.118 136.986 492.86L134.032 488.998V486.424L136.247 489.333C136.432 489.59 136.781 489.59 136.965 489.359C137.171 489.101 137.171 488.715 136.986 488.457L134.032 484.596V479.292L137.766 481.712L139.12 486.733C139.181 486.99 139.386 487.17 139.612 487.17C139.673 487.17 139.715 487.17 139.776 487.144C139.899 487.093 140.002 486.964 140.063 486.81C140.125 486.655 140.125 486.475 140.084 486.321L139.079 482.562L140.904 483.746L142.258 488.766C142.341 489.101 142.648 489.281 142.915 489.178C143.038 489.127 143.141 488.998 143.202 488.844C143.264 488.689 143.264 488.509 143.223 488.354L142.217 484.596L143.9 485.703C143.982 485.754 144.064 485.78 144.125 485.78C144.31 485.78 144.495 485.651 144.577 485.419C144.638 485.265 144.659 485.085 144.618 484.93C144.577 484.776 144.495 484.621 144.372 484.544L142.648 483.437L145.726 482.278C146.013 482.098 146.177 481.738 146.095 481.403Z" fill="white"/>
<path d="M281.088 265.984C281.047 265.83 280.965 265.675 280.842 265.598C280.719 265.521 280.575 265.495 280.452 265.546L276.349 267.065L274.523 265.881L277.6 264.722C277.867 264.619 278.031 264.259 277.949 263.924C277.908 263.77 277.826 263.615 277.703 263.538C277.58 263.461 277.436 263.435 277.313 263.487L273.21 265.006L269.661 262.714L273.149 260.088L277.272 261.298C277.539 261.375 277.826 261.169 277.888 260.809C277.929 260.629 277.888 260.474 277.826 260.32C277.744 260.165 277.641 260.062 277.498 260.037L274.42 259.136L276.185 257.797L280.308 259.007C280.575 259.084 280.862 258.878 280.924 258.518C280.965 258.337 280.924 258.183 280.862 258.028C280.78 257.874 280.678 257.771 280.534 257.745L277.457 256.844L279.098 255.608C279.221 255.531 279.303 255.377 279.324 255.222C279.365 255.068 279.344 254.887 279.262 254.733C279.201 254.578 279.078 254.475 278.954 254.45C278.811 254.398 278.688 254.424 278.565 254.527L276.903 255.788L277.744 251.901C277.826 251.566 277.662 251.206 277.375 251.103C277.108 251 276.821 251.206 276.739 251.566L275.61 256.741L273.846 258.08L274.687 254.192C274.769 253.858 274.605 253.497 274.318 253.394C274.051 253.291 273.764 253.497 273.682 253.858L272.554 259.033L269.025 261.684V256.664L271.979 252.828C272.184 252.57 272.164 252.158 271.959 251.927C271.753 251.669 271.425 251.695 271.24 251.952L269.025 254.836V252.235L271.979 248.399C272.184 248.142 272.164 247.73 271.959 247.498C271.753 247.241 271.425 247.266 271.24 247.524L269.025 250.407V247.781C269.025 247.421 268.799 247.138 268.512 247.138C268.225 247.138 267.999 247.421 267.999 247.781V250.407L265.804 247.524C265.599 247.266 265.291 247.266 265.086 247.498C264.881 247.756 264.881 248.142 265.065 248.399L267.999 252.235V254.81L265.804 251.927C265.599 251.669 265.291 251.669 265.086 251.901C264.983 252.029 264.922 252.184 264.922 252.364C264.922 252.544 264.963 252.699 265.065 252.828L267.999 256.664V261.633L264.409 259.316L263.055 254.244C263.014 254.089 262.911 253.96 262.788 253.883C262.665 253.806 262.521 253.806 262.398 253.858C262.132 253.96 261.988 254.347 262.07 254.681L263.096 258.492L261.27 257.308L259.916 252.235C259.875 252.081 259.772 251.952 259.649 251.875C259.526 251.798 259.382 251.798 259.259 251.849C259.136 251.901 259.034 252.029 258.972 252.184C258.911 252.338 258.911 252.519 258.952 252.673L259.977 256.484L258.131 255.274C258.008 255.196 257.864 255.171 257.741 255.222C257.618 255.274 257.495 255.377 257.433 255.531C257.372 255.685 257.351 255.866 257.392 256.02C257.433 256.175 257.515 256.329 257.639 256.406L259.485 257.616L256.428 258.749C256.161 258.852 255.997 259.213 256.079 259.547C256.161 259.882 256.449 260.088 256.715 259.985L260.798 258.466L262.624 259.65L259.567 260.783C259.3 260.886 259.136 261.247 259.218 261.581C259.3 261.916 259.588 262.122 259.854 262.019L263.937 260.5L267.527 262.817L264.081 265.418L259.936 264.208C259.67 264.13 259.382 264.336 259.321 264.697C259.259 265.031 259.423 265.392 259.711 265.469L262.829 266.37L261.065 267.709L256.921 266.499C256.777 266.447 256.654 266.499 256.531 266.576C256.408 266.679 256.326 266.808 256.305 266.988C256.243 267.323 256.408 267.683 256.695 267.761L259.813 268.662L258.028 270C257.782 270.181 257.7 270.593 257.844 270.876C257.987 271.159 258.316 271.262 258.541 271.108L260.326 269.769L259.485 273.631C259.444 273.785 259.464 273.965 259.526 274.12C259.588 274.274 259.711 274.377 259.834 274.429C260.1 274.532 260.388 274.3 260.47 273.965L261.578 268.816L263.342 267.477L262.501 271.339C262.419 271.674 262.583 272.034 262.87 272.137C263.137 272.24 263.424 272.009 263.506 271.674L264.614 266.525L267.999 263.976V269.151L265.065 272.961C264.963 273.09 264.922 273.244 264.922 273.425C264.922 273.605 264.983 273.759 265.086 273.888C265.291 274.146 265.619 274.12 265.804 273.862L267.999 271.005V273.605L265.065 277.415C264.963 277.544 264.922 277.699 264.922 277.879C264.922 278.059 264.983 278.214 265.086 278.342C265.188 278.471 265.311 278.523 265.435 278.523C265.578 278.523 265.701 278.445 265.804 278.317L267.999 275.459V277.853C267.999 278.214 268.225 278.497 268.512 278.497C268.799 278.497 269.025 278.214 269.025 277.853V275.407L271.24 278.317C271.446 278.574 271.753 278.574 271.959 278.342C272.164 278.085 272.164 277.699 271.979 277.441L269.025 273.579V271.005L271.24 273.914C271.425 274.171 271.774 274.171 271.959 273.94C272.164 273.682 272.164 273.296 271.979 273.039L269.025 269.177V263.873L272.759 266.293L274.113 271.314C274.174 271.571 274.379 271.751 274.605 271.751C274.667 271.751 274.708 271.751 274.769 271.725C274.892 271.674 274.995 271.545 275.056 271.391C275.118 271.236 275.118 271.056 275.077 270.902L274.072 267.143L275.898 268.327L277.252 273.347C277.334 273.682 277.641 273.862 277.908 273.759C278.031 273.708 278.134 273.579 278.195 273.425C278.257 273.27 278.257 273.09 278.216 272.936L277.211 269.177L278.893 270.284C278.975 270.335 279.057 270.361 279.119 270.361C279.303 270.361 279.488 270.232 279.57 270C279.631 269.846 279.652 269.666 279.611 269.511C279.57 269.357 279.488 269.202 279.365 269.125L277.641 268.018L280.719 266.859C281.006 266.679 281.17 266.319 281.088 265.984Z" fill="white"/>
<path d="M361.079 56.8463C361.038 56.6919 360.956 56.5374 360.833 56.4601C360.71 56.3829 360.567 56.3572 360.443 56.4087L356.34 57.9277L354.514 56.7434L357.592 55.5848C357.858 55.4818 358.023 55.1214 357.941 54.7866C357.9 54.6322 357.817 54.4777 357.694 54.4004C357.571 54.3232 357.428 54.2975 357.305 54.3489L353.201 55.868L349.652 53.5766L353.14 50.9504L357.264 52.1605C357.53 52.2377 357.817 52.0318 357.879 51.6713C357.92 51.4911 357.879 51.3366 357.817 51.1822C357.735 51.0277 357.633 50.9247 357.489 50.8989L354.412 49.9978L356.176 48.659L360.3 49.8691C360.567 49.9463 360.854 49.7403 360.915 49.3799C360.956 49.1997 360.915 49.0452 360.854 48.8907C360.772 48.7362 360.669 48.6333 360.526 48.6075L357.448 47.7064L359.089 46.4706C359.213 46.3933 359.295 46.2388 359.315 46.0844C359.356 45.9299 359.336 45.7497 359.254 45.5952C359.192 45.4407 359.069 45.3377 358.946 45.312C358.802 45.2605 358.679 45.2862 358.556 45.3892L356.894 46.6508L357.735 42.7631C357.817 42.4284 357.653 42.0679 357.366 41.9649C357.099 41.862 356.812 42.0679 356.73 42.4284L355.602 47.6034L353.837 48.9422L354.679 45.0545C354.761 44.7198 354.597 44.3594 354.309 44.2564C354.043 44.1534 353.755 44.3594 353.673 44.7198L352.545 49.8948L349.016 52.5467V47.5262L351.97 43.6899C352.176 43.4325 352.155 43.0205 351.95 42.7888C351.745 42.5314 351.417 42.5571 351.232 42.8146L349.016 45.6982V43.0978L351.97 39.2616C352.176 39.0041 352.155 38.5922 351.95 38.3604C351.745 38.103 351.417 38.1287 351.232 38.3862L349.016 41.2698V38.6437C349.016 38.2832 348.791 38 348.503 38C348.216 38 347.99 38.2832 347.99 38.6437V41.2698L345.795 38.3862C345.59 38.1287 345.282 38.1287 345.077 38.3604C344.872 38.6179 344.872 39.0041 345.057 39.2616L347.99 43.0978V45.6724L345.795 42.7888C345.59 42.5314 345.282 42.5314 345.077 42.7631C344.975 42.8918 344.913 43.0463 344.913 43.2265C344.913 43.4067 344.954 43.5612 345.057 43.6899L347.99 47.5262V52.4952L344.4 50.178L343.046 45.106C343.005 44.9515 342.902 44.8228 342.779 44.7456C342.656 44.6683 342.513 44.6683 342.39 44.7198C342.123 44.8228 341.979 45.209 342.061 45.5437L343.087 49.3542L341.261 48.1698L339.907 43.0978C339.866 42.9433 339.764 42.8146 339.64 42.7373C339.517 42.6601 339.374 42.6601 339.251 42.7116C339.128 42.7631 339.025 42.8918 338.963 43.0463C338.902 43.2008 338.902 43.381 338.943 43.5355L339.969 47.3459L338.122 46.1359C337.999 46.0586 337.856 46.0329 337.733 46.0844C337.609 46.1359 337.486 46.2388 337.425 46.3933C337.363 46.5478 337.343 46.728 337.384 46.8825C337.425 47.037 337.507 47.1915 337.63 47.2687L339.476 48.4788L336.42 49.6116C336.153 49.7146 335.989 50.075 336.071 50.4098C336.153 50.7445 336.44 50.9504 336.707 50.8474L340.789 49.3284L342.615 50.5127L339.558 51.6456C339.292 51.7486 339.128 52.109 339.21 52.4437C339.292 52.7784 339.579 52.9844 339.846 52.8814L343.928 51.3624L347.519 53.6796L344.072 56.2799L339.928 55.0699C339.661 54.9926 339.374 55.1986 339.312 55.559C339.251 55.8937 339.415 56.2542 339.702 56.3314L342.82 57.2325L341.056 58.5714L336.912 57.3613C336.768 57.3098 336.645 57.3613 336.522 57.4385C336.399 57.5415 336.317 57.6702 336.296 57.8505C336.235 58.1852 336.399 58.5456 336.686 58.6229L339.805 59.524L338.02 60.8628C337.774 61.043 337.692 61.455 337.835 61.7382C337.979 62.0214 338.307 62.1244 338.533 61.9699L340.318 60.6311L339.476 64.493C339.435 64.6475 339.456 64.8277 339.517 64.9822C339.579 65.1367 339.702 65.2397 339.825 65.2912C340.092 65.3941 340.379 65.1624 340.461 64.8277L341.569 59.6784L343.333 58.3396L342.492 62.2016C342.41 62.5363 342.574 62.8967 342.861 62.9997C343.128 63.1027 343.415 62.871 343.497 62.5363L344.605 57.387L347.99 54.8381V60.0132L345.057 63.8236C344.954 63.9523 344.913 64.1068 344.913 64.287C344.913 64.4673 344.975 64.6218 345.077 64.7505C345.282 65.0079 345.611 64.9822 345.795 64.7248L347.99 61.8669V64.4673L345.057 68.2777C344.954 68.4065 344.913 68.561 344.913 68.7412C344.913 68.9214 344.975 69.0759 345.077 69.2046C345.18 69.3333 345.303 69.3848 345.426 69.3848C345.57 69.3848 345.693 69.3076 345.795 69.1789L347.99 66.321V68.7154C347.99 69.0759 348.216 69.3591 348.503 69.3591C348.791 69.3591 349.016 69.0759 349.016 68.7154V66.2695L351.232 69.1789C351.437 69.4363 351.745 69.4363 351.95 69.2046C352.155 68.9472 352.155 68.561 351.97 68.3035L349.016 64.4415V61.8669L351.232 64.7762C351.417 65.0337 351.765 65.0337 351.95 64.802C352.155 64.5445 352.155 64.1583 351.97 63.9009L349.016 60.0389V54.7351L352.75 57.1553L354.104 62.1758C354.166 62.4333 354.371 62.6136 354.596 62.6136C354.658 62.6136 354.699 62.6135 354.761 62.5878C354.884 62.5363 354.986 62.4076 355.048 62.2531C355.109 62.0986 355.109 61.9184 355.068 61.7639L354.063 58.0049L355.889 59.1893L357.243 64.2098C357.325 64.5445 357.633 64.7247 357.9 64.6218C358.023 64.5703 358.125 64.4415 358.187 64.287C358.248 64.1326 358.248 63.9524 358.207 63.7979L357.202 60.0389L358.884 61.146C358.966 61.1975 359.048 61.2232 359.11 61.2232C359.295 61.2232 359.479 61.0945 359.561 60.8628C359.623 60.7083 359.643 60.5281 359.602 60.3736C359.561 60.2191 359.479 60.0646 359.356 59.9874L357.633 58.8803L360.71 57.7217C360.997 57.5415 361.162 57.181 361.079 56.8463Z" fill="white"/>
<path d="M352.75 608.977C352.709 608.823 352.627 608.668 352.504 608.591C352.381 608.514 352.237 608.488 352.114 608.54L348.011 610.059L346.185 608.874L349.262 607.716C349.529 607.613 349.693 607.252 349.611 606.918C349.57 606.763 349.488 606.609 349.365 606.531C349.242 606.454 349.098 606.428 348.975 606.48L344.872 607.999L341.323 605.707L344.81 603.081L348.934 604.291C349.201 604.369 349.488 604.163 349.549 603.802C349.59 603.622 349.549 603.468 349.488 603.313C349.406 603.159 349.303 603.056 349.16 603.03L346.082 602.129L347.847 600.79L351.97 602C352.237 602.077 352.524 601.871 352.586 601.511C352.627 601.331 352.586 601.176 352.524 601.022C352.442 600.867 352.34 600.764 352.196 600.738L349.119 599.837L350.76 598.601C350.883 598.524 350.965 598.37 350.985 598.215C351.027 598.061 351.006 597.881 350.924 597.726C350.862 597.572 350.739 597.469 350.616 597.443C350.473 597.391 350.349 597.417 350.226 597.52L348.565 598.782L349.406 594.894C349.488 594.559 349.324 594.199 349.037 594.096C348.77 593.993 348.483 594.199 348.401 594.559L347.272 599.734L345.508 601.073L346.349 597.185C346.431 596.851 346.267 596.49 345.98 596.387C345.713 596.284 345.426 596.49 345.344 596.851L344.215 602.026L340.687 604.678V599.657L343.641 595.821C343.846 595.563 343.825 595.151 343.62 594.92C343.415 594.662 343.087 594.688 342.902 594.945L340.687 597.829V595.229L343.641 591.392C343.846 591.135 343.825 590.723 343.62 590.491C343.415 590.234 343.087 590.26 342.902 590.517L340.687 593.401V590.775C340.687 590.414 340.461 590.131 340.174 590.131C339.886 590.131 339.661 590.414 339.661 590.775V593.401L337.466 590.517C337.26 590.26 336.953 590.26 336.748 590.491C336.542 590.723 336.542 591.135 336.727 591.392L339.661 595.229V597.803L337.466 594.92C337.26 594.662 336.953 594.662 336.748 594.894C336.645 595.023 336.583 595.177 336.583 595.357C336.583 595.538 336.624 595.692 336.727 595.821L339.661 599.657V604.626L336.071 602.309L334.717 597.237C334.675 597.082 334.573 596.954 334.45 596.876C334.327 596.799 334.183 596.799 334.06 596.851C333.793 596.954 333.65 597.34 333.732 597.675L334.758 601.485L332.932 600.301L331.578 595.229C331.537 595.074 331.434 594.946 331.311 594.868C331.188 594.791 331.044 594.791 330.921 594.842C330.798 594.894 330.695 595.023 330.634 595.177C330.572 595.332 330.572 595.512 330.613 595.666L331.639 599.477L329.793 598.267C329.67 598.189 329.526 598.164 329.403 598.215C329.28 598.267 329.157 598.37 329.095 598.524C329.034 598.679 329.013 598.859 329.054 599.013C329.095 599.168 329.177 599.322 329.3 599.4L331.147 600.61L328.09 601.743C327.823 601.845 327.659 602.206 327.741 602.541C327.823 602.875 328.11 603.081 328.377 602.978L332.46 601.459L334.286 602.644L331.229 603.776C330.962 603.879 330.798 604.24 330.88 604.575C330.962 604.909 331.249 605.115 331.516 605.012L335.599 603.493L339.189 605.81L335.742 608.411L331.598 607.201C331.331 607.123 331.044 607.329 330.983 607.69C330.921 608.025 331.085 608.385 331.372 608.462L334.491 609.363L332.726 610.702L328.582 609.492C328.439 609.441 328.316 609.492 328.193 609.569C328.069 609.672 327.987 609.801 327.967 609.981C327.905 610.316 328.069 610.676 328.357 610.754L331.475 611.655L329.69 612.994C329.444 613.174 329.362 613.586 329.506 613.869C329.649 614.152 329.977 614.255 330.203 614.101L331.988 612.762L331.147 616.624C331.106 616.778 331.126 616.959 331.188 617.113C331.249 617.268 331.372 617.371 331.496 617.422C331.762 617.525 332.05 617.293 332.132 616.959L333.239 611.809L335.004 610.471L334.163 614.333C334.081 614.667 334.245 615.028 334.532 615.131C334.799 615.234 335.086 615.002 335.168 614.667L336.276 609.518L339.661 606.969V612.144L336.727 615.954C336.624 616.083 336.583 616.238 336.583 616.418C336.583 616.598 336.645 616.753 336.748 616.881C336.953 617.139 337.281 617.113 337.466 616.856L339.661 613.998V616.598L336.727 620.409C336.624 620.537 336.583 620.692 336.583 620.872C336.583 621.052 336.645 621.207 336.748 621.336C336.85 621.464 336.973 621.516 337.096 621.516C337.24 621.516 337.363 621.438 337.466 621.31L339.661 618.452V620.846C339.661 621.207 339.886 621.49 340.174 621.49C340.461 621.49 340.687 621.207 340.687 620.846V618.4L342.902 621.31C343.107 621.567 343.415 621.567 343.62 621.336C343.825 621.078 343.826 620.692 343.641 620.434L340.687 616.572V613.998L342.902 616.907C343.087 617.165 343.436 617.165 343.62 616.933C343.825 616.675 343.826 616.289 343.641 616.032L340.687 612.17V606.866L344.42 609.286L345.775 614.307C345.836 614.564 346.041 614.744 346.267 614.744C346.328 614.744 346.369 614.744 346.431 614.719C346.554 614.667 346.657 614.538 346.718 614.384C346.78 614.23 346.78 614.049 346.739 613.895L345.733 610.136L347.559 611.32L348.913 616.341C348.995 616.675 349.303 616.856 349.57 616.753C349.693 616.701 349.796 616.572 349.857 616.418C349.919 616.263 349.919 616.083 349.878 615.929L348.872 612.17L350.555 613.277C350.637 613.328 350.719 613.354 350.78 613.354C350.965 613.354 351.15 613.225 351.232 612.994C351.293 612.839 351.314 612.659 351.273 612.504C351.232 612.35 351.15 612.196 351.027 612.118L349.303 611.011L352.381 609.853C352.668 609.672 352.832 609.312 352.75 608.977Z" fill="white"/>
<path d="M82.8247 235.63C78.5369 235.63 78.5369 243.997 82.8247 243.997C87.133 243.997 87.133 235.63 82.8247 235.63Z" fill="white"/>
<path d="M139.489 254.45C131.98 254.45 131.98 269.1 139.489 269.1C146.998 269.1 147.018 254.45 139.489 254.45Z" fill="white"/>
<path d="M1.17152 254.45C-1.9879 254.63 -4.65497 257.668 -4.65497 261.762V262.817C-4.65497 266.653 -1.96738 270.309 1.17152 270.129C4.33095 269.949 6.99799 266.911 6.99799 262.817V261.762C6.99799 257.951 4.33095 254.269 1.17152 254.45Z" fill="white"/>
<path d="M45.3419 420.719C37.8331 420.719 37.8331 435.368 45.3419 435.368C52.8507 435.368 52.8507 420.719 45.3419 420.719Z" fill="white"/>
<path d="M145.992 423.937C144.289 421.955 142.176 420.719 139.796 420.719H139.058C136.821 420.719 134.462 421.955 132.862 423.937C131.344 425.842 130.195 428.958 130.297 431.712C130.4 434.545 131.139 437.505 132.862 439.488C134.565 441.47 136.678 442.706 139.058 442.706H139.796C142.032 442.706 144.392 441.47 145.992 439.488C147.51 437.583 148.659 434.467 148.556 431.712C148.454 428.855 147.715 425.92 145.992 423.937Z" fill="white"/>
<path d="M19.5125 463.588C6.64915 463.588 6.62864 488.691 19.5125 488.691C32.3759 488.691 32.3964 463.588 19.5125 463.588Z" fill="white"/>
<path d="M144.494 614.178C131.631 614.178 131.61 639.28 144.494 639.28C157.358 639.28 157.378 614.178 144.494 614.178Z" fill="white"/>
<path d="M219.48 240.727C218.125 240.727 216.812 242.22 216.874 243.996C216.936 245.773 218.023 247.266 219.48 247.266C220.834 247.266 222.147 245.773 222.085 243.996C222.023 242.22 220.957 240.727 219.48 240.727Z" fill="white"/>
<path d="M370.886 303.24C370.639 302.725 370.393 302.21 370.168 301.695C369.47 300.202 368.116 298.786 366.741 298.374C366.229 298.296 365.716 298.193 365.223 298.116C364.177 298.116 363.213 298.451 362.331 299.095C361.592 299.481 360.71 300.562 360.382 301.412C360.341 301.515 360.32 301.592 360.279 301.695C359.622 303.394 359.212 305.377 359.705 307.256C360.176 309.084 361.038 310.526 362.351 311.556C362.741 311.865 363.151 312.199 363.541 312.508C365.469 314.053 368.526 313.59 370.086 311.453C371.665 309.239 372.137 305.917 370.886 303.24Z" fill="white"/>
<path d="M343.641 237.74C340.461 237.74 340.461 243.945 343.641 243.945C346.82 243.971 346.841 237.74 343.641 237.74Z" fill="white"/>
<path d="M271.979 495.462C268.204 495.462 268.204 502.825 271.979 502.825C275.754 502.825 275.754 495.462 271.979 495.462Z" fill="white"/>
<path d="M372.034 430.066C370.639 428.444 368.916 427.439 366.987 427.439C365.161 427.439 363.233 428.444 361.94 430.066C360.258 432.177 359.253 435.858 360.094 438.794C360.155 439 360.217 439.206 360.278 439.437C360.812 441.265 361.509 442.759 362.781 443.969C363.951 445.101 365.469 445.925 366.987 445.848C368.218 445.771 369.408 445.385 370.495 444.664C372.116 443.582 373.101 441.523 373.696 439.437C373.757 439.231 373.819 439.025 373.88 438.794C374.701 435.936 373.778 432.074 372.034 430.066Z" fill="white"/>
<path d="M277.765 435.626C275.344 433.876 271.836 434.236 269.887 436.914C267.917 439.617 267.384 443.556 268.861 446.8C269.969 449.246 271.815 450.842 274.031 451.203C275.918 451.512 278.196 450.868 279.529 449.014C280.74 447.367 281.314 445.384 281.376 443.196C281.499 440.132 279.796 437.094 277.765 435.626Z" fill="white"/>
<path d="M369.819 572.959C369.573 572.573 369.327 572.187 369.06 571.801C368.075 570.282 365.962 569.406 364.464 569.406C362.864 569.406 360.956 570.307 359.869 571.801C358.741 573.345 357.879 575.405 357.961 577.568C358.043 579.602 358.556 581.996 359.869 583.335C360.177 583.644 360.484 583.953 360.792 584.288C362.146 585.678 363.5 586.631 365.306 586.631C366.865 586.631 368.752 585.755 369.819 584.288C370.927 582.769 371.768 580.76 371.686 578.623C371.624 576.383 370.947 574.684 369.819 572.959Z" fill="white"/>
<path d="M361.079 637.967C360.976 636.19 360.279 634.697 358.945 633.976C357.714 633.332 356.094 633.59 355.15 634.877C354.329 636.01 353.919 637.606 354.247 639.125C354.678 641.082 356.053 642.189 357.591 642.318C357.653 642.318 357.735 642.318 357.796 642.343C359.479 642.498 361.202 640.335 361.079 638.224C361.079 638.147 361.079 638.044 361.079 637.967Z" fill="white"/>
<path d="M311.985 628.236C306.035 628.236 306.015 639.848 311.985 639.848C317.934 639.848 317.955 628.236 311.985 628.236Z" fill="white"/>
<path d="M226.989 591.417C220.813 591.417 220.793 603.466 226.989 603.466C233.164 603.466 233.184 591.417 226.989 591.417Z" fill="white"/>
<path d="M9.68601 606.428C9.60395 606.403 9.50136 606.377 9.41929 606.351C7.32669 605.759 5.29565 607.149 4.65966 609.75C4.47502 610.496 4.43398 611.397 4.61862 612.144C4.63914 612.196 4.63914 612.273 4.65966 612.324C5.29565 614.925 7.32669 616.315 9.41929 615.723C9.50136 615.697 9.58343 615.671 9.68601 615.646C13.3173 614.616 13.3173 607.458 9.68601 606.428Z" fill="white"/>
<path d="M70.3298 632.227C66.3293 632.227 66.3293 640.028 70.3298 640.028C74.3304 640.028 74.3304 632.227 70.3298 632.227Z" fill="white"/>
<path d="M145.336 207.669C142.402 207.669 142.381 213.41 145.336 213.41C148.269 213.385 148.269 207.669 145.336 207.669Z" fill="white"/>
<path d="M250.151 394.819C248.797 392.193 246.93 390.262 244.509 389.387C243.668 389.078 242.827 388.769 241.986 388.46C239.688 387.611 236.857 388.125 234.805 389.644C232.877 391.06 231.03 393.841 230.517 396.622C229.984 399.608 230.087 402.981 231.461 405.633C231.953 406.431 232.425 407.203 232.918 408.002C234.087 409.443 235.441 410.448 237.021 411.014C237.841 411.426 238.662 411.812 239.483 412.224C240.734 412.713 241.986 412.79 243.237 412.43C244.489 412.353 245.658 411.889 246.745 411.014C248.694 409.572 250.561 406.766 251.074 403.934C251.649 400.896 251.525 397.497 250.151 394.819Z" fill="white"/>
<path d="M300.312 210.654C296.168 210.654 296.168 218.739 300.312 218.739C304.456 218.764 304.477 210.654 300.312 210.654Z" fill="white"/>
<path d="M290.32 76.3096C284.596 76.3096 284.576 87.4835 290.32 87.4835C296.044 87.4835 296.064 76.3096 290.32 76.3096Z" fill="white"/>
<path d="M248.14 96.4708C247.832 96.2134 247.504 95.9302 247.196 95.6727C245.883 94.5913 243.77 94.9518 242.724 96.3936C241.657 97.8611 241.226 100.256 242.149 102.006C242.354 102.393 242.58 102.804 242.785 103.191C244.18 105.817 247.094 106.512 248.961 104.195C250.766 101.903 250.233 98.2216 248.14 96.4708Z" fill="white"/>
<path d="M147.552 47.4229C144.946 47.4229 142.464 50.2807 142.587 53.6535C142.71 57.0262 144.762 59.8841 147.552 59.8841C150.157 59.8841 152.64 57.0262 152.516 53.6535C152.393 50.2807 150.342 47.4229 147.552 47.4229Z" fill="white"/>
<path d="M70.3298 47.0361C64.6059 47.0361 64.5854 58.2101 70.3298 58.2101C76.0742 58.2101 76.0742 47.0361 70.3298 47.0361Z" fill="white"/>
<path d="M43.0028 89.6985C42.3257 87.0982 40.9717 84.8582 39.0843 83.4422C33.9758 79.6575 27.4108 84.5235 27.3698 91.887C27.3698 92.9168 27.4108 94.0497 27.657 95.0023C27.8826 95.9034 28.2109 97.0105 28.6623 97.7829C29.3598 99.2505 30.283 100.409 31.4524 101.284C32.6628 102.16 33.9758 102.623 35.3709 102.623C38.2226 102.623 40.5409 100.718 42.0795 97.7829C43.1874 95.6975 43.6388 92.1959 43.0028 89.6985Z" fill="white"/>
<path d="M134.503 91.7578C130.667 91.7578 130.646 99.25 134.503 99.25C138.34 99.25 138.34 91.7578 134.503 91.7578Z" fill="white"/>
<path d="M367.316 196.598C366.68 195.259 365.818 194.177 364.752 193.379C364.444 193.096 364.136 192.813 363.828 192.53C363.274 192.246 362.72 191.937 362.167 191.654C361.243 191.294 360.32 191.242 359.376 191.5C357.92 191.757 356.402 192.504 355.376 193.894C354.555 195.001 353.96 196.314 353.591 197.756C353.099 199.636 353.324 202.854 354.288 204.502C354.514 204.888 354.74 205.274 354.965 205.66C355.601 206.999 356.463 208.08 357.53 208.879C358.638 209.702 359.848 210.089 361.141 210.114C363.028 210.011 364.834 209.213 366.188 207.488C367.48 205.866 368.28 203.446 368.28 201.155C368.28 199.507 367.973 197.988 367.316 196.598Z" fill="white"/>
<path d="M344.482 107.669C339.805 107.669 339.805 116.783 344.482 116.783C349.16 116.783 349.16 107.669 344.482 107.669Z" fill="white"/>
<path d="M232.959 40.9335C232.282 39.8779 231.502 39.466 230.579 38.9768C229.04 38.1529 227.748 38.3074 226.127 38.6163C225.614 38.8738 225.101 39.157 224.609 39.4145C223.87 39.9294 223.275 40.5988 222.824 41.4742C221.983 42.8387 221.388 44.5638 221.449 46.3403C221.49 47.7563 221.798 49.1209 222.311 50.3825C222.967 51.9272 224.711 53.781 226.127 54.0642C227.748 54.3731 229.04 54.5276 230.579 53.7037C231.502 53.2145 232.282 52.7769 232.959 51.747C233.964 50.2022 234.826 48.4515 234.743 46.3403C234.682 44.2033 234.025 42.607 232.959 40.9335Z" fill="white"/>
<path d="M278.646 591.624C273.743 591.624 273.743 601.176 278.646 601.176C283.55 601.176 283.55 591.624 278.646 591.624Z" fill="white"/>
<path d="M336.111 393.069C333.916 393.713 332.603 395.592 331.475 397.858C330.038 400.767 330.449 405.221 332.48 407.564C334.531 409.933 337.752 410.757 340.214 408.826C342.02 407.41 343.497 405.762 344.03 403.007C345.159 396.905 340.953 391.627 336.111 393.069Z" fill="white"/>
<path d="M4.6595 389.875C3.98248 388.381 2.56688 386.94 1.21284 386.553C-0.366867 386.09 -1.76193 386.399 -3.23907 387.274L-4.01864 387.738C-7.50632 389.823 -7.50632 397.212 -4.01864 399.298L-3.23907 399.761C-1.88503 400.585 -0.30532 401.1 1.21284 400.482C2.62843 399.916 3.90042 398.834 4.6595 397.161C5.70581 394.844 5.70581 392.218 4.6595 389.875Z" fill="white"/>
<path d="M82.0038 427.363C78.0853 427.363 78.0853 435.01 82.0038 435.01C85.9223 435.01 85.9223 427.363 82.0038 427.363Z" fill="white"/>
<path d="M35.3301 577.31C32.9093 577.31 32.9093 582.021 35.3301 582.021C37.751 582.021 37.751 577.31 35.3301 577.31Z" fill="white"/>
<path d="M226.989 435.396C224.875 435.396 224.875 439.516 226.989 439.516C229.102 439.516 229.102 435.396 226.989 435.396Z" fill="white"/>
<path d="M256.982 637.297C253.884 637.297 253.884 643.322 256.982 643.322C260.08 643.322 260.08 637.297 256.982 637.297Z" fill="white"/>
<path d="M345.303 461.99C342.595 461.99 342.574 467.294 345.303 467.294C348.031 467.294 348.031 461.99 345.303 461.99Z" fill="white"/>
<path d="M315.309 282.873C313.339 282.873 313.339 286.709 315.309 286.709C317.278 286.683 317.278 282.873 315.309 282.873Z" fill="white"/>
<path d="M120.327 294.305C117.229 294.305 117.229 300.329 120.327 300.329C123.425 300.329 123.425 294.305 120.327 294.305Z" fill="white"/>
<path d="M82.0031 105.197C78.0026 105.197 78.0026 112.998 82.0031 112.998C86.0037 112.998 86.0037 105.197 82.0031 105.197Z" fill="white"/>
<path d="M239.769 469.947C237.348 469.947 237.348 474.659 239.769 474.659C242.17 474.659 242.19 469.947 239.769 469.947Z" fill="white"/>
<path d="M278.092 309.934C275.302 309.934 275.302 315.366 278.092 315.366C280.883 315.392 280.883 309.934 278.092 309.934Z" fill="white"/>
<path d="M42.5517 278.084C40.8694 278.084 39.9257 280.736 41.0951 282.281C41.5054 284.289 43.598 284.315 44.0083 282.281C45.1777 280.762 44.234 278.084 42.5517 278.084Z" fill="white"/>
<path d="M76.9973 482.332C75.1099 482.332 75.1099 486.014 76.9973 486.014C78.8848 485.988 78.8848 482.332 76.9973 482.332Z" fill="white"/>
<path d="M163.102 389.67C159.861 389.67 159.861 396.004 163.102 396.004C166.344 396.004 166.344 389.67 163.102 389.67Z" fill="white"/>
<path d="M106.992 587.247C102.622 587.247 102.601 595.769 106.992 595.769C111.362 595.769 111.382 587.247 106.992 587.247Z" fill="white"/>
</g>
</g>
<defs>
<filter id="filter0_f_1260_4265" x="150.025" y="-37.9744" width="203.949" height="203.949" filterUnits="userSpaceOnUse" color-interpolation-filters="sRGB">
<feFlood flood-opacity="0" result="BackgroundImageFix"/>
<feBlend mode="normal" in="SourceGraphic" in2="BackgroundImageFix" result="shape"/>
<feGaussianBlur stdDeviation="9.6" result="effect1_foregroundBlur_1260_4265"/>
</filter>
<filter id="filter1_f_1260_4265" x="-55.5746" y="292.426" width="216.149" height="216.149" filterUnits="userSpaceOnUse" color-interpolation-filters="sRGB">
<feFlood flood-opacity="0" result="BackgroundImageFix"/>
<feBlend mode="normal" in="SourceGraphic" in2="BackgroundImageFix" result="shape"/>
<feGaussianBlur stdDeviation="3.4" result="effect1_foregroundBlur_1260_4265"/>
</filter>
<filter id="filter2_f_1260_4265" x="226.025" y="235.026" width="203.949" height="203.949" filterUnits="userSpaceOnUse" color-interpolation-filters="sRGB">
<feFlood flood-opacity="0" result="BackgroundImageFix"/>
<feBlend mode="normal" in="SourceGraphic" in2="BackgroundImageFix" result="shape"/>
<feGaussianBlur stdDeviation="9.6" result="effect1_foregroundBlur_1260_4265"/>
</filter>
<linearGradient id="paint0_linear_1260_4265" x1="145.5" y1="4.76942e-07" x2="159" y2="825" gradientUnits="userSpaceOnUse">
<stop stop-color="#65C655"/>
<stop offset="0.28635" stop-color="#3A5336"/>
<stop offset="0.632938" stop-color="#495348" stop-opacity="0.88"/>
<stop offset="1" stop-color="#072302"/>
</linearGradient>
<radialGradient id="paint1_radial_1260_4265" cx="0" cy="0" r="1" gradientUnits="userSpaceOnUse" gradientTransform="translate(308.5 576.499) scale(147.499)">
<stop stop-color="#E6ACC2"/>
<stop offset="1" stop-color="#257D14"/>
</radialGradient>
<radialGradient id="paint2_radial_1260_4265" cx="0" cy="0" r="1" gradientUnits="userSpaceOnUse" gradientTransform="translate(52.5762 191.579) scale(191.581)">
<stop stop-color="#3F8EFF"/>
<stop offset="1"/>
</radialGradient>
<radialGradient id="paint3_radial_1260_4265" cx="0" cy="0" r="1" gradientUnits="userSpaceOnUse" gradientTransform="translate(52.5 507.499) scale(107.5)">
<stop stop-color="#FFB6D9"/>
<stop offset="1"/>
</radialGradient>
<radialGradient id="paint4_radial_1260_4265" cx="0" cy="0" r="1" gradientUnits="userSpaceOnUse" gradientTransform="translate(111.761 259.808) rotate(135) scale(43.6559 1.91004)">
<stop stop-color="#54D93F"/>
<stop offset="1" stop-color="#47D530"/>
</radialGradient>
<radialGradient id="paint5_radial_1260_4265" cx="0" cy="0" r="1" gradientUnits="userSpaceOnUse" gradientTransform="translate(112.495 258.708) rotate(135) scale(84.0783 3.6786)">
<stop stop-color="#4CD037"/>
<stop offset="1" stop-color="#5FDD4B"/>
</radialGradient>
<radialGradient id="paint6_radial_1260_4265" cx="0" cy="0" r="1" gradientUnits="userSpaceOnUse" gradientTransform="translate(97.4411 140.54) rotate(135) scale(33.0171 1.44456)">
<stop stop-color="#54D93F"/>
<stop offset="1" stop-color="#47D530"/>
</radialGradient>
<radialGradient id="paint7_radial_1260_4265" cx="0" cy="0" r="1" gradientUnits="userSpaceOnUse" gradientTransform="translate(97.9962 139.708) rotate(135) scale(63.5886 2.78213)">
<stop stop-color="#4CD037"/>
<stop offset="1" stop-color="#5FDD4B"/>
</radialGradient>
<radialGradient id="paint8_radial_1260_4265" cx="0" cy="0" r="1" gradientUnits="userSpaceOnUse" gradientTransform="translate(257.242 119.544) rotate(135) scale(44.7565 1.95819)">
<stop stop-color="#54D93F"/>
<stop offset="1" stop-color="#47D530"/>
</radialGradient>
<radialGradient id="paint9_radial_1260_4265" cx="0" cy="0" r="1" gradientUnits="userSpaceOnUse" gradientTransform="translate(257.995 118.416) rotate(135) scale(86.1979 3.77134)">
<stop stop-color="#4CD037"/>
<stop offset="1" stop-color="#5FDD4B"/>
</radialGradient>
<radialGradient id="paint10_radial_1260_4265" cx="0" cy="0" r="1" gradientUnits="userSpaceOnUse" gradientTransform="translate(277.416 271.87) rotate(135) scale(34.4845 1.50877)">
<stop stop-color="#54D93F"/>
<stop offset="1" stop-color="#47D530"/>
</radialGradient>
<radialGradient id="paint11_radial_1260_4265" cx="0" cy="0" r="1" gradientUnits="userSpaceOnUse" gradientTransform="translate(277.996 271.001) rotate(135) scale(66.4148 2.90578)">
<stop stop-color="#5B9E51"/>
<stop offset="1" stop-color="#5FDD4B"/>
</radialGradient>
<radialGradient id="paint12_radial_1260_4265" cx="0" cy="0" r="1" gradientUnits="userSpaceOnUse" gradientTransform="translate(233.823 592.716) rotate(135) scale(39.9873 1.74953)">
<stop stop-color="#54D93F"/>
<stop offset="1" stop-color="#47D530"/>
</radialGradient>
<radialGradient id="paint13_radial_1260_4265" cx="0" cy="0" r="1" gradientUnits="userSpaceOnUse" gradientTransform="translate(234.495 591.708) rotate(135) scale(77.0129 3.36947)">
<stop stop-color="#5B9E51"/>
<stop offset="1" stop-color="#5FDD4B"/>
</radialGradient>
<radialGradient id="paint14_radial_1260_4265" cx="0" cy="0" r="1" gradientUnits="userSpaceOnUse" gradientTransform="translate(73.8231 662.509) rotate(135) scale(39.9873 1.74953)">
<stop stop-color="#54D93F"/>
<stop offset="1" stop-color="#47D530"/>
</radialGradient>
<radialGradient id="paint15_radial_1260_4265" cx="0" cy="0" r="1" gradientUnits="userSpaceOnUse" gradientTransform="translate(74.4954 661.501) rotate(135) scale(77.0129 3.36947)">
<stop stop-color="#5B9E51"/>
<stop offset="1" stop-color="#5FDD4B"/>
</radialGradient>
<radialGradient id="paint16_radial_1260_4265" cx="0" cy="0" r="1" gradientUnits="userSpaceOnUse" gradientTransform="translate(89.4345 521.359) rotate(135) scale(45.6422 1.99694)">
<stop stop-color="#54D93F"/>
<stop offset="1" stop-color="#47D530"/>
</radialGradient>
<radialGradient id="paint17_radial_1260_4265" cx="0" cy="0" r="1" gradientUnits="userSpaceOnUse" gradientTransform="translate(90.2019 520.208) rotate(135) scale(87.9037 3.84597)">
<stop stop-color="#5B9E51"/>
<stop offset="1" stop-color="#5FDD4B"/>
</radialGradient>
<radialGradient id="paint18_radial_1260_4265" cx="0" cy="0" r="1" gradientUnits="userSpaceOnUse" gradientTransform="translate(231.861 438.25) rotate(133.481) scale(56.1315 1.7572)">
<stop stop-color="#54D93F"/>
<stop offset="1" stop-color="#47D530"/>
</radialGradient>
<radialGradient id="paint19_radial_1260_4265" cx="0" cy="0" r="1" gradientUnits="userSpaceOnUse" gradientTransform="translate(232.996 436.707) rotate(133.481) scale(108.105 3.38424)">
<stop stop-color="#5B9E51"/>
<stop offset="1" stop-color="#5FDD4B"/>
</radialGradient>
<clipPath id="clip0_1260_4265">
<rect width="360" height="800" fill="white"/>
</clipPath>
</defs>
</svg>
