<svg width="360" height="800" viewBox="0 0 360 800" fill="none" xmlns="http://www.w3.org/2000/svg">
<g clip-path="url(#clip0_1235_1590)">
<rect width="360" height="800" fill="white"/>
<rect y="547" width="360" height="253" fill="#CEF8DA"/>
<rect width="47" height="521" fill="url(#paint0_linear_1235_1590)"/>
<rect x="47" width="26" height="521" fill="url(#paint1_linear_1235_1590)"/>
<rect width="47" height="522" transform="matrix(-1 0 0 1 360 0)" fill="url(#paint2_linear_1235_1590)"/>
<rect width="26" height="522" transform="matrix(-1 0 0 1 313 0)" fill="url(#paint3_linear_1235_1590)"/>
<rect x="73" width="214" height="522" fill="url(#paint4_linear_1235_1590)"/>
<rect width="25.6542" height="214.845" transform="matrix(0.00542687 -0.999985 -0.999985 -0.00542687 287.811 547.819)" fill="url(#paint5_linear_1235_1590)"/>
<rect width="26" height="26" transform="matrix(-1 0 0 1 313 522)" fill="url(#paint6_linear_1235_1590)"/>
<rect width="47" height="26" transform="matrix(-1 0 0 1 360 522)" fill="url(#paint7_linear_1235_1590)"/>
<rect x="47" y="521" width="26" height="26" fill="url(#paint8_linear_1235_1590)"/>
<rect y="521" width="47" height="26" fill="url(#paint9_linear_1235_1590)"/>
<path d="M333.406 636.277C333.387 642.097 332.961 647.917 332.119 653.674C331.724 656.43 331.228 659.167 330.65 661.879C330.292 663.561 329.03 667.071 328.717 669.796C328.227 667.228 327.235 664.71 326.193 662.419C324.41 658.495 322.169 654.835 320.411 650.899C316.33 641.764 314.993 631.468 314.899 621.342C314.88 619.314 314.905 617.292 314.974 615.265C315.219 607.166 316.004 599.086 316.43 591C322.602 598.923 328.459 607.448 331.24 617.343C332.948 623.451 333.425 629.892 333.406 636.277Z" fill="#93C0A0"/>
<path d="M329.878 666.016C329.639 658.815 329.106 651.621 328.283 644.47C327.498 637.69 326.437 630.96 325.106 624.28C324.422 620.833 323.619 617.412 322.758 614.009C321.848 610.431 320.555 607.041 319.525 603.519C319.463 603.311 319.167 603.399 319.224 603.607C320.976 610.186 322.118 617.123 323.411 623.828C324.755 630.803 325.816 637.847 326.619 644.922C327.379 651.621 327.881 658.351 328.12 665.094C328.371 672.137 327.9 679.225 328.258 686.244C328.296 686.972 329.407 687.236 329.52 686.426C330.424 679.759 330.097 672.74 329.878 666.016Z" fill="#107444"/>
<path opacity="0.19" d="M332.113 653.674C331.717 656.43 331.221 659.167 330.644 661.879C330.286 663.562 329.024 667.071 328.71 669.796C328.221 667.228 327.229 664.71 326.186 662.419C324.403 658.495 322.162 654.835 320.404 650.899C316.324 641.764 314.986 631.468 314.892 621.342C314.873 619.314 314.899 617.292 314.968 615.265C315.131 616.96 315.307 618.649 315.508 620.331C316.261 626.81 317.24 633.289 319.199 639.466C320.065 642.21 321.139 644.922 322.777 647.232C325.056 650.466 328.44 652.751 332.113 653.674Z" fill="#8BC19B"/>
<path d="M356.798 615.347C355.562 618.574 355.084 622.058 354.463 625.492C353.986 628.141 353.408 630.772 352.749 633.377C350.646 641.677 347.651 649.719 343.834 657.278C340.733 663.405 337.054 669.35 335.189 676.099C334.976 676.859 334.668 680.757 334.185 681.103C332.948 681.994 332.571 678.905 332.408 678.202C331.567 674.523 331.096 670.75 330.952 666.965C330.92 666.186 330.908 665.401 330.908 664.623C330.902 661.057 331.19 657.472 331.755 653.957C333.036 645.927 335.729 638.111 339.954 631.349C344.186 624.588 349.98 618.9 356.798 615.347Z" fill="#93C0A0"/>
<path d="M348.241 627.702C345.347 632.021 342.648 636.259 340.683 641.175C338.812 645.858 337.355 650.705 336.257 655.664C334.028 665.747 332.477 676.539 332.207 686.91C332.182 687.952 333.802 688.241 333.94 687.161C335.302 676.934 335.767 666.695 337.945 656.581C340.061 646.768 343.169 636.259 348.599 627.94C348.762 627.689 348.398 627.47 348.241 627.702Z" fill="#107444"/>
<path opacity="0.19" d="M352.749 633.377C350.646 641.677 347.651 649.719 343.834 657.277C340.733 663.405 337.054 669.35 335.189 676.099C334.976 676.859 334.668 680.757 334.185 681.103C332.948 681.994 332.571 678.905 332.408 678.202C331.567 674.523 331.096 670.75 330.952 666.964C330.92 666.186 330.908 665.401 330.908 664.623C330.939 664.711 330.977 664.792 331.014 664.874C331.454 665.809 332.251 666.657 333.231 666.688C334.273 666.72 335.12 665.822 335.811 664.987C343.382 655.84 349.177 644.998 352.749 633.377Z" fill="#69C883"/>
<path d="M327.153 683.808C326.909 678.22 323.004 673.7 319.613 669.871C315.74 665.501 311.672 660.968 308.326 655.99C306.448 653.196 304.571 650.635 302.543 648.199C300.836 646.152 299.022 644.187 297 642.247C298.909 641.086 301.181 640.841 303.372 640.935C309.694 641.224 315.834 644.256 320.304 649.072C324.768 653.887 327.555 660.416 328.252 667.171C328.321 667.862 328.371 668.552 328.409 669.243C328.635 674.096 328.013 679.068 327.153 683.808Z" fill="#93C0A0"/>
<path d="M322.903 662.689C320.028 656.134 314.986 648.312 308.237 645.977C308.005 645.895 307.792 646.259 307.993 646.429C310.673 648.777 313.436 650.823 315.752 653.617C318.182 656.543 320.141 659.908 321.679 663.461C325.238 671.698 326.431 680.851 327.109 689.816C327.185 690.808 328.635 690.821 328.559 689.816C327.856 680.562 326.626 671.17 322.903 662.689Z" fill="#107444"/>
<path opacity="0.19" d="M327.153 683.808C326.908 678.221 323.004 673.701 319.613 669.871C315.74 665.501 311.672 660.969 308.326 655.99C306.448 653.197 304.571 650.635 302.543 648.199C305.256 649.687 308.401 652.851 309.506 653.956C313.505 657.93 316.594 662.865 320.549 666.889C322.074 668.44 323.908 669.927 326.011 669.915C326.858 669.909 327.662 669.658 328.409 669.249C328.635 674.096 328.013 679.068 327.153 683.808Z" fill="#8BC19B"/>
<path d="M326.789 731C339.272 731 349.39 729.151 349.39 726.869C349.39 724.588 339.272 722.738 326.789 722.738C314.307 722.738 304.188 724.588 304.188 726.869C304.188 729.151 314.307 731 326.789 731Z" fill="#93C0A0"/>
<path d="M348.907 680.349C348.907 686.571 348.411 706.887 342.403 723.661C342.171 724.321 341.606 724.81 340.928 724.967C338.542 725.526 332.477 726.669 324.73 726.173C322.037 726.003 319.143 725.633 316.129 724.967C315.389 724.804 314.792 724.258 314.579 723.523C314.441 723.04 314.259 722.412 314.045 721.665C313.524 719.788 312.821 717.107 312.074 713.861C311.917 713.158 311.754 712.43 311.59 711.67C311.32 710.434 311.051 709.122 310.787 707.759C310.542 706.485 310.297 705.16 310.065 703.798C308.853 696.672 307.924 688.435 308.025 680.305C308.037 679.238 308.847 678.359 309.908 678.259C311.245 678.133 313.273 677.964 315.878 677.819C316.538 677.782 317.228 677.744 317.956 677.713C318.923 677.669 319.94 677.625 321.026 677.593C322.828 677.537 324.793 677.499 326.89 677.487C328.014 677.48 329.175 677.48 330.374 677.493C334.455 677.537 338.956 677.694 343.747 678.026C344.814 678.102 345.894 678.183 346.992 678.278C348.078 678.372 348.907 679.27 348.907 680.349Z" fill="#8FDCA4"/>
<g opacity="0.66">
<path d="M348.907 680.35C348.907 686.571 348.411 706.887 342.403 723.662C342.171 724.321 341.606 724.811 340.928 724.968C338.542 725.526 332.478 726.669 324.73 726.173C325.459 725.696 326.174 725.187 326.865 724.648C330.795 721.578 333.896 717.547 336.401 713.234C342.51 702.681 345.065 690.144 343.759 678.033C344.826 678.109 345.906 678.19 347.005 678.284C348.078 678.372 348.907 679.27 348.907 680.35Z" fill="#0E5722"/>
</g>
<path opacity="0.72" d="M330.381 677.499C330.092 683.043 328.591 688.668 326.388 693.64C324.467 697.978 321.855 702.084 318.609 705.757C316.6 708.023 314.302 710.17 311.584 711.677C311.314 710.44 311.044 709.128 310.781 707.766C310.536 706.491 310.291 705.167 310.059 703.804C308.847 696.679 307.918 688.442 308.018 680.312C308.031 679.245 308.841 678.366 309.902 678.265C311.239 678.14 313.267 677.97 315.872 677.826C316.531 677.788 317.222 677.751 317.95 677.719C318.917 677.675 319.934 677.631 321.02 677.6C322.822 677.543 324.787 677.506 326.884 677.493C328.02 677.481 329.181 677.487 330.381 677.499Z" fill="#C2E8CC"/>
<path d="M346.283 722.908L345.963 724.665L345.668 726.304C345.649 726.417 345.555 726.505 345.442 726.518C343.332 726.762 324.404 728.847 311.126 726.172C311.019 726.153 310.937 726.065 310.919 725.965L310.642 724.571L310.303 722.883C310.266 722.707 310.41 722.55 310.586 722.575C313.543 722.92 334.179 725.161 345.969 722.619C346.157 722.569 346.32 722.726 346.283 722.908Z" fill="#A1D8B0"/>
<g opacity="0.66">
<path d="M345.969 724.665L345.674 726.304C345.655 726.417 345.561 726.505 345.448 726.517C343.338 726.762 324.41 728.847 311.132 726.172C311.025 726.153 310.944 726.065 310.925 725.965L310.648 724.571C315.2 725.482 332.647 728.533 345.969 724.665Z" fill="#0E5722"/>
</g>
</g>
<defs>
<linearGradient id="paint0_linear_1235_1590" x1="-14" y1="351.001" x2="46.5205" y2="342.833" gradientUnits="userSpaceOnUse">
<stop stop-color="#62D983"/>
<stop offset="1" stop-color="#08942F" stop-opacity="0.71"/>
</linearGradient>
<linearGradient id="paint1_linear_1235_1590" x1="60" y1="-13.8413" x2="60.0001" y2="521" gradientUnits="userSpaceOnUse">
<stop stop-color="#83CA97"/>
<stop offset="1" stop-color="#24E95B" stop-opacity="0.71"/>
</linearGradient>
<linearGradient id="paint2_linear_1235_1590" x1="-14" y1="351.674" x2="46.5246" y2="343.522" gradientUnits="userSpaceOnUse">
<stop stop-color="#62D983"/>
<stop offset="1" stop-color="#08942F" stop-opacity="0.71"/>
</linearGradient>
<linearGradient id="paint3_linear_1235_1590" x1="13" y1="-13.8678" x2="13.0001" y2="522" gradientUnits="userSpaceOnUse">
<stop stop-color="#83CA97"/>
<stop offset="1" stop-color="#24E95B" stop-opacity="0.71"/>
</linearGradient>
<linearGradient id="paint4_linear_1235_1590" x1="180" y1="4.43151e-09" x2="180.363" y2="548.521" gradientUnits="userSpaceOnUse">
<stop stop-color="#71AE82"/>
<stop offset="1" stop-color="#417851"/>
</linearGradient>
<linearGradient id="paint5_linear_1235_1590" x1="39.3038" y1="99.8302" x2="-1.04519" y2="99.8837" gradientUnits="userSpaceOnUse">
<stop stop-color="#A8F5BD"/>
<stop offset="1" stop-color="#10AC3B" stop-opacity="0.71"/>
</linearGradient>
<linearGradient id="paint6_linear_1235_1590" x1="34" y1="15.9387" x2="8.76843" y2="30.8378" gradientUnits="userSpaceOnUse">
<stop stop-color="#38C25E"/>
<stop offset="1" stop-color="#3C9D57" stop-opacity="0.71"/>
</linearGradient>
<linearGradient id="paint7_linear_1235_1590" x1="16.5" y1="-3" x2="27.4936" y2="1.11262" gradientUnits="userSpaceOnUse">
<stop stop-color="#48B065"/>
<stop offset="1" stop-color="#368D4E" stop-opacity="0.71"/>
</linearGradient>
<linearGradient id="paint8_linear_1235_1590" x1="81" y1="536.939" x2="55.7684" y2="551.838" gradientUnits="userSpaceOnUse">
<stop stop-color="#38C25E"/>
<stop offset="1" stop-color="#3C9D57" stop-opacity="0.71"/>
</linearGradient>
<linearGradient id="paint9_linear_1235_1590" x1="16.5" y1="518" x2="27.4936" y2="522.113" gradientUnits="userSpaceOnUse">
<stop stop-color="#48B065"/>
<stop offset="1" stop-color="#368D4E" stop-opacity="0.71"/>
</linearGradient>
<clipPath id="clip0_1235_1590">
<rect width="360" height="800" fill="white"/>
</clipPath>
</defs>
</svg>
