<svg width="360" height="800" viewBox="0 0 360 800" fill="none" xmlns="http://www.w3.org/2000/svg">
<g clip-path="url(#clip0_1225_1885)">
<rect width="360" height="800" fill="white"/>
<path d="M360 0H0V640H360V0Z" fill="#1A7E78"/>
<mask id="mask0_1225_1885" style="mask-type:luminance" maskUnits="userSpaceOnUse" x="0" y="0" width="360" height="740">
<path d="M360 0H0V740H360V0Z" fill="white"/>
</mask>
<g mask="url(#mask0_1225_1885)">
<g opacity="0.53">
<path d="M23.1265 -37H15.2065V640.84H23.1265V-37Z" fill="#011C1A"/>
<path d="M44.7266 -37H36.8066V640.84H44.7266V-37Z" fill="#011C1A"/>
<path d="M66.3262 -37H58.4062V640.84H66.3262V-37Z" fill="#011C1A"/>
<path d="M87.9263 -37H80.0063V640.84H87.9263V-37Z" fill="#011C1A"/>
<path d="M109.526 -37H101.606V640.84H109.526V-37Z" fill="#011C1A"/>
<path d="M131.127 -37H123.207V640.84H131.127V-37Z" fill="#011C1A"/>
<path d="M152.727 -37H144.807V640.84H152.727V-37Z" fill="#011C1A"/>
<path d="M174.326 -37H166.406V640.84H174.326V-37Z" fill="#011C1A"/>
<path d="M195.926 -37H188.006V640.84H195.926V-37Z" fill="#011C1A"/>
<path d="M217.526 -37H209.606V640.84H217.526V-37Z" fill="#011C1A"/>
<path d="M239.127 -37H231.207V640.84H239.127V-37Z" fill="#011C1A"/>
<path d="M260.727 -37H252.807V640.84H260.727V-37Z" fill="#011C1A"/>
<path d="M282.326 -37H274.406V640.84H282.326V-37Z" fill="#011C1A"/>
<path d="M303.926 -37H296.006V640.84H303.926V-37Z" fill="#011C1A"/>
<path d="M325.526 -37H317.606V640.84H325.526V-37Z" fill="#011C1A"/>
<path d="M347.127 -37H339.207V640.84H347.127V-37Z" fill="#011C1A"/>
</g>
</g>
<mask id="mask1_1225_1885" style="mask-type:luminance" maskUnits="userSpaceOnUse" x="0" y="0" width="360" height="740">
<path d="M360 0H0V740H360V0Z" fill="white"/>
</mask>
<g mask="url(#mask1_1225_1885)">
<path d="M385.2 640.84H-17.2803V765.16H385.2V640.84Z" fill="#70B0AC"/>
</g>
<mask id="mask2_1225_1885" style="mask-type:luminance" maskUnits="userSpaceOnUse" x="0" y="0" width="360" height="800">
<path d="M360 0H0V800H360V0Z" fill="white"/>
</mask>
<g mask="url(#mask2_1225_1885)">
<g opacity="0.64">
<path opacity="0.84" d="M175.252 701.464C140.53 701.464 105.809 701.491 71.0869 701.518C81.6 687.284 92.1847 673.049 102.854 658.801C127.448 658.667 152.041 658.599 176.635 658.586C176.172 672.874 175.709 687.162 175.252 701.464Z" fill="#F3FEFD"/>
<path opacity="0.84" d="M288.913 701.517C254.191 701.477 219.47 701.463 184.748 701.463C184.291 687.162 183.828 672.873 183.365 658.599C207.959 658.599 232.552 658.679 257.146 658.814C267.809 673.049 278.4 687.283 288.913 701.517Z" fill="#F3FEFD"/>
<path opacity="0.78" d="M173.693 750.524C127.585 750.524 81.4695 750.457 35.3608 750.335C45.6913 736.101 56.1 721.867 66.5869 707.619C102.743 707.605 138.9 707.592 175.056 707.592C174.6 721.894 174.143 736.195 173.693 750.524Z" fill="#F3FEFD"/>
<path opacity="0.78" d="M324.639 750.336C278.53 750.457 232.415 750.511 186.306 750.524C185.856 736.209 185.4 721.894 184.943 707.605C221.1 707.605 257.256 707.619 293.413 707.632C303.9 721.867 314.309 736.101 324.639 750.336Z" fill="#F3FEFD"/>
<path opacity="0.65" d="M172.154 800C114.77 799.987 57.3848 799.825 0 799.516C10.1478 785.281 20.3739 771.047 30.6783 756.799C78.2804 756.933 125.889 757.014 173.491 757.014C173.041 771.33 172.598 785.658 172.154 800Z" fill="#F3FEFD"/>
<path opacity="0.65" d="M360 799.516C302.615 799.825 245.23 799.987 187.846 800C187.402 785.658 186.959 771.33 186.509 757.014C234.111 757.014 281.72 756.933 329.322 756.799C339.626 771.033 349.852 785.268 360 799.516Z" fill="#F3FEFD"/>
</g>
</g>
<path d="M298.97 41H70V321.75H298.97V41Z" fill="#6DDCD6"/>
<g opacity="0.79">
<path d="M101.07 139.39C101.05 139.33 101.01 139.27 100.95 139.24C100.89 139.21 100.82 139.2 100.76 139.22L98.7605 139.81L97.8705 139.35L99.3705 138.9C99.5005 138.86 99.5805 138.72 99.5405 138.59C99.5205 138.53 99.4805 138.47 99.4205 138.44C99.3605 138.41 99.2905 138.4 99.2305 138.42L97.2305 139.01L95.5005 138.12L97.2005 137.1L99.2105 137.57C99.3405 137.6 99.4805 137.52 99.5105 137.38C99.5305 137.31 99.5105 137.25 99.4805 137.19C99.4405 137.13 99.3905 137.09 99.3205 137.08L97.8205 136.73L98.6805 136.21L100.69 136.68C100.82 136.71 100.96 136.63 100.99 136.49C101.01 136.42 100.99 136.36 100.96 136.3C100.92 136.24 100.87 136.2 100.8 136.19L99.3005 135.84L100.1 135.36C100.16 135.33 100.2 135.27 100.21 135.21C100.23 135.15 100.22 135.08 100.18 135.02C100.15 134.96 100.09 134.92 100.03 134.91C99.9605 134.89 99.9005 134.9 99.8405 134.94L99.0305 135.43L99.4405 133.92C99.4805 133.79 99.4005 133.65 99.2605 133.61C99.1305 133.57 98.9905 133.65 98.9505 133.79L98.4005 135.8L97.5405 136.32L97.9505 134.81C97.9905 134.68 97.9105 134.54 97.7705 134.5C97.6405 134.46 97.5005 134.54 97.4605 134.68L96.9105 136.69L95.1905 137.72V135.77L96.6305 134.28C96.7305 134.18 96.7205 134.02 96.6205 133.93C96.5205 133.83 96.3605 133.84 96.2705 133.94L95.1905 135.06V134.05L96.6305 132.56C96.7305 132.46 96.7205 132.3 96.6205 132.21C96.5205 132.11 96.3605 132.12 96.2705 132.22L95.1905 133.34V132.32C95.1905 132.18 95.0805 132.07 94.9405 132.07C94.8005 132.07 94.6905 132.18 94.6905 132.32V133.34L93.6205 132.22C93.5205 132.12 93.3705 132.12 93.2705 132.21C93.1705 132.31 93.1705 132.46 93.2605 132.56L94.6905 134.05V135.05L93.6205 133.93C93.5205 133.83 93.3705 133.83 93.2705 133.92C93.2205 133.97 93.1905 134.03 93.1905 134.1C93.1905 134.17 93.2105 134.23 93.2605 134.28L94.6905 135.77V137.7L92.9405 136.8L92.2805 134.83C92.2605 134.77 92.2105 134.72 92.1505 134.69C92.0905 134.66 92.0205 134.66 91.9605 134.68C91.8305 134.72 91.7605 134.87 91.8005 135L92.3005 136.48L91.4105 136.02L90.7505 134.05C90.7305 133.99 90.6805 133.94 90.6205 133.91C90.5605 133.88 90.4905 133.88 90.4305 133.9C90.3705 133.92 90.3205 133.97 90.2905 134.03C90.2605 134.09 90.2605 134.16 90.2805 134.22L90.7805 135.7L89.8805 135.23C89.8205 135.2 89.7505 135.19 89.6905 135.21C89.6305 135.23 89.5705 135.27 89.5405 135.33C89.5105 135.39 89.5005 135.46 89.5205 135.52C89.5405 135.58 89.5805 135.64 89.6405 135.67L90.5405 136.14L89.0505 136.58C88.9205 136.62 88.8405 136.76 88.8805 136.89C88.9205 137.02 89.0605 137.1 89.1905 137.06L91.1805 136.47L92.0705 136.93L90.5805 137.37C90.4505 137.41 90.3705 137.55 90.4105 137.68C90.4505 137.81 90.5905 137.89 90.7205 137.85L92.7105 137.26L94.4605 138.16L92.7805 139.17L90.7605 138.7C90.6305 138.67 90.4905 138.75 90.4605 138.89C90.4305 139.02 90.5105 139.16 90.6505 139.19L92.1705 139.54L91.3105 140.06L89.2905 139.59C89.2205 139.57 89.1605 139.59 89.1005 139.62C89.0405 139.66 89.0005 139.71 88.9905 139.78C88.9605 139.91 89.0405 140.05 89.1805 140.08L90.7005 140.43L89.8305 140.95C89.7105 141.02 89.6705 141.18 89.7405 141.29C89.8105 141.4 89.9705 141.44 90.0805 141.38L90.9505 140.86L90.5405 142.36C90.5205 142.42 90.5305 142.49 90.5605 142.55C90.5905 142.61 90.6505 142.65 90.7105 142.67C90.8405 142.71 90.9805 142.62 91.0205 142.49L91.5605 140.49L92.4205 139.97L92.0105 141.47C91.9705 141.6 92.0505 141.74 92.1905 141.78C92.3205 141.82 92.4605 141.73 92.5005 141.6L93.0405 139.6L94.6905 138.61V140.62L93.2605 142.1C93.2105 142.15 93.1905 142.21 93.1905 142.28C93.1905 142.35 93.2205 142.41 93.2705 142.46C93.3705 142.56 93.5305 142.55 93.6205 142.45L94.6905 141.34V142.35L93.2605 143.83C93.2105 143.88 93.1905 143.94 93.1905 144.01C93.1905 144.08 93.2205 144.14 93.2705 144.19C93.3205 144.24 93.3805 144.26 93.4405 144.26C93.5105 144.26 93.5705 144.23 93.6205 144.18L94.6905 143.07V144C94.6905 144.14 94.8005 144.25 94.9405 144.25C95.0805 144.25 95.1905 144.14 95.1905 144V143.05L96.2705 144.18C96.3705 144.28 96.5205 144.28 96.6205 144.19C96.7205 144.09 96.7205 143.94 96.6305 143.84L95.1905 142.34V141.34L96.2705 142.47C96.3605 142.57 96.5305 142.57 96.6205 142.48C96.7205 142.38 96.7205 142.23 96.6305 142.13L95.1905 140.62V138.56L97.0105 139.5L97.6705 141.45C97.7005 141.55 97.8005 141.62 97.9105 141.62C97.9405 141.62 97.9605 141.62 97.9905 141.61C98.0505 141.59 98.1005 141.54 98.1305 141.48C98.1605 141.42 98.1605 141.35 98.1405 141.29L97.6505 139.83L98.5405 140.29L99.2005 142.24C99.2405 142.37 99.3905 142.44 99.5205 142.4C99.5805 142.38 99.6305 142.33 99.6605 142.27C99.6905 142.21 99.6905 142.14 99.6705 142.08L99.1805 140.62L100 141.05C100.04 141.07 100.08 141.08 100.11 141.08C100.2 141.08 100.29 141.03 100.33 140.94C100.36 140.88 100.37 140.81 100.35 140.75C100.33 140.69 100.29 140.63 100.23 140.6L99.3905 140.17L100.89 139.72C101.03 139.67 101.11 139.53 101.07 139.39Z" fill="white"/>
<path d="M164.43 238.501C164.41 238.441 164.37 238.381 164.31 238.351C164.25 238.321 164.18 238.311 164.12 238.331L162.12 238.921L161.23 238.461L162.73 238.011C162.86 237.971 162.94 237.831 162.9 237.701C162.88 237.641 162.84 237.581 162.78 237.551C162.72 237.521 162.65 237.511 162.59 237.531L160.59 238.121L158.86 237.231L160.56 236.211L162.57 236.681C162.7 236.711 162.84 236.631 162.87 236.491C162.89 236.421 162.87 236.361 162.84 236.301C162.8 236.241 162.75 236.201 162.68 236.191L161.18 235.841L162.04 235.321L164.05 235.791C164.18 235.821 164.32 235.741 164.35 235.601C164.37 235.531 164.35 235.471 164.32 235.411C164.28 235.351 164.23 235.311 164.16 235.301L162.66 234.951L163.46 234.471C163.52 234.441 163.56 234.381 163.57 234.321C163.59 234.261 163.58 234.191 163.54 234.131C163.51 234.071 163.45 234.031 163.39 234.021C163.32 234.001 163.26 234.011 163.2 234.051L162.39 234.541L162.8 233.031C162.84 232.901 162.76 232.761 162.62 232.721C162.49 232.681 162.35 232.761 162.31 232.901L161.76 234.911L160.9 235.431L161.31 233.921C161.35 233.791 161.27 233.651 161.13 233.611C161 233.571 160.86 233.651 160.82 233.791L160.27 235.801L158.55 236.831V234.881L159.99 233.391C160.09 233.291 160.08 233.131 159.98 233.041C159.88 232.941 159.72 232.951 159.63 233.051L158.55 234.171V233.161L159.99 231.671C160.09 231.571 160.08 231.411 159.98 231.321C159.88 231.221 159.72 231.231 159.63 231.331L158.55 232.451V231.431C158.55 231.291 158.44 231.181 158.3 231.181C158.16 231.181 158.05 231.291 158.05 231.431V232.451L156.98 231.331C156.88 231.231 156.73 231.231 156.63 231.321C156.53 231.421 156.53 231.571 156.62 231.671L158.05 233.161V234.161L156.98 233.041C156.88 232.941 156.73 232.941 156.63 233.031C156.58 233.081 156.55 233.141 156.55 233.211C156.55 233.281 156.57 233.341 156.62 233.391L158.05 234.881V236.811L156.3 235.911L155.64 233.941C155.62 233.881 155.57 233.831 155.51 233.801C155.45 233.771 155.38 233.771 155.32 233.791C155.19 233.831 155.12 233.981 155.16 234.111L155.66 235.591L154.77 235.131L154.11 233.161C154.09 233.101 154.04 233.051 153.98 233.021C153.92 232.991 153.85 232.991 153.79 233.011C153.73 233.031 153.68 233.081 153.65 233.141C153.62 233.201 153.62 233.271 153.64 233.331L154.14 234.811L153.24 234.341C153.18 234.311 153.11 234.301 153.05 234.321C152.99 234.341 152.93 234.381 152.9 234.441C152.87 234.501 152.86 234.571 152.88 234.631C152.9 234.691 152.94 234.751 153 234.781L153.9 235.251L152.41 235.691C152.28 235.731 152.2 235.871 152.24 236.001C152.28 236.131 152.42 236.211 152.55 236.171L154.54 235.581L155.43 236.041L153.94 236.481C153.81 236.521 153.73 236.661 153.77 236.791C153.81 236.921 153.95 237.001 154.08 236.961L156.07 236.371L157.82 237.271L156.14 238.281L154.12 237.811C153.99 237.781 153.85 237.861 153.82 238.001C153.79 238.131 153.87 238.271 154.01 238.301L155.53 238.651L154.67 239.171L152.65 238.701C152.58 238.681 152.52 238.701 152.46 238.731C152.4 238.771 152.36 238.821 152.35 238.891C152.32 239.021 152.4 239.161 152.54 239.191L154.06 239.541L153.19 240.061C153.07 240.131 153.03 240.291 153.1 240.401C153.17 240.511 153.33 240.551 153.44 240.491L154.31 239.971L153.9 241.471C153.88 241.531 153.89 241.601 153.92 241.661C153.95 241.721 154.01 241.761 154.07 241.781C154.2 241.821 154.34 241.731 154.38 241.601L154.92 239.601L155.78 239.081L155.37 240.581C155.33 240.711 155.41 240.851 155.55 240.891C155.68 240.931 155.82 240.841 155.86 240.711L156.4 238.711L158.05 237.721V239.731L156.62 241.211C156.57 241.261 156.55 241.321 156.55 241.391C156.55 241.461 156.58 241.521 156.63 241.571C156.73 241.671 156.89 241.661 156.98 241.561L158.05 240.451V241.461L156.62 242.941C156.57 242.991 156.55 243.051 156.55 243.121C156.55 243.191 156.58 243.251 156.63 243.301C156.68 243.351 156.74 243.371 156.8 243.371C156.87 243.371 156.93 243.341 156.98 243.291L158.05 242.181V243.111C158.05 243.251 158.16 243.361 158.3 243.361C158.44 243.361 158.55 243.251 158.55 243.111V242.161L159.63 243.291C159.73 243.391 159.88 243.391 159.98 243.301C160.08 243.201 160.08 243.051 159.99 242.951L158.55 241.451V240.451L159.63 241.581C159.72 241.681 159.89 241.681 159.98 241.591C160.08 241.491 160.08 241.341 159.99 241.241L158.55 239.741V237.681L160.37 238.621L161.03 240.571C161.06 240.671 161.16 240.741 161.27 240.741C161.3 240.741 161.32 240.741 161.35 240.731C161.41 240.711 161.46 240.661 161.49 240.601C161.52 240.541 161.52 240.471 161.5 240.411L161.01 238.951L161.9 239.411L162.56 241.361C162.6 241.491 162.75 241.561 162.88 241.521C162.94 241.501 162.99 241.451 163.02 241.391C163.05 241.331 163.05 241.261 163.03 241.201L162.54 239.741L163.36 240.171C163.4 240.191 163.44 240.201 163.47 240.201C163.56 240.201 163.65 240.151 163.69 240.061C163.72 240.001 163.73 239.931 163.71 239.871C163.69 239.811 163.65 239.751 163.59 239.721L162.75 239.291L164.25 238.841C164.39 238.771 164.47 238.631 164.43 238.501Z" fill="white"/>
<path d="M230.23 154.831C230.21 154.771 230.17 154.711 230.11 154.681C230.05 154.651 229.98 154.641 229.92 154.661L227.92 155.251L227.03 154.791L228.53 154.341C228.66 154.301 228.74 154.161 228.7 154.031C228.68 153.971 228.64 153.911 228.58 153.881C228.52 153.851 228.45 153.841 228.39 153.861L226.39 154.451L224.66 153.561L226.36 152.541L228.37 153.011C228.5 153.041 228.64 152.961 228.67 152.821C228.69 152.751 228.67 152.691 228.64 152.631C228.6 152.571 228.55 152.531 228.48 152.521L226.98 152.171L227.84 151.651L229.85 152.121C229.98 152.151 230.12 152.071 230.15 151.931C230.17 151.861 230.15 151.801 230.12 151.741C230.08 151.681 230.03 151.641 229.96 151.631L228.46 151.281L229.26 150.801C229.32 150.771 229.36 150.711 229.37 150.651C229.39 150.591 229.38 150.521 229.34 150.461C229.31 150.401 229.25 150.361 229.19 150.351C229.12 150.331 229.06 150.341 229 150.381L228.19 150.871L228.6 149.361C228.64 149.231 228.56 149.091 228.42 149.051C228.29 149.011 228.15 149.091 228.11 149.231L227.56 151.241L226.7 151.761L227.11 150.251C227.15 150.121 227.07 149.981 226.93 149.941C226.8 149.901 226.66 149.981 226.62 150.121L226.07 152.131L224.35 153.161V151.211L225.79 149.721C225.89 149.621 225.88 149.461 225.78 149.371C225.68 149.271 225.52 149.281 225.43 149.381L224.35 150.501V149.491L225.79 148.001C225.89 147.901 225.88 147.741 225.78 147.651C225.68 147.551 225.52 147.561 225.43 147.661L224.35 148.781V147.761C224.35 147.621 224.24 147.511 224.1 147.511C223.96 147.511 223.85 147.621 223.85 147.761V148.781L222.78 147.661C222.68 147.561 222.53 147.561 222.43 147.651C222.33 147.751 222.33 147.901 222.42 148.001L223.85 149.491V150.491L222.78 149.371C222.68 149.271 222.53 149.271 222.43 149.361C222.38 149.411 222.35 149.471 222.35 149.541C222.35 149.611 222.37 149.671 222.42 149.721L223.85 151.211V153.141L222.1 152.241L221.44 150.271C221.42 150.211 221.37 150.161 221.31 150.131C221.25 150.101 221.18 150.101 221.12 150.121C220.99 150.161 220.92 150.311 220.96 150.441L221.46 151.921L220.57 151.461L219.91 149.491C219.89 149.431 219.84 149.381 219.78 149.351C219.72 149.321 219.65 149.321 219.59 149.341C219.53 149.361 219.48 149.411 219.45 149.471C219.42 149.531 219.42 149.601 219.44 149.661L219.94 151.141L219.04 150.671C218.98 150.641 218.91 150.631 218.85 150.651C218.79 150.671 218.73 150.711 218.7 150.771C218.67 150.831 218.66 150.901 218.68 150.961C218.7 151.021 218.74 151.081 218.8 151.111L219.7 151.581L218.21 152.021C218.08 152.061 218 152.201 218.04 152.331C218.08 152.461 218.22 152.541 218.35 152.501L220.34 151.911L221.23 152.371L219.74 152.811C219.61 152.851 219.53 152.991 219.57 153.121C219.61 153.251 219.75 153.331 219.88 153.291L221.87 152.701L223.62 153.601L221.94 154.611L219.92 154.141C219.79 154.111 219.65 154.191 219.62 154.331C219.59 154.461 219.67 154.601 219.81 154.631L221.33 154.981L220.47 155.501L218.45 155.031C218.38 155.011 218.32 155.031 218.26 155.061C218.2 155.101 218.16 155.151 218.15 155.221C218.12 155.351 218.2 155.491 218.34 155.521L219.86 155.871L218.99 156.391C218.87 156.461 218.83 156.621 218.9 156.731C218.97 156.841 219.13 156.881 219.24 156.821L220.11 156.301L219.7 157.801C219.68 157.861 219.69 157.931 219.72 157.991C219.75 158.051 219.81 158.091 219.87 158.111C220 158.151 220.14 158.061 220.18 157.931L220.72 155.931L221.58 155.411L221.17 156.911C221.13 157.041 221.21 157.181 221.35 157.221C221.48 157.261 221.62 157.171 221.66 157.041L222.2 155.041L223.85 154.051V156.061L222.42 157.541C222.37 157.591 222.35 157.651 222.35 157.721C222.35 157.791 222.38 157.851 222.43 157.901C222.53 158.001 222.69 157.991 222.78 157.891L223.85 156.781V157.791L222.42 159.271C222.37 159.321 222.35 159.381 222.35 159.451C222.35 159.521 222.38 159.581 222.43 159.631C222.48 159.681 222.54 159.701 222.6 159.701C222.67 159.701 222.73 159.671 222.78 159.621L223.85 158.511V159.441C223.85 159.581 223.96 159.691 224.1 159.691C224.24 159.691 224.35 159.581 224.35 159.441V158.491L225.43 159.621C225.53 159.721 225.68 159.721 225.78 159.631C225.88 159.531 225.88 159.381 225.79 159.281L224.35 157.781V156.781L225.43 157.911C225.52 158.011 225.69 158.011 225.78 157.921C225.88 157.821 225.88 157.671 225.79 157.571L224.35 156.071V154.011L226.17 154.951L226.83 156.901C226.86 157.001 226.96 157.071 227.07 157.071C227.1 157.071 227.12 157.071 227.15 157.061C227.21 157.041 227.26 156.991 227.29 156.931C227.32 156.871 227.32 156.801 227.3 156.741L226.81 155.281L227.7 155.741L228.36 157.691C228.4 157.821 228.55 157.891 228.68 157.851C228.74 157.831 228.79 157.781 228.82 157.721C228.85 157.661 228.85 157.591 228.83 157.531L228.34 156.071L229.16 156.501C229.2 156.521 229.24 156.531 229.27 156.531C229.36 156.531 229.45 156.481 229.49 156.391C229.52 156.331 229.53 156.261 229.51 156.201C229.49 156.141 229.45 156.081 229.39 156.051L228.55 155.621L230.05 155.171C230.19 155.101 230.27 154.961 230.23 154.831Z" fill="white"/>
<path d="M269.22 73.6003C269.2 73.5403 269.16 73.4803 269.1 73.4503C269.04 73.4203 268.97 73.4103 268.91 73.4303L266.91 74.0203L266.02 73.5603L267.52 73.1103C267.65 73.0703 267.73 72.9303 267.69 72.8003C267.67 72.7403 267.63 72.6803 267.57 72.6503C267.51 72.6203 267.44 72.6103 267.38 72.6303L265.38 73.2203L263.65 72.3303L265.35 71.3103L267.36 71.7803C267.49 71.8103 267.63 71.7303 267.66 71.5903C267.68 71.5203 267.66 71.4603 267.63 71.4003C267.59 71.3403 267.54 71.3003 267.47 71.2903L265.97 70.9403L266.83 70.4203L268.84 70.8903C268.97 70.9203 269.11 70.8403 269.14 70.7003C269.16 70.6303 269.14 70.5703 269.11 70.5103C269.07 70.4503 269.02 70.4103 268.95 70.4003L267.45 70.0503L268.25 69.5703C268.31 69.5403 268.35 69.4803 268.36 69.4203C268.38 69.3603 268.37 69.2903 268.33 69.2303C268.3 69.1703 268.24 69.1303 268.18 69.1203C268.11 69.1003 268.05 69.1103 267.99 69.1503L267.18 69.6403L267.59 68.1303C267.63 68.0003 267.55 67.8603 267.41 67.8203C267.28 67.7803 267.14 67.8603 267.1 68.0003L266.55 70.0103L265.69 70.5303L266.1 69.0203C266.14 68.8903 266.06 68.7503 265.92 68.7103C265.79 68.6703 265.65 68.7503 265.61 68.8903L265.06 70.9003L263.34 71.9303V69.9803L264.78 68.4903C264.88 68.3903 264.87 68.2303 264.77 68.1403C264.67 68.0403 264.51 68.0503 264.42 68.1503L263.34 69.2703V68.2603L264.78 66.7703C264.88 66.6703 264.87 66.5103 264.77 66.4203C264.67 66.3203 264.51 66.3303 264.42 66.4303L263.34 67.5503V66.5303C263.34 66.3903 263.23 66.2803 263.09 66.2803C262.95 66.2803 262.84 66.3903 262.84 66.5303V67.5503L261.77 66.4303C261.67 66.3303 261.52 66.3303 261.42 66.4203C261.32 66.5203 261.32 66.6703 261.41 66.7703L262.84 68.2603V69.2603L261.77 68.1403C261.67 68.0403 261.52 68.0403 261.42 68.1303C261.37 68.1803 261.34 68.2403 261.34 68.3103C261.34 68.3803 261.36 68.4403 261.41 68.4903L262.84 69.9803V71.9103L261.09 71.0103L260.43 69.0403C260.41 68.9803 260.36 68.9303 260.3 68.9003C260.24 68.8703 260.17 68.8703 260.11 68.8903C259.98 68.9303 259.91 69.0803 259.95 69.2103L260.45 70.6903L259.56 70.2303L258.9 68.2603C258.88 68.2003 258.83 68.1503 258.77 68.1203C258.71 68.0903 258.64 68.0903 258.58 68.1103C258.52 68.1303 258.47 68.1803 258.44 68.2403C258.41 68.3003 258.41 68.3703 258.43 68.4303L258.93 69.9103L258.03 69.4403C257.97 69.4103 257.9 69.4003 257.84 69.4203C257.78 69.4403 257.72 69.4803 257.69 69.5403C257.66 69.6003 257.65 69.6703 257.67 69.7303C257.69 69.7903 257.73 69.8503 257.79 69.8803L258.69 70.3503L257.2 70.7903C257.07 70.8303 256.99 70.9703 257.03 71.1003C257.07 71.2303 257.21 71.3103 257.34 71.2703L259.33 70.6803L260.22 71.1403L258.73 71.5803C258.6 71.6203 258.52 71.7603 258.56 71.8903C258.6 72.0203 258.74 72.1003 258.87 72.0603L260.86 71.4703L262.61 72.3703L260.93 73.3803L258.91 72.9103C258.78 72.8803 258.64 72.9603 258.61 73.1003C258.58 73.2303 258.66 73.3703 258.8 73.4003L260.32 73.7503L259.46 74.2703L257.44 73.8003C257.37 73.7803 257.31 73.8003 257.25 73.8303C257.19 73.8703 257.15 73.9203 257.14 73.9903C257.11 74.1203 257.19 74.2603 257.33 74.2903L258.85 74.6403L257.98 75.1603C257.86 75.2303 257.82 75.3903 257.89 75.5003C257.96 75.6103 258.12 75.6503 258.23 75.5903L259.1 75.0703L258.69 76.5703C258.67 76.6303 258.68 76.7003 258.71 76.7603C258.74 76.8203 258.8 76.8603 258.86 76.8803C258.99 76.9203 259.13 76.8303 259.17 76.7003L259.71 74.7003L260.57 74.1803L260.16 75.6803C260.12 75.8103 260.2 75.9503 260.34 75.9903C260.47 76.0303 260.61 75.9403 260.65 75.8103L261.19 73.8103L262.84 72.8203V74.8303L261.41 76.3103C261.36 76.3603 261.34 76.4203 261.34 76.4903C261.34 76.5603 261.37 76.6203 261.42 76.6703C261.52 76.7703 261.68 76.7603 261.77 76.6603L262.84 75.5503V76.5603L261.41 78.0403C261.36 78.0903 261.34 78.1503 261.34 78.2203C261.34 78.2903 261.37 78.3503 261.42 78.4003C261.47 78.4503 261.53 78.4703 261.59 78.4703C261.66 78.4703 261.72 78.4403 261.77 78.3903L262.84 77.2803V78.2103C262.84 78.3503 262.95 78.4603 263.09 78.4603C263.23 78.4603 263.34 78.3503 263.34 78.2103V77.2603L264.42 78.3903C264.52 78.4903 264.67 78.4903 264.77 78.4003C264.87 78.3003 264.87 78.1503 264.78 78.0503L263.34 76.5503V75.5503L264.42 76.6803C264.51 76.7803 264.68 76.7803 264.77 76.6903C264.87 76.5903 264.87 76.4403 264.78 76.3403L263.34 74.8403V72.7803L265.16 73.7203L265.82 75.6703C265.85 75.7703 265.95 75.8403 266.06 75.8403C266.09 75.8403 266.11 75.8403 266.14 75.8303C266.2 75.8103 266.25 75.7603 266.28 75.7003C266.31 75.6403 266.31 75.5703 266.29 75.5103L265.8 74.0503L266.69 74.5103L267.35 76.4603C267.39 76.5903 267.54 76.6603 267.67 76.6203C267.73 76.6003 267.78 76.5503 267.81 76.4903C267.84 76.4303 267.84 76.3603 267.82 76.3003L267.33 74.8403L268.15 75.2703C268.19 75.2903 268.23 75.3003 268.26 75.3003C268.35 75.3003 268.44 75.2503 268.48 75.1603C268.51 75.1003 268.52 75.0303 268.5 74.9703C268.48 74.9103 268.44 74.8503 268.38 74.8203L267.54 74.3903L269.04 73.9403C269.18 73.8703 269.26 73.7303 269.22 73.6003Z" fill="white"/>
<path d="M265.16 288.05C265.14 287.99 265.1 287.93 265.04 287.9C264.98 287.87 264.91 287.86 264.85 287.88L262.85 288.47L261.96 288.01L263.46 287.56C263.59 287.52 263.67 287.38 263.63 287.25C263.61 287.19 263.57 287.13 263.51 287.1C263.45 287.07 263.38 287.06 263.32 287.08L261.32 287.67L259.59 286.78L261.29 285.76L263.3 286.23C263.43 286.26 263.57 286.18 263.6 286.04C263.62 285.97 263.6 285.91 263.57 285.85C263.53 285.79 263.48 285.75 263.41 285.74L261.91 285.39L262.77 284.87L264.78 285.34C264.91 285.37 265.05 285.29 265.08 285.15C265.1 285.08 265.08 285.02 265.05 284.96C265.01 284.9 264.96 284.86 264.89 284.85L263.39 284.5L264.19 284.02C264.25 283.99 264.29 283.93 264.3 283.87C264.32 283.81 264.31 283.74 264.27 283.68C264.24 283.62 264.18 283.58 264.12 283.57C264.05 283.55 263.99 283.56 263.93 283.6L263.12 284.09L263.53 282.58C263.57 282.45 263.49 282.31 263.35 282.27C263.22 282.23 263.08 282.31 263.04 282.45L262.49 284.46L261.63 284.98L262.04 283.47C262.08 283.34 262 283.2 261.86 283.16C261.73 283.12 261.59 283.2 261.55 283.34L261 285.35L259.28 286.38V284.43L260.72 282.94C260.82 282.84 260.81 282.68 260.71 282.59C260.61 282.49 260.45 282.5 260.36 282.6L259.28 283.72V282.71L260.72 281.22C260.82 281.12 260.81 280.96 260.71 280.87C260.61 280.77 260.45 280.78 260.36 280.88L259.28 282V280.98C259.28 280.84 259.17 280.73 259.03 280.73C258.89 280.73 258.78 280.84 258.78 280.98V282L257.71 280.88C257.61 280.78 257.46 280.78 257.36 280.87C257.26 280.96 257.26 281.12 257.35 281.22L258.78 282.71V283.71L257.71 282.59C257.61 282.49 257.46 282.49 257.36 282.58C257.31 282.63 257.28 282.69 257.28 282.76C257.28 282.83 257.3 282.89 257.35 282.94L258.78 284.43V286.36L257.03 285.46L256.37 283.49C256.35 283.43 256.3 283.38 256.24 283.35C256.18 283.32 256.11 283.32 256.05 283.34C255.92 283.38 255.85 283.53 255.89 283.66L256.39 285.14L255.5 284.68L254.84 282.71C254.82 282.65 254.77 282.6 254.71 282.57C254.65 282.54 254.58 282.54 254.52 282.56C254.46 282.58 254.41 282.63 254.38 282.69C254.35 282.75 254.35 282.82 254.37 282.88L254.87 284.36L253.97 283.89C253.91 283.86 253.84 283.85 253.78 283.87C253.72 283.89 253.66 283.93 253.63 283.99C253.6 284.05 253.59 284.12 253.61 284.18C253.63 284.24 253.67 284.3 253.73 284.33L254.63 284.8L253.14 285.24C253.01 285.28 252.93 285.42 252.97 285.55C253.01 285.68 253.15 285.76 253.28 285.72L255.27 285.13L256.16 285.59L254.67 286.03C254.54 286.07 254.46 286.21 254.5 286.34C254.54 286.47 254.68 286.55 254.81 286.51L256.8 285.92L258.55 286.82L256.87 287.83L254.85 287.36C254.72 287.33 254.58 287.41 254.55 287.55C254.52 287.68 254.6 287.82 254.74 287.85L256.26 288.2L255.4 288.72L253.38 288.25C253.31 288.23 253.25 288.25 253.19 288.28C253.13 288.32 253.09 288.37 253.08 288.44C253.05 288.57 253.13 288.71 253.27 288.74L254.79 289.09L253.92 289.61C253.8 289.68 253.76 289.84 253.83 289.95C253.9 290.06 254.06 290.1 254.17 290.04L255.04 289.52L254.63 291.02C254.61 291.08 254.62 291.15 254.65 291.21C254.68 291.27 254.74 291.31 254.8 291.33C254.93 291.37 255.07 291.28 255.11 291.15L255.65 289.15L256.51 288.63L256.1 290.13C256.06 290.26 256.14 290.4 256.28 290.44C256.41 290.48 256.55 290.39 256.59 290.26L257.13 288.26L258.78 287.27V289.28L257.35 290.76C257.3 290.81 257.28 290.87 257.28 290.94C257.28 291.01 257.31 291.07 257.36 291.12C257.46 291.22 257.62 291.21 257.71 291.11L258.78 290V291.01L257.35 292.49C257.3 292.54 257.28 292.6 257.28 292.67C257.28 292.74 257.31 292.8 257.36 292.85C257.41 292.9 257.47 292.92 257.53 292.92C257.6 292.92 257.66 292.89 257.71 292.84L258.78 291.73V292.66C258.78 292.8 258.89 292.91 259.03 292.91C259.17 292.91 259.28 292.8 259.28 292.66V291.71L260.36 292.84C260.46 292.94 260.61 292.94 260.71 292.85C260.81 292.75 260.81 292.6 260.72 292.5L259.28 291V290L260.36 291.13C260.45 291.23 260.62 291.23 260.71 291.14C260.81 291.04 260.81 290.89 260.72 290.79L259.28 289.29V287.23L261.1 288.17L261.76 290.12C261.79 290.22 261.89 290.29 262 290.29C262.03 290.29 262.05 290.29 262.08 290.28C262.14 290.26 262.19 290.21 262.22 290.15C262.25 290.09 262.25 290.02 262.23 289.96L261.74 288.5L262.63 288.96L263.29 290.91C263.33 291.04 263.48 291.11 263.61 291.07C263.67 291.05 263.72 291 263.75 290.94C263.78 290.88 263.78 290.81 263.76 290.75L263.27 289.29L264.09 289.72C264.13 289.74 264.17 289.75 264.2 289.75C264.29 289.75 264.38 289.7 264.42 289.61C264.45 289.55 264.46 289.48 264.44 289.42C264.42 289.36 264.38 289.3 264.32 289.27L263.48 288.84L264.98 288.39C265.12 288.32 265.2 288.18 265.16 288.05Z" fill="white"/>
<path d="M133.59 143.04C131.5 143.04 131.5 146.29 133.59 146.29C135.69 146.29 135.69 143.04 133.59 143.04Z" fill="white"/>
<path d="M161.21 150.351C157.55 150.351 157.55 156.041 161.21 156.041C164.87 156.041 164.88 150.351 161.21 150.351Z" fill="white"/>
<path d="M134.81 160.5C131.15 160.5 131.15 166.19 134.81 166.19C138.47 166.19 138.48 160.5 134.81 160.5Z" fill="white"/>
<path d="M93.7902 150.35C92.2502 150.42 90.9502 151.6 90.9502 153.19V153.6C90.9502 155.09 92.2602 156.51 93.7902 156.44C95.3302 156.37 96.6302 155.19 96.6302 153.6V153.19C96.6302 151.71 95.3302 150.28 93.7902 150.35Z" fill="white"/>
<path d="M115.32 214.931C111.66 214.931 111.66 220.621 115.32 220.621C118.98 220.621 118.98 214.931 115.32 214.931Z" fill="white"/>
<path d="M164.38 216.181C163.55 215.411 162.52 214.931 161.36 214.931H161C159.91 214.931 158.76 215.411 157.98 216.181C157.24 216.921 156.68 218.131 156.73 219.201C156.78 220.301 157.14 221.451 157.98 222.221C158.81 222.991 159.84 223.471 161 223.471H161.36C162.45 223.471 163.6 222.991 164.38 222.221C165.12 221.481 165.68 220.271 165.63 219.201C165.58 218.091 165.22 216.951 164.38 216.181Z" fill="white"/>
<path d="M102.73 231.58C96.4602 231.58 96.4502 241.33 102.73 241.33C109 241.33 109.01 231.58 102.73 231.58Z" fill="white"/>
<path d="M163.65 290.07C157.38 290.07 157.37 299.82 163.65 299.82C169.92 299.82 169.93 290.07 163.65 290.07Z" fill="white"/>
<path d="M200.2 145.021C199.54 145.021 198.9 145.601 198.93 146.291C198.96 146.981 199.49 147.561 200.2 147.561C200.86 147.561 201.5 146.981 201.47 146.291C201.44 145.601 200.92 145.021 200.2 145.021Z" fill="white"/>
<path d="M274 169.301C273.88 169.101 273.76 168.901 273.65 168.701C273.31 168.121 272.65 167.571 271.98 167.411C271.73 167.381 271.48 167.341 271.24 167.311C270.73 167.311 270.26 167.441 269.83 167.691C269.47 167.841 269.04 168.261 268.88 168.591C268.86 168.631 268.85 168.661 268.83 168.701C268.51 169.361 268.31 170.131 268.55 170.861C268.78 171.571 269.2 172.131 269.84 172.531C270.03 172.651 270.23 172.781 270.42 172.901C271.36 173.501 272.85 173.321 273.61 172.491C274.38 171.631 274.61 170.341 274 169.301Z" fill="white"/>
<path d="M260.72 143.86C259.17 143.86 259.17 146.27 260.72 146.27C262.27 146.28 262.28 143.86 260.72 143.86Z" fill="white"/>
<path d="M225.79 243.96C223.95 243.96 223.95 246.82 225.79 246.82C227.63 246.82 227.63 243.96 225.79 243.96Z" fill="white"/>
<path d="M274.56 218.56C273.88 217.93 273.04 217.54 272.1 217.54C271.21 217.54 270.27 217.93 269.64 218.56C268.82 219.38 268.33 220.81 268.74 221.95C268.77 222.03 268.8 222.11 268.83 222.2C269.09 222.91 269.43 223.49 270.05 223.96C270.62 224.4 271.36 224.72 272.1 224.69C272.7 224.66 273.28 224.51 273.81 224.23C274.6 223.81 275.08 223.01 275.37 222.2C275.4 222.12 275.43 222.04 275.46 221.95C275.86 220.84 275.41 219.34 274.56 218.56Z" fill="white"/>
<path d="M228.61 220.72C227.43 220.04 225.72 220.18 224.77 221.22C223.81 222.27 223.55 223.8 224.27 225.06C224.81 226.01 225.71 226.63 226.79 226.77C227.71 226.89 228.82 226.64 229.47 225.92C230.06 225.28 230.34 224.51 230.37 223.66C230.43 222.47 229.6 221.29 228.61 220.72Z" fill="white"/>
<path d="M273.48 274.061C273.36 273.911 273.24 273.761 273.11 273.611C272.63 273.021 271.6 272.681 270.87 272.681C270.09 272.681 269.16 273.031 268.63 273.611C268.08 274.211 267.66 275.011 267.7 275.851C267.74 276.641 267.99 277.571 268.63 278.091C268.78 278.211 268.93 278.331 269.08 278.461C269.74 279.001 270.4 279.371 271.28 279.371C272.04 279.371 272.96 279.031 273.48 278.461C274.02 277.871 274.43 277.091 274.39 276.261C274.36 275.391 274.03 274.731 273.48 274.061Z" fill="white"/>
<path d="M269.22 299.311C269.17 298.621 268.83 298.041 268.18 297.761C267.58 297.511 266.79 297.611 266.33 298.111C265.93 298.551 265.73 299.171 265.89 299.761C266.1 300.521 266.77 300.951 267.52 301.001C267.55 301.001 267.59 301.001 267.62 301.011C268.44 301.071 269.28 300.231 269.22 299.411C269.22 299.381 269.22 299.341 269.22 299.311Z" fill="white"/>
<path d="M245.29 295.53C242.39 295.53 242.38 300.04 245.29 300.04C248.19 300.04 248.2 295.53 245.29 295.53Z" fill="white"/>
<path d="M203.86 281.23C200.85 281.23 200.84 285.91 203.86 285.91C206.87 285.91 206.88 281.23 203.86 281.23Z" fill="white"/>
<path d="M97.9404 287.06C97.9004 287.05 97.8504 287.04 97.8104 287.03C96.7904 286.8 95.8004 287.34 95.4904 288.35C95.4004 288.64 95.3804 288.99 95.4704 289.28C95.4804 289.3 95.4804 289.33 95.4904 289.35C95.8004 290.36 96.7904 290.9 97.8104 290.67C97.8504 290.66 97.8904 290.65 97.9404 290.64C99.7104 290.24 99.7104 287.46 97.9404 287.06Z" fill="white"/>
<path d="M127.5 297.08C125.55 297.08 125.55 300.11 127.5 300.11C129.45 300.11 129.45 297.08 127.5 297.08Z" fill="white"/>
<path d="M164.06 132.181C162.63 132.181 162.62 134.411 164.06 134.411C165.49 134.401 165.49 132.181 164.06 132.181Z" fill="white"/>
<path d="M215.15 204.87C214.49 203.85 213.58 203.1 212.4 202.76C211.99 202.64 211.58 202.52 211.17 202.4C210.05 202.07 208.67 202.27 207.67 202.86C206.73 203.41 205.83 204.49 205.58 205.57C205.32 206.73 205.37 208.04 206.04 209.07C206.28 209.38 206.51 209.68 206.75 209.99C207.32 210.55 207.98 210.94 208.75 211.16C209.15 211.32 209.55 211.47 209.95 211.63C210.56 211.82 211.17 211.85 211.78 211.71C212.39 211.68 212.96 211.5 213.49 211.16C214.44 210.6 215.35 209.51 215.6 208.41C215.88 207.23 215.82 205.91 215.15 204.87Z" fill="white"/>
<path d="M239.6 133.34C237.58 133.34 237.58 136.48 239.6 136.48C241.62 136.49 241.63 133.34 239.6 133.34Z" fill="white"/>
<path d="M234.73 81.1602C231.94 81.1602 231.93 85.5002 234.73 85.5002C237.52 85.5002 237.53 81.1602 234.73 81.1602Z" fill="white"/>
<path d="M214.17 88.9907C214.02 88.8907 213.86 88.7807 213.71 88.6807C213.07 88.2607 212.04 88.4007 211.53 88.9607C211.01 89.5307 210.8 90.4607 211.25 91.1407C211.35 91.2907 211.46 91.4507 211.56 91.6007C212.24 92.6207 213.66 92.8907 214.57 91.9907C215.45 91.1007 215.19 89.6707 214.17 88.9907Z" fill="white"/>
<path d="M165.14 69.9404C163.87 69.9404 162.66 71.0504 162.72 72.3604C162.78 73.6704 163.78 74.7804 165.14 74.7804C166.41 74.7804 167.62 73.6704 167.56 72.3604C167.5 71.0504 166.5 69.9404 165.14 69.9404Z" fill="white"/>
<path d="M127.5 69.79C124.71 69.79 124.7 74.13 127.5 74.13C130.3 74.13 130.3 69.79 127.5 69.79Z" fill="white"/>
<path d="M114.18 86.3608C113.85 85.3508 113.19 84.4808 112.27 83.9308C109.78 82.4608 106.58 84.3508 106.56 87.2108C106.56 87.6108 106.58 88.0508 106.7 88.4208C106.81 88.7708 106.97 89.2008 107.19 89.5008C107.53 90.0708 107.98 90.5208 108.55 90.8608C109.14 91.2008 109.78 91.3808 110.46 91.3808C111.85 91.3808 112.98 90.6408 113.73 89.5008C114.27 88.6908 114.49 87.3308 114.18 86.3608Z" fill="white"/>
<path d="M87.7002 77.4102C85.3102 77.4102 85.3102 81.1202 87.7002 81.1202C90.0902 81.1302 90.0902 77.4102 87.7002 77.4102Z" fill="white"/>
<path d="M158.78 87.1602C156.91 87.1602 156.9 90.0702 158.78 90.0702C160.65 90.0702 160.65 87.1602 158.78 87.1602Z" fill="white"/>
<path d="M272.26 127.88C271.95 127.36 271.53 126.94 271.01 126.63C270.86 126.52 270.71 126.41 270.56 126.3C270.29 126.19 270.02 126.07 269.75 125.96C269.3 125.82 268.85 125.8 268.39 125.9C267.68 126 266.94 126.29 266.44 126.83C266.04 127.26 265.75 127.77 265.57 128.33C265.33 129.06 265.44 130.31 265.91 130.95C266.02 131.1 266.13 131.25 266.24 131.4C266.55 131.92 266.97 132.34 267.49 132.65C268.03 132.97 268.62 133.12 269.25 133.13C270.17 133.09 271.05 132.78 271.71 132.11C272.34 131.48 272.73 130.54 272.73 129.65C272.73 129.01 272.58 128.42 272.26 127.88Z" fill="white"/>
<path d="M261.13 93.3398C258.85 93.3398 258.85 96.8798 261.13 96.8798C263.41 96.8798 263.41 93.3398 261.13 93.3398Z" fill="white"/>
<path d="M206.77 67.4202C206.44 67.0102 206.06 66.8502 205.61 66.6602C204.86 66.3402 204.23 66.4002 203.44 66.5202C203.19 66.6202 202.94 66.7302 202.7 66.8302C202.34 67.0302 202.05 67.2902 201.83 67.6302C201.42 68.1602 201.13 68.8302 201.16 69.5202C201.18 70.0702 201.33 70.6002 201.58 71.0902C201.9 71.6902 202.75 72.4102 203.44 72.5202C204.23 72.6402 204.86 72.7002 205.61 72.3802C206.06 72.1902 206.44 72.0202 206.77 71.6202C207.26 71.0202 207.68 70.3402 207.64 69.5202C207.61 68.6902 207.29 68.0702 206.77 67.4202Z" fill="white"/>
<path d="M229.04 281.311C226.65 281.311 226.65 285.021 229.04 285.021C231.43 285.021 231.43 281.311 229.04 281.311Z" fill="white"/>
<path d="M257.05 204.19C255.98 204.44 255.34 205.17 254.79 206.05C254.09 207.18 254.29 208.91 255.28 209.82C256.28 210.74 257.85 211.06 259.05 210.31C259.93 209.76 260.65 209.12 260.91 208.05C261.46 205.68 259.41 203.63 257.05 204.19Z" fill="white"/>
<path d="M95.4903 202.95C95.1603 202.37 94.4703 201.81 93.8103 201.66C93.0403 201.48 92.3603 201.6 91.6403 201.94L91.2604 202.12C89.5604 202.93 89.5604 205.8 91.2604 206.61L91.6403 206.79C92.3003 207.11 93.0703 207.31 93.8103 207.07C94.5003 206.85 95.1203 206.43 95.4903 205.78C96.0003 204.88 96.0003 203.86 95.4903 202.95Z" fill="white"/>
<path d="M133.19 217.511C131.28 217.511 131.28 220.481 133.19 220.481C135.1 220.481 135.1 217.511 133.19 217.511Z" fill="white"/>
<path d="M110.44 275.75C109.26 275.75 109.26 277.58 110.44 277.58C111.62 277.58 111.62 275.75 110.44 275.75Z" fill="white"/>
<path d="M203.86 220.63C202.83 220.63 202.83 222.23 203.86 222.23C204.89 222.23 204.89 220.63 203.86 220.63Z" fill="white"/>
<path d="M218.48 299.05C216.97 299.05 216.97 301.39 218.48 301.39C219.99 301.39 219.99 299.05 218.48 299.05Z" fill="white"/>
<path d="M261.53 230.96C260.21 230.96 260.2 233.02 261.53 233.02C262.86 233.02 262.86 230.96 261.53 230.96Z" fill="white"/>
<path d="M246.91 161.391C245.95 161.391 245.95 162.881 246.91 162.881C247.87 162.871 247.87 161.391 246.91 161.391Z" fill="white"/>
<path d="M151.87 165.83C150.36 165.83 150.36 168.17 151.87 168.17C153.38 168.17 153.38 165.83 151.87 165.83Z" fill="white"/>
<path d="M133.19 92.3799C131.24 92.3799 131.24 95.4099 133.19 95.4099C135.14 95.4099 135.14 92.3799 133.19 92.3799Z" fill="white"/>
<path d="M210.09 234.05C208.91 234.05 208.91 235.88 210.09 235.88C211.26 235.88 211.27 234.05 210.09 234.05Z" fill="white"/>
<path d="M228.77 171.9C227.41 171.9 227.41 174.01 228.77 174.01C230.13 174.02 230.13 171.9 228.77 171.9Z" fill="white"/>
<path d="M113.96 159.53C113.14 159.53 112.68 160.56 113.25 161.16C113.45 161.94 114.47 161.95 114.67 161.16C115.24 160.57 114.78 159.53 113.96 159.53Z" fill="white"/>
<path d="M130.75 238.86C129.83 238.86 129.83 240.29 130.75 240.29C131.67 240.28 131.67 238.86 130.75 238.86Z" fill="white"/>
<path d="M172.72 202.87C171.14 202.87 171.14 205.33 172.72 205.33C174.3 205.33 174.3 202.87 172.72 202.87Z" fill="white"/>
<path d="M145.37 279.61C143.24 279.61 143.23 282.92 145.37 282.92C147.5 282.92 147.51 279.61 145.37 279.61Z" fill="white"/>
<path d="M89.5901 300.721C88.4901 300.721 88.4901 302.431 89.5901 302.431C90.7001 302.431 90.7001 300.721 89.5901 300.721Z" fill="white"/>
<path d="M89.0501 92.4102C87.8401 92.4102 87.8401 94.2902 89.0501 94.2902C90.2701 94.2902 90.2701 92.4102 89.0501 92.4102Z" fill="white"/>
</g>
<path d="M288.87 118C273.15 118.11 257.43 118.82 241.77 120.15C231.28 121.04 220.8 122.21 210.27 122.19C204.23 122.17 198.19 121.78 192.16 121.38C184.58 120.88 177 120.37 169.42 119.87C168.29 119.8 167.15 119.72 166.02 119.64C160.84 119.3 156.5 118.08 151.32 118.38C130.43 119.57 109.49 120.07 88.5701 119.91C83.6101 119.87 78.6201 119.79 73.7001 119.08C73.3101 119.03 72.8801 118.95 72.6301 118.64C72.4001 118.36 72.3901 117.96 72.3901 117.59C72.4001 111.62 72.3701 104.39 72.3701 98.2797V97.1497C72.4401 97.1197 72.5101 97.0797 72.5801 97.0597C75.2401 95.8997 78.4801 96.1297 80.9501 97.6497C84.4801 99.8297 86.1501 104.15 89.5001 106.57C92.6801 108.86 96.9101 109.11 100.79 108.6C100.9 108.58 101.02 108.57 101.13 108.55C104.89 108.02 108.58 106.89 112.37 106.62C117.88 106.24 123.33 107.68 128.78 108.58C130.76 108.9 132.8 109.15 134.83 109.21C138.37 109.32 141.88 108.86 145.02 107.28C147.83 105.87 150.28 103.58 153.38 103.06C155.7 102.66 157.99 103.32 160.28 103.95C161.49 104.27 162.7 104.59 163.93 104.75C166.82 105.12 169.79 104.47 172.33 103.06C174.37 101.94 176.12 100.32 177.35 98.3397C178.75 96.0597 179.61 93.2397 181.89 91.8397C184.59 90.1797 187.21 92.8797 189.39 95.1697C192.01 97.9297 193.13 102.02 196.25 104.19C199.22 106.25 203.19 106 206.74 105.34C210.29 104.68 213.95 103.69 217.46 104.55C220.66 105.32 223.31 107.54 226.37 108.76C229.84 110.14 233.84 110.16 237.32 108.82C237.35 108.81 237.38 108.8 237.41 108.78C242.79 106.68 247.18 101.51 252.94 101.67C256.28 101.77 259.28 103.68 262.32 105.24C264.76 106.49 267.2 107.52 269.86 107.21C274.03 106.71 277.03 103.07 279.32 99.5397C280.1 98.3297 280.88 97.0797 282.02 96.1897C283.15 95.2997 284.74 94.8297 286.07 95.3897C287.98 96.2197 288.47 98.6597 288.65 100.74C288.72 101.62 288.8 102.5 288.85 103.38C289.17 108.26 289.17 113.14 288.87 118Z" fill="white"/>
<path d="M288.18 190.519C254 189.159 219.76 193.119 185.58 191.649C181.43 191.469 177.28 191.209 173.14 190.959C167.62 190.609 162.67 190.879 157.17 191.419C153.95 191.729 150.75 192.199 147.54 192.489C139.38 193.209 131.16 192.729 122.98 192.559C111.94 192.329 100.9 192.679 89.8699 193.029C83.4799 193.219 77.0799 193.429 70.6799 193.629C71.1599 183.199 70.3999 171.049 69.3599 160.669C71.1699 160.639 72.9899 160.819 74.7599 161.219C77.4699 161.809 80.0599 162.869 82.3799 164.359C87.8999 167.889 92.0899 173.769 98.0799 176.069C98.6499 176.279 99.2299 176.469 99.8299 176.609C107.54 178.499 115.5 173.529 123.37 174.569C125.18 174.809 126.92 175.359 128.63 176.019C130.95 176.909 133.22 178.019 135.57 178.839C144.14 181.809 154.03 180.719 161.73 175.939C167.49 172.369 172.66 166.699 179.43 166.689C183.69 166.679 187.72 167.969 191.14 170.509C193.21 172.039 194.88 174.039 196.96 175.549C202.14 179.309 209.06 179.479 215.43 178.499C215.8 178.439 216.16 178.389 216.52 178.319C223.19 177.159 229.8 175.009 236.56 175.359C240.13 175.539 243.6 176.419 247.06 177.369C248.71 177.819 250.35 178.279 252 178.699C257.11 180.009 262.57 180.849 267.6 179.289C274.88 177.039 279.99 170.219 287.19 167.769C287.44 169.479 287.65 171.189 287.82 172.899C288.41 178.759 288.53 184.649 288.18 190.519Z" fill="white"/>
<path d="M288.92 259.899C288.9 260.129 288.89 260.369 288.75 260.569C288.54 260.879 288.11 260.939 287.73 260.979C276.13 261.909 264.46 259.789 252.83 260.409C244.25 260.859 235.83 262.799 227.29 263.659C219.41 264.449 211.47 264.319 203.55 264.089C192.17 263.759 180.8 263.229 169.43 262.489C166.94 262.689 164.66 262.539 162.18 262.729C157.38 263.109 152.58 263.489 147.8 264.089C137.36 265.389 126.97 267.749 116.46 267.369C109.29 267.119 102.21 265.599 95.0498 265.189C87.5198 264.759 79.9298 265.559 72.4298 264.779C73.7198 260.999 72.9398 256.879 72.3098 252.939C70.4198 241.269 69.6898 227.459 70.5198 215.649C74.7398 217.409 76.9698 221.619 78.2798 226.179C78.7898 227.929 79.1598 229.749 79.4498 231.489C79.6598 232.749 79.8698 234.049 80.4598 235.169C80.5498 235.369 80.6598 235.549 80.7798 235.739C81.1898 236.349 81.7098 236.849 82.2798 237.289C82.2798 237.299 82.2898 237.299 82.2898 237.309C83.9998 238.609 86.2098 239.429 87.5498 241.139C89.3898 243.479 89.1798 246.929 90.9098 249.369C93.0098 252.319 97.2598 252.789 100.81 252.069C104.36 251.349 107.73 249.709 111.35 249.449C111.41 249.449 111.46 249.439 111.52 249.439C117 249.119 122.2 251.949 127.67 252.519C127.98 252.549 128.3 252.579 128.6 252.589C135.2 252.939 141.54 249.569 148.14 249.709C153.49 249.819 158.89 252.229 164.07 250.859C168.89 249.579 172.29 245.329 174.75 240.989C177.2 236.649 179.14 231.909 182.62 228.339C183.05 227.899 183.54 227.459 184.15 227.339C185.39 227.099 186.44 228.269 187.11 229.349C191.05 235.659 193.31 244.039 200.2 246.849C206.08 249.249 212.82 246.379 219.11 247.349C222.05 247.799 224.81 249.089 227.75 249.579C230.69 250.059 234.12 249.499 235.83 247.059C238.66 243.049 244.96 242.659 249.87 242.939C253.44 243.149 256.78 244.619 260.2 245.659C263.61 246.709 267.42 247.299 270.67 245.809C274.1 244.239 276.16 240.699 277.59 237.219C278.62 234.709 279.51 232.009 281.5 230.159C282.59 229.159 284.31 228.479 285.52 229.339C285.8 229.539 286.02 229.799 286.2 230.099C286.52 230.639 286.69 231.309 286.83 231.939C288.82 241.099 289.53 250.539 288.92 259.899Z" fill="white"/>
<path d="M285 306.68C285.03 314.1 285.07 321.52 285.1 328.94C270.75 331.3 254.95 332.17 240.43 332.6C182.78 334.27 125.04 333.07 67.4999 329.01C72.1999 318.72 66.5199 306.75 67.2199 295.47C70.6499 295.34 73.8499 297.68 76.2399 300.43C76.5599 300.8 76.8699 301.18 77.1599 301.56C79.8699 305.09 82.1799 309.26 86.1699 311.25C90.2699 313.3 95.2099 312.53 99.5899 311.15C103.98 309.78 108.27 307.84 112.86 307.64C113.01 307.63 113.18 307.63 113.34 307.63C119.55 307.53 125.48 310.57 131.6 311.55C133.01 311.78 134.44 311.89 135.88 311.83C141.7 311.6 147.21 308.54 153.02 308.87C156.76 309.08 160.27 310.68 163.9 311.57C167.54 312.47 171.77 312.53 174.61 310.08C178.97 306.32 177.88 298.74 182.04 294.76C187.48 298.38 188.77 306.48 194.5 309.63C199.79 312.54 205.84 309.9 211.92 308.38C214.67 307.7 217.42 307.24 220.12 307.62C225.57 308.39 230.62 312.59 235.79 313.15C237.05 313.29 238.32 313.21 239.61 312.81C242.78 311.83 245.11 309.06 248.2 307.87C255.36 305.12 263.02 311.65 270.65 310.86C276.47 310.26 280.93 305.59 284.82 301.23C285.07 302.57 285 304.33 285.01 305.69V306.68H285Z" fill="white"/>
<g opacity="0.35">
<path d="M112.84 307.63C112.99 307.62 113.16 307.62 113.32 307.62C109.61 308.8 106.14 311.05 102.58 312.77C97.7498 315.1 92.2698 316.53 87.0198 315.46C81.7598 314.39 76.9098 310.35 76.0698 305.05C75.8298 303.49 75.8898 301.92 76.2198 300.41C76.5398 300.78 76.8498 301.16 77.1398 301.54C79.8498 305.07 82.1598 309.24 86.1498 311.23C90.2498 313.28 95.1898 312.51 99.5698 311.13C103.96 309.77 108.26 307.83 112.84 307.63Z" fill="#AAC1EF"/>
<path d="M211.91 308.38C205.89 311.22 200.07 316.45 193.93 314.27C190.88 313.18 188.74 310.44 185.94 308.82C183.14 307.19 180.45 306.42 179.08 309.36C176.76 314.3 170.42 316.92 165.29 315.05C163.04 314.23 161.06 312.68 158.71 312.17C153.93 311.12 149.38 314.62 144.52 315.19C139.97 315.73 135.79 313.74 131.6 311.56C133.01 311.79 134.44 311.9 135.88 311.84C141.7 311.61 147.21 308.55 153.02 308.88C156.76 309.09 160.27 310.69 163.9 311.58C167.54 312.48 171.77 312.54 174.61 310.09C178.97 306.33 177.88 298.75 182.04 294.77C187.48 298.39 188.77 306.49 194.5 309.64C199.77 312.54 205.82 309.9 211.91 308.38Z" fill="#AAC1EF"/>
<path d="M285 305.689V306.679C283.14 308.119 281.17 309.419 279.13 310.559C274.25 313.279 268.33 315.149 263.12 313.139C260.91 312.289 258.9 310.749 256.55 310.559C251.42 310.129 247.53 316.019 242.38 316.049C239.89 316.069 237.78 314.739 235.78 313.159C237.04 313.299 238.31 313.219 239.6 312.819C242.77 311.839 245.1 309.069 248.19 307.879C255.35 305.129 263.01 311.659 270.64 310.869C276.46 310.269 280.92 305.599 284.81 301.239C285.06 302.569 284.99 304.319 285 305.689Z" fill="#AAC1EF"/>
<path d="M79.4398 231.48C79.6498 232.74 79.8598 234.04 80.4498 235.16C78.5798 233.52 76.0998 232.6 73.7998 233.38C75.4698 230.9 76.8398 228.55 78.2798 226.17C78.7798 227.93 79.1498 229.74 79.4398 231.48Z" fill="#AAC1EF"/>
<path d="M111.34 249.44C111.4 249.44 111.45 249.43 111.51 249.43C110.99 249.63 110.48 249.85 109.97 250.06C107.64 251.04 105.31 252.03 102.97 253C99.3798 254.52 95.2898 256.04 91.6898 254.49C88.5998 253.17 86.8198 249.9 85.7598 246.72C84.6998 243.53 84.0798 240.12 82.2798 237.29C83.9898 238.59 86.1998 239.41 87.5398 241.12C89.3798 243.46 89.1698 246.91 90.8998 249.35C92.9998 252.3 97.2498 252.77 100.8 252.05C104.35 251.34 107.73 249.7 111.34 249.44Z" fill="#AAC1EF"/>
<path d="M286.22 230.089C285.75 230.979 285.26 231.849 284.77 232.709C282.47 236.799 280 240.869 276.57 244.059C273.13 247.239 268.57 249.489 263.89 249.199C258.93 248.899 254.35 245.84 249.37 246.1C243.13 246.43 238.25 251.859 232.11 253.039C224.43 254.509 217.08 249.07 209.27 248.6C202.62 248.21 194.69 251.049 190.07 246.259C187.91 244.009 187.26 240.65 185.2 238.32C183.14 235.97 179.03 234.49 177.78 237.35C175.8 241.88 173.4 246.359 169.75 249.699C166.09 253.039 160.99 255.089 156.14 254.049C153.96 253.589 151.92 252.52 149.69 252.35C145.92 252.07 142.47 254.409 138.73 254.979C134.92 255.559 131.14 254.269 127.66 252.509C127.97 252.539 128.29 252.569 128.59 252.579C135.19 252.929 141.53 249.559 148.13 249.699C153.48 249.809 158.88 252.22 164.06 250.85C168.88 249.57 172.28 245.319 174.74 240.979C177.19 236.639 179.13 231.899 182.61 228.329C183.04 227.889 183.53 227.449 184.14 227.329C185.38 227.089 186.43 228.259 187.1 229.339C191.04 235.649 193.3 244.029 200.19 246.839C206.07 249.239 212.81 246.369 219.1 247.339C222.04 247.789 224.8 249.08 227.74 249.57C230.68 250.05 234.11 249.489 235.82 247.049C238.65 243.039 244.95 242.649 249.86 242.929C253.43 243.139 256.77 244.609 260.19 245.649C263.6 246.699 267.41 247.289 270.66 245.799C274.09 244.229 276.15 240.689 277.58 237.209C278.61 234.699 279.5 231.999 281.49 230.149C282.58 229.149 284.3 228.469 285.51 229.329C285.82 229.529 286.04 229.789 286.22 230.089Z" fill="#AAC1EF"/>
<path d="M82.37 164.36C87.89 167.89 92.08 173.77 98.07 176.07C94.3 176.72 90.54 176.54 87.44 174.45C85.02 172.83 83.42 170.27 81.42 168.14C79.42 166.02 76.59 164.21 73.75 164.83C73.98 163.59 74.29 162.36 74.74 161.22C77.46 161.81 80.05 162.87 82.37 164.36Z" fill="#AAC1EF"/>
<path d="M215.43 178.499C207.43 181.379 197.98 181.349 191.09 176.419C187.92 174.149 185.64 171.159 181.74 170.989C178.65 170.859 176.05 173.079 173.55 174.879C160.65 184.209 141.99 184.669 128.62 176.029C130.94 176.919 133.21 178.029 135.56 178.849C144.13 181.819 154.02 180.729 161.72 175.949C167.48 172.379 172.65 166.709 179.42 166.699C183.68 166.689 187.71 167.979 191.13 170.519C193.2 172.049 194.87 174.049 196.95 175.559C202.14 179.319 209.05 179.489 215.43 178.499Z" fill="#AAC1EF"/>
<path d="M287.82 172.91C284.66 175.36 281.39 177.65 277.83 179.45C272.53 182.15 266.46 183.71 260.59 182.75C255.83 181.97 251.43 179.61 247.05 177.37C248.7 177.82 250.34 178.28 251.99 178.7C257.1 180.01 262.56 180.85 267.59 179.29C274.87 177.04 279.98 170.22 287.18 167.77C287.44 169.48 287.65 171.19 287.82 172.91Z" fill="#AAC1EF"/>
<path d="M72.37 98.0295C72.41 98.0195 72.46 98.0195 72.5 98.0195C72.49 98.2295 72.49 98.4295 72.5 98.6495L72.37 98.2895L72.27 98.0295H72.37Z" fill="#AAC1EF"/>
<path d="M73.82 102.17C72.94 101.15 72.55 99.9396 72.5 98.6396L73.82 102.17Z" fill="#AAC1EF"/>
<path d="M100.8 108.609C100.91 108.589 101.03 108.579 101.14 108.559C98.5802 109.749 96.0002 110.609 93.2302 110.229C85.1002 109.089 80.6303 97.8294 72.5103 98.0194C72.5203 97.6994 72.5502 97.3894 72.5902 97.0694C75.2502 95.9094 78.4903 96.1394 80.9603 97.6594C84.4903 99.8394 86.1603 104.159 89.5103 106.579C92.6903 108.869 96.9102 109.119 100.8 108.609Z" fill="#AAC1EF"/>
<path d="M160.29 103.97C155.03 106.05 149.89 109.45 144.26 110.15C141.09 110.55 137.96 110.07 134.84 109.23C138.38 109.34 141.89 108.88 145.03 107.3C147.84 105.89 150.29 103.6 153.39 103.08C155.71 102.67 157.99 103.33 160.29 103.97Z" fill="#AAC1EF"/>
<path d="M237.33 108.84C237.36 108.83 237.39 108.82 237.42 108.8C235.82 109.82 234.11 110.6 232.22 110.9C227.52 111.66 222.91 109.26 218.18 108.95C211.03 108.48 203.27 112.63 197.06 109.06C193.75 107.17 191.15 103.2 187.36 103.58C185.86 103.73 184.52 104.59 183.06 104.99C179.49 105.97 175.95 104.15 172.34 103.06C174.38 101.94 176.13 100.32 177.36 98.3397C178.76 96.0597 179.62 93.2397 181.9 91.8397C184.6 90.1797 187.22 92.8797 189.4 95.1697C192.02 97.9297 193.14 102.02 196.26 104.19C199.23 106.25 203.2 106 206.75 105.34C210.3 104.68 213.96 103.69 217.47 104.55C220.67 105.32 223.32 107.54 226.38 108.76C229.85 110.16 233.85 110.17 237.33 108.84Z" fill="#AAC1EF"/>
<path d="M288.86 103.41C286.85 104.86 284.39 105.81 282.04 106.68C275.96 108.95 268.39 110.97 263.58 106.61C263.13 106.2 262.72 105.74 262.33 105.27C264.77 106.52 267.21 107.55 269.87 107.24C274.04 106.74 277.04 103.1 279.33 99.5701C280.11 98.3601 280.89 97.1101 282.03 96.2201C283.16 95.3301 284.75 94.8601 286.08 95.4201C287.99 96.2501 288.48 98.6901 288.66 100.77C288.73 101.64 288.81 102.53 288.86 103.41Z" fill="#AAC1EF"/>
</g>
<path d="M283.89 53.4301V324.47H76.3498V53.4301H283.89ZM285.2 52.1201H75.0498V325.78H285.21V52.1201H285.2Z" fill="#AAC1EF"/>
<path d="M283.55 51.9199H74.1401V58.8199H283.55V51.9199Z" fill="white"/>
<path d="M283.55 111.75H74.1401V118.65H283.55V111.75Z" fill="white"/>
<path d="M283.55 183.67H74.1401V190.57H283.55V183.67Z" fill="white"/>
<path d="M283.55 256.149H74.1401V263.049H283.55V256.149Z" fill="white"/>
<path d="M283.55 318.29H74.1401V325.19H283.55V318.29Z" fill="white"/>
<path d="M81.0401 51.3496H74.1401V325.77H81.0401V51.3496Z" fill="white"/>
<path d="M185.74 51.3496H178.84V325.77H185.74V51.3496Z" fill="white"/>
<path d="M285.27 51.3496H278.37V325.77H285.27V51.3496Z" fill="white"/>
<path d="M61.77 38.7197V337.99H297.65V38.7197H61.77ZM280.96 321.88H77.88V55.9797H280.96V321.88Z" fill="white"/>
<path d="M68.96 46.7695V331.09H290.45V46.7695H68.96ZM281.25 114.63H183.16V55.9795H281.25V114.63ZM183.15 195.46H281.24V259.03H183.15V195.46ZM183.15 186.83V123.26H281.24V186.83H183.15ZM176.25 55.9795V114.63H78.16V55.9795H176.25ZM176.25 195.46V259.03H78.16V195.46H176.25ZM78.16 186.83V123.26H176.25V186.83H78.16ZM78.16 267.66H176.25V321.88H78.16V267.66ZM183.15 321.88V267.66H281.24V321.88H183.15Z" fill="#D2DFF4"/>
<path d="M311.41 341.82H48L61.33 330.94H296.63L311.41 341.82Z" fill="white"/>
<path d="M311.42 341.82H48V351.74H311.42V341.82Z" fill="#A6C2E2"/>
<path d="M297.64 42.14H61.7699L55.4399 31.21H303.97L297.64 42.14Z" fill="#A6C2E2"/>
<path d="M303.97 22H55.4399V31.2H303.97V22Z" fill="white"/>
<path d="M286.88 52.2398V325.95H73.6502V52.2398H286.88ZM287.83 51.2998H72.7002V326.89H287.83V51.2998Z" fill="#BACCDF"/>
<path d="M286.87 326.19H73.4102V52.3896H286.87V326.19ZM74.1201 325.48H286.15V53.0897H74.1201V325.48Z" fill="white"/>
<path d="M360 636H0V645H360V636Z" fill="#A6F2EE"/>
<path d="M338.825 667.605C338.81 672.053 338.484 676.501 337.841 680.9C337.539 683.007 337.16 685.099 336.718 687.172C336.445 688.458 335.48 691.14 335.24 693.222C334.866 691.26 334.108 689.336 333.311 687.584C331.949 684.586 330.236 681.788 328.892 678.78C325.773 671.798 324.751 663.929 324.679 656.19C324.665 654.64 324.684 653.095 324.737 651.545C324.924 645.355 325.524 639.18 325.85 633C330.567 639.055 335.044 645.571 337.169 653.133C338.474 657.802 338.839 662.725 338.825 667.605Z" fill="#BBF4F1"/>
<path d="M336.128 690.334C335.946 684.831 335.538 679.332 334.909 673.867C334.309 668.685 333.499 663.541 332.481 658.436C331.958 655.801 331.344 653.186 330.687 650.586C329.991 647.851 329.003 645.26 328.216 642.568C328.168 642.41 327.942 642.477 327.985 642.635C329.324 647.664 330.197 652.966 331.186 658.09C332.213 663.421 333.024 668.804 333.638 674.212C334.218 679.332 334.602 684.475 334.785 689.629C334.976 695.012 334.617 700.429 334.89 705.794C334.919 706.35 335.768 706.552 335.855 705.933C336.545 700.837 336.296 695.473 336.128 690.334Z" fill="#60D6CF"/>
<path opacity="0.19" d="M337.836 680.9C337.534 683.007 337.155 685.099 336.713 687.172C336.44 688.458 335.475 691.14 335.235 693.222C334.861 691.26 334.103 689.336 333.307 687.584C331.944 684.585 330.231 681.788 328.887 678.78C325.769 671.798 324.747 663.929 324.675 656.19C324.66 654.64 324.679 653.095 324.732 651.545C324.857 652.84 324.991 654.131 325.145 655.417C325.721 660.369 326.469 665.321 327.966 670.042C328.628 672.139 329.449 674.212 330.701 675.977C332.443 678.448 335.029 680.195 337.836 680.9Z" fill="#60D6CF"/>
<path d="M356.703 651.607C355.758 654.074 355.393 656.737 354.918 659.361C354.553 661.386 354.112 663.397 353.608 665.388C352.001 671.731 349.712 677.878 346.795 683.655C344.424 688.338 341.613 692.882 340.187 698.04C340.024 698.62 339.789 701.6 339.42 701.864C338.475 702.545 338.187 700.184 338.062 699.647C337.419 696.835 337.059 693.952 336.949 691.058C336.925 690.463 336.915 689.864 336.915 689.269C336.91 686.543 337.131 683.803 337.563 681.116C338.542 674.979 340.6 669.006 343.829 663.838C347.063 658.67 351.492 654.323 356.703 651.607Z" fill="#BBF4F1"/>
<path d="M350.163 661.05C347.951 664.351 345.888 667.59 344.386 671.347C342.956 674.926 341.843 678.63 341.003 682.421C339.3 690.127 338.115 698.375 337.908 706.302C337.889 707.098 339.127 707.319 339.233 706.494C340.274 698.677 340.629 690.851 342.294 683.122C343.911 675.622 346.286 667.59 350.437 661.232C350.561 661.04 350.283 660.872 350.163 661.05Z" fill="#60D6CF"/>
<path opacity="0.19" d="M353.608 665.388C352.001 671.731 349.712 677.877 346.795 683.654C344.424 688.338 341.612 692.881 340.187 698.039C340.024 698.62 339.789 701.6 339.42 701.864C338.474 702.545 338.187 700.184 338.062 699.647C337.419 696.835 337.059 693.951 336.949 691.058C336.925 690.463 336.915 689.863 336.915 689.268C336.939 689.336 336.968 689.398 336.997 689.46C337.332 690.175 337.942 690.823 338.69 690.847C339.487 690.871 340.135 690.185 340.662 689.547C346.449 682.556 350.878 674.269 353.608 665.388Z" fill="#60D6CF"/>
<path d="M334.046 703.932C333.859 699.662 330.874 696.207 328.283 693.28C325.323 689.941 322.213 686.476 319.656 682.671C318.221 680.536 316.787 678.579 315.237 676.717C313.932 675.153 312.545 673.651 311 672.168C312.459 671.281 314.196 671.093 315.87 671.165C320.702 671.386 325.395 673.704 328.811 677.384C332.222 681.064 334.353 686.054 334.885 691.217C334.938 691.745 334.977 692.273 335.005 692.8C335.178 696.509 334.703 700.31 334.046 703.932Z" fill="#BBF4F1"/>
<path d="M330.797 687.792C328.6 682.782 324.747 676.804 319.589 675.019C319.411 674.956 319.248 675.235 319.401 675.364C321.45 677.159 323.562 678.723 325.332 680.858C327.189 683.094 328.686 685.666 329.862 688.382C332.582 694.677 333.494 701.673 334.012 708.525C334.07 709.283 335.178 709.292 335.12 708.525C334.583 701.452 333.643 694.274 330.797 687.792Z" fill="#60D6CF"/>
<path opacity="0.19" d="M334.046 703.932C333.859 699.662 330.874 696.207 328.283 693.28C325.323 689.941 322.213 686.476 319.656 682.671C318.221 680.536 316.787 678.579 315.237 676.717C317.31 677.854 319.714 680.272 320.558 681.117C323.614 684.154 325.975 687.925 328.998 691.001C330.164 692.186 331.565 693.323 333.173 693.314C333.82 693.309 334.434 693.117 335.005 692.805C335.178 696.509 334.703 700.31 334.046 703.932Z" fill="#60D6CF"/>
<path d="M333.767 740C343.307 740 351.041 738.586 351.041 736.843C351.041 735.099 343.307 733.686 333.767 733.686C324.227 733.686 316.494 735.099 316.494 736.843C316.494 738.586 324.227 740 333.767 740Z" fill="#60D6CF"/>
<path d="M350.672 701.288C350.672 706.043 350.292 721.57 345.701 734.391C345.523 734.894 345.091 735.269 344.573 735.389C342.75 735.816 338.115 736.689 332.194 736.31C330.135 736.18 327.923 735.897 325.62 735.389C325.054 735.264 324.598 734.846 324.435 734.285C324.329 733.916 324.19 733.436 324.027 732.865C323.629 731.43 323.091 729.381 322.52 726.901C322.4 726.363 322.276 725.807 322.151 725.226C321.945 724.281 321.738 723.278 321.537 722.237C321.35 721.263 321.163 720.25 320.985 719.209C320.059 713.763 319.349 707.468 319.426 701.254C319.435 700.439 320.054 699.767 320.865 699.69C321.887 699.594 323.437 699.464 325.428 699.354C325.932 699.325 326.46 699.297 327.016 699.273C327.755 699.239 328.533 699.205 329.363 699.181C330.74 699.138 332.242 699.109 333.844 699.1C334.703 699.095 335.591 699.095 336.507 699.105C339.626 699.138 343.066 699.258 346.727 699.512C347.543 699.57 348.368 699.632 349.208 699.704C350.038 699.776 350.672 700.463 350.672 701.288Z" fill="#92E8E3"/>
<g opacity="0.66">
<path d="M350.671 701.288C350.671 706.043 350.292 721.57 345.7 734.391C345.523 734.895 345.091 735.269 344.573 735.389C342.749 735.816 338.114 736.689 332.193 736.31C332.75 735.946 333.297 735.557 333.825 735.144C336.828 732.798 339.199 729.717 341.113 726.421C345.782 718.355 347.735 708.773 346.737 699.518C347.552 699.575 348.378 699.638 349.217 699.71C350.038 699.777 350.671 700.463 350.671 701.288Z" fill="#BBF4F1"/>
</g>
<path opacity="0.72" d="M336.512 699.11C336.291 703.346 335.144 707.646 333.46 711.446C331.992 714.761 329.996 717.899 327.515 720.706C325.98 722.439 324.224 724.08 322.146 725.231C321.94 724.286 321.733 723.283 321.532 722.242C321.345 721.268 321.158 720.255 320.98 719.214C320.054 713.768 319.344 707.473 319.421 701.259C319.43 700.444 320.049 699.772 320.86 699.695C321.882 699.599 323.432 699.47 325.423 699.359C325.927 699.33 326.455 699.302 327.011 699.278C327.75 699.244 328.528 699.21 329.358 699.186C330.735 699.143 332.237 699.114 333.839 699.105C334.708 699.095 335.595 699.1 336.512 699.11Z" fill="#BBF4F1"/>
<path d="M348.666 733.815L348.421 735.158L348.195 736.411C348.181 736.497 348.109 736.564 348.023 736.574C346.411 736.761 331.944 738.354 321.796 736.31C321.714 736.296 321.652 736.228 321.637 736.152L321.426 735.086L321.167 733.796C321.138 733.661 321.249 733.541 321.383 733.561C323.643 733.825 339.415 735.537 348.426 733.594C348.57 733.556 348.695 733.676 348.666 733.815Z" fill="#BBF4F1"/>
<g opacity="0.66">
<path d="M348.426 735.159L348.2 736.411C348.186 736.498 348.114 736.565 348.028 736.574C346.415 736.761 331.949 738.355 321.801 736.31C321.719 736.296 321.657 736.229 321.642 736.152L321.431 735.087C324.91 735.783 338.244 738.115 348.426 735.159Z" fill="#BBF4F1"/>
</g>
<rect y="737" width="360" height="63" fill="#70B0AC"/>
</g>
<defs>
<clipPath id="clip0_1225_1885">
<rect width="360" height="800" fill="white"/>
</clipPath>
</defs>
</svg>
