<svg width="360" height="800" viewBox="0 0 360 800" fill="none" xmlns="http://www.w3.org/2000/svg">
<g clip-path="url(#clip0_1237_1649)">
<rect width="360" height="800" fill="white"/>
<rect x="59" y="382" width="237" height="133" fill="#697173"/>
<rect x="61" y="69" width="242" height="313" fill="url(#paint0_linear_1237_1649)"/>
<path d="M0 0.100586H360L297.5 71.6111C297.5 71.6111 62 71.061 59 69.9609C56 68.8607 0 0.100586 0 0.100586Z" fill="url(#paint1_linear_1237_1649)" fill-opacity="0.8"/>
<path d="M294 395.31C293.99 396.906 293.986 398.505 293.97 400.101C293.964 400.709 293.805 401.116 293.486 401.148C293.126 401.187 292.767 401.183 292.407 401.183C266.85 401.171 241.29 401.156 215.732 401.144C203.468 401.136 191.207 401.128 178.943 401.124C178.54 401.124 178.135 401.16 177.732 401.179C177.329 401.152 176.924 401.105 176.521 401.105C164.75 401.101 152.976 401.101 141.205 401.105C140.892 401.105 140.578 401.136 140.262 401.156C139.748 400.662 139.2 400.913 138.67 400.913C112.024 400.897 85.3796 400.901 58.7337 400.889C58.1995 400.889 57.6555 401.077 57.1292 400.709C56.879 398.607 57.0816 396.471 57.0141 394.353C56.9823 393.358 57.1829 392.86 57.715 392.915C58.0724 392.954 58.4338 392.919 58.7932 392.919C77.6215 392.919 96.4518 392.813 115.28 392.97C122.824 393.032 130.359 392.315 137.901 392.417C145.071 392.515 152.244 392.283 159.414 392.46C163.217 392.554 167.015 392.272 170.816 392.432C171.431 392.46 172.089 392.193 172.615 393.146C173.153 393.169 173.691 393.22 174.231 393.22C198.268 393.232 222.305 393.24 246.341 393.248C254.062 393.993 261.786 393.507 269.508 393.593C277.237 393.683 284.963 393.632 292.691 393.64C292.872 393.64 293.051 393.628 293.23 393.648C293.819 393.707 293.819 393.711 294 395.31Z" fill="#80A5BB"/>
<path d="M78.0098 395.975C77.7361 395.994 77.4625 396.033 77.1909 396.029C76.1609 396.014 76.0864 395.876 76.0623 393.936C76.0542 393.216 76.0603 392.492 76.0603 391.771C76.0603 345.95 76.0603 300.125 76.0603 254.304C76.0603 252.05 76.0583 249.793 76.0623 247.539C76.0623 246.999 76.0663 246.455 76.0985 245.922C76.1287 245.428 76.2997 245.079 76.5451 245.052C76.9978 245.006 77.4826 244.849 77.9011 245.094C78.7561 245.592 79.6172 245.405 80.4763 245.52C80.7519 247.558 80.5889 249.632 80.597 251.69C80.6211 258.178 80.5306 264.674 80.6191 271.159C81.1563 310.618 80.7137 350.085 80.8605 389.548C80.8625 390 80.8605 390.449 80.8605 390.901C80.8565 395.527 80.8565 395.527 78.5308 395.715C78.3437 395.726 78.1707 395.784 78.0098 395.975Z" fill="#608A9E"/>
<path d="M77.5091 320.647C77.5091 344.443 77.5091 368.239 77.5071 392.035C77.5071 392.935 77.497 393.836 77.4568 394.729C77.4347 395.246 77.2234 395.457 76.976 395.484C76.7245 395.515 76.5293 395.308 76.4408 394.836C76.3945 394.591 76.3845 394.307 76.3805 394.039C76.3724 393.227 76.3724 392.418 76.3724 391.605C76.3724 344.194 76.3724 296.782 76.3724 249.374C76.3724 248.562 76.3624 247.749 76.3805 246.941C76.4046 245.871 76.5816 245.48 76.984 245.523C77.328 245.561 77.4769 245.906 77.495 246.826C77.5131 247.634 77.5051 248.447 77.5051 249.259C77.5091 273.055 77.5091 296.851 77.5091 320.647Z" fill="#BED2DD"/>
<path d="M101.688 395.975C101.415 395.994 101.141 396.033 100.87 396.029C99.8396 396.014 99.7651 395.876 99.741 393.936C99.733 393.216 99.739 392.492 99.739 391.771C99.739 345.95 99.739 300.125 99.739 254.304C99.739 252.05 99.737 249.793 99.741 247.539C99.741 246.999 99.745 246.455 99.7772 245.922C99.8074 245.428 99.9784 245.079 100.224 245.052C100.677 245.006 101.161 244.849 101.58 245.094C102.435 245.592 103.296 245.405 104.155 245.52C104.431 247.558 104.268 249.632 104.276 251.69C104.3 258.178 104.209 264.674 104.298 271.159C104.835 310.618 104.392 350.085 104.539 389.548C104.541 390 104.539 390.449 104.539 390.901C104.535 395.527 104.535 395.527 102.21 395.715C102.022 395.726 101.849 395.784 101.688 395.975Z" fill="#608A9E"/>
<path d="M101.187 320.647C101.187 344.443 101.187 368.239 101.185 392.035C101.185 392.935 101.175 393.836 101.135 394.729C101.113 395.246 100.902 395.457 100.654 395.484C100.403 395.515 100.208 395.308 100.119 394.836C100.073 394.591 100.063 394.307 100.059 394.039C100.051 393.227 100.051 392.418 100.051 391.605C100.051 344.194 100.051 296.782 100.051 249.374C100.051 248.562 100.041 247.749 100.059 246.941C100.083 245.871 100.26 245.48 100.662 245.523C101.006 245.561 101.155 245.906 101.173 246.826C101.191 247.634 101.183 248.447 101.183 249.259C101.187 273.055 101.187 296.851 101.187 320.647Z" fill="#BED2DD"/>
<path d="M125.367 395.975C125.093 395.994 124.819 396.033 124.548 396.029C123.518 396.014 123.443 395.876 123.419 393.936C123.411 393.216 123.417 392.492 123.417 391.771C123.417 345.95 123.417 300.125 123.417 254.304C123.417 252.05 123.415 249.793 123.419 247.539C123.419 246.999 123.423 246.455 123.455 245.922C123.486 245.428 123.657 245.079 123.902 245.052C124.355 245.006 124.84 244.849 125.258 245.094C126.113 245.592 126.974 245.405 127.833 245.52C128.109 247.558 127.946 249.632 127.954 251.69C127.978 258.178 127.888 264.674 127.976 271.159C128.513 310.618 128.071 350.085 128.217 389.548C128.219 390 128.217 390.449 128.217 390.901C128.213 395.527 128.213 395.527 125.888 395.715C125.701 395.726 125.528 395.784 125.367 395.975Z" fill="#608A9E"/>
<path d="M124.866 320.647C124.866 344.443 124.866 368.239 124.864 392.035C124.864 392.935 124.853 393.836 124.813 394.729C124.791 395.246 124.58 395.457 124.332 395.484C124.081 395.515 123.886 395.308 123.797 394.836C123.751 394.591 123.741 394.307 123.737 394.039C123.729 393.227 123.729 392.418 123.729 391.605C123.729 344.194 123.729 296.782 123.729 249.374C123.729 248.562 123.719 247.749 123.737 246.941C123.761 245.871 123.938 245.48 124.34 245.523C124.684 245.561 124.833 245.906 124.851 246.826C124.87 247.634 124.862 248.447 124.862 249.259C124.866 273.055 124.866 296.851 124.866 320.647Z" fill="#BED2DD"/>
<path d="M149.045 395.975C148.772 395.994 148.498 396.033 148.227 396.029C147.197 396.014 147.122 395.876 147.098 393.936C147.09 393.216 147.096 392.492 147.096 391.771C147.096 345.95 147.096 300.125 147.096 254.304C147.096 252.05 147.094 249.793 147.098 247.539C147.098 246.999 147.102 246.455 147.134 245.922C147.164 245.428 147.335 245.079 147.581 245.052C148.033 245.006 148.518 244.849 148.937 245.094C149.792 245.592 150.653 245.405 151.512 245.52C151.788 247.558 151.625 249.632 151.633 251.69C151.657 258.178 151.566 264.674 151.655 271.159C152.192 310.618 151.749 350.085 151.896 389.548C151.898 390 151.896 390.449 151.896 390.901C151.892 395.527 151.892 395.527 149.566 395.715C149.379 395.726 149.206 395.784 149.045 395.975Z" fill="#608A9E"/>
<path d="M148.544 320.647C148.544 344.443 148.544 368.239 148.542 392.035C148.542 392.935 148.532 393.836 148.492 394.729C148.47 395.246 148.259 395.457 148.011 395.484C147.76 395.515 147.564 395.308 147.476 394.836C147.43 394.591 147.42 394.307 147.416 394.039C147.408 393.227 147.408 392.418 147.408 391.605C147.408 344.194 147.408 296.782 147.408 249.374C147.408 248.562 147.398 247.749 147.416 246.941C147.44 245.871 147.617 245.48 148.019 245.523C148.363 245.561 148.512 245.906 148.53 246.826C148.548 247.634 148.54 248.447 148.54 249.259C148.544 273.055 148.544 296.851 148.544 320.647Z" fill="#BED2DD"/>
<path d="M172.724 395.975C172.45 395.994 172.176 396.033 171.905 396.029C170.875 396.014 170.8 395.876 170.776 393.936C170.768 393.216 170.774 392.492 170.774 391.771C170.774 345.95 170.774 300.125 170.774 254.304C170.774 252.05 170.772 249.793 170.776 247.539C170.776 246.999 170.78 246.455 170.812 245.922C170.843 245.428 171.014 245.079 171.259 245.052C171.712 245.006 172.197 244.849 172.615 245.094C173.47 245.592 174.331 245.405 175.19 245.52C175.466 247.558 175.303 249.632 175.311 251.69C175.335 258.178 175.244 264.674 175.333 271.159C175.87 310.618 175.428 350.085 175.574 389.548C175.576 390 175.574 390.449 175.574 390.901C175.57 395.527 175.57 395.527 173.245 395.715C173.058 395.726 172.885 395.784 172.724 395.975Z" fill="#608A9E"/>
<path d="M172.223 320.647C172.223 344.443 172.223 368.239 172.221 392.035C172.221 392.935 172.211 393.836 172.171 394.729C172.149 395.246 171.937 395.457 171.69 395.484C171.438 395.515 171.243 395.308 171.155 394.836C171.108 394.591 171.098 394.307 171.094 394.039C171.086 393.227 171.086 392.418 171.086 391.605C171.086 344.194 171.086 296.782 171.086 249.374C171.086 248.562 171.076 247.749 171.094 246.941C171.118 245.871 171.296 245.48 171.698 245.523C172.042 245.561 172.191 245.906 172.209 246.826C172.227 247.634 172.219 248.447 172.219 249.259C172.223 273.055 172.223 296.851 172.223 320.647Z" fill="#BED2DD"/>
<path d="M196.402 395.975C196.128 395.994 195.855 396.033 195.583 396.029C194.553 396.014 194.479 395.876 194.454 393.936C194.446 393.216 194.452 392.492 194.452 391.771C194.452 345.95 194.452 300.125 194.452 254.304C194.452 252.05 194.45 249.793 194.454 247.539C194.454 246.999 194.458 246.455 194.491 245.922C194.521 245.428 194.692 245.079 194.937 245.052C195.39 245.006 195.875 244.849 196.293 245.094C197.148 245.592 198.009 245.405 198.868 245.52C199.144 247.558 198.981 249.632 198.989 251.69C199.013 258.178 198.923 264.674 199.011 271.159C199.548 310.618 199.106 350.085 199.253 389.548C199.255 390 199.253 390.449 199.253 390.901C199.249 395.527 199.249 395.527 196.923 395.715C196.736 395.726 196.563 395.784 196.402 395.975Z" fill="#608A9E"/>
<path d="M195.901 320.647C195.901 344.443 195.901 368.239 195.899 392.035C195.899 392.935 195.889 393.836 195.849 394.729C195.827 395.246 195.616 395.457 195.368 395.484C195.117 395.515 194.921 395.308 194.833 394.836C194.787 394.591 194.777 394.307 194.773 394.039C194.765 393.227 194.765 392.418 194.765 391.605C194.765 344.194 194.765 296.782 194.765 249.374C194.765 248.562 194.754 247.749 194.773 246.941C194.797 245.871 194.974 245.48 195.376 245.523C195.72 245.561 195.869 245.906 195.887 246.826C195.905 247.634 195.897 248.447 195.897 249.259C195.901 273.055 195.901 296.851 195.901 320.647Z" fill="#BED2DD"/>
<path d="M220.081 395.975C219.807 395.994 219.533 396.033 219.262 396.029C218.232 396.014 218.157 395.876 218.133 393.936C218.125 393.216 218.131 392.492 218.131 391.771C218.131 345.95 218.131 300.125 218.131 254.304C218.131 252.05 218.129 249.793 218.133 247.539C218.133 246.999 218.137 246.455 218.169 245.922C218.199 245.428 218.37 245.079 218.616 245.052C219.069 245.006 219.553 244.849 219.972 245.094C220.827 245.592 221.688 245.405 222.547 245.52C222.823 247.558 222.66 249.632 222.668 251.69C222.692 258.178 222.601 264.674 222.69 271.159C223.227 310.618 222.784 350.085 222.931 389.548C222.933 390 222.931 390.449 222.931 390.901C222.927 395.527 222.927 395.527 220.602 395.715C220.415 395.726 220.241 395.784 220.081 395.975Z" fill="#608A9E"/>
<path d="M219.579 320.647C219.579 344.443 219.579 368.239 219.577 392.035C219.577 392.935 219.567 393.836 219.527 394.729C219.505 395.246 219.294 395.457 219.046 395.484C218.795 395.515 218.6 395.308 218.511 394.836C218.465 394.591 218.455 394.307 218.451 394.039C218.443 393.227 218.443 392.418 218.443 391.605C218.443 344.194 218.443 296.782 218.443 249.374C218.443 248.562 218.433 247.749 218.451 246.941C218.475 245.871 218.652 245.48 219.054 245.523C219.398 245.561 219.547 245.906 219.565 246.826C219.583 247.634 219.575 248.447 219.575 249.259C219.579 273.055 219.579 296.851 219.579 320.647Z" fill="#BED2DD"/>
<path d="M243.759 395.975C243.485 395.994 243.212 396.033 242.94 396.029C241.91 396.014 241.835 395.876 241.811 393.936C241.803 393.216 241.809 392.492 241.809 391.771C241.809 345.95 241.809 300.125 241.809 254.304C241.809 252.05 241.807 249.793 241.811 247.539C241.811 246.999 241.815 246.455 241.848 245.922C241.878 245.428 242.049 245.079 242.294 245.052C242.747 245.006 243.232 244.849 243.65 245.094C244.505 245.592 245.366 245.405 246.225 245.52C246.501 247.558 246.338 249.632 246.346 251.69C246.37 258.178 246.28 264.674 246.368 271.159C246.905 310.618 246.463 350.085 246.61 389.548C246.612 390 246.61 390.449 246.61 390.901C246.606 395.527 246.606 395.527 244.28 395.715C244.093 395.726 243.92 395.784 243.759 395.975Z" fill="#608A9E"/>
<path d="M243.258 320.647C243.258 344.443 243.258 368.239 243.256 392.035C243.256 392.935 243.246 393.836 243.205 394.729C243.183 395.246 242.972 395.457 242.725 395.484C242.473 395.515 242.278 395.308 242.189 394.836C242.143 394.591 242.133 394.307 242.129 394.039C242.121 393.227 242.121 392.418 242.121 391.605C242.121 344.194 242.121 296.782 242.121 249.374C242.121 248.562 242.111 247.749 242.129 246.941C242.153 245.871 242.33 245.48 242.733 245.523C243.077 245.561 243.225 245.906 243.244 246.826C243.262 247.634 243.254 248.447 243.254 249.259C243.258 273.055 243.258 296.851 243.258 320.647Z" fill="#BED2DD"/>
<path d="M267.438 395.975C267.164 395.994 266.891 396.033 266.619 396.029C265.589 396.014 265.515 395.876 265.491 393.936C265.482 393.216 265.489 392.492 265.489 391.771C265.489 345.95 265.489 300.125 265.489 254.304C265.489 252.05 265.486 249.793 265.491 247.539C265.491 246.999 265.495 246.455 265.527 245.922C265.557 245.428 265.728 245.079 265.973 245.052C266.426 245.006 266.911 244.849 267.329 245.094C268.184 245.592 269.045 245.405 269.904 245.52C270.18 247.558 270.017 249.632 270.025 251.69C270.049 258.178 269.959 264.674 270.047 271.159C270.584 310.618 270.142 350.085 270.289 389.548C270.291 390 270.289 390.449 270.289 390.901C270.285 395.527 270.285 395.527 267.959 395.715C267.772 395.726 267.599 395.784 267.438 395.975Z" fill="#608A9E"/>
<path d="M266.936 320.647C266.936 344.443 266.936 368.239 266.934 392.035C266.934 392.935 266.924 393.836 266.884 394.729C266.862 395.246 266.651 395.457 266.403 395.484C266.152 395.515 265.957 395.308 265.868 394.836C265.822 394.591 265.812 394.307 265.808 394.039C265.8 393.227 265.8 392.418 265.8 391.605C265.8 344.194 265.8 296.782 265.8 249.374C265.8 248.562 265.79 247.749 265.808 246.941C265.832 245.871 266.009 245.48 266.411 245.523C266.755 245.561 266.904 245.906 266.922 246.826C266.94 247.634 266.932 248.447 266.932 249.259C266.936 273.055 266.936 296.851 266.936 320.647Z" fill="#BED2DD"/>
<path d="M58.9516 395.627C58.678 395.647 58.4044 395.682 58.1328 395.682C57.1028 395.67 57.0283 395.529 57.0042 393.596C56.9961 392.876 57.0022 392.156 57.0022 391.435C57.0022 345.717 57.0022 299.999 57.0022 254.281C57.0022 252.029 57.0002 249.782 57.0042 247.531C57.0042 246.991 57.0082 246.448 57.0404 245.917C57.0706 245.421 57.2416 245.075 57.487 245.051C57.9397 245.004 58.4245 244.85 58.843 245.094C59.698 245.59 60.5591 245.405 61.4182 245.519C61.6938 247.55 61.5308 249.624 61.5389 251.675C61.563 258.149 61.4725 264.628 61.561 271.102C62.0982 310.472 61.6556 349.85 61.8024 389.22C61.8044 389.668 61.8024 390.121 61.8024 390.57C61.7984 395.182 61.7984 395.186 59.4727 395.371C59.2856 395.383 59.1126 395.438 58.9516 395.627Z" fill="#608A9E"/>
<path d="M58.4505 320.646C58.4505 344.438 58.4505 368.23 58.4485 392.022C58.4485 392.919 58.4384 393.825 58.3982 394.718C58.3761 395.238 58.1648 395.446 57.9174 395.474C57.6659 395.501 57.4707 395.297 57.3822 394.824C57.336 394.576 57.3259 394.297 57.3219 394.029C57.3138 393.219 57.3138 392.408 57.3138 391.597C57.3138 344.194 57.3138 296.791 57.3138 249.389C57.3138 248.578 57.3038 247.767 57.3219 246.956C57.346 245.886 57.5231 245.496 57.9254 245.539C58.2694 245.579 58.4183 245.921 58.4364 246.842C58.4545 247.653 58.4465 248.464 58.4465 249.274C58.4505 273.062 58.4505 296.854 58.4505 320.646Z" fill="#BED2DD"/>
<path d="M291.116 395.975C290.842 395.994 290.568 396.033 290.297 396.029C289.267 396.014 289.192 395.876 289.168 393.936C289.16 393.216 289.166 392.492 289.166 391.771C289.166 345.95 289.166 300.125 289.166 254.304C289.166 252.05 289.164 249.793 289.168 247.539C289.168 246.999 289.172 246.455 289.204 245.922C289.235 245.428 289.406 245.079 289.651 245.052C290.104 245.006 290.589 244.849 291.007 245.094C291.862 245.592 292.723 245.405 293.582 245.52C293.858 247.558 293.695 249.632 293.703 251.69C293.727 258.178 293.637 264.674 293.725 271.159C294.262 310.618 293.82 350.085 293.966 389.548C293.968 390 293.966 390.449 293.966 390.901C293.962 395.527 293.962 395.527 291.637 395.715C291.45 395.726 291.277 395.784 291.116 395.975Z" fill="#608A9E"/>
<path d="M290.615 320.647C290.615 344.443 290.615 368.239 290.613 392.035C290.613 392.935 290.603 393.836 290.562 394.729C290.54 395.246 290.329 395.457 290.081 395.484C289.83 395.515 289.635 395.308 289.546 394.836C289.5 394.591 289.49 394.307 289.486 394.039C289.478 393.227 289.478 392.418 289.478 391.605C289.478 344.194 289.478 296.782 289.478 249.374C289.478 248.562 289.468 247.749 289.486 246.941C289.51 245.871 289.687 245.48 290.089 245.523C290.434 245.561 290.582 245.906 290.6 246.826C290.619 247.634 290.611 248.447 290.611 249.259C290.615 273.055 290.615 296.851 290.615 320.647Z" fill="#BED2DD"/>
<path d="M57.052 245.526C57.0321 243.749 56.9963 241.976 57.0003 240.199C57.0023 238.486 57.0599 238.411 58.0256 238.366C58.3395 238.351 58.6555 238.362 58.9694 238.362C80.0651 238.37 101.163 238.377 122.258 238.392C144.975 238.407 167.691 238.426 190.408 238.437C217.486 238.452 244.566 238.463 271.645 238.478C278.528 238.482 285.409 238.493 292.292 238.501C293.984 238.504 293.986 238.508 293.996 241.733C294 242.831 294.004 243.932 293.988 245.029C293.981 245.623 293.792 245.959 293.476 245.981C293.072 246.011 292.667 246.011 292.262 246.011C286.774 246.011 281.286 246.011 275.798 246.015C275.303 246.015 274.808 246.045 274.313 246.06C273.954 246.037 273.596 246 273.237 246C261.416 245.996 249.596 245.996 237.773 245.996C237.549 245.996 237.324 246.018 237.099 246.03C236.917 245.75 236.702 245.653 236.472 245.649C236.112 245.645 235.752 245.645 235.393 245.645C224.735 245.645 214.078 245.649 203.42 245.645C178.102 245.63 152.786 245.612 127.468 245.593C104.493 245.582 81.5136 245.567 58.5342 245.552C58.0395 245.552 57.5467 245.537 57.052 245.526Z" fill="#80A5BB"/>
<rect x="59" y="69.4111" width="237.992" height="8.80129" fill="url(#paint2_linear_1237_1649)"/>
<path d="M360 -1L298 70.2355L296 517.375L360 568.884V-1Z" fill="url(#paint3_linear_1237_1649)"/>
<path d="M0 -1L59 70.8035V523.333L0 561.183V-1Z" fill="url(#paint4_linear_1237_1649)"/>
<path d="M58 514.976H295L365 571.084H-13L58 514.976Z" fill="url(#paint5_linear_1237_1649)"/>
<rect y="568.884" width="360" height="111.116" fill="#4D2020"/>
<mask id="path-33-inside-1_1237_1649" fill="white">
<path d="M-7 741H361V812H-7V741Z"/>
</mask>
<path d="M-7 741H361V812H-7V741Z" fill="url(#paint6_linear_1237_1649)"/>
<path d="M361 793H-7V831H361V793Z" fill="#DD8080" mask="url(#path-33-inside-1_1237_1649)"/>
<mask id="path-35-inside-2_1237_1649" fill="white">
<path d="M-6 680H362V751H-6V680Z"/>
</mask>
<path d="M-6 680H362V751H-6V680Z" fill="url(#paint7_linear_1237_1649)"/>
<path d="M362 732H-6V770H362V732Z" fill="#DD8080" mask="url(#path-35-inside-2_1237_1649)"/>
<g filter="url(#filter0_d_1237_1649)">
<path d="M59 63L61.0169 64.8203L63.538 65.2753L66.0591 64.8203L68.0759 63V458L66.5633 454.822L64.0422 454.368L61.0169 455.276L59 458V63Z" fill="url(#paint8_linear_1237_1649)"/>
</g>
<g filter="url(#filter1_d_1237_1649)">
<path d="M68.0762 63L70.093 64.7834L72.6141 65.2293L75.1352 64.7834L77.1521 63V450L75.6395 446.886L73.1184 446.441L70.093 447.331L68.0762 450V63Z" fill="url(#paint9_linear_1237_1649)"/>
</g>
<g filter="url(#filter2_d_1237_1649)">
<path d="M77.1519 63L79.1687 64.7005L81.6898 65.1256L84.2109 64.7005L86.2278 63V432L84.7151 429.031L82.194 428.607L79.1687 429.455L77.1519 432V63Z" fill="url(#paint10_linear_1237_1649)"/>
</g>
<g filter="url(#filter3_d_1237_1649)">
<path d="M86.228 63L88.2449 64.6406L90.766 65.0507L93.2871 64.6406L95.304 63V419L93.7913 416.136L91.2702 415.726L88.2449 416.545L86.228 419V63Z" fill="url(#paint11_linear_1237_1649)"/>
</g>
<g filter="url(#filter4_d_1237_1649)">
<path d="M95.3037 63L97.3206 64.5991L99.8417 64.9988L102.363 64.5991L104.38 63V410L102.867 407.208L100.346 406.809L97.3206 407.607L95.3037 410V63Z" fill="url(#paint12_linear_1237_1649)"/>
</g>
<g filter="url(#filter5_d_1237_1649)">
<path d="M104.38 63L106.397 64.5438L108.918 64.9297L111.439 64.5438L113.456 63V398L111.943 395.305L109.422 394.92L106.397 395.69L104.38 398V63Z" fill="url(#paint13_linear_1237_1649)"/>
</g>
<g filter="url(#filter6_d_1237_1649)">
<path d="M298 63L295.983 64.8203L293.462 65.2753L290.941 64.8203L288.924 63V458L290.437 454.822L292.958 454.368L295.983 455.276L298 458V63Z" fill="url(#paint14_linear_1237_1649)"/>
</g>
<g filter="url(#filter7_d_1237_1649)">
<path d="M288.924 63L286.907 64.7834L284.386 65.2293L281.865 64.7834L279.848 63V450L281.361 446.886L283.882 446.441L286.907 447.331L288.924 450V63Z" fill="url(#paint15_linear_1237_1649)"/>
</g>
<g filter="url(#filter8_d_1237_1649)">
<path d="M279.848 63L277.831 64.7005L275.31 65.1256L272.789 64.7005L270.772 63V432L272.285 429.031L274.806 428.607L277.831 429.455L279.848 432V63Z" fill="url(#paint16_linear_1237_1649)"/>
</g>
<g filter="url(#filter9_d_1237_1649)">
<path d="M270.772 63L268.755 64.6406L266.234 65.0507L263.713 64.6406L261.696 63V419L263.209 416.136L265.73 415.726L268.755 416.545L270.772 419V63Z" fill="url(#paint17_linear_1237_1649)"/>
</g>
<g filter="url(#filter10_d_1237_1649)">
<path d="M261.696 63L259.679 64.5991L257.158 64.9988L254.637 64.5991L252.62 63V410L254.133 407.208L256.654 406.809L259.679 407.607L261.696 410V63Z" fill="url(#paint18_linear_1237_1649)"/>
</g>
<g filter="url(#filter11_d_1237_1649)">
<path d="M252.62 63L250.603 64.5438L248.082 64.9297L245.561 64.5438L243.544 63V398L245.057 395.305L247.578 394.92L250.603 395.69L252.62 398V63Z" fill="url(#paint19_linear_1237_1649)"/>
</g>
<g opacity="0.79">
<path d="M133.604 127.486C133.592 127.452 133.57 127.418 133.535 127.401C133.501 127.384 133.462 127.378 133.428 127.389L132.293 127.724L131.788 127.463L132.639 127.208C132.713 127.185 132.758 127.105 132.735 127.032C132.724 126.998 132.701 126.964 132.667 126.947C132.633 126.93 132.594 126.924 132.559 126.935L131.425 127.27L130.443 126.765L131.408 126.186L132.548 126.453C132.622 126.47 132.701 126.425 132.718 126.345C132.73 126.305 132.718 126.271 132.701 126.237C132.679 126.203 132.65 126.181 132.611 126.175L131.759 125.976L132.247 125.681L133.388 125.948C133.462 125.965 133.541 125.92 133.558 125.84C133.57 125.8 133.558 125.766 133.541 125.732C133.518 125.698 133.49 125.676 133.45 125.67L132.599 125.471L133.053 125.199C133.087 125.182 133.11 125.148 133.116 125.114C133.127 125.08 133.121 125.04 133.099 125.006C133.082 124.972 133.047 124.949 133.013 124.944C132.974 124.932 132.94 124.938 132.906 124.961L132.446 125.239L132.679 124.382C132.701 124.308 132.656 124.229 132.577 124.206C132.503 124.183 132.423 124.229 132.401 124.308L132.089 125.449L131.601 125.744L131.833 124.887C131.856 124.813 131.81 124.734 131.731 124.711C131.657 124.688 131.578 124.734 131.555 124.813L131.243 125.954L130.267 126.538V125.432L131.084 124.586C131.141 124.529 131.135 124.439 131.078 124.387C131.022 124.331 130.931 124.336 130.88 124.393L130.267 125.029V124.456L131.084 123.61C131.141 123.553 131.135 123.463 131.078 123.411C131.022 123.355 130.931 123.36 130.88 123.417L130.267 124.053V123.474C130.267 123.394 130.205 123.332 130.125 123.332C130.046 123.332 129.983 123.394 129.983 123.474V124.053L129.376 123.417C129.319 123.36 129.234 123.36 129.178 123.411C129.121 123.468 129.121 123.553 129.172 123.61L129.983 124.456V125.023L129.376 124.387C129.319 124.331 129.234 124.331 129.178 124.382C129.149 124.41 129.132 124.444 129.132 124.484C129.132 124.524 129.144 124.558 129.172 124.586L129.983 125.432V126.527L128.99 126.016L128.616 124.898C128.604 124.864 128.576 124.836 128.542 124.819C128.508 124.802 128.468 124.802 128.434 124.813C128.36 124.836 128.321 124.921 128.343 124.995L128.627 125.834L128.122 125.573L127.748 124.456C127.736 124.422 127.708 124.393 127.674 124.376C127.64 124.359 127.6 124.359 127.566 124.37C127.532 124.382 127.504 124.41 127.487 124.444C127.47 124.478 127.47 124.518 127.481 124.552L127.765 125.392L127.254 125.125C127.22 125.108 127.18 125.102 127.146 125.114C127.112 125.125 127.078 125.148 127.061 125.182C127.044 125.216 127.038 125.256 127.05 125.29C127.061 125.324 127.084 125.358 127.118 125.375L127.628 125.641L126.783 125.891C126.709 125.914 126.664 125.993 126.687 126.067C126.709 126.141 126.789 126.186 126.862 126.164L127.992 125.829L128.497 126.09L127.651 126.339C127.577 126.362 127.532 126.442 127.555 126.515C127.577 126.589 127.657 126.635 127.731 126.612L128.86 126.277L129.853 126.788L128.9 127.361L127.753 127.094C127.68 127.077 127.6 127.123 127.583 127.202C127.566 127.276 127.611 127.355 127.691 127.372L128.553 127.571L128.065 127.866L126.919 127.599C126.879 127.588 126.845 127.599 126.811 127.616C126.777 127.639 126.755 127.667 126.749 127.707C126.732 127.781 126.777 127.86 126.857 127.877L127.719 128.076L127.226 128.371C127.158 128.411 127.135 128.501 127.175 128.564C127.214 128.626 127.305 128.649 127.367 128.615L127.861 128.32L127.628 129.171C127.617 129.205 127.623 129.245 127.64 129.279C127.657 129.313 127.691 129.336 127.725 129.347C127.799 129.37 127.878 129.318 127.901 129.245L128.207 128.11L128.695 127.815L128.463 128.666C128.44 128.74 128.485 128.819 128.565 128.842C128.639 128.865 128.718 128.813 128.741 128.74L129.047 127.605L129.983 127.043V128.184L129.172 129.023C129.144 129.052 129.132 129.086 129.132 129.126C129.132 129.165 129.149 129.199 129.178 129.228C129.234 129.284 129.325 129.279 129.376 129.222L129.983 128.592V129.165L129.172 130.005C129.144 130.033 129.132 130.067 129.132 130.107C129.132 130.147 129.149 130.181 129.178 130.209C129.206 130.238 129.24 130.249 129.274 130.249C129.314 130.249 129.348 130.232 129.376 130.204L129.983 129.574V130.102C129.983 130.181 130.046 130.243 130.125 130.243C130.205 130.243 130.267 130.181 130.267 130.102V129.562L130.88 130.204C130.937 130.26 131.022 130.26 131.078 130.209C131.135 130.153 131.135 130.067 131.084 130.011L130.267 129.16V128.592L130.88 129.233C130.931 129.29 131.027 129.29 131.078 129.239C131.135 129.182 131.135 129.097 131.084 129.04L130.267 128.184V127.015L131.3 127.548L131.674 128.655C131.691 128.711 131.748 128.751 131.81 128.751C131.828 128.751 131.839 128.751 131.856 128.745C131.89 128.734 131.918 128.706 131.935 128.672C131.952 128.638 131.952 128.598 131.941 128.564L131.663 127.735L132.168 127.996L132.542 129.103C132.565 129.177 132.65 129.216 132.724 129.194C132.758 129.182 132.786 129.154 132.803 129.12C132.821 129.086 132.821 129.046 132.809 129.012L132.531 128.184L132.996 128.428C133.019 128.439 133.042 128.445 133.059 128.445C133.11 128.445 133.161 128.416 133.184 128.365C133.201 128.331 133.206 128.291 133.195 128.257C133.184 128.223 133.161 128.189 133.127 128.172L132.65 127.928L133.501 127.673C133.581 127.645 133.626 127.565 133.604 127.486Z" fill="white"/>
<path d="M169.557 183.724C169.545 183.69 169.523 183.656 169.489 183.639C169.455 183.622 169.415 183.616 169.381 183.627L168.246 183.962L167.741 183.701L168.592 183.446C168.666 183.423 168.711 183.344 168.689 183.27C168.677 183.236 168.654 183.202 168.62 183.185C168.586 183.168 168.547 183.162 168.513 183.174L167.378 183.508L166.396 183.003L167.361 182.425L168.501 182.691C168.575 182.708 168.654 182.663 168.672 182.583C168.683 182.544 168.672 182.51 168.654 182.476C168.632 182.442 168.603 182.419 168.564 182.413L167.713 182.215L168.201 181.92L169.341 182.186C169.415 182.203 169.494 182.158 169.511 182.078C169.523 182.039 169.511 182.005 169.494 181.971C169.472 181.937 169.443 181.914 169.404 181.908L168.552 181.71L169.006 181.437C169.04 181.42 169.063 181.386 169.069 181.352C169.08 181.318 169.074 181.278 169.052 181.244C169.035 181.21 169.001 181.188 168.967 181.182C168.927 181.17 168.893 181.176 168.859 181.199L168.399 181.477L168.632 180.62C168.654 180.546 168.609 180.467 168.53 180.444C168.456 180.421 168.376 180.467 168.354 180.546L168.042 181.687L167.554 181.982L167.786 181.125C167.809 181.051 167.764 180.972 167.684 180.949C167.61 180.926 167.531 180.972 167.508 181.051L167.196 182.192L166.22 182.776V181.67L167.037 180.824C167.094 180.768 167.088 180.677 167.032 180.626C166.975 180.569 166.884 180.575 166.833 180.631L166.22 181.267V180.694L167.037 179.848C167.094 179.792 167.088 179.701 167.032 179.65C166.975 179.593 166.884 179.599 166.833 179.655L166.22 180.291V179.712C166.22 179.633 166.158 179.57 166.078 179.57C165.999 179.57 165.936 179.633 165.936 179.712V180.291L165.329 179.655C165.273 179.599 165.187 179.599 165.131 179.65C165.074 179.707 165.074 179.792 165.125 179.848L165.936 180.694V181.261L165.329 180.626C165.273 180.569 165.187 180.569 165.131 180.62C165.102 180.648 165.085 180.682 165.085 180.722C165.085 180.762 165.097 180.796 165.125 180.824L165.936 181.67V182.765L164.943 182.254L164.569 181.136C164.558 181.102 164.529 181.074 164.495 181.057C164.461 181.04 164.421 181.04 164.387 181.051C164.314 181.074 164.274 181.159 164.297 181.233L164.58 182.073L164.075 181.812L163.701 180.694C163.689 180.66 163.661 180.631 163.627 180.614C163.593 180.597 163.553 180.597 163.519 180.609C163.485 180.62 163.457 180.648 163.44 180.682C163.423 180.717 163.423 180.756 163.434 180.79L163.718 181.63L163.207 181.363C163.173 181.346 163.133 181.341 163.099 181.352C163.065 181.363 163.031 181.386 163.014 181.42C162.997 181.454 162.991 181.494 163.003 181.528C163.014 181.562 163.037 181.596 163.071 181.613L163.582 181.88L162.736 182.129C162.662 182.152 162.617 182.232 162.64 182.305C162.662 182.379 162.742 182.425 162.816 182.402L163.945 182.067L164.45 182.328L163.604 182.578C163.531 182.6 163.485 182.68 163.508 182.754C163.531 182.827 163.61 182.873 163.684 182.85L164.813 182.515L165.806 183.026L164.853 183.599L163.706 183.332C163.633 183.315 163.553 183.361 163.536 183.44C163.519 183.514 163.565 183.593 163.644 183.61L164.507 183.809L164.019 184.104L162.872 183.837C162.833 183.826 162.799 183.837 162.764 183.854C162.73 183.877 162.708 183.906 162.702 183.945C162.685 184.019 162.73 184.098 162.81 184.115L163.672 184.314L163.179 184.609C163.111 184.649 163.088 184.74 163.128 184.802C163.167 184.864 163.258 184.887 163.321 184.853L163.814 184.558L163.582 185.409C163.57 185.443 163.576 185.483 163.593 185.517C163.61 185.551 163.644 185.574 163.678 185.585C163.752 185.608 163.831 185.557 163.854 185.483L164.16 184.348L164.648 184.053L164.416 184.904C164.393 184.978 164.438 185.057 164.518 185.08C164.592 185.103 164.671 185.052 164.694 184.978L165 183.843L165.936 183.281V184.422L165.125 185.262C165.097 185.29 165.085 185.324 165.085 185.364C165.085 185.404 165.102 185.438 165.131 185.466C165.187 185.523 165.278 185.517 165.329 185.46L165.936 184.83V185.404L165.125 186.243C165.097 186.272 165.085 186.306 165.085 186.345C165.085 186.385 165.102 186.419 165.131 186.448C165.159 186.476 165.193 186.487 165.227 186.487C165.267 186.487 165.301 186.47 165.329 186.442L165.936 185.812V186.34C165.936 186.419 165.999 186.482 166.078 186.482C166.158 186.482 166.22 186.419 166.22 186.34V185.801L166.833 186.442C166.89 186.499 166.975 186.499 167.032 186.448C167.088 186.391 167.088 186.306 167.037 186.249L166.22 185.398V184.83L166.833 185.472C166.884 185.528 166.981 185.528 167.032 185.477C167.088 185.421 167.088 185.335 167.037 185.279L166.22 184.428V183.259L167.253 183.792L167.627 184.899C167.644 184.955 167.701 184.995 167.764 184.995C167.781 184.995 167.792 184.995 167.809 184.989C167.843 184.978 167.871 184.95 167.888 184.916C167.905 184.882 167.905 184.842 167.894 184.808L167.616 183.979L168.121 184.24L168.496 185.347C168.518 185.421 168.603 185.46 168.677 185.438C168.711 185.426 168.74 185.398 168.757 185.364C168.774 185.33 168.774 185.29 168.762 185.256L168.484 184.428L168.95 184.672C168.972 184.683 168.995 184.689 169.012 184.689C169.063 184.689 169.114 184.66 169.137 184.609C169.154 184.575 169.16 184.535 169.148 184.501C169.137 184.467 169.114 184.433 169.08 184.416L168.603 184.172L169.455 183.917C169.534 183.877 169.579 183.798 169.557 183.724Z" fill="white"/>
<path d="M206.894 136.246C206.882 136.212 206.86 136.178 206.826 136.161C206.791 136.144 206.752 136.139 206.718 136.15L205.583 136.485L205.078 136.224L205.929 135.968C206.003 135.946 206.048 135.866 206.025 135.792C206.014 135.758 205.991 135.724 205.957 135.707C205.923 135.69 205.884 135.685 205.85 135.696L204.715 136.031L203.733 135.526L204.698 134.947L205.838 135.214C205.912 135.231 205.991 135.185 206.008 135.106C206.02 135.066 206.008 135.032 205.991 134.998C205.969 134.964 205.94 134.941 205.901 134.936L205.049 134.737L205.537 134.442L206.678 134.709C206.752 134.726 206.831 134.68 206.848 134.601C206.86 134.561 206.848 134.527 206.831 134.493C206.808 134.459 206.78 134.436 206.74 134.431L205.889 134.232L206.343 133.96C206.377 133.943 206.4 133.909 206.406 133.875C206.417 133.84 206.411 133.801 206.389 133.767C206.372 133.733 206.338 133.71 206.303 133.704C206.264 133.693 206.23 133.699 206.196 133.721L205.736 133.999L205.969 133.143C205.991 133.069 205.946 132.989 205.867 132.967C205.793 132.944 205.713 132.989 205.691 133.069L205.379 134.209L204.891 134.504L205.123 133.648C205.146 133.574 205.101 133.494 205.021 133.472C204.947 133.449 204.868 133.494 204.845 133.574L204.533 134.714L203.557 135.299V134.192L204.374 133.347C204.431 133.29 204.425 133.199 204.369 133.148C204.312 133.091 204.221 133.097 204.17 133.154L203.557 133.789V133.216L204.374 132.371C204.431 132.314 204.425 132.223 204.369 132.172C204.312 132.115 204.221 132.121 204.17 132.178L203.557 132.813V132.235C203.557 132.155 203.495 132.093 203.415 132.093C203.336 132.093 203.273 132.155 203.273 132.235V132.813L202.666 132.178C202.609 132.121 202.524 132.121 202.468 132.172C202.411 132.229 202.411 132.314 202.462 132.371L203.273 133.216V133.784L202.666 133.148C202.609 133.091 202.524 133.091 202.468 133.143C202.439 133.171 202.422 133.205 202.422 133.245C202.422 133.284 202.434 133.318 202.462 133.347L203.273 134.192V135.287L202.28 134.777L201.906 133.659C201.895 133.625 201.866 133.596 201.832 133.579C201.798 133.562 201.758 133.562 201.724 133.574C201.651 133.596 201.611 133.682 201.633 133.755L201.917 134.595L201.412 134.334L201.038 133.216C201.026 133.182 200.998 133.154 200.964 133.137C200.93 133.12 200.89 133.12 200.856 133.131C200.822 133.143 200.794 133.171 200.777 133.205C200.76 133.239 200.76 133.279 200.771 133.313L201.055 134.153L200.544 133.886C200.51 133.869 200.47 133.863 200.436 133.875C200.402 133.886 200.368 133.909 200.351 133.943C200.334 133.977 200.328 134.016 200.34 134.05C200.351 134.084 200.374 134.119 200.408 134.136L200.919 134.402L200.073 134.652C199.999 134.675 199.954 134.754 199.977 134.828C199.999 134.902 200.079 134.947 200.152 134.924L201.282 134.589L201.787 134.851L200.941 135.1C200.867 135.123 200.822 135.202 200.845 135.276C200.867 135.35 200.947 135.395 201.021 135.373L202.15 135.038L203.143 135.548L202.19 136.122L201.043 135.855C200.97 135.838 200.89 135.883 200.873 135.963C200.856 136.036 200.901 136.116 200.981 136.133L201.843 136.332L201.355 136.627L200.209 136.36C200.17 136.349 200.135 136.36 200.101 136.377C200.067 136.4 200.045 136.428 200.039 136.468C200.022 136.541 200.067 136.621 200.147 136.638L201.009 136.837L200.516 137.132C200.448 137.171 200.425 137.262 200.465 137.325C200.504 137.387 200.595 137.41 200.657 137.376L201.151 137.081L200.919 137.932C200.907 137.966 200.913 138.005 200.93 138.039C200.947 138.074 200.981 138.096 201.015 138.108C201.089 138.13 201.168 138.079 201.191 138.005L201.497 136.871L201.985 136.576L201.753 137.427C201.73 137.5 201.775 137.58 201.855 137.603C201.929 137.625 202.008 137.574 202.031 137.5L202.337 136.366L203.273 135.804V136.944L202.462 137.784C202.434 137.813 202.422 137.847 202.422 137.886C202.422 137.926 202.439 137.96 202.468 137.988C202.524 138.045 202.615 138.04 202.666 137.983L203.273 137.353V137.926L202.462 138.766C202.434 138.794 202.422 138.828 202.422 138.868C202.422 138.908 202.439 138.942 202.468 138.97C202.496 138.998 202.53 139.01 202.564 139.01C202.604 139.01 202.638 138.993 202.666 138.964L203.273 138.335V138.862C203.273 138.942 203.336 139.004 203.415 139.004C203.495 139.004 203.557 138.942 203.557 138.862V138.323L204.17 138.964C204.227 139.021 204.312 139.021 204.369 138.97C204.425 138.913 204.425 138.828 204.374 138.771L203.557 137.92V137.353L204.17 137.994C204.221 138.051 204.317 138.051 204.369 138C204.425 137.943 204.425 137.858 204.374 137.801L203.557 136.95V135.781L204.59 136.314L204.964 137.421C204.981 137.478 205.038 137.517 205.101 137.517C205.118 137.517 205.129 137.517 205.146 137.512C205.18 137.5 205.208 137.472 205.225 137.438C205.242 137.404 205.242 137.364 205.231 137.33L204.953 136.502L205.458 136.763L205.833 137.869C205.855 137.943 205.94 137.983 206.014 137.96C206.048 137.949 206.077 137.92 206.094 137.886C206.111 137.852 206.111 137.813 206.099 137.778L205.821 136.95L206.286 137.194C206.309 137.205 206.332 137.211 206.349 137.211C206.4 137.211 206.451 137.183 206.474 137.132C206.491 137.098 206.496 137.058 206.485 137.024C206.474 136.99 206.451 136.956 206.417 136.939L205.94 136.695L206.791 136.439C206.871 136.4 206.916 136.32 206.894 136.246Z" fill="white"/>
<path d="M229.018 90.1536C229.007 90.1196 228.984 90.0855 228.95 90.0685C228.916 90.0515 228.876 90.0458 228.842 90.0572L227.707 90.392L227.202 90.1309L228.053 89.8756C228.127 89.8529 228.173 89.7735 228.15 89.6997C228.139 89.6656 228.116 89.6316 228.082 89.6146C228.048 89.5975 228.008 89.5919 227.974 89.6032L226.839 89.938L225.858 89.433L226.822 88.8542L227.963 89.1209C228.036 89.1379 228.116 89.0925 228.133 89.0131C228.144 88.9734 228.133 88.9393 228.116 88.9053C228.093 88.8712 228.065 88.8485 228.025 88.8429L227.174 88.6443L227.662 88.3492L228.803 88.6159C228.876 88.6329 228.956 88.5875 228.973 88.5081C228.984 88.4683 228.973 88.4343 228.956 88.4003C228.933 88.3662 228.905 88.3435 228.865 88.3378L228.014 88.1392L228.468 87.8669C228.502 87.8498 228.524 87.8158 228.53 87.7817C228.541 87.7477 228.536 87.708 228.513 87.6739C228.496 87.6399 228.462 87.6172 228.428 87.6115C228.388 87.6002 228.354 87.6058 228.32 87.6285L227.861 87.9066L228.093 87.0498C228.116 86.976 228.071 86.8965 227.991 86.8739C227.917 86.8512 227.838 86.8965 227.815 86.976L227.503 88.1165L227.015 88.4116L227.248 87.5548C227.27 87.481 227.225 87.4016 227.146 87.3789C227.072 87.3562 226.992 87.4016 226.97 87.481L226.658 88.6216L225.682 89.206V88.0995L226.499 87.254C226.555 87.1973 226.55 87.1065 226.493 87.0554C226.436 86.9987 226.346 87.0044 226.294 87.0611L225.682 87.6966V87.1235L226.499 86.278C226.555 86.2213 226.55 86.1305 226.493 86.0794C226.436 86.0227 226.346 86.0284 226.294 86.0851L225.682 86.7206V86.1419C225.682 86.0624 225.619 86 225.54 86C225.46 86 225.398 86.0624 225.398 86.1419V86.7206L224.791 86.0851C224.734 86.0284 224.649 86.0284 224.592 86.0794C224.535 86.1362 224.535 86.2213 224.586 86.278L225.398 87.1235V87.691L224.791 87.0554C224.734 86.9987 224.649 86.9987 224.592 87.0498C224.564 87.0781 224.547 87.1122 224.547 87.1519C224.547 87.1916 224.558 87.2257 224.586 87.254L225.398 88.0995V89.1947L224.405 88.684L224.03 87.5661C224.019 87.5321 223.991 87.5037 223.957 87.4867C223.923 87.4697 223.883 87.4697 223.849 87.481C223.775 87.5037 223.735 87.5888 223.758 87.6626L224.042 88.5024L223.537 88.2414L223.162 87.1235C223.151 87.0895 223.122 87.0611 223.088 87.0441C223.054 87.0271 223.015 87.0271 222.981 87.0384C222.947 87.0498 222.918 87.0781 222.901 87.1122C222.884 87.1462 222.884 87.1859 222.895 87.22L223.179 88.0598L222.669 87.7931C222.634 87.7761 222.595 87.7704 222.561 87.7817C222.527 87.7931 222.493 87.8158 222.476 87.8498C222.459 87.8839 222.453 87.9236 222.464 87.9577C222.476 87.9917 222.498 88.0257 222.532 88.0428L223.043 88.3095L222.198 88.5591C222.124 88.5818 222.078 88.6613 222.101 88.735C222.124 88.8088 222.203 88.8542 222.277 88.8315L223.406 88.4967L223.911 88.7577L223.066 89.0074C222.992 89.0301 222.947 89.1095 222.969 89.1833C222.992 89.2571 223.071 89.3025 223.145 89.2798L224.274 88.945L225.267 89.4557L224.314 90.0288L223.168 89.7621C223.094 89.7451 223.015 89.7905 222.998 89.8699C222.981 89.9437 223.026 90.0231 223.105 90.0401L223.968 90.2387L223.48 90.5338L222.334 90.2671C222.294 90.2558 222.26 90.2671 222.226 90.2841C222.192 90.3068 222.169 90.3352 222.164 90.3749C222.146 90.4487 222.192 90.5281 222.271 90.5452L223.134 90.7438L222.64 91.0388C222.572 91.0786 222.549 91.1693 222.589 91.2318C222.629 91.2942 222.72 91.3169 222.782 91.2828L223.276 90.9878L223.043 91.8389C223.032 91.873 223.037 91.9127 223.054 91.9467C223.071 91.9808 223.105 92.0035 223.14 92.0148C223.213 92.0375 223.293 91.9864 223.315 91.9127L223.622 90.7778L224.11 90.4827L223.877 91.3339C223.854 91.4077 223.9 91.4871 223.979 91.5098C224.053 91.5325 224.133 91.4814 224.155 91.4077L224.462 90.2728L225.398 89.711V90.8516L224.586 91.6914C224.558 91.7198 224.547 91.7538 224.547 91.7935C224.547 91.8332 224.564 91.8673 224.592 91.8957C224.649 91.9524 224.74 91.9467 224.791 91.89L225.398 91.2601V91.8332L224.586 92.673C224.558 92.7014 224.547 92.7355 224.547 92.7752C224.547 92.8149 224.564 92.849 224.592 92.8773C224.621 92.9057 224.655 92.917 224.689 92.917C224.728 92.917 224.762 92.9 224.791 92.8716L225.398 92.2418V92.7695C225.398 92.849 225.46 92.9114 225.54 92.9114C225.619 92.9114 225.682 92.849 225.682 92.7695V92.2304L226.294 92.8716C226.351 92.9284 226.436 92.9284 226.493 92.8773C226.55 92.8206 226.55 92.7355 226.499 92.6787L225.682 91.8276V91.2601L226.294 91.9013C226.346 91.9581 226.442 91.9581 226.493 91.907C226.55 91.8503 226.55 91.7652 226.499 91.7084L225.682 90.8573V89.6883L226.714 90.2217L227.089 91.3282C227.106 91.385 227.163 91.4247 227.225 91.4247C227.242 91.4247 227.253 91.4247 227.27 91.419C227.304 91.4077 227.333 91.3793 227.35 91.3452C227.367 91.3112 227.367 91.2715 227.356 91.2374L227.077 90.409L227.583 90.67L227.957 91.7765C227.98 91.8503 228.065 91.89 228.139 91.8673C228.173 91.8559 228.201 91.8276 228.218 91.7935C228.235 91.7595 228.235 91.7198 228.224 91.6857L227.946 90.8573L228.411 91.1012C228.434 91.1126 228.456 91.1183 228.473 91.1183C228.524 91.1183 228.576 91.0899 228.598 91.0388C228.615 91.0048 228.621 90.9651 228.61 90.931C228.598 90.897 228.576 90.8629 228.541 90.8459L228.065 90.6019L228.916 90.3466C228.995 90.3068 229.041 90.2274 229.018 90.1536Z" fill="white"/>
<path d="M226.714 211.84C226.703 211.806 226.68 211.772 226.646 211.755C226.612 211.738 226.573 211.732 226.539 211.744L225.404 212.078L224.899 211.817L225.75 211.562C225.824 211.539 225.869 211.46 225.846 211.386C225.835 211.352 225.812 211.318 225.778 211.301C225.744 211.284 225.704 211.278 225.67 211.29L224.535 211.625L223.554 211.12L224.518 210.541L225.659 210.807C225.733 210.824 225.812 210.779 225.829 210.7C225.841 210.66 225.829 210.626 225.812 210.592C225.79 210.558 225.761 210.535 225.721 210.529L224.87 210.331L225.358 210.036L226.499 210.302C226.573 210.319 226.652 210.274 226.669 210.195C226.68 210.155 226.669 210.121 226.652 210.087C226.629 210.053 226.601 210.03 226.561 210.024L225.71 209.826L226.164 209.553C226.198 209.536 226.221 209.502 226.226 209.468C226.238 209.434 226.232 209.395 226.209 209.36C226.192 209.326 226.158 209.304 226.124 209.298C226.085 209.287 226.051 209.292 226.016 209.315L225.557 209.593L225.789 208.736C225.812 208.663 225.767 208.583 225.687 208.56C225.614 208.538 225.534 208.583 225.511 208.663L225.199 209.803L224.711 210.098L224.944 209.241C224.967 209.168 224.921 209.088 224.842 209.065C224.768 209.043 224.689 209.088 224.666 209.168L224.354 210.308L223.378 210.893V209.786L224.195 208.941C224.252 208.884 224.246 208.793 224.189 208.742C224.133 208.685 224.042 208.691 223.991 208.748L223.378 209.383V208.81L224.195 207.965C224.252 207.908 224.246 207.817 224.189 207.766C224.133 207.709 224.042 207.715 223.991 207.772L223.378 208.407V207.828C223.378 207.749 223.315 207.687 223.236 207.687C223.157 207.687 223.094 207.749 223.094 207.828V208.407L222.487 207.772C222.43 207.715 222.345 207.715 222.288 207.766C222.232 207.817 222.232 207.908 222.283 207.965L223.094 208.81V209.377L222.487 208.742C222.43 208.685 222.345 208.685 222.288 208.736C222.26 208.765 222.243 208.799 222.243 208.838C222.243 208.878 222.254 208.912 222.283 208.941L223.094 209.786V210.881L222.101 210.371L221.727 209.253C221.715 209.219 221.687 209.19 221.653 209.173C221.619 209.156 221.579 209.156 221.545 209.168C221.471 209.19 221.432 209.275 221.454 209.349L221.738 210.189L221.233 209.928L220.858 208.81C220.847 208.776 220.819 208.748 220.785 208.731C220.751 208.714 220.711 208.714 220.677 208.725C220.643 208.736 220.614 208.765 220.597 208.799C220.58 208.833 220.58 208.872 220.592 208.907L220.876 209.746L220.365 209.48C220.331 209.463 220.291 209.457 220.257 209.468C220.223 209.48 220.189 209.502 220.172 209.536C220.155 209.57 220.149 209.61 220.161 209.644C220.172 209.678 220.195 209.712 220.229 209.729L220.739 209.996L219.894 210.246C219.82 210.268 219.775 210.348 219.797 210.422C219.82 210.495 219.9 210.541 219.973 210.518L221.102 210.183L221.607 210.444L220.762 210.694C220.688 210.717 220.643 210.796 220.666 210.87C220.688 210.944 220.768 210.989 220.841 210.966L221.971 210.632L222.964 211.142L222.01 211.715L220.864 211.449C220.79 211.432 220.711 211.477 220.694 211.556C220.677 211.63 220.722 211.71 220.802 211.727L221.664 211.925L221.176 212.22L220.03 211.954C219.99 211.942 219.956 211.954 219.922 211.971C219.888 211.993 219.865 212.022 219.86 212.061C219.843 212.135 219.888 212.215 219.968 212.232L220.83 212.43L220.336 212.725C220.268 212.765 220.246 212.856 220.285 212.918C220.325 212.981 220.416 213.003 220.478 212.969L220.972 212.674L220.739 213.525C220.728 213.559 220.734 213.599 220.751 213.633C220.768 213.667 220.802 213.69 220.836 213.701C220.91 213.724 220.989 213.673 221.012 213.599L221.318 212.464L221.806 212.169L221.573 213.02C221.551 213.094 221.596 213.174 221.676 213.196C221.749 213.219 221.829 213.168 221.851 213.094L222.158 211.959L223.094 211.398V212.538L222.283 213.378C222.254 213.406 222.243 213.44 222.243 213.48C222.243 213.52 222.26 213.554 222.288 213.582C222.345 213.639 222.436 213.633 222.487 213.577L223.094 212.947V213.52L222.283 214.36C222.254 214.388 222.243 214.422 222.243 214.462C222.243 214.501 222.26 214.535 222.288 214.564C222.317 214.592 222.351 214.604 222.385 214.604C222.425 214.604 222.459 214.587 222.487 214.558L223.094 213.928V214.456C223.094 214.535 223.157 214.598 223.236 214.598C223.315 214.598 223.378 214.535 223.378 214.456V213.917L223.991 214.558C224.047 214.615 224.133 214.615 224.189 214.564C224.246 214.507 224.246 214.422 224.195 214.365L223.378 213.514V212.947L223.991 213.588C224.042 213.645 224.138 213.645 224.189 213.594C224.246 213.537 224.246 213.452 224.195 213.395L223.378 212.544V211.375L224.411 211.908L224.785 213.015C224.802 213.071 224.859 213.111 224.921 213.111C224.938 213.111 224.95 213.111 224.967 213.106C225.001 213.094 225.029 213.066 225.046 213.032C225.063 212.998 225.063 212.958 225.052 212.924L224.774 212.096L225.279 212.357L225.653 213.463C225.676 213.537 225.761 213.577 225.835 213.554C225.869 213.542 225.897 213.514 225.914 213.48C225.931 213.446 225.931 213.406 225.92 213.372L225.642 212.544L226.107 212.788C226.13 212.799 226.153 212.805 226.17 212.805C226.221 212.805 226.272 212.776 226.295 212.725C226.312 212.691 226.317 212.652 226.306 212.618C226.295 212.583 226.272 212.549 226.238 212.532L225.761 212.288L226.612 212.033C226.692 211.993 226.737 211.914 226.714 211.84Z" fill="white"/>
<path d="M152.057 129.557C150.871 129.557 150.871 131.401 152.057 131.401C153.249 131.401 153.249 129.557 152.057 129.557Z" fill="white"/>
<path d="M167.729 133.704C165.653 133.704 165.653 136.933 167.729 136.933C169.806 136.933 169.812 133.704 167.729 133.704Z" fill="white"/>
<path d="M129.473 133.705C128.599 133.744 127.861 134.414 127.861 135.316V135.549C127.861 136.394 128.605 137.2 129.473 137.16C130.347 137.12 131.084 136.451 131.084 135.549V135.316C131.084 134.476 130.347 133.665 129.473 133.705Z" fill="white"/>
<path d="M141.69 170.35C139.613 170.35 139.613 173.578 141.69 173.578C143.767 173.578 143.767 170.35 141.69 170.35Z" fill="white"/>
<path d="M169.528 171.059C169.057 170.622 168.473 170.35 167.815 170.35H167.61C166.992 170.35 166.339 170.622 165.897 171.059C165.477 171.479 165.159 172.165 165.187 172.773C165.216 173.397 165.42 174.049 165.897 174.486C166.368 174.923 166.952 175.196 167.61 175.196H167.815C168.433 175.196 169.086 174.923 169.528 174.486C169.948 174.066 170.266 173.38 170.237 172.773C170.209 172.143 170.005 171.496 169.528 171.059Z" fill="white"/>
<path d="M134.545 179.797C130.988 179.797 130.982 185.329 134.545 185.329C138.103 185.329 138.109 179.797 134.545 179.797Z" fill="white"/>
<path d="M169.114 212.986C165.556 212.986 165.55 218.519 169.114 218.519C172.672 218.519 172.677 212.986 169.114 212.986Z" fill="white"/>
<path d="M189.854 130.68C189.479 130.68 189.116 131.009 189.133 131.4C189.15 131.792 189.451 132.121 189.854 132.121C190.228 132.121 190.591 131.792 190.574 131.4C190.557 131.009 190.262 130.68 189.854 130.68Z" fill="white"/>
<path d="M231.73 144.457C231.662 144.344 231.594 144.23 231.532 144.117C231.339 143.788 230.964 143.476 230.584 143.385C230.442 143.368 230.3 143.345 230.164 143.328C229.875 143.328 229.608 143.402 229.364 143.544C229.16 143.629 228.916 143.867 228.825 144.054C228.814 144.077 228.808 144.094 228.797 144.117C228.615 144.491 228.502 144.928 228.638 145.343C228.768 145.745 229.007 146.063 229.37 146.29C229.478 146.358 229.591 146.432 229.699 146.5C230.232 146.841 231.078 146.738 231.509 146.267C231.946 145.779 232.076 145.047 231.73 144.457Z" fill="white"/>
<path d="M224.195 130.021C223.315 130.021 223.315 131.389 224.195 131.389C225.074 131.395 225.08 130.021 224.195 130.021Z" fill="white"/>
<path d="M204.374 186.822C203.33 186.822 203.33 188.445 204.374 188.445C205.418 188.445 205.418 186.822 204.374 186.822Z" fill="white"/>
<path d="M232.048 172.409C231.662 172.051 231.185 171.83 230.652 171.83C230.147 171.83 229.614 172.051 229.256 172.409C228.791 172.874 228.513 173.686 228.745 174.332C228.762 174.378 228.779 174.423 228.796 174.474C228.944 174.877 229.137 175.206 229.489 175.473C229.812 175.723 230.232 175.904 230.652 175.887C230.992 175.87 231.322 175.785 231.622 175.626C232.071 175.388 232.343 174.934 232.508 174.474C232.525 174.429 232.542 174.384 232.559 174.332C232.786 173.703 232.53 172.851 232.048 172.409Z" fill="white"/>
<path d="M205.975 173.634C205.305 173.248 204.335 173.328 203.796 173.918C203.251 174.514 203.103 175.382 203.512 176.097C203.818 176.636 204.329 176.988 204.942 177.067C205.464 177.135 206.094 176.994 206.463 176.585C206.797 176.222 206.956 175.785 206.973 175.303C207.007 174.627 206.536 173.958 205.975 173.634Z" fill="white"/>
<path d="M231.436 203.902C231.367 203.817 231.299 203.732 231.226 203.647C230.953 203.312 230.369 203.119 229.955 203.119C229.512 203.119 228.984 203.318 228.684 203.647C228.371 203.987 228.133 204.441 228.156 204.918C228.178 205.366 228.32 205.894 228.684 206.189C228.769 206.257 228.854 206.325 228.939 206.399C229.313 206.705 229.688 206.915 230.187 206.915C230.618 206.915 231.141 206.722 231.436 206.399C231.742 206.064 231.975 205.622 231.952 205.151C231.935 204.657 231.748 204.282 231.436 203.902Z" fill="white"/>
<path d="M229.018 218.23C228.99 217.838 228.797 217.509 228.428 217.35C228.087 217.208 227.639 217.265 227.378 217.549C227.151 217.798 227.038 218.15 227.129 218.485C227.248 218.916 227.628 219.16 228.053 219.189C228.07 219.189 228.093 219.189 228.11 219.194C228.575 219.228 229.052 218.752 229.018 218.286C229.018 218.269 229.018 218.247 229.018 218.23Z" fill="white"/>
<path d="M215.439 216.085C213.794 216.085 213.788 218.644 215.439 218.644C217.085 218.644 217.091 216.085 215.439 216.085Z" fill="white"/>
<path d="M191.931 207.971C190.223 207.971 190.217 210.626 191.931 210.626C193.639 210.626 193.644 207.971 191.931 207.971Z" fill="white"/>
<path d="M131.828 211.278C131.805 211.273 131.777 211.267 131.754 211.261C131.175 211.131 130.613 211.437 130.438 212.01C130.386 212.175 130.375 212.373 130.426 212.538C130.432 212.549 130.432 212.566 130.438 212.578C130.613 213.151 131.175 213.457 131.754 213.327C131.777 213.321 131.799 213.315 131.828 213.31C132.832 213.083 132.832 211.505 131.828 211.278Z" fill="white"/>
<path d="M148.601 216.964C147.494 216.964 147.494 218.683 148.601 218.683C149.707 218.683 149.707 216.964 148.601 216.964Z" fill="white"/>
<path d="M169.347 123.394C168.535 123.394 168.529 124.659 169.347 124.659C170.158 124.653 170.158 123.394 169.347 123.394Z" fill="white"/>
<path d="M198.337 164.641C197.962 164.062 197.446 163.637 196.776 163.444C196.544 163.376 196.311 163.308 196.078 163.239C195.443 163.052 194.66 163.166 194.092 163.5C193.559 163.813 193.048 164.425 192.906 165.038C192.759 165.696 192.787 166.44 193.167 167.024C193.304 167.2 193.434 167.37 193.57 167.546C193.894 167.864 194.268 168.085 194.705 168.21C194.932 168.301 195.159 168.386 195.386 168.477C195.732 168.585 196.078 168.602 196.425 168.522C196.771 168.505 197.094 168.403 197.395 168.21C197.934 167.892 198.45 167.274 198.592 166.65C198.751 165.98 198.717 165.231 198.337 164.641Z" fill="white"/>
<path d="M212.211 124.053C211.065 124.053 211.065 125.834 212.211 125.834C213.357 125.84 213.363 124.053 212.211 124.053Z" fill="white"/>
<path d="M209.447 94.4434C207.864 94.4434 207.858 96.906 209.447 96.906C211.03 96.906 211.036 94.4434 209.447 94.4434Z" fill="white"/>
<path d="M197.781 98.8867C197.695 98.83 197.605 98.7676 197.52 98.7108C197.156 98.4725 196.572 98.552 196.283 98.8697C195.987 99.1932 195.868 99.7209 196.124 100.107C196.18 100.192 196.243 100.283 196.3 100.368C196.685 100.947 197.491 101.1 198.008 100.589C198.507 100.084 198.359 99.2726 197.781 98.8867Z" fill="white"/>
<path d="M169.959 88.0771C169.239 88.0771 168.552 88.707 168.586 89.4503C168.62 90.1937 169.188 90.8235 169.959 90.8235C170.68 90.8235 171.367 90.1937 171.333 89.4503C171.299 88.707 170.731 88.0771 169.959 88.0771Z" fill="white"/>
<path d="M148.601 87.9912C147.018 87.9912 147.012 90.4539 148.601 90.4539C150.19 90.4539 150.19 87.9912 148.601 87.9912Z" fill="white"/>
<path d="M141.043 97.3943C140.855 96.8212 140.481 96.3275 139.959 96.0155C138.546 95.1813 136.73 96.2538 136.719 97.8766C136.719 98.1036 136.73 98.3533 136.798 98.5632C136.861 98.7618 136.951 99.0058 137.076 99.1761C137.269 99.4995 137.525 99.7549 137.848 99.9478C138.183 100.141 138.546 100.243 138.932 100.243C139.72 100.243 140.362 99.8229 140.787 99.1761C141.094 98.7164 141.219 97.9447 141.043 97.3943Z" fill="white"/>
<path d="M126.017 92.3154C124.661 92.3154 124.661 94.4206 126.017 94.4206C127.373 94.4263 127.373 92.3154 126.017 92.3154Z" fill="white"/>
<path d="M166.351 97.8477C165.29 97.8477 165.284 99.4989 166.351 99.4989C167.412 99.4989 167.412 97.8477 166.351 97.8477Z" fill="white"/>
<path d="M230.743 120.954C230.567 120.659 230.329 120.421 230.034 120.245C229.949 120.182 229.863 120.12 229.778 120.057C229.625 119.995 229.472 119.927 229.319 119.864C229.063 119.785 228.808 119.774 228.547 119.83C228.144 119.887 227.724 120.052 227.44 120.358C227.213 120.602 227.049 120.891 226.947 121.209C226.811 121.623 226.873 122.333 227.14 122.696C227.202 122.781 227.265 122.866 227.327 122.951C227.503 123.246 227.741 123.485 228.036 123.661C228.343 123.842 228.677 123.927 229.035 123.933C229.557 123.91 230.056 123.734 230.431 123.354C230.788 122.997 231.01 122.463 231.01 121.958C231.01 121.595 230.924 121.26 230.743 120.954Z" fill="white"/>
<path d="M224.428 101.354C223.134 101.354 223.134 103.363 224.428 103.363C225.722 103.363 225.722 101.354 224.428 101.354Z" fill="white"/>
<path d="M193.582 86.6464C193.395 86.4138 193.179 86.323 192.924 86.2152C192.498 86.0336 192.141 86.0677 191.692 86.1358C191.551 86.1925 191.409 86.2549 191.273 86.3117C191.068 86.4251 190.904 86.5727 190.779 86.7656C190.546 87.0663 190.382 87.4465 190.399 87.8381C190.41 88.1501 190.495 88.4509 190.637 88.7289C190.819 89.0694 191.301 89.4779 191.692 89.5404C192.141 89.6085 192.498 89.6425 192.924 89.4609C193.179 89.3531 193.395 89.2567 193.582 89.0297C193.86 88.6892 194.098 88.3034 194.076 87.8381C194.059 87.3671 193.877 87.0153 193.582 86.6464Z" fill="white"/>
<path d="M206.218 208.016C204.862 208.016 204.862 210.121 206.218 210.121C207.574 210.121 207.574 208.016 206.218 208.016Z" fill="white"/>
<path d="M222.112 164.255C221.505 164.397 221.142 164.811 220.83 165.31C220.433 165.952 220.546 166.933 221.108 167.45C221.675 167.972 222.566 168.153 223.247 167.728C223.746 167.416 224.155 167.052 224.302 166.445C224.615 165.1 223.451 163.937 222.112 164.255Z" fill="white"/>
<path d="M130.438 163.552C130.25 163.223 129.859 162.905 129.484 162.82C129.047 162.718 128.662 162.786 128.253 162.979L128.037 163.081C127.073 163.54 127.073 165.169 128.037 165.629L128.253 165.731C128.628 165.912 129.064 166.026 129.484 165.89C129.876 165.765 130.228 165.526 130.438 165.158C130.727 164.647 130.727 164.068 130.438 163.552Z" fill="white"/>
<path d="M151.83 171.813C150.746 171.813 150.746 173.499 151.83 173.499C152.914 173.499 152.914 171.813 151.83 171.813Z" fill="white"/>
<path d="M138.921 204.861C138.251 204.861 138.251 205.9 138.921 205.9C139.59 205.9 139.59 204.861 138.921 204.861Z" fill="white"/>
<path d="M191.931 173.584C191.346 173.584 191.346 174.492 191.931 174.492C192.515 174.492 192.515 173.584 191.931 173.584Z" fill="white"/>
<path d="M200.227 218.082C199.37 218.082 199.37 219.41 200.227 219.41C201.083 219.41 201.083 218.082 200.227 218.082Z" fill="white"/>
<path d="M224.655 179.445C223.906 179.445 223.9 180.614 224.655 180.614C225.409 180.614 225.409 179.445 224.655 179.445Z" fill="white"/>
<path d="M216.359 139.969C215.814 139.969 215.814 140.814 216.359 140.814C216.903 140.809 216.903 139.969 216.359 139.969Z" fill="white"/>
<path d="M162.43 142.488C161.573 142.488 161.573 143.816 162.43 143.816C163.287 143.816 163.287 142.488 162.43 142.488Z" fill="white"/>
<path d="M151.83 100.811C150.723 100.811 150.723 102.53 151.83 102.53C152.936 102.53 152.936 100.811 151.83 100.811Z" fill="white"/>
<path d="M195.466 181.199C194.796 181.199 194.796 182.238 195.466 182.238C196.129 182.238 196.135 181.199 195.466 181.199Z" fill="white"/>
<path d="M206.065 145.933C205.293 145.933 205.293 147.13 206.065 147.13C206.837 147.136 206.837 145.933 206.065 145.933Z" fill="white"/>
<path d="M140.918 138.913C140.453 138.913 140.192 139.498 140.515 139.838C140.629 140.281 141.207 140.286 141.321 139.838C141.644 139.503 141.383 138.913 140.918 138.913Z" fill="white"/>
<path d="M150.445 183.928C149.923 183.928 149.923 184.739 150.445 184.739C150.967 184.733 150.967 183.928 150.445 183.928Z" fill="white"/>
<path d="M174.26 163.506C173.364 163.506 173.364 164.902 174.26 164.902C175.157 164.902 175.157 163.506 174.26 163.506Z" fill="white"/>
<path d="M158.741 207.051C157.532 207.051 157.527 208.929 158.741 208.929C159.95 208.929 159.955 207.051 158.741 207.051Z" fill="white"/>
<path d="M127.09 219.029C126.466 219.029 126.466 220 127.09 220C127.72 220 127.72 219.029 127.09 219.029Z" fill="white"/>
<path d="M126.783 100.827C126.096 100.827 126.096 101.894 126.783 101.894C127.475 101.894 127.475 100.827 126.783 100.827Z" fill="white"/>
</g>
</g>
<defs>
<filter id="filter0_d_1237_1649" x="55" y="63" width="17.0762" height="403" filterUnits="userSpaceOnUse" color-interpolation-filters="sRGB">
<feFlood flood-opacity="0" result="BackgroundImageFix"/>
<feColorMatrix in="SourceAlpha" type="matrix" values="0 0 0 0 0 0 0 0 0 0 0 0 0 0 0 0 0 0 127 0" result="hardAlpha"/>
<feOffset dy="4"/>
<feGaussianBlur stdDeviation="2"/>
<feComposite in2="hardAlpha" operator="out"/>
<feColorMatrix type="matrix" values="0 0 0 0 0 0 0 0 0 0 0 0 0 0 0 0 0 0 0.25 0"/>
<feBlend mode="normal" in2="BackgroundImageFix" result="effect1_dropShadow_1237_1649"/>
<feBlend mode="normal" in="SourceGraphic" in2="effect1_dropShadow_1237_1649" result="shape"/>
</filter>
<filter id="filter1_d_1237_1649" x="64.0762" y="63" width="17.0762" height="395" filterUnits="userSpaceOnUse" color-interpolation-filters="sRGB">
<feFlood flood-opacity="0" result="BackgroundImageFix"/>
<feColorMatrix in="SourceAlpha" type="matrix" values="0 0 0 0 0 0 0 0 0 0 0 0 0 0 0 0 0 0 127 0" result="hardAlpha"/>
<feOffset dy="4"/>
<feGaussianBlur stdDeviation="2"/>
<feComposite in2="hardAlpha" operator="out"/>
<feColorMatrix type="matrix" values="0 0 0 0 0 0 0 0 0 0 0 0 0 0 0 0 0 0 0.25 0"/>
<feBlend mode="normal" in2="BackgroundImageFix" result="effect1_dropShadow_1237_1649"/>
<feBlend mode="normal" in="SourceGraphic" in2="effect1_dropShadow_1237_1649" result="shape"/>
</filter>
<filter id="filter2_d_1237_1649" x="73.1519" y="63" width="17.0762" height="377" filterUnits="userSpaceOnUse" color-interpolation-filters="sRGB">
<feFlood flood-opacity="0" result="BackgroundImageFix"/>
<feColorMatrix in="SourceAlpha" type="matrix" values="0 0 0 0 0 0 0 0 0 0 0 0 0 0 0 0 0 0 127 0" result="hardAlpha"/>
<feOffset dy="4"/>
<feGaussianBlur stdDeviation="2"/>
<feComposite in2="hardAlpha" operator="out"/>
<feColorMatrix type="matrix" values="0 0 0 0 0 0 0 0 0 0 0 0 0 0 0 0 0 0 0.25 0"/>
<feBlend mode="normal" in2="BackgroundImageFix" result="effect1_dropShadow_1237_1649"/>
<feBlend mode="normal" in="SourceGraphic" in2="effect1_dropShadow_1237_1649" result="shape"/>
</filter>
<filter id="filter3_d_1237_1649" x="82.228" y="63" width="17.0762" height="364" filterUnits="userSpaceOnUse" color-interpolation-filters="sRGB">
<feFlood flood-opacity="0" result="BackgroundImageFix"/>
<feColorMatrix in="SourceAlpha" type="matrix" values="0 0 0 0 0 0 0 0 0 0 0 0 0 0 0 0 0 0 127 0" result="hardAlpha"/>
<feOffset dy="4"/>
<feGaussianBlur stdDeviation="2"/>
<feComposite in2="hardAlpha" operator="out"/>
<feColorMatrix type="matrix" values="0 0 0 0 0 0 0 0 0 0 0 0 0 0 0 0 0 0 0.25 0"/>
<feBlend mode="normal" in2="BackgroundImageFix" result="effect1_dropShadow_1237_1649"/>
<feBlend mode="normal" in="SourceGraphic" in2="effect1_dropShadow_1237_1649" result="shape"/>
</filter>
<filter id="filter4_d_1237_1649" x="91.3037" y="63" width="17.0762" height="355" filterUnits="userSpaceOnUse" color-interpolation-filters="sRGB">
<feFlood flood-opacity="0" result="BackgroundImageFix"/>
<feColorMatrix in="SourceAlpha" type="matrix" values="0 0 0 0 0 0 0 0 0 0 0 0 0 0 0 0 0 0 127 0" result="hardAlpha"/>
<feOffset dy="4"/>
<feGaussianBlur stdDeviation="2"/>
<feComposite in2="hardAlpha" operator="out"/>
<feColorMatrix type="matrix" values="0 0 0 0 0 0 0 0 0 0 0 0 0 0 0 0 0 0 0.25 0"/>
<feBlend mode="normal" in2="BackgroundImageFix" result="effect1_dropShadow_1237_1649"/>
<feBlend mode="normal" in="SourceGraphic" in2="effect1_dropShadow_1237_1649" result="shape"/>
</filter>
<filter id="filter5_d_1237_1649" x="100.38" y="63" width="17.0762" height="343" filterUnits="userSpaceOnUse" color-interpolation-filters="sRGB">
<feFlood flood-opacity="0" result="BackgroundImageFix"/>
<feColorMatrix in="SourceAlpha" type="matrix" values="0 0 0 0 0 0 0 0 0 0 0 0 0 0 0 0 0 0 127 0" result="hardAlpha"/>
<feOffset dy="4"/>
<feGaussianBlur stdDeviation="2"/>
<feComposite in2="hardAlpha" operator="out"/>
<feColorMatrix type="matrix" values="0 0 0 0 0 0 0 0 0 0 0 0 0 0 0 0 0 0 0.25 0"/>
<feBlend mode="normal" in2="BackgroundImageFix" result="effect1_dropShadow_1237_1649"/>
<feBlend mode="normal" in="SourceGraphic" in2="effect1_dropShadow_1237_1649" result="shape"/>
</filter>
<filter id="filter6_d_1237_1649" x="284.924" y="63" width="17.0762" height="403" filterUnits="userSpaceOnUse" color-interpolation-filters="sRGB">
<feFlood flood-opacity="0" result="BackgroundImageFix"/>
<feColorMatrix in="SourceAlpha" type="matrix" values="0 0 0 0 0 0 0 0 0 0 0 0 0 0 0 0 0 0 127 0" result="hardAlpha"/>
<feOffset dy="4"/>
<feGaussianBlur stdDeviation="2"/>
<feComposite in2="hardAlpha" operator="out"/>
<feColorMatrix type="matrix" values="0 0 0 0 0 0 0 0 0 0 0 0 0 0 0 0 0 0 0.25 0"/>
<feBlend mode="normal" in2="BackgroundImageFix" result="effect1_dropShadow_1237_1649"/>
<feBlend mode="normal" in="SourceGraphic" in2="effect1_dropShadow_1237_1649" result="shape"/>
</filter>
<filter id="filter7_d_1237_1649" x="275.848" y="63" width="17.0762" height="395" filterUnits="userSpaceOnUse" color-interpolation-filters="sRGB">
<feFlood flood-opacity="0" result="BackgroundImageFix"/>
<feColorMatrix in="SourceAlpha" type="matrix" values="0 0 0 0 0 0 0 0 0 0 0 0 0 0 0 0 0 0 127 0" result="hardAlpha"/>
<feOffset dy="4"/>
<feGaussianBlur stdDeviation="2"/>
<feComposite in2="hardAlpha" operator="out"/>
<feColorMatrix type="matrix" values="0 0 0 0 0 0 0 0 0 0 0 0 0 0 0 0 0 0 0.25 0"/>
<feBlend mode="normal" in2="BackgroundImageFix" result="effect1_dropShadow_1237_1649"/>
<feBlend mode="normal" in="SourceGraphic" in2="effect1_dropShadow_1237_1649" result="shape"/>
</filter>
<filter id="filter8_d_1237_1649" x="266.772" y="63" width="17.0762" height="377" filterUnits="userSpaceOnUse" color-interpolation-filters="sRGB">
<feFlood flood-opacity="0" result="BackgroundImageFix"/>
<feColorMatrix in="SourceAlpha" type="matrix" values="0 0 0 0 0 0 0 0 0 0 0 0 0 0 0 0 0 0 127 0" result="hardAlpha"/>
<feOffset dy="4"/>
<feGaussianBlur stdDeviation="2"/>
<feComposite in2="hardAlpha" operator="out"/>
<feColorMatrix type="matrix" values="0 0 0 0 0 0 0 0 0 0 0 0 0 0 0 0 0 0 0.25 0"/>
<feBlend mode="normal" in2="BackgroundImageFix" result="effect1_dropShadow_1237_1649"/>
<feBlend mode="normal" in="SourceGraphic" in2="effect1_dropShadow_1237_1649" result="shape"/>
</filter>
<filter id="filter9_d_1237_1649" x="257.696" y="63" width="17.0762" height="364" filterUnits="userSpaceOnUse" color-interpolation-filters="sRGB">
<feFlood flood-opacity="0" result="BackgroundImageFix"/>
<feColorMatrix in="SourceAlpha" type="matrix" values="0 0 0 0 0 0 0 0 0 0 0 0 0 0 0 0 0 0 127 0" result="hardAlpha"/>
<feOffset dy="4"/>
<feGaussianBlur stdDeviation="2"/>
<feComposite in2="hardAlpha" operator="out"/>
<feColorMatrix type="matrix" values="0 0 0 0 0 0 0 0 0 0 0 0 0 0 0 0 0 0 0.25 0"/>
<feBlend mode="normal" in2="BackgroundImageFix" result="effect1_dropShadow_1237_1649"/>
<feBlend mode="normal" in="SourceGraphic" in2="effect1_dropShadow_1237_1649" result="shape"/>
</filter>
<filter id="filter10_d_1237_1649" x="248.62" y="63" width="17.0762" height="355" filterUnits="userSpaceOnUse" color-interpolation-filters="sRGB">
<feFlood flood-opacity="0" result="BackgroundImageFix"/>
<feColorMatrix in="SourceAlpha" type="matrix" values="0 0 0 0 0 0 0 0 0 0 0 0 0 0 0 0 0 0 127 0" result="hardAlpha"/>
<feOffset dy="4"/>
<feGaussianBlur stdDeviation="2"/>
<feComposite in2="hardAlpha" operator="out"/>
<feColorMatrix type="matrix" values="0 0 0 0 0 0 0 0 0 0 0 0 0 0 0 0 0 0 0.25 0"/>
<feBlend mode="normal" in2="BackgroundImageFix" result="effect1_dropShadow_1237_1649"/>
<feBlend mode="normal" in="SourceGraphic" in2="effect1_dropShadow_1237_1649" result="shape"/>
</filter>
<filter id="filter11_d_1237_1649" x="239.544" y="63" width="17.0762" height="343" filterUnits="userSpaceOnUse" color-interpolation-filters="sRGB">
<feFlood flood-opacity="0" result="BackgroundImageFix"/>
<feColorMatrix in="SourceAlpha" type="matrix" values="0 0 0 0 0 0 0 0 0 0 0 0 0 0 0 0 0 0 127 0" result="hardAlpha"/>
<feOffset dy="4"/>
<feGaussianBlur stdDeviation="2"/>
<feComposite in2="hardAlpha" operator="out"/>
<feColorMatrix type="matrix" values="0 0 0 0 0 0 0 0 0 0 0 0 0 0 0 0 0 0 0.25 0"/>
<feBlend mode="normal" in2="BackgroundImageFix" result="effect1_dropShadow_1237_1649"/>
<feBlend mode="normal" in="SourceGraphic" in2="effect1_dropShadow_1237_1649" result="shape"/>
</filter>
<linearGradient id="paint0_linear_1237_1649" x1="182" y1="63.0381" x2="182" y2="382" gradientUnits="userSpaceOnUse">
<stop stop-color="#4E4949"/>
<stop offset="1" stop-color="#504141"/>
</linearGradient>
<linearGradient id="paint1_linear_1237_1649" x1="169" y1="-10.901" x2="172.63" y2="101.295" gradientUnits="userSpaceOnUse">
<stop stop-color="#F95959" stop-opacity="0.8"/>
<stop offset="1" stop-color="#460404"/>
</linearGradient>
<linearGradient id="paint2_linear_1237_1649" x1="153.793" y1="57.3094" x2="154.393" y2="83.1609" gradientUnits="userSpaceOnUse">
<stop stop-color="#810303"/>
<stop offset="1" stop-color="#7D0A0A"/>
</linearGradient>
<linearGradient id="paint3_linear_1237_1649" x1="328" y1="42.954" x2="328" y2="549.23" gradientUnits="userSpaceOnUse">
<stop stop-color="#674141"/>
<stop offset="1" stop-color="#A47C7C"/>
</linearGradient>
<linearGradient id="paint4_linear_1237_1649" x1="29" y1="23.6097" x2="29" y2="537.879" gradientUnits="userSpaceOnUse">
<stop stop-color="#674141"/>
<stop offset="1" stop-color="#A47C7C"/>
</linearGradient>
<linearGradient id="paint5_linear_1237_1649" x1="188.5" y1="515" x2="189.21" y2="571.081" gradientUnits="userSpaceOnUse">
<stop stop-color="#F58E8E"/>
<stop offset="1" stop-color="#B05454"/>
</linearGradient>
<linearGradient id="paint6_linear_1237_1649" x1="197.5" y1="729" x2="194.5" y2="791.5" gradientUnits="userSpaceOnUse">
<stop stop-color="#E18484"/>
<stop offset="1" stop-color="#B05757"/>
</linearGradient>
<linearGradient id="paint7_linear_1237_1649" x1="198.5" y1="668" x2="195.5" y2="730.5" gradientUnits="userSpaceOnUse">
<stop stop-color="#E18484"/>
<stop offset="1" stop-color="#B05757"/>
</linearGradient>
<linearGradient id="paint8_linear_1237_1649" x1="63.538" y1="63" x2="63.538" y2="458" gradientUnits="userSpaceOnUse">
<stop stop-color="#DA1919"/>
<stop offset="1" stop-color="#D30505"/>
</linearGradient>
<linearGradient id="paint9_linear_1237_1649" x1="72.6141" y1="63" x2="72.6141" y2="450" gradientUnits="userSpaceOnUse">
<stop stop-color="#DA1919"/>
<stop offset="1" stop-color="#D30505"/>
</linearGradient>
<linearGradient id="paint10_linear_1237_1649" x1="81.6898" y1="63" x2="81.6898" y2="432" gradientUnits="userSpaceOnUse">
<stop stop-color="#DA1919"/>
<stop offset="1" stop-color="#D30505"/>
</linearGradient>
<linearGradient id="paint11_linear_1237_1649" x1="90.766" y1="63" x2="90.766" y2="419" gradientUnits="userSpaceOnUse">
<stop stop-color="#DA1919"/>
<stop offset="1" stop-color="#D30505"/>
</linearGradient>
<linearGradient id="paint12_linear_1237_1649" x1="99.8417" y1="63" x2="99.8417" y2="410" gradientUnits="userSpaceOnUse">
<stop stop-color="#DA1919"/>
<stop offset="1" stop-color="#D30505"/>
</linearGradient>
<linearGradient id="paint13_linear_1237_1649" x1="108.918" y1="63" x2="108.918" y2="398" gradientUnits="userSpaceOnUse">
<stop stop-color="#DA1919"/>
<stop offset="1" stop-color="#D30505"/>
</linearGradient>
<linearGradient id="paint14_linear_1237_1649" x1="293.462" y1="63" x2="293.462" y2="458" gradientUnits="userSpaceOnUse">
<stop stop-color="#DA1919"/>
<stop offset="1" stop-color="#D30505"/>
</linearGradient>
<linearGradient id="paint15_linear_1237_1649" x1="284.386" y1="63" x2="284.386" y2="450" gradientUnits="userSpaceOnUse">
<stop stop-color="#DA1919"/>
<stop offset="1" stop-color="#D30505"/>
</linearGradient>
<linearGradient id="paint16_linear_1237_1649" x1="275.31" y1="63" x2="275.31" y2="432" gradientUnits="userSpaceOnUse">
<stop stop-color="#DA1919"/>
<stop offset="1" stop-color="#D30505"/>
</linearGradient>
<linearGradient id="paint17_linear_1237_1649" x1="266.234" y1="63" x2="266.234" y2="419" gradientUnits="userSpaceOnUse">
<stop stop-color="#DA1919"/>
<stop offset="1" stop-color="#D30505"/>
</linearGradient>
<linearGradient id="paint18_linear_1237_1649" x1="257.158" y1="63" x2="257.158" y2="410" gradientUnits="userSpaceOnUse">
<stop stop-color="#DA1919"/>
<stop offset="1" stop-color="#D30505"/>
</linearGradient>
<linearGradient id="paint19_linear_1237_1649" x1="248.082" y1="63" x2="248.082" y2="398" gradientUnits="userSpaceOnUse">
<stop stop-color="#DA1919"/>
<stop offset="1" stop-color="#D30505"/>
</linearGradient>
<clipPath id="clip0_1237_1649">
<rect width="360" height="800" fill="white"/>
</clipPath>
</defs>
</svg>
