<svg width="360" height="800" viewBox="0 0 360 800" fill="none" xmlns="http://www.w3.org/2000/svg">
<rect width="360" height="800" fill="#F4AC83"/>
<rect x="87" y="65" width="187.925" height="219.623" fill="#3D3030"/>
<g filter="url(#filter0_df_1237_1736)">
<circle cx="107.5" cy="103.5" r="13.5" fill="white"/>
</g>
<path d="M305.123 297.303H53.8115L66.5293 288.205H291.022L305.123 297.303Z" fill="white"/>
<path d="M292.519 50.6651H67.4831L61.4438 41.5254H298.559L292.519 50.6651Z" fill="#A6C2E2"/>
<path d="M281.138 58.543H274.555V288.013H281.138V58.543Z" fill="white"/>
<path d="M279.496 59.0186H79.7046V64.7883H279.496V59.0186Z" fill="white"/>
<path d="M279.496 169.188H79.7046V174.958H279.496V169.188Z" fill="white"/>
<path d="M279.496 229.796H79.7046V235.566H279.496V229.796Z" fill="white"/>
<path d="M279.496 281.758H79.7046V287.528H279.496V281.758Z" fill="white"/>
<path d="M86.2877 58.543H79.7046V288.013H86.2877V58.543Z" fill="white"/>
<path d="M186.179 58.543H179.596V288.013H186.179V58.543Z" fill="white"/>
<path d="M305.132 297.403H53.8115V305.698H305.132V297.403Z" fill="#A6C2E2"/>
<path d="M298.978 34H61.8638V41.693H298.978V34Z" fill="white"/>
<path d="M306.887 285.855H304.07V191.658C304.07 189.485 302.3 187.724 300.116 187.724C297.932 187.724 296.162 189.485 296.162 191.658V285.855H282.641V62.8393C282.641 60.7597 281.019 59.0618 278.966 58.9193C278.923 58.9161 278.88 58.9145 278.837 58.9128C278.787 58.9112 278.739 58.9053 278.688 58.9053H81.0106C80.9628 58.9053 80.9161 58.9107 80.8684 58.9123C80.8131 58.9145 80.7577 58.9161 80.7024 58.9204C80.5891 58.9293 80.4763 58.9431 80.3643 58.962C80.3291 58.9679 80.2938 58.9711 80.2591 58.9782C80.1055 59.0073 79.9552 59.0451 79.8087 59.0915C79.799 59.0948 79.7897 59.0991 79.78 59.1018C79.6448 59.1461 79.5122 59.1978 79.3828 59.2567C79.3481 59.2724 79.3144 59.2891 79.2803 59.3059C79.1713 59.3587 79.0648 59.4165 78.9612 59.4792C78.9401 59.4916 78.9178 59.5008 78.8972 59.5143L78.8641 59.538C78.7346 59.6206 78.6099 59.7106 78.4908 59.8074L78.4789 59.8182C78.3685 59.9107 78.2632 60.0091 78.1636 60.113C78.1322 60.1454 78.1023 60.1799 78.0719 60.2134C77.9987 60.2944 77.9292 60.3781 77.863 60.465C77.8365 60.5001 77.8093 60.5341 77.7844 60.5697C77.7035 60.6831 77.6281 60.8002 77.5597 60.9222L77.5462 60.9444C77.472 61.0797 77.4059 61.2192 77.3481 61.3622C77.3373 61.3892 77.3286 61.4168 77.3183 61.4438C77.2596 61.5978 77.2107 61.7554 77.1718 61.9156C77.1449 62.0274 77.123 62.1404 77.1061 62.2541C77.1002 62.2951 77.092 62.3356 77.0872 62.3767C77.0681 62.53 77.0582 62.6843 77.0573 62.8388V285.854H63.5362V191.674C63.5362 189.501 61.7663 187.74 59.5824 187.74C57.3985 187.74 55.6286 189.501 55.6286 191.674V285.855H52.8115C47.9532 285.855 44 289.788 44 294.622V305.232C44 310.066 47.9532 314 52.8115 314H306.887C311.745 314 315.698 310.066 315.698 305.232V294.622C315.699 289.788 311.745 285.855 306.887 285.855ZM261.118 66.7729L215.89 88.1249C213.349 89.3245 211.77 91.7145 211.77 94.362V268.096C211.77 270.963 213.63 273.508 216.508 274.58L246.824 285.855H112.861L143.177 274.579C146.055 273.508 147.914 270.964 147.914 268.096V94.3626C147.914 91.7156 146.336 89.3256 143.795 88.1254L98.5674 66.7734L261.118 66.7729ZM274.72 69.0603V285.855H269.406L219.678 267.358V95.0455L274.72 69.0603ZM84.9638 69.0603L140.006 95.0455V267.359L90.2773 285.855H84.9638V69.0603ZM307.792 305.232C307.791 305.471 307.696 305.699 307.526 305.868C307.357 306.037 307.127 306.132 306.887 306.132H52.8115C52.5718 306.132 52.342 306.037 52.1724 305.868C52.0029 305.699 51.9075 305.471 51.907 305.232V294.622C51.9075 294.384 52.0029 294.155 52.1724 293.987C52.342 293.818 52.5718 293.723 52.8115 293.722H306.887C307.127 293.723 307.357 293.818 307.526 293.987C307.696 294.155 307.791 294.384 307.792 294.622V305.232Z" fill="white"/>
<defs>
<filter id="filter0_df_1237_1736" x="84" y="80" width="47" height="47" filterUnits="userSpaceOnUse" color-interpolation-filters="sRGB">
<feFlood flood-opacity="0" result="BackgroundImageFix"/>
<feColorMatrix in="SourceAlpha" type="matrix" values="0 0 0 0 0 0 0 0 0 0 0 0 0 0 0 0 0 0 127 0" result="hardAlpha"/>
<feOffset dy="4"/>
<feGaussianBlur stdDeviation="2"/>
<feComposite in2="hardAlpha" operator="out"/>
<feColorMatrix type="matrix" values="0 0 0 0 0 0 0 0 0 0 0 0 0 0 0 0 0 0 0.25 0"/>
<feBlend mode="normal" in2="BackgroundImageFix" result="effect1_dropShadow_1237_1736"/>
<feBlend mode="normal" in="SourceGraphic" in2="effect1_dropShadow_1237_1736" result="shape"/>
<feGaussianBlur stdDeviation="5" result="effect2_foregroundBlur_1237_1736"/>
</filter>
</defs>
</svg>
