<svg width="360" height="800" viewBox="0 0 360 800" fill="none" xmlns="http://www.w3.org/2000/svg">
<g clip-path="url(#clip0_1237_1969)">
<rect width="360" height="800" fill="url(#paint0_linear_1237_1969)"/>
<path d="M61.9882 98.4069C61.9653 98.338 61.9194 98.2691 61.8506 98.2346C61.7818 98.2002 61.7016 98.1887 61.6328 98.2116L59.3397 98.8893L58.3193 98.3609L60.0391 97.8441C60.1881 97.7982 60.2799 97.6374 60.234 97.4881C60.2111 97.4192 60.1652 97.3503 60.0964 97.3158C60.0276 97.2814 59.9473 97.2699 59.8785 97.2929L57.5855 97.9705L55.602 96.9483L57.5511 95.7769L59.8556 96.3167C60.0047 96.3511 60.1652 96.2592 60.1996 96.0984C60.2225 96.018 60.1996 95.9491 60.1652 95.8802C60.1193 95.8113 60.062 95.7654 59.9818 95.7539L58.2619 95.3519L59.248 94.7547L61.5525 95.2945C61.7016 95.329 61.8621 95.2371 61.8965 95.0763C61.9194 94.9959 61.8965 94.927 61.8621 94.8581C61.8162 94.7892 61.7589 94.7432 61.6786 94.7317L59.9588 94.3298L60.876 93.7785C60.9448 93.744 60.9907 93.6751 61.0022 93.6062C61.0251 93.5373 61.0136 93.4569 60.9678 93.388C60.9334 93.3191 60.8646 93.2732 60.7958 93.2617C60.7155 93.2387 60.6467 93.2502 60.5779 93.2961L59.6492 93.8589L60.1193 92.1247C60.1652 91.9754 60.0735 91.8146 59.913 91.7687C59.7639 91.7227 59.6034 91.8146 59.5575 91.9754L58.9269 94.2838L57.9409 94.881L58.411 93.1468C58.4568 92.9975 58.3651 92.8368 58.2046 92.7908C58.0556 92.7449 57.895 92.8368 57.8492 92.9975L57.2186 95.306L55.2465 96.4889V94.2494L56.8976 92.5382C57.0122 92.4233 57.0007 92.2395 56.8861 92.1362C56.7714 92.0213 56.588 92.0328 56.4848 92.1477L55.2465 93.434V92.274L56.8976 90.5628C57.0122 90.4479 57.0007 90.2642 56.8861 90.1608C56.7714 90.0459 56.588 90.0574 56.4848 90.1723L55.2465 91.4586V90.2871C55.2465 90.1263 55.1204 90 54.9599 90C54.7994 90 54.6733 90.1263 54.6733 90.2871V91.4586L53.4465 90.1723C53.3318 90.0574 53.1598 90.0574 53.0452 90.1608C52.9305 90.2756 52.9305 90.4479 53.0337 90.5628L54.6733 92.274V93.4225L53.4465 92.1362C53.3318 92.0213 53.1598 92.0213 53.0452 92.1247C52.9879 92.1821 52.9535 92.251 52.9535 92.3314C52.9535 92.4118 52.9764 92.4807 53.0337 92.5382L54.6733 94.2494V96.466L52.6668 95.4323L51.9101 93.1698C51.8872 93.1009 51.8299 93.0435 51.7611 93.009C51.6923 92.9746 51.612 92.9746 51.5432 92.9975C51.3942 93.0435 51.3139 93.2158 51.3598 93.3651L51.933 95.0648L50.9126 94.5365L50.1559 92.274C50.133 92.2051 50.0756 92.1477 50.0068 92.1132C49.938 92.0787 49.8578 92.0788 49.789 92.1017C49.7202 92.1247 49.6629 92.1821 49.6285 92.251C49.5941 92.3199 49.5941 92.4003 49.617 92.4692L50.1903 94.169L49.1584 93.6292C49.0896 93.5948 49.0094 93.5833 48.9406 93.6062C48.8718 93.6292 48.803 93.6751 48.7686 93.744C48.7342 93.813 48.7227 93.8934 48.7457 93.9623C48.7686 94.0312 48.8144 94.1001 48.8832 94.1345L49.9151 94.6743L48.2068 95.1796C48.0577 95.2256 47.966 95.3864 48.0119 95.5357C48.0577 95.685 48.2182 95.7769 48.3673 95.7309L50.6489 95.0533L51.6693 95.5816L49.961 96.087C49.8119 96.1329 49.7202 96.2937 49.7661 96.443C49.8119 96.5923 49.9724 96.6842 50.1215 96.6382L52.4031 95.9606L54.4096 96.9943L52.4834 98.1542L50.1674 97.6144C50.0183 97.58 49.8578 97.6719 49.8234 97.8327C49.789 97.982 49.8807 98.1427 50.0412 98.1772L51.784 98.5792L50.798 99.1764L48.482 98.6366C48.4017 98.6136 48.3329 98.6366 48.2641 98.671C48.1953 98.717 48.1495 98.7744 48.138 98.8548C48.1036 99.0041 48.1953 99.1649 48.3558 99.1993L50.0986 99.6013L49.1011 100.199C48.9635 100.279 48.9176 100.463 48.9979 100.589C49.0782 100.715 49.2616 100.761 49.3877 100.692L50.3852 100.095L49.9151 101.818C49.8922 101.887 49.9037 101.967 49.938 102.036C49.9724 102.105 50.0412 102.151 50.11 102.174C50.2591 102.22 50.4196 102.116 50.4655 101.967L51.0846 99.6702L52.0706 99.073L51.6005 100.796C51.5547 100.945 51.6464 101.106 51.8069 101.152C51.956 101.198 52.1165 101.094 52.1623 100.945L52.7815 98.6481L54.6733 97.5111V99.8195L53.0337 101.519C52.9764 101.577 52.9535 101.646 52.9535 101.726C52.9535 101.806 52.9879 101.875 53.0452 101.933C53.1598 102.048 53.3433 102.036 53.4465 101.921L54.6733 100.646V101.806L53.0337 103.506C52.9764 103.564 52.9535 103.632 52.9535 103.713C52.9535 103.793 52.9879 103.862 53.0452 103.92C53.1025 103.977 53.1713 104 53.2401 104C53.3203 104 53.3891 103.966 53.4465 103.908L54.6733 102.633V103.701C54.6733 103.862 54.7994 103.989 54.9599 103.989C55.1204 103.989 55.2465 103.862 55.2465 103.701V102.61L56.4848 103.908C56.5995 104.023 56.7714 104.023 56.8861 103.92C57.0007 103.805 57.0007 103.632 56.8976 103.518L55.2465 101.795V100.646L56.4848 101.944C56.588 102.059 56.7829 102.059 56.8861 101.956C57.0007 101.841 57.0007 101.669 56.8976 101.554L55.2465 99.8195V97.4537L57.3332 98.5332L58.0899 100.773C58.1243 100.888 58.239 100.968 58.3651 100.968C58.3995 100.968 58.4225 100.968 58.4569 100.957C58.5256 100.934 58.583 100.876 58.6174 100.807C58.6518 100.738 58.6518 100.658 58.6288 100.589L58.067 98.9122L59.0875 99.4405L59.8442 101.68C59.89 101.829 60.062 101.91 60.2111 101.864C60.2798 101.841 60.3372 101.783 60.3716 101.715C60.406 101.646 60.406 101.565 60.383 101.496L59.8212 99.8195L60.7614 100.313C60.8073 100.336 60.8531 100.348 60.8875 100.348C60.9907 100.348 61.0939 100.29 61.1397 100.187C61.1741 100.118 61.1856 100.038 61.1627 99.9688C61.1398 99.8999 61.0939 99.831 61.0251 99.7966L60.062 99.3027L61.7818 98.7859C61.9423 98.7285 62.0341 98.5677 61.9882 98.4069Z" fill="#FFF4B8"/>
<path d="M79.9882 91.4069C79.9653 91.338 79.9194 91.2691 79.8506 91.2346C79.7818 91.2002 79.7016 91.1887 79.6328 91.2116L77.3397 91.8893L76.3193 91.3609L78.0391 90.8441C78.1881 90.7982 78.2799 90.6374 78.234 90.4881C78.2111 90.4192 78.1652 90.3503 78.0964 90.3158C78.0276 90.2814 77.9473 90.2699 77.8785 90.2929L75.5855 90.9705L73.602 89.9483L75.5511 88.7769L77.8556 89.3167C78.0047 89.3511 78.1652 89.2592 78.1996 89.0984C78.2225 89.018 78.1996 88.9491 78.1652 88.8802C78.1193 88.8113 78.062 88.7654 77.9818 88.7539L76.2619 88.3519L77.248 87.7547L79.5525 88.2945C79.7016 88.329 79.8621 88.2371 79.8965 88.0763C79.9194 87.9959 79.8965 87.927 79.8621 87.8581C79.8162 87.7892 79.7589 87.7432 79.6786 87.7317L77.9588 87.3298L78.876 86.7785C78.9448 86.744 78.9907 86.6751 79.0022 86.6062C79.0251 86.5373 79.0136 86.4569 78.9678 86.388C78.9334 86.3191 78.8646 86.2732 78.7958 86.2617C78.7155 86.2387 78.6467 86.2502 78.5779 86.2961L77.6492 86.8589L78.1193 85.1247C78.1652 84.9754 78.0735 84.8146 77.913 84.7687C77.7639 84.7227 77.6034 84.8146 77.5575 84.9754L76.9269 87.2838L75.9409 87.881L76.411 86.1468C76.4568 85.9975 76.3651 85.8368 76.2046 85.7908C76.0556 85.7449 75.895 85.8368 75.8492 85.9975L75.2186 88.306L73.2465 89.4889V87.2494L74.8976 85.5382C75.0122 85.4233 75.0007 85.2395 74.8861 85.1362C74.7714 85.0213 74.588 85.0328 74.4848 85.1477L73.2465 86.434V85.274L74.8976 83.5628C75.0122 83.4479 75.0007 83.2642 74.8861 83.1608C74.7714 83.0459 74.588 83.0574 74.4848 83.1723L73.2465 84.4586V83.2871C73.2465 83.1263 73.1204 83 72.9599 83C72.7994 83 72.6733 83.1263 72.6733 83.2871V84.4586L71.4465 83.1723C71.3318 83.0574 71.1598 83.0574 71.0452 83.1608C70.9305 83.2756 70.9305 83.4479 71.0337 83.5628L72.6733 85.274V86.4225L71.4465 85.1362C71.3318 85.0213 71.1598 85.0213 71.0452 85.1247C70.9879 85.1821 70.9535 85.251 70.9535 85.3314C70.9535 85.4118 70.9764 85.4807 71.0337 85.5382L72.6733 87.2494V89.466L70.6668 88.4323L69.9101 86.1698C69.8872 86.1009 69.8299 86.0435 69.7611 86.009C69.6923 85.9746 69.612 85.9746 69.5432 85.9975C69.3942 86.0435 69.3139 86.2158 69.3598 86.3651L69.933 88.0648L68.9126 87.5365L68.1559 85.274C68.133 85.2051 68.0756 85.1477 68.0068 85.1132C67.938 85.0787 67.8578 85.0788 67.789 85.1017C67.7202 85.1247 67.6629 85.1821 67.6285 85.251C67.5941 85.3199 67.5941 85.4003 67.617 85.4692L68.1903 87.169L67.1584 86.6292C67.0896 86.5948 67.0094 86.5833 66.9406 86.6062C66.8718 86.6292 66.803 86.6751 66.7686 86.744C66.7342 86.813 66.7227 86.8934 66.7457 86.9623C66.7686 87.0312 66.8144 87.1001 66.8832 87.1345L67.9151 87.6743L66.2068 88.1796C66.0577 88.2256 65.966 88.3864 66.0119 88.5357C66.0577 88.685 66.2182 88.7769 66.3673 88.7309L68.6489 88.0533L69.6693 88.5816L67.961 89.087C67.8119 89.1329 67.7202 89.2937 67.7661 89.443C67.8119 89.5923 67.9724 89.6842 68.1215 89.6382L70.4031 88.9606L72.4096 89.9943L70.4834 91.1542L68.1674 90.6144C68.0183 90.58 67.8578 90.6719 67.8234 90.8327C67.789 90.982 67.8807 91.1427 68.0412 91.1772L69.784 91.5792L68.798 92.1764L66.482 91.6366C66.4017 91.6136 66.3329 91.6366 66.2641 91.671C66.1953 91.717 66.1495 91.7744 66.138 91.8548C66.1036 92.0041 66.1953 92.1649 66.3558 92.1993L68.0986 92.6013L67.1011 93.1985C66.9635 93.2789 66.9176 93.4627 66.9979 93.589C67.0782 93.7153 67.2616 93.7613 67.3877 93.6924L68.3852 93.0951L67.9151 94.8179C67.8922 94.8868 67.9037 94.9672 67.938 95.0361C67.9724 95.105 68.0412 95.1509 68.11 95.1739C68.2591 95.2199 68.4196 95.1165 68.4655 94.9672L69.0846 92.6702L70.0706 92.073L69.6005 93.7957C69.5547 93.945 69.6464 94.1058 69.8069 94.1518C69.956 94.1977 70.1165 94.0943 70.1623 93.945L70.7815 91.6481L72.6733 90.5111V92.8195L71.0337 94.5193C70.9764 94.5767 70.9535 94.6456 70.9535 94.726C70.9535 94.8064 70.9879 94.8753 71.0452 94.9327C71.1598 95.0476 71.3433 95.0361 71.4465 94.9212L72.6733 93.6464V94.8064L71.0337 96.5061C70.9764 96.5636 70.9535 96.6325 70.9535 96.7129C70.9535 96.7933 70.9879 96.8622 71.0452 96.9196C71.1025 96.977 71.1713 97 71.2401 97C71.3203 97 71.3891 96.9655 71.4465 96.9081L72.6733 95.6333V96.7014C72.6733 96.8622 72.7994 96.9885 72.9599 96.9885C73.1204 96.9885 73.2465 96.8622 73.2465 96.7014V95.6103L74.4848 96.9081C74.5995 97.023 74.7714 97.023 74.8861 96.9196C75.0007 96.8047 75.0007 96.6325 74.8976 96.5176L73.2465 94.7949V93.6464L74.4848 94.9442C74.588 95.0591 74.7829 95.0591 74.8861 94.9557C75.0007 94.8409 75.0007 94.6686 74.8976 94.5537L73.2465 92.8195V90.4537L75.3332 91.5332L76.0899 93.7728C76.1243 93.8876 76.239 93.968 76.3651 93.968C76.3995 93.968 76.4225 93.968 76.4569 93.9565C76.5256 93.9335 76.583 93.8761 76.6174 93.8072C76.6518 93.7383 76.6518 93.6579 76.6288 93.589L76.067 91.9122L77.0875 92.4405L77.8442 94.6801C77.89 94.8294 78.062 94.9098 78.2111 94.8638C78.2798 94.8409 78.3372 94.7834 78.3716 94.7145C78.406 94.6456 78.406 94.5652 78.383 94.4963L77.8212 92.8195L78.7614 93.3134C78.8073 93.3363 78.8531 93.3478 78.8875 93.3478C78.9907 93.3478 79.0939 93.2904 79.1397 93.187C79.1741 93.1181 79.1856 93.0377 79.1627 92.9688C79.1398 92.8999 79.0939 92.831 79.0251 92.7966L78.062 92.3027L79.7818 91.7859C79.9423 91.7285 80.0341 91.5677 79.9882 91.4069Z" fill="#FFF4B8"/>
<path d="M97.9882 91.4069C97.9653 91.338 97.9194 91.2691 97.8506 91.2346C97.7818 91.2002 97.7016 91.1887 97.6328 91.2116L95.3397 91.8893L94.3193 91.3609L96.0391 90.8441C96.1881 90.7982 96.2799 90.6374 96.234 90.4881C96.2111 90.4192 96.1652 90.3503 96.0964 90.3158C96.0276 90.2814 95.9473 90.2699 95.8785 90.2929L93.5855 90.9705L91.602 89.9483L93.5511 88.7769L95.8556 89.3167C96.0047 89.3511 96.1652 89.2592 96.1996 89.0984C96.2225 89.018 96.1996 88.9491 96.1652 88.8802C96.1193 88.8113 96.062 88.7654 95.9818 88.7539L94.2619 88.3519L95.248 87.7547L97.5525 88.2945C97.7016 88.329 97.8621 88.2371 97.8965 88.0763C97.9194 87.9959 97.8965 87.927 97.8621 87.8581C97.8162 87.7892 97.7589 87.7432 97.6786 87.7317L95.9588 87.3298L96.876 86.7785C96.9448 86.744 96.9907 86.6751 97.0022 86.6062C97.0251 86.5373 97.0136 86.4569 96.9678 86.388C96.9334 86.3191 96.8646 86.2732 96.7958 86.2617C96.7155 86.2387 96.6467 86.2502 96.5779 86.2961L95.6492 86.8589L96.1193 85.1247C96.1652 84.9754 96.0735 84.8146 95.913 84.7687C95.7639 84.7227 95.6034 84.8146 95.5575 84.9754L94.9269 87.2838L93.9409 87.881L94.411 86.1468C94.4568 85.9975 94.3651 85.8368 94.2046 85.7908C94.0556 85.7449 93.895 85.8368 93.8492 85.9975L93.2186 88.306L91.2465 89.4889V87.2494L92.8976 85.5382C93.0122 85.4233 93.0007 85.2395 92.8861 85.1362C92.7714 85.0213 92.588 85.0328 92.4848 85.1477L91.2465 86.434V85.274L92.8976 83.5628C93.0122 83.4479 93.0007 83.2642 92.8861 83.1608C92.7714 83.0459 92.588 83.0574 92.4848 83.1723L91.2465 84.4586V83.2871C91.2465 83.1263 91.1204 83 90.9599 83C90.7994 83 90.6733 83.1263 90.6733 83.2871V84.4586L89.4465 83.1723C89.3318 83.0574 89.1598 83.0574 89.0452 83.1608C88.9305 83.2756 88.9305 83.4479 89.0337 83.5628L90.6733 85.274V86.4225L89.4465 85.1362C89.3318 85.0213 89.1598 85.0213 89.0452 85.1247C88.9879 85.1821 88.9535 85.251 88.9535 85.3314C88.9535 85.4118 88.9764 85.4807 89.0337 85.5382L90.6733 87.2494V89.466L88.6668 88.4323L87.9101 86.1698C87.8872 86.1009 87.8299 86.0435 87.7611 86.009C87.6923 85.9746 87.612 85.9746 87.5432 85.9975C87.3942 86.0435 87.3139 86.2158 87.3598 86.3651L87.933 88.0648L86.9126 87.5365L86.1559 85.274C86.133 85.2051 86.0756 85.1477 86.0068 85.1132C85.938 85.0787 85.8578 85.0788 85.789 85.1017C85.7202 85.1247 85.6629 85.1821 85.6285 85.251C85.5941 85.3199 85.5941 85.4003 85.617 85.4692L86.1903 87.169L85.1584 86.6292C85.0896 86.5948 85.0094 86.5833 84.9406 86.6062C84.8718 86.6292 84.803 86.6751 84.7686 86.744C84.7342 86.813 84.7227 86.8934 84.7457 86.9623C84.7686 87.0312 84.8144 87.1001 84.8832 87.1345L85.9151 87.6743L84.2068 88.1796C84.0577 88.2256 83.966 88.3864 84.0119 88.5357C84.0577 88.685 84.2182 88.7769 84.3673 88.7309L86.6489 88.0533L87.6693 88.5816L85.961 89.087C85.8119 89.1329 85.7202 89.2937 85.7661 89.443C85.8119 89.5923 85.9724 89.6842 86.1215 89.6382L88.4031 88.9606L90.4096 89.9943L88.4834 91.1542L86.1674 90.6144C86.0183 90.58 85.8578 90.6719 85.8234 90.8327C85.789 90.982 85.8807 91.1427 86.0412 91.1772L87.784 91.5792L86.798 92.1764L84.482 91.6366C84.4017 91.6136 84.3329 91.6366 84.2641 91.671C84.1953 91.717 84.1495 91.7744 84.138 91.8548C84.1036 92.0041 84.1953 92.1649 84.3558 92.1993L86.0986 92.6013L85.1011 93.1985C84.9635 93.2789 84.9176 93.4627 84.9979 93.589C85.0782 93.7153 85.2616 93.7613 85.3877 93.6924L86.3852 93.0951L85.9151 94.8179C85.8922 94.8868 85.9037 94.9672 85.938 95.0361C85.9724 95.105 86.0412 95.1509 86.11 95.1739C86.2591 95.2199 86.4196 95.1165 86.4655 94.9672L87.0846 92.6702L88.0706 92.073L87.6005 93.7957C87.5547 93.945 87.6464 94.1058 87.8069 94.1518C87.956 94.1977 88.1165 94.0943 88.1623 93.945L88.7815 91.6481L90.6733 90.5111V92.8195L89.0337 94.5193C88.9764 94.5767 88.9535 94.6456 88.9535 94.726C88.9535 94.8064 88.9879 94.8753 89.0452 94.9327C89.1598 95.0476 89.3433 95.0361 89.4465 94.9212L90.6733 93.6464V94.8064L89.0337 96.5061C88.9764 96.5636 88.9535 96.6325 88.9535 96.7129C88.9535 96.7933 88.9879 96.8622 89.0452 96.9196C89.1025 96.977 89.1713 97 89.2401 97C89.3203 97 89.3891 96.9655 89.4465 96.9081L90.6733 95.6333V96.7014C90.6733 96.8622 90.7994 96.9885 90.9599 96.9885C91.1204 96.9885 91.2465 96.8622 91.2465 96.7014V95.6103L92.4848 96.9081C92.5995 97.023 92.7714 97.023 92.8861 96.9196C93.0007 96.8047 93.0007 96.6325 92.8976 96.5176L91.2465 94.7949V93.6464L92.4848 94.9442C92.588 95.0591 92.7829 95.0591 92.8861 94.9557C93.0007 94.8409 93.0007 94.6686 92.8976 94.5537L91.2465 92.8195V90.4537L93.3332 91.5332L94.0899 93.7728C94.1243 93.8876 94.239 93.968 94.3651 93.968C94.3995 93.968 94.4225 93.968 94.4569 93.9565C94.5256 93.9335 94.583 93.8761 94.6174 93.8072C94.6518 93.7383 94.6518 93.6579 94.6288 93.589L94.067 91.9122L95.0875 92.4405L95.8442 94.6801C95.89 94.8294 96.062 94.9098 96.2111 94.8638C96.2798 94.8409 96.3372 94.7834 96.3716 94.7145C96.406 94.6456 96.406 94.5652 96.383 94.4963L95.8212 92.8195L96.7614 93.3134C96.8073 93.3363 96.8531 93.3478 96.8875 93.3478C96.9907 93.3478 97.0939 93.2904 97.1397 93.187C97.1741 93.1181 97.1856 93.0377 97.1627 92.9688C97.1398 92.8999 97.0939 92.831 97.0251 92.7966L96.062 92.3027L97.7818 91.7859C97.9423 91.7285 98.0341 91.5677 97.9882 91.4069Z" fill="#FFF4B8"/>
<path d="M115.988 98.4069C115.965 98.338 115.919 98.2691 115.851 98.2346C115.782 98.2002 115.702 98.1887 115.633 98.2116L113.34 98.8893L112.319 98.3609L114.039 97.8441C114.188 97.7982 114.28 97.6374 114.234 97.4881C114.211 97.4192 114.165 97.3503 114.096 97.3158C114.028 97.2814 113.947 97.2699 113.879 97.2929L111.585 97.9705L109.602 96.9483L111.551 95.7769L113.856 96.3167C114.005 96.3511 114.165 96.2592 114.2 96.0984C114.223 96.018 114.2 95.9491 114.165 95.8802C114.119 95.8113 114.062 95.7654 113.982 95.7539L112.262 95.3519L113.248 94.7547L115.553 95.2945C115.702 95.329 115.862 95.2371 115.896 95.0763C115.919 94.9959 115.896 94.927 115.862 94.8581C115.816 94.7892 115.759 94.7432 115.679 94.7317L113.959 94.3298L114.876 93.7785C114.945 93.744 114.991 93.6751 115.002 93.6062C115.025 93.5373 115.014 93.4569 114.968 93.388C114.933 93.3191 114.865 93.2732 114.796 93.2617C114.716 93.2387 114.647 93.2502 114.578 93.2961L113.649 93.8589L114.119 92.1247C114.165 91.9754 114.073 91.8146 113.913 91.7687C113.764 91.7227 113.603 91.8146 113.558 91.9754L112.927 94.2838L111.941 94.881L112.411 93.1468C112.457 92.9975 112.365 92.8368 112.205 92.7908C112.056 92.7449 111.895 92.8368 111.849 92.9975L111.219 95.306L109.247 96.4889V94.2494L110.898 92.5382C111.012 92.4233 111.001 92.2395 110.886 92.1362C110.771 92.0213 110.588 92.0328 110.485 92.1477L109.247 93.434V92.274L110.898 90.5628C111.012 90.4479 111.001 90.2642 110.886 90.1608C110.771 90.0459 110.588 90.0574 110.485 90.1723L109.247 91.4586V90.2871C109.247 90.1263 109.12 90 108.96 90C108.799 90 108.673 90.1263 108.673 90.2871V91.4586L107.446 90.1723C107.332 90.0574 107.16 90.0574 107.045 90.1608C106.931 90.2756 106.931 90.4479 107.034 90.5628L108.673 92.274V93.4225L107.446 92.1362C107.332 92.0213 107.16 92.0213 107.045 92.1247C106.988 92.1821 106.953 92.251 106.953 92.3314C106.953 92.4118 106.976 92.4807 107.034 92.5382L108.673 94.2494V96.466L106.667 95.4323L105.91 93.1698C105.887 93.1009 105.83 93.0435 105.761 93.009C105.692 92.9746 105.612 92.9746 105.543 92.9975C105.394 93.0435 105.314 93.2158 105.36 93.3651L105.933 95.0648L104.913 94.5365L104.156 92.274C104.133 92.2051 104.076 92.1477 104.007 92.1132C103.938 92.0787 103.858 92.0788 103.789 92.1017C103.72 92.1247 103.663 92.1821 103.628 92.251C103.594 92.3199 103.594 92.4003 103.617 92.4692L104.19 94.169L103.158 93.6292C103.09 93.5948 103.009 93.5833 102.941 93.6062C102.872 93.6292 102.803 93.6751 102.769 93.744C102.734 93.813 102.723 93.8934 102.746 93.9623C102.769 94.0312 102.814 94.1001 102.883 94.1345L103.915 94.6743L102.207 95.1796C102.058 95.2256 101.966 95.3864 102.012 95.5357C102.058 95.685 102.218 95.7769 102.367 95.7309L104.649 95.0533L105.669 95.5816L103.961 96.087C103.812 96.1329 103.72 96.2937 103.766 96.443C103.812 96.5923 103.972 96.6842 104.121 96.6382L106.403 95.9606L108.41 96.9943L106.483 98.1542L104.167 97.6144C104.018 97.58 103.858 97.6719 103.823 97.8327C103.789 97.982 103.881 98.1427 104.041 98.1772L105.784 98.5792L104.798 99.1764L102.482 98.6366C102.402 98.6136 102.333 98.6366 102.264 98.671C102.195 98.717 102.149 98.7744 102.138 98.8548C102.104 99.0041 102.195 99.1649 102.356 99.1993L104.099 99.6013L103.101 100.199C102.963 100.279 102.918 100.463 102.998 100.589C103.078 100.715 103.262 100.761 103.388 100.692L104.385 100.095L103.915 101.818C103.892 101.887 103.904 101.967 103.938 102.036C103.972 102.105 104.041 102.151 104.11 102.174C104.259 102.22 104.42 102.116 104.465 101.967L105.085 99.6702L106.071 99.073L105.601 100.796C105.555 100.945 105.646 101.106 105.807 101.152C105.956 101.198 106.116 101.094 106.162 100.945L106.781 98.6481L108.673 97.5111V99.8195L107.034 101.519C106.976 101.577 106.953 101.646 106.953 101.726C106.953 101.806 106.988 101.875 107.045 101.933C107.16 102.048 107.343 102.036 107.446 101.921L108.673 100.646V101.806L107.034 103.506C106.976 103.564 106.953 103.632 106.953 103.713C106.953 103.793 106.988 103.862 107.045 103.92C107.103 103.977 107.171 104 107.24 104C107.32 104 107.389 103.966 107.446 103.908L108.673 102.633V103.701C108.673 103.862 108.799 103.989 108.96 103.989C109.12 103.989 109.247 103.862 109.247 103.701V102.61L110.485 103.908C110.599 104.023 110.771 104.023 110.886 103.92C111.001 103.805 111.001 103.632 110.898 103.518L109.247 101.795V100.646L110.485 101.944C110.588 102.059 110.783 102.059 110.886 101.956C111.001 101.841 111.001 101.669 110.898 101.554L109.247 99.8195V97.4537L111.333 98.5332L112.09 100.773C112.124 100.888 112.239 100.968 112.365 100.968C112.4 100.968 112.422 100.968 112.457 100.957C112.526 100.934 112.583 100.876 112.617 100.807C112.652 100.738 112.652 100.658 112.629 100.589L112.067 98.9122L113.087 99.4405L113.844 101.68C113.89 101.829 114.062 101.91 114.211 101.864C114.28 101.841 114.337 101.783 114.372 101.715C114.406 101.646 114.406 101.565 114.383 101.496L113.821 99.8195L114.761 100.313C114.807 100.336 114.853 100.348 114.888 100.348C114.991 100.348 115.094 100.29 115.14 100.187C115.174 100.118 115.186 100.038 115.163 99.9688C115.14 99.8999 115.094 99.831 115.025 99.7966L114.062 99.3027L115.782 98.7859C115.942 98.7285 116.034 98.5677 115.988 98.4069Z" fill="#FFF4B8"/>
<path d="M133.988 105.407C133.965 105.338 133.919 105.269 133.851 105.235C133.782 105.2 133.702 105.189 133.633 105.212L131.34 105.889L130.319 105.361L132.039 104.844C132.188 104.798 132.28 104.637 132.234 104.488C132.211 104.419 132.165 104.35 132.096 104.316C132.028 104.281 131.947 104.27 131.879 104.293L129.585 104.97L127.602 103.948L129.551 102.777L131.856 103.317C132.005 103.351 132.165 103.259 132.2 103.098C132.223 103.018 132.2 102.949 132.165 102.88C132.119 102.811 132.062 102.765 131.982 102.754L130.262 102.352L131.248 101.755L133.553 102.295C133.702 102.329 133.862 102.237 133.896 102.076C133.919 101.996 133.896 101.927 133.862 101.858C133.816 101.789 133.759 101.743 133.679 101.732L131.959 101.33L132.876 100.778C132.945 100.744 132.991 100.675 133.002 100.606C133.025 100.537 133.014 100.457 132.968 100.388C132.933 100.319 132.865 100.273 132.796 100.262C132.716 100.239 132.647 100.25 132.578 100.296L131.649 100.859L132.119 99.1247C132.165 98.9754 132.073 98.8146 131.913 98.7687C131.764 98.7227 131.603 98.8146 131.558 98.9754L130.927 101.284L129.941 101.881L130.411 100.147C130.457 99.9975 130.365 99.8368 130.205 99.7908C130.056 99.7449 129.895 99.8368 129.849 99.9975L129.219 102.306L127.247 103.489V101.249L128.898 99.5382C129.012 99.4233 129.001 99.2395 128.886 99.1362C128.771 99.0213 128.588 99.0328 128.485 99.1477L127.247 100.434V99.274L128.898 97.5628C129.012 97.4479 129.001 97.2642 128.886 97.1608C128.771 97.0459 128.588 97.0574 128.485 97.1723L127.247 98.4586V97.2871C127.247 97.1263 127.12 97 126.96 97C126.799 97 126.673 97.1263 126.673 97.2871V98.4586L125.446 97.1723C125.332 97.0574 125.16 97.0574 125.045 97.1608C124.931 97.2756 124.931 97.4479 125.034 97.5628L126.673 99.274V100.422L125.446 99.1362C125.332 99.0213 125.16 99.0213 125.045 99.1247C124.988 99.1821 124.953 99.251 124.953 99.3314C124.953 99.4118 124.976 99.4807 125.034 99.5382L126.673 101.249V103.466L124.667 102.432L123.91 100.17C123.887 100.101 123.83 100.043 123.761 100.009C123.692 99.9746 123.612 99.9746 123.543 99.9975C123.394 100.043 123.314 100.216 123.36 100.365L123.933 102.065L122.913 101.537L122.156 99.274C122.133 99.2051 122.076 99.1477 122.007 99.1132C121.938 99.0787 121.858 99.0788 121.789 99.1017C121.72 99.1247 121.663 99.1821 121.628 99.251C121.594 99.3199 121.594 99.4003 121.617 99.4692L122.19 101.169L121.158 100.629C121.09 100.595 121.009 100.583 120.941 100.606C120.872 100.629 120.803 100.675 120.769 100.744C120.734 100.813 120.723 100.893 120.746 100.962C120.769 101.031 120.814 101.1 120.883 101.135L121.915 101.674L120.207 102.18C120.058 102.226 119.966 102.386 120.012 102.536C120.058 102.685 120.218 102.777 120.367 102.731L122.649 102.053L123.669 102.582L121.961 103.087C121.812 103.133 121.72 103.294 121.766 103.443C121.812 103.592 121.972 103.684 122.121 103.638L124.403 102.961L126.41 103.994L124.483 105.154L122.167 104.614C122.018 104.58 121.858 104.672 121.823 104.833C121.789 104.982 121.881 105.143 122.041 105.177L123.784 105.579L122.798 106.176L120.482 105.637C120.402 105.614 120.333 105.637 120.264 105.671C120.195 105.717 120.149 105.774 120.138 105.855C120.104 106.004 120.195 106.165 120.356 106.199L122.099 106.601L121.101 107.199C120.963 107.279 120.918 107.463 120.998 107.589C121.078 107.715 121.262 107.761 121.388 107.692L122.385 107.095L121.915 108.818C121.892 108.887 121.904 108.967 121.938 109.036C121.972 109.105 122.041 109.151 122.11 109.174C122.259 109.22 122.42 109.116 122.465 108.967L123.085 106.67L124.071 106.073L123.601 107.796C123.555 107.945 123.646 108.106 123.807 108.152C123.956 108.198 124.116 108.094 124.162 107.945L124.781 105.648L126.673 104.511V106.82L125.034 108.519C124.976 108.577 124.953 108.646 124.953 108.726C124.953 108.806 124.988 108.875 125.045 108.933C125.16 109.048 125.343 109.036 125.446 108.921L126.673 107.646V108.806L125.034 110.506C124.976 110.564 124.953 110.632 124.953 110.713C124.953 110.793 124.988 110.862 125.045 110.92C125.103 110.977 125.171 111 125.24 111C125.32 111 125.389 110.966 125.446 110.908L126.673 109.633V110.701C126.673 110.862 126.799 110.989 126.96 110.989C127.12 110.989 127.247 110.862 127.247 110.701V109.61L128.485 110.908C128.599 111.023 128.771 111.023 128.886 110.92C129.001 110.805 129.001 110.632 128.898 110.518L127.247 108.795V107.646L128.485 108.944C128.588 109.059 128.783 109.059 128.886 108.956C129.001 108.841 129.001 108.669 128.898 108.554L127.247 106.82V104.454L129.333 105.533L130.09 107.773C130.124 107.888 130.239 107.968 130.365 107.968C130.4 107.968 130.422 107.968 130.457 107.957C130.526 107.934 130.583 107.876 130.617 107.807C130.652 107.738 130.652 107.658 130.629 107.589L130.067 105.912L131.087 106.441L131.844 108.68C131.89 108.829 132.062 108.91 132.211 108.864C132.28 108.841 132.337 108.783 132.372 108.715C132.406 108.646 132.406 108.565 132.383 108.496L131.821 106.82L132.761 107.313C132.807 107.336 132.853 107.348 132.888 107.348C132.991 107.348 133.094 107.29 133.14 107.187C133.174 107.118 133.186 107.038 133.163 106.969C133.14 106.9 133.094 106.831 133.025 106.797L132.062 106.303L133.782 105.786C133.942 105.728 134.034 105.568 133.988 105.407Z" fill="#FFF4B8"/>
<path d="M151.988 108.407C151.965 108.338 151.919 108.269 151.851 108.235C151.782 108.2 151.702 108.189 151.633 108.212L149.34 108.889L148.319 108.361L150.039 107.844C150.188 107.798 150.28 107.637 150.234 107.488C150.211 107.419 150.165 107.35 150.096 107.316C150.028 107.281 149.947 107.27 149.879 107.293L147.585 107.97L145.602 106.948L147.551 105.777L149.856 106.317C150.005 106.351 150.165 106.259 150.2 106.098C150.223 106.018 150.2 105.949 150.165 105.88C150.119 105.811 150.062 105.765 149.982 105.754L148.262 105.352L149.248 104.755L151.553 105.295C151.702 105.329 151.862 105.237 151.896 105.076C151.919 104.996 151.896 104.927 151.862 104.858C151.816 104.789 151.759 104.743 151.679 104.732L149.959 104.33L150.876 103.778C150.945 103.744 150.991 103.675 151.002 103.606C151.025 103.537 151.014 103.457 150.968 103.388C150.933 103.319 150.865 103.273 150.796 103.262C150.716 103.239 150.647 103.25 150.578 103.296L149.649 103.859L150.119 102.125C150.165 101.975 150.073 101.815 149.913 101.769C149.764 101.723 149.603 101.815 149.558 101.975L148.927 104.284L147.941 104.881L148.411 103.147C148.457 102.998 148.365 102.837 148.205 102.791C148.056 102.745 147.895 102.837 147.849 102.998L147.219 105.306L145.247 106.489V104.249L146.898 102.538C147.012 102.423 147.001 102.24 146.886 102.136C146.771 102.021 146.588 102.033 146.485 102.148L145.247 103.434V102.274L146.898 100.563C147.012 100.448 147.001 100.264 146.886 100.161C146.771 100.046 146.588 100.057 146.485 100.172L145.247 101.459V100.287C145.247 100.126 145.12 100 144.96 100C144.799 100 144.673 100.126 144.673 100.287V101.459L143.446 100.172C143.332 100.057 143.16 100.057 143.045 100.161C142.931 100.276 142.931 100.448 143.034 100.563L144.673 102.274V103.422L143.446 102.136C143.332 102.021 143.16 102.021 143.045 102.125C142.988 102.182 142.953 102.251 142.953 102.331C142.953 102.412 142.976 102.481 143.034 102.538L144.673 104.249V106.466L142.667 105.432L141.91 103.17C141.887 103.101 141.83 103.043 141.761 103.009C141.692 102.975 141.612 102.975 141.543 102.998C141.394 103.043 141.314 103.216 141.36 103.365L141.933 105.065L140.913 104.537L140.156 102.274C140.133 102.205 140.076 102.148 140.007 102.113C139.938 102.079 139.858 102.079 139.789 102.102C139.72 102.125 139.663 102.182 139.628 102.251C139.594 102.32 139.594 102.4 139.617 102.469L140.19 104.169L139.158 103.629C139.09 103.595 139.009 103.583 138.941 103.606C138.872 103.629 138.803 103.675 138.769 103.744C138.734 103.813 138.723 103.893 138.746 103.962C138.769 104.031 138.814 104.1 138.883 104.135L139.915 104.674L138.207 105.18C138.058 105.226 137.966 105.386 138.012 105.536C138.058 105.685 138.218 105.777 138.367 105.731L140.649 105.053L141.669 105.582L139.961 106.087C139.812 106.133 139.72 106.294 139.766 106.443C139.812 106.592 139.972 106.684 140.121 106.638L142.403 105.961L144.41 106.994L142.483 108.154L140.167 107.614C140.018 107.58 139.858 107.672 139.823 107.833C139.789 107.982 139.881 108.143 140.041 108.177L141.784 108.579L140.798 109.176L138.482 108.637C138.402 108.614 138.333 108.637 138.264 108.671C138.195 108.717 138.149 108.774 138.138 108.855C138.104 109.004 138.195 109.165 138.356 109.199L140.099 109.601L139.101 110.199C138.963 110.279 138.918 110.463 138.998 110.589C139.078 110.715 139.262 110.761 139.388 110.692L140.385 110.095L139.915 111.818C139.892 111.887 139.904 111.967 139.938 112.036C139.972 112.105 140.041 112.151 140.11 112.174C140.259 112.22 140.42 112.116 140.465 111.967L141.085 109.67L142.071 109.073L141.601 110.796C141.555 110.945 141.646 111.106 141.807 111.152C141.956 111.198 142.116 111.094 142.162 110.945L142.781 108.648L144.673 107.511V109.82L143.034 111.519C142.976 111.577 142.953 111.646 142.953 111.726C142.953 111.806 142.988 111.875 143.045 111.933C143.16 112.048 143.343 112.036 143.446 111.921L144.673 110.646V111.806L143.034 113.506C142.976 113.564 142.953 113.632 142.953 113.713C142.953 113.793 142.988 113.862 143.045 113.92C143.103 113.977 143.171 114 143.24 114C143.32 114 143.389 113.966 143.446 113.908L144.673 112.633V113.701C144.673 113.862 144.799 113.989 144.96 113.989C145.12 113.989 145.247 113.862 145.247 113.701V112.61L146.485 113.908C146.599 114.023 146.771 114.023 146.886 113.92C147.001 113.805 147.001 113.632 146.898 113.518L145.247 111.795V110.646L146.485 111.944C146.588 112.059 146.783 112.059 146.886 111.956C147.001 111.841 147.001 111.669 146.898 111.554L145.247 109.82V107.454L147.333 108.533L148.09 110.773C148.124 110.888 148.239 110.968 148.365 110.968C148.4 110.968 148.422 110.968 148.457 110.957C148.526 110.934 148.583 110.876 148.617 110.807C148.652 110.738 148.652 110.658 148.629 110.589L148.067 108.912L149.087 109.441L149.844 111.68C149.89 111.829 150.062 111.91 150.211 111.864C150.28 111.841 150.337 111.783 150.372 111.715C150.406 111.646 150.406 111.565 150.383 111.496L149.821 109.82L150.761 110.313C150.807 110.336 150.853 110.348 150.888 110.348C150.991 110.348 151.094 110.29 151.14 110.187C151.174 110.118 151.186 110.038 151.163 109.969C151.14 109.9 151.094 109.831 151.025 109.797L150.062 109.303L151.782 108.786C151.942 108.728 152.034 108.568 151.988 108.407Z" fill="#FFF4B8"/>
<path d="M169.988 108.407C169.965 108.338 169.919 108.269 169.851 108.235C169.782 108.2 169.702 108.189 169.633 108.212L167.34 108.889L166.319 108.361L168.039 107.844C168.188 107.798 168.28 107.637 168.234 107.488C168.211 107.419 168.165 107.35 168.096 107.316C168.028 107.281 167.947 107.27 167.879 107.293L165.585 107.97L163.602 106.948L165.551 105.777L167.856 106.317C168.005 106.351 168.165 106.259 168.2 106.098C168.223 106.018 168.2 105.949 168.165 105.88C168.119 105.811 168.062 105.765 167.982 105.754L166.262 105.352L167.248 104.755L169.553 105.295C169.702 105.329 169.862 105.237 169.896 105.076C169.919 104.996 169.896 104.927 169.862 104.858C169.816 104.789 169.759 104.743 169.679 104.732L167.959 104.33L168.876 103.778C168.945 103.744 168.991 103.675 169.002 103.606C169.025 103.537 169.014 103.457 168.968 103.388C168.933 103.319 168.865 103.273 168.796 103.262C168.716 103.239 168.647 103.25 168.578 103.296L167.649 103.859L168.119 102.125C168.165 101.975 168.073 101.815 167.913 101.769C167.764 101.723 167.603 101.815 167.558 101.975L166.927 104.284L165.941 104.881L166.411 103.147C166.457 102.998 166.365 102.837 166.205 102.791C166.056 102.745 165.895 102.837 165.849 102.998L165.219 105.306L163.247 106.489V104.249L164.898 102.538C165.012 102.423 165.001 102.24 164.886 102.136C164.771 102.021 164.588 102.033 164.485 102.148L163.247 103.434V102.274L164.898 100.563C165.012 100.448 165.001 100.264 164.886 100.161C164.771 100.046 164.588 100.057 164.485 100.172L163.247 101.459V100.287C163.247 100.126 163.12 100 162.96 100C162.799 100 162.673 100.126 162.673 100.287V101.459L161.446 100.172C161.332 100.057 161.16 100.057 161.045 100.161C160.931 100.276 160.931 100.448 161.034 100.563L162.673 102.274V103.422L161.446 102.136C161.332 102.021 161.16 102.021 161.045 102.125C160.988 102.182 160.953 102.251 160.953 102.331C160.953 102.412 160.976 102.481 161.034 102.538L162.673 104.249V106.466L160.667 105.432L159.91 103.17C159.887 103.101 159.83 103.043 159.761 103.009C159.692 102.975 159.612 102.975 159.543 102.998C159.394 103.043 159.314 103.216 159.36 103.365L159.933 105.065L158.913 104.537L158.156 102.274C158.133 102.205 158.076 102.148 158.007 102.113C157.938 102.079 157.858 102.079 157.789 102.102C157.72 102.125 157.663 102.182 157.628 102.251C157.594 102.32 157.594 102.4 157.617 102.469L158.19 104.169L157.158 103.629C157.09 103.595 157.009 103.583 156.941 103.606C156.872 103.629 156.803 103.675 156.769 103.744C156.734 103.813 156.723 103.893 156.746 103.962C156.769 104.031 156.814 104.1 156.883 104.135L157.915 104.674L156.207 105.18C156.058 105.226 155.966 105.386 156.012 105.536C156.058 105.685 156.218 105.777 156.367 105.731L158.649 105.053L159.669 105.582L157.961 106.087C157.812 106.133 157.72 106.294 157.766 106.443C157.812 106.592 157.972 106.684 158.121 106.638L160.403 105.961L162.41 106.994L160.483 108.154L158.167 107.614C158.018 107.58 157.858 107.672 157.823 107.833C157.789 107.982 157.881 108.143 158.041 108.177L159.784 108.579L158.798 109.176L156.482 108.637C156.402 108.614 156.333 108.637 156.264 108.671C156.195 108.717 156.149 108.774 156.138 108.855C156.104 109.004 156.195 109.165 156.356 109.199L158.099 109.601L157.101 110.199C156.963 110.279 156.918 110.463 156.998 110.589C157.078 110.715 157.262 110.761 157.388 110.692L158.385 110.095L157.915 111.818C157.892 111.887 157.904 111.967 157.938 112.036C157.972 112.105 158.041 112.151 158.11 112.174C158.259 112.22 158.42 112.116 158.465 111.967L159.085 109.67L160.071 109.073L159.601 110.796C159.555 110.945 159.646 111.106 159.807 111.152C159.956 111.198 160.116 111.094 160.162 110.945L160.781 108.648L162.673 107.511V109.82L161.034 111.519C160.976 111.577 160.953 111.646 160.953 111.726C160.953 111.806 160.988 111.875 161.045 111.933C161.16 112.048 161.343 112.036 161.446 111.921L162.673 110.646V111.806L161.034 113.506C160.976 113.564 160.953 113.632 160.953 113.713C160.953 113.793 160.988 113.862 161.045 113.92C161.103 113.977 161.171 114 161.24 114C161.32 114 161.389 113.966 161.446 113.908L162.673 112.633V113.701C162.673 113.862 162.799 113.989 162.96 113.989C163.12 113.989 163.247 113.862 163.247 113.701V112.61L164.485 113.908C164.599 114.023 164.771 114.023 164.886 113.92C165.001 113.805 165.001 113.632 164.898 113.518L163.247 111.795V110.646L164.485 111.944C164.588 112.059 164.783 112.059 164.886 111.956C165.001 111.841 165.001 111.669 164.898 111.554L163.247 109.82V107.454L165.333 108.533L166.09 110.773C166.124 110.888 166.239 110.968 166.365 110.968C166.4 110.968 166.422 110.968 166.457 110.957C166.526 110.934 166.583 110.876 166.617 110.807C166.652 110.738 166.652 110.658 166.629 110.589L166.067 108.912L167.087 109.441L167.844 111.68C167.89 111.829 168.062 111.91 168.211 111.864C168.28 111.841 168.337 111.783 168.372 111.715C168.406 111.646 168.406 111.565 168.383 111.496L167.821 109.82L168.761 110.313C168.807 110.336 168.853 110.348 168.888 110.348C168.991 110.348 169.094 110.29 169.14 110.187C169.174 110.118 169.186 110.038 169.163 109.969C169.14 109.9 169.094 109.831 169.025 109.797L168.062 109.303L169.782 108.786C169.942 108.728 170.034 108.568 169.988 108.407Z" fill="#FFF4B8"/>
<path d="M187.988 101.407C187.965 101.338 187.919 101.269 187.851 101.235C187.782 101.2 187.702 101.189 187.633 101.212L185.34 101.889L184.319 101.361L186.039 100.844C186.188 100.798 186.28 100.637 186.234 100.488C186.211 100.419 186.165 100.35 186.096 100.316C186.028 100.281 185.947 100.27 185.879 100.293L183.585 100.97L181.602 99.9483L183.551 98.7769L185.856 99.3167C186.005 99.3511 186.165 99.2592 186.2 99.0984C186.223 99.018 186.2 98.9491 186.165 98.8802C186.119 98.8113 186.062 98.7654 185.982 98.7539L184.262 98.3519L185.248 97.7547L187.553 98.2945C187.702 98.329 187.862 98.2371 187.896 98.0763C187.919 97.9959 187.896 97.927 187.862 97.8581C187.816 97.7892 187.759 97.7432 187.679 97.7317L185.959 97.3298L186.876 96.7785C186.945 96.744 186.991 96.6751 187.002 96.6062C187.025 96.5373 187.014 96.4569 186.968 96.388C186.933 96.3191 186.865 96.2732 186.796 96.2617C186.716 96.2387 186.647 96.2502 186.578 96.2961L185.649 96.8589L186.119 95.1247C186.165 94.9754 186.073 94.8146 185.913 94.7687C185.764 94.7227 185.603 94.8146 185.558 94.9754L184.927 97.2838L183.941 97.881L184.411 96.1468C184.457 95.9975 184.365 95.8368 184.205 95.7908C184.056 95.7449 183.895 95.8368 183.849 95.9975L183.219 98.306L181.247 99.4889V97.2494L182.898 95.5382C183.012 95.4233 183.001 95.2395 182.886 95.1362C182.771 95.0213 182.588 95.0328 182.485 95.1477L181.247 96.434V95.274L182.898 93.5628C183.012 93.4479 183.001 93.2642 182.886 93.1608C182.771 93.0459 182.588 93.0574 182.485 93.1723L181.247 94.4586V93.2871C181.247 93.1263 181.12 93 180.96 93C180.799 93 180.673 93.1263 180.673 93.2871V94.4586L179.446 93.1723C179.332 93.0574 179.16 93.0574 179.045 93.1608C178.931 93.2756 178.931 93.4479 179.034 93.5628L180.673 95.274V96.4225L179.446 95.1362C179.332 95.0213 179.16 95.0213 179.045 95.1247C178.988 95.1821 178.953 95.251 178.953 95.3314C178.953 95.4118 178.976 95.4807 179.034 95.5382L180.673 97.2494V99.466L178.667 98.4323L177.91 96.1698C177.887 96.1009 177.83 96.0435 177.761 96.009C177.692 95.9746 177.612 95.9746 177.543 95.9975C177.394 96.0435 177.314 96.2158 177.36 96.3651L177.933 98.0648L176.913 97.5365L176.156 95.274C176.133 95.2051 176.076 95.1477 176.007 95.1132C175.938 95.0787 175.858 95.0788 175.789 95.1017C175.72 95.1247 175.663 95.1821 175.628 95.251C175.594 95.3199 175.594 95.4003 175.617 95.4692L176.19 97.169L175.158 96.6292C175.09 96.5948 175.009 96.5833 174.941 96.6062C174.872 96.6292 174.803 96.6751 174.769 96.744C174.734 96.813 174.723 96.8934 174.746 96.9623C174.769 97.0312 174.814 97.1001 174.883 97.1345L175.915 97.6743L174.207 98.1796C174.058 98.2256 173.966 98.3864 174.012 98.5357C174.058 98.685 174.218 98.7769 174.367 98.7309L176.649 98.0533L177.669 98.5816L175.961 99.087C175.812 99.1329 175.72 99.2937 175.766 99.443C175.812 99.5923 175.972 99.6842 176.121 99.6382L178.403 98.9606L180.41 99.9943L178.483 101.154L176.167 100.614C176.018 100.58 175.858 100.672 175.823 100.833C175.789 100.982 175.881 101.143 176.041 101.177L177.784 101.579L176.798 102.176L174.482 101.637C174.402 101.614 174.333 101.637 174.264 101.671C174.195 101.717 174.149 101.774 174.138 101.855C174.104 102.004 174.195 102.165 174.356 102.199L176.099 102.601L175.101 103.199C174.963 103.279 174.918 103.463 174.998 103.589C175.078 103.715 175.262 103.761 175.388 103.692L176.385 103.095L175.915 104.818C175.892 104.887 175.904 104.967 175.938 105.036C175.972 105.105 176.041 105.151 176.11 105.174C176.259 105.22 176.42 105.116 176.465 104.967L177.085 102.67L178.071 102.073L177.601 103.796C177.555 103.945 177.646 104.106 177.807 104.152C177.956 104.198 178.116 104.094 178.162 103.945L178.781 101.648L180.673 100.511V102.82L179.034 104.519C178.976 104.577 178.953 104.646 178.953 104.726C178.953 104.806 178.988 104.875 179.045 104.933C179.16 105.048 179.343 105.036 179.446 104.921L180.673 103.646V104.806L179.034 106.506C178.976 106.564 178.953 106.632 178.953 106.713C178.953 106.793 178.988 106.862 179.045 106.92C179.103 106.977 179.171 107 179.24 107C179.32 107 179.389 106.966 179.446 106.908L180.673 105.633V106.701C180.673 106.862 180.799 106.989 180.96 106.989C181.12 106.989 181.247 106.862 181.247 106.701V105.61L182.485 106.908C182.599 107.023 182.771 107.023 182.886 106.92C183.001 106.805 183.001 106.632 182.898 106.518L181.247 104.795V103.646L182.485 104.944C182.588 105.059 182.783 105.059 182.886 104.956C183.001 104.841 183.001 104.669 182.898 104.554L181.247 102.82V100.454L183.333 101.533L184.09 103.773C184.124 103.888 184.239 103.968 184.365 103.968C184.4 103.968 184.422 103.968 184.457 103.957C184.526 103.934 184.583 103.876 184.617 103.807C184.652 103.738 184.652 103.658 184.629 103.589L184.067 101.912L185.087 102.441L185.844 104.68C185.89 104.829 186.062 104.91 186.211 104.864C186.28 104.841 186.337 104.783 186.372 104.715C186.406 104.646 186.406 104.565 186.383 104.496L185.821 102.82L186.761 103.313C186.807 103.336 186.853 103.348 186.888 103.348C186.991 103.348 187.094 103.29 187.14 103.187C187.174 103.118 187.186 103.038 187.163 102.969C187.14 102.9 187.094 102.831 187.025 102.797L186.062 102.303L187.782 101.786C187.942 101.728 188.034 101.568 187.988 101.407Z" fill="#FFF4B8"/>
<path d="M205.988 87.4069C205.965 87.338 205.919 87.2691 205.851 87.2346C205.782 87.2002 205.702 87.1887 205.633 87.2116L203.34 87.8893L202.319 87.3609L204.039 86.8441C204.188 86.7982 204.28 86.6374 204.234 86.4881C204.211 86.4192 204.165 86.3503 204.096 86.3158C204.028 86.2814 203.947 86.2699 203.879 86.2929L201.585 86.9705L199.602 85.9483L201.551 84.7769L203.856 85.3167C204.005 85.3511 204.165 85.2592 204.2 85.0984C204.223 85.018 204.2 84.9491 204.165 84.8802C204.119 84.8113 204.062 84.7654 203.982 84.7539L202.262 84.3519L203.248 83.7547L205.553 84.2945C205.702 84.329 205.862 84.2371 205.896 84.0763C205.919 83.9959 205.896 83.927 205.862 83.8581C205.816 83.7892 205.759 83.7432 205.679 83.7317L203.959 83.3298L204.876 82.7785C204.945 82.744 204.991 82.6751 205.002 82.6062C205.025 82.5373 205.014 82.4569 204.968 82.388C204.933 82.3191 204.865 82.2732 204.796 82.2617C204.716 82.2387 204.647 82.2502 204.578 82.2961L203.649 82.8589L204.119 81.1247C204.165 80.9754 204.073 80.8146 203.913 80.7687C203.764 80.7227 203.603 80.8146 203.558 80.9754L202.927 83.2838L201.941 83.881L202.411 82.1468C202.457 81.9975 202.365 81.8368 202.205 81.7908C202.056 81.7449 201.895 81.8368 201.849 81.9975L201.219 84.306L199.247 85.4889V83.2494L200.898 81.5382C201.012 81.4233 201.001 81.2395 200.886 81.1362C200.771 81.0213 200.588 81.0328 200.485 81.1477L199.247 82.434V81.274L200.898 79.5628C201.012 79.4479 201.001 79.2642 200.886 79.1608C200.771 79.0459 200.588 79.0574 200.485 79.1723L199.247 80.4586V79.2871C199.247 79.1263 199.12 79 198.96 79C198.799 79 198.673 79.1263 198.673 79.2871V80.4586L197.446 79.1723C197.332 79.0574 197.16 79.0574 197.045 79.1608C196.931 79.2756 196.931 79.4479 197.034 79.5628L198.673 81.274V82.4225L197.446 81.1362C197.332 81.0213 197.16 81.0213 197.045 81.1247C196.988 81.1821 196.953 81.251 196.953 81.3314C196.953 81.4118 196.976 81.4807 197.034 81.5382L198.673 83.2494V85.466L196.667 84.4323L195.91 82.1698C195.887 82.1009 195.83 82.0435 195.761 82.009C195.692 81.9746 195.612 81.9746 195.543 81.9975C195.394 82.0435 195.314 82.2158 195.36 82.3651L195.933 84.0648L194.913 83.5365L194.156 81.274C194.133 81.2051 194.076 81.1477 194.007 81.1132C193.938 81.0787 193.858 81.0788 193.789 81.1017C193.72 81.1247 193.663 81.1821 193.628 81.251C193.594 81.3199 193.594 81.4003 193.617 81.4692L194.19 83.169L193.158 82.6292C193.09 82.5948 193.009 82.5833 192.941 82.6062C192.872 82.6292 192.803 82.6751 192.769 82.744C192.734 82.813 192.723 82.8934 192.746 82.9623C192.769 83.0312 192.814 83.1001 192.883 83.1345L193.915 83.6743L192.207 84.1796C192.058 84.2256 191.966 84.3864 192.012 84.5357C192.058 84.685 192.218 84.7769 192.367 84.7309L194.649 84.0533L195.669 84.5816L193.961 85.087C193.812 85.1329 193.72 85.2937 193.766 85.443C193.812 85.5923 193.972 85.6842 194.121 85.6382L196.403 84.9606L198.41 85.9943L196.483 87.1542L194.167 86.6144C194.018 86.58 193.858 86.6719 193.823 86.8327C193.789 86.982 193.881 87.1427 194.041 87.1772L195.784 87.5792L194.798 88.1764L192.482 87.6366C192.402 87.6136 192.333 87.6366 192.264 87.671C192.195 87.717 192.149 87.7744 192.138 87.8548C192.104 88.0041 192.195 88.1649 192.356 88.1993L194.099 88.6013L193.101 89.1985C192.963 89.2789 192.918 89.4627 192.998 89.589C193.078 89.7153 193.262 89.7613 193.388 89.6924L194.385 89.0951L193.915 90.8179C193.892 90.8868 193.904 90.9672 193.938 91.0361C193.972 91.105 194.041 91.1509 194.11 91.1739C194.259 91.2199 194.42 91.1165 194.465 90.9672L195.085 88.6702L196.071 88.073L195.601 89.7957C195.555 89.945 195.646 90.1058 195.807 90.1518C195.956 90.1977 196.116 90.0943 196.162 89.945L196.781 87.6481L198.673 86.5111V88.8195L197.034 90.5193C196.976 90.5767 196.953 90.6456 196.953 90.726C196.953 90.8064 196.988 90.8753 197.045 90.9327C197.16 91.0476 197.343 91.0361 197.446 90.9212L198.673 89.6464V90.8064L197.034 92.5061C196.976 92.5636 196.953 92.6325 196.953 92.7129C196.953 92.7933 196.988 92.8622 197.045 92.9196C197.103 92.977 197.171 93 197.24 93C197.32 93 197.389 92.9655 197.446 92.9081L198.673 91.6333V92.7014C198.673 92.8622 198.799 92.9885 198.96 92.9885C199.12 92.9885 199.247 92.8622 199.247 92.7014V91.6103L200.485 92.9081C200.599 93.023 200.771 93.023 200.886 92.9196C201.001 92.8047 201.001 92.6325 200.898 92.5176L199.247 90.7949V89.6464L200.485 90.9442C200.588 91.0591 200.783 91.0591 200.886 90.9557C201.001 90.8409 201.001 90.6686 200.898 90.5537L199.247 88.8195V86.4537L201.333 87.5332L202.09 89.7728C202.124 89.8876 202.239 89.968 202.365 89.968C202.4 89.968 202.422 89.968 202.457 89.9565C202.526 89.9335 202.583 89.8761 202.617 89.8072C202.652 89.7383 202.652 89.6579 202.629 89.589L202.067 87.9122L203.087 88.4405L203.844 90.6801C203.89 90.8294 204.062 90.9098 204.211 90.8638C204.28 90.8409 204.337 90.7834 204.372 90.7145C204.406 90.6456 204.406 90.5652 204.383 90.4963L203.821 88.8195L204.761 89.3134C204.807 89.3363 204.853 89.3478 204.888 89.3478C204.991 89.3478 205.094 89.2904 205.14 89.187C205.174 89.1181 205.186 89.0377 205.163 88.9688C205.14 88.8999 205.094 88.831 205.025 88.7966L204.062 88.3027L205.782 87.7859C205.942 87.7285 206.034 87.5677 205.988 87.4069Z" fill="#FFF4B8"/>
<path d="M223.988 73.4069C223.965 73.338 223.919 73.2691 223.851 73.2346C223.782 73.2002 223.702 73.1887 223.633 73.2116L221.34 73.8893L220.319 73.3609L222.039 72.8441C222.188 72.7982 222.28 72.6374 222.234 72.4881C222.211 72.4192 222.165 72.3503 222.096 72.3158C222.028 72.2814 221.947 72.2699 221.879 72.2929L219.585 72.9705L217.602 71.9483L219.551 70.7769L221.856 71.3167C222.005 71.3511 222.165 71.2592 222.2 71.0984C222.223 71.018 222.2 70.9491 222.165 70.8802C222.119 70.8113 222.062 70.7654 221.982 70.7539L220.262 70.3519L221.248 69.7547L223.553 70.2945C223.702 70.329 223.862 70.2371 223.896 70.0763C223.919 69.9959 223.896 69.927 223.862 69.8581C223.816 69.7892 223.759 69.7432 223.679 69.7317L221.959 69.3298L222.876 68.7785C222.945 68.744 222.991 68.6751 223.002 68.6062C223.025 68.5373 223.014 68.4569 222.968 68.388C222.933 68.3191 222.865 68.2732 222.796 68.2617C222.716 68.2387 222.647 68.2502 222.578 68.2961L221.649 68.8589L222.119 67.1247C222.165 66.9754 222.073 66.8146 221.913 66.7687C221.764 66.7227 221.603 66.8146 221.558 66.9754L220.927 69.2838L219.941 69.881L220.411 68.1468C220.457 67.9975 220.365 67.8368 220.205 67.7908C220.056 67.7449 219.895 67.8368 219.849 67.9975L219.219 70.306L217.247 71.4889V69.2494L218.898 67.5382C219.012 67.4233 219.001 67.2395 218.886 67.1362C218.771 67.0213 218.588 67.0328 218.485 67.1477L217.247 68.434V67.274L218.898 65.5628C219.012 65.4479 219.001 65.2642 218.886 65.1608C218.771 65.0459 218.588 65.0574 218.485 65.1723L217.247 66.4586V65.2871C217.247 65.1263 217.12 65 216.96 65C216.799 65 216.673 65.1263 216.673 65.2871V66.4586L215.446 65.1723C215.332 65.0574 215.16 65.0574 215.045 65.1608C214.931 65.2756 214.931 65.4479 215.034 65.5628L216.673 67.274V68.4225L215.446 67.1362C215.332 67.0213 215.16 67.0213 215.045 67.1247C214.988 67.1821 214.953 67.251 214.953 67.3314C214.953 67.4118 214.976 67.4807 215.034 67.5382L216.673 69.2494V71.466L214.667 70.4323L213.91 68.1698C213.887 68.1009 213.83 68.0435 213.761 68.009C213.692 67.9746 213.612 67.9746 213.543 67.9975C213.394 68.0435 213.314 68.2158 213.36 68.3651L213.933 70.0648L212.913 69.5365L212.156 67.274C212.133 67.2051 212.076 67.1477 212.007 67.1132C211.938 67.0787 211.858 67.0788 211.789 67.1017C211.72 67.1247 211.663 67.1821 211.628 67.251C211.594 67.3199 211.594 67.4003 211.617 67.4692L212.19 69.169L211.158 68.6292C211.09 68.5948 211.009 68.5833 210.941 68.6062C210.872 68.6292 210.803 68.6751 210.769 68.744C210.734 68.813 210.723 68.8934 210.746 68.9623C210.769 69.0312 210.814 69.1001 210.883 69.1345L211.915 69.6743L210.207 70.1796C210.058 70.2256 209.966 70.3864 210.012 70.5357C210.058 70.685 210.218 70.7769 210.367 70.7309L212.649 70.0533L213.669 70.5816L211.961 71.087C211.812 71.1329 211.72 71.2937 211.766 71.443C211.812 71.5923 211.972 71.6842 212.121 71.6382L214.403 70.9606L216.41 71.9943L214.483 73.1542L212.167 72.6144C212.018 72.58 211.858 72.6719 211.823 72.8327C211.789 72.982 211.881 73.1427 212.041 73.1772L213.784 73.5792L212.798 74.1764L210.482 73.6366C210.402 73.6136 210.333 73.6366 210.264 73.671C210.195 73.717 210.149 73.7744 210.138 73.8548C210.104 74.0041 210.195 74.1649 210.356 74.1993L212.099 74.6013L211.101 75.1985C210.963 75.2789 210.918 75.4627 210.998 75.589C211.078 75.7153 211.262 75.7613 211.388 75.6924L212.385 75.0951L211.915 76.8179C211.892 76.8868 211.904 76.9672 211.938 77.0361C211.972 77.105 212.041 77.1509 212.11 77.1739C212.259 77.2199 212.42 77.1165 212.465 76.9672L213.085 74.6702L214.071 74.073L213.601 75.7957C213.555 75.945 213.646 76.1058 213.807 76.1518C213.956 76.1977 214.116 76.0943 214.162 75.945L214.781 73.6481L216.673 72.5111V74.8195L215.034 76.5193C214.976 76.5767 214.953 76.6456 214.953 76.726C214.953 76.8064 214.988 76.8753 215.045 76.9327C215.16 77.0476 215.343 77.0361 215.446 76.9212L216.673 75.6464V76.8064L215.034 78.5061C214.976 78.5636 214.953 78.6325 214.953 78.7129C214.953 78.7933 214.988 78.8622 215.045 78.9196C215.103 78.977 215.171 79 215.24 79C215.32 79 215.389 78.9655 215.446 78.9081L216.673 77.6333V78.7014C216.673 78.8622 216.799 78.9885 216.96 78.9885C217.12 78.9885 217.247 78.8622 217.247 78.7014V77.6103L218.485 78.9081C218.599 79.023 218.771 79.023 218.886 78.9196C219.001 78.8047 219.001 78.6325 218.898 78.5176L217.247 76.7949V75.6464L218.485 76.9442C218.588 77.0591 218.783 77.0591 218.886 76.9557C219.001 76.8409 219.001 76.6686 218.898 76.5537L217.247 74.8195V72.4537L219.333 73.5332L220.09 75.7728C220.124 75.8876 220.239 75.968 220.365 75.968C220.4 75.968 220.422 75.968 220.457 75.9565C220.526 75.9335 220.583 75.8761 220.617 75.8072C220.652 75.7383 220.652 75.6579 220.629 75.589L220.067 73.9122L221.087 74.4405L221.844 76.6801C221.89 76.8294 222.062 76.9098 222.211 76.8638C222.28 76.8409 222.337 76.7834 222.372 76.7145C222.406 76.6456 222.406 76.5652 222.383 76.4963L221.821 74.8195L222.761 75.3134C222.807 75.3363 222.853 75.3478 222.888 75.3478C222.991 75.3478 223.094 75.2904 223.14 75.187C223.174 75.1181 223.186 75.0377 223.163 74.9688C223.14 74.8999 223.094 74.831 223.025 74.7966L222.062 74.3027L223.782 73.7859C223.942 73.7285 224.034 73.5677 223.988 73.4069Z" fill="#FFF4B8"/>
<path d="M241.988 59.4069C241.965 59.338 241.919 59.2691 241.851 59.2346C241.782 59.2002 241.702 59.1887 241.633 59.2116L239.34 59.8893L238.319 59.3609L240.039 58.8441C240.188 58.7982 240.28 58.6374 240.234 58.4881C240.211 58.4192 240.165 58.3503 240.096 58.3158C240.028 58.2814 239.947 58.2699 239.879 58.2929L237.585 58.9705L235.602 57.9483L237.551 56.7769L239.856 57.3167C240.005 57.3511 240.165 57.2592 240.2 57.0984C240.223 57.018 240.2 56.9491 240.165 56.8802C240.119 56.8113 240.062 56.7654 239.982 56.7539L238.262 56.3519L239.248 55.7547L241.553 56.2945C241.702 56.329 241.862 56.2371 241.896 56.0763C241.919 55.9959 241.896 55.927 241.862 55.8581C241.816 55.7892 241.759 55.7432 241.679 55.7317L239.959 55.3298L240.876 54.7785C240.945 54.744 240.991 54.6751 241.002 54.6062C241.025 54.5373 241.014 54.4569 240.968 54.388C240.933 54.3191 240.865 54.2732 240.796 54.2617C240.716 54.2387 240.647 54.2502 240.578 54.2961L239.649 54.8589L240.119 53.1247C240.165 52.9754 240.073 52.8146 239.913 52.7687C239.764 52.7227 239.603 52.8146 239.558 52.9754L238.927 55.2838L237.941 55.881L238.411 54.1468C238.457 53.9975 238.365 53.8368 238.205 53.7908C238.056 53.7449 237.895 53.8368 237.849 53.9975L237.219 56.306L235.247 57.4889V55.2494L236.898 53.5382C237.012 53.4233 237.001 53.2395 236.886 53.1362C236.771 53.0213 236.588 53.0328 236.485 53.1477L235.247 54.434V53.274L236.898 51.5628C237.012 51.4479 237.001 51.2642 236.886 51.1608C236.771 51.0459 236.588 51.0574 236.485 51.1723L235.247 52.4586V51.2871C235.247 51.1263 235.12 51 234.96 51C234.799 51 234.673 51.1263 234.673 51.2871V52.4586L233.446 51.1723C233.332 51.0574 233.16 51.0574 233.045 51.1608C232.931 51.2756 232.931 51.4479 233.034 51.5628L234.673 53.274V54.4225L233.446 53.1362C233.332 53.0213 233.16 53.0213 233.045 53.1247C232.988 53.1821 232.953 53.251 232.953 53.3314C232.953 53.4118 232.976 53.4807 233.034 53.5382L234.673 55.2494V57.466L232.667 56.4323L231.91 54.1698C231.887 54.1009 231.83 54.0435 231.761 54.009C231.692 53.9746 231.612 53.9746 231.543 53.9975C231.394 54.0435 231.314 54.2158 231.36 54.3651L231.933 56.0648L230.913 55.5365L230.156 53.274C230.133 53.2051 230.076 53.1477 230.007 53.1132C229.938 53.0787 229.858 53.0788 229.789 53.1017C229.72 53.1247 229.663 53.1821 229.628 53.251C229.594 53.3199 229.594 53.4003 229.617 53.4692L230.19 55.169L229.158 54.6292C229.09 54.5948 229.009 54.5833 228.941 54.6062C228.872 54.6292 228.803 54.6751 228.769 54.744C228.734 54.813 228.723 54.8934 228.746 54.9623C228.769 55.0312 228.814 55.1001 228.883 55.1345L229.915 55.6743L228.207 56.1796C228.058 56.2256 227.966 56.3864 228.012 56.5357C228.058 56.685 228.218 56.7769 228.367 56.7309L230.649 56.0533L231.669 56.5816L229.961 57.087C229.812 57.1329 229.72 57.2937 229.766 57.443C229.812 57.5923 229.972 57.6842 230.121 57.6382L232.403 56.9606L234.41 57.9943L232.483 59.1542L230.167 58.6144C230.018 58.58 229.858 58.6719 229.823 58.8327C229.789 58.982 229.881 59.1427 230.041 59.1772L231.784 59.5792L230.798 60.1764L228.482 59.6366C228.402 59.6136 228.333 59.6366 228.264 59.671C228.195 59.717 228.149 59.7744 228.138 59.8548C228.104 60.0041 228.195 60.1649 228.356 60.1993L230.099 60.6013L229.101 61.1985C228.963 61.2789 228.918 61.4627 228.998 61.589C229.078 61.7153 229.262 61.7613 229.388 61.6924L230.385 61.0951L229.915 62.8179C229.892 62.8868 229.904 62.9672 229.938 63.0361C229.972 63.105 230.041 63.1509 230.11 63.1739C230.259 63.2199 230.42 63.1165 230.465 62.9672L231.085 60.6702L232.071 60.073L231.601 61.7957C231.555 61.945 231.646 62.1058 231.807 62.1518C231.956 62.1977 232.116 62.0943 232.162 61.945L232.781 59.6481L234.673 58.5111V60.8195L233.034 62.5193C232.976 62.5767 232.953 62.6456 232.953 62.726C232.953 62.8064 232.988 62.8753 233.045 62.9327C233.16 63.0476 233.343 63.0361 233.446 62.9212L234.673 61.6464V62.8064L233.034 64.5061C232.976 64.5636 232.953 64.6325 232.953 64.7129C232.953 64.7933 232.988 64.8622 233.045 64.9196C233.103 64.977 233.171 65 233.24 65C233.32 65 233.389 64.9655 233.446 64.9081L234.673 63.6333V64.7014C234.673 64.8622 234.799 64.9885 234.96 64.9885C235.12 64.9885 235.247 64.8622 235.247 64.7014V63.6103L236.485 64.9081C236.599 65.023 236.771 65.023 236.886 64.9196C237.001 64.8047 237.001 64.6325 236.898 64.5176L235.247 62.7949V61.6464L236.485 62.9442C236.588 63.0591 236.783 63.0591 236.886 62.9557C237.001 62.8409 237.001 62.6686 236.898 62.5537L235.247 60.8195V58.4537L237.333 59.5332L238.09 61.7728C238.124 61.8876 238.239 61.968 238.365 61.968C238.4 61.968 238.422 61.968 238.457 61.9565C238.526 61.9335 238.583 61.8761 238.617 61.8072C238.652 61.7383 238.652 61.6579 238.629 61.589L238.067 59.9122L239.087 60.4405L239.844 62.6801C239.89 62.8294 240.062 62.9098 240.211 62.8638C240.28 62.8409 240.337 62.7834 240.372 62.7145C240.406 62.6456 240.406 62.5652 240.383 62.4963L239.821 60.8195L240.761 61.3134C240.807 61.3363 240.853 61.3478 240.888 61.3478C240.991 61.3478 241.094 61.2904 241.14 61.187C241.174 61.1181 241.186 61.0377 241.163 60.9688C241.14 60.8999 241.094 60.831 241.025 60.7966L240.062 60.3027L241.782 59.7859C241.942 59.7285 242.034 59.5677 241.988 59.4069Z" fill="#FFF4B8"/>
<path d="M259.988 49.4069C259.965 49.338 259.919 49.2691 259.851 49.2346C259.782 49.2002 259.702 49.1887 259.633 49.2116L257.34 49.8893L256.319 49.3609L258.039 48.8441C258.188 48.7982 258.28 48.6374 258.234 48.4881C258.211 48.4192 258.165 48.3503 258.096 48.3158C258.028 48.2814 257.947 48.2699 257.879 48.2929L255.585 48.9705L253.602 47.9483L255.551 46.7769L257.856 47.3167C258.005 47.3511 258.165 47.2592 258.2 47.0984C258.223 47.018 258.2 46.9491 258.165 46.8802C258.119 46.8113 258.062 46.7654 257.982 46.7539L256.262 46.3519L257.248 45.7547L259.553 46.2945C259.702 46.329 259.862 46.2371 259.896 46.0763C259.919 45.9959 259.896 45.927 259.862 45.8581C259.816 45.7892 259.759 45.7432 259.679 45.7317L257.959 45.3298L258.876 44.7785C258.945 44.744 258.991 44.6751 259.002 44.6062C259.025 44.5373 259.014 44.4569 258.968 44.388C258.933 44.3191 258.865 44.2732 258.796 44.2617C258.716 44.2387 258.647 44.2502 258.578 44.2961L257.649 44.8589L258.119 43.1247C258.165 42.9754 258.073 42.8146 257.913 42.7687C257.764 42.7227 257.603 42.8146 257.558 42.9754L256.927 45.2838L255.941 45.881L256.411 44.1468C256.457 43.9975 256.365 43.8368 256.205 43.7908C256.056 43.7449 255.895 43.8368 255.849 43.9975L255.219 46.306L253.247 47.4889V45.2494L254.898 43.5382C255.012 43.4233 255.001 43.2395 254.886 43.1362C254.771 43.0213 254.588 43.0328 254.485 43.1477L253.247 44.434V43.274L254.898 41.5628C255.012 41.4479 255.001 41.2642 254.886 41.1608C254.771 41.0459 254.588 41.0574 254.485 41.1723L253.247 42.4586V41.2871C253.247 41.1263 253.12 41 252.96 41C252.799 41 252.673 41.1263 252.673 41.2871V42.4586L251.446 41.1723C251.332 41.0574 251.16 41.0574 251.045 41.1608C250.931 41.2756 250.931 41.4479 251.034 41.5628L252.673 43.274V44.4225L251.446 43.1362C251.332 43.0213 251.16 43.0213 251.045 43.1247C250.988 43.1821 250.953 43.251 250.953 43.3314C250.953 43.4118 250.976 43.4807 251.034 43.5382L252.673 45.2494V47.466L250.667 46.4323L249.91 44.1698C249.887 44.1009 249.83 44.0435 249.761 44.009C249.692 43.9746 249.612 43.9746 249.543 43.9975C249.394 44.0435 249.314 44.2158 249.36 44.3651L249.933 46.0648L248.913 45.5365L248.156 43.274C248.133 43.2051 248.076 43.1477 248.007 43.1132C247.938 43.0787 247.858 43.0788 247.789 43.1017C247.72 43.1247 247.663 43.1821 247.628 43.251C247.594 43.3199 247.594 43.4003 247.617 43.4692L248.19 45.169L247.158 44.6292C247.09 44.5948 247.009 44.5833 246.941 44.6062C246.872 44.6292 246.803 44.6751 246.769 44.744C246.734 44.813 246.723 44.8934 246.746 44.9623C246.769 45.0312 246.814 45.1001 246.883 45.1345L247.915 45.6743L246.207 46.1796C246.058 46.2256 245.966 46.3864 246.012 46.5357C246.058 46.685 246.218 46.7769 246.367 46.7309L248.649 46.0533L249.669 46.5816L247.961 47.087C247.812 47.1329 247.72 47.2937 247.766 47.443C247.812 47.5923 247.972 47.6842 248.121 47.6382L250.403 46.9606L252.41 47.9943L250.483 49.1542L248.167 48.6144C248.018 48.58 247.858 48.6719 247.823 48.8327C247.789 48.982 247.881 49.1427 248.041 49.1772L249.784 49.5792L248.798 50.1764L246.482 49.6366C246.402 49.6136 246.333 49.6366 246.264 49.671C246.195 49.717 246.149 49.7744 246.138 49.8548C246.104 50.0041 246.195 50.1649 246.356 50.1993L248.099 50.6013L247.101 51.1985C246.963 51.2789 246.918 51.4627 246.998 51.589C247.078 51.7153 247.262 51.7613 247.388 51.6924L248.385 51.0951L247.915 52.8179C247.892 52.8868 247.904 52.9672 247.938 53.0361C247.972 53.105 248.041 53.1509 248.11 53.1739C248.259 53.2199 248.42 53.1165 248.465 52.9672L249.085 50.6702L250.071 50.073L249.601 51.7957C249.555 51.945 249.646 52.1058 249.807 52.1518C249.956 52.1977 250.116 52.0943 250.162 51.945L250.781 49.6481L252.673 48.5111V50.8195L251.034 52.5193C250.976 52.5767 250.953 52.6456 250.953 52.726C250.953 52.8064 250.988 52.8753 251.045 52.9327C251.16 53.0476 251.343 53.0361 251.446 52.9212L252.673 51.6464V52.8064L251.034 54.5061C250.976 54.5636 250.953 54.6325 250.953 54.7129C250.953 54.7933 250.988 54.8622 251.045 54.9196C251.103 54.977 251.171 55 251.24 55C251.32 55 251.389 54.9655 251.446 54.9081L252.673 53.6333V54.7014C252.673 54.8622 252.799 54.9885 252.96 54.9885C253.12 54.9885 253.247 54.8622 253.247 54.7014V53.6103L254.485 54.9081C254.599 55.023 254.771 55.023 254.886 54.9196C255.001 54.8047 255.001 54.6325 254.898 54.5176L253.247 52.7949V51.6464L254.485 52.9442C254.588 53.0591 254.783 53.0591 254.886 52.9557C255.001 52.8409 255.001 52.6686 254.898 52.5537L253.247 50.8195V48.4537L255.333 49.5332L256.09 51.7728C256.124 51.8876 256.239 51.968 256.365 51.968C256.4 51.968 256.422 51.968 256.457 51.9565C256.526 51.9335 256.583 51.8761 256.617 51.8072C256.652 51.7383 256.652 51.6579 256.629 51.589L256.067 49.9122L257.087 50.4405L257.844 52.6801C257.89 52.8294 258.062 52.9098 258.211 52.8638C258.28 52.8409 258.337 52.7834 258.372 52.7145C258.406 52.6456 258.406 52.5652 258.383 52.4963L257.821 50.8195L258.761 51.3134C258.807 51.3363 258.853 51.3478 258.888 51.3478C258.991 51.3478 259.094 51.2904 259.14 51.187C259.174 51.1181 259.186 51.0377 259.163 50.9688C259.14 50.8999 259.094 50.831 259.025 50.7966L258.062 50.3027L259.782 49.7859C259.942 49.7285 260.034 49.5677 259.988 49.4069Z" fill="#FFF4B8"/>
<path d="M277.988 45.4069C277.965 45.338 277.919 45.2691 277.851 45.2346C277.782 45.2002 277.702 45.1887 277.633 45.2116L275.34 45.8893L274.319 45.3609L276.039 44.8441C276.188 44.7982 276.28 44.6374 276.234 44.4881C276.211 44.4192 276.165 44.3503 276.096 44.3158C276.028 44.2814 275.947 44.2699 275.879 44.2929L273.585 44.9705L271.602 43.9483L273.551 42.7769L275.856 43.3167C276.005 43.3511 276.165 43.2592 276.2 43.0984C276.223 43.018 276.2 42.9491 276.165 42.8802C276.119 42.8113 276.062 42.7654 275.982 42.7539L274.262 42.3519L275.248 41.7547L277.553 42.2945C277.702 42.329 277.862 42.2371 277.896 42.0763C277.919 41.9959 277.896 41.927 277.862 41.8581C277.816 41.7892 277.759 41.7432 277.679 41.7317L275.959 41.3298L276.876 40.7785C276.945 40.744 276.991 40.6751 277.002 40.6062C277.025 40.5373 277.014 40.4569 276.968 40.388C276.933 40.3191 276.865 40.2732 276.796 40.2617C276.716 40.2387 276.647 40.2502 276.578 40.2961L275.649 40.8589L276.119 39.1247C276.165 38.9754 276.073 38.8146 275.913 38.7687C275.764 38.7227 275.603 38.8146 275.558 38.9754L274.927 41.2838L273.941 41.881L274.411 40.1468C274.457 39.9975 274.365 39.8368 274.205 39.7908C274.056 39.7449 273.895 39.8368 273.849 39.9975L273.219 42.306L271.247 43.4889V41.2494L272.898 39.5382C273.012 39.4233 273.001 39.2395 272.886 39.1362C272.771 39.0213 272.588 39.0328 272.485 39.1477L271.247 40.434V39.274L272.898 37.5628C273.012 37.4479 273.001 37.2642 272.886 37.1608C272.771 37.0459 272.588 37.0574 272.485 37.1723L271.247 38.4586V37.2871C271.247 37.1263 271.12 37 270.96 37C270.799 37 270.673 37.1263 270.673 37.2871V38.4586L269.446 37.1723C269.332 37.0574 269.16 37.0574 269.045 37.1608C268.931 37.2756 268.931 37.4479 269.034 37.5628L270.673 39.274V40.4225L269.446 39.1362C269.332 39.0213 269.16 39.0213 269.045 39.1247C268.988 39.1821 268.953 39.251 268.953 39.3314C268.953 39.4118 268.976 39.4807 269.034 39.5382L270.673 41.2494V43.466L268.667 42.4323L267.91 40.1698C267.887 40.1009 267.83 40.0435 267.761 40.009C267.692 39.9746 267.612 39.9746 267.543 39.9975C267.394 40.0435 267.314 40.2158 267.36 40.3651L267.933 42.0648L266.913 41.5365L266.156 39.274C266.133 39.2051 266.076 39.1477 266.007 39.1132C265.938 39.0787 265.858 39.0788 265.789 39.1017C265.72 39.1247 265.663 39.1821 265.628 39.251C265.594 39.3199 265.594 39.4003 265.617 39.4692L266.19 41.169L265.158 40.6292C265.09 40.5948 265.009 40.5833 264.941 40.6062C264.872 40.6292 264.803 40.6751 264.769 40.744C264.734 40.813 264.723 40.8934 264.746 40.9623C264.769 41.0312 264.814 41.1001 264.883 41.1345L265.915 41.6743L264.207 42.1796C264.058 42.2256 263.966 42.3864 264.012 42.5357C264.058 42.685 264.218 42.7769 264.367 42.7309L266.649 42.0533L267.669 42.5816L265.961 43.087C265.812 43.1329 265.72 43.2937 265.766 43.443C265.812 43.5923 265.972 43.6842 266.121 43.6382L268.403 42.9606L270.41 43.9943L268.483 45.1542L266.167 44.6144C266.018 44.58 265.858 44.6719 265.823 44.8327C265.789 44.982 265.881 45.1427 266.041 45.1772L267.784 45.5792L266.798 46.1764L264.482 45.6366C264.402 45.6136 264.333 45.6366 264.264 45.671C264.195 45.717 264.149 45.7744 264.138 45.8548C264.104 46.0041 264.195 46.1649 264.356 46.1993L266.099 46.6013L265.101 47.1985C264.963 47.2789 264.918 47.4627 264.998 47.589C265.078 47.7153 265.262 47.7613 265.388 47.6924L266.385 47.0951L265.915 48.8179C265.892 48.8868 265.904 48.9672 265.938 49.0361C265.972 49.105 266.041 49.1509 266.11 49.1739C266.259 49.2199 266.42 49.1165 266.465 48.9672L267.085 46.6702L268.071 46.073L267.601 47.7957C267.555 47.945 267.646 48.1058 267.807 48.1518C267.956 48.1977 268.116 48.0943 268.162 47.945L268.781 45.6481L270.673 44.5111V46.8195L269.034 48.5193C268.976 48.5767 268.953 48.6456 268.953 48.726C268.953 48.8064 268.988 48.8753 269.045 48.9327C269.16 49.0476 269.343 49.0361 269.446 48.9212L270.673 47.6464V48.8064L269.034 50.5061C268.976 50.5636 268.953 50.6325 268.953 50.7129C268.953 50.7933 268.988 50.8622 269.045 50.9196C269.103 50.977 269.171 51 269.24 51C269.32 51 269.389 50.9655 269.446 50.9081L270.673 49.6333V50.7014C270.673 50.8622 270.799 50.9885 270.96 50.9885C271.12 50.9885 271.247 50.8622 271.247 50.7014V49.6103L272.485 50.9081C272.599 51.023 272.771 51.023 272.886 50.9196C273.001 50.8047 273.001 50.6325 272.898 50.5176L271.247 48.7949V47.6464L272.485 48.9442C272.588 49.0591 272.783 49.0591 272.886 48.9557C273.001 48.8409 273.001 48.6686 272.898 48.5537L271.247 46.8195V44.4537L273.333 45.5332L274.09 47.7728C274.124 47.8876 274.239 47.968 274.365 47.968C274.4 47.968 274.422 47.968 274.457 47.9565C274.526 47.9335 274.583 47.8761 274.617 47.8072C274.652 47.7383 274.652 47.6579 274.629 47.589L274.067 45.9122L275.087 46.4405L275.844 48.6801C275.89 48.8294 276.062 48.9098 276.211 48.8638C276.28 48.8409 276.337 48.7834 276.372 48.7145C276.406 48.6456 276.406 48.5652 276.383 48.4963L275.821 46.8195L276.761 47.3134C276.807 47.3363 276.853 47.3478 276.888 47.3478C276.991 47.3478 277.094 47.2904 277.14 47.187C277.174 47.1181 277.186 47.0377 277.163 46.9688C277.14 46.8999 277.094 46.831 277.025 46.7966L276.062 46.3027L277.782 45.7859C277.942 45.7285 278.034 45.5677 277.988 45.4069Z" fill="#FFF4B8"/>
<path d="M295.988 42.4069C295.965 42.338 295.919 42.2691 295.851 42.2346C295.782 42.2002 295.702 42.1887 295.633 42.2116L293.34 42.8893L292.319 42.3609L294.039 41.8441C294.188 41.7982 294.28 41.6374 294.234 41.4881C294.211 41.4192 294.165 41.3503 294.096 41.3158C294.028 41.2814 293.947 41.2699 293.879 41.2929L291.585 41.9705L289.602 40.9483L291.551 39.7769L293.856 40.3167C294.005 40.3511 294.165 40.2592 294.2 40.0984C294.223 40.018 294.2 39.9491 294.165 39.8802C294.119 39.8113 294.062 39.7654 293.982 39.7539L292.262 39.3519L293.248 38.7547L295.553 39.2945C295.702 39.329 295.862 39.2371 295.896 39.0763C295.919 38.9959 295.896 38.927 295.862 38.8581C295.816 38.7892 295.759 38.7432 295.679 38.7317L293.959 38.3298L294.876 37.7785C294.945 37.744 294.991 37.6751 295.002 37.6062C295.025 37.5373 295.014 37.4569 294.968 37.388C294.933 37.3191 294.865 37.2732 294.796 37.2617C294.716 37.2387 294.647 37.2502 294.578 37.2961L293.649 37.8589L294.119 36.1247C294.165 35.9754 294.073 35.8146 293.913 35.7687C293.764 35.7227 293.603 35.8146 293.558 35.9754L292.927 38.2838L291.941 38.881L292.411 37.1468C292.457 36.9975 292.365 36.8368 292.205 36.7908C292.056 36.7449 291.895 36.8368 291.849 36.9975L291.219 39.306L289.247 40.4889V38.2494L290.898 36.5382C291.012 36.4233 291.001 36.2395 290.886 36.1362C290.771 36.0213 290.588 36.0328 290.485 36.1477L289.247 37.434V36.274L290.898 34.5628C291.012 34.4479 291.001 34.2642 290.886 34.1608C290.771 34.0459 290.588 34.0574 290.485 34.1723L289.247 35.4586V34.2871C289.247 34.1263 289.12 34 288.96 34C288.799 34 288.673 34.1263 288.673 34.2871V35.4586L287.446 34.1723C287.332 34.0574 287.16 34.0574 287.045 34.1608C286.931 34.2756 286.931 34.4479 287.034 34.5628L288.673 36.274V37.4225L287.446 36.1362C287.332 36.0213 287.16 36.0213 287.045 36.1247C286.988 36.1821 286.953 36.251 286.953 36.3314C286.953 36.4118 286.976 36.4807 287.034 36.5382L288.673 38.2494V40.466L286.667 39.4323L285.91 37.1698C285.887 37.1009 285.83 37.0435 285.761 37.009C285.692 36.9746 285.612 36.9746 285.543 36.9975C285.394 37.0435 285.314 37.2158 285.36 37.3651L285.933 39.0648L284.913 38.5365L284.156 36.274C284.133 36.2051 284.076 36.1477 284.007 36.1132C283.938 36.0787 283.858 36.0788 283.789 36.1017C283.72 36.1247 283.663 36.1821 283.628 36.251C283.594 36.3199 283.594 36.4003 283.617 36.4692L284.19 38.169L283.158 37.6292C283.09 37.5948 283.009 37.5833 282.941 37.6062C282.872 37.6292 282.803 37.6751 282.769 37.744C282.734 37.813 282.723 37.8934 282.746 37.9623C282.769 38.0312 282.814 38.1001 282.883 38.1345L283.915 38.6743L282.207 39.1796C282.058 39.2256 281.966 39.3864 282.012 39.5357C282.058 39.685 282.218 39.7769 282.367 39.7309L284.649 39.0533L285.669 39.5816L283.961 40.087C283.812 40.1329 283.72 40.2937 283.766 40.443C283.812 40.5923 283.972 40.6842 284.121 40.6382L286.403 39.9606L288.41 40.9943L286.483 42.1542L284.167 41.6144C284.018 41.58 283.858 41.6719 283.823 41.8327C283.789 41.982 283.881 42.1427 284.041 42.1772L285.784 42.5792L284.798 43.1764L282.482 42.6366C282.402 42.6136 282.333 42.6366 282.264 42.671C282.195 42.717 282.149 42.7744 282.138 42.8548C282.104 43.0041 282.195 43.1649 282.356 43.1993L284.099 43.6013L283.101 44.1985C282.963 44.2789 282.918 44.4627 282.998 44.589C283.078 44.7153 283.262 44.7613 283.388 44.6924L284.385 44.0951L283.915 45.8179C283.892 45.8868 283.904 45.9672 283.938 46.0361C283.972 46.105 284.041 46.1509 284.11 46.1739C284.259 46.2199 284.42 46.1165 284.465 45.9672L285.085 43.6702L286.071 43.073L285.601 44.7957C285.555 44.945 285.646 45.1058 285.807 45.1518C285.956 45.1977 286.116 45.0943 286.162 44.945L286.781 42.6481L288.673 41.5111V43.8195L287.034 45.5193C286.976 45.5767 286.953 45.6456 286.953 45.726C286.953 45.8064 286.988 45.8753 287.045 45.9327C287.16 46.0476 287.343 46.0361 287.446 45.9212L288.673 44.6464V45.8064L287.034 47.5061C286.976 47.5636 286.953 47.6325 286.953 47.7129C286.953 47.7933 286.988 47.8622 287.045 47.9196C287.103 47.977 287.171 48 287.24 48C287.32 48 287.389 47.9655 287.446 47.9081L288.673 46.6333V47.7014C288.673 47.8622 288.799 47.9885 288.96 47.9885C289.12 47.9885 289.247 47.8622 289.247 47.7014V46.6103L290.485 47.9081C290.599 48.023 290.771 48.023 290.886 47.9196C291.001 47.8047 291.001 47.6325 290.898 47.5176L289.247 45.7949V44.6464L290.485 45.9442C290.588 46.0591 290.783 46.0591 290.886 45.9557C291.001 45.8409 291.001 45.6686 290.898 45.5537L289.247 43.8195V41.4537L291.333 42.5332L292.09 44.7728C292.124 44.8876 292.239 44.968 292.365 44.968C292.4 44.968 292.422 44.968 292.457 44.9565C292.526 44.9335 292.583 44.8761 292.617 44.8072C292.652 44.7383 292.652 44.6579 292.629 44.589L292.067 42.9122L293.087 43.4405L293.844 45.6801C293.89 45.8294 294.062 45.9098 294.211 45.8638C294.28 45.8409 294.337 45.7834 294.372 45.7145C294.406 45.6456 294.406 45.5652 294.383 45.4963L293.821 43.8195L294.761 44.3134C294.807 44.3363 294.853 44.3478 294.888 44.3478C294.991 44.3478 295.094 44.2904 295.14 44.187C295.174 44.1181 295.186 44.0377 295.163 43.9688C295.14 43.8999 295.094 43.831 295.025 43.7966L294.062 43.3027L295.782 42.7859C295.942 42.7285 296.034 42.5677 295.988 42.4069Z" fill="#FFF4B8"/>
<path d="M313.988 42.4069C313.965 42.338 313.919 42.2691 313.851 42.2346C313.782 42.2002 313.702 42.1887 313.633 42.2116L311.34 42.8893L310.319 42.3609L312.039 41.8441C312.188 41.7982 312.28 41.6374 312.234 41.4881C312.211 41.4192 312.165 41.3503 312.096 41.3158C312.028 41.2814 311.947 41.2699 311.879 41.2929L309.585 41.9705L307.602 40.9483L309.551 39.7769L311.856 40.3167C312.005 40.3511 312.165 40.2592 312.2 40.0984C312.223 40.018 312.2 39.9491 312.165 39.8802C312.119 39.8113 312.062 39.7654 311.982 39.7539L310.262 39.3519L311.248 38.7547L313.553 39.2945C313.702 39.329 313.862 39.2371 313.896 39.0763C313.919 38.9959 313.896 38.927 313.862 38.8581C313.816 38.7892 313.759 38.7432 313.679 38.7317L311.959 38.3298L312.876 37.7785C312.945 37.744 312.991 37.6751 313.002 37.6062C313.025 37.5373 313.014 37.4569 312.968 37.388C312.933 37.3191 312.865 37.2732 312.796 37.2617C312.716 37.2387 312.647 37.2502 312.578 37.2961L311.649 37.8589L312.119 36.1247C312.165 35.9754 312.073 35.8146 311.913 35.7687C311.764 35.7227 311.603 35.8146 311.558 35.9754L310.927 38.2838L309.941 38.881L310.411 37.1468C310.457 36.9975 310.365 36.8368 310.205 36.7908C310.056 36.7449 309.895 36.8368 309.849 36.9975L309.219 39.306L307.247 40.4889V38.2494L308.898 36.5382C309.012 36.4233 309.001 36.2395 308.886 36.1362C308.771 36.0213 308.588 36.0328 308.485 36.1477L307.247 37.434V36.274L308.898 34.5628C309.012 34.4479 309.001 34.2642 308.886 34.1608C308.771 34.0459 308.588 34.0574 308.485 34.1723L307.247 35.4586V34.2871C307.247 34.1263 307.12 34 306.96 34C306.799 34 306.673 34.1263 306.673 34.2871V35.4586L305.446 34.1723C305.332 34.0574 305.16 34.0574 305.045 34.1608C304.931 34.2756 304.931 34.4479 305.034 34.5628L306.673 36.274V37.4225L305.446 36.1362C305.332 36.0213 305.16 36.0213 305.045 36.1247C304.988 36.1821 304.953 36.251 304.953 36.3314C304.953 36.4118 304.976 36.4807 305.034 36.5382L306.673 38.2494V40.466L304.667 39.4323L303.91 37.1698C303.887 37.1009 303.83 37.0435 303.761 37.009C303.692 36.9746 303.612 36.9746 303.543 36.9975C303.394 37.0435 303.314 37.2158 303.36 37.3651L303.933 39.0648L302.913 38.5365L302.156 36.274C302.133 36.2051 302.076 36.1477 302.007 36.1132C301.938 36.0787 301.858 36.0788 301.789 36.1017C301.72 36.1247 301.663 36.1821 301.628 36.251C301.594 36.3199 301.594 36.4003 301.617 36.4692L302.19 38.169L301.158 37.6292C301.09 37.5948 301.009 37.5833 300.941 37.6062C300.872 37.6292 300.803 37.6751 300.769 37.744C300.734 37.813 300.723 37.8934 300.746 37.9623C300.769 38.0312 300.814 38.1001 300.883 38.1345L301.915 38.6743L300.207 39.1796C300.058 39.2256 299.966 39.3864 300.012 39.5357C300.058 39.685 300.218 39.7769 300.367 39.7309L302.649 39.0533L303.669 39.5816L301.961 40.087C301.812 40.1329 301.72 40.2937 301.766 40.443C301.812 40.5923 301.972 40.6842 302.121 40.6382L304.403 39.9606L306.41 40.9943L304.483 42.1542L302.167 41.6144C302.018 41.58 301.858 41.6719 301.823 41.8327C301.789 41.982 301.881 42.1427 302.041 42.1772L303.784 42.5792L302.798 43.1764L300.482 42.6366C300.402 42.6136 300.333 42.6366 300.264 42.671C300.195 42.717 300.149 42.7744 300.138 42.8548C300.104 43.0041 300.195 43.1649 300.356 43.1993L302.099 43.6013L301.101 44.1985C300.963 44.2789 300.918 44.4627 300.998 44.589C301.078 44.7153 301.262 44.7613 301.388 44.6924L302.385 44.0951L301.915 45.8179C301.892 45.8868 301.904 45.9672 301.938 46.0361C301.972 46.105 302.041 46.1509 302.11 46.1739C302.259 46.2199 302.42 46.1165 302.465 45.9672L303.085 43.6702L304.071 43.073L303.601 44.7957C303.555 44.945 303.646 45.1058 303.807 45.1518C303.956 45.1977 304.116 45.0943 304.162 44.945L304.781 42.6481L306.673 41.5111V43.8195L305.034 45.5193C304.976 45.5767 304.953 45.6456 304.953 45.726C304.953 45.8064 304.988 45.8753 305.045 45.9327C305.16 46.0476 305.343 46.0361 305.446 45.9212L306.673 44.6464V45.8064L305.034 47.5061C304.976 47.5636 304.953 47.6325 304.953 47.7129C304.953 47.7933 304.988 47.8622 305.045 47.9196C305.103 47.977 305.171 48 305.24 48C305.32 48 305.389 47.9655 305.446 47.9081L306.673 46.6333V47.7014C306.673 47.8622 306.799 47.9885 306.96 47.9885C307.12 47.9885 307.247 47.8622 307.247 47.7014V46.6103L308.485 47.9081C308.599 48.023 308.771 48.023 308.886 47.9196C309.001 47.8047 309.001 47.6325 308.898 47.5176L307.247 45.7949V44.6464L308.485 45.9442C308.588 46.0591 308.783 46.0591 308.886 45.9557C309.001 45.8409 309.001 45.6686 308.898 45.5537L307.247 43.8195V41.4537L309.333 42.5332L310.09 44.7728C310.124 44.8876 310.239 44.968 310.365 44.968C310.4 44.968 310.422 44.968 310.457 44.9565C310.526 44.9335 310.583 44.8761 310.617 44.8072C310.652 44.7383 310.652 44.6579 310.629 44.589L310.067 42.9122L311.087 43.4405L311.844 45.6801C311.89 45.8294 312.062 45.9098 312.211 45.8638C312.28 45.8409 312.337 45.7834 312.372 45.7145C312.406 45.6456 312.406 45.5652 312.383 45.4963L311.821 43.8195L312.761 44.3134C312.807 44.3363 312.853 44.3478 312.888 44.3478C312.991 44.3478 313.094 44.2904 313.14 44.187C313.174 44.1181 313.186 44.0377 313.163 43.9688C313.14 43.8999 313.094 43.831 313.025 43.7966L312.062 43.3027L313.782 42.7859C313.942 42.7285 314.034 42.5677 313.988 42.4069Z" fill="#FFF4B8"/>
<path d="M331.988 42.4069C331.965 42.338 331.919 42.2691 331.851 42.2346C331.782 42.2002 331.702 42.1887 331.633 42.2116L329.34 42.8893L328.319 42.3609L330.039 41.8441C330.188 41.7982 330.28 41.6374 330.234 41.4881C330.211 41.4192 330.165 41.3503 330.096 41.3158C330.028 41.2814 329.947 41.2699 329.879 41.2929L327.585 41.9705L325.602 40.9483L327.551 39.7769L329.856 40.3167C330.005 40.3511 330.165 40.2592 330.2 40.0984C330.223 40.018 330.2 39.9491 330.165 39.8802C330.119 39.8113 330.062 39.7654 329.982 39.7539L328.262 39.3519L329.248 38.7547L331.553 39.2945C331.702 39.329 331.862 39.2371 331.896 39.0763C331.919 38.9959 331.896 38.927 331.862 38.8581C331.816 38.7892 331.759 38.7432 331.679 38.7317L329.959 38.3298L330.876 37.7785C330.945 37.744 330.991 37.6751 331.002 37.6062C331.025 37.5373 331.014 37.4569 330.968 37.388C330.933 37.3191 330.865 37.2732 330.796 37.2617C330.716 37.2387 330.647 37.2502 330.578 37.2961L329.649 37.8589L330.119 36.1247C330.165 35.9754 330.073 35.8146 329.913 35.7687C329.764 35.7227 329.603 35.8146 329.558 35.9754L328.927 38.2838L327.941 38.881L328.411 37.1468C328.457 36.9975 328.365 36.8368 328.205 36.7908C328.056 36.7449 327.895 36.8368 327.849 36.9975L327.219 39.306L325.247 40.4889V38.2494L326.898 36.5382C327.012 36.4233 327.001 36.2395 326.886 36.1362C326.771 36.0213 326.588 36.0328 326.485 36.1477L325.247 37.434V36.274L326.898 34.5628C327.012 34.4479 327.001 34.2642 326.886 34.1608C326.771 34.0459 326.588 34.0574 326.485 34.1723L325.247 35.4586V34.2871C325.247 34.1263 325.12 34 324.96 34C324.799 34 324.673 34.1263 324.673 34.2871V35.4586L323.446 34.1723C323.332 34.0574 323.16 34.0574 323.045 34.1608C322.931 34.2756 322.931 34.4479 323.034 34.5628L324.673 36.274V37.4225L323.446 36.1362C323.332 36.0213 323.16 36.0213 323.045 36.1247C322.988 36.1821 322.953 36.251 322.953 36.3314C322.953 36.4118 322.976 36.4807 323.034 36.5382L324.673 38.2494V40.466L322.667 39.4323L321.91 37.1698C321.887 37.1009 321.83 37.0435 321.761 37.009C321.692 36.9746 321.612 36.9746 321.543 36.9975C321.394 37.0435 321.314 37.2158 321.36 37.3651L321.933 39.0648L320.913 38.5365L320.156 36.274C320.133 36.2051 320.076 36.1477 320.007 36.1132C319.938 36.0787 319.858 36.0788 319.789 36.1017C319.72 36.1247 319.663 36.1821 319.628 36.251C319.594 36.3199 319.594 36.4003 319.617 36.4692L320.19 38.169L319.158 37.6292C319.09 37.5948 319.009 37.5833 318.941 37.6062C318.872 37.6292 318.803 37.6751 318.769 37.744C318.734 37.813 318.723 37.8934 318.746 37.9623C318.769 38.0312 318.814 38.1001 318.883 38.1345L319.915 38.6743L318.207 39.1796C318.058 39.2256 317.966 39.3864 318.012 39.5357C318.058 39.685 318.218 39.7769 318.367 39.7309L320.649 39.0533L321.669 39.5816L319.961 40.087C319.812 40.1329 319.72 40.2937 319.766 40.443C319.812 40.5923 319.972 40.6842 320.121 40.6382L322.403 39.9606L324.41 40.9943L322.483 42.1542L320.167 41.6144C320.018 41.58 319.858 41.6719 319.823 41.8327C319.789 41.982 319.881 42.1427 320.041 42.1772L321.784 42.5792L320.798 43.1764L318.482 42.6366C318.402 42.6136 318.333 42.6366 318.264 42.671C318.195 42.717 318.149 42.7744 318.138 42.8548C318.104 43.0041 318.195 43.1649 318.356 43.1993L320.099 43.6013L319.101 44.1985C318.963 44.2789 318.918 44.4627 318.998 44.589C319.078 44.7153 319.262 44.7613 319.388 44.6924L320.385 44.0951L319.915 45.8179C319.892 45.8868 319.904 45.9672 319.938 46.0361C319.972 46.105 320.041 46.1509 320.11 46.1739C320.259 46.2199 320.42 46.1165 320.465 45.9672L321.085 43.6702L322.071 43.073L321.601 44.7957C321.555 44.945 321.646 45.1058 321.807 45.1518C321.956 45.1977 322.116 45.0943 322.162 44.945L322.781 42.6481L324.673 41.5111V43.8195L323.034 45.5193C322.976 45.5767 322.953 45.6456 322.953 45.726C322.953 45.8064 322.988 45.8753 323.045 45.9327C323.16 46.0476 323.343 46.0361 323.446 45.9212L324.673 44.6464V45.8064L323.034 47.5061C322.976 47.5636 322.953 47.6325 322.953 47.7129C322.953 47.7933 322.988 47.8622 323.045 47.9196C323.103 47.977 323.171 48 323.24 48C323.32 48 323.389 47.9655 323.446 47.9081L324.673 46.6333V47.7014C324.673 47.8622 324.799 47.9885 324.96 47.9885C325.12 47.9885 325.247 47.8622 325.247 47.7014V46.6103L326.485 47.9081C326.599 48.023 326.771 48.023 326.886 47.9196C327.001 47.8047 327.001 47.6325 326.898 47.5176L325.247 45.7949V44.6464L326.485 45.9442C326.588 46.0591 326.783 46.0591 326.886 45.9557C327.001 45.8409 327.001 45.6686 326.898 45.5537L325.247 43.8195V41.4537L327.333 42.5332L328.09 44.7728C328.124 44.8876 328.239 44.968 328.365 44.968C328.4 44.968 328.422 44.968 328.457 44.9565C328.526 44.9335 328.583 44.8761 328.617 44.8072C328.652 44.7383 328.652 44.6579 328.629 44.589L328.067 42.9122L329.087 43.4405L329.844 45.6801C329.89 45.8294 330.062 45.9098 330.211 45.8638C330.28 45.8409 330.337 45.7834 330.372 45.7145C330.406 45.6456 330.406 45.5652 330.383 45.4963L329.821 43.8195L330.761 44.3134C330.807 44.3363 330.853 44.3478 330.888 44.3478C330.991 44.3478 331.094 44.2904 331.14 44.187C331.174 44.1181 331.186 44.0377 331.163 43.9688C331.14 43.8999 331.094 43.831 331.025 43.7966L330.062 43.3027L331.782 42.7859C331.942 42.7285 332.034 42.5677 331.988 42.4069Z" fill="#FFF4B8"/>
<path d="M43.9882 112.407C43.9653 112.338 43.9194 112.269 43.8506 112.235C43.7818 112.2 43.7016 112.189 43.6328 112.212L41.3397 112.889L40.3193 112.361L42.0391 111.844C42.1881 111.798 42.2799 111.637 42.234 111.488C42.2111 111.419 42.1652 111.35 42.0964 111.316C42.0276 111.281 41.9473 111.27 41.8785 111.293L39.5855 111.97L37.602 110.948L39.5511 109.777L41.8556 110.317C42.0047 110.351 42.1652 110.259 42.1996 110.098C42.2225 110.018 42.1996 109.949 42.1652 109.88C42.1193 109.811 42.062 109.765 41.9818 109.754L40.2619 109.352L41.248 108.755L43.5525 109.295C43.7016 109.329 43.8621 109.237 43.8965 109.076C43.9194 108.996 43.8965 108.927 43.8621 108.858C43.8162 108.789 43.7589 108.743 43.6786 108.732L41.9588 108.33L42.876 107.778C42.9448 107.744 42.9907 107.675 43.0022 107.606C43.0251 107.537 43.0136 107.457 42.9678 107.388C42.9334 107.319 42.8646 107.273 42.7958 107.262C42.7155 107.239 42.6467 107.25 42.5779 107.296L41.6492 107.859L42.1193 106.125C42.1652 105.975 42.0735 105.815 41.913 105.769C41.7639 105.723 41.6034 105.815 41.5575 105.975L40.9269 108.284L39.9409 108.881L40.411 107.147C40.4568 106.998 40.3651 106.837 40.2046 106.791C40.0556 106.745 39.895 106.837 39.8492 106.998L39.2186 109.306L37.2465 110.489V108.249L38.8976 106.538C39.0122 106.423 39.0007 106.24 38.8861 106.136C38.7714 106.021 38.588 106.033 38.4848 106.148L37.2465 107.434V106.274L38.8976 104.563C39.0122 104.448 39.0007 104.264 38.8861 104.161C38.7714 104.046 38.588 104.057 38.4848 104.172L37.2465 105.459V104.287C37.2465 104.126 37.1204 104 36.9599 104C36.7994 104 36.6733 104.126 36.6733 104.287V105.459L35.4465 104.172C35.3318 104.057 35.1598 104.057 35.0452 104.161C34.9305 104.276 34.9305 104.448 35.0337 104.563L36.6733 106.274V107.422L35.4465 106.136C35.3318 106.021 35.1598 106.021 35.0452 106.125C34.9879 106.182 34.9535 106.251 34.9535 106.331C34.9535 106.412 34.9764 106.481 35.0337 106.538L36.6733 108.249V110.466L34.6668 109.432L33.9101 107.17C33.8872 107.101 33.8299 107.043 33.7611 107.009C33.6923 106.975 33.612 106.975 33.5432 106.998C33.3942 107.043 33.3139 107.216 33.3598 107.365L33.933 109.065L32.9126 108.537L32.1559 106.274C32.133 106.205 32.0756 106.148 32.0068 106.113C31.938 106.079 31.8578 106.079 31.789 106.102C31.7202 106.125 31.6629 106.182 31.6285 106.251C31.5941 106.32 31.5941 106.4 31.617 106.469L32.1903 108.169L31.1584 107.629C31.0896 107.595 31.0094 107.583 30.9406 107.606C30.8718 107.629 30.803 107.675 30.7686 107.744C30.7342 107.813 30.7227 107.893 30.7457 107.962C30.7686 108.031 30.8144 108.1 30.8832 108.135L31.9151 108.674L30.2068 109.18C30.0577 109.226 29.966 109.386 30.0119 109.536C30.0577 109.685 30.2182 109.777 30.3673 109.731L32.6489 109.053L33.6693 109.582L31.961 110.087C31.8119 110.133 31.7202 110.294 31.7661 110.443C31.8119 110.592 31.9724 110.684 32.1215 110.638L34.4031 109.961L36.4096 110.994L34.4834 112.154L32.1674 111.614C32.0183 111.58 31.8578 111.672 31.8234 111.833C31.789 111.982 31.8807 112.143 32.0412 112.177L33.784 112.579L32.798 113.176L30.482 112.637C30.4017 112.614 30.3329 112.637 30.2641 112.671C30.1953 112.717 30.1495 112.774 30.138 112.855C30.1036 113.004 30.1953 113.165 30.3558 113.199L32.0986 113.601L31.1011 114.199C30.9635 114.279 30.9176 114.463 30.9979 114.589C31.0782 114.715 31.2616 114.761 31.3877 114.692L32.3852 114.095L31.9151 115.818C31.8922 115.887 31.9037 115.967 31.938 116.036C31.9724 116.105 32.0412 116.151 32.11 116.174C32.2591 116.22 32.4196 116.116 32.4655 115.967L33.0846 113.67L34.0706 113.073L33.6005 114.796C33.5547 114.945 33.6464 115.106 33.8069 115.152C33.956 115.198 34.1165 115.094 34.1623 114.945L34.7815 112.648L36.6733 111.511V113.82L35.0337 115.519C34.9764 115.577 34.9535 115.646 34.9535 115.726C34.9535 115.806 34.9879 115.875 35.0452 115.933C35.1598 116.048 35.3433 116.036 35.4465 115.921L36.6733 114.646V115.806L35.0337 117.506C34.9764 117.564 34.9535 117.632 34.9535 117.713C34.9535 117.793 34.9879 117.862 35.0452 117.92C35.1025 117.977 35.1713 118 35.2401 118C35.3203 118 35.3891 117.966 35.4465 117.908L36.6733 116.633V117.701C36.6733 117.862 36.7994 117.989 36.9599 117.989C37.1204 117.989 37.2465 117.862 37.2465 117.701V116.61L38.4848 117.908C38.5995 118.023 38.7714 118.023 38.8861 117.92C39.0007 117.805 39.0007 117.632 38.8976 117.518L37.2465 115.795V114.646L38.4848 115.944C38.588 116.059 38.7829 116.059 38.8861 115.956C39.0007 115.841 39.0007 115.669 38.8976 115.554L37.2465 113.82V111.454L39.3332 112.533L40.0899 114.773C40.1243 114.888 40.239 114.968 40.3651 114.968C40.3995 114.968 40.4225 114.968 40.4569 114.957C40.5256 114.934 40.583 114.876 40.6174 114.807C40.6518 114.738 40.6518 114.658 40.6288 114.589L40.067 112.912L41.0875 113.441L41.8442 115.68C41.89 115.829 42.062 115.91 42.2111 115.864C42.2798 115.841 42.3372 115.783 42.3716 115.715C42.406 115.646 42.406 115.565 42.383 115.496L41.8212 113.82L42.7614 114.313C42.8073 114.336 42.8531 114.348 42.8875 114.348C42.9907 114.348 43.0939 114.29 43.1397 114.187C43.1741 114.118 43.1856 114.038 43.1627 113.969C43.1398 113.9 43.0939 113.831 43.0251 113.797L42.062 113.303L43.7818 112.786C43.9423 112.728 44.0341 112.568 43.9882 112.407Z" fill="#FFF4B8"/>
<line x1="59.5" y1="278" x2="59.5" y2="111" stroke="url(#paint1_linear_1237_1969)" stroke-width="5" stroke-dasharray="10 10"/>
<path d="M55.0718 284C58.151 278.667 65.849 278.667 68.9282 284L79.3205 302C82.3997 307.333 78.5507 314 72.3923 314H51.6077C45.4493 314 41.6003 307.333 44.6795 302L55.0718 284Z" fill="url(#paint2_linear_1237_1969)"/>
<line x1="92.5" y1="232" x2="92.5" y2="107" stroke="url(#paint3_linear_1237_1969)" stroke-width="5" stroke-dasharray="10 10"/>
<path d="M88.0718 238C91.151 232.667 98.849 232.667 101.928 238L112.321 256C115.4 261.333 111.551 268 105.392 268H84.6077C78.4493 268 74.6003 261.333 77.6795 256L88.0718 238Z" fill="url(#paint4_linear_1237_1969)"/>
<line x1="125.5" y1="190" x2="125.5" y2="111" stroke="url(#paint5_linear_1237_1969)" stroke-width="5" stroke-dasharray="10 10"/>
<path d="M121.072 196C124.151 190.667 131.849 190.667 134.928 196L145.321 214C148.4 219.333 144.551 226 138.392 226H117.608C111.449 226 107.6 219.333 110.679 214L121.072 196Z" fill="url(#paint6_linear_1237_1969)"/>
<line x1="158.5" y1="156" x2="158.5" y2="121" stroke="url(#paint7_linear_1237_1969)" stroke-width="5" stroke-dasharray="10 10"/>
<path d="M154.072 162C157.151 156.667 164.849 156.667 167.928 162L178.321 180C181.4 185.333 177.551 192 171.392 192H150.608C144.449 192 140.6 185.333 143.679 180L154.072 162Z" fill="url(#paint8_linear_1237_1969)"/>
<line x1="191.5" y1="121" x2="191.5" y2="114" stroke="url(#paint9_linear_1237_1969)" stroke-width="5" stroke-dasharray="10 10"/>
<path d="M187.072 127C190.151 121.667 197.849 121.667 200.928 127L211.321 145C214.4 150.333 210.551 157 204.392 157H183.608C177.449 157 173.6 150.333 176.679 145L187.072 127Z" fill="url(#paint10_linear_1237_1969)"/>
<path d="M116.427 111C62.3314 85.8 33.8942 127.833 26.4375 152H0V0H359.448C361.888 32.8 355.5 54.0004 321.825 54.0004C271.5 54.0004 240.126 67.9996 227 87C211.457 109.5 170.522 136.2 116.427 111Z" stroke="url(#paint11_linear_1237_1969)" stroke-width="5"/>
<path d="M20 25H343V701H65C40.1472 701 20 680.853 20 656V25Z" stroke="url(#paint12_linear_1237_1969)" stroke-width="16"/>
</g>
<defs>
<linearGradient id="paint0_linear_1237_1969" x1="180" y1="-52" x2="180" y2="800" gradientUnits="userSpaceOnUse">
<stop stop-color="#D6588C"/>
<stop offset="1" stop-color="#CC799B"/>
</linearGradient>
<linearGradient id="paint1_linear_1237_1969" x1="62.5" y1="111" x2="62.5" y2="278" gradientUnits="userSpaceOnUse">
<stop stop-color="#F1F5BE"/>
<stop offset="1" stop-color="#DF6B9B"/>
</linearGradient>
<linearGradient id="paint2_linear_1237_1969" x1="62" y1="277" x2="62" y2="315.5" gradientUnits="userSpaceOnUse">
<stop stop-color="#C5165F"/>
<stop offset="1" stop-color="#460C24"/>
</linearGradient>
<linearGradient id="paint3_linear_1237_1969" x1="95.5" y1="107" x2="95.5" y2="232" gradientUnits="userSpaceOnUse">
<stop stop-color="#F1F5BE"/>
<stop offset="1" stop-color="#DF6B9B"/>
</linearGradient>
<linearGradient id="paint4_linear_1237_1969" x1="95" y1="231" x2="95" y2="269.5" gradientUnits="userSpaceOnUse">
<stop stop-color="#C5165F"/>
<stop offset="1" stop-color="#460C24"/>
</linearGradient>
<linearGradient id="paint5_linear_1237_1969" x1="128.5" y1="111" x2="128.5" y2="190" gradientUnits="userSpaceOnUse">
<stop stop-color="#F1F5BE"/>
<stop offset="1" stop-color="#DF6B9B"/>
</linearGradient>
<linearGradient id="paint6_linear_1237_1969" x1="128" y1="189" x2="128" y2="227.5" gradientUnits="userSpaceOnUse">
<stop stop-color="#C5165F"/>
<stop offset="1" stop-color="#460C24"/>
</linearGradient>
<linearGradient id="paint7_linear_1237_1969" x1="161.5" y1="121" x2="161.5" y2="156" gradientUnits="userSpaceOnUse">
<stop stop-color="#F1F5BE"/>
<stop offset="1" stop-color="#DF6B9B"/>
</linearGradient>
<linearGradient id="paint8_linear_1237_1969" x1="161" y1="155" x2="161" y2="193.5" gradientUnits="userSpaceOnUse">
<stop stop-color="#C5165F"/>
<stop offset="1" stop-color="#460C24"/>
</linearGradient>
<linearGradient id="paint9_linear_1237_1969" x1="194.5" y1="114" x2="194.5" y2="121" gradientUnits="userSpaceOnUse">
<stop stop-color="#F1F5BE"/>
<stop offset="1" stop-color="#DF6B9B"/>
</linearGradient>
<linearGradient id="paint10_linear_1237_1969" x1="194" y1="120" x2="194" y2="158.5" gradientUnits="userSpaceOnUse">
<stop stop-color="#C5165F"/>
<stop offset="1" stop-color="#460C24"/>
</linearGradient>
<linearGradient id="paint11_linear_1237_1969" x1="179.957" y1="0" x2="179.957" y2="152" gradientUnits="userSpaceOnUse">
<stop stop-color="#FE4D97"/>
<stop offset="1" stop-color="#FD1678"/>
</linearGradient>
<linearGradient id="paint12_linear_1237_1969" x1="166" y1="15.5" x2="160.032" y2="796" gradientUnits="userSpaceOnUse">
<stop stop-color="#4B122A"/>
<stop offset="0.0001" stop-color="#ED99BC"/>
<stop offset="1" stop-color="#430720"/>
</linearGradient>
<clipPath id="clip0_1237_1969">
<rect width="360" height="800" fill="white"/>
</clipPath>
</defs>
</svg>
