<svg width="208" height="208" viewBox="0 0 208 208" fill="none" xmlns="http://www.w3.org/2000/svg">
    <path
        d="M71.3002 103.984L71.3 103.993L71.3 104.002C71.3164 107.87 72.0294 111.702 73.4037 115.315L41.011 128.537L41.2 129L41.0109 128.537C36.5467 130.36 31.7026 131.058 26.9054 130.567C22.1082 130.076 17.5054 128.413 13.5027 125.724C9.49995 123.035 6.22027 119.402 3.95273 115.146C1.6852 110.891 0.499443 106.142 0.500003 101.32L0.500003 80.392L0.500002 80.3914C0.499296 79.7808 0.65836 79.1806 0.961389 78.6505C1.26442 78.1203 1.70086 77.6787 2.22739 77.3695C2.7539 77.0602 3.35217 76.8941 3.96277 76.8876C4.57336 76.8811 5.17502 77.0344 5.708 77.3324L5.71003 77.3335C26.2143 88.6727 48.5313 96.3631 71.6655 100.063C71.4636 101.361 71.3416 102.671 71.3002 103.984ZM103.783 136.5L103.792 136.5L103.802 136.5C107.708 136.484 111.576 135.757 115.219 134.358L128.537 167.005C130.357 171.468 131.051 176.311 130.559 181.106C130.067 185.901 128.403 190.501 125.714 194.502C123.026 198.502 119.394 201.78 115.14 204.047C110.886 206.314 106.14 207.5 101.32 207.5H80.4C79.7904 207.5 79.1913 207.341 78.6621 207.038C78.133 206.735 77.692 206.3 77.383 205.774C77.0739 205.249 76.9075 204.652 76.9001 204.042C76.8927 203.433 77.0447 202.832 77.341 202.299L77.3415 202.298C88.7123 181.739 96.4144 159.357 100.104 136.157C101.322 136.342 102.551 136.457 103.783 136.5ZM103.814 71.5002L103.806 71.5L103.797 71.5C100.021 71.5219 96.2786 72.2083 92.7423 73.5267L79.463 40.9952C79.463 40.9952 79.4629 40.9951 79.4629 40.995C77.643 36.5317 76.9485 31.6893 77.4407 26.8943C77.9329 22.0993 79.5967 17.4989 82.2855 13.4983C84.9743 9.49769 88.6057 6.21968 92.8597 3.95299C97.1137 1.68631 101.86 0.500494 106.68 0.5H127.616C128.226 0.499975 128.825 0.659173 129.354 0.961839C129.883 1.2645 130.324 1.70014 130.633 2.22561C130.942 2.75109 131.109 3.34816 131.116 3.95772C131.123 4.56729 130.971 5.16822 130.675 5.701L130.674 5.70196C119.295 26.2714 111.59 48.6663 107.905 71.8801C106.551 71.666 105.185 71.5391 103.814 71.5002Z"
        fill="#70FF00" stroke="black" />
    <path
        d="M119.3 104C119.3 112.56 112.36 119.5 103.8 119.5C95.2394 119.5 88.2998 112.56 88.2998 104C88.2998 95.4396 95.2394 88.5 103.8 88.5C112.36 88.5 119.3 95.4396 119.3 104Z"
        fill="#70FF00" stroke="black" />
    <path
        d="M194.418 82.2238L194.419 82.2243C198.447 84.9052 201.75 88.5412 204.032 92.8081C206.315 97.0751 207.506 101.84 207.5 106.679V106.68V127.599C207.499 128.208 207.34 128.806 207.038 129.334C206.735 129.862 206.3 130.303 205.776 130.612C205.252 130.92 204.656 131.087 204.047 131.095C203.439 131.104 202.838 130.953 202.306 130.658C181.682 119.249 159.224 111.533 135.946 107.857C136.766 102.788 136.179 97.5905 134.247 92.8327L167.005 79.471L167.005 79.4707C171.451 77.6504 176.275 76.9496 181.055 77.4296C185.835 77.9096 190.423 79.5559 194.418 82.2238Z"
        fill="#70FF00" stroke="black" />
</svg>
