<svg width="250" height="250" viewBox="0 0 250 250" fill="none" xmlns="http://www.w3.org/2000/svg">
<path d="M180.654 55.5065L180.647 55.508C170.757 57.884 162.156 63.6398 156.482 71.7071L156.481 71.7084C152.449 77.4475 148.488 84.5732 145.208 91.7609C138.617 87.7273 130.948 85.7422 123.182 86.0996C115.508 86.4529 108.139 89.0751 101.99 93.5969C91.1567 68.7877 88.8726 45.0026 95.386 25.5078C98.4884 16.2487 105.551 8.937 114.21 5.87505L114.22 5.87172C130.005 0.219887 147.383 2.06946 163.034 8.48089C178.687 14.8932 192.379 25.7795 200.725 37.8386C202.402 40.3437 202.761 43.4355 201.66 46.2479L201.656 46.2592C200.538 49.1572 198.106 51.3322 195.12 52.072C195.117 52.0728 195.113 52.0736 195.11 52.0744L180.654 55.5065ZM71.7363 93.5214L71.7377 93.5223C77.4734 97.5517 84.5565 101.513 91.7379 104.795C87.7041 111.387 85.7189 119.056 86.0764 126.822C86.4296 134.497 89.0521 141.867 93.5742 148.016C78.0841 154.788 62.9621 158.239 49.0117 158.239C40.7153 158.239 32.8077 157.025 25.5327 154.617C16.2705 151.512 8.91377 144.446 5.85471 135.794L5.85257 135.788C0.225147 120.001 2.07528 102.62 8.48033 86.9684C14.8863 71.3145 25.7594 57.6221 37.8172 49.277C40.304 47.6117 43.4526 47.2809 46.2441 48.3483L46.2483 48.3499C49.1768 49.4635 51.3086 51.884 52.0508 54.8857C52.0513 54.8878 52.0518 54.8899 52.0523 54.8919L55.5378 69.3549C57.9138 79.2457 63.6693 87.8465 71.7363 93.5214ZM124.99 163.969H124.993C133.316 163.958 141.385 161.284 148.04 156.383C158.871 181.239 161.108 205.023 154.594 224.469C151.489 233.736 144.42 241.096 135.817 244.155C129.338 246.447 122.594 247.5 115.825 247.5C89.4387 247.5 62.6356 231.466 49.3074 212.191C47.6274 209.682 47.2684 206.53 48.3265 203.763L48.3281 203.759C49.4367 200.843 51.9003 198.701 54.8642 197.956C54.8687 197.955 54.8732 197.954 54.8777 197.952L69.3258 194.522L69.3355 194.52L69.3451 194.518C79.2254 192.089 87.823 186.337 93.498 178.27L93.499 178.268C97.5297 172.53 101.49 165.407 104.769 158.259C110.652 161.853 117.565 163.969 124.99 163.969ZM224.49 95.4083L224.493 95.4094C233.753 98.5125 241.066 105.577 244.127 114.187L244.128 114.191C249.78 130.003 247.93 147.396 241.519 163.047C235.105 178.706 224.213 192.39 212.151 200.708L212.142 200.714L212.133 200.72C210.649 201.763 208.865 202.297 207.061 202.297C205.908 202.297 204.807 202.093 203.742 201.683C200.856 200.569 198.671 198.092 197.929 195.142C197.928 195.138 197.927 195.133 197.926 195.129L194.496 180.68L194.494 180.674C192.118 170.783 186.363 162.182 178.296 156.507L178.294 156.507C172.552 152.473 165.421 148.509 158.23 145.227C161.823 139.324 163.943 132.449 163.943 125.014V125.014C163.941 116.703 161.266 108.644 156.36 102.008C181.216 91.1274 204.999 88.8467 224.49 95.4083Z" fill="#FF9900" stroke="black" stroke-width="5"/>
<path d="M148.528 125.014C148.528 138.014 137.989 148.553 124.99 148.553C111.99 148.553 101.452 138.014 101.452 125.014C101.452 112.014 111.99 101.476 124.99 101.476C137.989 101.476 148.528 112.014 148.528 125.014Z" fill="#FF9900" stroke="black" stroke-width="5"/>
</svg>
