<svg width="250" height="250" viewBox="0 0 250 250" fill="none" xmlns="http://www.w3.org/2000/svg">
<path d="M66.3438 61.5991H66.5656C86.705 61.6671 105.271 71.1847 117.138 86.7375C102.391 89.7369 90.6237 101.004 86.8831 115.473H2.86378C7.65965 85.3941 33.9911 61.5991 66.3438 61.5991ZM188.858 66.5371C188.792 86.8138 179.21 105.51 163.558 117.444C160.554 102.704 149.298 90.938 134.844 87.1957V2.86495C165.26 7.71423 188.965 34.1228 188.858 66.5371ZM183.802 189.21C183.8 189.21 183.799 189.21 183.797 189.21C163.528 189.142 144.85 179.558 132.92 163.898C147.634 160.879 159.373 149.625 163.107 135.179H247.146C242.39 165.828 216.111 189.21 184.024 189.21L183.802 189.21ZM61.3037 183.791C61.3698 163.644 70.8823 145.067 86.4263 133.189C89.424 147.941 100.684 159.714 115.146 163.456V247.141C84.6594 242.346 61.1972 215.896 61.3037 183.791ZM124.995 105.654C135.832 105.654 144.655 114.48 144.655 125.326C144.655 136.172 135.832 144.998 124.995 144.998C114.158 144.998 105.335 136.172 105.335 125.326C105.335 114.48 114.158 105.654 124.995 105.654Z" fill="#BDFF00" stroke="black" stroke-width="5"/>
</svg>
