<svg width="250" height="250" viewBox="0 0 250 250" fill="none" xmlns="http://www.w3.org/2000/svg">
<path d="M247.447 122.5H127.553C128.9 90.9111 155.627 65 187.5 65C219.373 65 246.1 90.9111 247.447 122.5ZM127.5 247.447V127.553C159.089 128.9 185 155.627 185 187.5C185 219.373 159.089 246.1 127.5 247.447ZM2.55324 127.5H122.447C121.1 159.089 94.3732 185 62.5 185C30.6268 185 3.90016 159.089 2.55324 127.5ZM122.5 2.55324V122.447C90.9111 121.1 65 94.3732 65 62.5C65 30.6268 90.9111 3.90016 122.5 2.55324Z" fill="#FC0000" stroke="black" stroke-width="5"/>
</svg>
