<!--<svg width="284" height="250" viewBox="0 0 284 250" fill="none" xmlns="http://www.w3.org/2000/svg">-->
<!--    <path-->
<!--        d="M145.933 87C123.326 87 105 105.433 105 128.172C107.155 182.784 184.717 182.769 186.866 128.172C186.866 105.433 168.539 87 145.933 87ZM145.933 153.169C136.293 152.922 136.296 138.709 145.933 138.465C155.572 138.712 155.569 152.925 145.933 153.169ZM164.651 136.945C164.005 137.376 163.215 137.531 162.455 137.377C161.695 137.223 161.027 136.771 160.598 136.121C154.122 125.646 137.743 125.649 131.264 136.121C130.834 136.767 130.167 137.216 129.409 137.369C128.651 137.521 127.864 137.366 127.219 136.936C126.575 136.507 126.126 135.838 125.971 135.076C125.815 134.314 125.966 133.522 126.39 132.872C128.523 129.619 131.425 126.95 134.836 125.103C138.246 123.256 142.059 122.289 145.933 122.289C149.806 122.289 153.619 123.256 157.03 125.103C160.441 126.95 163.342 129.619 165.475 132.872C165.902 133.522 166.056 134.316 165.901 135.08C165.746 135.843 165.297 136.514 164.651 136.945ZM173.507 126.908C173.065 126.909 172.628 126.809 172.23 126.616C171.831 126.422 171.482 126.14 171.209 125.79C159.084 109.509 132.782 109.512 120.654 125.79C118.239 128.781 113.725 125.219 116.069 122.143C130.551 102.881 161.318 102.881 175.796 122.143C177.334 123.975 175.86 126.981 173.507 126.908Z"-->
<!--        fill="#010BFF" />-->
<!--    <path-->
<!--        d="M145.933 87C123.326 87 105 105.433 105 128.172C107.155 182.784 184.717 182.769 186.866 128.172C186.866 105.433 168.539 87 145.933 87ZM145.933 153.169C136.293 152.922 136.296 138.709 145.933 138.465C155.572 138.712 155.569 152.925 145.933 153.169ZM164.651 136.945C164.005 137.376 163.215 137.531 162.455 137.377C161.695 137.223 161.027 136.771 160.598 136.121C154.122 125.646 137.743 125.649 131.264 136.121C130.834 136.767 130.167 137.216 129.409 137.369C128.651 137.521 127.864 137.366 127.219 136.936C126.575 136.507 126.126 135.838 125.971 135.076C125.815 134.314 125.966 133.522 126.39 132.872C128.523 129.619 131.425 126.95 134.836 125.103C138.246 123.256 142.059 122.289 145.933 122.289C149.806 122.289 153.619 123.256 157.03 125.103C160.441 126.95 163.342 129.619 165.475 132.872C165.902 133.522 166.056 134.316 165.901 135.08C165.746 135.843 165.297 136.514 164.651 136.945ZM173.507 126.908C173.065 126.909 172.628 126.809 172.23 126.616C171.831 126.422 171.482 126.14 171.209 125.79C159.084 109.509 132.782 109.512 120.654 125.79C118.239 128.781 113.725 125.219 116.069 122.143C130.551 102.881 161.318 102.881 175.796 122.143C177.334 123.975 175.86 126.981 173.507 126.908Z"-->
<!--        stroke="black" />-->
<!--    <path-->
<!--        d="M145.75 1.97932C182.397 -4.04063 210.813 3.93499 218.154 22.3154C223.774 36.3757 215.073 53.1092 194.875 67.0753C184.157 74.4893 176.38 85.6351 174.514 94.743C157.22 80.8092 129.33 82.6649 113.978 98.4867C84.5031 53.8562 88.725 10.7372 145.75 1.97932Z"-->
<!--        fill="#010BFF" />-->
<!--    <path-->
<!--        d="M145.75 1.97932C182.397 -4.04063 210.813 3.93499 218.154 22.3154C223.774 36.3757 215.073 53.1092 194.875 67.0753C184.157 74.4893 176.38 85.6351 174.514 94.743C157.22 80.8092 129.33 82.6649 113.978 98.4867C84.5031 53.8562 88.725 10.7372 145.75 1.97932Z"-->
<!--        stroke="black" />-->
<!--    <path-->
<!--        d="M266.436 166.689C261.052 203.434 244.83 228.09 225.088 229.508C209.986 230.596 196.681 217.228 189.502 193.745C185.691 181.282 177.43 170.489 169.318 165.948C187.842 153.698 194.537 126.56 184.12 107.13C235.59 92.5878 275.395 109.695 266.436 166.689Z"-->
<!--        fill="#010BFF" />-->
<!--    <path-->
<!--        d="M266.436 166.689C261.052 203.434 244.83 228.09 225.088 229.508C209.986 230.596 196.681 217.228 189.502 193.745C185.691 181.282 177.43 170.489 169.318 165.948C187.842 153.698 194.537 126.56 184.12 107.13C235.59 92.5878 275.395 109.695 266.436 166.689Z"-->
<!--        stroke="black" />-->
<!--    <path-->
<!--        d="M49.5689 209.668C21.4117 185.453 9.26738 158.553 18.6359 141.118C25.8003 127.779 44.2136 123.696 67.8922 130.201C80.4598 133.651 93.9977 132.45 102.176 128.028C102.609 150.233 121.949 170.413 143.937 172.014C128.672 223.274 92.9167 247.741 49.5689 209.668Z"-->
<!--        fill="#010BFF" />-->
<!--    <path-->
<!--        d="M49.5689 209.668C21.4117 185.453 9.26738 158.553 18.6359 141.118C25.8003 127.779 44.2136 123.696 67.8922 130.201C80.4598 133.651 93.9977 132.45 102.176 128.028C102.609 150.233 121.949 170.413 143.937 172.014C128.672 223.274 92.9167 247.741 49.5689 209.668Z"-->
<!--        stroke="black" />-->
<!--</svg>-->
<svg width="303" height="270" viewBox="0 0 303 270" fill="none" xmlns="http://www.w3.org/2000/svg">
    <path
        d="M152.936 98C130.329 98 112.003 116.433 112.003 139.172C114.158 193.784 191.719 193.769 193.868 139.172C193.868 116.433 175.542 98 152.936 98ZM152.936 164.169C143.296 163.922 143.299 149.709 152.936 149.465C162.575 149.712 162.572 163.925 152.936 164.169ZM171.654 147.945C171.008 148.376 170.218 148.531 169.458 148.377C168.698 148.223 168.03 147.771 167.601 147.121C161.125 136.646 144.746 136.649 138.267 147.121C137.837 147.767 137.17 148.216 136.412 148.369C135.654 148.521 134.867 148.366 134.222 147.936C133.578 147.507 133.129 146.838 132.974 146.076C132.818 145.314 132.969 144.522 133.393 143.872C135.526 140.619 138.428 137.95 141.838 136.103C145.249 134.256 149.062 133.289 152.936 133.289C156.809 133.289 160.622 134.256 164.033 136.103C167.444 137.95 170.345 140.619 172.478 143.872C172.905 144.522 173.058 145.316 172.904 146.08C172.749 146.843 172.3 147.514 171.654 147.945ZM180.51 137.908C180.067 137.909 179.631 137.809 179.232 137.616C178.834 137.422 178.485 137.14 178.212 136.79C166.087 120.509 139.785 120.512 127.657 136.79C125.242 139.781 120.727 136.219 123.072 133.143C137.554 113.881 168.321 113.881 182.799 133.143C184.337 134.975 182.863 137.981 180.51 137.908Z"
        fill="#010BFF" />
    <path
        d="M152.936 98C130.329 98 112.003 116.433 112.003 139.172C114.158 193.784 191.719 193.769 193.868 139.172C193.868 116.433 175.542 98 152.936 98ZM152.936 164.169C143.296 163.922 143.299 149.709 152.936 149.465C162.575 149.712 162.572 163.925 152.936 164.169ZM171.654 147.945C171.008 148.376 170.218 148.531 169.458 148.377C168.698 148.223 168.03 147.771 167.601 147.121C161.125 136.646 144.746 136.649 138.267 147.121C137.837 147.767 137.17 148.216 136.412 148.369C135.654 148.521 134.867 148.366 134.222 147.936C133.578 147.507 133.129 146.838 132.974 146.076C132.818 145.314 132.969 144.522 133.393 143.872C135.526 140.619 138.428 137.95 141.838 136.103C145.249 134.256 149.062 133.289 152.936 133.289C156.809 133.289 160.622 134.256 164.033 136.103C167.444 137.95 170.345 140.619 172.478 143.872C172.905 144.522 173.058 145.316 172.904 146.08C172.749 146.843 172.3 147.514 171.654 147.945ZM180.51 137.908C180.067 137.909 179.631 137.809 179.232 137.616C178.834 137.422 178.485 137.14 178.212 136.79C166.087 120.509 139.785 120.512 127.657 136.79C125.242 139.781 120.727 136.219 123.072 133.143C137.554 113.881 168.321 113.881 182.799 133.143C184.337 134.975 182.863 137.981 180.51 137.908Z"
        stroke="black" />
    <path
        d="M152.754 1.97932C189.4 -4.04063 217.816 3.93499 225.158 22.3154C230.777 36.3757 222.076 53.1092 201.879 67.0753C191.16 74.4893 181.868 86.3921 180.002 95.5C164.502 82 139.502 81 122.002 99.5C92.5279 54.8695 95.7284 10.7372 152.754 1.97932Z"
        fill="#010BFF" />
    <path
        d="M152.754 1.97932C189.4 -4.04063 217.816 3.93499 225.158 22.3154C230.777 36.3757 222.076 53.1092 201.879 67.0753C191.16 74.4893 181.868 86.3921 180.002 95.5C164.502 82 139.502 81 122.002 99.5C92.5279 54.8695 95.7284 10.7372 152.754 1.97932Z"
        stroke="black" />
    <path
        d="M285.438 186.689C280.054 223.434 263.832 248.09 244.09 249.508C228.988 250.596 215.683 237.228 208.504 213.745C204.693 201.282 195.114 189.041 187.002 184.5C205.527 172.249 213.539 146.56 203.122 127.13C254.592 112.588 294.396 129.695 285.438 186.689Z"
        fill="#010BFF" />
    <path
        d="M285.438 186.689C280.054 223.434 263.832 248.09 244.09 249.508C228.988 250.596 215.683 237.228 208.504 213.745C204.693 201.282 195.114 189.041 187.002 184.5C205.527 172.249 213.539 146.56 203.122 127.13C254.592 112.588 294.396 129.695 285.438 186.689Z"
        stroke="black" />
    <path
        d="M50.9319 231.338C22.2706 207.716 9.6046 181.049 18.6698 163.381C25.602 149.863 43.9769 145.364 67.8233 151.35C80.48 154.526 94.8873 153.11 103 148.5C103.159 171.089 117.5 191 145 191C130.652 242.673 95.0705 268.5 50.9319 231.338Z"
        fill="#010BFF" />
    <path
        d="M50.9319 231.338C22.2706 207.716 9.6046 181.049 18.6698 163.381C25.602 149.863 43.9769 145.364 67.8233 151.35C80.48 154.526 94.8873 153.11 103 148.5C103.159 171.089 117.5 191 145 191C130.652 242.673 95.0705 268.5 50.9319 231.338Z"
        stroke="black" />
</svg>
