<svg width="209" height="208" viewBox="0 0 209 208" fill="none" xmlns="http://www.w3.org/2000/svg">
    <path
        d="M71.5004 103.984L71.5002 103.993L71.5002 104.002C71.5166 107.87 72.2296 111.702 73.6039 115.315L41.2112 128.537L41.4002 129L41.2111 128.537C36.7469 130.36 31.9027 131.058 27.1056 130.567C22.3084 130.076 17.7056 128.413 13.7029 125.724C9.70015 123.035 6.42047 119.402 4.15293 115.146C1.88539 110.891 0.699639 106.142 0.700198 101.32L0.700198 80.392L0.700198 80.3914C0.699491 79.7808 0.858556 79.1806 1.16158 78.6505C1.46461 78.1203 1.90106 77.6787 2.42758 77.3695C2.9541 77.0602 3.55237 76.8941 4.16296 76.8876C4.77356 76.8811 5.37521 77.0344 5.90819 77.3324L5.91022 77.3335C26.4144 88.6727 48.7315 96.3631 71.8657 100.063C71.6638 101.361 71.5418 102.671 71.5004 103.984ZM103.983 136.5L103.992 136.5L104.002 136.5C107.908 136.484 111.776 135.757 115.42 134.358L128.737 167.005C130.557 171.468 131.252 176.311 130.759 181.106C130.267 185.901 128.603 190.501 125.915 194.502C123.226 198.502 119.595 201.78 115.341 204.047C111.087 206.314 106.34 207.5 101.52 207.5H80.6002C79.9906 207.5 79.3915 207.341 78.8623 207.038C78.3332 206.735 77.8922 206.3 77.5832 205.774C77.2741 205.249 77.1077 204.652 77.1003 204.042C77.0929 203.433 77.2449 202.832 77.5412 202.299L77.5417 202.298C88.9125 181.739 96.6146 159.357 100.304 136.157C101.522 136.342 102.751 136.457 103.983 136.5ZM104.014 71.5002L104.006 71.5L103.997 71.5C100.221 71.5219 96.4788 72.2083 92.9425 73.5267L79.6632 40.9952C79.6632 40.9952 79.6631 40.9951 79.6631 40.995C77.8432 36.5317 77.1487 31.6893 77.6409 26.8943C78.1331 22.0993 79.7969 17.4989 82.4857 13.4983C85.1745 9.49769 88.8059 6.21968 93.0599 3.95299C97.3139 1.68631 102.06 0.500494 106.88 0.5H127.816C128.426 0.499975 129.025 0.659173 129.554 0.961839C130.083 1.2645 130.524 1.70014 130.833 2.22561C131.142 2.75109 131.309 3.34816 131.316 3.95772C131.323 4.56729 131.172 5.16822 130.875 5.701L130.875 5.70196C119.496 26.2714 111.791 48.6663 108.105 71.8801C106.751 71.666 105.385 71.5391 104.014 71.5002Z"
        fill="#FF6B00" stroke="black" />
    <path
        d="M119.5 104C119.5 112.56 112.56 119.5 104 119.5C95.4396 119.5 88.5 112.56 88.5 104C88.5 95.4396 95.4396 88.5 104 88.5C112.56 88.5 119.5 95.4396 119.5 104Z"
        fill="#FF6B00" stroke="black" />
    <path
        d="M194.618 82.2238L194.619 82.2243C198.647 84.9052 201.95 88.5412 204.232 92.8081C206.515 97.0751 207.706 101.84 207.7 106.679V106.68V127.599C207.699 128.208 207.54 128.806 207.238 129.334C206.935 129.862 206.501 130.303 205.976 130.612C205.452 130.92 204.856 131.087 204.247 131.095C203.639 131.104 203.039 130.953 202.506 130.658C181.882 119.249 159.424 111.533 136.146 107.857C136.967 102.788 136.379 97.5905 134.447 92.8327L167.205 79.471L167.205 79.4707C171.651 77.6504 176.475 76.9496 181.255 77.4296C186.035 77.9096 190.624 79.5559 194.618 82.2238Z"
        fill="#FF6B00" stroke="black" />
</svg>
