<svg width="210" height="210" viewBox="0 0 250 250" fill="none" xmlns="http://www.w3.org/2000/svg">
    <path
        d="M169.81 105.35C176.56 102.981 183.63 104.101 191.202 105.765C196.2 106.866 201.37 108.007 207.17 108.007C214.932 108.007 222.199 105.881 229.387 101.512C240.465 94.7756 248.045 82.7245 249.662 69.2769C251.507 53.9109 245.75 38.6669 233.447 26.3651C221.234 14.1523 204.931 7.43018 187.54 7.43018C169.793 7.43018 153.057 14.392 140.415 27.0308C124.615 42.8321 114.335 68.0251 114.158 91.1304C110.398 88.3939 107.069 85.0418 105.359 80.1803C102.712 72.6621 104.132 66.2321 105.772 58.7876C108.023 48.5904 110.82 35.8991 101.521 20.6017C93.7922 7.89599 79.3214 0 63.7522 0C50.3214 0 37.0482 5.87605 26.376 16.5441C0.911156 42.0174 1.21605 83.751 27.0459 109.576C42.6389 125.173 68.2621 135.675 91.0752 135.932C88.3472 139.654 85.012 142.932 80.1912 144.631C73.4521 147.01 66.381 145.896 58.7967 144.217C53.8007 143.117 48.6301 141.974 42.8269 141.974C35.0681 141.974 27.8005 144.098 20.6134 148.467C9.53467 155.205 1.95543 167.256 0.337781 180.704C-1.50769 196.07 4.25232 211.315 16.5524 223.615C28.7644 235.828 45.0696 242.549 62.4606 242.549C80.2073 242.549 96.9445 235.587 109.586 222.949C125.386 207.148 135.665 181.956 135.844 158.851C139.601 161.586 142.931 164.939 144.643 169.799C147.289 177.317 145.87 183.747 144.228 191.193C141.977 201.389 139.18 214.081 148.48 229.378C156.209 242.086 170.68 249.982 186.25 249.982C199.681 249.982 212.954 244.105 223.627 233.438C249.086 207.97 248.787 166.236 222.956 140.406C207.363 124.807 181.739 114.306 158.928 114.051C161.654 110.327 164.991 107.049 169.81 105.35ZM135.668 135.659C129.971 141.356 120.029 141.356 114.332 135.659C108.452 129.774 108.452 120.207 114.332 114.323C115.73 112.918 117.392 111.804 119.224 111.046C121.055 110.288 123.018 109.9 125 109.906C129.032 109.906 132.819 111.475 135.669 114.323C141.548 120.207 141.548 129.774 135.668 135.659Z"
        fill="#FF008A" />
</svg>
