<svg width="250" height="250" viewBox="0 0 507 507" fill="none" xmlns="http://www.w3.org/2000/svg">
    <path
        d="M253.444 253.444C253.444 253.444 334.532 322.055 365.63 338.556C407.162 360.593 476.194 342.883 495.98 290.547C500.41 278.83 502.399 266.332 501.824 253.82C501.249 241.307 498.124 229.044 492.639 217.783L490.409 213.205C473.278 178.031 429.618 165.195 396.175 185.5C388.311 190.275 292.75 223.547 292.75 223.547L253.444 253.444ZM253.444 253.444C253.444 253.444 172.356 184.833 141.258 168.332C99.7263 146.295 30.6943 164.005 10.9083 216.341C6.4786 228.057 4.49001 240.555 5.06453 253.068C5.63905 265.58 8.76458 277.844 14.2493 289.105L16.4793 293.683C33.6103 328.857 77.2703 341.693 110.713 321.388C118.577 316.613 214.138 283.341 214.138 283.341L253.444 253.444Z"
        fill="#68C0E0" />
    <path
        d="M39.7883 293.684L37.5583 289.106C32.0736 277.845 28.9481 265.581 28.3735 253.069C27.799 240.556 29.7876 228.058 34.2173 216.342C46.8993 182.798 79.8103 163.479 112.744 159.732C73.3613 155.072 26.6163 174.793 10.9083 216.342C6.4786 228.058 4.49001 240.556 5.06453 253.069C5.63905 265.581 8.76458 277.845 14.2493 289.106L16.4793 293.684C29.9073 321.253 59.6313 335.093 87.9603 330.014C67.8313 326.437 49.5243 313.674 39.7883 293.684Z"
        fill="#3282A1" />
    <path
        d="M253.444 253.444C253.444 253.444 184.833 334.532 168.332 365.63C146.295 407.162 164.005 476.194 216.341 495.98C228.058 500.41 240.556 502.398 253.068 501.824C265.581 501.249 277.844 498.124 289.105 492.639L293.683 490.409C328.857 473.278 341.693 429.618 321.388 396.175C316.613 388.311 283.341 292.75 283.341 292.75L253.444 253.444Z"
        fill="#68C0E0" />
    <path
        d="M239.65 495.98C187.314 476.193 169.603 407.161 191.641 365.63C203.773 342.765 244.075 292.877 264.565 268.064L253.444 253.444C253.444 253.444 184.833 334.532 168.332 365.63C146.295 407.162 164.005 476.194 216.341 495.98C230.414 501.299 245.578 503.083 260.501 501.174C253.372 500.264 246.373 498.521 239.65 495.98Z"
        fill="#3282A1" />
    <path
        d="M253.444 253.444C253.444 253.444 322.055 172.356 338.556 141.258C360.593 99.7258 342.883 30.6938 290.547 10.9078C278.831 6.47812 266.332 4.48952 253.82 5.06404C241.307 5.63857 229.044 8.76409 217.783 14.2488L213.205 16.4788C178.031 33.6098 165.195 77.2698 185.5 110.713C190.275 118.577 223.547 214.138 223.547 214.138L253.444 253.444Z"
        fill="#68C0E0" />
    <path
        d="M246.855 214.138C246.855 214.138 213.583 118.577 208.808 110.713C188.503 77.2699 201.339 33.6109 236.513 16.4789L241.091 14.2489C250.097 9.86349 259.759 6.98012 269.695 5.71286C251.929 3.43964 233.886 6.40652 217.783 14.2489L213.205 16.4789C178.031 33.6099 165.195 77.2699 185.5 110.713C190.275 118.577 223.547 214.138 223.547 214.138L253.444 253.444C253.444 253.444 258.254 247.759 265.632 238.824L246.855 214.138Z"
        fill="#3282A1" />
    <path
        d="M253.443 311.489C285.5 311.489 311.487 285.502 311.487 253.445C311.487 221.388 285.5 195.401 253.443 195.401C221.387 195.401 195.399 221.388 195.399 253.445C195.399 285.502 221.387 311.489 253.443 311.489Z"
        fill="#E15F4F" />
    <path
        d="M218.708 253.445C218.708 225.38 238.627 201.968 265.098 196.573C261.263 195.793 257.359 195.4 253.444 195.402C221.387 195.402 195.4 221.389 195.4 253.446C195.4 285.503 221.387 311.49 253.444 311.49C257.436 311.49 261.333 311.086 265.098 310.319C238.627 304.922 218.708 281.51 218.708 253.445Z"
        fill="#BF3730" />
    <path
        d="M253.443 283.062C269.8 283.062 283.06 269.802 283.06 253.445C283.06 237.088 269.8 223.828 253.443 223.828C237.086 223.828 223.826 237.088 223.826 253.445C223.826 269.802 237.086 283.062 253.443 283.062Z"
        fill="#F8D250" />
    <path
        d="M247.135 253.445C247.135 241.226 254.536 230.738 265.098 226.212C261.416 224.634 257.45 223.823 253.444 223.828C237.087 223.828 223.827 237.088 223.827 253.445C223.827 269.802 237.087 283.062 253.444 283.062C257.582 283.062 261.521 282.211 265.098 280.678C254.536 276.152 247.135 265.664 247.135 253.445Z"
        fill="#F8AE46" />
    <path
        d="M497.133 215.594L494.903 211.015C486.123 192.989 470.055 179.406 450.818 173.75C431.58 168.093 410.718 170.818 393.58 181.225C388.734 184.167 339.656 201.803 303.075 214.639C301.223 212.276 299.207 210.047 297.04 207.969C315.458 184.664 334.992 158.642 342.973 143.601C355.036 120.865 356.052 89.5688 345.623 61.9248C335.538 35.1928 316.606 15.4138 292.315 6.23079C267.453 -3.16921 239.489 -1.88421 215.594 9.75279L211.015 11.9828C192.988 20.7628 179.406 36.8318 173.75 56.0688C168.094 75.3058 170.819 96.1678 181.225 113.307C184.168 118.153 201.803 167.23 214.639 203.812C212.276 205.664 210.047 207.68 207.969 209.847C184.664 191.429 158.642 171.895 143.602 163.914C120.866 151.851 89.57 150.835 61.926 161.264C35.194 171.349 15.415 190.281 6.23103 214.572C-3.16897 239.434 -1.88497 267.398 9.75403 291.293L11.984 295.872C20.764 313.898 36.832 327.481 56.068 333.137C62.6 335.055 69.3731 336.029 76.181 336.027C89.152 336.027 102.035 332.506 113.307 325.662C118.153 322.719 167.229 305.084 203.81 292.248C205.662 294.611 207.678 296.84 209.845 298.918C191.428 322.222 171.894 348.245 163.913 363.285C151.85 386.021 150.834 417.317 161.263 444.961C171.348 471.693 190.28 491.472 214.571 500.656C225.583 504.82 237.203 506.886 248.809 506.886C263.406 506.886 277.98 503.616 291.292 497.133L295.871 494.903C313.897 486.123 327.48 470.055 333.136 450.818C338.792 431.581 336.067 410.718 325.661 393.58C322.718 388.734 305.083 339.657 292.247 303.076C294.611 301.224 296.84 299.207 298.918 297.04C322.223 315.458 348.244 334.992 363.285 342.973C375.58 349.496 390.373 352.788 405.743 352.788C418.796 352.788 432.266 350.412 444.961 345.622C471.693 335.537 491.472 316.605 500.656 292.314C510.056 267.454 508.772 239.49 497.133 215.594ZM200.4 253.445C200.4 224.196 224.195 200.401 253.444 200.401C282.693 200.401 306.488 224.196 306.488 253.445C306.488 282.694 282.692 306.489 253.444 306.489C224.196 306.489 200.4 282.694 200.4 253.445ZM189.773 108.118C180.823 93.3768 178.48 75.4348 183.344 58.8898C188.208 42.3448 199.89 28.5248 215.393 20.9738L219.972 18.7438C241.402 8.30579 266.48 7.15379 288.778 15.5838C310.344 23.7368 327.209 41.4478 336.266 65.4548C345.712 90.4918 344.896 118.64 334.139 138.914C326.551 153.214 307.424 178.661 289.281 201.618C279.097 194.554 266.749 190.4 253.444 190.4C242.886 190.388 232.496 193.045 223.24 198.123C213.541 170.513 193.675 114.544 189.773 108.118ZM108.118 317.115C93.377 326.065 75.434 328.408 58.889 323.544C42.345 318.68 28.525 306.998 20.974 291.495L18.744 286.916C8.30603 265.486 7.15503 240.407 15.584 218.11C23.738 196.544 41.449 179.679 65.455 170.622C77.063 166.243 89.338 164.069 101.188 164.069C114.898 164.069 128.039 166.979 138.914 172.749C153.214 180.336 178.66 199.463 201.618 217.606C194.554 227.79 190.399 240.138 190.399 253.444C190.387 264.002 193.043 274.391 198.121 283.648C170.513 293.347 114.544 313.213 108.118 317.115ZM317.114 398.77C326.064 413.511 328.407 431.454 323.543 447.998C318.679 464.542 306.997 478.362 291.493 485.914L286.914 488.144C265.484 498.582 240.404 499.733 218.108 491.304C196.542 483.15 179.677 465.439 170.62 441.433C161.175 416.396 161.99 388.248 172.747 367.974C180.334 353.674 199.461 328.228 217.604 305.271C227.788 312.335 240.136 316.49 253.442 316.49C264 316.502 274.39 313.845 283.646 308.767C293.347 336.376 313.213 392.344 317.114 398.77ZM491.303 288.779C483.149 310.345 465.438 327.21 441.432 336.267C416.394 345.712 388.247 344.897 367.974 334.14C353.674 326.552 328.227 307.425 305.27 289.283C312.334 279.099 316.488 266.751 316.488 253.446C316.5 242.888 313.843 232.498 308.765 223.241C336.373 213.543 392.344 193.676 398.77 189.774C413.51 180.823 431.453 178.481 447.998 183.345C464.543 188.209 478.362 199.891 485.914 215.395L488.144 219.974C498.581 241.403 499.732 266.482 491.303 288.779Z"
        fill="black" />
    <path
        d="M288.061 253.445C288.061 234.357 272.532 218.828 253.444 218.828C234.356 218.828 218.826 234.357 218.826 253.445C218.826 272.533 234.355 288.062 253.443 288.062C272.531 288.062 288.061 272.533 288.061 253.445ZM228.826 253.445C228.826 239.871 239.869 228.828 253.443 228.828C267.017 228.828 278.06 239.871 278.06 253.445C278.06 267.019 267.017 278.062 253.444 278.062C239.871 278.062 228.826 267.019 228.826 253.445Z"
        fill="black" />
</svg>
