<svg width="250" height="250" viewBox="0 0 250 250" fill="none" xmlns="http://www.w3.org/2000/svg">
<path d="M144.911 114.603L146.117 116.907L148.371 115.611C160.052 108.897 184.91 98.205 214.933 106.24C235.192 111.662 244.629 128.086 246.933 145.781C248.086 154.634 247.425 163.703 245.448 171.64C243.656 178.833 240.826 184.932 237.443 189.092L237.31 189.037L236.145 190.56C219.599 212.187 185.322 199.027 186.911 172.257L187.02 170.411L186.801 170.329C186.719 169.312 186.564 167.893 186.271 166.191C185.671 162.705 184.483 157.983 182.125 153.071C177.365 143.158 167.856 132.563 149.259 129.794L147.125 129.476L146.498 131.54C144.738 137.338 140.689 142.141 135.397 144.912L133.093 146.118L134.389 148.372C141.103 160.053 151.794 184.907 143.758 214.933L146.173 215.579L143.758 214.933C138.337 235.192 121.913 244.629 104.218 246.933C95.3658 248.086 86.2969 247.425 78.3602 245.448C71.1102 243.642 64.9718 240.782 60.8106 237.363L60.8558 237.228L59.4394 236.144C44.5282 224.737 45.2259 202.178 60.5966 191.647L60.5967 191.647C65.8265 188.063 71.8549 186.561 77.7412 186.911L79.6021 187.021L79.6826 186.8C80.6989 186.717 82.1126 186.563 83.8075 186.271C87.294 185.67 92.0157 184.483 96.928 182.124C106.842 177.365 117.437 167.856 120.205 149.258L120.523 147.125L118.459 146.498C112.661 144.737 107.858 140.688 105.088 135.396L103.882 133.092L101.628 134.388C89.9468 141.103 65.0902 151.793 35.0673 143.757L35.0671 143.757C14.8086 138.336 5.37113 121.913 3.06665 104.217C1.91382 95.365 2.57487 86.2958 4.55185 78.3588C6.33788 71.1884 9.1558 65.1052 12.5246 60.9465L12.6586 61.0061L13.8572 59.4382C25.2539 44.5302 47.8219 45.2237 58.3541 60.5956C61.9369 65.8251 63.4398 71.853 63.0894 77.7406L62.9786 79.6009L63.2001 79.6815C63.2824 80.6979 63.4373 82.1118 63.7292 83.807C64.3295 87.2935 65.5169 92.0151 67.8753 96.9274C72.6349 106.841 82.1433 117.436 100.741 120.204L102.874 120.522L103.501 118.458C105.263 112.66 109.311 107.858 114.602 105.088L116.906 103.883L115.61 101.628C108.897 89.9463 98.2065 65.0887 106.242 35.0673L106.242 35.0672C111.663 14.8086 128.087 5.37113 145.782 3.06665C154.635 1.91382 163.704 2.57487 171.64 4.55184C178.834 6.34372 184.933 9.17425 189.093 12.5577L189.038 12.6913L190.561 13.8561C205.47 25.2558 204.775 47.8214 189.403 58.3531L189.403 58.3534C184.174 61.9376 178.146 63.4394 172.259 63.0893L170.396 62.9786L170.316 63.2002C169.3 63.2826 167.887 63.4375 166.193 63.7292C162.706 64.3294 157.984 65.5168 153.072 67.875C143.158 72.6343 132.563 82.1422 129.795 100.739L129.477 102.871L131.54 103.499C137.339 105.262 142.141 109.311 144.911 114.603ZM112.061 125C112.061 132.146 117.854 137.939 125 137.939C132.146 137.939 137.939 132.146 137.939 125C137.939 117.855 132.146 112.061 125 112.061C117.854 112.061 112.061 117.854 112.061 125Z" fill="#8F00FF" stroke="black" stroke-width="5"/>
<path d="M67.9761 234.109L67.9819 234.092C51.3774 221.389 52.5561 196.085 70.1777 184.936C45.0469 189.957 37.4673 222.469 57.9204 238.116L57.9145 238.134C70.3896 249.833 101.855 255.129 124.109 243.398C103.28 249.45 78.6616 244.131 67.9761 234.109ZM95.6826 140.266C82.3799 144.746 64.5644 147.509 44.4824 142.134C1.4082 130.608 4.85693 72.061 21.915 53.874L21.9326 53.8818C24.0747 51.0796 26.6343 48.6973 29.7866 46.7099C22.8423 48.0981 16.4204 51.9556 11.8711 57.9067L11.8535 57.8989C-5.20459 76.0859 -8.65332 134.633 34.4209 146.159C60.1274 153.039 82.1196 146.588 95.6826 140.266ZM119.555 91.165C119.552 91.1586 119.55 91.1524 119.548 91.1462C119.546 91.1402 119.543 91.1342 119.541 91.1279C113.299 77.5263 107.095 55.7637 113.888 30.3833C117.508 16.8569 125.766 7.92041 135.953 2.55078C121.333 6.79785 108.581 16.6436 103.827 34.4082C95.5488 65.3364 106.571 90.9028 113.443 102.861L113.444 102.86C113.577 102.805 122.744 98.9899 119.555 91.165ZM194.477 168.071L194.456 168.063C194.456 168.063 194.228 133.48 158.952 128.228C149.343 127.139 148.891 132.253 148.891 132.253C153.019 132.868 157.143 133.971 160.984 135.671C184.216 145.948 184.394 172.088 184.394 172.088L184.415 172.096C182.972 196.42 209.692 212.194 230.274 199.238C210.937 203.102 193.315 187.635 194.477 168.071Z" fill="#3587AF"/>
<path d="M67.9761 234.109L67.9819 234.092C51.3774 221.389 52.5561 196.085 70.1777 184.936C45.0469 189.957 37.4673 222.469 57.9204 238.116L57.9145 238.134C70.3896 249.833 101.855 255.129 124.109 243.398C103.28 249.45 78.6616 244.131 67.9761 234.109ZM95.6826 140.266C82.3799 144.746 64.5644 147.509 44.4824 142.134C1.4082 130.608 4.85693 72.061 21.915 53.874L21.9326 53.8818C24.0747 51.0796 26.6343 48.6973 29.7866 46.7099C22.8423 48.0981 16.4204 51.9556 11.8711 57.9067L11.8535 57.8989C-5.20459 76.0859 -8.65332 134.633 34.4209 146.159C60.1274 153.039 82.1196 146.588 95.6826 140.266ZM119.555 91.165C119.552 91.1586 119.55 91.1524 119.548 91.1462C119.546 91.1402 119.543 91.1342 119.541 91.1279C113.299 77.5263 107.095 55.7637 113.888 30.3833C117.508 16.8569 125.766 7.92041 135.953 2.55078C121.333 6.79785 108.581 16.6436 103.827 34.4082C95.5488 65.3364 106.571 90.9028 113.443 102.861L113.444 102.86C113.577 102.805 122.744 98.9899 119.555 91.165ZM194.477 168.071L194.456 168.063C194.456 168.063 194.228 133.48 158.952 128.228C149.343 127.139 148.891 132.253 148.891 132.253C153.019 132.868 157.143 133.971 160.984 135.671C184.216 145.948 184.394 172.088 184.394 172.088L184.415 172.096C182.972 196.42 209.692 212.194 230.274 199.238C210.937 203.102 193.315 187.635 194.477 168.071Z" stroke="black"/>
</svg>
