<svg width="250" height="250" viewBox="0 0 250 250" fill="none" xmlns="http://www.w3.org/2000/svg">
<path d="M144.911 114.603L146.117 116.907L148.371 115.611C160.052 108.897 184.91 98.205 214.933 106.24C235.192 111.662 244.629 128.086 246.933 145.781C248.086 154.634 247.425 163.703 245.448 171.64C243.656 178.833 240.826 184.932 237.443 189.092L237.31 189.037L236.145 190.56C219.599 212.187 185.322 199.027 186.911 172.257L187.02 170.411L186.801 170.329C186.719 169.312 186.564 167.893 186.271 166.191C185.671 162.705 184.483 157.983 182.125 153.071C177.365 143.158 167.856 132.563 149.259 129.794L147.125 129.476L146.498 131.54C144.738 137.338 140.689 142.141 135.397 144.912L133.093 146.118L134.389 148.372C141.103 160.053 151.794 184.907 143.758 214.933L146.173 215.579L143.758 214.933C138.337 235.192 121.913 244.629 104.218 246.933C95.3658 248.086 86.2969 247.425 78.3602 245.448C71.1102 243.642 64.9718 240.782 60.8106 237.363L60.8558 237.228L59.4394 236.144C44.5282 224.737 45.2259 202.178 60.5966 191.647L60.5967 191.647C65.8265 188.063 71.8549 186.561 77.7412 186.911L79.6021 187.021L79.6826 186.8C80.6989 186.717 82.1126 186.563 83.8075 186.271C87.294 185.67 92.0157 184.483 96.928 182.124C106.842 177.365 117.437 167.856 120.205 149.258L120.523 147.125L118.459 146.498C112.661 144.737 107.858 140.688 105.088 135.396L103.882 133.092L101.628 134.388C89.9468 141.103 65.0902 151.793 35.0673 143.757L35.0671 143.757C14.8086 138.336 5.37113 121.913 3.06665 104.217C1.91382 95.365 2.57487 86.2958 4.55185 78.3588C6.33788 71.1884 9.1558 65.1052 12.5246 60.9465L12.6586 61.0061L13.8572 59.4382C25.2539 44.5302 47.8219 45.2237 58.3541 60.5956C61.9369 65.8251 63.4398 71.853 63.0894 77.7406L62.9786 79.6009L63.2001 79.6815C63.2824 80.6979 63.4373 82.1118 63.7292 83.807C64.3295 87.2935 65.5169 92.0151 67.8753 96.9274C72.6349 106.841 82.1433 117.436 100.741 120.204L102.874 120.522L103.501 118.458C105.263 112.66 109.311 107.858 114.602 105.088L116.906 103.883L115.61 101.628C108.897 89.9463 98.2065 65.0887 106.242 35.0673L106.242 35.0672C111.663 14.8086 128.087 5.37113 145.782 3.06665C154.635 1.91382 163.704 2.57487 171.64 4.55184C178.834 6.34372 184.933 9.17425 189.093 12.5577L189.038 12.6913L190.561 13.8561C205.47 25.2558 204.775 47.8214 189.403 58.3531L189.403 58.3534C184.174 61.9376 178.146 63.4394 172.259 63.0893L170.396 62.9786L170.316 63.2002C169.3 63.2826 167.887 63.4375 166.193 63.7292C162.706 64.3294 157.984 65.5168 153.072 67.875C143.158 72.6343 132.563 82.1422 129.795 100.739L129.477 102.871L131.54 103.499C137.339 105.262 142.141 109.311 144.911 114.603ZM112.061 125C112.061 132.146 117.854 137.939 125 137.939C132.146 137.939 137.939 132.146 137.939 125C137.939 117.855 132.146 112.061 125 112.061C117.854 112.061 112.061 117.854 112.061 125Z" fill="#7E00FC" stroke="#7E00FC" stroke-width="5"/>
<path d="M58.6518 193.016C50.207 206.505 52.5071 225.202 66.2196 235.889L66.2658 235.933C72.0823 241.388 81.4227 245.365 91.7936 247.242C92.1853 247.312 92.5789 247.38 92.9742 247.445C91.1711 247.385 89.3804 247.258 87.6134 247.067C76.498 245.865 66.6999 242.187 60.811 237.35L60.8562 237.214L59.4394 236.131C44.5216 224.718 45.8785 203.519 58.6518 193.016ZM17.1777 55.7981C13.9381 60.4812 11.4081 66.502 9.76161 73.1122C7.64043 81.6282 6.93304 91.3263 8.17004 100.825C10.6452 119.831 21.0205 138.444 43.8361 144.549C47.0385 145.406 50.1848 146.062 53.2662 146.541C47.479 146.298 41.388 145.436 35.0672 143.744L35.0671 143.744C14.8086 138.323 5.37113 121.9 3.06665 104.204C1.91382 95.3518 2.57487 86.2826 4.55185 78.3456C6.33788 71.1752 9.1558 65.092 12.5246 60.9333L12.6587 60.9929L13.8572 59.425C14.8692 58.1012 15.9819 56.8907 17.1777 55.7981ZM106.242 35.0546L106.242 35.0545C108.514 26.5641 112.708 19.9892 118.109 15.0411C115.25 19.2361 112.978 24.1148 111.473 29.7369C104.492 55.8201 110.856 78.169 117.237 92.1016C117.239 92.1059 117.241 92.1103 117.243 92.1148C117.842 93.5881 117.812 94.7264 117.553 95.6253C117.281 96.5712 116.698 97.4351 115.932 98.2048C115.445 98.694 114.915 99.1139 114.412 99.4605C107.725 87.0447 98.6706 63.3419 106.242 35.0546ZM216.268 201.315C200.717 202.393 185.873 189.728 186.911 172.244L187.02 170.398L186.801 170.316C186.741 169.571 186.641 168.611 186.477 167.483C186.078 164.738 185.292 160.967 183.74 156.851C180.633 148.611 174.4 138.872 161.996 133.385C159.488 132.275 156.88 131.41 154.239 130.759C155.266 130.564 156.684 130.491 158.628 130.708C175.277 133.201 183.51 142.514 187.679 151.197C189.787 155.587 190.861 159.84 191.405 163.002C191.677 164.579 191.815 165.873 191.885 166.763C191.919 167.207 191.937 167.549 191.946 167.774C191.951 167.886 191.953 167.969 191.954 168.021L191.955 168.074L191.956 168.079V168.081L191.956 168.083V168.083L191.957 168.367C191.224 184.282 201.961 197.617 216.268 201.315Z" stroke="black" stroke-width="5"/>
</svg>
