<svg width="360" height="800" viewBox="0 0 360 800" fill="none" xmlns="http://www.w3.org/2000/svg">
<g clip-path="url(#clip0_1340_2294)">
<rect width="360" height="800" fill="white"/>
<rect x="27" y="-2.97656" width="306" height="485.787" fill="url(#paint0_linear_1340_2294)"/>
<path d="M0 -7H27V483.025L0 516V-7Z" fill="url(#paint1_linear_1340_2294)"/>
<path d="M360 -7H333V482.083L360 514.994V-7Z" fill="url(#paint2_linear_1340_2294)"/>
<path d="M45 23.1729H315L295.791 52.3402H63.6759L45 23.1729Z" fill="url(#paint3_linear_1340_2294)"/>
<path d="M45 23.1729L63 49.2387V430.452L45 451.631V23.1729Z" fill="url(#paint4_linear_1340_2294)"/>
<path d="M315 23.1729L297 49.2999V431.408L315 452.636V23.1729Z" fill="url(#paint5_linear_1340_2294)"/>
<rect x="63" y="52.3408" width="234" height="379.175" fill="#3FBAB3"/>
<path d="M61.5 430.51H297L313.25 450.122L310 460.18L313.25 469.735H40.5L42.5 460.683L45 450.625L61.5 430.51Z" fill="url(#paint6_linear_1340_2294)"/>
<rect x="45" y="28.1729" width="270" height="436.562" stroke="#471038" stroke-width="10"/>
<path d="M282 409.388V114.195L244.5 83.0163L169.5 68.4326L121 83.0163L79 114.195L71 409.388H282Z" fill="#5CD8F4"/>
<path d="M176 57.8398H184C241.161 57.8398 287.5 104.178 287.5 161.34V414.951H72.5V161.34C72.5 104.178 118.839 57.8398 176 57.8398Z" stroke="url(#paint7_linear_1340_2294)" stroke-width="11"/>
<path d="M176 68.9033H184C241.161 68.9033 287.5 115.242 287.5 172.403V426.015H72.5V172.403C72.5 115.242 118.839 68.9033 176 68.9033Z" stroke="url(#paint8_linear_1340_2294)" stroke-width="11"/>
<rect x="78" y="237.401" width="204" height="12.0692" fill="url(#paint9_linear_1340_2294)"/>
<rect x="175" y="249.471" width="10" height="159.917" fill="url(#paint10_linear_1340_2294)"/>
<rect x="78" y="325.909" width="97" height="5.02885" fill="url(#paint11_linear_1340_2294)"/>
<rect x="185" y="312.834" width="97" height="5.02885" fill="url(#paint12_linear_1340_2294)"/>
<path d="M102.21 167.315C123.656 167.315 145.093 167.315 166.54 167.315C177.912 167.315 189.294 167.315 200.667 167.315C203.221 167.315 222.782 168.822 223.522 166.242C223.847 165.119 222.053 163.359 221.809 162.458C221.394 160.91 223.228 159.291 220.593 158.158C218.738 157.359 216.458 158.31 215.262 159.939C214.198 157.591 209.91 158.188 209.525 160.738C209.039 158.856 206.444 158.714 204.518 158.977C203.15 159.17 201.771 159.362 200.403 159.554C198.082 156.114 194.839 153.291 191.109 151.47C186.629 149.274 180.152 149.112 177.689 153.453C176.057 151.369 172.358 151.47 170.838 153.645C170.219 148.141 166.043 142.981 160.58 141.999C155.117 141.028 149.026 145.025 148.468 150.539C147.455 149.335 145.438 149.497 144.191 150.458C142.944 151.419 142.286 152.937 141.667 154.394C138.941 151.824 133.721 152.967 132.322 156.438C130.974 153.473 126.403 152.674 124.133 155.011C122.471 151.824 120.565 148.384 117.23 147.018C113.896 145.652 109.051 148.009 109.578 151.561C105.96 151.035 103.324 154.789 101.632 158.036C100.821 159.574 100 161.203 100 162.944C100 164.674 100.476 167.112 102.21 167.315Z" fill="white"/>
<path d="M152.778 108.026C152.778 108.026 155.089 108.785 157.035 108.917C158.981 109.048 161.484 109.605 161.748 109.837C162.011 110.07 161.322 110.303 160.957 110.89C160.592 111.487 160.359 112.701 159.569 112.407C158.778 112.114 156.072 110.991 155.251 110.667C154.43 110.333 153.538 109.979 152.646 110.404C151.754 110.829 150.102 111.092 149.514 111.031C149.514 111.031 147.274 115.837 145.227 118.073C143.179 120.31 138 124.033 138 124.033C138 124.033 139.125 119.915 139.449 118.073C139.784 116.232 140.97 111.254 142.287 110.04C143.605 108.826 145.227 109.311 144.335 108.39C143.443 107.47 142.916 106.873 141.041 107.045L142.389 106.286C142.389 106.286 142.652 104.677 144.436 104.313C146.22 103.949 146.848 105.173 147.041 105.365C147.244 105.568 147.639 105.729 148.034 105.729C148.43 105.729 148.663 104.677 148.5 104.151C148.338 103.625 148.075 101.348 153.082 97.9284C158.099 94.5085 162.781 90.5523 161.464 93.7496C161.464 93.7496 160.379 95.4899 159.68 95.9857C159.68 95.9857 159.214 98.0599 157.866 99.9722C156.518 101.885 155.322 102.643 155.099 103.989C154.866 105.325 153.771 107.46 152.778 108.026Z" fill="#487E47"/>
<path d="M152.21 210.563C173.656 210.563 195.093 210.563 216.54 210.563C227.912 210.563 239.294 210.563 250.667 210.563C253.221 210.563 272.782 212.07 273.522 209.49C273.847 208.367 272.053 206.607 271.809 205.706C271.394 204.158 273.228 202.539 270.593 201.406C268.738 200.607 266.458 201.558 265.262 203.187C264.198 200.839 259.91 201.436 259.525 203.986C259.039 202.104 256.444 201.962 254.518 202.226C253.15 202.418 251.771 202.61 250.403 202.802C248.082 199.362 244.839 196.539 241.109 194.718C236.629 192.522 230.152 192.36 227.689 196.701C226.057 194.617 222.358 194.718 220.838 196.893C220.219 191.389 216.043 186.229 210.58 185.247C205.117 184.276 199.026 188.273 198.468 193.787C197.455 192.583 195.438 192.745 194.191 193.706C192.944 194.667 192.286 196.185 191.667 197.642C188.941 195.072 183.721 196.215 182.322 199.686C180.974 196.721 176.403 195.922 174.133 198.259C172.471 195.072 170.565 191.632 167.23 190.266C163.896 188.9 159.051 191.258 159.578 194.809C155.96 194.283 153.324 198.037 151.632 201.285C150.821 202.822 150 204.451 150 206.192C150 207.922 150.476 210.36 152.21 210.563Z" fill="white"/>
<path d="M25.7521 483H334.904L388 549L426.726 631.021L508 800H-194L-96.5 634.5L25.7521 483Z" fill="url(#paint13_linear_1340_2294)"/>
<path d="M132.414 380.894C131.633 380.56 130.719 380.956 130.219 381.832C129.146 379.893 126.966 379.281 125.423 380.497C124.913 378.83 122.86 378.698 122.237 380.296C120.725 379.288 118.887 379.254 117.35 380.185C116.262 378.948 114.72 378.489 113.357 379.003C113.413 376.919 112.958 374.772 111.942 373.215C110.926 371.658 109.307 370.783 107.811 371.221C108.786 369.567 108.291 366.732 106.876 365.842C106.463 365.585 106.008 365.474 105.579 365.265C104.869 364.918 104.231 364.272 103.485 364.091C102.74 363.91 101.8 364.459 101.764 365.488C100.774 364.029 98.7464 364.355 98.0366 366.085C96.3361 364.765 96.1778 360.644 94.2322 360.36C95.0646 359.004 94.9369 356.753 93.9564 355.593C92.976 354.432 91.3163 354.571 90.4482 355.884C90.2592 355.113 89.6566 354.564 89.0592 354.62C88.7528 354.648 88.4617 354.814 88.1604 354.891C86.7356 355.238 85.5356 353.536 84.6317 352C84.453 353.105 83.3908 353.383 82.5584 353.313C81.726 353.244 80.72 353.174 80.2553 354.112C80.0051 354.613 80 355.252 80 355.85C80.0204 365.814 80.046 375.779 80.0664 385.744C80.0664 386.8 80.1021 387.974 80.6485 388.732C81.0673 389.316 81.6903 389.503 82.2725 389.67C91.6329 392.241 101.157 393.673 110.701 393.95C115.532 394.089 120.363 393.937 125.183 393.485C128.666 393.158 133.967 393.791 136.566 390.017C139.349 385.987 137.884 382.075 133.87 383.284C133.691 382.242 133.221 381.234 132.414 380.894Z" fill="#006838"/>
<path d="M281.51 526.88H77L96.58 503H261.93L281.51 526.88Z" fill="#97DDB3" stroke="#471038" stroke-width="0.25" stroke-miterlimit="10" stroke-linecap="round" stroke-linejoin="round"/>
<path d="M268.46 525.2H90.05L105.32 504.13H253.19L268.46 525.2Z" fill="#97DDB3" stroke="#0A4B4C" stroke-width="0.25" stroke-miterlimit="10" stroke-linecap="round" stroke-linejoin="round"/>
<path d="M119.29 504.17L106.93 525.2ZM132.61 504.17L123 525.2ZM145.94 504.17L139.07 525.2ZM159.27 504.17L155.15 525.2ZM172.59 504.17L171.22 525.2ZM185.92 504.17L187.29 525.2ZM199.24 504.17L203.36 525.2ZM212.57 504.17L219.44 525.2ZM225.9 504.17L235.51 525.2ZM239.22 504.17L251.58 525.2ZM254.99 506.61H103.52ZM256.97 509.34H101.54ZM259.05 512.21H99.46ZM261.24 515.24H97.27ZM263.56 518.44H94.95ZM266.02 521.83H92.49Z" fill="white"/>
<path d="M119.29 504.17L106.93 525.2M132.61 504.17L123 525.2M145.94 504.17L139.07 525.2M159.27 504.17L155.15 525.2M172.59 504.17L171.22 525.2M185.92 504.17L187.29 525.2M199.24 504.17L203.36 525.2M212.57 504.17L219.44 525.2M225.9 504.17L235.51 525.2M239.22 504.17L251.58 525.2M254.99 506.61H103.52M256.97 509.34H101.54M259.05 512.21H99.46M261.24 515.24H97.27M263.56 518.44H94.95M266.02 521.83H92.49" stroke="#0A4B4C" stroke-width="0.25" stroke-miterlimit="10" stroke-linecap="round" stroke-linejoin="round"/>
</g>
<defs>
<linearGradient id="paint0_linear_1340_2294" x1="180" y1="-2.97656" x2="180" y2="514.69" gradientUnits="userSpaceOnUse">
<stop stop-color="#006365"/>
<stop offset="0.935" stop-color="#85FDFF"/>
</linearGradient>
<linearGradient id="paint1_linear_1340_2294" x1="14" y1="-39.4315" x2="13.7669" y2="516" gradientUnits="userSpaceOnUse">
<stop stop-color="#0FA6A9"/>
<stop offset="1" stop-color="#093C3D"/>
</linearGradient>
<linearGradient id="paint2_linear_1340_2294" x1="346" y1="-39.3691" x2="346.232" y2="514.994" gradientUnits="userSpaceOnUse">
<stop stop-color="#0FA6A9"/>
<stop offset="1" stop-color="#093C3D"/>
</linearGradient>
<linearGradient id="paint3_linear_1340_2294" x1="45" y1="37.7565" x2="315" y2="37.7565" gradientUnits="userSpaceOnUse">
<stop stop-color="#21B3B5"/>
<stop offset="1" stop-color="#0B6D6F"/>
</linearGradient>
<linearGradient id="paint4_linear_1340_2294" x1="54" y1="30.7228" x2="54" y2="451.631" gradientUnits="userSpaceOnUse">
<stop stop-color="#23BBBD"/>
<stop offset="1" stop-color="#065D5F"/>
</linearGradient>
<linearGradient id="paint5_linear_1340_2294" x1="306" y1="30.7405" x2="306" y2="452.636" gradientUnits="userSpaceOnUse">
<stop stop-color="#23BBBD"/>
<stop offset="1" stop-color="#065D5F"/>
</linearGradient>
<linearGradient id="paint6_linear_1340_2294" x1="174" y1="419.949" x2="174" y2="469.735" gradientUnits="userSpaceOnUse">
<stop stop-color="#4E6E6F"/>
<stop offset="1" stop-color="#03787A"/>
</linearGradient>
<linearGradient id="paint7_linear_1340_2294" x1="180" y1="52.3398" x2="180" y2="420.451" gradientUnits="userSpaceOnUse">
<stop stop-color="#CFFEE0"/>
<stop offset="1" stop-color="#88B999"/>
</linearGradient>
<linearGradient id="paint8_linear_1340_2294" x1="180" y1="63.4033" x2="180" y2="431.515" gradientUnits="userSpaceOnUse">
<stop stop-color="#A2E6E8"/>
<stop offset="1" stop-color="#A1E1B9"/>
</linearGradient>
<linearGradient id="paint9_linear_1340_2294" x1="189.917" y1="237.401" x2="189.381" y2="261.036" gradientUnits="userSpaceOnUse">
<stop stop-color="#A3E7BD"/>
<stop offset="1" stop-color="#75BF96"/>
</linearGradient>
<linearGradient id="paint10_linear_1340_2294" x1="165" y1="328.945" x2="193.5" y2="328.945" gradientUnits="userSpaceOnUse">
<stop stop-color="#9BDBB2"/>
<stop offset="0.0001" stop-color="#B0E0C1"/>
<stop offset="1" stop-color="#72CA93"/>
</linearGradient>
<linearGradient id="paint11_linear_1340_2294" x1="118.936" y1="320.377" x2="118.936" y2="338.984" gradientUnits="userSpaceOnUse">
<stop stop-color="#CBFADC"/>
<stop offset="1" stop-color="#528965"/>
</linearGradient>
<linearGradient id="paint12_linear_1340_2294" x1="225.936" y1="307.302" x2="225.936" y2="325.909" gradientUnits="userSpaceOnUse">
<stop stop-color="#CBFADC"/>
<stop offset="1" stop-color="#528965"/>
</linearGradient>
<linearGradient id="paint13_linear_1340_2294" x1="157" y1="483" x2="157" y2="800" gradientUnits="userSpaceOnUse">
<stop stop-color="#4C7D7D"/>
<stop offset="1" stop-color="#132323"/>
</linearGradient>
<clipPath id="clip0_1340_2294">
<rect width="360" height="800" fill="white"/>
</clipPath>
</defs>
</svg>
