<svg width="360" height="800" viewBox="0 0 360 800" fill="none" xmlns="http://www.w3.org/2000/svg">
<g clip-path="url(#clip0_1198_2104)">
<rect width="360" height="800" fill="#513622"/>
<path d="M-29 751.592V694.099L60.594 723.302V780.795L-29 751.592Z" stroke="#774848" stroke-width="5"/>
<path d="M59.5888 723.255L146.338 694.099L149.554 751.843L62.8042 781L59.5888 723.255Z" stroke="url(#paint0_linear_1198_2104)" stroke-width="5"/>
<path d="M59.1014 665L-27.3711 692.841L59.1014 721.697L146.387 692.841L59.1014 665Z" stroke="url(#paint1_linear_1198_2104)" stroke-width="5"/>
<path d="M279.203 -4.6803C281.474 -6.09951 284.354 -6.09952 286.625 -4.6803L302.649 5.33726L317.128 17.4816C319.179 19.2022 320.069 21.942 319.421 24.5397L314.846 42.8752L307.77 60.3984C306.768 62.881 304.437 64.5743 301.766 64.7605L282.914 66.075L264.062 64.7606C261.391 64.5743 259.061 62.881 258.058 60.3984L250.982 42.8752L246.407 24.5397C245.759 21.942 246.649 19.2022 248.7 17.4816L263.179 5.33726L279.203 -4.6803Z" fill="url(#paint2_linear_1198_2104)"/>
<path d="M281.203 -1.6803C283.474 -3.09951 286.354 -3.09952 288.625 -1.6803L304.649 8.33726L319.128 20.4816C321.179 22.2022 322.069 24.942 321.421 27.5397L316.846 45.8752L309.77 63.3984C308.768 65.881 306.437 67.5743 303.766 67.7605L284.914 69.075L266.062 67.7606C263.391 67.5743 261.061 65.881 260.058 63.3984L252.982 45.8752L248.407 27.5397C247.759 24.942 248.649 22.2022 250.7 20.4816L265.179 8.33726L281.203 -1.6803Z" fill="url(#paint3_linear_1198_2104)"/>
<path d="M325.203 -4.6803C327.474 -6.09951 330.354 -6.09952 332.625 -4.6803L348.649 5.33726L363.128 17.4816C365.179 19.2022 366.069 21.942 365.421 24.5397L360.846 42.8752L353.77 60.3984C352.768 62.881 350.437 64.5743 347.766 64.7605L328.914 66.075L310.062 64.7606C307.391 64.5743 305.061 62.881 304.058 60.3984L296.982 42.8752L292.407 24.5397C291.759 21.942 292.649 19.2022 294.7 17.4816L309.179 5.33726L325.203 -4.6803Z" fill="url(#paint4_linear_1198_2104)"/>
<path d="M327.203 -1.6803C329.474 -3.09951 332.354 -3.09952 334.625 -1.6803L350.649 8.33726L365.128 20.4816C367.179 22.2022 368.069 24.942 367.421 27.5397L362.846 45.8752L355.77 63.3984C354.768 65.881 352.437 67.5743 349.766 67.7605L330.914 69.075L312.062 67.7606C309.391 67.5743 307.061 65.881 306.058 63.3984L298.982 45.8752L294.407 27.5397C293.759 24.942 294.649 22.2022 296.7 20.4816L311.179 8.33726L327.203 -1.6803Z" fill="url(#paint5_linear_1198_2104)"/>
<path d="M320.203 43.3197C322.474 41.9005 325.354 41.9005 327.625 43.3197L343.649 53.3373L358.128 65.4816C360.179 67.2022 361.069 69.942 360.421 72.5397L355.846 90.8752L348.77 108.398C347.768 110.881 345.437 112.574 342.766 112.761L323.914 114.075L305.062 112.761C302.391 112.574 300.061 110.881 299.058 108.398L291.982 90.8752L287.407 72.5397C286.759 69.942 287.649 67.2022 289.7 65.4816L304.179 53.3373L320.203 43.3197Z" fill="url(#paint6_linear_1198_2104)"/>
<path d="M322.203 46.3197C324.474 44.9005 327.354 44.9005 329.625 46.3197L345.649 56.3373L360.128 68.4816C362.179 70.2022 363.069 72.942 362.421 75.5397L357.846 93.8752L350.77 111.398C349.768 113.881 347.437 115.574 344.766 115.761L325.914 117.075L307.062 115.761C304.391 115.574 302.061 113.881 301.058 111.398L293.982 93.8752L289.407 75.5397C288.759 72.942 289.649 70.2022 291.7 68.4816L306.179 56.3373L322.203 46.3197Z" fill="url(#paint7_linear_1198_2104)"/>
<path d="M284.203 51.3197C286.474 49.9005 289.354 49.9005 291.625 51.3197L307.649 61.3373L322.128 73.4816C324.179 75.2022 325.069 77.942 324.421 80.5397L319.846 98.8752L312.77 116.398C311.768 118.881 309.437 120.574 306.766 120.761L287.914 122.075L269.062 120.761C266.391 120.574 264.061 118.881 263.058 116.398L255.982 98.8752L251.407 80.5397C250.759 77.942 251.649 75.2022 253.7 73.4816L268.179 61.3373L284.203 51.3197Z" fill="url(#paint8_linear_1198_2104)"/>
<path d="M286.203 54.3197C288.474 52.9005 291.354 52.9005 293.625 54.3197L309.649 64.3373L324.128 76.4816C326.179 78.2022 327.069 80.942 326.421 83.5397L321.846 101.875L314.77 119.398C313.768 121.881 311.437 123.574 308.766 123.761L289.914 125.075L271.062 123.761C268.391 123.574 266.061 121.881 265.058 119.398L257.982 101.875L253.407 83.5397C252.759 80.942 253.649 78.2022 255.7 76.4816L270.179 64.3373L286.203 54.3197Z" fill="url(#paint9_linear_1198_2104)"/>
<path d="M263.315 25.2826C265.853 24.4294 268.655 25.0985 270.534 27.0061L283.793 40.4712L295.056 55.646C296.652 57.7959 296.881 60.6676 295.648 63.0437L286.939 79.8154L275.987 95.2163C274.436 97.3981 271.775 98.5039 269.134 98.0648L250.493 94.9652L232.461 89.3086C229.907 88.5072 228.033 86.3189 227.634 83.6714L224.822 64.9841L224.629 46.0872C224.602 43.4101 226.104 40.9519 228.499 39.7548L245.403 31.3049L263.315 25.2826Z" fill="url(#paint10_linear_1198_2104)"/>
<path d="M264.564 28.6655C267.101 27.8123 269.903 28.4813 271.782 30.3889L285.042 43.854L296.305 59.0289C297.9 61.1787 298.13 64.0504 296.896 66.4265L288.188 83.1982L277.236 98.5991C275.684 100.781 273.024 101.887 270.383 101.448L251.741 98.348L233.71 92.6914C231.155 91.89 229.281 89.7017 228.883 87.0543L226.07 68.3669L225.878 49.4701C225.851 46.7929 227.353 44.3347 229.748 43.1376L246.651 34.6877L264.564 28.6655Z" fill="url(#paint11_linear_1198_2104)"/>
<path d="M73.2106 -4.6803C70.9404 -6.09951 68.0596 -6.09952 65.7894 -4.6803L49.7651 5.33726L35.2861 17.4816C33.2348 19.2022 32.3446 21.942 32.9928 24.5397L37.5683 42.8752L44.644 60.3984C45.6464 62.881 47.9771 64.5743 50.6479 64.7605L69.5 66.075L88.3521 64.7606C91.0229 64.5743 93.3536 62.881 94.356 60.3984L101.432 42.8752L106.007 24.5397C106.655 21.942 105.765 19.2022 103.714 17.4816L89.2349 5.33726L73.2106 -4.6803Z" fill="url(#paint12_linear_1198_2104)"/>
<path d="M71.2106 -1.6803C68.9404 -3.09951 66.0596 -3.09952 63.7894 -1.6803L47.7651 8.33726L33.2861 20.4816C31.2348 22.2022 30.3446 24.942 30.9928 27.5397L35.5683 45.8752L42.644 63.3984C43.6464 65.881 45.9771 67.5743 48.6479 67.7605L67.5 69.075L86.3521 67.7606C89.0229 67.5743 91.3536 65.881 92.356 63.3984L99.4317 45.8752L104.007 27.5397C104.655 24.942 103.765 22.2022 101.714 20.4816L87.2349 8.33726L71.2106 -1.6803Z" fill="url(#paint13_linear_1198_2104)"/>
<path d="M27.2106 -4.6803C24.9404 -6.09951 22.0596 -6.09952 19.7894 -4.6803L3.76511 5.33726L-10.7139 17.4816C-12.7652 19.2022 -13.6554 21.942 -13.0072 24.5397L-8.43172 42.8752L-1.356 60.3984C-0.353561 62.881 1.97711 64.5743 4.64793 64.7605L23.5 66.075L42.3521 64.7606C45.0229 64.5743 47.3536 62.881 48.356 60.3984L55.4317 42.8752L60.0072 24.5397C60.6554 21.942 59.7652 19.2022 57.7139 17.4816L43.2349 5.33726L27.2106 -4.6803Z" fill="url(#paint14_linear_1198_2104)"/>
<path d="M25.2106 -1.6803C22.9404 -3.09951 20.0596 -3.09952 17.7894 -1.6803L1.76511 8.33726L-12.7139 20.4816C-14.7652 22.2022 -15.6554 24.942 -15.0072 27.5397L-10.4317 45.8752L-3.356 63.3984C-2.35356 65.881 -0.022892 67.5743 2.64793 67.7605L21.5 69.075L40.3521 67.7606C43.0229 67.5743 45.3536 65.881 46.356 63.3984L53.4317 45.8752L58.0072 27.5397C58.6554 24.942 57.7652 22.2022 55.7139 20.4816L41.2349 8.33726L25.2106 -1.6803Z" fill="url(#paint15_linear_1198_2104)"/>
<path d="M32.2106 43.3197C29.9404 41.9005 27.0596 41.9005 24.7894 43.3197L8.76511 53.3373L-5.71391 65.4816C-7.7652 67.2022 -8.65543 69.942 -8.00721 72.5397L-3.43172 90.8752L3.644 108.398C4.64644 110.881 6.97711 112.574 9.64793 112.761L28.5 114.075L47.3521 112.761C50.0229 112.574 52.3536 110.881 53.356 108.398L60.4317 90.8752L65.0072 72.5397C65.6554 69.942 64.7652 67.2022 62.7139 65.4816L48.2349 53.3373L32.2106 43.3197Z" fill="url(#paint16_linear_1198_2104)"/>
<path d="M30.2106 46.3197C27.9404 44.9005 25.0596 44.9005 22.7894 46.3197L6.76511 56.3373L-7.71391 68.4816C-9.7652 70.2022 -10.6554 72.942 -10.0072 75.5397L-5.43172 93.8752L1.644 111.398C2.64644 113.881 4.97711 115.574 7.64793 115.761L26.5 117.075L45.3521 115.761C48.0229 115.574 50.3536 113.881 51.356 111.398L58.4317 93.8752L63.0072 75.5397C63.6554 72.942 62.7652 70.2022 60.7139 68.4816L46.2349 56.3373L30.2106 46.3197Z" fill="url(#paint17_linear_1198_2104)"/>
<path d="M68.2106 51.3197C65.9404 49.9005 63.0596 49.9005 60.7894 51.3197L44.7651 61.3373L30.2861 73.4816C28.2348 75.2022 27.3446 77.942 27.9928 80.5397L32.5683 98.8752L39.644 116.398C40.6464 118.881 42.9771 120.574 45.6479 120.761L64.5 122.075L83.3521 120.761C86.0229 120.574 88.3536 118.881 89.356 116.398L96.4317 98.8752L101.007 80.5397C101.655 77.942 100.765 75.2022 98.7139 73.4816L84.2349 61.3373L68.2106 51.3197Z" fill="url(#paint18_linear_1198_2104)"/>
<path d="M66.2106 54.3197C63.9404 52.9005 61.0596 52.9005 58.7894 54.3197L42.7651 64.3373L28.2861 76.4816C26.2348 78.2022 25.3446 80.942 25.9928 83.5397L30.5683 101.875L37.644 119.398C38.6464 121.881 40.9771 123.574 43.6479 123.761L62.5 125.075L81.3521 123.761C84.0229 123.574 86.3536 121.881 87.356 119.398L94.4317 101.875L99.0072 83.5397C99.6554 80.942 98.7652 78.2022 96.7139 76.4816L82.2349 64.3373L66.2106 54.3197Z" fill="url(#paint19_linear_1198_2104)"/>
<path d="M89.0989 25.2826C86.5612 24.4294 83.7591 25.0985 81.8806 27.0061L68.6208 40.4712L57.358 55.646C55.7624 57.7959 55.5328 60.6676 56.7665 63.0437L65.4751 79.8154L76.4268 95.2163C77.9784 97.3981 80.6386 98.5039 83.2796 98.0648L101.922 94.9652L119.953 89.3086C122.507 88.5072 124.381 86.3189 124.78 83.6714L127.592 64.9841L127.785 46.0872C127.812 43.4101 126.31 40.9519 123.915 39.7548L107.011 31.3049L89.0989 25.2826Z" fill="url(#paint20_linear_1198_2104)"/>
<path d="M87.8504 28.6655C85.3127 27.8123 82.5106 28.4813 80.632 30.3889L67.3723 43.854L56.1095 59.0289C54.5138 61.1787 54.2842 64.0504 55.518 66.4265L64.2265 83.1982L75.1783 98.5991C76.7298 100.781 79.39 101.887 82.0311 101.448L100.673 98.348L118.704 92.6914C121.259 91.89 123.133 89.7017 123.531 87.0543L126.344 68.3669L126.536 49.4701C126.563 46.7929 125.061 44.3347 122.666 43.1376L105.763 34.6877L87.8504 28.6655Z" fill="url(#paint21_linear_1198_2104)"/>
<path d="M151.203 -4.6803C153.474 -6.09951 156.354 -6.09952 158.625 -4.6803L174.649 5.33726L189.128 17.4816C191.179 19.2022 192.069 21.942 191.421 24.5397L186.846 42.8752L179.77 60.3984C178.768 62.881 176.437 64.5743 173.766 64.7605L154.914 66.075L136.062 64.7606C133.391 64.5743 131.061 62.881 130.058 60.3984L122.982 42.8752L118.407 24.5397C117.759 21.942 118.649 19.2022 120.7 17.4816L135.179 5.33726L151.203 -4.6803Z" fill="url(#paint22_linear_1198_2104)"/>
<path d="M153.203 -1.6803C155.474 -3.09951 158.354 -3.09952 160.625 -1.6803L176.649 8.33726L191.128 20.4816C193.179 22.2022 194.069 24.942 193.421 27.5397L188.846 45.8752L181.77 63.3984C180.768 65.881 178.437 67.5743 175.766 67.7605L156.914 69.075L138.062 67.7606C135.391 67.5743 133.061 65.881 132.058 63.3984L124.982 45.8752L120.407 27.5397C119.759 24.942 120.649 22.2022 122.7 20.4816L137.179 8.33726L153.203 -1.6803Z" fill="url(#paint23_linear_1198_2104)"/>
<path d="M197.203 -4.6803C199.474 -6.09951 202.354 -6.09952 204.625 -4.6803L220.649 5.33726L235.128 17.4816C237.179 19.2022 238.069 21.942 237.421 24.5397L232.846 42.8752L225.77 60.3984C224.768 62.881 222.437 64.5743 219.766 64.7605L200.914 66.075L182.062 64.7606C179.391 64.5743 177.061 62.881 176.058 60.3984L168.982 42.8752L164.407 24.5397C163.759 21.942 164.649 19.2022 166.7 17.4816L181.179 5.33726L197.203 -4.6803Z" fill="url(#paint24_linear_1198_2104)"/>
<path d="M199.203 -1.6803C201.474 -3.09951 204.354 -3.09952 206.625 -1.6803L222.649 8.33726L237.128 20.4816C239.179 22.2022 240.069 24.942 239.421 27.5397L234.846 45.8752L227.77 63.3984C226.768 65.881 224.437 67.5743 221.766 67.7605L202.914 69.075L184.062 67.7606C181.391 67.5743 179.061 65.881 178.058 63.3984L170.982 45.8752L166.407 27.5397C165.759 24.942 166.649 22.2022 168.7 20.4816L183.179 8.33726L199.203 -1.6803Z" fill="url(#paint25_linear_1198_2104)"/>
<path d="M192.203 43.3197C194.474 41.9005 197.354 41.9005 199.625 43.3197L215.649 53.3373L230.128 65.4816C232.179 67.2022 233.069 69.942 232.421 72.5397L227.846 90.8752L220.77 108.398C219.768 110.881 217.437 112.574 214.766 112.761L195.914 114.075L177.062 112.761C174.391 112.574 172.061 110.881 171.058 108.398L163.982 90.8752L159.407 72.5397C158.759 69.942 159.649 67.2022 161.7 65.4816L176.179 53.3373L192.203 43.3197Z" fill="url(#paint26_linear_1198_2104)"/>
<path d="M194.203 46.3197C196.474 44.9005 199.354 44.9005 201.625 46.3197L217.649 56.3373L232.128 68.4816C234.179 70.2022 235.069 72.942 234.421 75.5397L229.846 93.8752L222.77 111.398C221.768 113.881 219.437 115.574 216.766 115.761L197.914 117.075L179.062 115.761C176.391 115.574 174.061 113.881 173.058 111.398L165.982 93.8752L161.407 75.5397C160.759 72.942 161.649 70.2022 163.7 68.4816L178.179 56.3373L194.203 46.3197Z" fill="url(#paint27_linear_1198_2104)"/>
<path d="M156.203 51.3197C158.474 49.9005 161.354 49.9005 163.625 51.3197L179.649 61.3373L194.128 73.4816C196.179 75.2022 197.069 77.942 196.421 80.5397L191.846 98.8752L184.77 116.398C183.768 118.881 181.437 120.574 178.766 120.761L159.914 122.075L141.062 120.761C138.391 120.574 136.061 118.881 135.058 116.398L127.982 98.8752L123.407 80.5397C122.759 77.942 123.649 75.2022 125.7 73.4816L140.179 61.3373L156.203 51.3197Z" fill="url(#paint28_linear_1198_2104)"/>
<path d="M158.203 54.3197C160.474 52.9005 163.354 52.9005 165.625 54.3197L181.649 64.3373L196.128 76.4816C198.179 78.2022 199.069 80.942 198.421 83.5397L193.846 101.875L186.77 119.398C185.768 121.881 183.437 123.574 180.766 123.761L161.914 125.075L143.062 123.761C140.391 123.574 138.061 121.881 137.058 119.398L129.982 101.875L125.407 83.5397C124.759 80.942 125.649 78.2022 127.7 76.4816L142.179 64.3373L158.203 54.3197Z" fill="url(#paint29_linear_1198_2104)"/>
<path d="M135.315 25.2826C137.853 24.4294 140.655 25.0985 142.534 27.0061L155.793 40.4712L167.056 55.646C168.652 57.7959 168.881 60.6676 167.648 63.0437L158.939 79.8154L147.987 95.2163C146.436 97.3981 143.775 98.5039 141.134 98.0648L122.493 94.9652L104.461 89.3086C101.907 88.5072 100.033 86.3189 99.6344 83.6714L96.8216 64.9841L96.6293 46.0872C96.6021 43.4101 98.1043 40.9519 100.499 39.7548L117.403 31.3049L135.315 25.2826Z" fill="url(#paint30_linear_1198_2104)"/>
<path d="M136.564 28.6655C139.101 27.8123 141.903 28.4813 143.782 30.3889L157.042 43.854L168.305 59.0289C169.9 61.1787 170.13 64.0504 168.896 66.4265L160.188 83.1982L149.236 98.5991C147.684 100.781 145.024 101.887 142.383 101.448L123.741 98.348L105.71 92.6914C103.155 91.89 101.281 89.7017 100.883 87.0543L98.0701 68.3669L97.8779 49.4701C97.8506 46.7929 99.3528 44.3347 101.748 43.1376L118.651 34.6877L136.564 28.6655Z" fill="url(#paint31_linear_1198_2104)"/>
</g>
<defs>
<linearGradient id="paint0_linear_1198_2104" x1="80.9319" y1="716.082" x2="98.6963" y2="768.936" gradientUnits="userSpaceOnUse">
<stop stop-color="#B36363"/>
<stop offset="1" stop-color="#9D9393"/>
</linearGradient>
<linearGradient id="paint1_linear_1198_2104" x1="59.508" y1="665" x2="59.508" y2="721.697" gradientUnits="userSpaceOnUse">
<stop stop-color="#D97171"/>
<stop offset="1" stop-color="#835252"/>
</linearGradient>
<linearGradient id="paint2_linear_1198_2104" x1="250.414" y1="7" x2="300.414" y2="72" gradientUnits="userSpaceOnUse">
<stop stop-color="white"/>
<stop offset="1" stop-color="#D1C0B4"/>
</linearGradient>
<linearGradient id="paint3_linear_1198_2104" x1="252.414" y1="10" x2="302.414" y2="75" gradientUnits="userSpaceOnUse">
<stop stop-color="#FF9142"/>
<stop offset="1" stop-color="#4F2B11"/>
</linearGradient>
<linearGradient id="paint4_linear_1198_2104" x1="296.414" y1="7" x2="346.414" y2="72" gradientUnits="userSpaceOnUse">
<stop stop-color="white"/>
<stop offset="1" stop-color="#D1C0B4"/>
</linearGradient>
<linearGradient id="paint5_linear_1198_2104" x1="298.414" y1="10" x2="348.414" y2="75" gradientUnits="userSpaceOnUse">
<stop stop-color="#FF9142"/>
<stop offset="1" stop-color="#4F2B11"/>
</linearGradient>
<linearGradient id="paint6_linear_1198_2104" x1="291.414" y1="55" x2="341.414" y2="120" gradientUnits="userSpaceOnUse">
<stop stop-color="white"/>
<stop offset="1" stop-color="#D1C0B4"/>
</linearGradient>
<linearGradient id="paint7_linear_1198_2104" x1="293.414" y1="58" x2="343.414" y2="123" gradientUnits="userSpaceOnUse">
<stop stop-color="#FF9142"/>
<stop offset="1" stop-color="#4F2B11"/>
</linearGradient>
<linearGradient id="paint8_linear_1198_2104" x1="255.414" y1="63" x2="305.414" y2="128" gradientUnits="userSpaceOnUse">
<stop stop-color="white"/>
<stop offset="1" stop-color="#D1C0B4"/>
</linearGradient>
<linearGradient id="paint9_linear_1198_2104" x1="257.414" y1="66" x2="307.414" y2="131" gradientUnits="userSpaceOnUse">
<stop stop-color="#FF9142"/>
<stop offset="1" stop-color="#4F2B11"/>
</linearGradient>
<linearGradient id="paint10_linear_1198_2104" x1="232.6" y1="29.9577" x2="266.138" y2="104.792" gradientUnits="userSpaceOnUse">
<stop stop-color="white"/>
<stop offset="1" stop-color="#D1C0B4"/>
</linearGradient>
<linearGradient id="paint11_linear_1198_2104" x1="233.849" y1="33.3405" x2="267.387" y2="108.175" gradientUnits="userSpaceOnUse">
<stop stop-color="#FF9142"/>
<stop offset="1" stop-color="#4F2B11"/>
</linearGradient>
<linearGradient id="paint12_linear_1198_2104" x1="102" y1="7" x2="52" y2="72" gradientUnits="userSpaceOnUse">
<stop stop-color="white"/>
<stop offset="1" stop-color="#D1C0B4"/>
</linearGradient>
<linearGradient id="paint13_linear_1198_2104" x1="100" y1="10" x2="50" y2="75" gradientUnits="userSpaceOnUse">
<stop stop-color="#FF9142"/>
<stop offset="1" stop-color="#4F2B11"/>
</linearGradient>
<linearGradient id="paint14_linear_1198_2104" x1="56" y1="7" x2="6" y2="72" gradientUnits="userSpaceOnUse">
<stop stop-color="white"/>
<stop offset="1" stop-color="#D1C0B4"/>
</linearGradient>
<linearGradient id="paint15_linear_1198_2104" x1="54" y1="10" x2="4" y2="75" gradientUnits="userSpaceOnUse">
<stop stop-color="#FF9142"/>
<stop offset="1" stop-color="#4F2B11"/>
</linearGradient>
<linearGradient id="paint16_linear_1198_2104" x1="61" y1="55" x2="11" y2="120" gradientUnits="userSpaceOnUse">
<stop stop-color="white"/>
<stop offset="1" stop-color="#D1C0B4"/>
</linearGradient>
<linearGradient id="paint17_linear_1198_2104" x1="59" y1="58" x2="9" y2="123" gradientUnits="userSpaceOnUse">
<stop stop-color="#FF9142"/>
<stop offset="1" stop-color="#4F2B11"/>
</linearGradient>
<linearGradient id="paint18_linear_1198_2104" x1="97" y1="63" x2="47" y2="128" gradientUnits="userSpaceOnUse">
<stop stop-color="white"/>
<stop offset="1" stop-color="#D1C0B4"/>
</linearGradient>
<linearGradient id="paint19_linear_1198_2104" x1="95" y1="66" x2="45" y2="131" gradientUnits="userSpaceOnUse">
<stop stop-color="#FF9142"/>
<stop offset="1" stop-color="#4F2B11"/>
</linearGradient>
<linearGradient id="paint20_linear_1198_2104" x1="119.814" y1="29.9577" x2="86.276" y2="104.792" gradientUnits="userSpaceOnUse">
<stop stop-color="white"/>
<stop offset="1" stop-color="#D1C0B4"/>
</linearGradient>
<linearGradient id="paint21_linear_1198_2104" x1="118.565" y1="33.3405" x2="85.0274" y2="108.175" gradientUnits="userSpaceOnUse">
<stop stop-color="#FF9142"/>
<stop offset="1" stop-color="#4F2B11"/>
</linearGradient>
<linearGradient id="paint22_linear_1198_2104" x1="122.414" y1="7" x2="172.414" y2="72" gradientUnits="userSpaceOnUse">
<stop stop-color="white"/>
<stop offset="1" stop-color="#D1C0B4"/>
</linearGradient>
<linearGradient id="paint23_linear_1198_2104" x1="124.414" y1="10" x2="174.414" y2="75" gradientUnits="userSpaceOnUse">
<stop stop-color="#FF9142"/>
<stop offset="1" stop-color="#4F2B11"/>
</linearGradient>
<linearGradient id="paint24_linear_1198_2104" x1="168.414" y1="7" x2="218.414" y2="72" gradientUnits="userSpaceOnUse">
<stop stop-color="white"/>
<stop offset="1" stop-color="#D1C0B4"/>
</linearGradient>
<linearGradient id="paint25_linear_1198_2104" x1="170.414" y1="10" x2="220.414" y2="75" gradientUnits="userSpaceOnUse">
<stop stop-color="#FF9142"/>
<stop offset="1" stop-color="#4F2B11"/>
</linearGradient>
<linearGradient id="paint26_linear_1198_2104" x1="163.414" y1="55" x2="213.414" y2="120" gradientUnits="userSpaceOnUse">
<stop stop-color="white"/>
<stop offset="1" stop-color="#D1C0B4"/>
</linearGradient>
<linearGradient id="paint27_linear_1198_2104" x1="165.414" y1="58" x2="215.414" y2="123" gradientUnits="userSpaceOnUse">
<stop stop-color="#FF9142"/>
<stop offset="1" stop-color="#4F2B11"/>
</linearGradient>
<linearGradient id="paint28_linear_1198_2104" x1="127.414" y1="63" x2="177.414" y2="128" gradientUnits="userSpaceOnUse">
<stop stop-color="white"/>
<stop offset="1" stop-color="#D1C0B4"/>
</linearGradient>
<linearGradient id="paint29_linear_1198_2104" x1="129.414" y1="66" x2="179.414" y2="131" gradientUnits="userSpaceOnUse">
<stop stop-color="#FF9142"/>
<stop offset="1" stop-color="#4F2B11"/>
</linearGradient>
<linearGradient id="paint30_linear_1198_2104" x1="104.6" y1="29.9577" x2="138.138" y2="104.792" gradientUnits="userSpaceOnUse">
<stop stop-color="white"/>
<stop offset="1" stop-color="#D1C0B4"/>
</linearGradient>
<linearGradient id="paint31_linear_1198_2104" x1="105.849" y1="33.3405" x2="139.387" y2="108.175" gradientUnits="userSpaceOnUse">
<stop stop-color="#FF9142"/>
<stop offset="1" stop-color="#4F2B11"/>
</linearGradient>
<clipPath id="clip0_1198_2104">
<rect width="360" height="800" fill="white"/>
</clipPath>
</defs>
</svg>
