<svg width="360" height="800" viewBox="0 0 360 800" fill="none" xmlns="http://www.w3.org/2000/svg">
<g clip-path="url(#clip0_1198_2205)">
<rect width="360" height="800" fill="#43456A"/>
<path d="M281.397 99.959C290.475 83.2001 314.525 83.2002 323.603 99.959L355.621 159.069C364.283 175.06 352.705 194.5 334.518 194.5H270.482C252.295 194.5 240.717 175.06 249.379 159.069L281.397 99.959Z" fill="#696DC5"/>
<circle cx="356" cy="108" r="67" fill="url(#paint0_linear_1198_2205)"/>
<rect x="78" width="282" height="83" fill="url(#paint1_linear_1198_2205)"/>
<rect x="78" y="16" width="282" height="67" fill="url(#paint2_linear_1198_2205)"/>
<path d="M0 0H81V800H0V0Z" fill="url(#paint3_linear_1198_2205)"/>
</g>
<defs>
<linearGradient id="paint0_linear_1198_2205" x1="356" y1="41" x2="356" y2="175" gradientUnits="userSpaceOnUse">
<stop stop-color="#8084EB"/>
<stop offset="1" stop-color="#181EB4"/>
</linearGradient>
<linearGradient id="paint1_linear_1198_2205" x1="238.251" y1="-17" x2="240.173" y2="99.0026" gradientUnits="userSpaceOnUse">
<stop stop-color="#696EDA"/>
<stop offset="1" stop-color="#4348B5"/>
</linearGradient>
<linearGradient id="paint2_linear_1198_2205" x1="238.251" y1="2.27711" x2="239.503" y2="95.9267" gradientUnits="userSpaceOnUse">
<stop stop-color="#696DC5"/>
<stop offset="1" stop-color="#0F1148"/>
</linearGradient>
<linearGradient id="paint3_linear_1198_2205" x1="-32.4" y1="497.409" x2="110.7" y2="497.409" gradientUnits="userSpaceOnUse">
<stop stop-color="#B0B2E3"/>
<stop offset="1" stop-color="#010799"/>
</linearGradient>
<clipPath id="clip0_1198_2205">
<rect width="360" height="800" fill="white"/>
</clipPath>
</defs>
</svg>
