<svg width="360" height="800" viewBox="0 0 360 800" fill="none" xmlns="http://www.w3.org/2000/svg">
<g clip-path="url(#clip0_1308_3216)">
<rect width="360" height="800" fill="#256D79"/>
<path d="M-1 0H360L285.5 81.5C285.5 81.5 77 82.7154 74 81.5C71 80.2846 -1 0 -1 0Z" fill="url(#paint0_linear_1308_3216)" fill-opacity="0.8"/>
<path d="M49.8043 616H308.358L407 800H-47L49.8043 616Z" fill="url(#paint1_linear_1308_3216)"/>
<rect x="74" y="331" width="7" height="213" transform="rotate(-90 74 331)" fill="url(#paint2_linear_1308_3216)"/>
<rect x="74" y="89" width="7" height="238" fill="url(#paint3_linear_1308_3216)"/>
<rect x="96" y="89" width="7" height="238" fill="#D9D9D9"/>
<rect x="112" y="89" width="7" height="238" fill="#D9D9D9"/>
<rect x="128" y="89" width="7" height="238" fill="#D9D9D9"/>
<rect x="144" y="89" width="7" height="238" fill="#D9D9D9"/>
<rect x="160" y="89" width="7" height="238" fill="#D9D9D9"/>
<rect x="176" y="89" width="7" height="238" fill="#D9D9D9"/>
<rect x="192" y="89" width="7" height="238" fill="#D9D9D9"/>
<rect x="208" y="89" width="7" height="238" fill="#D9D9D9"/>
<rect x="224" y="89" width="7" height="238" fill="#D9D9D9"/>
<rect x="240" y="89" width="7" height="238" fill="#D9D9D9"/>
<rect x="256" y="89" width="7" height="238" fill="#D9D9D9"/>
<rect x="74" y="89" width="7" height="213" transform="rotate(-90 74 89)" fill="url(#paint4_linear_1308_3216)"/>
<rect x="279" y="89" width="7" height="238" fill="url(#paint5_linear_1308_3216)"/>
<path d="M81 89H138V296.5L81 327V89Z" fill="url(#paint6_linear_1308_3216)"/>
<path d="M279 89H222V296.5L279 327V89Z" fill="url(#paint7_linear_1308_3216)"/>
<path d="M287 86.4865L361 0V800H287V86.4865Z" fill="url(#paint8_linear_1308_3216)"/>
<path d="M74 86.4865L0 0V800H74V86.4865Z" fill="url(#paint9_linear_1308_3216)"/>
</g>
<defs>
<linearGradient id="paint0_linear_1308_3216" x1="172.5" y1="-12.1539" x2="176.93" y2="111.764" gradientUnits="userSpaceOnUse">
<stop stop-color="#3AA6B9"/>
<stop offset="1" stop-color="#184249"/>
</linearGradient>
<linearGradient id="paint1_linear_1308_3216" x1="-47" y1="708" x2="402.099" y2="708" gradientUnits="userSpaceOnUse">
<stop stop-color="#4D7D86"/>
<stop offset="0.28" stop-color="#88A9AF"/>
<stop offset="0.525" stop-color="#69C1D0"/>
<stop offset="0.760162" stop-color="#5A9EAA"/>
<stop offset="1" stop-color="#50818B"/>
</linearGradient>
<linearGradient id="paint2_linear_1308_3216" x1="91" y1="433.5" x2="68" y2="435.5" gradientUnits="userSpaceOnUse">
<stop stop-color="#E9E7E7"/>
<stop offset="1" stop-color="#CCC7C7"/>
</linearGradient>
<linearGradient id="paint3_linear_1308_3216" x1="77.5" y1="89" x2="77.5" y2="327" gradientUnits="userSpaceOnUse">
<stop stop-color="#C1B1B1"/>
<stop offset="1" stop-color="#B0B0B0"/>
</linearGradient>
<linearGradient id="paint4_linear_1308_3216" x1="91" y1="191.5" x2="68" y2="193.5" gradientUnits="userSpaceOnUse">
<stop stop-color="#E9E7E7"/>
<stop offset="1" stop-color="#CCC7C7"/>
</linearGradient>
<linearGradient id="paint5_linear_1308_3216" x1="282.5" y1="89" x2="282.5" y2="327" gradientUnits="userSpaceOnUse">
<stop stop-color="#C1B1B1"/>
<stop offset="1" stop-color="#B0B0B0"/>
</linearGradient>
<linearGradient id="paint6_linear_1308_3216" x1="109.5" y1="89" x2="109.5" y2="327" gradientUnits="userSpaceOnUse">
<stop stop-color="#CBEEF4"/>
<stop offset="1" stop-color="#D9D9D9"/>
</linearGradient>
<linearGradient id="paint7_linear_1308_3216" x1="250.5" y1="89" x2="250.5" y2="327" gradientUnits="userSpaceOnUse">
<stop stop-color="#CBEEF4"/>
<stop offset="1" stop-color="#D9D9D9"/>
</linearGradient>
<linearGradient id="paint8_linear_1308_3216" x1="273" y1="381.622" x2="379.003" y2="383.009" gradientUnits="userSpaceOnUse">
<stop stop-color="#89D6E4"/>
<stop offset="1" stop-color="#061517"/>
</linearGradient>
<linearGradient id="paint9_linear_1308_3216" x1="88" y1="381.622" x2="-18.0031" y2="383.009" gradientUnits="userSpaceOnUse">
<stop stop-color="#89D6E4"/>
<stop offset="1" stop-color="#061517"/>
</linearGradient>
<clipPath id="clip0_1308_3216">
<rect width="360" height="800" fill="white"/>
</clipPath>
</defs>
</svg>
