<svg width="360" height="800" viewBox="0 0 360 800" fill="none" xmlns="http://www.w3.org/2000/svg">
<g clip-path="url(#clip0_1221_3269)">
<rect width="360" height="800" fill="white"/>
<path d="M352.025 10.6436L352 -1.00037L45.0007 -0.344552L45.0256 11.2994L352.025 10.6436Z" fill="url(#paint0_linear_1221_3269)" stroke="#BC6C6C" stroke-dasharray="2 2"/>
<path d="M352.049 22.2891L352.024 10.6451L45.0249 11.301L45.0498 22.9449L352.049 22.2891Z" fill="url(#paint1_linear_1221_3269)" stroke="#BC6C6C" stroke-dasharray="2 2"/>
<path d="M352.074 33.9336L352.05 22.2897L45.0503 22.9455L45.0752 34.5894L352.074 33.9336Z" fill="url(#paint2_linear_1221_3269)" stroke="#BC6C6C" stroke-dasharray="2 2"/>
<path d="M352.099 45.5781L352.074 33.9342L45.0752 34.59L45.1001 46.2339L352.099 45.5781Z" fill="url(#paint3_linear_1221_3269)" stroke="#BC6C6C" stroke-dasharray="2 2"/>
<path d="M352.124 57.2227L352.099 45.5787L45.0994 46.2345L45.1242 57.8785L352.124 57.2227Z" fill="url(#paint4_linear_1221_3269)" stroke="#BC6C6C" stroke-dasharray="2 2"/>
<path d="M352.148 68.8672L352.123 57.2233L45.1243 57.8791L45.1492 69.523L352.148 68.8672Z" fill="url(#paint5_linear_1221_3269)" stroke="#BC6C6C" stroke-dasharray="2 2"/>
<path d="M352.174 80.5117L352.149 68.8678L45.1497 69.5236L45.1745 81.1675L352.174 80.5117Z" fill="url(#paint6_linear_1221_3269)" stroke="#BC6C6C" stroke-dasharray="2 2"/>
<path d="M352.199 92.1572L352.174 80.5133L45.1746 81.1691L45.1994 92.813L352.199 92.1572Z" fill="url(#paint7_linear_1221_3269)" stroke="#BC6C6C" stroke-dasharray="2 2"/>
<path d="M352.223 103.801L352.198 92.1569L45.1987 92.8127L45.2236 104.457L352.223 103.801Z" fill="url(#paint8_linear_1221_3269)" stroke="#BC6C6C" stroke-dasharray="2 2"/>
<rect x="-1" y="542" width="361" height="18" fill="url(#paint9_linear_1221_3269)"/>
<path d="M295.111 0L287 0.00014876V559H295.111V0Z" fill="url(#paint10_linear_1221_3269)" stroke="#BC6C6C" stroke-dasharray="2 2"/>
<path d="M303.222 0L295.111 0.00014876V559H303.222V0Z" fill="url(#paint11_linear_1221_3269)" stroke="#BC6C6C" stroke-dasharray="2 2"/>
<path d="M311.333 0L303.222 0.00014876V559H311.333V0Z" fill="url(#paint12_linear_1221_3269)" stroke="#BC6C6C" stroke-dasharray="2 2"/>
<path d="M319.444 0L311.333 0.00014876V559H319.444V0Z" fill="url(#paint13_linear_1221_3269)" stroke="#BC6C6C" stroke-dasharray="2 2"/>
<path d="M327.556 0L319.445 0.00014876V559H327.556V0Z" fill="url(#paint14_linear_1221_3269)" stroke="#BC6C6C" stroke-dasharray="2 2"/>
<path d="M335.667 0L327.556 0.00014876V559H335.667V0Z" fill="url(#paint15_linear_1221_3269)" stroke="#BC6C6C" stroke-dasharray="2 2"/>
<path d="M343.778 0L335.667 0.00014876V559H343.778V0Z" fill="url(#paint16_linear_1221_3269)" stroke="#BC6C6C" stroke-dasharray="2 2"/>
<path d="M351.889 0L343.778 0.00014876V559H351.889V0Z" fill="url(#paint17_linear_1221_3269)" stroke="#BC6C6C" stroke-dasharray="2 2"/>
<path d="M360 0L351.889 0.00014876V559H360V0Z" fill="url(#paint18_linear_1221_3269)" stroke="#BC6C6C" stroke-dasharray="2 2"/>
<path d="M8.22217 0L-5.43594e-05 0.00014876V559H8.22217V0Z" fill="url(#paint19_linear_1221_3269)" stroke="#BC6C6C" stroke-dasharray="2 2"/>
<path d="M16.4443 0L8.22211 0.00014876V559H16.4443V0Z" fill="url(#paint20_linear_1221_3269)" stroke="#BC6C6C" stroke-dasharray="2 2"/>
<path d="M24.6667 0L16.4445 0.00014876V559H24.6667V0Z" fill="url(#paint21_linear_1221_3269)" stroke="#BC6C6C" stroke-dasharray="2 2"/>
<path d="M32.8889 0L24.6667 0.00014876V559H32.8889V0Z" fill="url(#paint22_linear_1221_3269)" stroke="#BC6C6C" stroke-dasharray="2 2"/>
<path d="M41.1111 0L32.8889 0.00014876V559H41.1111V0Z" fill="url(#paint23_linear_1221_3269)" stroke="#BC6C6C" stroke-dasharray="2 2"/>
<path d="M49.3333 0L41.111 0.00014876V559H49.3333V0Z" fill="url(#paint24_linear_1221_3269)" stroke="#BC6C6C" stroke-dasharray="2 2"/>
<path d="M57.5557 0L49.3334 0.00014876V559H57.5557V0Z" fill="url(#paint25_linear_1221_3269)" stroke="#BC6C6C" stroke-dasharray="2 2"/>
<path d="M65.7778 0L57.5556 0.00014876V559H65.7778V0Z" fill="url(#paint26_linear_1221_3269)" stroke="#BC6C6C" stroke-dasharray="2 2"/>
<path d="M74 0L65.7778 0.00014876V559H74V0Z" fill="url(#paint27_linear_1221_3269)" stroke="#BC6C6C" stroke-dasharray="2 2"/>
<rect x="14.0117" y="708.599" width="332.912" height="19.3465" fill="url(#paint28_linear_1221_3269)"/>
<rect x="-1" y="768" width="332.912" height="19.3465" fill="url(#paint29_linear_1221_3269)"/>
<path d="M356.229 708.536L290 708.536V800.302H356.229V708.536Z" fill="url(#paint30_linear_1221_3269)" stroke="#BC6C6C" stroke-dasharray="2 2"/>
<path d="M360.644 708.536L312.076 708.536V800.294H360.644V708.536Z" fill="url(#paint31_linear_1221_3269)" stroke="#BC6C6C" stroke-dasharray="2 2"/>
<ellipse cx="327.53" cy="706.976" rx="37.5298" ry="6.97622" fill="url(#paint32_linear_1221_3269)"/>
<path d="M65.229 708.536L-1.00011 708.536V800.302H65.229V708.536Z" fill="url(#paint33_linear_1221_3269)" stroke="#BC6C6C" stroke-dasharray="2 2"/>
<path d="M69.644 708.536L21.076 708.536V800.294H69.644V708.536Z" fill="url(#paint34_linear_1221_3269)" stroke="#BC6C6C" stroke-dasharray="2 2"/>
<ellipse cx="36.5298" cy="706.976" rx="37.5298" ry="6.97622" fill="url(#paint35_linear_1221_3269)"/>
<path d="M73 106C73 46.9055 120.906 -1 180 -1C239.094 -1 287 46.9055 287 106V487H73V106Z" fill="#BD8787"/>
</g>
<defs>
<linearGradient id="paint0_linear_1221_3269" x1="198.235" y1="-2.69018" x2="198.276" y2="16.2506" gradientUnits="userSpaceOnUse">
<stop offset="0.221805" stop-color="#E86868"/>
<stop offset="0.9999" stop-color="#BE0000"/>
<stop offset="1" stop-color="#DED1D1"/>
</linearGradient>
<linearGradient id="paint1_linear_1221_3269" x1="198.26" y1="8.95532" x2="198.3" y2="27.8961" gradientUnits="userSpaceOnUse">
<stop offset="0.221805" stop-color="#E86868"/>
<stop offset="0.9999" stop-color="#BE0000"/>
<stop offset="1" stop-color="#DED1D1"/>
</linearGradient>
<linearGradient id="paint2_linear_1221_3269" x1="198.285" y1="20.5999" x2="198.325" y2="39.5406" gradientUnits="userSpaceOnUse">
<stop offset="0.221805" stop-color="#E86868"/>
<stop offset="0.9999" stop-color="#BE0000"/>
<stop offset="1" stop-color="#DED1D1"/>
</linearGradient>
<linearGradient id="paint3_linear_1221_3269" x1="198.31" y1="32.2444" x2="198.35" y2="51.1852" gradientUnits="userSpaceOnUse">
<stop offset="0.221805" stop-color="#E86868"/>
<stop offset="0.9999" stop-color="#BE0000"/>
<stop offset="1" stop-color="#DED1D1"/>
</linearGradient>
<linearGradient id="paint4_linear_1221_3269" x1="198.334" y1="43.8889" x2="198.374" y2="62.8297" gradientUnits="userSpaceOnUse">
<stop offset="0.221805" stop-color="#E86868"/>
<stop offset="0.9999" stop-color="#BE0000"/>
<stop offset="1" stop-color="#DED1D1"/>
</linearGradient>
<linearGradient id="paint5_linear_1221_3269" x1="198.359" y1="55.5334" x2="198.399" y2="74.4742" gradientUnits="userSpaceOnUse">
<stop offset="0.221805" stop-color="#E86868"/>
<stop offset="0.9999" stop-color="#BE0000"/>
<stop offset="1" stop-color="#DED1D1"/>
</linearGradient>
<linearGradient id="paint6_linear_1221_3269" x1="198.384" y1="67.178" x2="198.425" y2="86.1188" gradientUnits="userSpaceOnUse">
<stop offset="0.221805" stop-color="#E86868"/>
<stop offset="0.9999" stop-color="#BE0000"/>
<stop offset="1" stop-color="#DED1D1"/>
</linearGradient>
<linearGradient id="paint7_linear_1221_3269" x1="198.409" y1="78.8235" x2="198.45" y2="97.7643" gradientUnits="userSpaceOnUse">
<stop offset="0.221805" stop-color="#E86868"/>
<stop offset="0.9999" stop-color="#BE0000"/>
<stop offset="1" stop-color="#DED1D1"/>
</linearGradient>
<linearGradient id="paint8_linear_1221_3269" x1="198.433" y1="90.467" x2="198.474" y2="109.408" gradientUnits="userSpaceOnUse">
<stop offset="0.221805" stop-color="#E86868"/>
<stop offset="0.9999" stop-color="#BE0000"/>
<stop offset="1" stop-color="#DED1D1"/>
</linearGradient>
<linearGradient id="paint9_linear_1221_3269" x1="179.5" y1="542" x2="179.5" y2="560" gradientUnits="userSpaceOnUse">
<stop offset="0.010989" stop-color="#D13737"/>
<stop offset="1" stop-color="#D23131"/>
</linearGradient>
<linearGradient id="paint10_linear_1221_3269" x1="285.594" y1="279.975" x2="298.788" y2="279.975" gradientUnits="userSpaceOnUse">
<stop offset="0.221805" stop-color="#E86868"/>
<stop offset="0.9999" stop-color="#BE0000"/>
<stop offset="1" stop-color="#DED1D1"/>
</linearGradient>
<linearGradient id="paint11_linear_1221_3269" x1="293.705" y1="279.975" x2="306.899" y2="279.975" gradientUnits="userSpaceOnUse">
<stop offset="0.221805" stop-color="#E86868"/>
<stop offset="0.9999" stop-color="#BE0000"/>
<stop offset="1" stop-color="#DED1D1"/>
</linearGradient>
<linearGradient id="paint12_linear_1221_3269" x1="301.816" y1="279.975" x2="315.01" y2="279.975" gradientUnits="userSpaceOnUse">
<stop offset="0.221805" stop-color="#E86868"/>
<stop offset="0.9999" stop-color="#BE0000"/>
<stop offset="1" stop-color="#DED1D1"/>
</linearGradient>
<linearGradient id="paint13_linear_1221_3269" x1="309.927" y1="279.975" x2="323.121" y2="279.975" gradientUnits="userSpaceOnUse">
<stop offset="0.221805" stop-color="#E86868"/>
<stop offset="0.9999" stop-color="#BE0000"/>
<stop offset="1" stop-color="#DED1D1"/>
</linearGradient>
<linearGradient id="paint14_linear_1221_3269" x1="318.039" y1="279.975" x2="331.233" y2="279.975" gradientUnits="userSpaceOnUse">
<stop offset="0.221805" stop-color="#E86868"/>
<stop offset="0.9999" stop-color="#BE0000"/>
<stop offset="1" stop-color="#DED1D1"/>
</linearGradient>
<linearGradient id="paint15_linear_1221_3269" x1="326.15" y1="279.975" x2="339.344" y2="279.975" gradientUnits="userSpaceOnUse">
<stop offset="0.221805" stop-color="#E86868"/>
<stop offset="0.9999" stop-color="#BE0000"/>
<stop offset="1" stop-color="#DED1D1"/>
</linearGradient>
<linearGradient id="paint16_linear_1221_3269" x1="334.261" y1="279.975" x2="347.455" y2="279.975" gradientUnits="userSpaceOnUse">
<stop offset="0.221805" stop-color="#E86868"/>
<stop offset="0.9999" stop-color="#BE0000"/>
<stop offset="1" stop-color="#DED1D1"/>
</linearGradient>
<linearGradient id="paint17_linear_1221_3269" x1="342.372" y1="279.975" x2="355.566" y2="279.975" gradientUnits="userSpaceOnUse">
<stop offset="0.221805" stop-color="#E86868"/>
<stop offset="0.9999" stop-color="#BE0000"/>
<stop offset="1" stop-color="#DED1D1"/>
</linearGradient>
<linearGradient id="paint18_linear_1221_3269" x1="350.483" y1="279.975" x2="363.677" y2="279.975" gradientUnits="userSpaceOnUse">
<stop offset="0.221805" stop-color="#E86868"/>
<stop offset="0.9999" stop-color="#BE0000"/>
<stop offset="1" stop-color="#DED1D1"/>
</linearGradient>
<linearGradient id="paint19_linear_1221_3269" x1="-1.42524" y1="279.975" x2="11.9496" y2="279.975" gradientUnits="userSpaceOnUse">
<stop offset="0.221805" stop-color="#E86868"/>
<stop offset="0.9999" stop-color="#BE0000"/>
<stop offset="1" stop-color="#DED1D1"/>
</linearGradient>
<linearGradient id="paint20_linear_1221_3269" x1="6.79693" y1="279.975" x2="20.1717" y2="279.975" gradientUnits="userSpaceOnUse">
<stop offset="0.221805" stop-color="#E86868"/>
<stop offset="0.9999" stop-color="#BE0000"/>
<stop offset="1" stop-color="#DED1D1"/>
</linearGradient>
<linearGradient id="paint21_linear_1221_3269" x1="15.0193" y1="279.975" x2="28.3942" y2="279.975" gradientUnits="userSpaceOnUse">
<stop offset="0.221805" stop-color="#E86868"/>
<stop offset="0.9999" stop-color="#BE0000"/>
<stop offset="1" stop-color="#DED1D1"/>
</linearGradient>
<linearGradient id="paint22_linear_1221_3269" x1="23.2415" y1="279.975" x2="36.6163" y2="279.975" gradientUnits="userSpaceOnUse">
<stop offset="0.221805" stop-color="#E86868"/>
<stop offset="0.9999" stop-color="#BE0000"/>
<stop offset="1" stop-color="#DED1D1"/>
</linearGradient>
<linearGradient id="paint23_linear_1221_3269" x1="31.4637" y1="279.975" x2="44.8385" y2="279.975" gradientUnits="userSpaceOnUse">
<stop offset="0.221805" stop-color="#E86868"/>
<stop offset="0.9999" stop-color="#BE0000"/>
<stop offset="1" stop-color="#DED1D1"/>
</linearGradient>
<linearGradient id="paint24_linear_1221_3269" x1="39.6858" y1="279.975" x2="53.0607" y2="279.975" gradientUnits="userSpaceOnUse">
<stop offset="0.221805" stop-color="#E86868"/>
<stop offset="0.9999" stop-color="#BE0000"/>
<stop offset="1" stop-color="#DED1D1"/>
</linearGradient>
<linearGradient id="paint25_linear_1221_3269" x1="47.9083" y1="279.975" x2="61.2831" y2="279.975" gradientUnits="userSpaceOnUse">
<stop offset="0.221805" stop-color="#E86868"/>
<stop offset="0.9999" stop-color="#BE0000"/>
<stop offset="1" stop-color="#DED1D1"/>
</linearGradient>
<linearGradient id="paint26_linear_1221_3269" x1="56.1304" y1="279.975" x2="69.5052" y2="279.975" gradientUnits="userSpaceOnUse">
<stop offset="0.221805" stop-color="#E86868"/>
<stop offset="0.9999" stop-color="#BE0000"/>
<stop offset="1" stop-color="#DED1D1"/>
</linearGradient>
<linearGradient id="paint27_linear_1221_3269" x1="64.3526" y1="279.975" x2="77.7274" y2="279.975" gradientUnits="userSpaceOnUse">
<stop offset="0.221805" stop-color="#E86868"/>
<stop offset="0.9999" stop-color="#BE0000"/>
<stop offset="1" stop-color="#DED1D1"/>
</linearGradient>
<linearGradient id="paint28_linear_1221_3269" x1="180.468" y1="708.599" x2="180.468" y2="727.945" gradientUnits="userSpaceOnUse">
<stop offset="0.010989" stop-color="#D28484"/>
<stop offset="1" stop-color="#AE7171"/>
</linearGradient>
<linearGradient id="paint29_linear_1221_3269" x1="165.456" y1="768" x2="165.456" y2="787.347" gradientUnits="userSpaceOnUse">
<stop offset="0.010989" stop-color="#D28484"/>
<stop offset="1" stop-color="#AE7171"/>
</linearGradient>
<linearGradient id="paint30_linear_1221_3269" x1="278.52" y1="754.497" x2="386.253" y2="754.497" gradientUnits="userSpaceOnUse">
<stop offset="0.221805" stop-color="#C46D6D"/>
<stop offset="0.9999" stop-color="#BE0000"/>
<stop offset="1" stop-color="#DED1D1"/>
</linearGradient>
<linearGradient id="paint31_linear_1221_3269" x1="303.658" y1="754.493" x2="382.662" y2="754.493" gradientUnits="userSpaceOnUse">
<stop offset="0.221805" stop-color="#D35353"/>
<stop offset="0.9999" stop-color="#BE0000"/>
<stop offset="1" stop-color="#3E0F0F"/>
</linearGradient>
<linearGradient id="paint32_linear_1221_3269" x1="327.53" y1="700" x2="327.53" y2="713.952" gradientUnits="userSpaceOnUse">
<stop stop-color="#EC7272"/>
<stop offset="1" stop-color="#A61A1A"/>
</linearGradient>
<linearGradient id="paint33_linear_1221_3269" x1="-12.4798" y1="754.497" x2="95.2529" y2="754.497" gradientUnits="userSpaceOnUse">
<stop offset="0.221805" stop-color="#C46D6D"/>
<stop offset="0.9999" stop-color="#BE0000"/>
<stop offset="1" stop-color="#DED1D1"/>
</linearGradient>
<linearGradient id="paint34_linear_1221_3269" x1="12.6576" y1="754.493" x2="91.6615" y2="754.493" gradientUnits="userSpaceOnUse">
<stop offset="0.221805" stop-color="#D35353"/>
<stop offset="0.9999" stop-color="#BE0000"/>
<stop offset="1" stop-color="#3E0F0F"/>
</linearGradient>
<linearGradient id="paint35_linear_1221_3269" x1="36.5298" y1="700" x2="36.5298" y2="713.952" gradientUnits="userSpaceOnUse">
<stop stop-color="#EC7272"/>
<stop offset="1" stop-color="#A61A1A"/>
</linearGradient>
<clipPath id="clip0_1221_3269">
<rect width="360" height="800" fill="white"/>
</clipPath>
</defs>
</svg>
