<svg width="250" height="250" viewBox="0 0 250 250" fill="none" xmlns="http://www.w3.org/2000/svg">
<path d="M91.6095 137.602C89.1349 138.908 86.6926 140.274 84.2849 141.7C70.3136 149.926 37.6843 171.782 36.3271 196.989C35.6084 210.264 43.6923 223.285 60.3506 235.694C63.2311 237.966 66.8019 239.183 70.4698 239.145C74.2774 238.949 79.3973 237.337 79.7855 225.651C81.0984 203.366 87.8839 181.748 99.5415 162.711C100.706 158.287 101.773 154.828 102.479 152.689C97.5901 148.705 93.8406 143.501 91.6095 137.602ZM89.4536 128.661C89.3429 127.444 89.2878 126.223 89.2886 125.001C89.2914 119.933 90.3812 114.925 92.4844 110.315C89.765 109.47 87.0249 108.693 84.2668 107.984C84.0995 107.944 83.9353 107.892 83.7756 107.828C64.229 102.869 29.3188 97.1462 11.4194 113.234C1.52818 122.117 -1.95815 137.053 1.04143 157.586C1.46675 161.215 3.12607 164.588 5.74147 167.139C8.57164 169.714 13.3298 172.219 21.8686 164.197C38.5646 149.405 58.6304 138.928 80.3113 133.683C84.2443 131.375 87.4446 129.679 89.4536 128.661ZM244.254 82.8621C241.423 80.2818 236.665 77.7869 228.126 85.8037C211.421 100.633 191.317 111.114 169.594 116.319C165.675 118.618 162.497 120.309 160.497 121.331C161.154 127.603 160.118 133.937 157.498 139.673C160.209 140.515 162.939 141.298 165.684 142.021C185.137 147.016 220.516 152.989 238.576 136.763C248.458 127.884 251.967 112.966 248.954 92.4324C248.532 88.7972 246.873 85.4179 244.254 82.8621ZM225.6 170.214C203.365 168.853 181.799 162.08 162.778 150.484C158.314 149.288 154.81 148.203 152.668 147.507C148.691 152.382 143.502 156.123 137.62 158.354C138.924 160.81 140.283 163.236 141.695 165.63C149.913 179.611 171.727 212.273 196.929 213.652C210.231 214.367 223.22 206.305 235.642 189.646C237.907 186.765 239.124 183.199 239.093 179.535C238.924 175.705 237.344 170.589 225.6 170.214ZM133.675 169.599C131.385 165.689 129.698 162.515 128.676 160.519C127.454 160.646 126.226 160.71 124.997 160.711C119.937 160.707 114.936 159.62 110.33 157.524C109.529 160.098 108.785 162.689 108.098 165.295C108.098 165.366 108.078 165.434 108.058 165.5C108.05 165.526 108.042 165.552 108.036 165.577C103.978 181.267 96.3589 219.79 113.218 238.582C122.097 248.47 137.014 251.952 157.569 248.965C161.208 248.541 164.59 246.878 167.148 244.256C169.729 241.425 172.223 236.667 164.203 228.132C149.372 211.426 138.887 191.322 133.675 169.599ZM92.4351 1.03554C88.7962 1.45945 85.4138 3.12232 82.8558 5.74501C80.2756 8.57529 77.7809 13.3336 85.8017 21.8683C100.604 38.66 111.091 58.8061 116.356 80.563C118.587 84.4063 120.257 87.5178 121.266 89.4908C127.562 88.8237 133.922 89.8629 139.678 92.4993C140.52 89.77 141.297 87.0209 142.008 84.2545C147.021 64.8058 153.002 29.4833 136.786 11.427C127.913 1.53988 112.995 -1.95537 92.4351 1.03554ZM165.617 108.301C179.602 100.088 212.249 78.2732 213.628 53.0482C214.356 39.764 206.268 26.7116 189.592 14.3066C186.717 12.0303 183.147 10.812 179.481 10.8563C175.674 11.0526 170.554 12.6418 170.166 24.3505C168.829 46.565 162.071 68.1138 150.481 87.1121C149.307 91.6161 148.218 95.1469 147.508 97.3298C152.378 101.31 156.113 106.503 158.337 112.386C160.796 111.084 163.224 109.722 165.617 108.301ZM124.997 151.784C139.789 151.784 151.779 139.793 151.779 125.001C151.779 110.209 139.789 98.2179 124.997 98.2179C110.206 98.2179 98.2155 110.209 98.2155 125.001C98.2326 139.785 110.213 151.766 124.997 151.784ZM124.997 107.145C126.181 107.145 127.317 107.616 128.154 108.453C128.991 109.29 129.461 110.425 129.461 111.609C129.461 112.793 128.991 113.928 128.154 114.766C127.317 115.603 126.181 116.073 124.997 116.073C120.067 116.073 116.07 120.07 116.07 125.001C116.07 126.185 115.6 127.32 114.763 128.157C113.925 128.994 112.79 129.465 111.606 129.465C110.422 129.465 109.287 128.994 108.45 128.157C107.613 127.32 107.143 126.185 107.143 125.001C107.143 115.14 115.137 107.145 124.997 107.145ZM24.3507 79.7862C46.5896 81.1454 68.1591 87.9203 87.1814 99.521C91.6452 100.69 95.1359 101.753 97.3006 102.476C101.272 97.614 106.452 93.8811 112.321 91.6517C111.031 89.2262 109.691 86.8272 108.304 84.4561C100.117 70.4576 78.3521 37.7735 53.0655 36.363C39.8305 35.6755 26.7298 43.6972 14.3165 60.3561C12.0522 63.237 10.8355 66.8027 10.8663 70.4669C10.9644 72.9119 11.25 79.3668 24.3507 79.7862Z" fill="#23FB00"/>
<path d="M91.6095 137.602C89.1349 138.908 86.6926 140.274 84.2849 141.7C70.3136 149.926 37.6843 171.782 36.3271 196.989C35.6084 210.264 43.6923 223.285 60.3506 235.694C63.2311 237.966 66.8019 239.183 70.4698 239.145C74.2774 238.949 79.3973 237.337 79.7855 225.651C81.0984 203.366 87.8839 181.748 99.5415 162.711C100.706 158.287 101.773 154.828 102.479 152.689C97.5901 148.705 93.8406 143.501 91.6095 137.602ZM89.4536 128.661C89.3429 127.444 89.2878 126.223 89.2886 125.001C89.2914 119.933 90.3812 114.925 92.4844 110.315C89.765 109.47 87.0249 108.693 84.2668 107.984C84.0995 107.944 83.9353 107.892 83.7756 107.828C64.229 102.869 29.3188 97.1462 11.4194 113.234C1.52818 122.117 -1.95815 137.053 1.04143 157.586C1.46675 161.215 3.12607 164.588 5.74147 167.139C8.57164 169.714 13.3298 172.219 21.8686 164.197C38.5646 149.405 58.6304 138.928 80.3113 133.683C84.2443 131.375 87.4446 129.679 89.4536 128.661ZM244.254 82.8621C241.423 80.2818 236.665 77.7869 228.126 85.8037C211.421 100.633 191.317 111.114 169.594 116.319C165.675 118.618 162.497 120.309 160.497 121.331C161.154 127.603 160.118 133.937 157.498 139.673C160.209 140.515 162.939 141.298 165.684 142.021C185.137 147.016 220.516 152.989 238.576 136.763C248.458 127.884 251.967 112.966 248.954 92.4324C248.532 88.7972 246.873 85.4179 244.254 82.8621ZM225.6 170.214C203.365 168.853 181.799 162.08 162.778 150.484C158.314 149.288 154.81 148.203 152.668 147.507C148.691 152.382 143.502 156.123 137.62 158.354C138.924 160.81 140.283 163.236 141.695 165.63C149.913 179.611 171.727 212.273 196.929 213.652C210.231 214.367 223.22 206.305 235.642 189.646C237.907 186.765 239.124 183.199 239.093 179.535C238.924 175.705 237.344 170.589 225.6 170.214ZM133.675 169.599C131.385 165.689 129.698 162.515 128.676 160.519C127.454 160.646 126.226 160.71 124.997 160.711C119.937 160.707 114.936 159.62 110.33 157.524C109.529 160.098 108.785 162.689 108.098 165.295C108.098 165.366 108.078 165.434 108.058 165.5C108.05 165.526 108.042 165.552 108.036 165.577C103.978 181.267 96.3589 219.79 113.218 238.582C122.097 248.47 137.014 251.952 157.569 248.965C161.208 248.541 164.59 246.878 167.148 244.256C169.729 241.425 172.223 236.667 164.203 228.132C149.372 211.426 138.887 191.322 133.675 169.599ZM92.4351 1.03554C88.7962 1.45945 85.4138 3.12232 82.8558 5.74501C80.2756 8.57529 77.7809 13.3336 85.8017 21.8683C100.604 38.66 111.091 58.8061 116.356 80.563C118.587 84.4063 120.257 87.5178 121.266 89.4908C127.562 88.8237 133.922 89.8629 139.678 92.4993C140.52 89.77 141.297 87.0209 142.008 84.2545C147.021 64.8058 153.002 29.4833 136.786 11.427C127.913 1.53988 112.995 -1.95537 92.4351 1.03554ZM165.617 108.301C179.602 100.088 212.249 78.2732 213.628 53.0482C214.356 39.764 206.268 26.7116 189.592 14.3066C186.717 12.0303 183.147 10.812 179.481 10.8563C175.674 11.0526 170.554 12.6418 170.166 24.3505C168.829 46.565 162.071 68.1138 150.481 87.1121C149.307 91.6161 148.218 95.1469 147.508 97.3298C152.378 101.31 156.113 106.503 158.337 112.386C160.796 111.084 163.224 109.722 165.617 108.301ZM124.997 151.784C139.789 151.784 151.779 139.793 151.779 125.001C151.779 110.209 139.789 98.2179 124.997 98.2179C110.206 98.2179 98.2155 110.209 98.2155 125.001C98.2326 139.785 110.213 151.766 124.997 151.784ZM124.997 107.145C126.181 107.145 127.317 107.616 128.154 108.453C128.991 109.29 129.461 110.425 129.461 111.609C129.461 112.793 128.991 113.928 128.154 114.766C127.317 115.603 126.181 116.073 124.997 116.073C120.067 116.073 116.07 120.07 116.07 125.001C116.07 126.185 115.6 127.32 114.763 128.157C113.925 128.994 112.79 129.465 111.606 129.465C110.422 129.465 109.287 128.994 108.45 128.157C107.613 127.32 107.143 126.185 107.143 125.001C107.143 115.14 115.137 107.145 124.997 107.145ZM24.3507 79.7862C46.5896 81.1454 68.1591 87.9203 87.1814 99.521C91.6452 100.69 95.1359 101.753 97.3006 102.476C101.272 97.614 106.452 93.8811 112.321 91.6517C111.031 89.2262 109.691 86.8272 108.304 84.4561C100.117 70.4576 78.3521 37.7735 53.0655 36.363C39.8305 35.6755 26.7298 43.6972 14.3165 60.3561C12.0522 63.237 10.8355 66.8027 10.8663 70.4669C10.9644 72.9119 11.25 79.3668 24.3507 79.7862Z" stroke="black"/>
</svg>
